solid OpenSCAD_Model
  facet normal -0 0 -1
    outer loop
      vertex -8 0 0
      vertex -7.76753 1.91452 0
      vertex -7.76753 -1.91452 0
    endloop
  endfacet
  facet normal 0 -0 -1
    outer loop
      vertex -7.76753 -1.91452 0
      vertex -7.76753 1.91452 0
      vertex -7.08365 3.71778 0
    endloop
  endfacet
  facet normal 0 0 -1
    outer loop
      vertex -7.76753 -1.91452 0
      vertex -7.08365 3.71778 0
      vertex -5.98809 5.30498 0
    endloop
  endfacet
  facet normal 0 0 -1
    outer loop
      vertex -7.76753 -1.91452 0
      vertex -5.98809 5.30498 0
      vertex -4.54452 6.58387 0
    endloop
  endfacet
  facet normal 0 0 -1
    outer loop
      vertex -7.76753 -1.91452 0
      vertex -4.54452 6.58387 0
      vertex -2.83684 7.48013 0
    endloop
  endfacet
  facet normal 0 0 -1
    outer loop
      vertex -7.76753 -1.91452 0
      vertex -2.83684 7.48013 0
      vertex -0.964293 7.94167 0
    endloop
  endfacet
  facet normal 0 0 -1
    outer loop
      vertex -7.76753 -1.91452 0
      vertex -0.964293 7.94167 0
      vertex 0.964293 7.94167 0
    endloop
  endfacet
  facet normal 0 0 -1
    outer loop
      vertex -7.76753 -1.91452 0
      vertex 0.964293 7.94167 0
      vertex 2.83684 7.48013 0
    endloop
  endfacet
  facet normal 0 0 -1
    outer loop
      vertex -7.76753 -1.91452 0
      vertex 2.83684 7.48013 0
      vertex 4.54452 6.58387 0
    endloop
  endfacet
  facet normal 0 0 -1
    outer loop
      vertex -7.76753 -1.91452 0
      vertex 4.54452 6.58387 0
      vertex 5.98809 5.30498 0
    endloop
  endfacet
  facet normal 0 0 -1
    outer loop
      vertex 0.478976 1.47414 0
      vertex 5.98809 5.30498 0
      vertex 7.08365 3.71778 0
    endloop
  endfacet
  facet normal 0 0 -1
    outer loop
      vertex 1.25398 0.911067 0
      vertex 7.08365 3.71778 0
      vertex 7.76753 1.91452 0
    endloop
  endfacet
  facet normal -0 0 -1
    outer loop
      vertex 1.55 0 0
      vertex 7.76753 1.91452 0
      vertex 8 0 0
    endloop
  endfacet
  facet normal -0 0 -1
    outer loop
      vertex 0.911067 -1.25398 0
      vertex 8 0 0
      vertex 7.76753 -1.91452 0
    endloop
  endfacet
  facet normal 0 0 -1
    outer loop
      vertex -7.76753 -1.91452 0
      vertex 7.76753 -1.91452 0
      vertex 7.08365 -3.71778 0
    endloop
  endfacet
  facet normal 0 0 -1
    outer loop
      vertex -7.76753 -1.91452 0
      vertex 7.08365 -3.71778 0
      vertex 5.98809 -5.30498 0
    endloop
  endfacet
  facet normal 0 0 -1
    outer loop
      vertex -7.76753 -1.91452 0
      vertex 5.98809 -5.30498 0
      vertex 4.54452 -6.58387 0
    endloop
  endfacet
  facet normal 0 0 -1
    outer loop
      vertex -7.76753 -1.91452 0
      vertex 4.54452 -6.58387 0
      vertex 2.83684 -7.48013 0
    endloop
  endfacet
  facet normal 0 0 -1
    outer loop
      vertex -7.76753 -1.91452 0
      vertex 2.83684 -7.48013 0
      vertex 0.964293 -7.94167 0
    endloop
  endfacet
  facet normal 0 0 -1
    outer loop
      vertex -7.76753 -1.91452 0
      vertex 0.964293 -7.94167 0
      vertex -0.964293 -7.94167 0
    endloop
  endfacet
  facet normal 0 0 -1
    outer loop
      vertex -7.76753 -1.91452 0
      vertex -0.964293 -7.94167 0
      vertex -2.83684 -7.48013 0
    endloop
  endfacet
  facet normal 0 0 -1
    outer loop
      vertex -7.76753 -1.91452 0
      vertex -2.83684 -7.48013 0
      vertex -4.54452 -6.58387 0
    endloop
  endfacet
  facet normal 0 0 -1
    outer loop
      vertex -7.76753 -1.91452 0
      vertex -4.54452 -6.58387 0
      vertex -5.98809 -5.30498 0
    endloop
  endfacet
  facet normal 0 0 -1
    outer loop
      vertex -7.76753 -1.91452 0
      vertex -5.98809 -5.30498 0
      vertex -7.08365 -3.71778 0
    endloop
  endfacet
  facet normal -0 0 -1
    outer loop
      vertex 0.478976 1.47414 0
      vertex 7.08365 3.71778 0
      vertex 0.911067 1.25398 0
    endloop
  endfacet
  facet normal 0 0 -1
    outer loop
      vertex -0.911067 -1.25398 0
      vertex -7.76753 -1.91452 0
      vertex -1.25398 -0.911067 0
    endloop
  endfacet
  facet normal 0 0 -1
    outer loop
      vertex -7.76753 -1.91452 0
      vertex -1.47414 -0.478976 0
      vertex -1.25398 -0.911067 0
    endloop
  endfacet
  facet normal -0 0 -1
    outer loop
      vertex 1.47414 -0.478976 0
      vertex 8 0 0
      vertex 1.25398 -0.911067 0
    endloop
  endfacet
  facet normal 0 0 -1
    outer loop
      vertex -7.76753 -1.91452 0
      vertex -0.911067 -1.25398 0
      vertex -0.478976 -1.47414 0
    endloop
  endfacet
  facet normal 0 0 -1
    outer loop
      vertex -7.76753 -1.91452 0
      vertex -0.478976 -1.47414 0
      vertex 0 -1.55 0
    endloop
  endfacet
  facet normal -0 0 -1
    outer loop
      vertex -7.76753 -1.91452 0
      vertex 0 -1.55 0
      vertex 7.76753 -1.91452 0
    endloop
  endfacet
  facet normal 0 0 -1
    outer loop
      vertex 0.911067 -1.25398 0
      vertex 7.76753 -1.91452 0
      vertex 0.478976 -1.47414 0
    endloop
  endfacet
  facet normal -0 0 -1
    outer loop
      vertex 1.25398 -0.911067 0
      vertex 8 0 0
      vertex 0.911067 -1.25398 0
    endloop
  endfacet
  facet normal 0 0 -1
    outer loop
      vertex 0.478976 -1.47414 0
      vertex 7.76753 -1.91452 0
      vertex 0 -1.55 0
    endloop
  endfacet
  facet normal 0 0 -1
    outer loop
      vertex 1.55 0 0
      vertex 8 0 0
      vertex 1.47414 -0.478976 0
    endloop
  endfacet
  facet normal -0 0 -1
    outer loop
      vertex 1.47414 0.478976 0
      vertex 7.76753 1.91452 0
      vertex 1.55 0 0
    endloop
  endfacet
  facet normal -0 0 -1
    outer loop
      vertex 0.911067 1.25398 0
      vertex 7.08365 3.71778 0
      vertex 1.25398 0.911067 0
    endloop
  endfacet
  facet normal -0 0 -1
    outer loop
      vertex 1.25398 0.911067 0
      vertex 7.76753 1.91452 0
      vertex 1.47414 0.478976 0
    endloop
  endfacet
  facet normal 0 0 -1
    outer loop
      vertex -1.47414 -0.478976 0
      vertex -7.76753 -1.91452 0
      vertex -1.55 0 0
    endloop
  endfacet
  facet normal -0 0 -1
    outer loop
      vertex 0 1.55 0
      vertex 5.98809 5.30498 0
      vertex 0.478976 1.47414 0
    endloop
  endfacet
  facet normal 0 -0 -1
    outer loop
      vertex -1.25398 0.911067 0
      vertex -7.76753 -1.91452 0
      vertex -0.911067 1.25398 0
    endloop
  endfacet
  facet normal 0 0 -1
    outer loop
      vertex -0.478976 1.47414 0
      vertex 5.98809 5.30498 0
      vertex 0 1.55 0
    endloop
  endfacet
  facet normal 0 0 -1
    outer loop
      vertex -7.76753 -1.91452 0
      vertex 5.98809 5.30498 0
      vertex -0.478976 1.47414 0
    endloop
  endfacet
  facet normal 0 0 -1
    outer loop
      vertex -7.76753 -1.91452 0
      vertex -0.478976 1.47414 0
      vertex -0.911067 1.25398 0
    endloop
  endfacet
  facet normal 0 -0 -1
    outer loop
      vertex -1.47414 0.478976 0
      vertex -7.76753 -1.91452 0
      vertex -1.25398 0.911067 0
    endloop
  endfacet
  facet normal 0 -0 -1
    outer loop
      vertex -1.55 0 0
      vertex -7.76753 -1.91452 0
      vertex -1.47414 0.478976 0
    endloop
  endfacet
  facet normal -0.992709 0.120536 0
    outer loop
      vertex -8 0 0
      vertex -8 0 10
      vertex -7.76753 1.91452 0
    endloop
  endfacet
  facet normal -0.992709 0.120536 0
    outer loop
      vertex -7.76753 1.91452 0
      vertex -8 0 10
      vertex -7.76753 1.91452 10
    endloop
  endfacet
  facet normal -0.992709 -0.120536 -0
    outer loop
      vertex -8 0 0
      vertex -7.76753 -1.91452 0
      vertex -8 0 10
    endloop
  endfacet
  facet normal -0.992709 -0.120536 0
    outer loop
      vertex -8 0 10
      vertex -7.76753 -1.91452 0
      vertex -7.76753 -1.91452 10
    endloop
  endfacet
  facet normal -0.935016 -0.354605 -0
    outer loop
      vertex -7.76753 -1.91452 0
      vertex -7.08365 -3.71778 0
      vertex -7.76753 -1.91452 10
    endloop
  endfacet
  facet normal -0.935016 -0.354605 0
    outer loop
      vertex -7.76753 -1.91452 10
      vertex -7.08365 -3.71778 0
      vertex -7.08365 -3.71778 10
    endloop
  endfacet
  facet normal -0.822984 -0.568065 -0
    outer loop
      vertex -7.08365 -3.71778 0
      vertex -5.98809 -5.30498 0
      vertex -7.08365 -3.71778 10
    endloop
  endfacet
  facet normal -0.822984 -0.568065 0
    outer loop
      vertex -7.08365 -3.71778 10
      vertex -5.98809 -5.30498 0
      vertex -5.98809 -5.30498 10
    endloop
  endfacet
  facet normal -0.663123 -0.748511 0
    outer loop
      vertex -5.98809 -5.30498 10
      vertex -5.98809 -5.30498 0
      vertex -4.54452 -6.58387 0
    endloop
  endfacet
  facet normal -0.663123 -0.748511 0
    outer loop
      vertex -4.54452 -6.58387 10
      vertex -5.98809 -5.30498 10
      vertex -4.54452 -6.58387 0
    endloop
  endfacet
  facet normal -0.464723 -0.885456 0
    outer loop
      vertex -4.54452 -6.58387 10
      vertex -4.54452 -6.58387 0
      vertex -2.83684 -7.48013 0
    endloop
  endfacet
  facet normal -0.464723 -0.885456 0
    outer loop
      vertex -2.83684 -7.48013 10
      vertex -4.54452 -6.58387 10
      vertex -2.83684 -7.48013 0
    endloop
  endfacet
  facet normal -0.239316 -0.970942 0
    outer loop
      vertex -2.83684 -7.48013 10
      vertex -2.83684 -7.48013 0
      vertex -0.964293 -7.94167 0
    endloop
  endfacet
  facet normal -0.239316 -0.970942 0
    outer loop
      vertex -0.964293 -7.94167 10
      vertex -2.83684 -7.48013 10
      vertex -0.964293 -7.94167 0
    endloop
  endfacet
  facet normal 0 -1 0
    outer loop
      vertex -0.964293 -7.94167 10
      vertex -0.964293 -7.94167 0
      vertex 0.964293 -7.94167 0
    endloop
  endfacet
  facet normal 0 -1 0
    outer loop
      vertex 0.964293 -7.94167 10
      vertex -0.964293 -7.94167 10
      vertex 0.964293 -7.94167 0
    endloop
  endfacet
  facet normal 0.239316 -0.970942 0
    outer loop
      vertex 0.964293 -7.94167 10
      vertex 0.964293 -7.94167 0
      vertex 2.83684 -7.48013 0
    endloop
  endfacet
  facet normal 0.239316 -0.970942 0
    outer loop
      vertex 2.83684 -7.48013 10
      vertex 0.964293 -7.94167 10
      vertex 2.83684 -7.48013 0
    endloop
  endfacet
  facet normal 0.464723 -0.885456 0
    outer loop
      vertex 2.83684 -7.48013 10
      vertex 2.83684 -7.48013 0
      vertex 4.54452 -6.58387 0
    endloop
  endfacet
  facet normal 0.464723 -0.885456 0
    outer loop
      vertex 4.54452 -6.58387 10
      vertex 2.83684 -7.48013 10
      vertex 4.54452 -6.58387 0
    endloop
  endfacet
  facet normal 0.663123 -0.748511 0
    outer loop
      vertex 4.54452 -6.58387 10
      vertex 4.54452 -6.58387 0
      vertex 5.98809 -5.30498 0
    endloop
  endfacet
  facet normal 0.663123 -0.748511 0
    outer loop
      vertex 5.98809 -5.30498 10
      vertex 4.54452 -6.58387 10
      vertex 5.98809 -5.30498 0
    endloop
  endfacet
  facet normal 0.822984 -0.568065 0
    outer loop
      vertex 5.98809 -5.30498 10
      vertex 5.98809 -5.30498 0
      vertex 7.08365 -3.71778 0
    endloop
  endfacet
  facet normal 0.822984 -0.568065 0
    outer loop
      vertex 7.08365 -3.71778 10
      vertex 5.98809 -5.30498 10
      vertex 7.08365 -3.71778 0
    endloop
  endfacet
  facet normal 0.935016 -0.354605 0
    outer loop
      vertex 7.08365 -3.71778 10
      vertex 7.08365 -3.71778 0
      vertex 7.76753 -1.91452 0
    endloop
  endfacet
  facet normal 0.935016 -0.354605 0
    outer loop
      vertex 7.76753 -1.91452 10
      vertex 7.08365 -3.71778 10
      vertex 7.76753 -1.91452 0
    endloop
  endfacet
  facet normal 0.992709 -0.120536 0
    outer loop
      vertex 7.76753 -1.91452 10
      vertex 7.76753 -1.91452 0
      vertex 8 0 0
    endloop
  endfacet
  facet normal 0.992709 -0.120536 0
    outer loop
      vertex 8 0 10
      vertex 7.76753 -1.91452 10
      vertex 8 0 0
    endloop
  endfacet
  facet normal 0.992709 0.120536 0
    outer loop
      vertex 8 0 0
      vertex 7.76753 1.91452 0
      vertex 7.76753 1.91452 10
    endloop
  endfacet
  facet normal 0.992709 0.120536 -0
    outer loop
      vertex 8 0 10
      vertex 8 0 0
      vertex 7.76753 1.91452 10
    endloop
  endfacet
  facet normal 0.935016 0.354605 0
    outer loop
      vertex 7.76753 1.91452 0
      vertex 7.08365 3.71778 0
      vertex 7.08365 3.71778 10
    endloop
  endfacet
  facet normal 0.935016 0.354605 -0
    outer loop
      vertex 7.76753 1.91452 10
      vertex 7.76753 1.91452 0
      vertex 7.08365 3.71778 10
    endloop
  endfacet
  facet normal 0.822984 0.568065 0
    outer loop
      vertex 7.08365 3.71778 0
      vertex 5.98809 5.30498 0
      vertex 5.98809 5.30498 10
    endloop
  endfacet
  facet normal 0.822984 0.568065 -0
    outer loop
      vertex 7.08365 3.71778 10
      vertex 7.08365 3.71778 0
      vertex 5.98809 5.30498 10
    endloop
  endfacet
  facet normal 0.663123 0.748511 0
    outer loop
      vertex 4.54452 6.58387 0
      vertex 4.54452 6.58387 10
      vertex 5.98809 5.30498 0
    endloop
  endfacet
  facet normal 0.663123 0.748511 0
    outer loop
      vertex 5.98809 5.30498 0
      vertex 4.54452 6.58387 10
      vertex 5.98809 5.30498 10
    endloop
  endfacet
  facet normal 0.464723 0.885456 0
    outer loop
      vertex 2.83684 7.48013 0
      vertex 2.83684 7.48013 10
      vertex 4.54452 6.58387 0
    endloop
  endfacet
  facet normal 0.464723 0.885456 0
    outer loop
      vertex 4.54452 6.58387 0
      vertex 2.83684 7.48013 10
      vertex 4.54452 6.58387 10
    endloop
  endfacet
  facet normal 0.239316 0.970942 0
    outer loop
      vertex 0.964293 7.94167 0
      vertex 0.964293 7.94167 10
      vertex 2.83684 7.48013 0
    endloop
  endfacet
  facet normal 0.239316 0.970942 0
    outer loop
      vertex 2.83684 7.48013 0
      vertex 0.964293 7.94167 10
      vertex 2.83684 7.48013 10
    endloop
  endfacet
  facet normal 0 1 0
    outer loop
      vertex -0.964293 7.94167 0
      vertex -0.964293 7.94167 10
      vertex 0.964293 7.94167 0
    endloop
  endfacet
  facet normal 0 1 0
    outer loop
      vertex 0.964293 7.94167 0
      vertex -0.964293 7.94167 10
      vertex 0.964293 7.94167 10
    endloop
  endfacet
  facet normal -0.239316 0.970942 0
    outer loop
      vertex -2.83684 7.48013 0
      vertex -2.83684 7.48013 10
      vertex -0.964293 7.94167 0
    endloop
  endfacet
  facet normal -0.239316 0.970942 0
    outer loop
      vertex -0.964293 7.94167 0
      vertex -2.83684 7.48013 10
      vertex -0.964293 7.94167 10
    endloop
  endfacet
  facet normal -0.464723 0.885456 0
    outer loop
      vertex -4.54452 6.58387 0
      vertex -4.54452 6.58387 10
      vertex -2.83684 7.48013 0
    endloop
  endfacet
  facet normal -0.464723 0.885456 0
    outer loop
      vertex -2.83684 7.48013 0
      vertex -4.54452 6.58387 10
      vertex -2.83684 7.48013 10
    endloop
  endfacet
  facet normal -0.663123 0.748511 0
    outer loop
      vertex -5.98809 5.30498 0
      vertex -5.98809 5.30498 10
      vertex -4.54452 6.58387 0
    endloop
  endfacet
  facet normal -0.663123 0.748511 0
    outer loop
      vertex -4.54452 6.58387 0
      vertex -5.98809 5.30498 10
      vertex -4.54452 6.58387 10
    endloop
  endfacet
  facet normal -0.822984 0.568065 0
    outer loop
      vertex -7.08365 3.71778 0
      vertex -7.08365 3.71778 10
      vertex -5.98809 5.30498 0
    endloop
  endfacet
  facet normal -0.822984 0.568065 0
    outer loop
      vertex -5.98809 5.30498 0
      vertex -7.08365 3.71778 10
      vertex -5.98809 5.30498 10
    endloop
  endfacet
  facet normal -0.935016 0.354605 0
    outer loop
      vertex -7.76753 1.91452 0
      vertex -7.76753 1.91452 10
      vertex -7.08365 3.71778 0
    endloop
  endfacet
  facet normal -0.935016 0.354605 0
    outer loop
      vertex -7.08365 3.71778 0
      vertex -7.76753 1.91452 10
      vertex -7.08365 3.71778 10
    endloop
  endfacet
  facet normal 0.987688 0.156434 0
    outer loop
      vertex -1.55 0 10
      vertex -1.47414 -0.478976 10
      vertex -1.47414 -0.478976 0
    endloop
  endfacet
  facet normal 0.987688 0.156434 0
    outer loop
      vertex -1.55 0 0
      vertex -1.55 0 10
      vertex -1.47414 -0.478976 0
    endloop
  endfacet
  facet normal 0.987688 -0.156434 0
    outer loop
      vertex -1.47414 0.478976 0
      vertex -1.47414 0.478976 10
      vertex -1.55 0 10
    endloop
  endfacet
  facet normal 0.987688 -0.156434 0
    outer loop
      vertex -1.55 0 0
      vertex -1.47414 0.478976 0
      vertex -1.55 0 10
    endloop
  endfacet
  facet normal 0.891006 -0.453992 0
    outer loop
      vertex -1.25398 0.911067 0
      vertex -1.25398 0.911067 10
      vertex -1.47414 0.478976 10
    endloop
  endfacet
  facet normal 0.891006 -0.453992 0
    outer loop
      vertex -1.47414 0.478976 0
      vertex -1.25398 0.911067 0
      vertex -1.47414 0.478976 10
    endloop
  endfacet
  facet normal 0.707107 -0.707107 0
    outer loop
      vertex -0.911067 1.25398 0
      vertex -0.911067 1.25398 10
      vertex -1.25398 0.911067 10
    endloop
  endfacet
  facet normal 0.707107 -0.707107 0
    outer loop
      vertex -1.25398 0.911067 0
      vertex -0.911067 1.25398 0
      vertex -1.25398 0.911067 10
    endloop
  endfacet
  facet normal 0.453992 -0.891006 0
    outer loop
      vertex -0.478976 1.47414 0
      vertex -0.478976 1.47414 10
      vertex -0.911067 1.25398 10
    endloop
  endfacet
  facet normal 0.453992 -0.891006 0
    outer loop
      vertex -0.911067 1.25398 0
      vertex -0.478976 1.47414 0
      vertex -0.911067 1.25398 10
    endloop
  endfacet
  facet normal 0.156434 -0.987688 0
    outer loop
      vertex 0 1.55 0
      vertex 0 1.55 10
      vertex -0.478976 1.47414 10
    endloop
  endfacet
  facet normal 0.156434 -0.987688 0
    outer loop
      vertex -0.478976 1.47414 0
      vertex 0 1.55 0
      vertex -0.478976 1.47414 10
    endloop
  endfacet
  facet normal -0.156434 -0.987688 -0
    outer loop
      vertex 0.478976 1.47414 0
      vertex 0.478976 1.47414 10
      vertex 0 1.55 10
    endloop
  endfacet
  facet normal -0.156434 -0.987688 -0
    outer loop
      vertex 0 1.55 0
      vertex 0.478976 1.47414 0
      vertex 0 1.55 10
    endloop
  endfacet
  facet normal -0.453992 -0.891006 -0
    outer loop
      vertex 0.911067 1.25398 0
      vertex 0.911067 1.25398 10
      vertex 0.478976 1.47414 10
    endloop
  endfacet
  facet normal -0.453992 -0.891006 -0
    outer loop
      vertex 0.478976 1.47414 0
      vertex 0.911067 1.25398 0
      vertex 0.478976 1.47414 10
    endloop
  endfacet
  facet normal -0.707107 -0.707107 -0
    outer loop
      vertex 1.25398 0.911067 0
      vertex 1.25398 0.911067 10
      vertex 0.911067 1.25398 10
    endloop
  endfacet
  facet normal -0.707107 -0.707107 -0
    outer loop
      vertex 0.911067 1.25398 0
      vertex 1.25398 0.911067 0
      vertex 0.911067 1.25398 10
    endloop
  endfacet
  facet normal -0.891006 -0.453992 0
    outer loop
      vertex 1.47414 0.478976 10
      vertex 1.25398 0.911067 10
      vertex 1.47414 0.478976 0
    endloop
  endfacet
  facet normal -0.891006 -0.453992 0
    outer loop
      vertex 1.47414 0.478976 0
      vertex 1.25398 0.911067 10
      vertex 1.25398 0.911067 0
    endloop
  endfacet
  facet normal -0.987688 -0.156434 0
    outer loop
      vertex 1.55 0 10
      vertex 1.47414 0.478976 10
      vertex 1.55 0 0
    endloop
  endfacet
  facet normal -0.987688 -0.156434 0
    outer loop
      vertex 1.55 0 0
      vertex 1.47414 0.478976 10
      vertex 1.47414 0.478976 0
    endloop
  endfacet
  facet normal -0.987688 0.156434 0
    outer loop
      vertex 1.55 0 10
      vertex 1.55 0 0
      vertex 1.47414 -0.478976 10
    endloop
  endfacet
  facet normal -0.987688 0.156434 0
    outer loop
      vertex 1.47414 -0.478976 10
      vertex 1.55 0 0
      vertex 1.47414 -0.478976 0
    endloop
  endfacet
  facet normal -0.891006 0.453992 0
    outer loop
      vertex 1.47414 -0.478976 10
      vertex 1.47414 -0.478976 0
      vertex 1.25398 -0.911067 10
    endloop
  endfacet
  facet normal -0.891006 0.453992 0
    outer loop
      vertex 1.25398 -0.911067 10
      vertex 1.47414 -0.478976 0
      vertex 1.25398 -0.911067 0
    endloop
  endfacet
  facet normal -0.707107 0.707107 0
    outer loop
      vertex 1.25398 -0.911067 10
      vertex 1.25398 -0.911067 0
      vertex 0.911067 -1.25398 10
    endloop
  endfacet
  facet normal -0.707107 0.707107 0
    outer loop
      vertex 0.911067 -1.25398 10
      vertex 1.25398 -0.911067 0
      vertex 0.911067 -1.25398 0
    endloop
  endfacet
  facet normal -0.453992 0.891006 0
    outer loop
      vertex 0.911067 -1.25398 10
      vertex 0.911067 -1.25398 0
      vertex 0.478976 -1.47414 10
    endloop
  endfacet
  facet normal -0.453992 0.891006 0
    outer loop
      vertex 0.478976 -1.47414 10
      vertex 0.911067 -1.25398 0
      vertex 0.478976 -1.47414 0
    endloop
  endfacet
  facet normal -0.156434 0.987688 0
    outer loop
      vertex 0.478976 -1.47414 10
      vertex 0.478976 -1.47414 0
      vertex 0 -1.55 10
    endloop
  endfacet
  facet normal -0.156434 0.987688 0
    outer loop
      vertex 0 -1.55 10
      vertex 0.478976 -1.47414 0
      vertex 0 -1.55 0
    endloop
  endfacet
  facet normal 0.156434 0.987688 -0
    outer loop
      vertex 0 -1.55 10
      vertex 0 -1.55 0
      vertex -0.478976 -1.47414 10
    endloop
  endfacet
  facet normal 0.156434 0.987688 -0
    outer loop
      vertex -0.478976 -1.47414 10
      vertex 0 -1.55 0
      vertex -0.478976 -1.47414 0
    endloop
  endfacet
  facet normal 0.453992 0.891006 -0
    outer loop
      vertex -0.478976 -1.47414 10
      vertex -0.478976 -1.47414 0
      vertex -0.911067 -1.25398 10
    endloop
  endfacet
  facet normal 0.453992 0.891006 -0
    outer loop
      vertex -0.911067 -1.25398 10
      vertex -0.478976 -1.47414 0
      vertex -0.911067 -1.25398 0
    endloop
  endfacet
  facet normal 0.707107 0.707107 -0
    outer loop
      vertex -0.911067 -1.25398 10
      vertex -0.911067 -1.25398 0
      vertex -1.25398 -0.911067 10
    endloop
  endfacet
  facet normal 0.707107 0.707107 -0
    outer loop
      vertex -1.25398 -0.911067 10
      vertex -0.911067 -1.25398 0
      vertex -1.25398 -0.911067 0
    endloop
  endfacet
  facet normal 0.891006 0.453992 0
    outer loop
      vertex -1.47414 -0.478976 10
      vertex -1.25398 -0.911067 10
      vertex -1.25398 -0.911067 0
    endloop
  endfacet
  facet normal 0.891006 0.453992 0
    outer loop
      vertex -1.47414 -0.478976 0
      vertex -1.47414 -0.478976 10
      vertex -1.25398 -0.911067 0
    endloop
  endfacet
  facet normal 0 0 1
    outer loop
      vertex -7.76753 1.91452 10
      vertex -8 0 10
      vertex -7.76753 -1.91452 10
    endloop
  endfacet
  facet normal 0 0 1
    outer loop
      vertex -5.98809 -5.30498 10
      vertex -7.76753 1.91452 10
      vertex -7.08365 -3.71778 10
    endloop
  endfacet
  facet normal 0 0 1
    outer loop
      vertex -7.08365 -3.71778 10
      vertex -7.76753 1.91452 10
      vertex -7.76753 -1.91452 10
    endloop
  endfacet
  facet normal 0 0 1
    outer loop
      vertex -4.54452 -6.58387 10
      vertex -7.76753 1.91452 10
      vertex -5.98809 -5.30498 10
    endloop
  endfacet
  facet normal 0 0 1
    outer loop
      vertex -2.83684 -7.48013 10
      vertex -7.76753 1.91452 10
      vertex -4.54452 -6.58387 10
    endloop
  endfacet
  facet normal 0 0 1
    outer loop
      vertex -0.964293 -7.94167 10
      vertex -7.76753 1.91452 10
      vertex -2.83684 -7.48013 10
    endloop
  endfacet
  facet normal -0 0 1
    outer loop
      vertex 0.964293 -7.94167 10
      vertex -7.76753 1.91452 10
      vertex -0.964293 -7.94167 10
    endloop
  endfacet
  facet normal -0 0 1
    outer loop
      vertex 2.83684 -7.48013 10
      vertex -7.76753 1.91452 10
      vertex 0.964293 -7.94167 10
    endloop
  endfacet
  facet normal -0 0 1
    outer loop
      vertex 4.54452 -6.58387 10
      vertex -7.76753 1.91452 10
      vertex 2.83684 -7.48013 10
    endloop
  endfacet
  facet normal -0 0 1
    outer loop
      vertex 5.98809 -5.30498 10
      vertex -7.76753 1.91452 10
      vertex 4.54452 -6.58387 10
    endloop
  endfacet
  facet normal -0 -0 1
    outer loop
      vertex -0.478976 -1.47414 10
      vertex -7.76753 1.91452 10
      vertex 5.98809 -5.30498 10
    endloop
  endfacet
  facet normal 0 0 1
    outer loop
      vertex 1.47414 0.478976 10
      vertex 1.55 0 10
      vertex 8 0 10
    endloop
  endfacet
  facet normal 0 0 1
    outer loop
      vertex 0 1.55 10
      vertex 0.478976 1.47414 10
      vertex 7.76753 1.91452 10
    endloop
  endfacet
  facet normal 0 -0 1
    outer loop
      vertex 7.08365 3.71778 10
      vertex -7.76753 1.91452 10
      vertex 7.76753 1.91452 10
    endloop
  endfacet
  facet normal 0 -0 1
    outer loop
      vertex 5.98809 5.30498 10
      vertex -7.76753 1.91452 10
      vertex 7.08365 3.71778 10
    endloop
  endfacet
  facet normal 0 -0 1
    outer loop
      vertex 4.54452 6.58387 10
      vertex -7.76753 1.91452 10
      vertex 5.98809 5.30498 10
    endloop
  endfacet
  facet normal 0 -0 1
    outer loop
      vertex 2.83684 7.48013 10
      vertex -7.76753 1.91452 10
      vertex 4.54452 6.58387 10
    endloop
  endfacet
  facet normal 0 -0 1
    outer loop
      vertex 0.964293 7.94167 10
      vertex -7.76753 1.91452 10
      vertex 2.83684 7.48013 10
    endloop
  endfacet
  facet normal 0 -0 1
    outer loop
      vertex -0.964293 7.94167 10
      vertex -7.76753 1.91452 10
      vertex 0.964293 7.94167 10
    endloop
  endfacet
  facet normal 0 -0 1
    outer loop
      vertex -2.83684 7.48013 10
      vertex -7.76753 1.91452 10
      vertex -0.964293 7.94167 10
    endloop
  endfacet
  facet normal 0 -0 1
    outer loop
      vertex -4.54452 6.58387 10
      vertex -7.76753 1.91452 10
      vertex -2.83684 7.48013 10
    endloop
  endfacet
  facet normal 0 -0 1
    outer loop
      vertex -5.98809 5.30498 10
      vertex -7.76753 1.91452 10
      vertex -4.54452 6.58387 10
    endloop
  endfacet
  facet normal 0 -0 1
    outer loop
      vertex -7.08365 3.71778 10
      vertex -7.76753 1.91452 10
      vertex -5.98809 5.30498 10
    endloop
  endfacet
  facet normal 0 0 1
    outer loop
      vertex -0.911067 -1.25398 10
      vertex -1.25398 -0.911067 10
      vertex -7.76753 1.91452 10
    endloop
  endfacet
  facet normal 0 0 1
    outer loop
      vertex -1.55 0 10
      vertex -1.47414 0.478976 10
      vertex -7.76753 1.91452 10
    endloop
  endfacet
  facet normal 0 -0 1
    outer loop
      vertex 0.911067 -1.25398 10
      vertex 0.478976 -1.47414 10
      vertex 7.08365 -3.71778 10
    endloop
  endfacet
  facet normal 0 0 1
    outer loop
      vertex -1.25398 0.911067 10
      vertex -0.911067 1.25398 10
      vertex -7.76753 1.91452 10
    endloop
  endfacet
  facet normal 0 -0 1
    outer loop
      vertex 1.47414 -0.478976 10
      vertex 1.25398 -0.911067 10
      vertex 7.76753 -1.91452 10
    endloop
  endfacet
  facet normal -0 0 1
    outer loop
      vertex -1.25398 0.911067 10
      vertex -7.76753 1.91452 10
      vertex -1.47414 0.478976 10
    endloop
  endfacet
  facet normal 0 0 1
    outer loop
      vertex 1.25398 0.911067 10
      vertex 1.47414 0.478976 10
      vertex 8 0 10
    endloop
  endfacet
  facet normal -0 0 1
    outer loop
      vertex -0.478976 1.47414 10
      vertex -7.76753 1.91452 10
      vertex -0.911067 1.25398 10
    endloop
  endfacet
  facet normal -0 0 1
    outer loop
      vertex 0 1.55 10
      vertex -7.76753 1.91452 10
      vertex -0.478976 1.47414 10
    endloop
  endfacet
  facet normal 0 0 1
    outer loop
      vertex 0.478976 1.47414 10
      vertex 0.911067 1.25398 10
      vertex 7.76753 1.91452 10
    endloop
  endfacet
  facet normal 0 0 1
    outer loop
      vertex 7.76753 1.91452 10
      vertex -7.76753 1.91452 10
      vertex 0 1.55 10
    endloop
  endfacet
  facet normal 0 0 1
    outer loop
      vertex 0.911067 1.25398 10
      vertex 1.25398 0.911067 10
      vertex 8 0 10
    endloop
  endfacet
  facet normal 0 -0 1
    outer loop
      vertex 7.76753 1.91452 10
      vertex 0.911067 1.25398 10
      vertex 8 0 10
    endloop
  endfacet
  facet normal 0 -0 1
    outer loop
      vertex 1.55 0 10
      vertex 1.47414 -0.478976 10
      vertex 7.76753 -1.91452 10
    endloop
  endfacet
  facet normal 0 0 1
    outer loop
      vertex 8 0 10
      vertex 1.55 0 10
      vertex 7.76753 -1.91452 10
    endloop
  endfacet
  facet normal 0 -0 1
    outer loop
      vertex 1.25398 -0.911067 10
      vertex 0.911067 -1.25398 10
      vertex 7.08365 -3.71778 10
    endloop
  endfacet
  facet normal -0 0 1
    outer loop
      vertex 7.76753 -1.91452 10
      vertex 1.25398 -0.911067 10
      vertex 7.08365 -3.71778 10
    endloop
  endfacet
  facet normal -0 0 1
    outer loop
      vertex 7.08365 -3.71778 10
      vertex 0.478976 -1.47414 10
      vertex 5.98809 -5.30498 10
    endloop
  endfacet
  facet normal -0 -0 1
    outer loop
      vertex 0 -1.55 10
      vertex -0.478976 -1.47414 10
      vertex 5.98809 -5.30498 10
    endloop
  endfacet
  facet normal -0 -0 1
    outer loop
      vertex -0.911067 -1.25398 10
      vertex -7.76753 1.91452 10
      vertex -0.478976 -1.47414 10
    endloop
  endfacet
  facet normal -0 -0 1
    outer loop
      vertex -1.47414 -0.478976 10
      vertex -7.76753 1.91452 10
      vertex -1.25398 -0.911067 10
    endloop
  endfacet
  facet normal 0 -0 1
    outer loop
      vertex 0.478976 -1.47414 10
      vertex 0 -1.55 10
      vertex 5.98809 -5.30498 10
    endloop
  endfacet
  facet normal 0 0 1
    outer loop
      vertex -1.47414 -0.478976 10
      vertex -1.55 0 10
      vertex -7.76753 1.91452 10
    endloop
  endfacet
endsolid OpenSCAD_Model
