solid OpenSCAD_Model
  facet normal -0.000000 0.000000 -1.000000
    outer loop
      vertex -14.000000 0.000000 0.000000
      vertex -13.619398 1.913417 0.000000
      vertex -13.619398 -1.913417 0.000000
    endloop
  endfacet
  facet normal 0.000000 -0.000000 -1.000000
    outer loop
      vertex -13.619398 -1.913417 0.000000
      vertex -13.619398 1.913417 0.000000
      vertex -12.535534 3.535534 0.000000
    endloop
  endfacet
  facet normal 0.000000 0.000000 -1.000000
    outer loop
      vertex -13.619398 -1.913417 0.000000
      vertex -12.535534 3.535534 0.000000
      vertex -10.913417 4.619398 0.000000
    endloop
  endfacet
  facet normal 0.000000 0.000000 -1.000000
    outer loop
      vertex -13.619398 -1.913417 0.000000
      vertex -10.913417 4.619398 0.000000
      vertex -9.000000 5.000000 0.000000
    endloop
  endfacet
  facet normal 0.000000 -0.000000 -1.000000
    outer loop
      vertex -8.580135 1.839550 0.000000
      vertex -9.000000 5.000000 0.000000
      vertex 9.000000 5.000000 0.000000
    endloop
  endfacet
  facet normal 0.000000 0.000000 -1.000000
    outer loop
      vertex 9.419865 1.839550 0.000000
      vertex 12.535534 3.535534 0.000000
      vertex 13.619398 1.913417 0.000000
    endloop
  endfacet
  facet normal -0.000000 0.000000 -1.000000
    outer loop
      vertex 10.700000 0.818677 0.000000
      vertex 13.619398 1.913417 0.000000
      vertex 14.000000 0.000000 0.000000
    endloop
  endfacet
  facet normal -0.000000 0.000000 -1.000000
    outer loop
      vertex 10.700000 -0.818677 0.000000
      vertex 14.000000 0.000000 0.000000
      vertex 13.619398 -1.913417 0.000000
    endloop
  endfacet
  facet normal 0.000000 0.000000 -1.000000
    outer loop
      vertex -13.619398 -1.913417 0.000000
      vertex 13.619398 -1.913417 0.000000
      vertex 12.535534 -3.535534 0.000000
    endloop
  endfacet
  facet normal 0.000000 0.000000 -1.000000
    outer loop
      vertex -13.619398 -1.913417 0.000000
      vertex 12.535534 -3.535534 0.000000
      vertex 10.913417 -4.619398 0.000000
    endloop
  endfacet
  facet normal 0.000000 0.000000 -1.000000
    outer loop
      vertex -13.619398 -1.913417 0.000000
      vertex 10.913417 -4.619398 0.000000
      vertex 9.000000 -5.000000 0.000000
    endloop
  endfacet
  facet normal 0.000000 0.000000 -1.000000
    outer loop
      vertex -13.619398 -1.913417 0.000000
      vertex 9.000000 -5.000000 0.000000
      vertex -9.000000 -5.000000 0.000000
    endloop
  endfacet
  facet normal 0.000000 0.000000 -1.000000
    outer loop
      vertex -13.619398 -1.913417 0.000000
      vertex -9.000000 -5.000000 0.000000
      vertex -10.913417 -4.619398 0.000000
    endloop
  endfacet
  facet normal 0.000000 0.000000 -1.000000
    outer loop
      vertex -13.619398 -1.913417 0.000000
      vertex -10.913417 -4.619398 0.000000
      vertex -12.535534 -3.535534 0.000000
    endloop
  endfacet
  facet normal 0.000000 0.000000 -1.000000
    outer loop
      vertex -13.619398 -1.913417 0.000000
      vertex -9.000000 5.000000 0.000000
      vertex -10.886858 0.000000 0.000000
    endloop
  endfacet
  facet normal 0.000000 0.000000 -1.000000
    outer loop
      vertex -8.580135 -1.839550 0.000000
      vertex -13.619398 -1.913417 0.000000
      vertex -10.176437 -1.475205 0.000000
    endloop
  endfacet
  facet normal 0.000000 0.000000 -1.000000
    outer loop
      vertex 7.823563 -1.475205 0.000000
      vertex -8.580135 -1.839550 0.000000
      vertex -7.300000 -0.818677 0.000000
    endloop
  endfacet
  facet normal -0.000000 0.000000 -1.000000
    outer loop
      vertex -13.619398 -1.913417 0.000000
      vertex -8.580135 -1.839550 0.000000
      vertex 13.619398 -1.913417 0.000000
    endloop
  endfacet
  facet normal 0.000000 0.000000 -1.000000
    outer loop
      vertex -10.176437 1.475205 0.000000
      vertex -9.000000 5.000000 0.000000
      vertex -8.580135 1.839550 0.000000
    endloop
  endfacet
  facet normal 0.000000 -0.000000 -1.000000
    outer loop
      vertex 7.113142 0.000000 0.000000
      vertex -7.300000 -0.818677 0.000000
      vertex 7.823563 1.475205 0.000000
    endloop
  endfacet
  facet normal 0.000000 0.000000 -1.000000
    outer loop
      vertex -10.886858 0.000000 0.000000
      vertex -9.000000 5.000000 0.000000
      vertex -10.176437 1.475205 0.000000
    endloop
  endfacet
  facet normal -0.000000 0.000000 -1.000000
    outer loop
      vertex -7.300000 0.818677 0.000000
      vertex 12.535534 3.535534 0.000000
      vertex -7.300000 -0.818677 0.000000
    endloop
  endfacet
  facet normal 0.000000 0.000000 -1.000000
    outer loop
      vertex 10.700000 -0.818677 0.000000
      vertex 13.619398 -1.913417 0.000000
      vertex 9.419865 -1.839550 0.000000
    endloop
  endfacet
  facet normal -0.000000 0.000000 -1.000000
    outer loop
      vertex -8.580135 -1.839550 0.000000
      vertex 7.823563 -1.475205 0.000000
      vertex 9.419865 -1.839550 0.000000
    endloop
  endfacet
  facet normal 0.000000 0.000000 -1.000000
    outer loop
      vertex -8.580135 -1.839550 0.000000
      vertex 9.419865 -1.839550 0.000000
      vertex 13.619398 -1.913417 0.000000
    endloop
  endfacet
  facet normal 0.000000 0.000000 -1.000000
    outer loop
      vertex 10.700000 0.818677 0.000000
      vertex 14.000000 0.000000 0.000000
      vertex 10.700000 -0.818677 0.000000
    endloop
  endfacet
  facet normal -0.000000 0.000000 -1.000000
    outer loop
      vertex 9.419865 1.839550 0.000000
      vertex 13.619398 1.913417 0.000000
      vertex 10.700000 0.818677 0.000000
    endloop
  endfacet
  facet normal 0.000000 0.000000 -1.000000
    outer loop
      vertex -7.300000 -0.818677 0.000000
      vertex 12.535534 3.535534 0.000000
      vertex 9.419865 1.839550 0.000000
    endloop
  endfacet
  facet normal 0.000000 0.000000 -1.000000
    outer loop
      vertex -7.300000 -0.818677 0.000000
      vertex 9.419865 1.839550 0.000000
      vertex 7.823563 1.475205 0.000000
    endloop
  endfacet
  facet normal 0.000000 0.000000 -1.000000
    outer loop
      vertex 7.823563 -1.475205 0.000000
      vertex -7.300000 -0.818677 0.000000
      vertex 7.113142 0.000000 0.000000
    endloop
  endfacet
  facet normal 0.000000 0.000000 -1.000000
    outer loop
      vertex -10.176437 -1.475205 0.000000
      vertex -13.619398 -1.913417 0.000000
      vertex -10.886858 0.000000 0.000000
    endloop
  endfacet
  facet normal 0.000000 0.000000 -1.000000
    outer loop
      vertex -7.300000 0.818677 0.000000
      vertex 9.000000 5.000000 0.000000
      vertex 10.913417 4.619398 0.000000
    endloop
  endfacet
  facet normal -0.000000 0.000000 -1.000000
    outer loop
      vertex -8.580135 1.839550 0.000000
      vertex 9.000000 5.000000 0.000000
      vertex -7.300000 0.818677 0.000000
    endloop
  endfacet
  facet normal 0.000000 0.000000 -1.000000
    outer loop
      vertex -7.300000 0.818677 0.000000
      vertex 10.913417 4.619398 0.000000
      vertex 12.535534 3.535534 0.000000
    endloop
  endfacet
  facet normal -0.980785 0.195090 0.000000
    outer loop
      vertex -14.000000 0.000000 0.000000
      vertex -14.000000 0.000000 12.000000
      vertex -13.619398 1.913417 0.000000
    endloop
  endfacet
  facet normal -0.980785 0.195090 0.000000
    outer loop
      vertex -13.619398 1.913417 0.000000
      vertex -14.000000 0.000000 12.000000
      vertex -13.619398 1.913417 12.000000
    endloop
  endfacet
  facet normal -0.980785 -0.195090 -0.000000
    outer loop
      vertex -14.000000 0.000000 0.000000
      vertex -13.619398 -1.913417 0.000000
      vertex -14.000000 0.000000 12.000000
    endloop
  endfacet
  facet normal -0.980785 -0.195090 0.000000
    outer loop
      vertex -14.000000 0.000000 12.000000
      vertex -13.619398 -1.913417 0.000000
      vertex -13.619398 -1.913417 12.000000
    endloop
  endfacet
  facet normal -0.831470 -0.555570 -0.000000
    outer loop
      vertex -13.619398 -1.913417 0.000000
      vertex -12.535534 -3.535534 0.000000
      vertex -13.619398 -1.913417 12.000000
    endloop
  endfacet
  facet normal -0.831470 -0.555570 0.000000
    outer loop
      vertex -13.619398 -1.913417 12.000000
      vertex -12.535534 -3.535534 0.000000
      vertex -12.535534 -3.535534 12.000000
    endloop
  endfacet
  facet normal -0.555570 -0.831470 0.000000
    outer loop
      vertex -12.535534 -3.535534 12.000000
      vertex -12.535534 -3.535534 0.000000
      vertex -10.913417 -4.619398 0.000000
    endloop
  endfacet
  facet normal -0.555570 -0.831470 0.000000
    outer loop
      vertex -10.913417 -4.619398 12.000000
      vertex -12.535534 -3.535534 12.000000
      vertex -10.913417 -4.619398 0.000000
    endloop
  endfacet
  facet normal -0.195090 -0.980785 0.000000
    outer loop
      vertex -10.913417 -4.619398 12.000000
      vertex -10.913417 -4.619398 0.000000
      vertex -9.000000 -5.000000 0.000000
    endloop
  endfacet
  facet normal -0.195090 -0.980785 0.000000
    outer loop
      vertex -9.000000 -5.000000 12.000000
      vertex -10.913417 -4.619398 12.000000
      vertex -9.000000 -5.000000 0.000000
    endloop
  endfacet
  facet normal 0.000000 -1.000000 0.000000
    outer loop
      vertex -0.000000 -5.000000 2.750000
      vertex -9.000000 -5.000000 0.000000
      vertex 9.000000 -5.000000 0.000000
    endloop
  endfacet
  facet normal 0.000000 -1.000000 0.000000
    outer loop
      vertex 9.000000 -5.000000 12.000000
      vertex 3.500000 -5.000000 12.000000
      vertex 9.000000 -5.000000 0.000000
    endloop
  endfacet
  facet normal 0.000000 -1.000000 0.000000
    outer loop
      vertex 3.500000 -5.000000 12.000000
      vertex 3.500000 -5.000000 11.300000
      vertex 9.000000 -5.000000 0.000000
    endloop
  endfacet
  facet normal 0.000000 -1.000000 0.000000
    outer loop
      vertex -9.000000 -5.000000 12.000000
      vertex -9.000000 -5.000000 0.000000
      vertex -2.814583 -5.000000 4.375000
    endloop
  endfacet
  facet normal 0.000000 -1.000000 0.000000
    outer loop
      vertex -9.000000 -5.000000 12.000000
      vertex -2.814583 -5.000000 4.375000
      vertex -2.814583 -5.000000 7.625000
    endloop
  endfacet
  facet normal 0.000000 -1.000000 0.000000
    outer loop
      vertex 3.500000 -5.000000 11.300000
      vertex -3.500000 -5.000000 11.300000
      vertex 0.000000 -5.000000 9.250000
    endloop
  endfacet
  facet normal 0.000000 -1.000000 0.000000
    outer loop
      vertex 3.500000 -5.000000 11.300000
      vertex 2.814583 -5.000000 7.625000
      vertex 9.000000 -5.000000 0.000000
    endloop
  endfacet
  facet normal 0.000000 -1.000000 0.000000
    outer loop
      vertex 3.500000 -5.000000 11.300000
      vertex 0.000000 -5.000000 9.250000
      vertex 2.814583 -5.000000 7.625000
    endloop
  endfacet
  facet normal 0.000000 -1.000000 0.000000
    outer loop
      vertex 2.814583 -5.000000 7.625000
      vertex 2.814583 -5.000000 4.375000
      vertex 9.000000 -5.000000 0.000000
    endloop
  endfacet
  facet normal 0.000000 -1.000000 0.000000
    outer loop
      vertex 2.814583 -5.000000 4.375000
      vertex -0.000000 -5.000000 2.750000
      vertex 9.000000 -5.000000 0.000000
    endloop
  endfacet
  facet normal 0.000000 -1.000000 0.000000
    outer loop
      vertex -2.814583 -5.000000 4.375000
      vertex -9.000000 -5.000000 0.000000
      vertex -0.000000 -5.000000 2.750000
    endloop
  endfacet
  facet normal 0.000000 -1.000000 0.000000
    outer loop
      vertex -3.500000 -5.000000 11.300000
      vertex -3.500000 -5.000000 12.000000
      vertex -9.000000 -5.000000 12.000000
    endloop
  endfacet
  facet normal 0.000000 -1.000000 0.000000
    outer loop
      vertex -2.814583 -5.000000 7.625000
      vertex -3.500000 -5.000000 11.300000
      vertex -9.000000 -5.000000 12.000000
    endloop
  endfacet
  facet normal 0.000000 -1.000000 -0.000000
    outer loop
      vertex -2.814583 -5.000000 7.625000
      vertex 0.000000 -5.000000 9.250000
      vertex -3.500000 -5.000000 11.300000
    endloop
  endfacet
  facet normal 0.195090 -0.980785 0.000000
    outer loop
      vertex 9.000000 -5.000000 12.000000
      vertex 9.000000 -5.000000 0.000000
      vertex 10.913417 -4.619398 0.000000
    endloop
  endfacet
  facet normal 0.195090 -0.980785 0.000000
    outer loop
      vertex 10.913417 -4.619398 12.000000
      vertex 9.000000 -5.000000 12.000000
      vertex 10.913417 -4.619398 0.000000
    endloop
  endfacet
  facet normal 0.555570 -0.831470 0.000000
    outer loop
      vertex 10.913417 -4.619398 12.000000
      vertex 10.913417 -4.619398 0.000000
      vertex 12.535534 -3.535534 0.000000
    endloop
  endfacet
  facet normal 0.555570 -0.831470 0.000000
    outer loop
      vertex 12.535534 -3.535534 12.000000
      vertex 10.913417 -4.619398 12.000000
      vertex 12.535534 -3.535534 0.000000
    endloop
  endfacet
  facet normal 0.831470 -0.555570 0.000000
    outer loop
      vertex 12.535534 -3.535534 12.000000
      vertex 12.535534 -3.535534 0.000000
      vertex 13.619398 -1.913417 0.000000
    endloop
  endfacet
  facet normal 0.831470 -0.555570 0.000000
    outer loop
      vertex 13.619398 -1.913417 12.000000
      vertex 12.535534 -3.535534 12.000000
      vertex 13.619398 -1.913417 0.000000
    endloop
  endfacet
  facet normal 0.980785 -0.195090 0.000000
    outer loop
      vertex 13.619398 -1.913417 12.000000
      vertex 13.619398 -1.913417 0.000000
      vertex 14.000000 0.000000 0.000000
    endloop
  endfacet
  facet normal 0.980785 -0.195090 0.000000
    outer loop
      vertex 14.000000 0.000000 12.000000
      vertex 13.619398 -1.913417 12.000000
      vertex 14.000000 0.000000 0.000000
    endloop
  endfacet
  facet normal 0.980785 0.195090 0.000000
    outer loop
      vertex 14.000000 0.000000 0.000000
      vertex 13.619398 1.913417 0.000000
      vertex 13.619398 1.913417 12.000000
    endloop
  endfacet
  facet normal 0.980785 0.195090 -0.000000
    outer loop
      vertex 14.000000 0.000000 12.000000
      vertex 14.000000 0.000000 0.000000
      vertex 13.619398 1.913417 12.000000
    endloop
  endfacet
  facet normal 0.831470 0.555570 0.000000
    outer loop
      vertex 13.619398 1.913417 0.000000
      vertex 12.535534 3.535534 0.000000
      vertex 12.535534 3.535534 12.000000
    endloop
  endfacet
  facet normal 0.831470 0.555570 -0.000000
    outer loop
      vertex 13.619398 1.913417 12.000000
      vertex 13.619398 1.913417 0.000000
      vertex 12.535534 3.535534 12.000000
    endloop
  endfacet
  facet normal 0.555570 0.831470 0.000000
    outer loop
      vertex 10.913417 4.619398 0.000000
      vertex 10.913417 4.619398 12.000000
      vertex 12.535534 3.535534 0.000000
    endloop
  endfacet
  facet normal 0.555570 0.831470 0.000000
    outer loop
      vertex 12.535534 3.535534 0.000000
      vertex 10.913417 4.619398 12.000000
      vertex 12.535534 3.535534 12.000000
    endloop
  endfacet
  facet normal 0.195090 0.980785 0.000000
    outer loop
      vertex 9.000000 5.000000 0.000000
      vertex 9.000000 5.000000 12.000000
      vertex 10.913417 4.619398 0.000000
    endloop
  endfacet
  facet normal 0.195090 0.980785 0.000000
    outer loop
      vertex 10.913417 4.619398 0.000000
      vertex 9.000000 5.000000 12.000000
      vertex 10.913417 4.619398 12.000000
    endloop
  endfacet
  facet normal 0.000000 1.000000 0.000000
    outer loop
      vertex -3.500000 5.000000 11.300000
      vertex -9.000000 5.000000 12.000000
      vertex -3.500000 5.000000 12.000000
    endloop
  endfacet
  facet normal 0.000000 1.000000 0.000000
    outer loop
      vertex -0.540780 5.000000 7.664349
      vertex -9.000000 5.000000 12.000000
      vertex -3.500000 5.000000 11.300000
    endloop
  endfacet
  facet normal -0.000000 1.000000 -0.000000
    outer loop
      vertex -0.182925 5.000000 4.259587
      vertex 9.000000 5.000000 0.000000
      vertex -0.540780 5.000000 4.335651
    endloop
  endfacet
  facet normal 0.000000 1.000000 0.000000
    outer loop
      vertex 9.000000 5.000000 0.000000
      vertex 3.500000 5.000000 11.300000
      vertex 3.500000 5.000000 12.000000
    endloop
  endfacet
  facet normal 0.000000 1.000000 0.000000
    outer loop
      vertex 9.000000 5.000000 0.000000
      vertex 3.500000 5.000000 12.000000
      vertex 9.000000 5.000000 12.000000
    endloop
  endfacet
  facet normal 0.000000 1.000000 0.000000
    outer loop
      vertex -9.000000 5.000000 0.000000
      vertex -9.000000 5.000000 12.000000
      vertex -1.750000 5.000000 6.000000
    endloop
  endfacet
  facet normal 0.000000 1.000000 0.000000
    outer loop
      vertex -9.000000 5.000000 0.000000
      vertex -1.750000 5.000000 6.000000
      vertex -1.711758 5.000000 5.636155
    endloop
  endfacet
  facet normal 0.000000 1.000000 0.000000
    outer loop
      vertex -9.000000 5.000000 0.000000
      vertex -1.711758 5.000000 5.636155
      vertex -1.598705 5.000000 5.288211
    endloop
  endfacet
  facet normal 0.000000 1.000000 0.000000
    outer loop
      vertex -9.000000 5.000000 0.000000
      vertex -1.598705 5.000000 5.288211
      vertex -1.415780 5.000000 4.971376
    endloop
  endfacet
  facet normal 0.000000 1.000000 0.000000
    outer loop
      vertex -9.000000 5.000000 0.000000
      vertex -1.415780 5.000000 4.971376
      vertex -1.170979 5.000000 4.699497
    endloop
  endfacet
  facet normal 0.000000 1.000000 0.000000
    outer loop
      vertex -9.000000 5.000000 0.000000
      vertex -1.170979 5.000000 4.699497
      vertex -0.875000 5.000000 4.484456
    endloop
  endfacet
  facet normal 0.000000 1.000000 0.000000
    outer loop
      vertex -9.000000 5.000000 0.000000
      vertex -0.875000 5.000000 4.484456
      vertex 9.000000 5.000000 0.000000
    endloop
  endfacet
  facet normal 0.000000 1.000000 0.000000
    outer loop
      vertex -0.875000 5.000000 4.484456
      vertex -0.540780 5.000000 4.335651
      vertex 9.000000 5.000000 0.000000
    endloop
  endfacet
  facet normal 0.000000 1.000000 -0.000000
    outer loop
      vertex 0.182925 5.000000 4.259587
      vertex 9.000000 5.000000 0.000000
      vertex -0.182925 5.000000 4.259587
    endloop
  endfacet
  facet normal 0.000000 1.000000 -0.000000
    outer loop
      vertex 0.540780 5.000000 4.335651
      vertex 9.000000 5.000000 0.000000
      vertex 0.182925 5.000000 4.259587
    endloop
  endfacet
  facet normal 0.000000 1.000000 -0.000000
    outer loop
      vertex 0.875000 5.000000 4.484456
      vertex 9.000000 5.000000 0.000000
      vertex 0.540780 5.000000 4.335651
    endloop
  endfacet
  facet normal 0.000000 1.000000 -0.000000
    outer loop
      vertex 1.170979 5.000000 4.699497
      vertex 9.000000 5.000000 0.000000
      vertex 0.875000 5.000000 4.484456
    endloop
  endfacet
  facet normal 0.000000 1.000000 -0.000000
    outer loop
      vertex 1.598705 5.000000 5.288211
      vertex 9.000000 5.000000 0.000000
      vertex 1.415780 5.000000 4.971376
    endloop
  endfacet
  facet normal 0.000000 1.000000 0.000000
    outer loop
      vertex -1.711758 5.000000 6.363845
      vertex -9.000000 5.000000 12.000000
      vertex -1.598705 5.000000 6.711789
    endloop
  endfacet
  facet normal 0.000000 1.000000 0.000000
    outer loop
      vertex 1.170979 5.000000 4.699497
      vertex 1.415780 5.000000 4.971376
      vertex 9.000000 5.000000 0.000000
    endloop
  endfacet
  facet normal 0.000000 1.000000 0.000000
    outer loop
      vertex -1.598705 5.000000 6.711789
      vertex -9.000000 5.000000 12.000000
      vertex -1.415780 5.000000 7.028624
    endloop
  endfacet
  facet normal 0.000000 1.000000 0.000000
    outer loop
      vertex 9.000000 5.000000 0.000000
      vertex 1.598705 5.000000 5.288211
      vertex 1.711758 5.000000 5.636155
    endloop
  endfacet
  facet normal 0.000000 1.000000 0.000000
    outer loop
      vertex 9.000000 5.000000 0.000000
      vertex 1.711758 5.000000 5.636155
      vertex 1.750000 5.000000 6.000000
    endloop
  endfacet
  facet normal 0.000000 1.000000 0.000000
    outer loop
      vertex 9.000000 5.000000 0.000000
      vertex 1.750000 5.000000 6.000000
      vertex 1.711758 5.000000 6.363845
    endloop
  endfacet
  facet normal 0.000000 1.000000 0.000000
    outer loop
      vertex 0.182925 5.000000 7.740413
      vertex -3.500000 5.000000 11.300000
      vertex 0.540780 5.000000 7.664349
    endloop
  endfacet
  facet normal 0.000000 1.000000 0.000000
    outer loop
      vertex 9.000000 5.000000 0.000000
      vertex 1.598705 5.000000 6.711789
      vertex 1.415780 5.000000 7.028624
    endloop
  endfacet
  facet normal 0.000000 1.000000 0.000000
    outer loop
      vertex 9.000000 5.000000 0.000000
      vertex 1.415780 5.000000 7.028624
      vertex 1.170979 5.000000 7.300503
    endloop
  endfacet
  facet normal 0.000000 1.000000 0.000000
    outer loop
      vertex -0.182925 5.000000 7.740413
      vertex -3.500000 5.000000 11.300000
      vertex 0.182925 5.000000 7.740413
    endloop
  endfacet
  facet normal 0.000000 1.000000 0.000000
    outer loop
      vertex -0.540780 5.000000 7.664349
      vertex -3.500000 5.000000 11.300000
      vertex -0.182925 5.000000 7.740413
    endloop
  endfacet
  facet normal 0.000000 1.000000 0.000000
    outer loop
      vertex -0.875000 5.000000 7.515544
      vertex -9.000000 5.000000 12.000000
      vertex -0.540780 5.000000 7.664349
    endloop
  endfacet
  facet normal 0.000000 1.000000 0.000000
    outer loop
      vertex -1.415780 5.000000 7.028624
      vertex -9.000000 5.000000 12.000000
      vertex -1.170979 5.000000 7.300503
    endloop
  endfacet
  facet normal 0.000000 1.000000 0.000000
    outer loop
      vertex -1.170979 5.000000 7.300503
      vertex -9.000000 5.000000 12.000000
      vertex -0.875000 5.000000 7.515544
    endloop
  endfacet
  facet normal 0.000000 1.000000 0.000000
    outer loop
      vertex 1.598705 5.000000 6.711789
      vertex 9.000000 5.000000 0.000000
      vertex 1.711758 5.000000 6.363845
    endloop
  endfacet
  facet normal 0.000000 1.000000 0.000000
    outer loop
      vertex -1.750000 5.000000 6.000000
      vertex -9.000000 5.000000 12.000000
      vertex -1.711758 5.000000 6.363845
    endloop
  endfacet
  facet normal 0.000000 1.000000 -0.000000
    outer loop
      vertex 3.500000 5.000000 11.300000
      vertex 9.000000 5.000000 0.000000
      vertex 1.170979 5.000000 7.300503
    endloop
  endfacet
  facet normal 0.000000 1.000000 0.000000
    outer loop
      vertex 3.500000 5.000000 11.300000
      vertex 1.170979 5.000000 7.300503
      vertex 0.875000 5.000000 7.515544
    endloop
  endfacet
  facet normal 0.000000 1.000000 0.000000
    outer loop
      vertex 3.500000 5.000000 11.300000
      vertex 0.875000 5.000000 7.515544
      vertex 0.540780 5.000000 7.664349
    endloop
  endfacet
  facet normal 0.000000 1.000000 0.000000
    outer loop
      vertex 3.500000 5.000000 11.300000
      vertex 0.540780 5.000000 7.664349
      vertex -3.500000 5.000000 11.300000
    endloop
  endfacet
  facet normal -0.195090 0.980785 0.000000
    outer loop
      vertex -10.913417 4.619398 0.000000
      vertex -10.913417 4.619398 12.000000
      vertex -9.000000 5.000000 0.000000
    endloop
  endfacet
  facet normal -0.195090 0.980785 0.000000
    outer loop
      vertex -9.000000 5.000000 0.000000
      vertex -10.913417 4.619398 12.000000
      vertex -9.000000 5.000000 12.000000
    endloop
  endfacet
  facet normal -0.555570 0.831470 0.000000
    outer loop
      vertex -12.535534 3.535534 0.000000
      vertex -12.535534 3.535534 12.000000
      vertex -10.913417 4.619398 0.000000
    endloop
  endfacet
  facet normal -0.555570 0.831470 0.000000
    outer loop
      vertex -10.913417 4.619398 0.000000
      vertex -12.535534 3.535534 12.000000
      vertex -10.913417 4.619398 12.000000
    endloop
  endfacet
  facet normal -0.831470 0.555570 0.000000
    outer loop
      vertex -13.619398 1.913417 0.000000
      vertex -13.619398 1.913417 12.000000
      vertex -12.535534 3.535534 0.000000
    endloop
  endfacet
  facet normal -0.831470 0.555570 0.000000
    outer loop
      vertex -12.535534 3.535534 0.000000
      vertex -13.619398 1.913417 12.000000
      vertex -12.535534 3.535534 12.000000
    endloop
  endfacet
  facet normal 0.900969 -0.433884 0.000000
    outer loop
      vertex -10.176437 1.475205 0.000000
      vertex -10.176437 1.475205 12.000000
      vertex -10.886858 0.000000 12.000000
    endloop
  endfacet
  facet normal 0.900969 -0.433884 0.000000
    outer loop
      vertex -10.886858 0.000000 0.000000
      vertex -10.176437 1.475205 0.000000
      vertex -10.886858 0.000000 12.000000
    endloop
  endfacet
  facet normal 0.900969 0.433884 0.000000
    outer loop
      vertex -10.886858 0.000000 12.000000
      vertex -10.176437 -1.475205 12.000000
      vertex -10.176437 -1.475205 0.000000
    endloop
  endfacet
  facet normal 0.900969 0.433884 0.000000
    outer loop
      vertex -10.886858 0.000000 0.000000
      vertex -10.886858 0.000000 12.000000
      vertex -10.176437 -1.475205 0.000000
    endloop
  endfacet
  facet normal 0.222521 -0.974928 0.000000
    outer loop
      vertex -8.580135 1.839550 0.000000
      vertex -8.580135 1.839550 12.000000
      vertex -10.176437 1.475205 12.000000
    endloop
  endfacet
  facet normal 0.222521 -0.974928 0.000000
    outer loop
      vertex -10.176437 1.475205 0.000000
      vertex -8.580135 1.839550 0.000000
      vertex -10.176437 1.475205 12.000000
    endloop
  endfacet
  facet normal -0.623490 -0.781832 -0.000000
    outer loop
      vertex -7.300000 0.818677 0.000000
      vertex -7.300000 0.818677 12.000000
      vertex -8.580135 1.839550 12.000000
    endloop
  endfacet
  facet normal -0.623490 -0.781832 -0.000000
    outer loop
      vertex -8.580135 1.839550 0.000000
      vertex -7.300000 0.818677 0.000000
      vertex -8.580135 1.839550 12.000000
    endloop
  endfacet
  facet normal -1.000000 0.000000 0.000000
    outer loop
      vertex -7.300000 0.818677 12.000000
      vertex -7.300000 0.818677 0.000000
      vertex -7.300000 -0.818677 12.000000
    endloop
  endfacet
  facet normal -1.000000 0.000000 0.000000
    outer loop
      vertex -7.300000 -0.818677 12.000000
      vertex -7.300000 0.818677 0.000000
      vertex -7.300000 -0.818677 0.000000
    endloop
  endfacet
  facet normal -0.623490 0.781832 0.000000
    outer loop
      vertex -7.300000 -0.818677 12.000000
      vertex -7.300000 -0.818677 0.000000
      vertex -8.580135 -1.839550 12.000000
    endloop
  endfacet
  facet normal -0.623490 0.781832 0.000000
    outer loop
      vertex -8.580135 -1.839550 12.000000
      vertex -7.300000 -0.818677 0.000000
      vertex -8.580135 -1.839550 0.000000
    endloop
  endfacet
  facet normal 0.222521 0.974928 -0.000000
    outer loop
      vertex -8.580135 -1.839550 12.000000
      vertex -8.580135 -1.839550 0.000000
      vertex -10.176437 -1.475205 12.000000
    endloop
  endfacet
  facet normal 0.222521 0.974928 -0.000000
    outer loop
      vertex -10.176437 -1.475205 12.000000
      vertex -8.580135 -1.839550 0.000000
      vertex -10.176437 -1.475205 0.000000
    endloop
  endfacet
  facet normal 0.900969 0.433884 0.000000
    outer loop
      vertex 7.113142 0.000000 12.000000
      vertex 7.823563 -1.475205 12.000000
      vertex 7.823563 -1.475205 0.000000
    endloop
  endfacet
  facet normal 0.900969 0.433884 0.000000
    outer loop
      vertex 7.113142 0.000000 0.000000
      vertex 7.113142 0.000000 12.000000
      vertex 7.823563 -1.475205 0.000000
    endloop
  endfacet
  facet normal 0.900969 -0.433884 0.000000
    outer loop
      vertex 7.823563 1.475205 0.000000
      vertex 7.823563 1.475205 12.000000
      vertex 7.113142 0.000000 12.000000
    endloop
  endfacet
  facet normal 0.900969 -0.433884 0.000000
    outer loop
      vertex 7.113142 0.000000 0.000000
      vertex 7.823563 1.475205 0.000000
      vertex 7.113142 0.000000 12.000000
    endloop
  endfacet
  facet normal 0.222521 -0.974928 0.000000
    outer loop
      vertex 9.419865 1.839550 0.000000
      vertex 9.419865 1.839550 12.000000
      vertex 7.823563 1.475205 12.000000
    endloop
  endfacet
  facet normal 0.222521 -0.974928 0.000000
    outer loop
      vertex 7.823563 1.475205 0.000000
      vertex 9.419865 1.839550 0.000000
      vertex 7.823563 1.475205 12.000000
    endloop
  endfacet
  facet normal -0.623490 -0.781832 -0.000000
    outer loop
      vertex 10.700000 0.818677 0.000000
      vertex 10.700000 0.818677 12.000000
      vertex 9.419865 1.839550 12.000000
    endloop
  endfacet
  facet normal -0.623490 -0.781832 -0.000000
    outer loop
      vertex 9.419865 1.839550 0.000000
      vertex 10.700000 0.818677 0.000000
      vertex 9.419865 1.839550 12.000000
    endloop
  endfacet
  facet normal -1.000000 0.000000 0.000000
    outer loop
      vertex 10.700000 0.818677 12.000000
      vertex 10.700000 0.818677 0.000000
      vertex 10.700000 -0.818677 12.000000
    endloop
  endfacet
  facet normal -1.000000 0.000000 0.000000
    outer loop
      vertex 10.700000 -0.818677 12.000000
      vertex 10.700000 0.818677 0.000000
      vertex 10.700000 -0.818677 0.000000
    endloop
  endfacet
  facet normal -0.623490 0.781832 0.000000
    outer loop
      vertex 10.700000 -0.818677 12.000000
      vertex 10.700000 -0.818677 0.000000
      vertex 9.419865 -1.839550 12.000000
    endloop
  endfacet
  facet normal -0.623490 0.781832 0.000000
    outer loop
      vertex 9.419865 -1.839550 12.000000
      vertex 10.700000 -0.818677 0.000000
      vertex 9.419865 -1.839550 0.000000
    endloop
  endfacet
  facet normal 0.222521 0.974928 -0.000000
    outer loop
      vertex 9.419865 -1.839550 12.000000
      vertex 9.419865 -1.839550 0.000000
      vertex 7.823563 -1.475205 12.000000
    endloop
  endfacet
  facet normal 0.222521 0.974928 -0.000000
    outer loop
      vertex 7.823563 -1.475205 12.000000
      vertex 9.419865 -1.839550 0.000000
      vertex 7.823563 -1.475205 0.000000
    endloop
  endfacet
  facet normal 0.000000 0.000000 1.000000
    outer loop
      vertex -13.619398 1.913417 12.000000
      vertex -14.000000 0.000000 12.000000
      vertex -13.619398 -1.913417 12.000000
    endloop
  endfacet
  facet normal 0.000000 0.000000 1.000000
    outer loop
      vertex -10.913417 -4.619398 12.000000
      vertex -13.619398 1.913417 12.000000
      vertex -12.535534 -3.535534 12.000000
    endloop
  endfacet
  facet normal 0.000000 0.000000 1.000000
    outer loop
      vertex -12.535534 -3.535534 12.000000
      vertex -13.619398 1.913417 12.000000
      vertex -13.619398 -1.913417 12.000000
    endloop
  endfacet
  facet normal 0.000000 0.000000 1.000000
    outer loop
      vertex -9.000000 -5.000000 12.000000
      vertex -13.619398 1.913417 12.000000
      vertex -10.913417 -4.619398 12.000000
    endloop
  endfacet
  facet normal -0.000000 -0.000000 1.000000
    outer loop
      vertex -10.176437 -1.475205 12.000000
      vertex -13.619398 1.913417 12.000000
      vertex -9.000000 -5.000000 12.000000
    endloop
  endfacet
  facet normal -0.000000 0.000000 1.000000
    outer loop
      vertex 9.000000 -5.000000 12.000000
      vertex 3.500000 -4.375000 12.000000
      vertex 3.500000 -5.000000 12.000000
    endloop
  endfacet
  facet normal 0.000000 0.000000 1.000000
    outer loop
      vertex -3.500000 -1.875000 12.000000
      vertex 3.500000 -1.875000 12.000000
      vertex -3.500000 -0.625000 12.000000
    endloop
  endfacet
  facet normal 0.000000 0.000000 1.000000
    outer loop
      vertex -8.580135 1.839550 12.000000
      vertex -3.500000 0.625000 12.000000
      vertex 3.500000 0.625000 12.000000
    endloop
  endfacet
  facet normal 0.000000 0.000000 1.000000
    outer loop
      vertex 3.500000 0.625000 12.000000
      vertex 3.500000 1.875000 12.000000
      vertex -8.580135 1.839550 12.000000
    endloop
  endfacet
  facet normal 0.000000 0.000000 1.000000
    outer loop
      vertex 7.113142 0.000000 12.000000
      vertex 7.823563 1.475205 12.000000
      vertex 3.500000 1.875000 12.000000
    endloop
  endfacet
  facet normal 0.000000 -0.000000 1.000000
    outer loop
      vertex 3.500000 3.125000 12.000000
      vertex 3.500000 1.875000 12.000000
      vertex 13.619398 1.913417 12.000000
    endloop
  endfacet
  facet normal 0.000000 -0.000000 1.000000
    outer loop
      vertex 3.500000 4.375000 12.000000
      vertex -13.619398 1.913417 12.000000
      vertex 9.000000 5.000000 12.000000
    endloop
  endfacet
  facet normal 0.000000 -0.000000 1.000000
    outer loop
      vertex 3.500000 5.000000 12.000000
      vertex 3.500000 4.375000 12.000000
      vertex 9.000000 5.000000 12.000000
    endloop
  endfacet
  facet normal 0.000000 0.000000 1.000000
    outer loop
      vertex -3.500000 5.000000 12.000000
      vertex -13.619398 1.913417 12.000000
      vertex -3.500000 4.375000 12.000000
    endloop
  endfacet
  facet normal 0.000000 -0.000000 1.000000
    outer loop
      vertex -9.000000 5.000000 12.000000
      vertex -13.619398 1.913417 12.000000
      vertex -3.500000 5.000000 12.000000
    endloop
  endfacet
  facet normal 0.000000 -0.000000 1.000000
    outer loop
      vertex -10.913417 4.619398 12.000000
      vertex -13.619398 1.913417 12.000000
      vertex -9.000000 5.000000 12.000000
    endloop
  endfacet
  facet normal 0.000000 -0.000000 1.000000
    outer loop
      vertex -12.535534 3.535534 12.000000
      vertex -13.619398 1.913417 12.000000
      vertex -10.913417 4.619398 12.000000
    endloop
  endfacet
  facet normal -0.000000 0.000000 1.000000
    outer loop
      vertex -3.500000 -5.000000 12.000000
      vertex -10.176437 -1.475205 12.000000
      vertex -9.000000 -5.000000 12.000000
    endloop
  endfacet
  facet normal -0.000000 -0.000000 1.000000
    outer loop
      vertex -10.886858 0.000000 12.000000
      vertex -13.619398 1.913417 12.000000
      vertex -10.176437 -1.475205 12.000000
    endloop
  endfacet
  facet normal 0.000000 -0.000000 1.000000
    outer loop
      vertex 10.700000 0.818677 12.000000
      vertex 10.700000 -0.818677 12.000000
      vertex 14.000000 0.000000 12.000000
    endloop
  endfacet
  facet normal 0.000000 0.000000 1.000000
    outer loop
      vertex 9.419865 1.839550 12.000000
      vertex 10.700000 0.818677 12.000000
      vertex 13.619398 1.913417 12.000000
    endloop
  endfacet
  facet normal -0.000000 0.000000 1.000000
    outer loop
      vertex -3.500000 1.875000 12.000000
      vertex -13.619398 1.913417 12.000000
      vertex -8.580135 1.839550 12.000000
    endloop
  endfacet
  facet normal 0.000000 0.000000 1.000000
    outer loop
      vertex -3.500000 -0.625000 12.000000
      vertex -3.500000 0.625000 12.000000
      vertex -7.300000 0.818677 12.000000
    endloop
  endfacet
  facet normal 0.000000 0.000000 1.000000
    outer loop
      vertex -10.176437 1.475205 12.000000
      vertex -8.580135 1.839550 12.000000
      vertex -13.619398 1.913417 12.000000
    endloop
  endfacet
  facet normal -0.000000 0.000000 1.000000
    outer loop
      vertex -3.500000 -3.125000 12.000000
      vertex -7.300000 -0.818677 12.000000
      vertex -3.500000 -4.375000 12.000000
    endloop
  endfacet
  facet normal 0.000000 0.000000 1.000000
    outer loop
      vertex -3.500000 -5.000000 12.000000
      vertex -8.580135 -1.839550 12.000000
      vertex -10.176437 -1.475205 12.000000
    endloop
  endfacet
  facet normal 0.000000 0.000000 1.000000
    outer loop
      vertex -3.500000 -3.125000 12.000000
      vertex -3.500000 -1.875000 12.000000
      vertex -7.300000 -0.818677 12.000000
    endloop
  endfacet
  facet normal -0.000000 0.000000 1.000000
    outer loop
      vertex 3.500000 -4.375000 12.000000
      vertex -3.500000 -3.125000 12.000000
      vertex -3.500000 -4.375000 12.000000
    endloop
  endfacet
  facet normal 0.000000 -0.000000 1.000000
    outer loop
      vertex 3.500000 -1.875000 12.000000
      vertex 3.500000 -3.125000 12.000000
      vertex 10.913417 -4.619398 12.000000
    endloop
  endfacet
  facet normal -0.000000 0.000000 1.000000
    outer loop
      vertex 12.535534 -3.535534 12.000000
      vertex 3.500000 -1.875000 12.000000
      vertex 10.913417 -4.619398 12.000000
    endloop
  endfacet
  facet normal -0.000000 0.000000 1.000000
    outer loop
      vertex 10.913417 -4.619398 12.000000
      vertex 3.500000 -3.125000 12.000000
      vertex 9.000000 -5.000000 12.000000
    endloop
  endfacet
  facet normal 0.000000 -0.000000 1.000000
    outer loop
      vertex -7.300000 0.818677 12.000000
      vertex -7.300000 -0.818677 12.000000
      vertex -3.500000 -1.875000 12.000000
    endloop
  endfacet
  facet normal 0.000000 0.000000 1.000000
    outer loop
      vertex -8.580135 1.839550 12.000000
      vertex -7.300000 0.818677 12.000000
      vertex -3.500000 0.625000 12.000000
    endloop
  endfacet
  facet normal 0.000000 0.000000 1.000000
    outer loop
      vertex 3.500000 1.875000 12.000000
      vertex -3.500000 1.875000 12.000000
      vertex -8.580135 1.839550 12.000000
    endloop
  endfacet
  facet normal 0.000000 -0.000000 1.000000
    outer loop
      vertex 3.500000 -3.125000 12.000000
      vertex 3.500000 -4.375000 12.000000
      vertex 9.000000 -5.000000 12.000000
    endloop
  endfacet
  facet normal 0.000000 0.000000 1.000000
    outer loop
      vertex 7.823563 -1.475205 12.000000
      vertex 3.500000 0.625000 12.000000
      vertex 3.500000 -0.625000 12.000000
    endloop
  endfacet
  facet normal 0.000000 0.000000 1.000000
    outer loop
      vertex -3.500000 1.875000 12.000000
      vertex -3.500000 3.125000 12.000000
      vertex -13.619398 1.913417 12.000000
    endloop
  endfacet
  facet normal -0.000000 -0.000000 1.000000
    outer loop
      vertex 7.823563 -1.475205 12.000000
      vertex 3.500000 -0.625000 12.000000
      vertex 12.535534 -3.535534 12.000000
    endloop
  endfacet
  facet normal 0.000000 0.000000 1.000000
    outer loop
      vertex -3.500000 3.125000 12.000000
      vertex 3.500000 3.125000 12.000000
      vertex 10.913417 4.619398 12.000000
    endloop
  endfacet
  facet normal 0.000000 -0.000000 1.000000
    outer loop
      vertex 9.000000 5.000000 12.000000
      vertex -3.500000 3.125000 12.000000
      vertex 10.913417 4.619398 12.000000
    endloop
  endfacet
  facet normal 0.000000 0.000000 1.000000
    outer loop
      vertex 9.000000 5.000000 12.000000
      vertex -13.619398 1.913417 12.000000
      vertex -3.500000 3.125000 12.000000
    endloop
  endfacet
  facet normal 0.000000 -0.000000 1.000000
    outer loop
      vertex 10.913417 4.619398 12.000000
      vertex 3.500000 3.125000 12.000000
      vertex 12.535534 3.535534 12.000000
    endloop
  endfacet
  facet normal 0.000000 0.000000 1.000000
    outer loop
      vertex 3.500000 3.125000 12.000000
      vertex 13.619398 1.913417 12.000000
      vertex 12.535534 3.535534 12.000000
    endloop
  endfacet
  facet normal -0.000000 -0.000000 1.000000
    outer loop
      vertex 9.419865 -1.839550 12.000000
      vertex 7.823563 -1.475205 12.000000
      vertex 12.535534 -3.535534 12.000000
    endloop
  endfacet
  facet normal 0.000000 0.000000 1.000000
    outer loop
      vertex 7.113142 0.000000 12.000000
      vertex 3.500000 1.875000 12.000000
      vertex 3.500000 0.625000 12.000000
    endloop
  endfacet
  facet normal 0.000000 0.000000 1.000000
    outer loop
      vertex 7.823563 -1.475205 12.000000
      vertex 7.113142 0.000000 12.000000
      vertex 3.500000 0.625000 12.000000
    endloop
  endfacet
  facet normal 0.000000 -0.000000 1.000000
    outer loop
      vertex 10.700000 -0.818677 12.000000
      vertex 9.419865 -1.839550 12.000000
      vertex 13.619398 -1.913417 12.000000
    endloop
  endfacet
  facet normal -0.000000 0.000000 1.000000
    outer loop
      vertex 9.419865 1.839550 12.000000
      vertex 3.500000 1.875000 12.000000
      vertex 7.823563 1.475205 12.000000
    endloop
  endfacet
  facet normal 0.000000 0.000000 1.000000
    outer loop
      vertex 13.619398 1.913417 12.000000
      vertex 3.500000 1.875000 12.000000
      vertex 9.419865 1.839550 12.000000
    endloop
  endfacet
  facet normal 0.000000 -0.000000 1.000000
    outer loop
      vertex 13.619398 1.913417 12.000000
      vertex 10.700000 0.818677 12.000000
      vertex 14.000000 0.000000 12.000000
    endloop
  endfacet
  facet normal 0.000000 0.000000 1.000000
    outer loop
      vertex 14.000000 0.000000 12.000000
      vertex 10.700000 -0.818677 12.000000
      vertex 13.619398 -1.913417 12.000000
    endloop
  endfacet
  facet normal -0.000000 0.000000 1.000000
    outer loop
      vertex 13.619398 -1.913417 12.000000
      vertex 9.419865 -1.839550 12.000000
      vertex 12.535534 -3.535534 12.000000
    endloop
  endfacet
  facet normal 0.000000 0.000000 1.000000
    outer loop
      vertex 3.500000 4.375000 12.000000
      vertex -3.500000 4.375000 12.000000
      vertex -13.619398 1.913417 12.000000
    endloop
  endfacet
  facet normal 0.000000 -0.000000 1.000000
    outer loop
      vertex 3.500000 -0.625000 12.000000
      vertex 3.500000 -1.875000 12.000000
      vertex 12.535534 -3.535534 12.000000
    endloop
  endfacet
  facet normal 0.000000 0.000000 1.000000
    outer loop
      vertex 3.500000 -3.125000 12.000000
      vertex -3.500000 -3.125000 12.000000
      vertex 3.500000 -4.375000 12.000000
    endloop
  endfacet
  facet normal 0.000000 -0.000000 1.000000
    outer loop
      vertex -7.300000 -0.818677 12.000000
      vertex -8.580135 -1.839550 12.000000
      vertex -3.500000 -5.000000 12.000000
    endloop
  endfacet
  facet normal 0.000000 0.000000 1.000000
    outer loop
      vertex -7.300000 -0.818677 12.000000
      vertex -3.500000 -5.000000 12.000000
      vertex -3.500000 -4.375000 12.000000
    endloop
  endfacet
  facet normal 0.000000 0.000000 1.000000
    outer loop
      vertex 3.500000 -0.625000 12.000000
      vertex -3.500000 -0.625000 12.000000
      vertex 3.500000 -1.875000 12.000000
    endloop
  endfacet
  facet normal 0.000000 0.000000 1.000000
    outer loop
      vertex -3.500000 -1.875000 12.000000
      vertex -3.500000 -0.625000 12.000000
      vertex -7.300000 0.818677 12.000000
    endloop
  endfacet
  facet normal 0.000000 0.000000 1.000000
    outer loop
      vertex -10.886858 0.000000 12.000000
      vertex -10.176437 1.475205 12.000000
      vertex -13.619398 1.913417 12.000000
    endloop
  endfacet
  facet normal 1.000000 0.000000 0.000000
    outer loop
      vertex -3.500000 -4.714214 11.300000
      vertex -3.500000 -4.375000 11.639214
      vertex -3.500000 -4.375000 12.000000
    endloop
  endfacet
  facet normal 1.000000 0.000000 0.000000
    outer loop
      vertex -3.500000 -5.000000 11.300000
      vertex -3.500000 -4.714214 11.300000
      vertex -3.500000 -5.000000 12.000000
    endloop
  endfacet
  facet normal 1.000000 0.000000 0.000000
    outer loop
      vertex -3.500000 -5.000000 12.000000
      vertex -3.500000 -4.714214 11.300000
      vertex -3.500000 -4.375000 12.000000
    endloop
  endfacet
  facet normal 0.000000 0.000000 1.000000
    outer loop
      vertex 3.500000 -5.000000 11.300000
      vertex 3.500000 -4.714214 11.300000
      vertex -3.500000 -4.714214 11.300000
    endloop
  endfacet
  facet normal 0.000000 0.000000 1.000000
    outer loop
      vertex -3.500000 -5.000000 11.300000
      vertex 3.500000 -5.000000 11.300000
      vertex -3.500000 -4.714214 11.300000
    endloop
  endfacet
  facet normal -1.000000 0.000000 0.000000
    outer loop
      vertex 3.500000 -4.375000 12.000000
      vertex 3.500000 -4.375000 11.639214
      vertex 3.500000 -5.000000 12.000000
    endloop
  endfacet
  facet normal -1.000000 0.000000 0.000000
    outer loop
      vertex 3.500000 -5.000000 12.000000
      vertex 3.500000 -4.375000 11.639214
      vertex 3.500000 -4.714214 11.300000
    endloop
  endfacet
  facet normal -1.000000 0.000000 0.000000
    outer loop
      vertex 3.500000 -5.000000 12.000000
      vertex 3.500000 -4.714214 11.300000
      vertex 3.500000 -5.000000 11.300000
    endloop
  endfacet
  facet normal 1.000000 0.000000 -0.000000
    outer loop
      vertex -2.814583 -2.000000 7.625000
      vertex -2.814583 -5.000000 7.625000
      vertex -2.814583 -5.000000 4.375000
    endloop
  endfacet
  facet normal 1.000000 0.000000 -0.000000
    outer loop
      vertex -2.814583 -2.000000 4.375000
      vertex -2.814583 -2.000000 7.625000
      vertex -2.814583 -5.000000 4.375000
    endloop
  endfacet
  facet normal 0.500000 0.000000 0.866025
    outer loop
      vertex -2.814583 -5.000000 4.375000
      vertex -0.000000 -5.000000 2.750000
      vertex -0.000000 -2.000000 2.750000
    endloop
  endfacet
  facet normal 0.500000 -0.000000 0.866025
    outer loop
      vertex -2.814583 -2.000000 4.375000
      vertex -2.814583 -5.000000 4.375000
      vertex -0.000000 -2.000000 2.750000
    endloop
  endfacet
  facet normal -0.500000 0.000000 0.866025
    outer loop
      vertex -0.000000 -5.000000 2.750000
      vertex 2.814583 -5.000000 4.375000
      vertex 2.814583 -2.000000 4.375000
    endloop
  endfacet
  facet normal -0.500000 -0.000000 0.866025
    outer loop
      vertex -0.000000 -2.000000 2.750000
      vertex -0.000000 -5.000000 2.750000
      vertex 2.814583 -2.000000 4.375000
    endloop
  endfacet
  facet normal -1.000000 -0.000000 0.000000
    outer loop
      vertex 2.814583 -5.000000 7.625000
      vertex 2.814583 -2.000000 7.625000
      vertex 2.814583 -5.000000 4.375000
    endloop
  endfacet
  facet normal -1.000000 0.000000 0.000000
    outer loop
      vertex 2.814583 -5.000000 4.375000
      vertex 2.814583 -2.000000 7.625000
      vertex 2.814583 -2.000000 4.375000
    endloop
  endfacet
  facet normal -0.500000 -0.000000 -0.866025
    outer loop
      vertex 2.814583 -5.000000 7.625000
      vertex 0.000000 -5.000000 9.250000
      vertex 2.814583 -2.000000 7.625000
    endloop
  endfacet
  facet normal -0.500000 -0.000000 -0.866025
    outer loop
      vertex 2.814583 -2.000000 7.625000
      vertex 0.000000 -5.000000 9.250000
      vertex 0.000000 -2.000000 9.250000
    endloop
  endfacet
  facet normal 0.500000 0.000000 -0.866025
    outer loop
      vertex 0.000000 -5.000000 9.250000
      vertex -2.814583 -5.000000 7.625000
      vertex 0.000000 -2.000000 9.250000
    endloop
  endfacet
  facet normal 0.500000 0.000000 -0.866025
    outer loop
      vertex 0.000000 -2.000000 9.250000
      vertex -2.814583 -5.000000 7.625000
      vertex -2.814583 -2.000000 7.625000
    endloop
  endfacet
  facet normal -1.000000 0.000000 0.000000
    outer loop
      vertex 3.500000 5.000000 11.300000
      vertex 3.500000 4.714214 11.300000
      vertex 3.500000 5.000000 12.000000
    endloop
  endfacet
  facet normal -1.000000 0.000000 0.000000
    outer loop
      vertex 3.500000 5.000000 12.000000
      vertex 3.500000 4.714214 11.300000
      vertex 3.500000 4.375000 11.639214
    endloop
  endfacet
  facet normal -1.000000 0.000000 0.000000
    outer loop
      vertex 3.500000 5.000000 12.000000
      vertex 3.500000 4.375000 11.639214
      vertex 3.500000 4.375000 12.000000
    endloop
  endfacet
  facet normal 0.000000 0.000000 1.000000
    outer loop
      vertex 3.500000 4.714214 11.300000
      vertex 3.500000 5.000000 11.300000
      vertex -3.500000 5.000000 11.300000
    endloop
  endfacet
  facet normal 0.000000 0.000000 1.000000
    outer loop
      vertex -3.500000 4.714214 11.300000
      vertex 3.500000 4.714214 11.300000
      vertex -3.500000 5.000000 11.300000
    endloop
  endfacet
  facet normal 1.000000 0.000000 0.000000
    outer loop
      vertex -3.500000 4.375000 11.639214
      vertex -3.500000 4.714214 11.300000
      vertex -3.500000 5.000000 11.300000
    endloop
  endfacet
  facet normal 1.000000 0.000000 -0.000000
    outer loop
      vertex -3.500000 4.375000 12.000000
      vertex -3.500000 4.375000 11.639214
      vertex -3.500000 5.000000 12.000000
    endloop
  endfacet
  facet normal 1.000000 0.000000 0.000000
    outer loop
      vertex -3.500000 5.000000 12.000000
      vertex -3.500000 4.375000 11.639214
      vertex -3.500000 5.000000 11.300000
    endloop
  endfacet
  facet normal 0.994522 0.000000 0.104529
    outer loop
      vertex -1.711758 -2.000000 5.636155
      vertex -1.711758 5.000000 5.636155
      vertex -1.750000 5.000000 6.000000
    endloop
  endfacet
  facet normal 0.994522 0.000000 0.104529
    outer loop
      vertex -1.750000 -2.000000 6.000000
      vertex -1.711758 -2.000000 5.636155
      vertex -1.750000 5.000000 6.000000
    endloop
  endfacet
  facet normal 0.994522 0.000000 -0.104529
    outer loop
      vertex -1.750000 5.000000 6.000000
      vertex -1.711758 5.000000 6.363845
      vertex -1.711758 -2.000000 6.363845
    endloop
  endfacet
  facet normal 0.994522 -0.000000 -0.104529
    outer loop
      vertex -1.750000 -2.000000 6.000000
      vertex -1.750000 5.000000 6.000000
      vertex -1.711758 -2.000000 6.363845
    endloop
  endfacet
  facet normal 0.951057 0.000000 -0.309015
    outer loop
      vertex -1.711758 5.000000 6.363845
      vertex -1.598705 5.000000 6.711789
      vertex -1.598705 -2.000000 6.711789
    endloop
  endfacet
  facet normal 0.951057 0.000000 -0.309015
    outer loop
      vertex -1.711758 -2.000000 6.363845
      vertex -1.711758 5.000000 6.363845
      vertex -1.598705 -2.000000 6.711789
    endloop
  endfacet
  facet normal 0.866025 -0.000000 -0.500000
    outer loop
      vertex -1.598705 5.000000 6.711789
      vertex -1.415780 5.000000 7.028624
      vertex -1.415780 -2.000000 7.028624
    endloop
  endfacet
  facet normal 0.866025 0.000000 -0.500000
    outer loop
      vertex -1.598705 -2.000000 6.711789
      vertex -1.598705 5.000000 6.711789
      vertex -1.415780 -2.000000 7.028624
    endloop
  endfacet
  facet normal 0.743145 -0.000000 -0.669131
    outer loop
      vertex -1.415780 5.000000 7.028624
      vertex -1.170979 5.000000 7.300503
      vertex -1.170979 -2.000000 7.300503
    endloop
  endfacet
  facet normal 0.743145 -0.000000 -0.669131
    outer loop
      vertex -1.415780 -2.000000 7.028624
      vertex -1.415780 5.000000 7.028624
      vertex -1.170979 -2.000000 7.300503
    endloop
  endfacet
  facet normal 0.587785 0.000000 -0.809017
    outer loop
      vertex -0.875000 5.000000 7.515544
      vertex -0.875000 -2.000000 7.515544
      vertex -1.170979 5.000000 7.300503
    endloop
  endfacet
  facet normal 0.587785 -0.000000 -0.809017
    outer loop
      vertex -1.170979 5.000000 7.300503
      vertex -0.875000 -2.000000 7.515544
      vertex -1.170979 -2.000000 7.300503
    endloop
  endfacet
  facet normal 0.406738 -0.000000 -0.913545
    outer loop
      vertex -0.540780 5.000000 7.664349
      vertex -0.540780 -2.000000 7.664349
      vertex -0.875000 5.000000 7.515544
    endloop
  endfacet
  facet normal 0.406738 0.000000 -0.913545
    outer loop
      vertex -0.875000 5.000000 7.515544
      vertex -0.540780 -2.000000 7.664349
      vertex -0.875000 -2.000000 7.515544
    endloop
  endfacet
  facet normal 0.207911 0.000000 -0.978148
    outer loop
      vertex -0.182925 5.000000 7.740413
      vertex -0.182925 -2.000000 7.740413
      vertex -0.540780 5.000000 7.664349
    endloop
  endfacet
  facet normal 0.207911 -0.000000 -0.978148
    outer loop
      vertex -0.540780 5.000000 7.664349
      vertex -0.182925 -2.000000 7.740413
      vertex -0.540780 -2.000000 7.664349
    endloop
  endfacet
  facet normal 0.000000 0.000000 -1.000000
    outer loop
      vertex 0.182925 5.000000 7.740413
      vertex 0.182925 -2.000000 7.740413
      vertex -0.182925 5.000000 7.740413
    endloop
  endfacet
  facet normal 0.000000 0.000000 -1.000000
    outer loop
      vertex -0.182925 5.000000 7.740413
      vertex 0.182925 -2.000000 7.740413
      vertex -0.182925 -2.000000 7.740413
    endloop
  endfacet
  facet normal -0.207911 -0.000000 -0.978148
    outer loop
      vertex 0.540780 5.000000 7.664349
      vertex 0.540780 -2.000000 7.664349
      vertex 0.182925 5.000000 7.740413
    endloop
  endfacet
  facet normal -0.207911 0.000000 -0.978148
    outer loop
      vertex 0.182925 5.000000 7.740413
      vertex 0.540780 -2.000000 7.664349
      vertex 0.182925 -2.000000 7.740413
    endloop
  endfacet
  facet normal -0.406738 0.000000 -0.913545
    outer loop
      vertex 0.875000 5.000000 7.515544
      vertex 0.875000 -2.000000 7.515544
      vertex 0.540780 5.000000 7.664349
    endloop
  endfacet
  facet normal -0.406738 -0.000000 -0.913545
    outer loop
      vertex 0.540780 5.000000 7.664349
      vertex 0.875000 -2.000000 7.515544
      vertex 0.540780 -2.000000 7.664349
    endloop
  endfacet
  facet normal -0.587785 -0.000000 -0.809017
    outer loop
      vertex 1.170979 5.000000 7.300503
      vertex 1.170979 -2.000000 7.300503
      vertex 0.875000 5.000000 7.515544
    endloop
  endfacet
  facet normal -0.587785 0.000000 -0.809017
    outer loop
      vertex 0.875000 5.000000 7.515544
      vertex 1.170979 -2.000000 7.300503
      vertex 0.875000 -2.000000 7.515544
    endloop
  endfacet
  facet normal -0.743145 -0.000000 -0.669131
    outer loop
      vertex 1.415780 5.000000 7.028624
      vertex 1.415780 -2.000000 7.028624
      vertex 1.170979 5.000000 7.300503
    endloop
  endfacet
  facet normal -0.743145 -0.000000 -0.669131
    outer loop
      vertex 1.170979 5.000000 7.300503
      vertex 1.415780 -2.000000 7.028624
      vertex 1.170979 -2.000000 7.300503
    endloop
  endfacet
  facet normal -0.866025 0.000000 -0.500000
    outer loop
      vertex 1.598705 5.000000 6.711789
      vertex 1.598705 -2.000000 6.711789
      vertex 1.415780 5.000000 7.028624
    endloop
  endfacet
  facet normal -0.866025 -0.000000 -0.500000
    outer loop
      vertex 1.415780 5.000000 7.028624
      vertex 1.598705 -2.000000 6.711789
      vertex 1.415780 -2.000000 7.028624
    endloop
  endfacet
  facet normal -0.951057 0.000000 -0.309015
    outer loop
      vertex 1.711758 5.000000 6.363845
      vertex 1.711758 -2.000000 6.363845
      vertex 1.598705 5.000000 6.711789
    endloop
  endfacet
  facet normal -0.951057 0.000000 -0.309015
    outer loop
      vertex 1.598705 5.000000 6.711789
      vertex 1.711758 -2.000000 6.363845
      vertex 1.598705 -2.000000 6.711789
    endloop
  endfacet
  facet normal -0.994522 -0.000000 -0.104529
    outer loop
      vertex 1.750000 5.000000 6.000000
      vertex 1.750000 -2.000000 6.000000
      vertex 1.711758 5.000000 6.363845
    endloop
  endfacet
  facet normal -0.994522 0.000000 -0.104529
    outer loop
      vertex 1.711758 5.000000 6.363845
      vertex 1.750000 -2.000000 6.000000
      vertex 1.711758 -2.000000 6.363845
    endloop
  endfacet
  facet normal -0.994522 0.000000 0.104529
    outer loop
      vertex 1.750000 5.000000 6.000000
      vertex 1.711758 5.000000 5.636155
      vertex 1.750000 -2.000000 6.000000
    endloop
  endfacet
  facet normal -0.994522 0.000000 0.104529
    outer loop
      vertex 1.750000 -2.000000 6.000000
      vertex 1.711758 5.000000 5.636155
      vertex 1.711758 -2.000000 5.636155
    endloop
  endfacet
  facet normal -0.951057 0.000000 0.309015
    outer loop
      vertex 1.711758 5.000000 5.636155
      vertex 1.598705 5.000000 5.288211
      vertex 1.711758 -2.000000 5.636155
    endloop
  endfacet
  facet normal -0.951057 0.000000 0.309015
    outer loop
      vertex 1.711758 -2.000000 5.636155
      vertex 1.598705 5.000000 5.288211
      vertex 1.598705 -2.000000 5.288211
    endloop
  endfacet
  facet normal -0.866025 0.000000 0.500000
    outer loop
      vertex 1.598705 5.000000 5.288211
      vertex 1.415780 5.000000 4.971376
      vertex 1.598705 -2.000000 5.288211
    endloop
  endfacet
  facet normal -0.866025 0.000000 0.500000
    outer loop
      vertex 1.598705 -2.000000 5.288211
      vertex 1.415780 5.000000 4.971376
      vertex 1.415780 -2.000000 4.971376
    endloop
  endfacet
  facet normal -0.743145 0.000000 0.669131
    outer loop
      vertex 1.415780 5.000000 4.971376
      vertex 1.170979 5.000000 4.699497
      vertex 1.415780 -2.000000 4.971376
    endloop
  endfacet
  facet normal -0.743145 0.000000 0.669131
    outer loop
      vertex 1.415780 -2.000000 4.971376
      vertex 1.170979 5.000000 4.699497
      vertex 1.170979 -2.000000 4.699497
    endloop
  endfacet
  facet normal -0.587785 0.000000 0.809017
    outer loop
      vertex 1.170979 -2.000000 4.699497
      vertex 1.170979 5.000000 4.699497
      vertex 0.875000 5.000000 4.484456
    endloop
  endfacet
  facet normal -0.587785 0.000000 0.809017
    outer loop
      vertex 0.875000 -2.000000 4.484456
      vertex 1.170979 -2.000000 4.699497
      vertex 0.875000 5.000000 4.484456
    endloop
  endfacet
  facet normal -0.406738 0.000000 0.913545
    outer loop
      vertex 0.875000 -2.000000 4.484456
      vertex 0.875000 5.000000 4.484456
      vertex 0.540780 5.000000 4.335651
    endloop
  endfacet
  facet normal -0.406738 0.000000 0.913545
    outer loop
      vertex 0.540780 -2.000000 4.335651
      vertex 0.875000 -2.000000 4.484456
      vertex 0.540780 5.000000 4.335651
    endloop
  endfacet
  facet normal -0.207911 0.000000 0.978148
    outer loop
      vertex 0.540780 -2.000000 4.335651
      vertex 0.540780 5.000000 4.335651
      vertex 0.182925 5.000000 4.259587
    endloop
  endfacet
  facet normal -0.207911 0.000000 0.978148
    outer loop
      vertex 0.182925 -2.000000 4.259587
      vertex 0.540780 -2.000000 4.335651
      vertex 0.182925 5.000000 4.259587
    endloop
  endfacet
  facet normal 0.000000 0.000000 1.000000
    outer loop
      vertex 0.182925 -2.000000 4.259587
      vertex 0.182925 5.000000 4.259587
      vertex -0.182925 5.000000 4.259587
    endloop
  endfacet
  facet normal 0.000000 0.000000 1.000000
    outer loop
      vertex -0.182925 -2.000000 4.259587
      vertex 0.182925 -2.000000 4.259587
      vertex -0.182925 5.000000 4.259587
    endloop
  endfacet
  facet normal 0.207911 0.000000 0.978148
    outer loop
      vertex -0.182925 -2.000000 4.259587
      vertex -0.182925 5.000000 4.259587
      vertex -0.540780 5.000000 4.335651
    endloop
  endfacet
  facet normal 0.207911 0.000000 0.978148
    outer loop
      vertex -0.540780 -2.000000 4.335651
      vertex -0.182925 -2.000000 4.259587
      vertex -0.540780 5.000000 4.335651
    endloop
  endfacet
  facet normal 0.406738 0.000000 0.913545
    outer loop
      vertex -0.540780 -2.000000 4.335651
      vertex -0.540780 5.000000 4.335651
      vertex -0.875000 5.000000 4.484456
    endloop
  endfacet
  facet normal 0.406738 0.000000 0.913545
    outer loop
      vertex -0.875000 -2.000000 4.484456
      vertex -0.540780 -2.000000 4.335651
      vertex -0.875000 5.000000 4.484456
    endloop
  endfacet
  facet normal 0.587785 0.000000 0.809017
    outer loop
      vertex -0.875000 -2.000000 4.484456
      vertex -0.875000 5.000000 4.484456
      vertex -1.170979 5.000000 4.699497
    endloop
  endfacet
  facet normal 0.587785 0.000000 0.809017
    outer loop
      vertex -1.170979 -2.000000 4.699497
      vertex -0.875000 -2.000000 4.484456
      vertex -1.170979 5.000000 4.699497
    endloop
  endfacet
  facet normal 0.743145 0.000000 0.669131
    outer loop
      vertex -1.170979 -2.000000 4.699497
      vertex -1.170979 5.000000 4.699497
      vertex -1.415780 5.000000 4.971376
    endloop
  endfacet
  facet normal 0.743145 0.000000 0.669131
    outer loop
      vertex -1.415780 -2.000000 4.971376
      vertex -1.170979 -2.000000 4.699497
      vertex -1.415780 5.000000 4.971376
    endloop
  endfacet
  facet normal 0.866025 0.000000 0.500000
    outer loop
      vertex -1.415780 -2.000000 4.971376
      vertex -1.415780 5.000000 4.971376
      vertex -1.598705 5.000000 5.288211
    endloop
  endfacet
  facet normal 0.866025 0.000000 0.500000
    outer loop
      vertex -1.598705 -2.000000 5.288211
      vertex -1.415780 -2.000000 4.971376
      vertex -1.598705 5.000000 5.288211
    endloop
  endfacet
  facet normal 0.951057 0.000000 0.309015
    outer loop
      vertex -1.598705 -2.000000 5.288211
      vertex -1.598705 5.000000 5.288211
      vertex -1.711758 5.000000 5.636155
    endloop
  endfacet
  facet normal 0.951057 0.000000 0.309015
    outer loop
      vertex -1.711758 -2.000000 5.636155
      vertex -1.598705 -2.000000 5.288211
      vertex -1.711758 5.000000 5.636155
    endloop
  endfacet
  facet normal -0.000000 1.000000 0.000000
    outer loop
      vertex 3.500000 4.375000 11.639214
      vertex -3.500000 4.375000 11.639214
      vertex 3.500000 4.375000 12.000000
    endloop
  endfacet
  facet normal 0.000000 1.000000 0.000000
    outer loop
      vertex 3.500000 4.375000 12.000000
      vertex -3.500000 4.375000 11.639214
      vertex -3.500000 4.375000 12.000000
    endloop
  endfacet
  facet normal -0.000000 -1.000000 0.000000
    outer loop
      vertex -3.500000 -4.375000 11.639214
      vertex 3.500000 -4.375000 11.639214
      vertex 3.500000 -4.375000 12.000000
    endloop
  endfacet
  facet normal 0.000000 -1.000000 0.000000
    outer loop
      vertex -3.500000 -4.375000 12.000000
      vertex -3.500000 -4.375000 11.639214
      vertex 3.500000 -4.375000 12.000000
    endloop
  endfacet
  facet normal -0.000000 1.000000 0.000000
    outer loop
      vertex 3.500000 -3.125000 11.639214
      vertex -3.500000 -3.125000 11.639214
      vertex 3.500000 -3.125000 12.000000
    endloop
  endfacet
  facet normal 0.000000 1.000000 0.000000
    outer loop
      vertex 3.500000 -3.125000 12.000000
      vertex -3.500000 -3.125000 11.639214
      vertex -3.500000 -3.125000 12.000000
    endloop
  endfacet
  facet normal 1.000000 0.000000 0.000000
    outer loop
      vertex -3.500000 -3.125000 11.639214
      vertex -3.500000 -2.785786 11.300000
      vertex -3.500000 -2.214214 11.300000
    endloop
  endfacet
  facet normal 1.000000 0.000000 0.000000
    outer loop
      vertex -3.500000 -1.875000 12.000000
      vertex -3.500000 -3.125000 11.639214
      vertex -3.500000 -1.875000 11.639214
    endloop
  endfacet
  facet normal 1.000000 0.000000 0.000000
    outer loop
      vertex -3.500000 -1.875000 11.639214
      vertex -3.500000 -3.125000 11.639214
      vertex -3.500000 -2.214214 11.300000
    endloop
  endfacet
  facet normal 1.000000 0.000000 -0.000000
    outer loop
      vertex -3.500000 -3.125000 12.000000
      vertex -3.500000 -3.125000 11.639214
      vertex -3.500000 -1.875000 12.000000
    endloop
  endfacet
  facet normal -1.000000 0.000000 0.000000
    outer loop
      vertex 3.500000 -1.875000 11.639214
      vertex 3.500000 -2.214214 11.300000
      vertex 3.500000 -1.875000 12.000000
    endloop
  endfacet
  facet normal -1.000000 0.000000 0.000000
    outer loop
      vertex 3.500000 -1.875000 12.000000
      vertex 3.500000 -2.214214 11.300000
      vertex 3.500000 -2.785786 11.300000
    endloop
  endfacet
  facet normal -1.000000 0.000000 0.000000
    outer loop
      vertex 3.500000 -1.875000 12.000000
      vertex 3.500000 -2.785786 11.300000
      vertex 3.500000 -3.125000 11.639214
    endloop
  endfacet
  facet normal -1.000000 0.000000 0.000000
    outer loop
      vertex 3.500000 -1.875000 12.000000
      vertex 3.500000 -3.125000 11.639214
      vertex 3.500000 -3.125000 12.000000
    endloop
  endfacet
  facet normal -0.000000 -1.000000 0.000000
    outer loop
      vertex -3.500000 -1.875000 11.639214
      vertex 3.500000 -1.875000 11.639214
      vertex 3.500000 -1.875000 12.000000
    endloop
  endfacet
  facet normal 0.000000 -1.000000 0.000000
    outer loop
      vertex -3.500000 -1.875000 12.000000
      vertex -3.500000 -1.875000 11.639214
      vertex 3.500000 -1.875000 12.000000
    endloop
  endfacet
  facet normal -0.000000 1.000000 0.000000
    outer loop
      vertex 3.500000 -0.625000 11.639214
      vertex -3.500000 -0.625000 11.639214
      vertex 3.500000 -0.625000 12.000000
    endloop
  endfacet
  facet normal 0.000000 1.000000 0.000000
    outer loop
      vertex 3.500000 -0.625000 12.000000
      vertex -3.500000 -0.625000 11.639214
      vertex -3.500000 -0.625000 12.000000
    endloop
  endfacet
  facet normal 1.000000 0.000000 0.000000
    outer loop
      vertex -3.500000 -0.625000 11.639214
      vertex -3.500000 -0.285786 11.300000
      vertex -3.500000 0.285786 11.300000
    endloop
  endfacet
  facet normal 1.000000 0.000000 0.000000
    outer loop
      vertex -3.500000 0.625000 12.000000
      vertex -3.500000 -0.625000 11.639214
      vertex -3.500000 0.625000 11.639214
    endloop
  endfacet
  facet normal 1.000000 0.000000 0.000000
    outer loop
      vertex -3.500000 0.625000 11.639214
      vertex -3.500000 -0.625000 11.639214
      vertex -3.500000 0.285786 11.300000
    endloop
  endfacet
  facet normal 1.000000 0.000000 -0.000000
    outer loop
      vertex -3.500000 -0.625000 12.000000
      vertex -3.500000 -0.625000 11.639214
      vertex -3.500000 0.625000 12.000000
    endloop
  endfacet
  facet normal -1.000000 0.000000 0.000000
    outer loop
      vertex 3.500000 0.625000 11.639214
      vertex 3.500000 0.285786 11.300000
      vertex 3.500000 0.625000 12.000000
    endloop
  endfacet
  facet normal -1.000000 0.000000 0.000000
    outer loop
      vertex 3.500000 0.625000 12.000000
      vertex 3.500000 0.285786 11.300000
      vertex 3.500000 -0.285786 11.300000
    endloop
  endfacet
  facet normal -1.000000 0.000000 0.000000
    outer loop
      vertex 3.500000 0.625000 12.000000
      vertex 3.500000 -0.285786 11.300000
      vertex 3.500000 -0.625000 11.639214
    endloop
  endfacet
  facet normal -1.000000 0.000000 0.000000
    outer loop
      vertex 3.500000 0.625000 12.000000
      vertex 3.500000 -0.625000 11.639214
      vertex 3.500000 -0.625000 12.000000
    endloop
  endfacet
  facet normal -0.000000 -1.000000 0.000000
    outer loop
      vertex -3.500000 0.625000 11.639214
      vertex 3.500000 0.625000 11.639214
      vertex 3.500000 0.625000 12.000000
    endloop
  endfacet
  facet normal 0.000000 -1.000000 0.000000
    outer loop
      vertex -3.500000 0.625000 12.000000
      vertex -3.500000 0.625000 11.639214
      vertex 3.500000 0.625000 12.000000
    endloop
  endfacet
  facet normal -0.000000 1.000000 0.000000
    outer loop
      vertex 3.500000 1.875000 11.639214
      vertex -3.500000 1.875000 11.639214
      vertex 3.500000 1.875000 12.000000
    endloop
  endfacet
  facet normal 0.000000 1.000000 0.000000
    outer loop
      vertex 3.500000 1.875000 12.000000
      vertex -3.500000 1.875000 11.639214
      vertex -3.500000 1.875000 12.000000
    endloop
  endfacet
  facet normal 1.000000 0.000000 0.000000
    outer loop
      vertex -3.500000 1.875000 11.639214
      vertex -3.500000 2.214214 11.300000
      vertex -3.500000 2.785786 11.300000
    endloop
  endfacet
  facet normal 1.000000 0.000000 0.000000
    outer loop
      vertex -3.500000 3.125000 12.000000
      vertex -3.500000 1.875000 11.639214
      vertex -3.500000 3.125000 11.639214
    endloop
  endfacet
  facet normal 1.000000 0.000000 0.000000
    outer loop
      vertex -3.500000 3.125000 11.639214
      vertex -3.500000 1.875000 11.639214
      vertex -3.500000 2.785786 11.300000
    endloop
  endfacet
  facet normal 1.000000 0.000000 -0.000000
    outer loop
      vertex -3.500000 1.875000 12.000000
      vertex -3.500000 1.875000 11.639214
      vertex -3.500000 3.125000 12.000000
    endloop
  endfacet
  facet normal -1.000000 0.000000 0.000000
    outer loop
      vertex 3.500000 3.125000 11.639214
      vertex 3.500000 2.785786 11.300000
      vertex 3.500000 3.125000 12.000000
    endloop
  endfacet
  facet normal -1.000000 0.000000 0.000000
    outer loop
      vertex 3.500000 3.125000 12.000000
      vertex 3.500000 2.785786 11.300000
      vertex 3.500000 2.214214 11.300000
    endloop
  endfacet
  facet normal -1.000000 0.000000 0.000000
    outer loop
      vertex 3.500000 3.125000 12.000000
      vertex 3.500000 2.214214 11.300000
      vertex 3.500000 1.875000 11.639214
    endloop
  endfacet
  facet normal -1.000000 0.000000 0.000000
    outer loop
      vertex 3.500000 3.125000 12.000000
      vertex 3.500000 1.875000 11.639214
      vertex 3.500000 1.875000 12.000000
    endloop
  endfacet
  facet normal -0.000000 -1.000000 0.000000
    outer loop
      vertex -3.500000 3.125000 11.639214
      vertex 3.500000 3.125000 11.639214
      vertex 3.500000 3.125000 12.000000
    endloop
  endfacet
  facet normal 0.000000 -1.000000 0.000000
    outer loop
      vertex -3.500000 3.125000 12.000000
      vertex -3.500000 3.125000 11.639214
      vertex 3.500000 3.125000 12.000000
    endloop
  endfacet
  facet normal 0.000000 -0.707107 0.707107
    outer loop
      vertex -3.500000 -4.375000 11.639214
      vertex -3.500000 -4.714214 11.300000
      vertex 3.500000 -4.714214 11.300000
    endloop
  endfacet
  facet normal 0.000000 -0.707107 0.707107
    outer loop
      vertex 3.500000 -4.375000 11.639214
      vertex -3.500000 -4.375000 11.639214
      vertex 3.500000 -4.714214 11.300000
    endloop
  endfacet
  facet normal -0.000000 -1.000000 0.000000
    outer loop
      vertex 1.711758 -2.000000 5.636155
      vertex 2.814583 -2.000000 4.375000
      vertex 2.814583 -2.000000 7.625000
    endloop
  endfacet
  facet normal -0.000000 -1.000000 0.000000
    outer loop
      vertex 1.750000 -2.000000 6.000000
      vertex 1.711758 -2.000000 5.636155
      vertex 2.814583 -2.000000 7.625000
    endloop
  endfacet
  facet normal 0.000000 -1.000000 0.000000
    outer loop
      vertex 1.415780 -2.000000 4.971376
      vertex 1.170979 -2.000000 4.699497
      vertex -0.000000 -2.000000 2.750000
    endloop
  endfacet
  facet normal 0.000000 -1.000000 0.000000
    outer loop
      vertex -1.415780 -2.000000 7.028624
      vertex -1.170979 -2.000000 7.300503
      vertex 0.000000 -2.000000 9.250000
    endloop
  endfacet
  facet normal -0.000000 -1.000000 0.000000
    outer loop
      vertex -0.182925 -2.000000 7.740413
      vertex 0.182925 -2.000000 7.740413
      vertex 0.000000 -2.000000 9.250000
    endloop
  endfacet
  facet normal 0.000000 -1.000000 0.000000
    outer loop
      vertex 1.170979 -2.000000 4.699497
      vertex 0.875000 -2.000000 4.484456
      vertex -0.000000 -2.000000 2.750000
    endloop
  endfacet
  facet normal 0.000000 -1.000000 0.000000
    outer loop
      vertex -2.814583 -2.000000 7.625000
      vertex -1.750000 -2.000000 6.000000
      vertex -1.711758 -2.000000 6.363845
    endloop
  endfacet
  facet normal 0.000000 -1.000000 0.000000
    outer loop
      vertex -2.814583 -2.000000 7.625000
      vertex -1.711758 -2.000000 6.363845
      vertex -1.598705 -2.000000 6.711789
    endloop
  endfacet
  facet normal 0.000000 -1.000000 -0.000000
    outer loop
      vertex -2.814583 -2.000000 7.625000
      vertex -1.415780 -2.000000 7.028624
      vertex 0.000000 -2.000000 9.250000
    endloop
  endfacet
  facet normal 0.000000 -1.000000 0.000000
    outer loop
      vertex -2.814583 -2.000000 7.625000
      vertex -1.598705 -2.000000 6.711789
      vertex -1.415780 -2.000000 7.028624
    endloop
  endfacet
  facet normal 0.000000 -1.000000 0.000000
    outer loop
      vertex -0.875000 -2.000000 7.515544
      vertex -0.540780 -2.000000 7.664349
      vertex 0.000000 -2.000000 9.250000
    endloop
  endfacet
  facet normal 0.000000 -1.000000 0.000000
    outer loop
      vertex -0.540780 -2.000000 7.664349
      vertex -0.182925 -2.000000 7.740413
      vertex 0.000000 -2.000000 9.250000
    endloop
  endfacet
  facet normal 0.000000 -1.000000 0.000000
    outer loop
      vertex -0.182925 -2.000000 4.259587
      vertex -0.540780 -2.000000 4.335651
      vertex -0.000000 -2.000000 2.750000
    endloop
  endfacet
  facet normal 0.000000 -1.000000 0.000000
    outer loop
      vertex 0.000000 -2.000000 9.250000
      vertex 0.182925 -2.000000 7.740413
      vertex 2.814583 -2.000000 7.625000
    endloop
  endfacet
  facet normal 0.000000 -1.000000 0.000000
    outer loop
      vertex 0.182925 -2.000000 7.740413
      vertex 0.540780 -2.000000 7.664349
      vertex 2.814583 -2.000000 7.625000
    endloop
  endfacet
  facet normal 0.000000 -1.000000 0.000000
    outer loop
      vertex 0.540780 -2.000000 7.664349
      vertex 0.875000 -2.000000 7.515544
      vertex 2.814583 -2.000000 7.625000
    endloop
  endfacet
  facet normal -0.000000 -1.000000 0.000000
    outer loop
      vertex 0.875000 -2.000000 7.515544
      vertex 1.170979 -2.000000 7.300503
      vertex 2.814583 -2.000000 7.625000
    endloop
  endfacet
  facet normal -0.000000 -1.000000 0.000000
    outer loop
      vertex 1.170979 -2.000000 7.300503
      vertex 1.415780 -2.000000 7.028624
      vertex 2.814583 -2.000000 7.625000
    endloop
  endfacet
  facet normal -0.000000 -1.000000 0.000000
    outer loop
      vertex 1.415780 -2.000000 7.028624
      vertex 1.598705 -2.000000 6.711789
      vertex 2.814583 -2.000000 7.625000
    endloop
  endfacet
  facet normal -0.000000 -1.000000 0.000000
    outer loop
      vertex 1.598705 -2.000000 6.711789
      vertex 1.711758 -2.000000 6.363845
      vertex 2.814583 -2.000000 7.625000
    endloop
  endfacet
  facet normal -0.000000 -1.000000 0.000000
    outer loop
      vertex 1.711758 -2.000000 6.363845
      vertex 1.750000 -2.000000 6.000000
      vertex 2.814583 -2.000000 7.625000
    endloop
  endfacet
  facet normal -0.000000 -1.000000 0.000000
    outer loop
      vertex 1.598705 -2.000000 5.288211
      vertex 2.814583 -2.000000 4.375000
      vertex 1.711758 -2.000000 5.636155
    endloop
  endfacet
  facet normal 0.000000 -1.000000 0.000000
    outer loop
      vertex 1.415780 -2.000000 4.971376
      vertex 2.814583 -2.000000 4.375000
      vertex 1.598705 -2.000000 5.288211
    endloop
  endfacet
  facet normal 0.000000 -1.000000 0.000000
    outer loop
      vertex -0.000000 -2.000000 2.750000
      vertex 2.814583 -2.000000 4.375000
      vertex 1.415780 -2.000000 4.971376
    endloop
  endfacet
  facet normal 0.000000 -1.000000 0.000000
    outer loop
      vertex 0.875000 -2.000000 4.484456
      vertex 0.540780 -2.000000 4.335651
      vertex -0.000000 -2.000000 2.750000
    endloop
  endfacet
  facet normal 0.000000 -1.000000 0.000000
    outer loop
      vertex -0.875000 -2.000000 4.484456
      vertex -1.170979 -2.000000 4.699497
      vertex -0.000000 -2.000000 2.750000
    endloop
  endfacet
  facet normal 0.000000 -1.000000 0.000000
    outer loop
      vertex -0.875000 -2.000000 4.484456
      vertex -0.000000 -2.000000 2.750000
      vertex -0.540780 -2.000000 4.335651
    endloop
  endfacet
  facet normal 0.000000 -1.000000 0.000000
    outer loop
      vertex -1.598705 -2.000000 5.288211
      vertex -1.711758 -2.000000 5.636155
      vertex -2.814583 -2.000000 7.625000
    endloop
  endfacet
  facet normal 0.000000 -1.000000 0.000000
    outer loop
      vertex -1.170979 -2.000000 7.300503
      vertex -0.875000 -2.000000 7.515544
      vertex 0.000000 -2.000000 9.250000
    endloop
  endfacet
  facet normal -0.000000 -1.000000 0.000000
    outer loop
      vertex -2.814583 -2.000000 4.375000
      vertex -0.000000 -2.000000 2.750000
      vertex -1.170979 -2.000000 4.699497
    endloop
  endfacet
  facet normal 0.000000 -1.000000 0.000000
    outer loop
      vertex -2.814583 -2.000000 4.375000
      vertex -1.170979 -2.000000 4.699497
      vertex -1.415780 -2.000000 4.971376
    endloop
  endfacet
  facet normal 0.000000 -1.000000 0.000000
    outer loop
      vertex -2.814583 -2.000000 4.375000
      vertex -1.598705 -2.000000 5.288211
      vertex -2.814583 -2.000000 7.625000
    endloop
  endfacet
  facet normal 0.000000 -1.000000 0.000000
    outer loop
      vertex -2.814583 -2.000000 4.375000
      vertex -1.415780 -2.000000 4.971376
      vertex -1.598705 -2.000000 5.288211
    endloop
  endfacet
  facet normal 0.000000 -1.000000 0.000000
    outer loop
      vertex -1.711758 -2.000000 5.636155
      vertex -1.750000 -2.000000 6.000000
      vertex -2.814583 -2.000000 7.625000
    endloop
  endfacet
  facet normal 0.000000 -1.000000 0.000000
    outer loop
      vertex 0.540780 -2.000000 4.335651
      vertex 0.182925 -2.000000 4.259587
      vertex -0.000000 -2.000000 2.750000
    endloop
  endfacet
  facet normal 0.000000 -1.000000 0.000000
    outer loop
      vertex 0.182925 -2.000000 4.259587
      vertex -0.182925 -2.000000 4.259587
      vertex -0.000000 -2.000000 2.750000
    endloop
  endfacet
  facet normal 0.000000 0.707107 0.707107
    outer loop
      vertex -3.500000 4.375000 11.639214
      vertex 3.500000 4.375000 11.639214
      vertex -3.500000 4.714214 11.300000
    endloop
  endfacet
  facet normal 0.000000 0.707107 0.707107
    outer loop
      vertex -3.500000 4.714214 11.300000
      vertex 3.500000 4.375000 11.639214
      vertex 3.500000 4.714214 11.300000
    endloop
  endfacet
  facet normal 0.000000 0.707107 0.707107
    outer loop
      vertex -3.500000 -3.125000 11.639214
      vertex 3.500000 -3.125000 11.639214
      vertex -3.500000 -2.785786 11.300000
    endloop
  endfacet
  facet normal 0.000000 0.707107 0.707107
    outer loop
      vertex -3.500000 -2.785786 11.300000
      vertex 3.500000 -3.125000 11.639214
      vertex 3.500000 -2.785786 11.300000
    endloop
  endfacet
  facet normal 0.000000 -0.707107 0.707107
    outer loop
      vertex -3.500000 -1.875000 11.639214
      vertex -3.500000 -2.214214 11.300000
      vertex 3.500000 -2.214214 11.300000
    endloop
  endfacet
  facet normal 0.000000 -0.707107 0.707107
    outer loop
      vertex 3.500000 -1.875000 11.639214
      vertex -3.500000 -1.875000 11.639214
      vertex 3.500000 -2.214214 11.300000
    endloop
  endfacet
  facet normal 0.000000 0.000000 1.000000
    outer loop
      vertex 3.500000 -2.785786 11.300000
      vertex 3.500000 -2.214214 11.300000
      vertex -3.500000 -2.214214 11.300000
    endloop
  endfacet
  facet normal 0.000000 0.000000 1.000000
    outer loop
      vertex -3.500000 -2.785786 11.300000
      vertex 3.500000 -2.785786 11.300000
      vertex -3.500000 -2.214214 11.300000
    endloop
  endfacet
  facet normal 0.000000 0.707107 0.707107
    outer loop
      vertex -3.500000 -0.625000 11.639214
      vertex 3.500000 -0.625000 11.639214
      vertex -3.500000 -0.285786 11.300000
    endloop
  endfacet
  facet normal 0.000000 0.707107 0.707107
    outer loop
      vertex -3.500000 -0.285786 11.300000
      vertex 3.500000 -0.625000 11.639214
      vertex 3.500000 -0.285786 11.300000
    endloop
  endfacet
  facet normal 0.000000 -0.707107 0.707107
    outer loop
      vertex -3.500000 0.625000 11.639214
      vertex -3.500000 0.285786 11.300000
      vertex 3.500000 0.285786 11.300000
    endloop
  endfacet
  facet normal 0.000000 -0.707107 0.707107
    outer loop
      vertex 3.500000 0.625000 11.639214
      vertex -3.500000 0.625000 11.639214
      vertex 3.500000 0.285786 11.300000
    endloop
  endfacet
  facet normal 0.000000 -0.000000 1.000000
    outer loop
      vertex 3.500000 -0.285786 11.300000
      vertex 3.500000 0.285786 11.300000
      vertex -3.500000 0.285786 11.300000
    endloop
  endfacet
  facet normal 0.000000 -0.000000 1.000000
    outer loop
      vertex -3.500000 -0.285786 11.300000
      vertex 3.500000 -0.285786 11.300000
      vertex -3.500000 0.285786 11.300000
    endloop
  endfacet
  facet normal 0.000000 0.707107 0.707107
    outer loop
      vertex -3.500000 1.875000 11.639214
      vertex 3.500000 1.875000 11.639214
      vertex -3.500000 2.214214 11.300000
    endloop
  endfacet
  facet normal 0.000000 0.707107 0.707107
    outer loop
      vertex -3.500000 2.214214 11.300000
      vertex 3.500000 1.875000 11.639214
      vertex 3.500000 2.214214 11.300000
    endloop
  endfacet
  facet normal 0.000000 -0.707107 0.707107
    outer loop
      vertex -3.500000 3.125000 11.639214
      vertex -3.500000 2.785786 11.300000
      vertex 3.500000 2.785786 11.300000
    endloop
  endfacet
  facet normal 0.000000 -0.707107 0.707107
    outer loop
      vertex 3.500000 3.125000 11.639214
      vertex -3.500000 3.125000 11.639214
      vertex 3.500000 2.785786 11.300000
    endloop
  endfacet
  facet normal 0.000000 0.000000 1.000000
    outer loop
      vertex 3.500000 2.214214 11.300000
      vertex 3.500000 2.785786 11.300000
      vertex -3.500000 2.785786 11.300000
    endloop
  endfacet
  facet normal 0.000000 0.000000 1.000000
    outer loop
      vertex -3.500000 2.214214 11.300000
      vertex 3.500000 2.214214 11.300000
      vertex -3.500000 2.785786 11.300000
    endloop
  endfacet
endsolid OpenSCAD_Model
