solid OpenSCAD_Model
  facet normal -0.000000 -0.000000 -1.000000
    outer loop
      vertex -35.600000 -7.800000 -5.000000
      vertex -35.600000 -3.800000 -5.000000
      vertex 15.500000 -7.800000 -5.000000
    endloop
  endfacet
  facet normal 0.000000 0.000000 -1.000000
    outer loop
      vertex 15.500000 -7.800000 -5.000000
      vertex -35.600000 -3.800000 -5.000000
      vertex -6.710170 -3.800000 -5.000000
    endloop
  endfacet
  facet normal 0.000000 0.000000 -1.000000
    outer loop
      vertex -2.250000 -3.897114 -5.000000
      vertex -6.710170 -3.800000 -5.000000
      vertex -7.418241 -2.410333 -5.000000
    endloop
  endfacet
  facet normal 0.000000 0.000000 -1.000000
    outer loop
      vertex -4.228617 -1.539091 -5.000000
      vertex -7.418241 -2.410333 -5.000000
      vertex -7.800000 0.000000 -5.000000
    endloop
  endfacet
  facet normal 0.000000 0.000000 -1.000000
    outer loop
      vertex -4.500000 0.000000 -5.000000
      vertex -7.800000 0.000000 -5.000000
      vertex -7.418241 2.410333 -5.000000
    endloop
  endfacet
  facet normal 0.000000 0.000000 -1.000000
    outer loop
      vertex -3.447200 2.892544 -5.000000
      vertex -7.418241 2.410333 -5.000000
      vertex -6.310333 4.584725 -5.000000
    endloop
  endfacet
  facet normal 0.000000 0.000000 -1.000000
    outer loop
      vertex -2.250000 3.897114 -5.000000
      vertex -6.310333 4.584725 -5.000000
      vertex -4.584725 6.310333 -5.000000
    endloop
  endfacet
  facet normal 0.000000 0.000000 -1.000000
    outer loop
      vertex 0.781417 4.431635 -5.000000
      vertex -4.584725 6.310333 -5.000000
      vertex -2.410333 7.418241 -5.000000
    endloop
  endfacet
  facet normal 0.000000 0.000000 -1.000000
    outer loop
      vertex 2.250000 3.897114 -5.000000
      vertex -2.410333 7.418241 -5.000000
      vertex 0.000000 7.800000 -5.000000
    endloop
  endfacet
  facet normal 0.000000 0.000000 -1.000000
    outer loop
      vertex 15.500000 3.750000 -5.000000
      vertex 0.000000 7.800000 -5.000000
      vertex 15.500000 7.800000 -5.000000
    endloop
  endfacet
  facet normal -0.000000 -0.000000 -1.000000
    outer loop
      vertex 0.781417 4.431635 -5.000000
      vertex -2.410333 7.418241 -5.000000
      vertex 2.250000 3.897114 -5.000000
    endloop
  endfacet
  facet normal 0.000000 0.000000 -1.000000
    outer loop
      vertex 2.425324 3.750000 -5.000000
      vertex 2.250000 3.897114 -5.000000
      vertex 0.000000 7.800000 -5.000000
    endloop
  endfacet
  facet normal -0.000000 -0.000000 -1.000000
    outer loop
      vertex -0.781417 4.431635 -5.000000
      vertex -4.584725 6.310333 -5.000000
      vertex 0.781417 4.431635 -5.000000
    endloop
  endfacet
  facet normal 0.000000 -0.000000 -1.000000
    outer loop
      vertex -2.250000 3.897114 -5.000000
      vertex -4.584725 6.310333 -5.000000
      vertex -0.781417 4.431635 -5.000000
    endloop
  endfacet
  facet normal 0.000000 -0.000000 -1.000000
    outer loop
      vertex -3.447200 2.892544 -5.000000
      vertex -6.310333 4.584725 -5.000000
      vertex -2.250000 3.897114 -5.000000
    endloop
  endfacet
  facet normal 0.000000 -0.000000 -1.000000
    outer loop
      vertex -4.228617 1.539091 -5.000000
      vertex -7.418241 2.410333 -5.000000
      vertex -3.447200 2.892544 -5.000000
    endloop
  endfacet
  facet normal 0.000000 -0.000000 -1.000000
    outer loop
      vertex -4.500000 0.000000 -5.000000
      vertex -7.418241 2.410333 -5.000000
      vertex -4.228617 1.539091 -5.000000
    endloop
  endfacet
  facet normal 0.000000 0.000000 -1.000000
    outer loop
      vertex -4.228617 -1.539091 -5.000000
      vertex -7.800000 0.000000 -5.000000
      vertex -4.500000 0.000000 -5.000000
    endloop
  endfacet
  facet normal 0.000000 0.000000 -1.000000
    outer loop
      vertex -3.447200 -2.892544 -5.000000
      vertex -7.418241 -2.410333 -5.000000
      vertex -4.228617 -1.539091 -5.000000
    endloop
  endfacet
  facet normal 0.000000 0.000000 -1.000000
    outer loop
      vertex -2.250000 -3.897114 -5.000000
      vertex -7.418241 -2.410333 -5.000000
      vertex -3.447200 -2.892544 -5.000000
    endloop
  endfacet
  facet normal 0.000000 0.000000 -1.000000
    outer loop
      vertex -0.781417 -4.431635 -5.000000
      vertex -6.710170 -3.800000 -5.000000
      vertex -2.250000 -3.897114 -5.000000
    endloop
  endfacet
  facet normal 0.000000 0.000000 -1.000000
    outer loop
      vertex 0.781417 -4.431635 -5.000000
      vertex 15.500000 -7.800000 -5.000000
      vertex -0.781417 -4.431635 -5.000000
    endloop
  endfacet
  facet normal 0.000000 0.000000 -1.000000
    outer loop
      vertex 15.500000 -7.800000 -5.000000
      vertex -6.710170 -3.800000 -5.000000
      vertex -0.781417 -4.431635 -5.000000
    endloop
  endfacet
  facet normal 0.000000 0.000000 -1.000000
    outer loop
      vertex 2.250000 -3.897114 -5.000000
      vertex 15.500000 -7.800000 -5.000000
      vertex 0.781417 -4.431635 -5.000000
    endloop
  endfacet
  facet normal 0.000000 0.000000 -1.000000
    outer loop
      vertex 15.500000 -3.750000 -5.000000
      vertex 15.500000 -7.800000 -5.000000
      vertex 2.425324 -3.750000 -5.000000
    endloop
  endfacet
  facet normal 0.000000 0.000000 -1.000000
    outer loop
      vertex 15.500000 -7.800000 -5.000000
      vertex 2.250000 -3.897114 -5.000000
      vertex 2.425324 -3.750000 -5.000000
    endloop
  endfacet
  facet normal -0.000000 -0.000000 -1.000000
    outer loop
      vertex 2.425324 3.750000 -5.000000
      vertex 0.000000 7.800000 -5.000000
      vertex 15.500000 3.750000 -5.000000
    endloop
  endfacet
  facet normal -1.000000 0.000000 0.000000
    outer loop
      vertex -35.600000 -3.800000 5.000000
      vertex -35.600000 -3.800000 -5.000000
      vertex -35.600000 -7.800000 5.000000
    endloop
  endfacet
  facet normal -1.000000 0.000000 0.000000
    outer loop
      vertex -35.600000 -7.800000 5.000000
      vertex -35.600000 -3.800000 -5.000000
      vertex -35.600000 -7.800000 -5.000000
    endloop
  endfacet
  facet normal 0.000000 -1.000000 0.000000
    outer loop
      vertex -31.898278 -7.800000 -1.236373
      vertex -35.600000 -7.800000 -5.000000
      vertex 15.500000 -7.800000 -5.000000
    endloop
  endfacet
  facet normal 0.000000 -1.000000 0.000000
    outer loop
      vertex 8.520163 -7.800000 -2.092324
      vertex -35.600000 -7.800000 5.000000
      vertex 15.500000 -7.800000 -5.000000
    endloop
  endfacet
  facet normal 0.000000 -1.000000 0.000000
    outer loop
      vertex -35.600000 -7.800000 5.000000
      vertex -35.600000 -7.800000 -5.000000
      vertex -33.351722 -7.800000 -0.764121
    endloop
  endfacet
  facet normal 0.000000 -1.000000 0.000000
    outer loop
      vertex -23.201722 -7.800000 -1.236373
      vertex -31.000000 -7.800000 0.000000
      vertex -31.248278 -7.800000 -0.764121
    endloop
  endfacet
  facet normal 0.000000 -1.000000 0.000000
    outer loop
      vertex -35.600000 -7.800000 5.000000
      vertex -33.351722 -7.800000 -0.764121
      vertex -33.600000 -7.800000 0.000000
    endloop
  endfacet
  facet normal 0.000000 -1.000000 0.000000
    outer loop
      vertex -23.201722 -7.800000 -1.236373
      vertex -23.851722 -7.800000 -0.764121
      vertex -31.000000 -7.800000 0.000000
    endloop
  endfacet
  facet normal 0.000000 -1.000000 0.000000
    outer loop
      vertex -35.600000 -7.800000 5.000000
      vertex -33.600000 -7.800000 0.000000
      vertex -33.351722 -7.800000 0.764121
    endloop
  endfacet
  facet normal 0.000000 -1.000000 -0.000000
    outer loop
      vertex -24.100000 -7.800000 0.000000
      vertex -23.851722 -7.800000 0.764121
      vertex -31.898278 -7.800000 1.236373
    endloop
  endfacet
  facet normal 0.000000 -1.000000 0.000000
    outer loop
      vertex -35.600000 -7.800000 5.000000
      vertex -33.351722 -7.800000 0.764121
      vertex -32.701722 -7.800000 1.236373
    endloop
  endfacet
  facet normal 0.000000 -1.000000 0.000000
    outer loop
      vertex -22.398278 -7.800000 1.236373
      vertex -21.748278 -7.800000 0.764121
      vertex 15.500000 -7.800000 -5.000000
    endloop
  endfacet
  facet normal 0.000000 -1.000000 0.000000
    outer loop
      vertex -35.600000 -7.800000 5.000000
      vertex -32.701722 -7.800000 1.236373
      vertex -31.898278 -7.800000 1.236373
    endloop
  endfacet
  facet normal 0.000000 -1.000000 0.000000
    outer loop
      vertex -21.748278 -7.800000 -0.764121
      vertex -22.398278 -7.800000 -1.236373
      vertex 15.500000 -7.800000 -5.000000
    endloop
  endfacet
  facet normal 0.000000 -1.000000 0.000000
    outer loop
      vertex -23.201722 -7.800000 -1.236373
      vertex -31.248278 -7.800000 -0.764121
      vertex 15.500000 -7.800000 -5.000000
    endloop
  endfacet
  facet normal 0.000000 -1.000000 0.000000
    outer loop
      vertex -32.701722 -7.800000 -1.236373
      vertex -35.600000 -7.800000 -5.000000
      vertex -31.898278 -7.800000 -1.236373
    endloop
  endfacet
  facet normal 0.000000 -1.000000 0.000000
    outer loop
      vertex -33.351722 -7.800000 -0.764121
      vertex -35.600000 -7.800000 -5.000000
      vertex -32.701722 -7.800000 -1.236373
    endloop
  endfacet
  facet normal -0.000000 -1.000000 0.000000
    outer loop
      vertex 8.520163 -7.800000 2.092324
      vertex 9.879837 -7.800000 2.092324
      vertex 15.500000 -7.800000 5.000000
    endloop
  endfacet
  facet normal 0.000000 -1.000000 0.000000
    outer loop
      vertex -21.500000 -7.800000 0.000000
      vertex -21.748278 -7.800000 -0.764121
      vertex 15.500000 -7.800000 -5.000000
    endloop
  endfacet
  facet normal 0.000000 -1.000000 0.000000
    outer loop
      vertex -35.600000 -7.800000 5.000000
      vertex -31.898278 -7.800000 1.236373
      vertex -23.851722 -7.800000 0.764121
    endloop
  endfacet
  facet normal 0.000000 -1.000000 0.000000
    outer loop
      vertex -21.748278 -7.800000 0.764121
      vertex -21.500000 -7.800000 0.000000
      vertex 15.500000 -7.800000 -5.000000
    endloop
  endfacet
  facet normal 0.000000 -1.000000 0.000000
    outer loop
      vertex -35.600000 -7.800000 5.000000
      vertex -23.851722 -7.800000 0.764121
      vertex -23.201722 -7.800000 1.236373
    endloop
  endfacet
  facet normal 0.000000 -1.000000 0.000000
    outer loop
      vertex -35.600000 -7.800000 5.000000
      vertex -22.398278 -7.800000 1.236373
      vertex 15.500000 -7.800000 -5.000000
    endloop
  endfacet
  facet normal 0.000000 -1.000000 0.000000
    outer loop
      vertex -35.600000 -7.800000 5.000000
      vertex -23.201722 -7.800000 1.236373
      vertex -22.398278 -7.800000 1.236373
    endloop
  endfacet
  facet normal 0.000000 -1.000000 0.000000
    outer loop
      vertex -23.851722 -7.800000 -0.764121
      vertex -24.100000 -7.800000 0.000000
      vertex -31.248278 -7.800000 0.764121
    endloop
  endfacet
  facet normal 0.000000 -1.000000 0.000000
    outer loop
      vertex -31.248278 -7.800000 -0.764121
      vertex -31.898278 -7.800000 -1.236373
      vertex 15.500000 -7.800000 -5.000000
    endloop
  endfacet
  facet normal 0.000000 -1.000000 0.000000
    outer loop
      vertex -22.398278 -7.800000 -1.236373
      vertex -23.201722 -7.800000 -1.236373
      vertex 15.500000 -7.800000 -5.000000
    endloop
  endfacet
  facet normal 0.000000 -1.000000 0.000000
    outer loop
      vertex 7.000000 -7.800000 0.000000
      vertex -35.600000 -7.800000 5.000000
      vertex 7.420163 -7.800000 -1.293128
    endloop
  endfacet
  facet normal 0.000000 -1.000000 0.000000
    outer loop
      vertex 9.879837 -7.800000 -2.092324
      vertex 8.520163 -7.800000 -2.092324
      vertex 15.500000 -7.800000 -5.000000
    endloop
  endfacet
  facet normal 0.000000 -1.000000 0.000000
    outer loop
      vertex 7.420163 -7.800000 1.293128
      vertex -35.600000 -7.800000 5.000000
      vertex 7.000000 -7.800000 0.000000
    endloop
  endfacet
  facet normal 0.000000 -1.000000 0.000000
    outer loop
      vertex 8.520163 -7.800000 2.092324
      vertex -35.600000 -7.800000 5.000000
      vertex 7.420163 -7.800000 1.293128
    endloop
  endfacet
  facet normal 0.000000 -1.000000 0.000000
    outer loop
      vertex 15.500000 -7.800000 5.000000
      vertex -35.600000 -7.800000 5.000000
      vertex 8.520163 -7.800000 2.092324
    endloop
  endfacet
  facet normal 0.000000 -1.000000 0.000000
    outer loop
      vertex 15.500000 -7.800000 5.000000
      vertex 10.979837 -7.800000 1.293128
      vertex 15.500000 -7.800000 -5.000000
    endloop
  endfacet
  facet normal 0.000000 -1.000000 0.000000
    outer loop
      vertex 10.979837 -7.800000 1.293128
      vertex 11.400000 -7.800000 0.000000
      vertex 15.500000 -7.800000 -5.000000
    endloop
  endfacet
  facet normal 0.000000 -1.000000 0.000000
    outer loop
      vertex 11.400000 -7.800000 0.000000
      vertex 10.979837 -7.800000 -1.293128
      vertex 15.500000 -7.800000 -5.000000
    endloop
  endfacet
  facet normal 0.000000 -1.000000 0.000000
    outer loop
      vertex 10.979837 -7.800000 -1.293128
      vertex 9.879837 -7.800000 -2.092324
      vertex 15.500000 -7.800000 -5.000000
    endloop
  endfacet
  facet normal 0.000000 -1.000000 0.000000
    outer loop
      vertex 7.420163 -7.800000 -1.293128
      vertex -35.600000 -7.800000 5.000000
      vertex 8.520163 -7.800000 -2.092324
    endloop
  endfacet
  facet normal -0.000000 -1.000000 0.000000
    outer loop
      vertex 9.879837 -7.800000 2.092324
      vertex 10.979837 -7.800000 1.293128
      vertex 15.500000 -7.800000 5.000000
    endloop
  endfacet
  facet normal 0.000000 -1.000000 0.000000
    outer loop
      vertex -31.898278 -7.800000 1.236373
      vertex -31.248278 -7.800000 0.764121
      vertex -24.100000 -7.800000 0.000000
    endloop
  endfacet
  facet normal 0.000000 -1.000000 0.000000
    outer loop
      vertex -31.248278 -7.800000 0.764121
      vertex -31.000000 -7.800000 0.000000
      vertex -23.851722 -7.800000 -0.764121
    endloop
  endfacet
  facet normal 1.000000 0.000000 -0.000000
    outer loop
      vertex 15.500000 -7.800000 5.000000
      vertex 15.500000 -7.800000 -5.000000
      vertex 15.500000 -3.750000 -5.000000
    endloop
  endfacet
  facet normal 1.000000 0.000000 0.000000
    outer loop
      vertex 15.500000 -3.750000 5.000000
      vertex 15.500000 -7.800000 5.000000
      vertex 15.500000 -3.750000 -5.000000
    endloop
  endfacet
  facet normal 0.000000 1.000000 -0.000000
    outer loop
      vertex 8.520163 -3.750000 -2.092324
      vertex 15.500000 -3.750000 -5.000000
      vertex 2.425324 -3.750000 -5.000000
    endloop
  endfacet
  facet normal 0.000000 1.000000 -0.000000
    outer loop
      vertex 10.979837 -3.750000 -1.293128
      vertex 15.500000 -3.750000 -5.000000
      vertex 9.879837 -3.750000 -2.092324
    endloop
  endfacet
  facet normal 0.000000 1.000000 -0.000000
    outer loop
      vertex 2.425324 -3.750000 5.000000
      vertex 7.420163 -3.750000 -1.293128
      vertex 2.425324 -3.750000 -5.000000
    endloop
  endfacet
  facet normal 0.000000 1.000000 -0.000000
    outer loop
      vertex 7.420163 -3.750000 -1.293128
      vertex 8.520163 -3.750000 -2.092324
      vertex 2.425324 -3.750000 -5.000000
    endloop
  endfacet
  facet normal 0.000000 1.000000 0.000000
    outer loop
      vertex 15.500000 -3.750000 5.000000
      vertex 15.500000 -3.750000 -5.000000
      vertex 10.979837 -3.750000 -1.293128
    endloop
  endfacet
  facet normal 0.000000 1.000000 0.000000
    outer loop
      vertex 15.500000 -3.750000 5.000000
      vertex 10.979837 -3.750000 -1.293128
      vertex 11.400000 -3.750000 0.000000
    endloop
  endfacet
  facet normal 0.000000 1.000000 0.000000
    outer loop
      vertex 15.500000 -3.750000 5.000000
      vertex 11.400000 -3.750000 0.000000
      vertex 10.979837 -3.750000 1.293128
    endloop
  endfacet
  facet normal 0.000000 1.000000 0.000000
    outer loop
      vertex 15.500000 -3.750000 5.000000
      vertex 10.979837 -3.750000 1.293128
      vertex 9.879837 -3.750000 2.092324
    endloop
  endfacet
  facet normal 0.000000 1.000000 0.000000
    outer loop
      vertex 15.500000 -3.750000 5.000000
      vertex 9.879837 -3.750000 2.092324
      vertex 2.425324 -3.750000 5.000000
    endloop
  endfacet
  facet normal 0.000000 1.000000 0.000000
    outer loop
      vertex 7.420163 -3.750000 1.293128
      vertex 2.425324 -3.750000 5.000000
      vertex 8.520163 -3.750000 2.092324
    endloop
  endfacet
  facet normal 0.000000 1.000000 0.000000
    outer loop
      vertex 8.520163 -3.750000 2.092324
      vertex 2.425324 -3.750000 5.000000
      vertex 9.879837 -3.750000 2.092324
    endloop
  endfacet
  facet normal 0.000000 1.000000 0.000000
    outer loop
      vertex 7.000000 -3.750000 0.000000
      vertex 2.425324 -3.750000 5.000000
      vertex 7.420163 -3.750000 1.293128
    endloop
  endfacet
  facet normal 0.000000 1.000000 0.000000
    outer loop
      vertex 2.425324 -3.750000 5.000000
      vertex 7.000000 -3.750000 0.000000
      vertex 7.420163 -3.750000 -1.293128
    endloop
  endfacet
  facet normal 0.000000 1.000000 -0.000000
    outer loop
      vertex 9.879837 -3.750000 -2.092324
      vertex 15.500000 -3.750000 -5.000000
      vertex 8.520163 -3.750000 -2.092324
    endloop
  endfacet
  facet normal -0.642788 0.766044 0.000000
    outer loop
      vertex 2.425324 -3.750000 5.000000
      vertex 2.425324 -3.750000 -5.000000
      vertex 2.250000 -3.897114 5.000000
    endloop
  endfacet
  facet normal -0.642788 0.766044 0.000000
    outer loop
      vertex 2.250000 -3.897114 5.000000
      vertex 2.425324 -3.750000 -5.000000
      vertex 2.250000 -3.897114 -5.000000
    endloop
  endfacet
  facet normal -0.342020 0.939693 0.000000
    outer loop
      vertex 2.250000 -3.897114 5.000000
      vertex 2.250000 -3.897114 -5.000000
      vertex 0.781417 -4.431635 5.000000
    endloop
  endfacet
  facet normal -0.342020 0.939693 0.000000
    outer loop
      vertex 0.781417 -4.431635 5.000000
      vertex 2.250000 -3.897114 -5.000000
      vertex 0.781417 -4.431635 -5.000000
    endloop
  endfacet
  facet normal 0.000000 1.000000 0.000000
    outer loop
      vertex 0.781417 -4.431635 5.000000
      vertex 0.781417 -4.431635 -5.000000
      vertex -0.781417 -4.431635 5.000000
    endloop
  endfacet
  facet normal 0.000000 1.000000 -0.000000
    outer loop
      vertex -0.781417 -4.431635 5.000000
      vertex 0.781417 -4.431635 -5.000000
      vertex -0.781417 -4.431635 -5.000000
    endloop
  endfacet
  facet normal 0.342020 0.939693 -0.000000
    outer loop
      vertex -0.781417 -4.431635 5.000000
      vertex -0.781417 -4.431635 -5.000000
      vertex -2.250000 -3.897114 5.000000
    endloop
  endfacet
  facet normal 0.342020 0.939693 -0.000000
    outer loop
      vertex -2.250000 -3.897114 5.000000
      vertex -0.781417 -4.431635 -5.000000
      vertex -2.250000 -3.897114 -5.000000
    endloop
  endfacet
  facet normal 0.642788 0.766044 -0.000000
    outer loop
      vertex -2.250000 -3.897114 5.000000
      vertex -2.250000 -3.897114 -5.000000
      vertex -3.447200 -2.892544 5.000000
    endloop
  endfacet
  facet normal 0.642788 0.766044 -0.000000
    outer loop
      vertex -3.447200 -2.892544 5.000000
      vertex -2.250000 -3.897114 -5.000000
      vertex -3.447200 -2.892544 -5.000000
    endloop
  endfacet
  facet normal 0.866025 0.500000 0.000000
    outer loop
      vertex -4.228617 -1.539091 5.000000
      vertex -3.447200 -2.892544 5.000000
      vertex -3.447200 -2.892544 -5.000000
    endloop
  endfacet
  facet normal 0.866025 0.500000 0.000000
    outer loop
      vertex -4.228617 -1.539091 -5.000000
      vertex -4.228617 -1.539091 5.000000
      vertex -3.447200 -2.892544 -5.000000
    endloop
  endfacet
  facet normal 0.984808 0.173648 0.000000
    outer loop
      vertex -4.500000 0.000000 5.000000
      vertex -4.228617 -1.539091 5.000000
      vertex -4.228617 -1.539091 -5.000000
    endloop
  endfacet
  facet normal 0.984808 0.173648 0.000000
    outer loop
      vertex -4.500000 0.000000 -5.000000
      vertex -4.500000 0.000000 5.000000
      vertex -4.228617 -1.539091 -5.000000
    endloop
  endfacet
  facet normal 0.984808 -0.173648 0.000000
    outer loop
      vertex -4.228617 1.539091 -5.000000
      vertex -4.228617 1.539091 5.000000
      vertex -4.500000 0.000000 5.000000
    endloop
  endfacet
  facet normal 0.984808 -0.173648 0.000000
    outer loop
      vertex -4.500000 0.000000 -5.000000
      vertex -4.228617 1.539091 -5.000000
      vertex -4.500000 0.000000 5.000000
    endloop
  endfacet
  facet normal 0.866025 -0.500000 0.000000
    outer loop
      vertex -3.447200 2.892544 -5.000000
      vertex -3.447200 2.892544 5.000000
      vertex -4.228617 1.539091 5.000000
    endloop
  endfacet
  facet normal 0.866025 -0.500000 0.000000
    outer loop
      vertex -4.228617 1.539091 -5.000000
      vertex -3.447200 2.892544 -5.000000
      vertex -4.228617 1.539091 5.000000
    endloop
  endfacet
  facet normal 0.642788 -0.766044 0.000000
    outer loop
      vertex -2.250000 3.897114 -5.000000
      vertex -2.250000 3.897114 5.000000
      vertex -3.447200 2.892544 5.000000
    endloop
  endfacet
  facet normal 0.642788 -0.766044 0.000000
    outer loop
      vertex -3.447200 2.892544 -5.000000
      vertex -2.250000 3.897114 -5.000000
      vertex -3.447200 2.892544 5.000000
    endloop
  endfacet
  facet normal 0.342020 -0.939693 0.000000
    outer loop
      vertex -0.781417 4.431635 -5.000000
      vertex -0.781417 4.431635 5.000000
      vertex -2.250000 3.897114 5.000000
    endloop
  endfacet
  facet normal 0.342020 -0.939693 0.000000
    outer loop
      vertex -2.250000 3.897114 -5.000000
      vertex -0.781417 4.431635 -5.000000
      vertex -2.250000 3.897114 5.000000
    endloop
  endfacet
  facet normal 0.000000 -1.000000 0.000000
    outer loop
      vertex 0.781417 4.431635 -5.000000
      vertex 0.781417 4.431635 5.000000
      vertex -0.781417 4.431635 5.000000
    endloop
  endfacet
  facet normal -0.000000 -1.000000 -0.000000
    outer loop
      vertex -0.781417 4.431635 -5.000000
      vertex 0.781417 4.431635 -5.000000
      vertex -0.781417 4.431635 5.000000
    endloop
  endfacet
  facet normal -0.342020 -0.939693 -0.000000
    outer loop
      vertex 2.250000 3.897114 -5.000000
      vertex 2.250000 3.897114 5.000000
      vertex 0.781417 4.431635 5.000000
    endloop
  endfacet
  facet normal -0.342020 -0.939693 -0.000000
    outer loop
      vertex 0.781417 4.431635 -5.000000
      vertex 2.250000 3.897114 -5.000000
      vertex 0.781417 4.431635 5.000000
    endloop
  endfacet
  facet normal -0.642788 -0.766044 -0.000000
    outer loop
      vertex 2.425324 3.750000 -5.000000
      vertex 2.425324 3.750000 5.000000
      vertex 2.250000 3.897114 5.000000
    endloop
  endfacet
  facet normal -0.642788 -0.766044 -0.000000
    outer loop
      vertex 2.250000 3.897114 -5.000000
      vertex 2.425324 3.750000 -5.000000
      vertex 2.250000 3.897114 5.000000
    endloop
  endfacet
  facet normal 0.000000 -1.000000 -0.000000
    outer loop
      vertex 8.520163 3.750000 2.092324
      vertex 15.500000 3.750000 5.000000
      vertex 2.425324 3.750000 5.000000
    endloop
  endfacet
  facet normal -0.000000 -1.000000 0.000000
    outer loop
      vertex 8.520163 3.750000 2.092324
      vertex 9.879837 3.750000 2.092324
      vertex 15.500000 3.750000 5.000000
    endloop
  endfacet
  facet normal 0.000000 -1.000000 -0.000000
    outer loop
      vertex 2.425324 3.750000 -5.000000
      vertex 7.000000 3.750000 0.000000
      vertex 2.425324 3.750000 5.000000
    endloop
  endfacet
  facet normal 0.000000 -1.000000 -0.000000
    outer loop
      vertex 7.420163 3.750000 1.293128
      vertex 8.520163 3.750000 2.092324
      vertex 2.425324 3.750000 5.000000
    endloop
  endfacet
  facet normal 0.000000 -1.000000 0.000000
    outer loop
      vertex 10.979837 3.750000 1.293128
      vertex 11.400000 3.750000 0.000000
      vertex 15.500000 3.750000 -5.000000
    endloop
  endfacet
  facet normal 0.000000 -1.000000 -0.000000
    outer loop
      vertex 10.979837 3.750000 1.293128
      vertex 15.500000 3.750000 5.000000
      vertex 9.879837 3.750000 2.092324
    endloop
  endfacet
  facet normal 0.000000 -1.000000 0.000000
    outer loop
      vertex 15.500000 3.750000 -5.000000
      vertex 15.500000 3.750000 5.000000
      vertex 10.979837 3.750000 1.293128
    endloop
  endfacet
  facet normal 0.000000 -1.000000 0.000000
    outer loop
      vertex 15.500000 3.750000 -5.000000
      vertex 11.400000 3.750000 0.000000
      vertex 10.979837 3.750000 -1.293128
    endloop
  endfacet
  facet normal -0.000000 -1.000000 0.000000
    outer loop
      vertex 2.425324 3.750000 -5.000000
      vertex 15.500000 3.750000 -5.000000
      vertex 9.879837 3.750000 -2.092324
    endloop
  endfacet
  facet normal 0.000000 -1.000000 0.000000
    outer loop
      vertex 2.425324 3.750000 -5.000000
      vertex 9.879837 3.750000 -2.092324
      vertex 8.520163 3.750000 -2.092324
    endloop
  endfacet
  facet normal 0.000000 -1.000000 0.000000
    outer loop
      vertex 2.425324 3.750000 -5.000000
      vertex 7.420163 3.750000 -1.293128
      vertex 7.000000 3.750000 0.000000
    endloop
  endfacet
  facet normal 0.000000 -1.000000 0.000000
    outer loop
      vertex 2.425324 3.750000 -5.000000
      vertex 8.520163 3.750000 -2.092324
      vertex 7.420163 3.750000 -1.293128
    endloop
  endfacet
  facet normal 0.000000 -1.000000 -0.000000
    outer loop
      vertex 7.000000 3.750000 0.000000
      vertex 7.420163 3.750000 1.293128
      vertex 2.425324 3.750000 5.000000
    endloop
  endfacet
  facet normal 0.000000 -1.000000 0.000000
    outer loop
      vertex 10.979837 3.750000 -1.293128
      vertex 9.879837 3.750000 -2.092324
      vertex 15.500000 3.750000 -5.000000
    endloop
  endfacet
  facet normal 1.000000 0.000000 -0.000000
    outer loop
      vertex 15.500000 3.750000 5.000000
      vertex 15.500000 3.750000 -5.000000
      vertex 15.500000 7.800000 -5.000000
    endloop
  endfacet
  facet normal 1.000000 0.000000 0.000000
    outer loop
      vertex 15.500000 7.800000 5.000000
      vertex 15.500000 3.750000 5.000000
      vertex 15.500000 7.800000 -5.000000
    endloop
  endfacet
  facet normal 0.000000 1.000000 -0.000000
    outer loop
      vertex 9.879837 7.800000 -2.092324
      vertex 15.500000 7.800000 -5.000000
      vertex 8.520163 7.800000 -2.092324
    endloop
  endfacet
  facet normal 0.000000 1.000000 0.000000
    outer loop
      vertex 9.879837 7.800000 2.092324
      vertex 0.000000 7.800000 5.000000
      vertex 15.500000 7.800000 5.000000
    endloop
  endfacet
  facet normal 0.000000 1.000000 0.000000
    outer loop
      vertex 0.000000 7.800000 -5.000000
      vertex 0.000000 7.800000 5.000000
      vertex 7.000000 7.800000 0.000000
    endloop
  endfacet
  facet normal 0.000000 1.000000 0.000000
    outer loop
      vertex 0.000000 7.800000 -5.000000
      vertex 7.000000 7.800000 0.000000
      vertex 7.420163 7.800000 -1.293128
    endloop
  endfacet
  facet normal 0.000000 1.000000 0.000000
    outer loop
      vertex 0.000000 7.800000 -5.000000
      vertex 7.420163 7.800000 -1.293128
      vertex 8.520163 7.800000 -2.092324
    endloop
  endfacet
  facet normal 0.000000 1.000000 0.000000
    outer loop
      vertex 0.000000 7.800000 -5.000000
      vertex 8.520163 7.800000 -2.092324
      vertex 15.500000 7.800000 -5.000000
    endloop
  endfacet
  facet normal 0.000000 1.000000 -0.000000
    outer loop
      vertex 10.979837 7.800000 -1.293128
      vertex 15.500000 7.800000 -5.000000
      vertex 9.879837 7.800000 -2.092324
    endloop
  endfacet
  facet normal 0.000000 1.000000 0.000000
    outer loop
      vertex 15.500000 7.800000 -5.000000
      vertex 10.979837 7.800000 -1.293128
      vertex 15.500000 7.800000 5.000000
    endloop
  endfacet
  facet normal 0.000000 1.000000 0.000000
    outer loop
      vertex 10.979837 7.800000 -1.293128
      vertex 11.400000 7.800000 0.000000
      vertex 15.500000 7.800000 5.000000
    endloop
  endfacet
  facet normal 0.000000 1.000000 0.000000
    outer loop
      vertex 7.420163 7.800000 1.293128
      vertex 0.000000 7.800000 5.000000
      vertex 8.520163 7.800000 2.092324
    endloop
  endfacet
  facet normal 0.000000 1.000000 0.000000
    outer loop
      vertex 11.400000 7.800000 0.000000
      vertex 10.979837 7.800000 1.293128
      vertex 15.500000 7.800000 5.000000
    endloop
  endfacet
  facet normal 0.000000 1.000000 0.000000
    outer loop
      vertex 10.979837 7.800000 1.293128
      vertex 9.879837 7.800000 2.092324
      vertex 15.500000 7.800000 5.000000
    endloop
  endfacet
  facet normal 0.000000 1.000000 0.000000
    outer loop
      vertex 7.000000 7.800000 0.000000
      vertex 0.000000 7.800000 5.000000
      vertex 7.420163 7.800000 1.293128
    endloop
  endfacet
  facet normal 0.000000 1.000000 0.000000
    outer loop
      vertex 8.520163 7.800000 2.092324
      vertex 0.000000 7.800000 5.000000
      vertex 9.879837 7.800000 2.092324
    endloop
  endfacet
  facet normal -0.156434 0.987688 0.000000
    outer loop
      vertex -2.410333 7.418241 -5.000000
      vertex -2.410333 7.418241 5.000000
      vertex 0.000000 7.800000 -5.000000
    endloop
  endfacet
  facet normal -0.156434 0.987688 0.000000
    outer loop
      vertex 0.000000 7.800000 -5.000000
      vertex -2.410333 7.418241 5.000000
      vertex 0.000000 7.800000 5.000000
    endloop
  endfacet
  facet normal -0.453990 0.891007 0.000000
    outer loop
      vertex -4.584725 6.310333 -5.000000
      vertex -4.584725 6.310333 5.000000
      vertex -2.410333 7.418241 -5.000000
    endloop
  endfacet
  facet normal -0.453990 0.891007 0.000000
    outer loop
      vertex -2.410333 7.418241 -5.000000
      vertex -4.584725 6.310333 5.000000
      vertex -2.410333 7.418241 5.000000
    endloop
  endfacet
  facet normal -0.707107 0.707107 0.000000
    outer loop
      vertex -6.310333 4.584725 -5.000000
      vertex -6.310333 4.584725 5.000000
      vertex -4.584725 6.310333 -5.000000
    endloop
  endfacet
  facet normal -0.707107 0.707107 0.000000
    outer loop
      vertex -4.584725 6.310333 -5.000000
      vertex -6.310333 4.584725 5.000000
      vertex -4.584725 6.310333 5.000000
    endloop
  endfacet
  facet normal -0.891007 0.453990 0.000000
    outer loop
      vertex -7.418241 2.410333 -5.000000
      vertex -7.418241 2.410333 5.000000
      vertex -6.310333 4.584725 -5.000000
    endloop
  endfacet
  facet normal -0.891007 0.453990 0.000000
    outer loop
      vertex -6.310333 4.584725 -5.000000
      vertex -7.418241 2.410333 5.000000
      vertex -6.310333 4.584725 5.000000
    endloop
  endfacet
  facet normal -0.987688 0.156434 0.000000
    outer loop
      vertex -7.800000 0.000000 -5.000000
      vertex -7.800000 0.000000 5.000000
      vertex -7.418241 2.410333 -5.000000
    endloop
  endfacet
  facet normal -0.987688 0.156434 0.000000
    outer loop
      vertex -7.418241 2.410333 -5.000000
      vertex -7.800000 0.000000 5.000000
      vertex -7.418241 2.410333 5.000000
    endloop
  endfacet
  facet normal -0.987688 -0.156434 -0.000000
    outer loop
      vertex -7.800000 0.000000 -5.000000
      vertex -7.418241 -2.410333 -5.000000
      vertex -7.800000 0.000000 5.000000
    endloop
  endfacet
  facet normal -0.987688 -0.156434 0.000000
    outer loop
      vertex -7.800000 0.000000 5.000000
      vertex -7.418241 -2.410333 -5.000000
      vertex -7.418241 -2.410333 5.000000
    endloop
  endfacet
  facet normal -0.891007 -0.453990 -0.000000
    outer loop
      vertex -7.418241 -2.410333 -5.000000
      vertex -6.710170 -3.800000 -5.000000
      vertex -7.418241 -2.410333 5.000000
    endloop
  endfacet
  facet normal -0.891007 -0.453990 0.000000
    outer loop
      vertex -7.418241 -2.410333 5.000000
      vertex -6.710170 -3.800000 -5.000000
      vertex -6.710170 -3.800000 5.000000
    endloop
  endfacet
  facet normal 0.000000 1.000000 0.000000
    outer loop
      vertex -22.398278 -3.800000 1.236373
      vertex -35.600000 -3.800000 5.000000
      vertex -6.710170 -3.800000 5.000000
    endloop
  endfacet
  facet normal 0.000000 1.000000 0.000000
    outer loop
      vertex -35.600000 -3.800000 -5.000000
      vertex -35.600000 -3.800000 5.000000
      vertex -33.600000 -3.800000 0.000000
    endloop
  endfacet
  facet normal 0.000000 1.000000 0.000000
    outer loop
      vertex -35.600000 -3.800000 -5.000000
      vertex -33.600000 -3.800000 0.000000
      vertex -33.351722 -3.800000 -0.764121
    endloop
  endfacet
  facet normal 0.000000 1.000000 0.000000
    outer loop
      vertex -35.600000 -3.800000 -5.000000
      vertex -33.351722 -3.800000 -0.764121
      vertex -32.701722 -3.800000 -1.236373
    endloop
  endfacet
  facet normal 0.000000 1.000000 0.000000
    outer loop
      vertex -35.600000 -3.800000 -5.000000
      vertex -32.701722 -3.800000 -1.236373
      vertex -6.710170 -3.800000 -5.000000
    endloop
  endfacet
  facet normal 0.000000 1.000000 0.000000
    outer loop
      vertex -32.701722 -3.800000 -1.236373
      vertex -31.898278 -3.800000 -1.236373
      vertex -6.710170 -3.800000 -5.000000
    endloop
  endfacet
  facet normal 0.000000 1.000000 -0.000000
    outer loop
      vertex -31.000000 -3.800000 0.000000
      vertex -6.710170 -3.800000 -5.000000
      vertex -31.248278 -3.800000 -0.764121
    endloop
  endfacet
  facet normal 0.000000 1.000000 0.000000
    outer loop
      vertex -23.201722 -3.800000 -1.236373
      vertex -31.248278 -3.800000 0.764121
      vertex -23.851722 -3.800000 -0.764121
    endloop
  endfacet
  facet normal 0.000000 1.000000 0.000000
    outer loop
      vertex -32.701722 -3.800000 1.236373
      vertex -35.600000 -3.800000 5.000000
      vertex -31.898278 -3.800000 1.236373
    endloop
  endfacet
  facet normal 0.000000 1.000000 0.000000
    outer loop
      vertex -31.898278 -3.800000 1.236373
      vertex -35.600000 -3.800000 5.000000
      vertex -31.248278 -3.800000 0.764121
    endloop
  endfacet
  facet normal 0.000000 1.000000 -0.000000
    outer loop
      vertex -21.748278 -3.800000 -0.764121
      vertex -6.710170 -3.800000 -5.000000
      vertex -22.398278 -3.800000 -1.236373
    endloop
  endfacet
  facet normal 0.000000 1.000000 -0.000000
    outer loop
      vertex -22.398278 -3.800000 -1.236373
      vertex -6.710170 -3.800000 -5.000000
      vertex -23.201722 -3.800000 -1.236373
    endloop
  endfacet
  facet normal 0.000000 1.000000 0.000000
    outer loop
      vertex -33.351722 -3.800000 0.764121
      vertex -35.600000 -3.800000 5.000000
      vertex -32.701722 -3.800000 1.236373
    endloop
  endfacet
  facet normal 0.000000 1.000000 0.000000
    outer loop
      vertex -33.600000 -3.800000 0.000000
      vertex -35.600000 -3.800000 5.000000
      vertex -33.351722 -3.800000 0.764121
    endloop
  endfacet
  facet normal 0.000000 1.000000 0.000000
    outer loop
      vertex -31.248278 -3.800000 0.764121
      vertex -35.600000 -3.800000 5.000000
      vertex -24.100000 -3.800000 0.000000
    endloop
  endfacet
  facet normal 0.000000 1.000000 0.000000
    outer loop
      vertex -31.248278 -3.800000 0.764121
      vertex -24.100000 -3.800000 0.000000
      vertex -23.851722 -3.800000 -0.764121
    endloop
  endfacet
  facet normal 0.000000 1.000000 0.000000
    outer loop
      vertex -31.000000 -3.800000 0.000000
      vertex -31.248278 -3.800000 0.764121
      vertex -23.201722 -3.800000 -1.236373
    endloop
  endfacet
  facet normal 0.000000 1.000000 0.000000
    outer loop
      vertex -31.000000 -3.800000 0.000000
      vertex -23.201722 -3.800000 -1.236373
      vertex -6.710170 -3.800000 -5.000000
    endloop
  endfacet
  facet normal 0.000000 1.000000 -0.000000
    outer loop
      vertex -21.500000 -3.800000 0.000000
      vertex -6.710170 -3.800000 -5.000000
      vertex -21.748278 -3.800000 -0.764121
    endloop
  endfacet
  facet normal 0.000000 1.000000 0.000000
    outer loop
      vertex -21.748278 -3.800000 0.764121
      vertex -6.710170 -3.800000 -5.000000
      vertex -21.500000 -3.800000 0.000000
    endloop
  endfacet
  facet normal 0.000000 1.000000 0.000000
    outer loop
      vertex -23.851722 -3.800000 0.764121
      vertex -35.600000 -3.800000 5.000000
      vertex -23.201722 -3.800000 1.236373
    endloop
  endfacet
  facet normal 0.000000 1.000000 0.000000
    outer loop
      vertex -6.710170 -3.800000 -5.000000
      vertex -21.748278 -3.800000 0.764121
      vertex -6.710170 -3.800000 5.000000
    endloop
  endfacet
  facet normal 0.000000 1.000000 0.000000
    outer loop
      vertex -23.201722 -3.800000 1.236373
      vertex -35.600000 -3.800000 5.000000
      vertex -22.398278 -3.800000 1.236373
    endloop
  endfacet
  facet normal 0.000000 1.000000 0.000000
    outer loop
      vertex -21.748278 -3.800000 0.764121
      vertex -22.398278 -3.800000 1.236373
      vertex -6.710170 -3.800000 5.000000
    endloop
  endfacet
  facet normal 0.000000 1.000000 0.000000
    outer loop
      vertex -24.100000 -3.800000 0.000000
      vertex -35.600000 -3.800000 5.000000
      vertex -23.851722 -3.800000 0.764121
    endloop
  endfacet
  facet normal 0.000000 1.000000 -0.000000
    outer loop
      vertex -31.248278 -3.800000 -0.764121
      vertex -6.710170 -3.800000 -5.000000
      vertex -31.898278 -3.800000 -1.236373
    endloop
  endfacet
  facet normal 0.000000 -0.000000 1.000000
    outer loop
      vertex -35.600000 -3.800000 5.000000
      vertex -35.600000 -7.800000 5.000000
      vertex 15.500000 -7.800000 5.000000
    endloop
  endfacet
  facet normal 0.000000 0.000000 1.000000
    outer loop
      vertex -2.250000 -3.897114 5.000000
      vertex -6.710170 -3.800000 5.000000
      vertex -35.600000 -3.800000 5.000000
    endloop
  endfacet
  facet normal -0.000000 -0.000000 1.000000
    outer loop
      vertex -0.781417 -4.431635 5.000000
      vertex -35.600000 -3.800000 5.000000
      vertex 15.500000 -7.800000 5.000000
    endloop
  endfacet
  facet normal 0.000000 0.000000 1.000000
    outer loop
      vertex 15.500000 -3.750000 5.000000
      vertex 2.250000 -3.897114 5.000000
      vertex 15.500000 -7.800000 5.000000
    endloop
  endfacet
  facet normal 0.000000 -0.000000 1.000000
    outer loop
      vertex 2.250000 -3.897114 5.000000
      vertex 0.781417 -4.431635 5.000000
      vertex 15.500000 -7.800000 5.000000
    endloop
  endfacet
  facet normal 0.000000 -0.000000 1.000000
    outer loop
      vertex 0.781417 -4.431635 5.000000
      vertex -0.781417 -4.431635 5.000000
      vertex 15.500000 -7.800000 5.000000
    endloop
  endfacet
  facet normal 0.000000 0.000000 1.000000
    outer loop
      vertex -7.418241 -2.410333 5.000000
      vertex -6.710170 -3.800000 5.000000
      vertex -3.447200 -2.892544 5.000000
    endloop
  endfacet
  facet normal 0.000000 0.000000 1.000000
    outer loop
      vertex -7.800000 0.000000 5.000000
      vertex -4.228617 -1.539091 5.000000
      vertex -4.500000 0.000000 5.000000
    endloop
  endfacet
  facet normal 0.000000 0.000000 1.000000
    outer loop
      vertex -7.800000 0.000000 5.000000
      vertex -7.418241 -2.410333 5.000000
      vertex -4.228617 -1.539091 5.000000
    endloop
  endfacet
  facet normal 0.000000 0.000000 1.000000
    outer loop
      vertex -7.418241 2.410333 5.000000
      vertex -4.228617 1.539091 5.000000
      vertex -3.447200 2.892544 5.000000
    endloop
  endfacet
  facet normal 0.000000 -0.000000 1.000000
    outer loop
      vertex -7.418241 2.410333 5.000000
      vertex -7.800000 0.000000 5.000000
      vertex -4.228617 1.539091 5.000000
    endloop
  endfacet
  facet normal 0.000000 0.000000 1.000000
    outer loop
      vertex 15.500000 7.800000 5.000000
      vertex -0.781417 4.431635 5.000000
      vertex 0.781417 4.431635 5.000000
    endloop
  endfacet
  facet normal 0.000000 0.000000 1.000000
    outer loop
      vertex 15.500000 3.750000 5.000000
      vertex 0.781417 4.431635 5.000000
      vertex 2.250000 3.897114 5.000000
    endloop
  endfacet
  facet normal 0.000000 -0.000000 1.000000
    outer loop
      vertex -4.584725 6.310333 5.000000
      vertex -6.310333 4.584725 5.000000
      vertex 0.000000 7.800000 5.000000
    endloop
  endfacet
  facet normal 0.000000 0.000000 1.000000
    outer loop
      vertex 15.500000 7.800000 5.000000
      vertex 0.781417 4.431635 5.000000
      vertex 15.500000 3.750000 5.000000
    endloop
  endfacet
  facet normal 0.000000 -0.000000 1.000000
    outer loop
      vertex 0.000000 7.800000 5.000000
      vertex -0.781417 4.431635 5.000000
      vertex 15.500000 7.800000 5.000000
    endloop
  endfacet
  facet normal 0.000000 0.000000 1.000000
    outer loop
      vertex -6.310333 4.584725 5.000000
      vertex -2.250000 3.897114 5.000000
      vertex -0.781417 4.431635 5.000000
    endloop
  endfacet
  facet normal 0.000000 -0.000000 1.000000
    outer loop
      vertex -2.410333 7.418241 5.000000
      vertex -4.584725 6.310333 5.000000
      vertex 0.000000 7.800000 5.000000
    endloop
  endfacet
  facet normal 0.000000 0.000000 1.000000
    outer loop
      vertex 0.000000 7.800000 5.000000
      vertex -6.310333 4.584725 5.000000
      vertex -0.781417 4.431635 5.000000
    endloop
  endfacet
  facet normal 0.000000 0.000000 1.000000
    outer loop
      vertex -2.250000 3.897114 5.000000
      vertex -7.418241 2.410333 5.000000
      vertex -3.447200 2.892544 5.000000
    endloop
  endfacet
  facet normal 0.000000 0.000000 1.000000
    outer loop
      vertex -4.228617 1.539091 5.000000
      vertex -7.800000 0.000000 5.000000
      vertex -4.500000 0.000000 5.000000
    endloop
  endfacet
  facet normal 0.000000 -0.000000 1.000000
    outer loop
      vertex -4.228617 -1.539091 5.000000
      vertex -7.418241 -2.410333 5.000000
      vertex -3.447200 -2.892544 5.000000
    endloop
  endfacet
  facet normal 0.000000 0.000000 1.000000
    outer loop
      vertex -0.781417 -4.431635 5.000000
      vertex -2.250000 -3.897114 5.000000
      vertex -35.600000 -3.800000 5.000000
    endloop
  endfacet
  facet normal 0.000000 0.000000 1.000000
    outer loop
      vertex 2.425324 3.750000 5.000000
      vertex 15.500000 3.750000 5.000000
      vertex 2.250000 3.897114 5.000000
    endloop
  endfacet
  facet normal 0.000000 -0.000000 1.000000
    outer loop
      vertex -6.310333 4.584725 5.000000
      vertex -7.418241 2.410333 5.000000
      vertex -2.250000 3.897114 5.000000
    endloop
  endfacet
  facet normal 0.000000 -0.000000 1.000000
    outer loop
      vertex 2.425324 -3.750000 5.000000
      vertex 2.250000 -3.897114 5.000000
      vertex 15.500000 -3.750000 5.000000
    endloop
  endfacet
  facet normal 0.000000 0.000000 1.000000
    outer loop
      vertex -2.250000 -3.897114 5.000000
      vertex -3.447200 -2.892544 5.000000
      vertex -6.710170 -3.800000 5.000000
    endloop
  endfacet
  facet normal 0.951057 0.000000 0.309017
    outer loop
      vertex -33.351722 -7.800000 -0.764121
      vertex -33.351722 -3.800000 -0.764121
      vertex -33.600000 -3.800000 0.000000
    endloop
  endfacet
  facet normal 0.951057 0.000000 0.309017
    outer loop
      vertex -33.600000 -7.800000 0.000000
      vertex -33.351722 -7.800000 -0.764121
      vertex -33.600000 -3.800000 0.000000
    endloop
  endfacet
  facet normal 0.587785 0.000000 0.809017
    outer loop
      vertex -32.701722 -7.800000 -1.236373
      vertex -32.701722 -3.800000 -1.236373
      vertex -33.351722 -3.800000 -0.764121
    endloop
  endfacet
  facet normal 0.587785 0.000000 0.809017
    outer loop
      vertex -33.351722 -7.800000 -0.764121
      vertex -32.701722 -7.800000 -1.236373
      vertex -33.351722 -3.800000 -0.764121
    endloop
  endfacet
  facet normal 0.000000 0.000000 1.000000
    outer loop
      vertex -31.898278 -7.800000 -1.236373
      vertex -31.898278 -3.800000 -1.236373
      vertex -32.701722 -3.800000 -1.236373
    endloop
  endfacet
  facet normal 0.000000 0.000000 1.000000
    outer loop
      vertex -32.701722 -7.800000 -1.236373
      vertex -31.898278 -7.800000 -1.236373
      vertex -32.701722 -3.800000 -1.236373
    endloop
  endfacet
  facet normal -0.587785 0.000000 0.809017
    outer loop
      vertex -31.248278 -7.800000 -0.764121
      vertex -31.248278 -3.800000 -0.764121
      vertex -31.898278 -3.800000 -1.236373
    endloop
  endfacet
  facet normal -0.587785 0.000000 0.809017
    outer loop
      vertex -31.898278 -7.800000 -1.236373
      vertex -31.248278 -7.800000 -0.764121
      vertex -31.898278 -3.800000 -1.236373
    endloop
  endfacet
  facet normal -0.951057 0.000000 0.309017
    outer loop
      vertex -31.000000 -3.800000 0.000000
      vertex -31.248278 -3.800000 -0.764121
      vertex -31.000000 -7.800000 0.000000
    endloop
  endfacet
  facet normal -0.951057 0.000000 0.309017
    outer loop
      vertex -31.000000 -7.800000 0.000000
      vertex -31.248278 -3.800000 -0.764121
      vertex -31.248278 -7.800000 -0.764121
    endloop
  endfacet
  facet normal -0.951057 -0.000000 -0.309017
    outer loop
      vertex -31.000000 -3.800000 0.000000
      vertex -31.000000 -7.800000 0.000000
      vertex -31.248278 -3.800000 0.764121
    endloop
  endfacet
  facet normal -0.951057 -0.000000 -0.309017
    outer loop
      vertex -31.248278 -3.800000 0.764121
      vertex -31.000000 -7.800000 0.000000
      vertex -31.248278 -7.800000 0.764121
    endloop
  endfacet
  facet normal -0.587785 -0.000000 -0.809017
    outer loop
      vertex -31.248278 -3.800000 0.764121
      vertex -31.248278 -7.800000 0.764121
      vertex -31.898278 -3.800000 1.236373
    endloop
  endfacet
  facet normal -0.587785 -0.000000 -0.809017
    outer loop
      vertex -31.898278 -3.800000 1.236373
      vertex -31.248278 -7.800000 0.764121
      vertex -31.898278 -7.800000 1.236373
    endloop
  endfacet
  facet normal 0.000000 -0.000000 -1.000000
    outer loop
      vertex -31.898278 -3.800000 1.236373
      vertex -31.898278 -7.800000 1.236373
      vertex -32.701722 -3.800000 1.236373
    endloop
  endfacet
  facet normal 0.000000 -0.000000 -1.000000
    outer loop
      vertex -32.701722 -3.800000 1.236373
      vertex -31.898278 -7.800000 1.236373
      vertex -32.701722 -7.800000 1.236373
    endloop
  endfacet
  facet normal 0.587785 -0.000000 -0.809017
    outer loop
      vertex -32.701722 -3.800000 1.236373
      vertex -32.701722 -7.800000 1.236373
      vertex -33.351722 -3.800000 0.764121
    endloop
  endfacet
  facet normal 0.587785 -0.000000 -0.809017
    outer loop
      vertex -33.351722 -3.800000 0.764121
      vertex -32.701722 -7.800000 1.236373
      vertex -33.351722 -7.800000 0.764121
    endloop
  endfacet
  facet normal 0.951057 -0.000000 -0.309017
    outer loop
      vertex -33.600000 -3.800000 0.000000
      vertex -33.351722 -3.800000 0.764121
      vertex -33.351722 -7.800000 0.764121
    endloop
  endfacet
  facet normal 0.951057 -0.000000 -0.309017
    outer loop
      vertex -33.600000 -7.800000 0.000000
      vertex -33.600000 -3.800000 0.000000
      vertex -33.351722 -7.800000 0.764121
    endloop
  endfacet
  facet normal 0.951057 0.000000 0.309017
    outer loop
      vertex -23.851722 -7.800000 -0.764121
      vertex -23.851722 -3.800000 -0.764121
      vertex -24.100000 -3.800000 0.000000
    endloop
  endfacet
  facet normal 0.951057 0.000000 0.309017
    outer loop
      vertex -24.100000 -7.800000 0.000000
      vertex -23.851722 -7.800000 -0.764121
      vertex -24.100000 -3.800000 0.000000
    endloop
  endfacet
  facet normal 0.587785 0.000000 0.809017
    outer loop
      vertex -23.201722 -7.800000 -1.236373
      vertex -23.201722 -3.800000 -1.236373
      vertex -23.851722 -3.800000 -0.764121
    endloop
  endfacet
  facet normal 0.587785 0.000000 0.809017
    outer loop
      vertex -23.851722 -7.800000 -0.764121
      vertex -23.201722 -7.800000 -1.236373
      vertex -23.851722 -3.800000 -0.764121
    endloop
  endfacet
  facet normal 0.000000 0.000000 1.000000
    outer loop
      vertex -22.398278 -7.800000 -1.236373
      vertex -22.398278 -3.800000 -1.236373
      vertex -23.201722 -3.800000 -1.236373
    endloop
  endfacet
  facet normal 0.000000 0.000000 1.000000
    outer loop
      vertex -23.201722 -7.800000 -1.236373
      vertex -22.398278 -7.800000 -1.236373
      vertex -23.201722 -3.800000 -1.236373
    endloop
  endfacet
  facet normal -0.587785 0.000000 0.809017
    outer loop
      vertex -21.748278 -7.800000 -0.764121
      vertex -21.748278 -3.800000 -0.764121
      vertex -22.398278 -3.800000 -1.236373
    endloop
  endfacet
  facet normal -0.587785 0.000000 0.809017
    outer loop
      vertex -22.398278 -7.800000 -1.236373
      vertex -21.748278 -7.800000 -0.764121
      vertex -22.398278 -3.800000 -1.236373
    endloop
  endfacet
  facet normal -0.951057 0.000000 0.309017
    outer loop
      vertex -21.500000 -3.800000 0.000000
      vertex -21.748278 -3.800000 -0.764121
      vertex -21.500000 -7.800000 0.000000
    endloop
  endfacet
  facet normal -0.951057 0.000000 0.309017
    outer loop
      vertex -21.500000 -7.800000 0.000000
      vertex -21.748278 -3.800000 -0.764121
      vertex -21.748278 -7.800000 -0.764121
    endloop
  endfacet
  facet normal -0.951057 -0.000000 -0.309017
    outer loop
      vertex -21.500000 -3.800000 0.000000
      vertex -21.500000 -7.800000 0.000000
      vertex -21.748278 -3.800000 0.764121
    endloop
  endfacet
  facet normal -0.951057 -0.000000 -0.309017
    outer loop
      vertex -21.748278 -3.800000 0.764121
      vertex -21.500000 -7.800000 0.000000
      vertex -21.748278 -7.800000 0.764121
    endloop
  endfacet
  facet normal -0.587785 -0.000000 -0.809017
    outer loop
      vertex -21.748278 -3.800000 0.764121
      vertex -21.748278 -7.800000 0.764121
      vertex -22.398278 -3.800000 1.236373
    endloop
  endfacet
  facet normal -0.587785 -0.000000 -0.809017
    outer loop
      vertex -22.398278 -3.800000 1.236373
      vertex -21.748278 -7.800000 0.764121
      vertex -22.398278 -7.800000 1.236373
    endloop
  endfacet
  facet normal 0.000000 -0.000000 -1.000000
    outer loop
      vertex -22.398278 -3.800000 1.236373
      vertex -22.398278 -7.800000 1.236373
      vertex -23.201722 -3.800000 1.236373
    endloop
  endfacet
  facet normal 0.000000 -0.000000 -1.000000
    outer loop
      vertex -23.201722 -3.800000 1.236373
      vertex -22.398278 -7.800000 1.236373
      vertex -23.201722 -7.800000 1.236373
    endloop
  endfacet
  facet normal 0.587785 -0.000000 -0.809017
    outer loop
      vertex -23.201722 -3.800000 1.236373
      vertex -23.201722 -7.800000 1.236373
      vertex -23.851722 -3.800000 0.764121
    endloop
  endfacet
  facet normal 0.587785 -0.000000 -0.809017
    outer loop
      vertex -23.851722 -3.800000 0.764121
      vertex -23.201722 -7.800000 1.236373
      vertex -23.851722 -7.800000 0.764121
    endloop
  endfacet
  facet normal 0.951057 -0.000000 -0.309017
    outer loop
      vertex -24.100000 -3.800000 0.000000
      vertex -23.851722 -3.800000 0.764121
      vertex -23.851722 -7.800000 0.764121
    endloop
  endfacet
  facet normal 0.951057 -0.000000 -0.309017
    outer loop
      vertex -24.100000 -7.800000 0.000000
      vertex -24.100000 -3.800000 0.000000
      vertex -23.851722 -7.800000 0.764121
    endloop
  endfacet
  facet normal 0.587785 0.000000 0.809017
    outer loop
      vertex 8.520163 -7.800000 -2.092324
      vertex 8.520163 -3.750000 -2.092324
      vertex 7.420163 -3.750000 -1.293128
    endloop
  endfacet
  facet normal 0.587785 0.000000 0.809017
    outer loop
      vertex 7.420163 -7.800000 -1.293128
      vertex 8.520163 -7.800000 -2.092324
      vertex 7.420163 -3.750000 -1.293128
    endloop
  endfacet
  facet normal 0.951056 0.000000 0.309017
    outer loop
      vertex 7.420163 -7.800000 -1.293128
      vertex 7.420163 -3.750000 -1.293128
      vertex 7.000000 -3.750000 0.000000
    endloop
  endfacet
  facet normal 0.951056 0.000000 0.309017
    outer loop
      vertex 7.000000 -7.800000 0.000000
      vertex 7.420163 -7.800000 -1.293128
      vertex 7.000000 -3.750000 0.000000
    endloop
  endfacet
  facet normal 0.000000 0.000000 1.000000
    outer loop
      vertex 9.879837 -7.800000 -2.092324
      vertex 9.879837 -3.750000 -2.092324
      vertex 8.520163 -3.750000 -2.092324
    endloop
  endfacet
  facet normal 0.000000 0.000000 1.000000
    outer loop
      vertex 8.520163 -7.800000 -2.092324
      vertex 9.879837 -7.800000 -2.092324
      vertex 8.520163 -3.750000 -2.092324
    endloop
  endfacet
  facet normal -0.587785 0.000000 0.809017
    outer loop
      vertex 10.979837 -7.800000 -1.293128
      vertex 10.979837 -3.750000 -1.293128
      vertex 9.879837 -3.750000 -2.092324
    endloop
  endfacet
  facet normal -0.587785 0.000000 0.809017
    outer loop
      vertex 9.879837 -7.800000 -2.092324
      vertex 10.979837 -7.800000 -1.293128
      vertex 9.879837 -3.750000 -2.092324
    endloop
  endfacet
  facet normal -0.951056 0.000000 0.309017
    outer loop
      vertex 11.400000 -3.750000 0.000000
      vertex 10.979837 -3.750000 -1.293128
      vertex 11.400000 -7.800000 0.000000
    endloop
  endfacet
  facet normal -0.951056 0.000000 0.309017
    outer loop
      vertex 11.400000 -7.800000 0.000000
      vertex 10.979837 -3.750000 -1.293128
      vertex 10.979837 -7.800000 -1.293128
    endloop
  endfacet
  facet normal -0.951056 -0.000000 -0.309017
    outer loop
      vertex 11.400000 -3.750000 0.000000
      vertex 11.400000 -7.800000 0.000000
      vertex 10.979837 -3.750000 1.293128
    endloop
  endfacet
  facet normal -0.951056 -0.000000 -0.309017
    outer loop
      vertex 10.979837 -3.750000 1.293128
      vertex 11.400000 -7.800000 0.000000
      vertex 10.979837 -7.800000 1.293128
    endloop
  endfacet
  facet normal -0.587785 -0.000000 -0.809017
    outer loop
      vertex 10.979837 -3.750000 1.293128
      vertex 10.979837 -7.800000 1.293128
      vertex 9.879837 -3.750000 2.092324
    endloop
  endfacet
  facet normal -0.587785 -0.000000 -0.809017
    outer loop
      vertex 9.879837 -3.750000 2.092324
      vertex 10.979837 -7.800000 1.293128
      vertex 9.879837 -7.800000 2.092324
    endloop
  endfacet
  facet normal 0.000000 -0.000000 -1.000000
    outer loop
      vertex 9.879837 -3.750000 2.092324
      vertex 9.879837 -7.800000 2.092324
      vertex 8.520163 -3.750000 2.092324
    endloop
  endfacet
  facet normal 0.000000 -0.000000 -1.000000
    outer loop
      vertex 8.520163 -3.750000 2.092324
      vertex 9.879837 -7.800000 2.092324
      vertex 8.520163 -7.800000 2.092324
    endloop
  endfacet
  facet normal 0.587785 -0.000000 -0.809017
    outer loop
      vertex 8.520163 -3.750000 2.092324
      vertex 8.520163 -7.800000 2.092324
      vertex 7.420163 -3.750000 1.293128
    endloop
  endfacet
  facet normal 0.587785 -0.000000 -0.809017
    outer loop
      vertex 7.420163 -3.750000 1.293128
      vertex 8.520163 -7.800000 2.092324
      vertex 7.420163 -7.800000 1.293128
    endloop
  endfacet
  facet normal 0.951056 -0.000000 -0.309017
    outer loop
      vertex 7.000000 -3.750000 0.000000
      vertex 7.420163 -3.750000 1.293128
      vertex 7.420163 -7.800000 1.293128
    endloop
  endfacet
  facet normal 0.951056 -0.000000 -0.309017
    outer loop
      vertex 7.000000 -7.800000 0.000000
      vertex 7.000000 -3.750000 0.000000
      vertex 7.420163 -7.800000 1.293128
    endloop
  endfacet
  facet normal 0.951056 0.000000 0.309017
    outer loop
      vertex 7.420163 3.750000 -1.293128
      vertex 7.420163 7.800000 -1.293128
      vertex 7.000000 7.800000 0.000000
    endloop
  endfacet
  facet normal 0.951056 0.000000 0.309017
    outer loop
      vertex 7.000000 3.750000 0.000000
      vertex 7.420163 3.750000 -1.293128
      vertex 7.000000 7.800000 0.000000
    endloop
  endfacet
  facet normal 0.951056 -0.000000 -0.309017
    outer loop
      vertex 7.000000 7.800000 0.000000
      vertex 7.420163 7.800000 1.293128
      vertex 7.420163 3.750000 1.293128
    endloop
  endfacet
  facet normal 0.951056 -0.000000 -0.309017
    outer loop
      vertex 7.000000 3.750000 0.000000
      vertex 7.000000 7.800000 0.000000
      vertex 7.420163 3.750000 1.293128
    endloop
  endfacet
  facet normal 0.587785 0.000000 0.809017
    outer loop
      vertex 8.520163 3.750000 -2.092324
      vertex 8.520163 7.800000 -2.092324
      vertex 7.420163 7.800000 -1.293128
    endloop
  endfacet
  facet normal 0.587785 0.000000 0.809017
    outer loop
      vertex 7.420163 3.750000 -1.293128
      vertex 8.520163 3.750000 -2.092324
      vertex 7.420163 7.800000 -1.293128
    endloop
  endfacet
  facet normal 0.000000 0.000000 1.000000
    outer loop
      vertex 9.879837 3.750000 -2.092324
      vertex 9.879837 7.800000 -2.092324
      vertex 8.520163 7.800000 -2.092324
    endloop
  endfacet
  facet normal 0.000000 0.000000 1.000000
    outer loop
      vertex 8.520163 3.750000 -2.092324
      vertex 9.879837 3.750000 -2.092324
      vertex 8.520163 7.800000 -2.092324
    endloop
  endfacet
  facet normal -0.587785 0.000000 0.809017
    outer loop
      vertex 10.979837 3.750000 -1.293128
      vertex 10.979837 7.800000 -1.293128
      vertex 9.879837 7.800000 -2.092324
    endloop
  endfacet
  facet normal -0.587785 0.000000 0.809017
    outer loop
      vertex 9.879837 3.750000 -2.092324
      vertex 10.979837 3.750000 -1.293128
      vertex 9.879837 7.800000 -2.092324
    endloop
  endfacet
  facet normal -0.951056 0.000000 0.309017
    outer loop
      vertex 11.400000 7.800000 0.000000
      vertex 10.979837 7.800000 -1.293128
      vertex 11.400000 3.750000 0.000000
    endloop
  endfacet
  facet normal -0.951056 0.000000 0.309017
    outer loop
      vertex 11.400000 3.750000 0.000000
      vertex 10.979837 7.800000 -1.293128
      vertex 10.979837 3.750000 -1.293128
    endloop
  endfacet
  facet normal -0.951056 -0.000000 -0.309017
    outer loop
      vertex 11.400000 7.800000 0.000000
      vertex 11.400000 3.750000 0.000000
      vertex 10.979837 7.800000 1.293128
    endloop
  endfacet
  facet normal -0.951056 -0.000000 -0.309017
    outer loop
      vertex 10.979837 7.800000 1.293128
      vertex 11.400000 3.750000 0.000000
      vertex 10.979837 3.750000 1.293128
    endloop
  endfacet
  facet normal -0.587785 -0.000000 -0.809017
    outer loop
      vertex 10.979837 7.800000 1.293128
      vertex 10.979837 3.750000 1.293128
      vertex 9.879837 7.800000 2.092324
    endloop
  endfacet
  facet normal -0.587785 0.000000 -0.809017
    outer loop
      vertex 9.879837 7.800000 2.092324
      vertex 10.979837 3.750000 1.293128
      vertex 9.879837 3.750000 2.092324
    endloop
  endfacet
  facet normal 0.000000 0.000000 -1.000000
    outer loop
      vertex 9.879837 7.800000 2.092324
      vertex 9.879837 3.750000 2.092324
      vertex 8.520163 7.800000 2.092324
    endloop
  endfacet
  facet normal 0.000000 0.000000 -1.000000
    outer loop
      vertex 8.520163 7.800000 2.092324
      vertex 9.879837 3.750000 2.092324
      vertex 8.520163 3.750000 2.092324
    endloop
  endfacet
  facet normal 0.587785 0.000000 -0.809017
    outer loop
      vertex 8.520163 7.800000 2.092324
      vertex 8.520163 3.750000 2.092324
      vertex 7.420163 7.800000 1.293128
    endloop
  endfacet
  facet normal 0.587785 -0.000000 -0.809017
    outer loop
      vertex 7.420163 7.800000 1.293128
      vertex 8.520163 3.750000 2.092324
      vertex 7.420163 3.750000 1.293128
    endloop
  endfacet
endsolid OpenSCAD_Model
