solid tray2 - Belt Guide-1
   facet normal 0.000000e+000 0.000000e+000 1.000000e+000
      outer loop
         vertex 1.562574e+002 6.191629e+001 2.500000e+000
         vertex 1.563476e+002 6.188746e+001 2.500000e+000
         vertex 1.563476e+002 6.472685e+001 2.500000e+000
      endloop
   endfacet
   facet normal 0.000000e+000 0.000000e+000 1.000000e+000
      outer loop
         vertex 1.608476e+002 6.472685e+001 2.500000e+000
         vertex 1.608476e+002 7.187685e+001 2.500000e+000
         vertex 1.595245e+002 7.187685e+001 2.500000e+000
      endloop
   endfacet
   facet normal 0.000000e+000 0.000000e+000 1.000000e+000
      outer loop
         vertex 1.595245e+002 7.187685e+001 2.500000e+000
         vertex 1.585776e+002 7.103918e+001 2.500000e+000
         vertex 1.608476e+002 6.472685e+001 2.500000e+000
      endloop
   endfacet
   facet normal 0.000000e+000 0.000000e+000 1.000000e+000
      outer loop
         vertex 1.608476e+002 6.472685e+001 2.500000e+000
         vertex 1.585776e+002 7.103918e+001 2.500000e+000
         vertex 1.574762e+002 7.041851e+001 2.500000e+000
      endloop
   endfacet
   facet normal 0.000000e+000 0.000000e+000 1.000000e+000
      outer loop
         vertex 1.608476e+002 6.472685e+001 2.500000e+000
         vertex 1.574762e+002 7.041851e+001 2.500000e+000
         vertex 1.563476e+002 6.472685e+001 2.500000e+000
      endloop
   endfacet
   facet normal 0.000000e+000 0.000000e+000 1.000000e+000
      outer loop
         vertex 1.563476e+002 6.472685e+001 2.500000e+000
         vertex 1.574762e+002 7.041851e+001 2.500000e+000
         vertex 1.562693e+002 7.004237e+001 2.500000e+000
      endloop
   endfacet
   facet normal 0.000000e+000 0.000000e+000 1.000000e+000
      outer loop
         vertex 1.563476e+002 6.472685e+001 2.500000e+000
         vertex 1.562693e+002 7.004237e+001 2.500000e+000
         vertex 1.550103e+002 6.992749e+001 2.500000e+000
      endloop
   endfacet
   facet normal 0.000000e+000 0.000000e+000 1.000000e+000
      outer loop
         vertex 1.493476e+002 7.421294e+001 2.500000e+000
         vertex 1.493476e+002 7.142686e+001 2.500000e+000
         vertex 1.498343e+002 7.304619e+001 2.500000e+000
      endloop
   endfacet
   facet normal 0.000000e+000 0.000000e+000 1.000000e+000
      outer loop
         vertex 1.498343e+002 7.304619e+001 2.500000e+000
         vertex 1.493476e+002 7.142686e+001 2.500000e+000
         vertex 1.505547e+002 7.200733e+001 2.500000e+000
      endloop
   endfacet
   facet normal 0.000000e+000 0.000000e+000 1.000000e+000
      outer loop
         vertex 1.493476e+002 7.142686e+001 2.500000e+000
         vertex 1.494707e+002 6.986251e+001 2.500000e+000
         vertex 1.563476e+002 6.472685e+001 2.500000e+000
      endloop
   endfacet
   facet normal 0.000000e+000 0.000000e+000 1.000000e+000
      outer loop
         vertex 1.563476e+002 6.472685e+001 2.500000e+000
         vertex 1.494707e+002 6.986251e+001 2.500000e+000
         vertex 1.498370e+002 6.833668e+001 2.500000e+000
      endloop
   endfacet
   facet normal 0.000000e+000 0.000000e+000 1.000000e+000
      outer loop
         vertex 1.550103e+002 6.992749e+001 2.500000e+000
         vertex 1.537552e+002 7.007895e+001 2.500000e+000
         vertex 1.563476e+002 6.472685e+001 2.500000e+000
      endloop
   endfacet
   facet normal 0.000000e+000 0.000000e+000 1.000000e+000
      outer loop
         vertex 1.563476e+002 6.472685e+001 2.500000e+000
         vertex 1.537552e+002 7.007895e+001 2.500000e+000
         vertex 1.525597e+002 7.049003e+001 2.500000e+000
      endloop
   endfacet
   facet normal 0.000000e+000 0.000000e+000 1.000000e+000
      outer loop
         vertex 1.563476e+002 6.472685e+001 2.500000e+000
         vertex 1.525597e+002 7.049003e+001 2.500000e+000
         vertex 1.493476e+002 7.142686e+001 2.500000e+000
      endloop
   endfacet
   facet normal 0.000000e+000 0.000000e+000 1.000000e+000
      outer loop
         vertex 1.493476e+002 7.142686e+001 2.500000e+000
         vertex 1.525597e+002 7.049003e+001 2.500000e+000
         vertex 1.514768e+002 7.114247e+001 2.500000e+000
      endloop
   endfacet
   facet normal 0.000000e+000 0.000000e+000 1.000000e+000
      outer loop
         vertex 1.493476e+002 7.142686e+001 2.500000e+000
         vertex 1.514768e+002 7.114247e+001 2.500000e+000
         vertex 1.505547e+002 7.200733e+001 2.500000e+000
      endloop
   endfacet
   facet normal 0.000000e+000 0.000000e+000 1.000000e+000
      outer loop
         vertex 1.498370e+002 6.833668e+001 2.500000e+000
         vertex 1.504375e+002 6.688695e+001 2.500000e+000
         vertex 1.563476e+002 6.472685e+001 2.500000e+000
      endloop
   endfacet
   facet normal 0.000000e+000 0.000000e+000 1.000000e+000
      outer loop
         vertex 1.563476e+002 6.472685e+001 2.500000e+000
         vertex 1.504375e+002 6.688695e+001 2.500000e+000
         vertex 1.512574e+002 6.554900e+001 2.500000e+000
      endloop
   endfacet
   facet normal 0.000000e+000 0.000000e+000 1.000000e+000
      outer loop
         vertex 1.563476e+002 6.472685e+001 2.500000e+000
         vertex 1.512574e+002 6.554900e+001 2.500000e+000
         vertex 1.522765e+002 6.435578e+001 2.500000e+000
      endloop
   endfacet
   facet normal 0.000000e+000 0.000000e+000 1.000000e+000
      outer loop
         vertex 1.522765e+002 6.435578e+001 2.500000e+000
         vertex 1.534697e+002 6.333669e+001 2.500000e+000
         vertex 1.563476e+002 6.472685e+001 2.500000e+000
      endloop
   endfacet
   facet normal 0.000000e+000 0.000000e+000 1.000000e+000
      outer loop
         vertex 1.563476e+002 6.472685e+001 2.500000e+000
         vertex 1.534697e+002 6.333669e+001 2.500000e+000
         vertex 1.548076e+002 6.251678e+001 2.500000e+000
      endloop
   endfacet
   facet normal 0.000000e+000 0.000000e+000 1.000000e+000
      outer loop
         vertex 1.563476e+002 6.472685e+001 2.500000e+000
         vertex 1.548076e+002 6.251678e+001 2.500000e+000
         vertex 1.562574e+002 6.191629e+001 2.500000e+000
      endloop
   endfacet
   facet normal 1.000000e+000 0.000000e+000 0.000000e+000
      outer loop
         vertex 1.608476e+002 6.472685e+001 3.500000e+000
         vertex 1.608476e+002 6.142685e+001 3.500000e+000
         vertex 1.608476e+002 6.472685e+001 2.500000e+000
      endloop
   endfacet
   facet normal 1.000000e+000 0.000000e+000 0.000000e+000
      outer loop
         vertex 1.608476e+002 6.472685e+001 2.500000e+000
         vertex 1.608476e+002 6.142685e+001 3.500000e+000
         vertex 1.608476e+002 6.142685e+001 1.436698e-013
      endloop
   endfacet
   facet normal 1.000000e+000 0.000000e+000 0.000000e+000
      outer loop
         vertex 1.608476e+002 6.472685e+001 2.500000e+000
         vertex 1.608476e+002 6.142685e+001 1.436698e-013
         vertex 1.608476e+002 7.187685e+001 2.500000e+000
      endloop
   endfacet
   facet normal 1.000000e+000 0.000000e+000 0.000000e+000
      outer loop
         vertex 1.608476e+002 7.187685e+001 2.500000e+000
         vertex 1.608476e+002 6.142685e+001 1.436698e-013
         vertex 1.608476e+002 7.187685e+001 1.436698e-013
      endloop
   endfacet
   facet normal 3.016910e-016 1.000000e+000 0.000000e+000
      outer loop
         vertex 1.608476e+002 7.187685e+001 2.500000e+000
         vertex 1.608476e+002 7.187685e+001 1.436698e-013
         vertex 1.595245e+002 7.187685e+001 2.500000e+000
      endloop
   endfacet
   facet normal 3.016910e-016 1.000000e+000 0.000000e+000
      outer loop
         vertex 1.595245e+002 7.187685e+001 2.500000e+000
         vertex 1.608476e+002 7.187685e+001 1.436698e-013
         vertex 1.550976e+002 7.187685e+001 1.436698e-013
      endloop
   endfacet
   facet normal 3.016910e-016 1.000000e+000 0.000000e+000
      outer loop
         vertex 1.595245e+002 7.187685e+001 2.500000e+000
         vertex 1.550976e+002 7.187685e+001 1.436698e-013
         vertex 1.595245e+002 7.187685e+001 3.500000e+000
      endloop
   endfacet
   facet normal 3.016910e-016 1.000000e+000 0.000000e+000
      outer loop
         vertex 1.595245e+002 7.187685e+001 3.500000e+000
         vertex 1.550976e+002 7.187685e+001 1.436698e-013
         vertex 1.550976e+002 7.187685e+001 3.500000e+000
      endloop
   endfacet
   facet normal 8.693379e-002 9.962141e-001 0.000000e+000
      outer loop
         vertex 1.550976e+002 7.187685e+001 3.500000e+000
         vertex 1.550976e+002 7.187685e+001 1.436698e-013
         vertex 1.540493e+002 7.201485e+001 1.436698e-013
      endloop
   endfacet
   facet normal 1.738676e-001 9.847690e-001 0.000000e+000
      outer loop
         vertex 1.550976e+002 7.187685e+001 3.500000e+000
         vertex 1.540493e+002 7.201485e+001 1.436698e-013
         vertex 1.540493e+002 7.201485e+001 3.500000e+000
      endloop
   endfacet
   facet normal 3.418108e-001 9.397688e-001 0.000000e+000
      outer loop
         vertex 1.540493e+002 7.201485e+001 3.500000e+000
         vertex 1.540493e+002 7.201485e+001 1.436698e-013
         vertex 1.530726e+002 7.241945e+001 1.436698e-013
      endloop
   endfacet
   facet normal 4.228202e-001 9.062136e-001 0.000000e+000
      outer loop
         vertex 1.540493e+002 7.201485e+001 3.500000e+000
         vertex 1.530726e+002 7.241945e+001 1.436698e-013
         vertex 1.530726e+002 7.241945e+001 3.500000e+000
      endloop
   endfacet
   facet normal 5.733939e-001 8.192798e-001 0.000000e+000
      outer loop
         vertex 1.530726e+002 7.241945e+001 3.500000e+000
         vertex 1.530726e+002 7.241945e+001 1.436698e-013
         vertex 1.522338e+002 7.306306e+001 1.436698e-013
      endloop
   endfacet
   facet normal 6.429583e-001 7.659011e-001 0.000000e+000
      outer loop
         vertex 1.530726e+002 7.241945e+001 3.500000e+000
         vertex 1.522338e+002 7.306306e+001 1.436698e-013
         vertex 1.522338e+002 7.306306e+001 3.500000e+000
      endloop
   endfacet
   facet normal 7.659012e-001 6.429583e-001 0.000000e+000
      outer loop
         vertex 1.522338e+002 7.306306e+001 3.500000e+000
         vertex 1.522338e+002 7.306306e+001 1.436698e-013
         vertex 1.515901e+002 7.390186e+001 1.436698e-013
      endloop
   endfacet
   facet normal 8.192798e-001 5.733939e-001 0.000000e+000
      outer loop
         vertex 1.522338e+002 7.306306e+001 3.500000e+000
         vertex 1.515901e+002 7.390186e+001 1.436698e-013
         vertex 1.515901e+002 7.390186e+001 3.500000e+000
      endloop
   endfacet
   facet normal 9.062136e-001 4.228202e-001 0.000000e+000
      outer loop
         vertex 1.515901e+002 7.390186e+001 3.500000e+000
         vertex 1.515901e+002 7.390186e+001 1.436698e-013
         vertex 1.511856e+002 7.487863e+001 1.436698e-013
      endloop
   endfacet
   facet normal 9.397688e-001 3.418108e-001 0.000000e+000
      outer loop
         vertex 1.515901e+002 7.390186e+001 3.500000e+000
         vertex 1.511856e+002 7.487863e+001 1.436698e-013
         vertex 1.511856e+002 7.487863e+001 3.500000e+000
      endloop
   endfacet
   facet normal 9.847690e-001 1.738676e-001 0.000000e+000
      outer loop
         vertex 1.511856e+002 7.487863e+001 3.500000e+000
         vertex 1.511856e+002 7.487863e+001 1.436698e-013
         vertex 1.510476e+002 7.592686e+001 1.436698e-013
      endloop
   endfacet
   facet normal 9.962141e-001 8.693379e-002 0.000000e+000
      outer loop
         vertex 1.511856e+002 7.487863e+001 3.500000e+000
         vertex 1.510476e+002 7.592686e+001 1.436698e-013
         vertex 1.510476e+002 7.592686e+001 3.500000e+000
      endloop
   endfacet
   facet normal 9.962141e-001 -8.693379e-002 0.000000e+000
      outer loop
         vertex 1.510476e+002 7.592686e+001 3.500000e+000
         vertex 1.510476e+002 7.592686e+001 1.436698e-013
         vertex 1.511856e+002 7.697507e+001 1.436698e-013
      endloop
   endfacet
   facet normal 9.847690e-001 -1.738676e-001 0.000000e+000
      outer loop
         vertex 1.510476e+002 7.592686e+001 3.500000e+000
         vertex 1.511856e+002 7.697507e+001 1.436698e-013
         vertex 1.511856e+002 7.697507e+001 3.500000e+000
      endloop
   endfacet
   facet normal 9.397688e-001 -3.418108e-001 0.000000e+000
      outer loop
         vertex 1.511856e+002 7.697507e+001 3.500000e+000
         vertex 1.511856e+002 7.697507e+001 1.436698e-013
         vertex 1.515901e+002 7.795186e+001 1.436698e-013
      endloop
   endfacet
   facet normal 9.062136e-001 -4.228202e-001 0.000000e+000
      outer loop
         vertex 1.511856e+002 7.697507e+001 3.500000e+000
         vertex 1.515901e+002 7.795186e+001 1.436698e-013
         vertex 1.515901e+002 7.795186e+001 3.500000e+000
      endloop
   endfacet
   facet normal 8.192798e-001 -5.733939e-001 0.000000e+000
      outer loop
         vertex 1.515901e+002 7.795186e+001 3.500000e+000
         vertex 1.515901e+002 7.795186e+001 1.436698e-013
         vertex 1.522338e+002 7.879063e+001 1.436698e-013
      endloop
   endfacet
   facet normal 7.659011e-001 -6.429583e-001 0.000000e+000
      outer loop
         vertex 1.515901e+002 7.795186e+001 3.500000e+000
         vertex 1.522338e+002 7.879063e+001 1.436698e-013
         vertex 1.522338e+002 7.879063e+001 3.500000e+000
      endloop
   endfacet
   facet normal 6.429583e-001 -7.659012e-001 0.000000e+000
      outer loop
         vertex 1.522338e+002 7.879063e+001 3.500000e+000
         vertex 1.522338e+002 7.879063e+001 1.436698e-013
         vertex 1.530726e+002 7.943425e+001 1.436698e-013
      endloop
   endfacet
   facet normal 5.733939e-001 -8.192798e-001 0.000000e+000
      outer loop
         vertex 1.522338e+002 7.879063e+001 3.500000e+000
         vertex 1.530726e+002 7.943425e+001 1.436698e-013
         vertex 1.530726e+002 7.943425e+001 3.500000e+000
      endloop
   endfacet
   facet normal 4.228202e-001 -9.062136e-001 0.000000e+000
      outer loop
         vertex 1.530726e+002 7.943425e+001 3.500000e+000
         vertex 1.530726e+002 7.943425e+001 1.436698e-013
         vertex 1.540493e+002 7.983885e+001 1.436698e-013
      endloop
   endfacet
   facet normal 3.418108e-001 -9.397688e-001 0.000000e+000
      outer loop
         vertex 1.530726e+002 7.943425e+001 3.500000e+000
         vertex 1.540493e+002 7.983885e+001 1.436698e-013
         vertex 1.540493e+002 7.983885e+001 3.500000e+000
      endloop
   endfacet
   facet normal 1.738676e-001 -9.847690e-001 0.000000e+000
      outer loop
         vertex 1.540493e+002 7.983885e+001 3.500000e+000
         vertex 1.540493e+002 7.983885e+001 1.436698e-013
         vertex 1.550976e+002 7.997686e+001 1.436698e-013
      endloop
   endfacet
   facet normal 8.693379e-002 -9.962141e-001 0.000000e+000
      outer loop
         vertex 1.540493e+002 7.983885e+001 3.500000e+000
         vertex 1.550976e+002 7.997686e+001 1.436698e-013
         vertex 1.550976e+002 7.997686e+001 3.500000e+000
      endloop
   endfacet
   facet normal -6.033821e-016 -1.000000e+000 0.000000e+000
      outer loop
         vertex 1.595245e+002 7.997686e+001 3.500000e+000
         vertex 1.550976e+002 7.997686e+001 3.500000e+000
         vertex 1.595245e+002 7.997686e+001 2.500000e+000
      endloop
   endfacet
   facet normal -6.033821e-016 -1.000000e+000 0.000000e+000
      outer loop
         vertex 1.595245e+002 7.997686e+001 2.500000e+000
         vertex 1.550976e+002 7.997686e+001 3.500000e+000
         vertex 1.550976e+002 7.997686e+001 1.436698e-013
      endloop
   endfacet
   facet normal -6.033821e-016 -1.000000e+000 0.000000e+000
      outer loop
         vertex 1.595245e+002 7.997686e+001 2.500000e+000
         vertex 1.550976e+002 7.997686e+001 1.436698e-013
         vertex 1.608476e+002 7.997686e+001 2.500000e+000
      endloop
   endfacet
   facet normal -6.033821e-016 -1.000000e+000 0.000000e+000
      outer loop
         vertex 1.608476e+002 7.997686e+001 2.500000e+000
         vertex 1.550976e+002 7.997686e+001 1.436698e-013
         vertex 1.608476e+002 7.997686e+001 1.436698e-013
      endloop
   endfacet
   facet normal 1.000000e+000 0.000000e+000 0.000000e+000
      outer loop
         vertex 1.608476e+002 7.997686e+001 2.500000e+000
         vertex 1.608476e+002 7.997686e+001 1.436698e-013
         vertex 1.608476e+002 8.712685e+001 2.500000e+000
      endloop
   endfacet
   facet normal 1.000000e+000 0.000000e+000 0.000000e+000
      outer loop
         vertex 1.608476e+002 8.712685e+001 2.500000e+000
         vertex 1.608476e+002 7.997686e+001 1.436698e-013
         vertex 1.608476e+002 9.042686e+001 1.436698e-013
      endloop
   endfacet
   facet normal 1.000000e+000 0.000000e+000 0.000000e+000
      outer loop
         vertex 1.608476e+002 8.712685e+001 2.500000e+000
         vertex 1.608476e+002 9.042686e+001 1.436698e-013
         vertex 1.608476e+002 8.712685e+001 3.500000e+000
      endloop
   endfacet
   facet normal 1.000000e+000 0.000000e+000 0.000000e+000
      outer loop
         vertex 1.608476e+002 8.712685e+001 3.500000e+000
         vertex 1.608476e+002 9.042686e+001 1.436698e-013
         vertex 1.608476e+002 9.042686e+001 3.500000e+000
      endloop
   endfacet
   facet normal 0.000000e+000 1.000000e+000 0.000000e+000
      outer loop
         vertex 1.593475e+002 9.042686e+001 3.500000e+000
         vertex 1.608476e+002 9.042686e+001 3.500000e+000
         vertex 1.593475e+002 9.042686e+001 1.436698e-013
      endloop
   endfacet
   facet normal 0.000000e+000 1.000000e+000 0.000000e+000
      outer loop
         vertex 1.593475e+002 9.042686e+001 1.436698e-013
         vertex 1.608476e+002 9.042686e+001 3.500000e+000
         vertex 1.608476e+002 9.042686e+001 1.436698e-013
      endloop
   endfacet
   facet normal -2.527564e-001 9.675300e-001 0.000000e+000
      outer loop
         vertex 1.563476e+002 8.996625e+001 2.500000e+000
         vertex 1.563476e+002 8.996625e+001 3.500000e+000
         vertex 1.577832e+002 9.030373e+001 3.500000e+000
      endloop
   endfacet
   facet normal -2.558117e-001 9.667266e-001 0.000000e+000
      outer loop
         vertex 1.562574e+002 8.993742e+001 2.500000e+000
         vertex 1.563476e+002 8.996625e+001 2.500000e+000
         vertex 1.577832e+002 9.030373e+001 1.436698e-013
      endloop
   endfacet
   facet normal -2.588654e-001 9.659134e-001 0.000000e+000
      outer loop
         vertex 1.577832e+002 9.030373e+001 1.436698e-013
         vertex 1.562574e+002 8.993742e+001 1.436698e-013
         vertex 1.562574e+002 8.993742e+001 2.500000e+000
      endloop
   endfacet
   facet normal -3.583232e-001 9.335976e-001 0.000000e+000
      outer loop
         vertex 1.562574e+002 8.993742e+001 2.500000e+000
         vertex 1.562574e+002 8.993742e+001 1.436698e-013
         vertex 1.548076e+002 8.933691e+001 1.436698e-013
      endloop
   endfacet
   facet normal -4.067805e-001 9.135259e-001 0.000000e+000
      outer loop
         vertex 1.562574e+002 8.993742e+001 2.500000e+000
         vertex 1.548076e+002 8.933691e+001 1.436698e-013
         vertex 1.548076e+002 8.933691e+001 2.500000e+000
      endloop
   endfacet
   facet normal -4.999584e-001 8.660494e-001 0.000000e+000
      outer loop
         vertex 1.548076e+002 8.933691e+001 2.500000e+000
         vertex 1.548076e+002 8.933691e+001 1.436698e-013
         vertex 1.534697e+002 8.851703e+001 1.436698e-013
      endloop
   endfacet
   facet normal -5.446792e-001 8.386444e-001 0.000000e+000
      outer loop
         vertex 1.548076e+002 8.933691e+001 2.500000e+000
         vertex 1.534697e+002 8.851703e+001 1.436698e-013
         vertex 1.534697e+002 8.851703e+001 2.500000e+000
      endloop
   endfacet
   facet normal -6.292831e-001 7.771761e-001 0.000000e+000
      outer loop
         vertex 1.534697e+002 8.851703e+001 2.500000e+000
         vertex 1.534697e+002 8.851703e+001 1.436698e-013
         vertex 1.522765e+002 8.749792e+001 1.436698e-013
      endloop
   endfacet
   facet normal -6.691663e-001 7.431127e-001 0.000000e+000
      outer loop
         vertex 1.534697e+002 8.851703e+001 2.500000e+000
         vertex 1.522765e+002 8.749792e+001 1.436698e-013
         vertex 1.522765e+002 8.749792e+001 2.500000e+000
      endloop
   endfacet
   facet normal -7.431127e-001 6.691663e-001 0.000000e+000
      outer loop
         vertex 1.522765e+002 8.749792e+001 2.500000e+000
         vertex 1.522765e+002 8.749792e+001 1.436698e-013
         vertex 1.512574e+002 8.630470e+001 1.436698e-013
      endloop
   endfacet
   facet normal -7.771761e-001 6.292831e-001 0.000000e+000
      outer loop
         vertex 1.522765e+002 8.749792e+001 2.500000e+000
         vertex 1.512574e+002 8.630470e+001 1.436698e-013
         vertex 1.512574e+002 8.630470e+001 2.500000e+000
      endloop
   endfacet
   facet normal -8.386444e-001 5.446792e-001 0.000000e+000
      outer loop
         vertex 1.512574e+002 8.630470e+001 2.500000e+000
         vertex 1.512574e+002 8.630470e+001 1.436698e-013
         vertex 1.504375e+002 8.496676e+001 1.436698e-013
      endloop
   endfacet
   facet normal -8.660494e-001 4.999584e-001 0.000000e+000
      outer loop
         vertex 1.512574e+002 8.630470e+001 2.500000e+000
         vertex 1.504375e+002 8.496676e+001 1.436698e-013
         vertex 1.504375e+002 8.496676e+001 2.500000e+000
      endloop
   endfacet
   facet normal -9.135259e-001 4.067805e-001 0.000000e+000
      outer loop
         vertex 1.504375e+002 8.496676e+001 2.500000e+000
         vertex 1.504375e+002 8.496676e+001 1.436698e-013
         vertex 1.498370e+002 8.351702e+001 1.436698e-013
      endloop
   endfacet
   facet normal -9.335976e-001 3.583232e-001 0.000000e+000
      outer loop
         vertex 1.504375e+002 8.496676e+001 2.500000e+000
         vertex 1.498370e+002 8.351702e+001 1.436698e-013
         vertex 1.498370e+002 8.351702e+001 2.500000e+000
      endloop
   endfacet
   facet normal -9.659134e-001 2.588654e-001 0.000000e+000
      outer loop
         vertex 1.498370e+002 8.351702e+001 2.500000e+000
         vertex 1.498370e+002 8.351702e+001 1.436698e-013
         vertex 1.494707e+002 8.199120e+001 1.436698e-013
      endloop
   endfacet
   facet normal -9.781576e-001 2.078648e-001 0.000000e+000
      outer loop
         vertex 1.498370e+002 8.351702e+001 2.500000e+000
         vertex 1.494707e+002 8.199120e+001 1.436698e-013
         vertex 1.494707e+002 8.199120e+001 2.500000e+000
      endloop
   endfacet
   facet normal -9.945169e-001 1.045761e-001 0.000000e+000
      outer loop
         vertex 1.494707e+002 8.199120e+001 2.500000e+000
         vertex 1.494707e+002 8.199120e+001 1.436698e-013
         vertex 1.493476e+002 8.042685e+001 1.436698e-013
      endloop
   endfacet
   facet normal -9.986320e-001 5.228807e-002 0.000000e+000
      outer loop
         vertex 1.494707e+002 8.199120e+001 2.500000e+000
         vertex 1.493476e+002 8.042685e+001 1.436698e-013
         vertex 1.493476e+002 8.042685e+001 2.500000e+000
      endloop
   endfacet
   facet normal -2.047852e-001 9.788070e-001 0.000000e+000
      outer loop
         vertex 1.563476e+002 8.996625e+001 2.500000e+000
         vertex 1.577832e+002 9.030373e+001 3.500000e+000
         vertex 1.577832e+002 9.030373e+001 1.436698e-013
      endloop
   endfacet
   facet normal -1.045761e-001 9.945169e-001 0.000000e+000
      outer loop
         vertex 1.577832e+002 9.030373e+001 1.436698e-013
         vertex 1.577832e+002 9.030373e+001 3.500000e+000
         vertex 1.593475e+002 9.042686e+001 3.500000e+000
      endloop
   endfacet
   facet normal -5.228807e-002 9.986320e-001 0.000000e+000
      outer loop
         vertex 1.577832e+002 9.030373e+001 1.436698e-013
         vertex 1.593475e+002 9.042686e+001 3.500000e+000
         vertex 1.593475e+002 9.042686e+001 1.436698e-013
      endloop
   endfacet
   facet normal -1.000000e+000 0.000000e+000 0.000000e+000
      outer loop
         vertex 1.493476e+002 7.142686e+001 1.436698e-013
         vertex 1.493476e+002 7.142686e+001 2.500000e+000
         vertex 1.493476e+002 8.042685e+001 1.436698e-013
      endloop
   endfacet
   facet normal -1.000000e+000 0.000000e+000 0.000000e+000
      outer loop
         vertex 1.493476e+002 8.042685e+001 1.436698e-013
         vertex 1.493476e+002 7.142686e+001 2.500000e+000
         vertex 1.493476e+002 7.421294e+001 2.500000e+000
      endloop
   endfacet
   facet normal -1.000000e+000 0.000000e+000 0.000000e+000
      outer loop
         vertex 1.493476e+002 8.042685e+001 2.500000e+000
         vertex 1.493476e+002 8.042685e+001 1.436698e-013
         vertex 1.493476e+002 7.764076e+001 2.500000e+000
      endloop
   endfacet
   facet normal -1.000000e+000 0.000000e+000 0.000000e+000
      outer loop
         vertex 1.493476e+002 7.764076e+001 2.500000e+000
         vertex 1.493476e+002 8.042685e+001 1.436698e-013
         vertex 1.493476e+002 7.421294e+001 2.500000e+000
      endloop
   endfacet
   facet normal -1.000000e+000 0.000000e+000 0.000000e+000
      outer loop
         vertex 1.493476e+002 7.764076e+001 2.500000e+000
         vertex 1.493476e+002 7.421294e+001 2.500000e+000
         vertex 1.493476e+002 7.764076e+001 3.500000e+000
      endloop
   endfacet
   facet normal -1.000000e+000 0.000000e+000 0.000000e+000
      outer loop
         vertex 1.493476e+002 7.764076e+001 3.500000e+000
         vertex 1.493476e+002 7.421294e+001 2.500000e+000
         vertex 1.493476e+002 7.421294e+001 3.500000e+000
      endloop
   endfacet
   facet normal -9.986320e-001 -5.228807e-002 0.000000e+000
      outer loop
         vertex 1.493476e+002 7.142686e+001 2.500000e+000
         vertex 1.493476e+002 7.142686e+001 1.436698e-013
         vertex 1.494707e+002 6.986251e+001 1.436698e-013
      endloop
   endfacet
   facet normal -9.945169e-001 -1.045761e-001 0.000000e+000
      outer loop
         vertex 1.493476e+002 7.142686e+001 2.500000e+000
         vertex 1.494707e+002 6.986251e+001 1.436698e-013
         vertex 1.494707e+002 6.986251e+001 2.500000e+000
      endloop
   endfacet
   facet normal -9.781576e-001 -2.078648e-001 0.000000e+000
      outer loop
         vertex 1.494707e+002 6.986251e+001 2.500000e+000
         vertex 1.494707e+002 6.986251e+001 1.436698e-013
         vertex 1.498370e+002 6.833668e+001 1.436698e-013
      endloop
   endfacet
   facet normal -9.659134e-001 -2.588654e-001 0.000000e+000
      outer loop
         vertex 1.494707e+002 6.986251e+001 2.500000e+000
         vertex 1.498370e+002 6.833668e+001 1.436698e-013
         vertex 1.498370e+002 6.833668e+001 2.500000e+000
      endloop
   endfacet
   facet normal -9.335976e-001 -3.583232e-001 0.000000e+000
      outer loop
         vertex 1.498370e+002 6.833668e+001 2.500000e+000
         vertex 1.498370e+002 6.833668e+001 1.436698e-013
         vertex 1.504375e+002 6.688695e+001 1.436698e-013
      endloop
   endfacet
   facet normal -9.135259e-001 -4.067805e-001 0.000000e+000
      outer loop
         vertex 1.498370e+002 6.833668e+001 2.500000e+000
         vertex 1.504375e+002 6.688695e+001 1.436698e-013
         vertex 1.504375e+002 6.688695e+001 2.500000e+000
      endloop
   endfacet
   facet normal -8.660494e-001 -4.999584e-001 0.000000e+000
      outer loop
         vertex 1.504375e+002 6.688695e+001 2.500000e+000
         vertex 1.504375e+002 6.688695e+001 1.436698e-013
         vertex 1.512574e+002 6.554900e+001 1.436698e-013
      endloop
   endfacet
   facet normal -8.386444e-001 -5.446792e-001 0.000000e+000
      outer loop
         vertex 1.504375e+002 6.688695e+001 2.500000e+000
         vertex 1.512574e+002 6.554900e+001 1.436698e-013
         vertex 1.512574e+002 6.554900e+001 2.500000e+000
      endloop
   endfacet
   facet normal -7.771761e-001 -6.292831e-001 0.000000e+000
      outer loop
         vertex 1.512574e+002 6.554900e+001 2.500000e+000
         vertex 1.512574e+002 6.554900e+001 1.436698e-013
         vertex 1.522765e+002 6.435578e+001 1.436698e-013
      endloop
   endfacet
   facet normal -7.431127e-001 -6.691663e-001 0.000000e+000
      outer loop
         vertex 1.512574e+002 6.554900e+001 2.500000e+000
         vertex 1.522765e+002 6.435578e+001 1.436698e-013
         vertex 1.522765e+002 6.435578e+001 2.500000e+000
      endloop
   endfacet
   facet normal -6.691663e-001 -7.431127e-001 0.000000e+000
      outer loop
         vertex 1.522765e+002 6.435578e+001 2.500000e+000
         vertex 1.522765e+002 6.435578e+001 1.436698e-013
         vertex 1.534697e+002 6.333669e+001 1.436698e-013
      endloop
   endfacet
   facet normal -6.292831e-001 -7.771761e-001 0.000000e+000
      outer loop
         vertex 1.522765e+002 6.435578e+001 2.500000e+000
         vertex 1.534697e+002 6.333669e+001 1.436698e-013
         vertex 1.534697e+002 6.333669e+001 2.500000e+000
      endloop
   endfacet
   facet normal -5.446792e-001 -8.386444e-001 0.000000e+000
      outer loop
         vertex 1.534697e+002 6.333669e+001 2.500000e+000
         vertex 1.534697e+002 6.333669e+001 1.436698e-013
         vertex 1.548076e+002 6.251678e+001 1.436698e-013
      endloop
   endfacet
   facet normal -4.999584e-001 -8.660494e-001 0.000000e+000
      outer loop
         vertex 1.534697e+002 6.333669e+001 2.500000e+000
         vertex 1.548076e+002 6.251678e+001 1.436698e-013
         vertex 1.548076e+002 6.251678e+001 2.500000e+000
      endloop
   endfacet
   facet normal -4.067805e-001 -9.135259e-001 0.000000e+000
      outer loop
         vertex 1.548076e+002 6.251678e+001 2.500000e+000
         vertex 1.548076e+002 6.251678e+001 1.436698e-013
         vertex 1.562574e+002 6.191629e+001 1.436698e-013
      endloop
   endfacet
   facet normal -3.583232e-001 -9.335976e-001 0.000000e+000
      outer loop
         vertex 1.548076e+002 6.251678e+001 2.500000e+000
         vertex 1.562574e+002 6.191629e+001 1.436698e-013
         vertex 1.562574e+002 6.191629e+001 2.500000e+000
      endloop
   endfacet
   facet normal -3.060144e-001 -9.520269e-001 0.000000e+000
      outer loop
         vertex 1.562574e+002 6.191629e+001 2.500000e+000
         vertex 1.562574e+002 6.191629e+001 1.436698e-013
         vertex 1.563476e+002 6.188746e+001 2.500000e+000
      endloop
   endfacet
   facet normal -2.558117e-001 -9.667266e-001 0.000000e+000
      outer loop
         vertex 1.563476e+002 6.188746e+001 2.500000e+000
         vertex 1.562574e+002 6.191629e+001 1.436698e-013
         vertex 1.577832e+002 6.154997e+001 1.436698e-013
      endloop
   endfacet
   facet normal -2.527564e-001 -9.675300e-001 0.000000e+000
      outer loop
         vertex 1.563476e+002 6.188746e+001 2.500000e+000
         vertex 1.577832e+002 6.154997e+001 1.436698e-013
         vertex 1.563476e+002 6.188746e+001 3.500000e+000
      endloop
   endfacet
   facet normal -2.047852e-001 -9.788070e-001 0.000000e+000
      outer loop
         vertex 1.563476e+002 6.188746e+001 3.500000e+000
         vertex 1.577832e+002 6.154997e+001 1.436698e-013
         vertex 1.577832e+002 6.154997e+001 3.500000e+000
      endloop
   endfacet
   facet normal -1.045761e-001 -9.945169e-001 0.000000e+000
      outer loop
         vertex 1.577832e+002 6.154997e+001 3.500000e+000
         vertex 1.577832e+002 6.154997e+001 1.436698e-013
         vertex 1.593475e+002 6.142685e+001 1.436698e-013
      endloop
   endfacet
   facet normal -5.228807e-002 -9.986320e-001 0.000000e+000
      outer loop
         vertex 1.577832e+002 6.154997e+001 3.500000e+000
         vertex 1.593475e+002 6.142685e+001 1.436698e-013
         vertex 1.593475e+002 6.142685e+001 3.500000e+000
      endloop
   endfacet
   facet normal 0.000000e+000 -1.000000e+000 0.000000e+000
      outer loop
         vertex 1.608476e+002 6.142685e+001 3.500000e+000
         vertex 1.593475e+002 6.142685e+001 3.500000e+000
         vertex 1.608476e+002 6.142685e+001 1.436698e-013
      endloop
   endfacet
   facet normal 0.000000e+000 -1.000000e+000 0.000000e+000
      outer loop
         vertex 1.608476e+002 6.142685e+001 1.436698e-013
         vertex 1.593475e+002 6.142685e+001 3.500000e+000
         vertex 1.593475e+002 6.142685e+001 1.436698e-013
      endloop
   endfacet
   facet normal 0.000000e+000 0.000000e+000 1.000000e+000
      outer loop
         vertex 1.494707e+002 8.199120e+001 2.500000e+000
         vertex 1.493476e+002 8.042685e+001 2.500000e+000
         vertex 1.563476e+002 8.712685e+001 2.500000e+000
      endloop
   endfacet
   facet normal 0.000000e+000 0.000000e+000 1.000000e+000
      outer loop
         vertex 1.563476e+002 8.712685e+001 2.500000e+000
         vertex 1.563476e+002 8.996625e+001 2.500000e+000
         vertex 1.562574e+002 8.993742e+001 2.500000e+000
      endloop
   endfacet
   facet normal 0.000000e+000 0.000000e+000 1.000000e+000
      outer loop
         vertex 1.493476e+002 8.042685e+001 2.500000e+000
         vertex 1.493476e+002 7.764076e+001 2.500000e+000
         vertex 1.498343e+002 7.880752e+001 2.500000e+000
      endloop
   endfacet
   facet normal 0.000000e+000 0.000000e+000 1.000000e+000
      outer loop
         vertex 1.494707e+002 8.199120e+001 2.500000e+000
         vertex 1.563476e+002 8.712685e+001 2.500000e+000
         vertex 1.498370e+002 8.351702e+001 2.500000e+000
      endloop
   endfacet
   facet normal 0.000000e+000 0.000000e+000 1.000000e+000
      outer loop
         vertex 1.537552e+002 8.177477e+001 2.500000e+000
         vertex 1.550103e+002 8.192622e+001 2.500000e+000
         vertex 1.563476e+002 8.712685e+001 2.500000e+000
      endloop
   endfacet
   facet normal 0.000000e+000 0.000000e+000 1.000000e+000
      outer loop
         vertex 1.563476e+002 8.712685e+001 2.500000e+000
         vertex 1.550103e+002 8.192622e+001 2.500000e+000
         vertex 1.562693e+002 8.181133e+001 2.500000e+000
      endloop
   endfacet
   facet normal 0.000000e+000 0.000000e+000 1.000000e+000
      outer loop
         vertex 1.563476e+002 8.712685e+001 2.500000e+000
         vertex 1.562693e+002 8.181133e+001 2.500000e+000
         vertex 1.608476e+002 8.712685e+001 2.500000e+000
      endloop
   endfacet
   facet normal 0.000000e+000 0.000000e+000 1.000000e+000
      outer loop
         vertex 1.498343e+002 7.880752e+001 2.500000e+000
         vertex 1.505547e+002 7.984638e+001 2.500000e+000
         vertex 1.493476e+002 8.042685e+001 2.500000e+000
      endloop
   endfacet
   facet normal 0.000000e+000 0.000000e+000 1.000000e+000
      outer loop
         vertex 1.493476e+002 8.042685e+001 2.500000e+000
         vertex 1.505547e+002 7.984638e+001 2.500000e+000
         vertex 1.514768e+002 8.071124e+001 2.500000e+000
      endloop
   endfacet
   facet normal 0.000000e+000 0.000000e+000 1.000000e+000
      outer loop
         vertex 1.493476e+002 8.042685e+001 2.500000e+000
         vertex 1.514768e+002 8.071124e+001 2.500000e+000
         vertex 1.563476e+002 8.712685e+001 2.500000e+000
      endloop
   endfacet
   facet normal 0.000000e+000 0.000000e+000 1.000000e+000
      outer loop
         vertex 1.563476e+002 8.712685e+001 2.500000e+000
         vertex 1.514768e+002 8.071124e+001 2.500000e+000
         vertex 1.525597e+002 8.136369e+001 2.500000e+000
      endloop
   endfacet
   facet normal 0.000000e+000 0.000000e+000 1.000000e+000
      outer loop
         vertex 1.563476e+002 8.712685e+001 2.500000e+000
         vertex 1.525597e+002 8.136369e+001 2.500000e+000
         vertex 1.537552e+002 8.177477e+001 2.500000e+000
      endloop
   endfacet
   facet normal 0.000000e+000 0.000000e+000 1.000000e+000
      outer loop
         vertex 1.595245e+002 7.997686e+001 2.500000e+000
         vertex 1.608476e+002 7.997686e+001 2.500000e+000
         vertex 1.585776e+002 8.081452e+001 2.500000e+000
      endloop
   endfacet
   facet normal 0.000000e+000 0.000000e+000 1.000000e+000
      outer loop
         vertex 1.585776e+002 8.081452e+001 2.500000e+000
         vertex 1.608476e+002 7.997686e+001 2.500000e+000
         vertex 1.608476e+002 8.712685e+001 2.500000e+000
      endloop
   endfacet
   facet normal 0.000000e+000 0.000000e+000 1.000000e+000
      outer loop
         vertex 1.585776e+002 8.081452e+001 2.500000e+000
         vertex 1.608476e+002 8.712685e+001 2.500000e+000
         vertex 1.574762e+002 8.143520e+001 2.500000e+000
      endloop
   endfacet
   facet normal 0.000000e+000 0.000000e+000 1.000000e+000
      outer loop
         vertex 1.574762e+002 8.143520e+001 2.500000e+000
         vertex 1.608476e+002 8.712685e+001 2.500000e+000
         vertex 1.562693e+002 8.181133e+001 2.500000e+000
      endloop
   endfacet
   facet normal 0.000000e+000 0.000000e+000 1.000000e+000
      outer loop
         vertex 1.562574e+002 8.993742e+001 2.500000e+000
         vertex 1.548076e+002 8.933691e+001 2.500000e+000
         vertex 1.563476e+002 8.712685e+001 2.500000e+000
      endloop
   endfacet
   facet normal 0.000000e+000 0.000000e+000 1.000000e+000
      outer loop
         vertex 1.563476e+002 8.712685e+001 2.500000e+000
         vertex 1.548076e+002 8.933691e+001 2.500000e+000
         vertex 1.534697e+002 8.851703e+001 2.500000e+000
      endloop
   endfacet
   facet normal 0.000000e+000 0.000000e+000 1.000000e+000
      outer loop
         vertex 1.563476e+002 8.712685e+001 2.500000e+000
         vertex 1.534697e+002 8.851703e+001 2.500000e+000
         vertex 1.522765e+002 8.749792e+001 2.500000e+000
      endloop
   endfacet
   facet normal 0.000000e+000 0.000000e+000 1.000000e+000
      outer loop
         vertex 1.522765e+002 8.749792e+001 2.500000e+000
         vertex 1.512574e+002 8.630470e+001 2.500000e+000
         vertex 1.563476e+002 8.712685e+001 2.500000e+000
      endloop
   endfacet
   facet normal 0.000000e+000 0.000000e+000 1.000000e+000
      outer loop
         vertex 1.563476e+002 8.712685e+001 2.500000e+000
         vertex 1.512574e+002 8.630470e+001 2.500000e+000
         vertex 1.504375e+002 8.496676e+001 2.500000e+000
      endloop
   endfacet
   facet normal 0.000000e+000 0.000000e+000 1.000000e+000
      outer loop
         vertex 1.563476e+002 8.712685e+001 2.500000e+000
         vertex 1.504375e+002 8.496676e+001 2.500000e+000
         vertex 1.498370e+002 8.351702e+001 2.500000e+000
      endloop
   endfacet
   facet normal 0.000000e+000 0.000000e+000 -1.000000e+000
      outer loop
         vertex 1.593475e+002 9.042686e+001 1.436698e-013
         vertex 1.608476e+002 9.042686e+001 1.436698e-013
         vertex 1.608476e+002 7.997686e+001 1.436698e-013
      endloop
   endfacet
   facet normal 0.000000e+000 0.000000e+000 -1.000000e+000
      outer loop
         vertex 1.522765e+002 8.749792e+001 1.436698e-013
         vertex 1.534697e+002 8.851703e+001 1.436698e-013
         vertex 1.540493e+002 7.983885e+001 1.436698e-013
      endloop
   endfacet
   facet normal 0.000000e+000 0.000000e+000 -1.000000e+000
      outer loop
         vertex 1.540493e+002 7.983885e+001 1.436698e-013
         vertex 1.534697e+002 8.851703e+001 1.436698e-013
         vertex 1.550976e+002 7.997686e+001 1.436698e-013
      endloop
   endfacet
   facet normal 0.000000e+000 0.000000e+000 -1.000000e+000
      outer loop
         vertex 1.534697e+002 8.851703e+001 1.436698e-013
         vertex 1.548076e+002 8.933691e+001 1.436698e-013
         vertex 1.550976e+002 7.997686e+001 1.436698e-013
      endloop
   endfacet
   facet normal 0.000000e+000 0.000000e+000 -1.000000e+000
      outer loop
         vertex 1.550976e+002 7.997686e+001 1.436698e-013
         vertex 1.548076e+002 8.933691e+001 1.436698e-013
         vertex 1.562574e+002 8.993742e+001 1.436698e-013
      endloop
   endfacet
   facet normal 0.000000e+000 0.000000e+000 -1.000000e+000
      outer loop
         vertex 1.550976e+002 7.997686e+001 1.436698e-013
         vertex 1.562574e+002 8.993742e+001 1.436698e-013
         vertex 1.608476e+002 7.997686e+001 1.436698e-013
      endloop
   endfacet
   facet normal 0.000000e+000 0.000000e+000 -1.000000e+000
      outer loop
         vertex 1.608476e+002 7.997686e+001 1.436698e-013
         vertex 1.562574e+002 8.993742e+001 1.436698e-013
         vertex 1.577832e+002 9.030373e+001 1.436698e-013
      endloop
   endfacet
   facet normal 0.000000e+000 0.000000e+000 -1.000000e+000
      outer loop
         vertex 1.608476e+002 7.997686e+001 1.436698e-013
         vertex 1.577832e+002 9.030373e+001 1.436698e-013
         vertex 1.593475e+002 9.042686e+001 1.436698e-013
      endloop
   endfacet
   facet normal 0.000000e+000 0.000000e+000 -1.000000e+000
      outer loop
         vertex 1.530726e+002 7.943425e+001 1.436698e-013
         vertex 1.504375e+002 8.496676e+001 1.436698e-013
         vertex 1.540493e+002 7.983885e+001 1.436698e-013
      endloop
   endfacet
   facet normal 0.000000e+000 0.000000e+000 -1.000000e+000
      outer loop
         vertex 1.540493e+002 7.983885e+001 1.436698e-013
         vertex 1.504375e+002 8.496676e+001 1.436698e-013
         vertex 1.512574e+002 8.630470e+001 1.436698e-013
      endloop
   endfacet
   facet normal 0.000000e+000 0.000000e+000 -1.000000e+000
      outer loop
         vertex 1.540493e+002 7.983885e+001 1.436698e-013
         vertex 1.512574e+002 8.630470e+001 1.436698e-013
         vertex 1.522765e+002 8.749792e+001 1.436698e-013
      endloop
   endfacet
   facet normal 0.000000e+000 0.000000e+000 -1.000000e+000
      outer loop
         vertex 1.515901e+002 7.795186e+001 1.436698e-013
         vertex 1.493476e+002 8.042685e+001 1.436698e-013
         vertex 1.522338e+002 7.879063e+001 1.436698e-013
      endloop
   endfacet
   facet normal 0.000000e+000 0.000000e+000 -1.000000e+000
      outer loop
         vertex 1.522338e+002 7.879063e+001 1.436698e-013
         vertex 1.493476e+002 8.042685e+001 1.436698e-013
         vertex 1.494707e+002 8.199120e+001 1.436698e-013
      endloop
   endfacet
   facet normal 0.000000e+000 0.000000e+000 -1.000000e+000
      outer loop
         vertex 1.522338e+002 7.879063e+001 1.436698e-013
         vertex 1.494707e+002 8.199120e+001 1.436698e-013
         vertex 1.530726e+002 7.943425e+001 1.436698e-013
      endloop
   endfacet
   facet normal 0.000000e+000 0.000000e+000 -1.000000e+000
      outer loop
         vertex 1.530726e+002 7.943425e+001 1.436698e-013
         vertex 1.494707e+002 8.199120e+001 1.436698e-013
         vertex 1.498370e+002 8.351702e+001 1.436698e-013
      endloop
   endfacet
   facet normal 0.000000e+000 0.000000e+000 -1.000000e+000
      outer loop
         vertex 1.530726e+002 7.943425e+001 1.436698e-013
         vertex 1.498370e+002 8.351702e+001 1.436698e-013
         vertex 1.504375e+002 8.496676e+001 1.436698e-013
      endloop
   endfacet
   facet normal 0.000000e+000 0.000000e+000 -1.000000e+000
      outer loop
         vertex 1.515901e+002 7.795186e+001 1.436698e-013
         vertex 1.511856e+002 7.697507e+001 1.436698e-013
         vertex 1.493476e+002 8.042685e+001 1.436698e-013
      endloop
   endfacet
   facet normal 0.000000e+000 0.000000e+000 -1.000000e+000
      outer loop
         vertex 1.493476e+002 8.042685e+001 1.436698e-013
         vertex 1.511856e+002 7.697507e+001 1.436698e-013
         vertex 1.510476e+002 7.592686e+001 1.436698e-013
      endloop
   endfacet
   facet normal 0.000000e+000 0.000000e+000 -1.000000e+000
      outer loop
         vertex 1.493476e+002 8.042685e+001 1.436698e-013
         vertex 1.510476e+002 7.592686e+001 1.436698e-013
         vertex 1.493476e+002 7.142686e+001 1.436698e-013
      endloop
   endfacet
   facet normal 0.000000e+000 0.000000e+000 -1.000000e+000
      outer loop
         vertex 1.510476e+002 7.592686e+001 1.436698e-013
         vertex 1.511856e+002 7.487863e+001 1.436698e-013
         vertex 1.493476e+002 7.142686e+001 1.436698e-013
      endloop
   endfacet
   facet normal 0.000000e+000 0.000000e+000 -1.000000e+000
      outer loop
         vertex 1.493476e+002 7.142686e+001 1.436698e-013
         vertex 1.511856e+002 7.487863e+001 1.436698e-013
         vertex 1.515901e+002 7.390186e+001 1.436698e-013
      endloop
   endfacet
   facet normal 0.000000e+000 0.000000e+000 -1.000000e+000
      outer loop
         vertex 1.493476e+002 7.142686e+001 1.436698e-013
         vertex 1.515901e+002 7.390186e+001 1.436698e-013
         vertex 1.494707e+002 6.986251e+001 1.436698e-013
      endloop
   endfacet
   facet normal 0.000000e+000 0.000000e+000 -1.000000e+000
      outer loop
         vertex 1.494707e+002 6.986251e+001 1.436698e-013
         vertex 1.515901e+002 7.390186e+001 1.436698e-013
         vertex 1.522338e+002 7.306306e+001 1.436698e-013
      endloop
   endfacet
   facet normal 0.000000e+000 0.000000e+000 -1.000000e+000
      outer loop
         vertex 1.494707e+002 6.986251e+001 1.436698e-013
         vertex 1.522338e+002 7.306306e+001 1.436698e-013
         vertex 1.498370e+002 6.833668e+001 1.436698e-013
      endloop
   endfacet
   facet normal 0.000000e+000 0.000000e+000 -1.000000e+000
      outer loop
         vertex 1.498370e+002 6.833668e+001 1.436698e-013
         vertex 1.522338e+002 7.306306e+001 1.436698e-013
         vertex 1.530726e+002 7.241945e+001 1.436698e-013
      endloop
   endfacet
   facet normal 0.000000e+000 0.000000e+000 -1.000000e+000
      outer loop
         vertex 1.540493e+002 7.201485e+001 1.436698e-013
         vertex 1.512574e+002 6.554900e+001 1.436698e-013
         vertex 1.530726e+002 7.241945e+001 1.436698e-013
      endloop
   endfacet
   facet normal 0.000000e+000 0.000000e+000 -1.000000e+000
      outer loop
         vertex 1.530726e+002 7.241945e+001 1.436698e-013
         vertex 1.512574e+002 6.554900e+001 1.436698e-013
         vertex 1.504375e+002 6.688695e+001 1.436698e-013
      endloop
   endfacet
   facet normal 0.000000e+000 0.000000e+000 -1.000000e+000
      outer loop
         vertex 1.530726e+002 7.241945e+001 1.436698e-013
         vertex 1.504375e+002 6.688695e+001 1.436698e-013
         vertex 1.498370e+002 6.833668e+001 1.436698e-013
      endloop
   endfacet
   facet normal 0.000000e+000 0.000000e+000 -1.000000e+000
      outer loop
         vertex 1.608476e+002 7.187685e+001 1.436698e-013
         vertex 1.608476e+002 6.142685e+001 1.436698e-013
         vertex 1.593475e+002 6.142685e+001 1.436698e-013
      endloop
   endfacet
   facet normal 0.000000e+000 0.000000e+000 -1.000000e+000
      outer loop
         vertex 1.550976e+002 7.187685e+001 1.436698e-013
         vertex 1.534697e+002 6.333669e+001 1.436698e-013
         vertex 1.540493e+002 7.201485e+001 1.436698e-013
      endloop
   endfacet
   facet normal 0.000000e+000 0.000000e+000 -1.000000e+000
      outer loop
         vertex 1.540493e+002 7.201485e+001 1.436698e-013
         vertex 1.534697e+002 6.333669e+001 1.436698e-013
         vertex 1.522765e+002 6.435578e+001 1.436698e-013
      endloop
   endfacet
   facet normal 0.000000e+000 0.000000e+000 -1.000000e+000
      outer loop
         vertex 1.540493e+002 7.201485e+001 1.436698e-013
         vertex 1.522765e+002 6.435578e+001 1.436698e-013
         vertex 1.512574e+002 6.554900e+001 1.436698e-013
      endloop
   endfacet
   facet normal 0.000000e+000 0.000000e+000 -1.000000e+000
      outer loop
         vertex 1.593475e+002 6.142685e+001 1.436698e-013
         vertex 1.577832e+002 6.154997e+001 1.436698e-013
         vertex 1.608476e+002 7.187685e+001 1.436698e-013
      endloop
   endfacet
   facet normal 0.000000e+000 0.000000e+000 -1.000000e+000
      outer loop
         vertex 1.608476e+002 7.187685e+001 1.436698e-013
         vertex 1.577832e+002 6.154997e+001 1.436698e-013
         vertex 1.562574e+002 6.191629e+001 1.436698e-013
      endloop
   endfacet
   facet normal 0.000000e+000 0.000000e+000 -1.000000e+000
      outer loop
         vertex 1.608476e+002 7.187685e+001 1.436698e-013
         vertex 1.562574e+002 6.191629e+001 1.436698e-013
         vertex 1.550976e+002 7.187685e+001 1.436698e-013
      endloop
   endfacet
   facet normal 0.000000e+000 0.000000e+000 -1.000000e+000
      outer loop
         vertex 1.550976e+002 7.187685e+001 1.436698e-013
         vertex 1.562574e+002 6.191629e+001 1.436698e-013
         vertex 1.548076e+002 6.251678e+001 1.436698e-013
      endloop
   endfacet
   facet normal 0.000000e+000 0.000000e+000 -1.000000e+000
      outer loop
         vertex 1.550976e+002 7.187685e+001 1.436698e-013
         vertex 1.548076e+002 6.251678e+001 1.436698e-013
         vertex 1.534697e+002 6.333669e+001 1.436698e-013
      endloop
   endfacet
   facet normal 6.886195e-001 7.251229e-001 0.000000e+000
      outer loop
         vertex 1.595245e+002 7.997686e+001 3.500000e+000
         vertex 1.595245e+002 7.997686e+001 2.500000e+000
         vertex 1.585776e+002 8.081452e+001 2.500000e+000
      endloop
   endfacet
   facet normal 6.357545e-001 7.718913e-001 0.000000e+000
      outer loop
         vertex 1.595245e+002 7.997686e+001 3.500000e+000
         vertex 1.585776e+002 8.081452e+001 2.500000e+000
         vertex 1.585776e+002 8.081452e+001 3.500000e+000
      endloop
   endfacet
   facet normal 5.213988e-001 8.533131e-001 0.000000e+000
      outer loop
         vertex 1.585776e+002 8.081452e+001 3.500000e+000
         vertex 1.585776e+002 8.081452e+001 2.500000e+000
         vertex 1.574762e+002 8.143520e+001 2.500000e+000
      endloop
   endfacet
   facet normal 4.599080e-001 8.879666e-001 0.000000e+000
      outer loop
         vertex 1.585776e+002 8.081452e+001 3.500000e+000
         vertex 1.574762e+002 8.143520e+001 2.500000e+000
         vertex 1.574762e+002 8.143520e+001 3.500000e+000
      endloop
   endfacet
   facet normal 3.310304e-001 9.436201e-001 0.000000e+000
      outer loop
         vertex 1.574762e+002 8.143520e+001 3.500000e+000
         vertex 1.574762e+002 8.143520e+001 2.500000e+000
         vertex 1.562693e+002 8.181133e+001 2.500000e+000
      endloop
   endfacet
   facet normal 2.636436e-001 9.646202e-001 0.000000e+000
      outer loop
         vertex 1.574762e+002 8.143520e+001 3.500000e+000
         vertex 1.562693e+002 8.181133e+001 2.500000e+000
         vertex 1.562693e+002 8.181133e+001 3.500000e+000
      endloop
   endfacet
   facet normal 1.259657e-001 9.920346e-001 0.000000e+000
      outer loop
         vertex 1.562693e+002 8.181133e+001 3.500000e+000
         vertex 1.562693e+002 8.181133e+001 2.500000e+000
         vertex 1.550103e+002 8.192622e+001 2.500000e+000
      endloop
   endfacet
   facet normal 5.567458e-002 9.984490e-001 0.000000e+000
      outer loop
         vertex 1.562693e+002 8.181133e+001 3.500000e+000
         vertex 1.550103e+002 8.192622e+001 2.500000e+000
         vertex 1.550103e+002 8.192622e+001 3.500000e+000
      endloop
   endfacet
   facet normal -8.469133e-002 9.964072e-001 0.000000e+000
      outer loop
         vertex 1.550103e+002 8.192622e+001 3.500000e+000
         vertex 1.550103e+002 8.192622e+001 2.500000e+000
         vertex 1.537552e+002 8.177477e+001 2.500000e+000
      endloop
   endfacet
   facet normal -1.547661e-001 9.879512e-001 0.000000e+000
      outer loop
         vertex 1.550103e+002 8.192622e+001 3.500000e+000
         vertex 1.537552e+002 8.177477e+001 2.500000e+000
         vertex 1.537552e+002 8.177477e+001 3.500000e+000
      endloop
   endfacet
   facet normal -2.915884e-001 9.565439e-001 0.000000e+000
      outer loop
         vertex 1.537552e+002 8.177477e+001 3.500000e+000
         vertex 1.537552e+002 8.177477e+001 2.500000e+000
         vertex 1.525597e+002 8.136369e+001 2.500000e+000
      endloop
   endfacet
   facet normal -3.583359e-001 9.335927e-001 0.000000e+000
      outer loop
         vertex 1.537552e+002 8.177477e+001 3.500000e+000
         vertex 1.525597e+002 8.136369e+001 2.500000e+000
         vertex 1.525597e+002 8.136369e+001 3.500000e+000
      endloop
   endfacet
   facet normal -4.855403e-001 8.742143e-001 0.000000e+000
      outer loop
         vertex 1.525597e+002 8.136369e+001 3.500000e+000
         vertex 1.525597e+002 8.136369e+001 2.500000e+000
         vertex 1.514768e+002 8.071124e+001 2.500000e+000
      endloop
   endfacet
   facet normal -5.459972e-001 8.377870e-001 0.000000e+000
      outer loop
         vertex 1.525597e+002 8.136369e+001 3.500000e+000
         vertex 1.514768e+002 8.071124e+001 2.500000e+000
         vertex 1.514768e+002 8.071124e+001 3.500000e+000
      endloop
   endfacet
   facet normal -6.579363e-001 7.530735e-001 0.000000e+000
      outer loop
         vertex 1.514768e+002 8.071124e+001 3.500000e+000
         vertex 1.514768e+002 8.071124e+001 2.500000e+000
         vertex 1.505547e+002 7.984638e+001 2.500000e+000
      endloop
   endfacet
   facet normal -7.094187e-001 7.047874e-001 0.000000e+000
      outer loop
         vertex 1.514768e+002 8.071124e+001 3.500000e+000
         vertex 1.505547e+002 7.984638e+001 2.500000e+000
         vertex 1.505547e+002 7.984638e+001 3.500000e+000
      endloop
   endfacet
   facet normal -8.011230e-001 5.984998e-001 0.000000e+000
      outer loop
         vertex 1.505547e+002 7.984638e+001 3.500000e+000
         vertex 1.505547e+002 7.984638e+001 2.500000e+000
         vertex 1.498343e+002 7.880752e+001 2.500000e+000
      endloop
   endfacet
   facet normal -8.413451e-001 5.404983e-001 0.000000e+000
      outer loop
         vertex 1.505547e+002 7.984638e+001 3.500000e+000
         vertex 1.498343e+002 7.880752e+001 2.500000e+000
         vertex 1.498343e+002 7.880752e+001 3.500000e+000
      endloop
   endfacet
   facet normal -9.087434e-001 4.173551e-001 0.000000e+000
      outer loop
         vertex 1.498343e+002 7.880752e+001 3.500000e+000
         vertex 1.498343e+002 7.880752e+001 2.500000e+000
         vertex 1.493476e+002 7.764076e+001 2.500000e+000
      endloop
   endfacet
   facet normal -9.359197e-001 3.522135e-001 0.000000e+000
      outer loop
         vertex 1.498343e+002 7.880752e+001 3.500000e+000
         vertex 1.493476e+002 7.764076e+001 2.500000e+000
         vertex 1.493476e+002 7.764076e+001 3.500000e+000
      endloop
   endfacet
   facet normal -9.359197e-001 -3.522135e-001 0.000000e+000
      outer loop
         vertex 1.493476e+002 7.421294e+001 3.500000e+000
         vertex 1.493476e+002 7.421294e+001 2.500000e+000
         vertex 1.498343e+002 7.304619e+001 2.500000e+000
      endloop
   endfacet
   facet normal -9.087434e-001 -4.173552e-001 0.000000e+000
      outer loop
         vertex 1.493476e+002 7.421294e+001 3.500000e+000
         vertex 1.498343e+002 7.304619e+001 2.500000e+000
         vertex 1.498343e+002 7.304619e+001 3.500000e+000
      endloop
   endfacet
   facet normal -8.413451e-001 -5.404983e-001 0.000000e+000
      outer loop
         vertex 1.498343e+002 7.304619e+001 3.500000e+000
         vertex 1.498343e+002 7.304619e+001 2.500000e+000
         vertex 1.505547e+002 7.200733e+001 2.500000e+000
      endloop
   endfacet
   facet normal -8.011230e-001 -5.984997e-001 0.000000e+000
      outer loop
         vertex 1.498343e+002 7.304619e+001 3.500000e+000
         vertex 1.505547e+002 7.200733e+001 2.500000e+000
         vertex 1.505547e+002 7.200733e+001 3.500000e+000
      endloop
   endfacet
   facet normal -7.094187e-001 -7.047874e-001 0.000000e+000
      outer loop
         vertex 1.505547e+002 7.200733e+001 3.500000e+000
         vertex 1.505547e+002 7.200733e+001 2.500000e+000
         vertex 1.514768e+002 7.114247e+001 2.500000e+000
      endloop
   endfacet
   facet normal -6.579363e-001 -7.530735e-001 0.000000e+000
      outer loop
         vertex 1.505547e+002 7.200733e+001 3.500000e+000
         vertex 1.514768e+002 7.114247e+001 2.500000e+000
         vertex 1.514768e+002 7.114247e+001 3.500000e+000
      endloop
   endfacet
   facet normal -5.459972e-001 -8.377870e-001 0.000000e+000
      outer loop
         vertex 1.514768e+002 7.114247e+001 3.500000e+000
         vertex 1.514768e+002 7.114247e+001 2.500000e+000
         vertex 1.525597e+002 7.049003e+001 2.500000e+000
      endloop
   endfacet
   facet normal -4.855403e-001 -8.742143e-001 0.000000e+000
      outer loop
         vertex 1.514768e+002 7.114247e+001 3.500000e+000
         vertex 1.525597e+002 7.049003e+001 2.500000e+000
         vertex 1.525597e+002 7.049003e+001 3.500000e+000
      endloop
   endfacet
   facet normal -3.583359e-001 -9.335927e-001 0.000000e+000
      outer loop
         vertex 1.525597e+002 7.049003e+001 3.500000e+000
         vertex 1.525597e+002 7.049003e+001 2.500000e+000
         vertex 1.537552e+002 7.007895e+001 2.500000e+000
      endloop
   endfacet
   facet normal -2.915884e-001 -9.565439e-001 0.000000e+000
      outer loop
         vertex 1.525597e+002 7.049003e+001 3.500000e+000
         vertex 1.537552e+002 7.007895e+001 2.500000e+000
         vertex 1.537552e+002 7.007895e+001 3.500000e+000
      endloop
   endfacet
   facet normal -1.547661e-001 -9.879512e-001 0.000000e+000
      outer loop
         vertex 1.537552e+002 7.007895e+001 3.500000e+000
         vertex 1.537552e+002 7.007895e+001 2.500000e+000
         vertex 1.550103e+002 6.992749e+001 2.500000e+000
      endloop
   endfacet
   facet normal -8.469133e-002 -9.964072e-001 0.000000e+000
      outer loop
         vertex 1.537552e+002 7.007895e+001 3.500000e+000
         vertex 1.550103e+002 6.992749e+001 2.500000e+000
         vertex 1.550103e+002 6.992749e+001 3.500000e+000
      endloop
   endfacet
   facet normal 5.567458e-002 -9.984490e-001 0.000000e+000
      outer loop
         vertex 1.550103e+002 6.992749e+001 3.500000e+000
         vertex 1.550103e+002 6.992749e+001 2.500000e+000
         vertex 1.562693e+002 7.004237e+001 2.500000e+000
      endloop
   endfacet
   facet normal 1.259657e-001 -9.920346e-001 0.000000e+000
      outer loop
         vertex 1.550103e+002 6.992749e+001 3.500000e+000
         vertex 1.562693e+002 7.004237e+001 2.500000e+000
         vertex 1.562693e+002 7.004237e+001 3.500000e+000
      endloop
   endfacet
   facet normal 2.636436e-001 -9.646202e-001 0.000000e+000
      outer loop
         vertex 1.562693e+002 7.004237e+001 3.500000e+000
         vertex 1.562693e+002 7.004237e+001 2.500000e+000
         vertex 1.574762e+002 7.041851e+001 2.500000e+000
      endloop
   endfacet
   facet normal 3.310303e-001 -9.436201e-001 0.000000e+000
      outer loop
         vertex 1.562693e+002 7.004237e+001 3.500000e+000
         vertex 1.574762e+002 7.041851e+001 2.500000e+000
         vertex 1.574762e+002 7.041851e+001 3.500000e+000
      endloop
   endfacet
   facet normal 4.599080e-001 -8.879666e-001 0.000000e+000
      outer loop
         vertex 1.574762e+002 7.041851e+001 3.500000e+000
         vertex 1.574762e+002 7.041851e+001 2.500000e+000
         vertex 1.585776e+002 7.103918e+001 2.500000e+000
      endloop
   endfacet
   facet normal 5.213988e-001 -8.533131e-001 0.000000e+000
      outer loop
         vertex 1.574762e+002 7.041851e+001 3.500000e+000
         vertex 1.585776e+002 7.103918e+001 2.500000e+000
         vertex 1.585776e+002 7.103918e+001 3.500000e+000
      endloop
   endfacet
   facet normal 6.357546e-001 -7.718913e-001 0.000000e+000
      outer loop
         vertex 1.585776e+002 7.103918e+001 3.500000e+000
         vertex 1.585776e+002 7.103918e+001 2.500000e+000
         vertex 1.595245e+002 7.187685e+001 2.500000e+000
      endloop
   endfacet
   facet normal 6.886195e-001 -7.251229e-001 0.000000e+000
      outer loop
         vertex 1.585776e+002 7.103918e+001 3.500000e+000
         vertex 1.595245e+002 7.187685e+001 2.500000e+000
         vertex 1.595245e+002 7.187685e+001 3.500000e+000
      endloop
   endfacet
   facet normal 0.000000e+000 0.000000e+000 1.000000e+000
      outer loop
         vertex 1.522338e+002 7.306306e+001 3.500000e+000
         vertex 1.505547e+002 7.200733e+001 3.500000e+000
         vertex 1.514768e+002 7.114247e+001 3.500000e+000
      endloop
   endfacet
   facet normal 0.000000e+000 0.000000e+000 1.000000e+000
      outer loop
         vertex 1.574762e+002 8.143520e+001 3.500000e+000
         vertex 1.550976e+002 7.997686e+001 3.500000e+000
         vertex 1.585776e+002 8.081452e+001 3.500000e+000
      endloop
   endfacet
   facet normal 0.000000e+000 0.000000e+000 1.000000e+000
      outer loop
         vertex 1.585776e+002 8.081452e+001 3.500000e+000
         vertex 1.550976e+002 7.997686e+001 3.500000e+000
         vertex 1.595245e+002 7.997686e+001 3.500000e+000
      endloop
   endfacet
   facet normal 0.000000e+000 0.000000e+000 1.000000e+000
      outer loop
         vertex 1.574762e+002 8.143520e+001 3.500000e+000
         vertex 1.562693e+002 8.181133e+001 3.500000e+000
         vertex 1.550976e+002 7.997686e+001 3.500000e+000
      endloop
   endfacet
   facet normal 0.000000e+000 0.000000e+000 1.000000e+000
      outer loop
         vertex 1.550976e+002 7.997686e+001 3.500000e+000
         vertex 1.562693e+002 8.181133e+001 3.500000e+000
         vertex 1.550103e+002 8.192622e+001 3.500000e+000
      endloop
   endfacet
   facet normal 0.000000e+000 0.000000e+000 1.000000e+000
      outer loop
         vertex 1.550976e+002 7.997686e+001 3.500000e+000
         vertex 1.550103e+002 8.192622e+001 3.500000e+000
         vertex 1.540493e+002 7.983885e+001 3.500000e+000
      endloop
   endfacet
   facet normal 0.000000e+000 0.000000e+000 1.000000e+000
      outer loop
         vertex 1.540493e+002 7.983885e+001 3.500000e+000
         vertex 1.550103e+002 8.192622e+001 3.500000e+000
         vertex 1.537552e+002 8.177477e+001 3.500000e+000
      endloop
   endfacet
   facet normal 0.000000e+000 0.000000e+000 1.000000e+000
      outer loop
         vertex 1.540493e+002 7.983885e+001 3.500000e+000
         vertex 1.537552e+002 8.177477e+001 3.500000e+000
         vertex 1.530726e+002 7.943425e+001 3.500000e+000
      endloop
   endfacet
   facet normal 0.000000e+000 0.000000e+000 1.000000e+000
      outer loop
         vertex 1.522338e+002 7.306306e+001 3.500000e+000
         vertex 1.514768e+002 7.114247e+001 3.500000e+000
         vertex 1.530726e+002 7.241945e+001 3.500000e+000
      endloop
   endfacet
   facet normal 0.000000e+000 0.000000e+000 1.000000e+000
      outer loop
         vertex 1.530726e+002 7.241945e+001 3.500000e+000
         vertex 1.514768e+002 7.114247e+001 3.500000e+000
         vertex 1.525597e+002 7.049003e+001 3.500000e+000
      endloop
   endfacet
   facet normal 0.000000e+000 0.000000e+000 1.000000e+000
      outer loop
         vertex 1.530726e+002 7.241945e+001 3.500000e+000
         vertex 1.525597e+002 7.049003e+001 3.500000e+000
         vertex 1.540493e+002 7.201485e+001 3.500000e+000
      endloop
   endfacet
   facet normal 0.000000e+000 0.000000e+000 1.000000e+000
      outer loop
         vertex 1.540493e+002 7.201485e+001 3.500000e+000
         vertex 1.525597e+002 7.049003e+001 3.500000e+000
         vertex 1.537552e+002 7.007895e+001 3.500000e+000
      endloop
   endfacet
   facet normal 0.000000e+000 0.000000e+000 1.000000e+000
      outer loop
         vertex 1.540493e+002 7.201485e+001 3.500000e+000
         vertex 1.537552e+002 7.007895e+001 3.500000e+000
         vertex 1.550976e+002 7.187685e+001 3.500000e+000
      endloop
   endfacet
   facet normal 0.000000e+000 0.000000e+000 1.000000e+000
      outer loop
         vertex 1.550976e+002 7.187685e+001 3.500000e+000
         vertex 1.537552e+002 7.007895e+001 3.500000e+000
         vertex 1.550103e+002 6.992749e+001 3.500000e+000
      endloop
   endfacet
   facet normal 0.000000e+000 0.000000e+000 1.000000e+000
      outer loop
         vertex 1.550976e+002 7.187685e+001 3.500000e+000
         vertex 1.550103e+002 6.992749e+001 3.500000e+000
         vertex 1.562693e+002 7.004237e+001 3.500000e+000
      endloop
   endfacet
   facet normal 0.000000e+000 0.000000e+000 1.000000e+000
      outer loop
         vertex 1.562693e+002 7.004237e+001 3.500000e+000
         vertex 1.574762e+002 7.041851e+001 3.500000e+000
         vertex 1.550976e+002 7.187685e+001 3.500000e+000
      endloop
   endfacet
   facet normal 0.000000e+000 0.000000e+000 1.000000e+000
      outer loop
         vertex 1.550976e+002 7.187685e+001 3.500000e+000
         vertex 1.574762e+002 7.041851e+001 3.500000e+000
         vertex 1.585776e+002 7.103918e+001 3.500000e+000
      endloop
   endfacet
   facet normal 0.000000e+000 0.000000e+000 1.000000e+000
      outer loop
         vertex 1.550976e+002 7.187685e+001 3.500000e+000
         vertex 1.585776e+002 7.103918e+001 3.500000e+000
         vertex 1.595245e+002 7.187685e+001 3.500000e+000
      endloop
   endfacet
   facet normal 0.000000e+000 0.000000e+000 1.000000e+000
      outer loop
         vertex 1.505547e+002 7.200733e+001 3.500000e+000
         vertex 1.522338e+002 7.306306e+001 3.500000e+000
         vertex 1.498343e+002 7.304619e+001 3.500000e+000
      endloop
   endfacet
   facet normal 0.000000e+000 0.000000e+000 1.000000e+000
      outer loop
         vertex 1.498343e+002 7.304619e+001 3.500000e+000
         vertex 1.522338e+002 7.306306e+001 3.500000e+000
         vertex 1.515901e+002 7.390186e+001 3.500000e+000
      endloop
   endfacet
   facet normal 0.000000e+000 0.000000e+000 1.000000e+000
      outer loop
         vertex 1.498343e+002 7.304619e+001 3.500000e+000
         vertex 1.515901e+002 7.390186e+001 3.500000e+000
         vertex 1.493476e+002 7.421294e+001 3.500000e+000
      endloop
   endfacet
   facet normal 0.000000e+000 0.000000e+000 1.000000e+000
      outer loop
         vertex 1.515901e+002 7.390186e+001 3.500000e+000
         vertex 1.511856e+002 7.487863e+001 3.500000e+000
         vertex 1.493476e+002 7.421294e+001 3.500000e+000
      endloop
   endfacet
   facet normal 0.000000e+000 0.000000e+000 1.000000e+000
      outer loop
         vertex 1.493476e+002 7.421294e+001 3.500000e+000
         vertex 1.511856e+002 7.487863e+001 3.500000e+000
         vertex 1.510476e+002 7.592686e+001 3.500000e+000
      endloop
   endfacet
   facet normal 0.000000e+000 0.000000e+000 1.000000e+000
      outer loop
         vertex 1.493476e+002 7.421294e+001 3.500000e+000
         vertex 1.510476e+002 7.592686e+001 3.500000e+000
         vertex 1.493476e+002 7.764076e+001 3.500000e+000
      endloop
   endfacet
   facet normal 0.000000e+000 0.000000e+000 1.000000e+000
      outer loop
         vertex 1.493476e+002 7.764076e+001 3.500000e+000
         vertex 1.510476e+002 7.592686e+001 3.500000e+000
         vertex 1.511856e+002 7.697507e+001 3.500000e+000
      endloop
   endfacet
   facet normal 0.000000e+000 0.000000e+000 1.000000e+000
      outer loop
         vertex 1.493476e+002 7.764076e+001 3.500000e+000
         vertex 1.511856e+002 7.697507e+001 3.500000e+000
         vertex 1.498343e+002 7.880752e+001 3.500000e+000
      endloop
   endfacet
   facet normal 0.000000e+000 0.000000e+000 1.000000e+000
      outer loop
         vertex 1.498343e+002 7.880752e+001 3.500000e+000
         vertex 1.511856e+002 7.697507e+001 3.500000e+000
         vertex 1.515901e+002 7.795186e+001 3.500000e+000
      endloop
   endfacet
   facet normal 0.000000e+000 0.000000e+000 1.000000e+000
      outer loop
         vertex 1.498343e+002 7.880752e+001 3.500000e+000
         vertex 1.515901e+002 7.795186e+001 3.500000e+000
         vertex 1.505547e+002 7.984638e+001 3.500000e+000
      endloop
   endfacet
   facet normal 0.000000e+000 0.000000e+000 1.000000e+000
      outer loop
         vertex 1.505547e+002 7.984638e+001 3.500000e+000
         vertex 1.515901e+002 7.795186e+001 3.500000e+000
         vertex 1.522338e+002 7.879063e+001 3.500000e+000
      endloop
   endfacet
   facet normal 0.000000e+000 0.000000e+000 1.000000e+000
      outer loop
         vertex 1.505547e+002 7.984638e+001 3.500000e+000
         vertex 1.522338e+002 7.879063e+001 3.500000e+000
         vertex 1.514768e+002 8.071124e+001 3.500000e+000
      endloop
   endfacet
   facet normal 0.000000e+000 0.000000e+000 1.000000e+000
      outer loop
         vertex 1.514768e+002 8.071124e+001 3.500000e+000
         vertex 1.522338e+002 7.879063e+001 3.500000e+000
         vertex 1.530726e+002 7.943425e+001 3.500000e+000
      endloop
   endfacet
   facet normal 0.000000e+000 0.000000e+000 1.000000e+000
      outer loop
         vertex 1.514768e+002 8.071124e+001 3.500000e+000
         vertex 1.530726e+002 7.943425e+001 3.500000e+000
         vertex 1.525597e+002 8.136369e+001 3.500000e+000
      endloop
   endfacet
   facet normal 0.000000e+000 0.000000e+000 1.000000e+000
      outer loop
         vertex 1.525597e+002 8.136369e+001 3.500000e+000
         vertex 1.530726e+002 7.943425e+001 3.500000e+000
         vertex 1.537552e+002 8.177477e+001 3.500000e+000
      endloop
   endfacet
   facet normal -1.000000e+000 0.000000e+000 0.000000e+000
      outer loop
         vertex 1.563476e+002 8.712685e+001 3.500000e+000
         vertex 1.563476e+002 8.996625e+001 3.500000e+000
         vertex 1.563476e+002 8.712685e+001 2.500000e+000
      endloop
   endfacet
   facet normal -1.000000e+000 0.000000e+000 0.000000e+000
      outer loop
         vertex 1.563476e+002 8.712685e+001 2.500000e+000
         vertex 1.563476e+002 8.996625e+001 3.500000e+000
         vertex 1.563476e+002 8.996625e+001 2.500000e+000
      endloop
   endfacet
   facet normal -3.854941e-016 -1.000000e+000 0.000000e+000
      outer loop
         vertex 1.608476e+002 8.712685e+001 3.500000e+000
         vertex 1.563476e+002 8.712685e+001 3.500000e+000
         vertex 1.608476e+002 8.712685e+001 2.500000e+000
      endloop
   endfacet
   facet normal -3.854941e-016 -1.000000e+000 0.000000e+000
      outer loop
         vertex 1.608476e+002 8.712685e+001 2.500000e+000
         vertex 1.563476e+002 8.712685e+001 3.500000e+000
         vertex 1.563476e+002 8.712685e+001 2.500000e+000
      endloop
   endfacet
   facet normal 0.000000e+000 0.000000e+000 1.000000e+000
      outer loop
         vertex 1.563476e+002 8.996625e+001 3.500000e+000
         vertex 1.563476e+002 8.712685e+001 3.500000e+000
         vertex 1.577832e+002 9.030373e+001 3.500000e+000
      endloop
   endfacet
   facet normal 0.000000e+000 0.000000e+000 1.000000e+000
      outer loop
         vertex 1.577832e+002 9.030373e+001 3.500000e+000
         vertex 1.563476e+002 8.712685e+001 3.500000e+000
         vertex 1.608476e+002 8.712685e+001 3.500000e+000
      endloop
   endfacet
   facet normal 0.000000e+000 0.000000e+000 1.000000e+000
      outer loop
         vertex 1.577832e+002 9.030373e+001 3.500000e+000
         vertex 1.608476e+002 8.712685e+001 3.500000e+000
         vertex 1.593475e+002 9.042686e+001 3.500000e+000
      endloop
   endfacet
   facet normal 0.000000e+000 0.000000e+000 1.000000e+000
      outer loop
         vertex 1.593475e+002 9.042686e+001 3.500000e+000
         vertex 1.608476e+002 8.712685e+001 3.500000e+000
         vertex 1.608476e+002 9.042686e+001 3.500000e+000
      endloop
   endfacet
   facet normal -1.000000e+000 0.000000e+000 0.000000e+000
      outer loop
         vertex 1.563476e+002 6.188746e+001 3.500000e+000
         vertex 1.563476e+002 6.472685e+001 3.500000e+000
         vertex 1.563476e+002 6.188746e+001 2.500000e+000
      endloop
   endfacet
   facet normal -1.000000e+000 0.000000e+000 0.000000e+000
      outer loop
         vertex 1.563476e+002 6.188746e+001 2.500000e+000
         vertex 1.563476e+002 6.472685e+001 3.500000e+000
         vertex 1.563476e+002 6.472685e+001 2.500000e+000
      endloop
   endfacet
   facet normal -3.854941e-016 1.000000e+000 0.000000e+000
      outer loop
         vertex 1.563476e+002 6.472685e+001 3.500000e+000
         vertex 1.608476e+002 6.472685e+001 3.500000e+000
         vertex 1.563476e+002 6.472685e+001 2.500000e+000
      endloop
   endfacet
   facet normal -3.854941e-016 1.000000e+000 0.000000e+000
      outer loop
         vertex 1.563476e+002 6.472685e+001 2.500000e+000
         vertex 1.608476e+002 6.472685e+001 3.500000e+000
         vertex 1.608476e+002 6.472685e+001 2.500000e+000
      endloop
   endfacet
   facet normal 0.000000e+000 0.000000e+000 1.000000e+000
      outer loop
         vertex 1.593475e+002 6.142685e+001 3.500000e+000
         vertex 1.608476e+002 6.142685e+001 3.500000e+000
         vertex 1.608476e+002 6.472685e+001 3.500000e+000
      endloop
   endfacet
   facet normal 0.000000e+000 0.000000e+000 1.000000e+000
      outer loop
         vertex 1.593475e+002 6.142685e+001 3.500000e+000
         vertex 1.608476e+002 6.472685e+001 3.500000e+000
         vertex 1.577832e+002 6.154997e+001 3.500000e+000
      endloop
   endfacet
   facet normal 0.000000e+000 0.000000e+000 1.000000e+000
      outer loop
         vertex 1.577832e+002 6.154997e+001 3.500000e+000
         vertex 1.608476e+002 6.472685e+001 3.500000e+000
         vertex 1.563476e+002 6.472685e+001 3.500000e+000
      endloop
   endfacet
   facet normal 0.000000e+000 0.000000e+000 1.000000e+000
      outer loop
         vertex 1.577832e+002 6.154997e+001 3.500000e+000
         vertex 1.563476e+002 6.472685e+001 3.500000e+000
         vertex 1.563476e+002 6.188746e+001 3.500000e+000
      endloop
   endfacet
endsolid