solid OpenSCAD_Model
  facet normal -1 0 0
    outer loop
      vertex 0 0 0
      vertex 0 0 3
      vertex 0 30 0
    endloop
  endfacet
  facet normal -1 0 0
    outer loop
      vertex 0 30 0
      vertex 0 0 3
      vertex 0 30 3
    endloop
  endfacet
  facet normal 0 -1 0
    outer loop
      vertex 0 0 3
      vertex 0 0 0
      vertex 30 0 0
    endloop
  endfacet
  facet normal 0 -1 0
    outer loop
      vertex 30 0 3
      vertex 0 0 3
      vertex 30 0 0
    endloop
  endfacet
  facet normal 0 0 -1
    outer loop
      vertex 5 5 0
      vertex 25 5 0
      vertex 30 0 0
    endloop
  endfacet
  facet normal 0 0 -1
    outer loop
      vertex 5 25 0
      vertex 0 30 0
      vertex 30 30 0
    endloop
  endfacet
  facet normal 0 0 -1
    outer loop
      vertex 0 0 0
      vertex 0 30 0
      vertex 5 25 0
    endloop
  endfacet
  facet normal 0 0 -1
    outer loop
      vertex 25 25 0
      vertex 5 25 0
      vertex 30 30 0
    endloop
  endfacet
  facet normal 0 0 -1
    outer loop
      vertex 0 0 0
      vertex 5 25 0
      vertex 5 5 0
    endloop
  endfacet
  facet normal 0 0 -1
    outer loop
      vertex 0 0 0
      vertex 5 5 0
      vertex 30 0 0
    endloop
  endfacet
  facet normal 0 0 -1
    outer loop
      vertex 30 0 0
      vertex 25 5 0
      vertex 30 30 0
    endloop
  endfacet
  facet normal 0 0 -1
    outer loop
      vertex 25 5 0
      vertex 25 25 0
      vertex 30 30 0
    endloop
  endfacet
  facet normal 0 1 0
    outer loop
      vertex 0 30 0
      vertex 0 30 3
      vertex 30 30 0
    endloop
  endfacet
  facet normal 0 1 0
    outer loop
      vertex 30 30 0
      vertex 0 30 3
      vertex 30 30 3
    endloop
  endfacet
  facet normal 0 0 1
    outer loop
      vertex 5 5 3
      vertex 0 0 3
      vertex 30 0 3
    endloop
  endfacet
  facet normal 0 0 1
    outer loop
      vertex 5 25 3
      vertex 0 30 3
      vertex 5 5 3
    endloop
  endfacet
  facet normal 0 0 1
    outer loop
      vertex 25 5 3
      vertex 5 5 3
      vertex 30 0 3
    endloop
  endfacet
  facet normal 0 0 1
    outer loop
      vertex 0 30 3
      vertex 0 0 3
      vertex 5 5 3
    endloop
  endfacet
  facet normal 0 0 1
    outer loop
      vertex 30 30 3
      vertex 0 30 3
      vertex 5 25 3
    endloop
  endfacet
  facet normal 0 0 1
    outer loop
      vertex 30 30 3
      vertex 25 25 3
      vertex 30 0 3
    endloop
  endfacet
  facet normal 0 0 1
    outer loop
      vertex 30 30 3
      vertex 5 25 3
      vertex 25 25 3
    endloop
  endfacet
  facet normal 0 0 1
    outer loop
      vertex 25 25 3
      vertex 25 5 3
      vertex 30 0 3
    endloop
  endfacet
  facet normal 1 0 0
    outer loop
      vertex 30 0 3
      vertex 30 0 0
      vertex 30 30 0
    endloop
  endfacet
  facet normal 1 0 0
    outer loop
      vertex 30 30 3
      vertex 30 0 3
      vertex 30 30 0
    endloop
  endfacet
  facet normal 1 0 0
    outer loop
      vertex 5 25 0
      vertex 5 25 3
      vertex 5 5 3
    endloop
  endfacet
  facet normal 1 0 0
    outer loop
      vertex 5 5 0
      vertex 5 25 0
      vertex 5 5 3
    endloop
  endfacet
  facet normal 0 -1 0
    outer loop
      vertex 25 25 0
      vertex 25 25 3
      vertex 5 25 3
    endloop
  endfacet
  facet normal 0 -1 0
    outer loop
      vertex 5 25 0
      vertex 25 25 0
      vertex 5 25 3
    endloop
  endfacet
  facet normal -1 0 0
    outer loop
      vertex 25 25 3
      vertex 25 25 0
      vertex 25 5 3
    endloop
  endfacet
  facet normal -1 0 0
    outer loop
      vertex 25 5 3
      vertex 25 25 0
      vertex 25 5 0
    endloop
  endfacet
  facet normal 0 1 0
    outer loop
      vertex 25 5 3
      vertex 25 5 0
      vertex 5 5 3
    endloop
  endfacet
  facet normal 0 1 0
    outer loop
      vertex 5 5 3
      vertex 25 5 0
      vertex 5 5 0
    endloop
  endfacet
endsolid OpenSCAD_Model
