solid OpenSCAD_Model
  facet normal -1 0 0
    outer loop
      vertex 5 5 6
      vertex 5 20 6
      vertex 5 5 0
    endloop
  endfacet
  facet normal -1 0 0
    outer loop
      vertex 5 5 0
      vertex 5 20 6
      vertex 5 20 0
    endloop
  endfacet
  facet normal 0 0 1
    outer loop
      vertex 5 5 6
      vertex 20 5 6
      vertex 20 20 6
    endloop
  endfacet
  facet normal 0 0 1
    outer loop
      vertex 5 20 6
      vertex 5 5 6
      vertex 20 20 6
    endloop
  endfacet
  facet normal 0 -1 0
    outer loop
      vertex 5 5 0
      vertex 20 5 0
      vertex 20 5 6
    endloop
  endfacet
  facet normal 0 -1 0
    outer loop
      vertex 5 5 6
      vertex 5 5 0
      vertex 20 5 6
    endloop
  endfacet
  facet normal 0 0 -1
    outer loop
      vertex 5 20 0
      vertex 20 20 0
      vertex 5 5 0
    endloop
  endfacet
  facet normal 0 0 -1
    outer loop
      vertex 5 5 0
      vertex 20 20 0
      vertex 20 5 0
    endloop
  endfacet
  facet normal 0 1 0
    outer loop
      vertex 5 20 6
      vertex 20 20 6
      vertex 5 20 0
    endloop
  endfacet
  facet normal 0 1 0
    outer loop
      vertex 5 20 0
      vertex 20 20 6
      vertex 20 20 0
    endloop
  endfacet
  facet normal 1 0 0
    outer loop
      vertex 20 5 0
      vertex 20 20 0
      vertex 20 20 6
    endloop
  endfacet
  facet normal 1 0 0
    outer loop
      vertex 20 5 6
      vertex 20 5 0
      vertex 20 20 6
    endloop
  endfacet
endsolid OpenSCAD_Model
