solid OpenSCAD_Model
  facet normal -1 -0 -0
    outer loop
      vertex -32.6514 -6.5 0
      vertex -32.6514 -6.5 1.25
      vertex -32.6514 -2 0
    endloop
  endfacet
  facet normal -1 0 0
    outer loop
      vertex -32.6514 -2 0
      vertex -32.6514 -6.5 1.25
      vertex -32.6514 -2 1.25
    endloop
  endfacet
  facet normal 0 -1 0
    outer loop
      vertex -32.6514 -6.5 1.25
      vertex -32.6514 -6.5 0
      vertex 32.6514 -6.5 0
    endloop
  endfacet
  facet normal 0 -1 0
    outer loop
      vertex 0 -6.5 1.25
      vertex -32.6514 -6.5 1.25
      vertex 32.6514 -6.5 0
    endloop
  endfacet
  facet normal 0 -1 0
    outer loop
      vertex 32.6514 -6.5 1.25
      vertex 0 -6.5 1.25
      vertex 32.6514 -6.5 0
    endloop
  endfacet
  facet normal -0 -0 -1
    outer loop
      vertex -32.6514 -6.5 0
      vertex -32.6514 -2 0
      vertex 32.6514 -6.5 0
    endloop
  endfacet
  facet normal 0 0 -1
    outer loop
      vertex 32.6514 -6.5 0
      vertex -32.6514 -2 0
      vertex -30.6514 -2 0
    endloop
  endfacet
  facet normal 0 0 -1
    outer loop
      vertex 32.6514 -6.5 0
      vertex -30.6514 -2 0
      vertex -30.0333 -1.90211 0
    endloop
  endfacet
  facet normal -0 0 -1
    outer loop
      vertex -30.0333 -1.90211 0
      vertex -29.4758 -1.61803 0
      vertex 32.6514 -6.5 0
    endloop
  endfacet
  facet normal 0 0 -1
    outer loop
      vertex 1.20517 -3.70912 0
      vertex 32.6514 -6.5 0
      vertex 0 -3.9 0
    endloop
  endfacet
  facet normal 0 0 -1
    outer loop
      vertex -1.20517 -3.70912 0
      vertex -29.0333 -1.17557 0
      vertex -2.29236 -3.15517 0
    endloop
  endfacet
  facet normal 0 0 -1
    outer loop
      vertex 2.29236 -3.15517 0
      vertex 32.6514 -6.5 0
      vertex 1.20517 -3.70912 0
    endloop
  endfacet
  facet normal 0 -0 -1
    outer loop
      vertex -3.15517 2.29236 0
      vertex -32.6514 6.5 0
      vertex -2.29236 3.15517 0
    endloop
  endfacet
  facet normal 0 0 -1
    outer loop
      vertex -2.29236 -3.15517 0
      vertex -28.7493 -0.618034 0
      vertex -28.6514 0 0
    endloop
  endfacet
  facet normal 0 0 -1
    outer loop
      vertex -2.29236 -3.15517 0
      vertex -28.6514 0 0
      vertex -28.7493 0.618034 0
    endloop
  endfacet
  facet normal 0 0 -1
    outer loop
      vertex -2.29236 -3.15517 0
      vertex -28.7493 0.618034 0
      vertex -3.15517 -2.29236 0
    endloop
  endfacet
  facet normal 0 0 -1
    outer loop
      vertex -30.6514 2 0
      vertex -32.6514 2 0
      vertex -32.6514 6.5 0
    endloop
  endfacet
  facet normal 0 0 -1
    outer loop
      vertex -3.15517 -2.29236 0
      vertex -29.4758 1.61803 0
      vertex -30.0333 1.90211 0
    endloop
  endfacet
  facet normal 0 0 -1
    outer loop
      vertex 32.6514 2 0
      vertex -32.6514 6.5 0
      vertex 32.6514 6.5 0
    endloop
  endfacet
  facet normal -0 -0 -1
    outer loop
      vertex 30.6514 2 0
      vertex -32.6514 6.5 0
      vertex 32.6514 2 0
    endloop
  endfacet
  facet normal 0 -0 -1
    outer loop
      vertex 30.0333 1.90211 0
      vertex -32.6514 6.5 0
      vertex 30.6514 2 0
    endloop
  endfacet
  facet normal 0 -0 -1
    outer loop
      vertex 29.4758 1.61803 0
      vertex -32.6514 6.5 0
      vertex 30.0333 1.90211 0
    endloop
  endfacet
  facet normal 0 -0 -1
    outer loop
      vertex -3.70912 1.20517 0
      vertex -32.6514 6.5 0
      vertex -3.15517 2.29236 0
    endloop
  endfacet
  facet normal -0 -0 -1
    outer loop
      vertex 0 3.9 0
      vertex -32.6514 6.5 0
      vertex 29.4758 1.61803 0
    endloop
  endfacet
  facet normal 0 -0 -1
    outer loop
      vertex -2.29236 3.15517 0
      vertex -32.6514 6.5 0
      vertex -1.20517 3.70912 0
    endloop
  endfacet
  facet normal 0 0 -1
    outer loop
      vertex 2.29236 3.15517 0
      vertex 28.6514 0 0
      vertex 28.7493 -0.618034 0
    endloop
  endfacet
  facet normal 0 0 -1
    outer loop
      vertex 30.0333 -1.90211 0
      vertex 32.6514 -6.5 0
      vertex 29.4758 -1.61803 0
    endloop
  endfacet
  facet normal 0 0 -1
    outer loop
      vertex 30.6514 -2 0
      vertex 32.6514 -6.5 0
      vertex 30.0333 -1.90211 0
    endloop
  endfacet
  facet normal 0 0 -1
    outer loop
      vertex 32.6514 -2 0
      vertex 32.6514 -6.5 0
      vertex 30.6514 -2 0
    endloop
  endfacet
  facet normal 0 0 -1
    outer loop
      vertex -3.15517 -2.29236 0
      vertex -30.6514 2 0
      vertex -3.70912 -1.20517 0
    endloop
  endfacet
  facet normal 0 -0 -1
    outer loop
      vertex -3.9 0 0
      vertex -32.6514 6.5 0
      vertex -3.70912 1.20517 0
    endloop
  endfacet
  facet normal -0 -0 -1
    outer loop
      vertex -30.6514 2 0
      vertex -32.6514 6.5 0
      vertex -3.9 0 0
    endloop
  endfacet
  facet normal 0 0 -1
    outer loop
      vertex -30.6514 2 0
      vertex -3.9 0 0
      vertex -3.70912 -1.20517 0
    endloop
  endfacet
  facet normal -0 -0 -1
    outer loop
      vertex -28.7493 0.618034 0
      vertex -29.0333 1.17557 0
      vertex -3.15517 -2.29236 0
    endloop
  endfacet
  facet normal -0 0 -1
    outer loop
      vertex -29.0333 -1.17557 0
      vertex -28.7493 -0.618034 0
      vertex -2.29236 -3.15517 0
    endloop
  endfacet
  facet normal -0 0 -1
    outer loop
      vertex -29.4758 -1.61803 0
      vertex -29.0333 -1.17557 0
      vertex -1.20517 -3.70912 0
    endloop
  endfacet
  facet normal 0 0 -1
    outer loop
      vertex -29.4758 -1.61803 0
      vertex -1.20517 -3.70912 0
      vertex 0 -3.9 0
    endloop
  endfacet
  facet normal 0 0 -1
    outer loop
      vertex -29.4758 -1.61803 0
      vertex 0 -3.9 0
      vertex 32.6514 -6.5 0
    endloop
  endfacet
  facet normal 0 0 -1
    outer loop
      vertex 3.15517 -2.29236 0
      vertex 32.6514 -6.5 0
      vertex 2.29236 -3.15517 0
    endloop
  endfacet
  facet normal 0 0 -1
    outer loop
      vertex -3.15517 -2.29236 0
      vertex -29.0333 1.17557 0
      vertex -29.4758 1.61803 0
    endloop
  endfacet
  facet normal 0 0 -1
    outer loop
      vertex 3.9 0 0
      vertex 32.6514 -6.5 0
      vertex 3.70912 -1.20517 0
    endloop
  endfacet
  facet normal 0 0 -1
    outer loop
      vertex 32.6514 -6.5 0
      vertex 3.9 0 0
      vertex 29.0333 -1.17557 0
    endloop
  endfacet
  facet normal -0 -0 -1
    outer loop
      vertex 3.9 0 0
      vertex 3.70912 1.20517 0
      vertex 29.0333 -1.17557 0
    endloop
  endfacet
  facet normal 0 0 -1
    outer loop
      vertex 2.29236 3.15517 0
      vertex 28.7493 0.618034 0
      vertex 28.6514 0 0
    endloop
  endfacet
  facet normal 0 0 -1
    outer loop
      vertex 29.0333 -1.17557 0
      vertex 3.15517 2.29236 0
      vertex 28.7493 -0.618034 0
    endloop
  endfacet
  facet normal 0 0 -1
    outer loop
      vertex 1.20517 3.70912 0
      vertex 29.0333 1.17557 0
      vertex 2.29236 3.15517 0
    endloop
  endfacet
  facet normal 0 -0 -1
    outer loop
      vertex 28.7493 0.618034 0
      vertex 2.29236 3.15517 0
      vertex 29.0333 1.17557 0
    endloop
  endfacet
  facet normal 0 -0 -1
    outer loop
      vertex -1.20517 3.70912 0
      vertex -32.6514 6.5 0
      vertex 0 3.9 0
    endloop
  endfacet
  facet normal 0 -0 -1
    outer loop
      vertex 29.0333 1.17557 0
      vertex 1.20517 3.70912 0
      vertex 29.4758 1.61803 0
    endloop
  endfacet
  facet normal -0 -0 -1
    outer loop
      vertex 1.20517 3.70912 0
      vertex 0 3.9 0
      vertex 29.4758 1.61803 0
    endloop
  endfacet
  facet normal 0 0 -1
    outer loop
      vertex 2.29236 3.15517 0
      vertex 28.7493 -0.618034 0
      vertex 3.15517 2.29236 0
    endloop
  endfacet
  facet normal 0 0 -1
    outer loop
      vertex -3.15517 -2.29236 0
      vertex -30.0333 1.90211 0
      vertex -30.6514 2 0
    endloop
  endfacet
  facet normal 0 0 -1
    outer loop
      vertex 3.15517 2.29236 0
      vertex 29.0333 -1.17557 0
      vertex 3.70912 1.20517 0
    endloop
  endfacet
  facet normal 0 0 -1
    outer loop
      vertex 29.4758 -1.61803 0
      vertex 32.6514 -6.5 0
      vertex 29.0333 -1.17557 0
    endloop
  endfacet
  facet normal 0 0 -1
    outer loop
      vertex 3.70912 -1.20517 0
      vertex 32.6514 -6.5 0
      vertex 3.15517 -2.29236 0
    endloop
  endfacet
  facet normal 0 1 0
    outer loop
      vertex -30.6514 -2 1.25
      vertex -30.6514 -2 0
      vertex -32.6514 -2 1.25
    endloop
  endfacet
  facet normal 0 1 -0
    outer loop
      vertex -32.6514 -2 1.25
      vertex -30.6514 -2 0
      vertex -32.6514 -2 0
    endloop
  endfacet
  facet normal 0 0 1
    outer loop
      vertex -22.1514 -2.5 1.25
      vertex -2.00861 -6.18187 1.25
      vertex -3.8206 -5.25861 1.25
    endloop
  endfacet
  facet normal -0 -0 1
    outer loop
      vertex -22.1514 -2.5 1.25
      vertex -29.4758 -1.61803 1.25
      vertex -2.00861 -6.18187 1.25
    endloop
  endfacet
  facet normal -0 -0 1
    outer loop
      vertex -5.25861 -3.8206 1.25
      vertex -22.1514 -2.5 1.25
      vertex -3.8206 -5.25861 1.25
    endloop
  endfacet
  facet normal 0 0 1
    outer loop
      vertex 0 -6.5 1.25
      vertex -2.00861 -6.18187 1.25
      vertex -30.0333 -1.90211 1.25
    endloop
  endfacet
  facet normal -0 0 1
    outer loop
      vertex -5.25861 3.8206 1.25
      vertex -3.8206 5.25861 1.25
      vertex -22.1514 2.5 1.25
    endloop
  endfacet
  facet normal 0 -0 1
    outer loop
      vertex -5.93149 -2.5 1.25
      vertex -22.1514 -2.5 1.25
      vertex -5.25861 -3.8206 1.25
    endloop
  endfacet
  facet normal -0 0 1
    outer loop
      vertex -22.1514 2.5 1.25
      vertex -32.6514 6.5 1.25
      vertex -22.1514 -2.5 1.25
    endloop
  endfacet
  facet normal -0 0 1
    outer loop
      vertex -5.93149 2.5 1.25
      vertex -5.25861 3.8206 1.25
      vertex -22.1514 2.5 1.25
    endloop
  endfacet
  facet normal -0 0 1
    outer loop
      vertex -3.8206 5.25861 1.25
      vertex -2.00861 6.18187 1.25
      vertex -22.1514 2.5 1.25
    endloop
  endfacet
  facet normal -0 0 1
    outer loop
      vertex -2.00861 6.18187 1.25
      vertex -32.6514 6.5 1.25
      vertex -22.1514 2.5 1.25
    endloop
  endfacet
  facet normal 0 -0 1
    outer loop
      vertex -28.6514 0 1.25
      vertex -28.7493 -0.618034 1.25
      vertex -22.1514 -2.5 1.25
    endloop
  endfacet
  facet normal 0 0 1
    outer loop
      vertex 0 6.5 1.25
      vertex -32.6514 6.5 1.25
      vertex -2.00861 6.18187 1.25
    endloop
  endfacet
  facet normal 0 0 1
    outer loop
      vertex -28.7493 0.618034 1.25
      vertex -28.6514 0 1.25
      vertex -22.1514 -2.5 1.25
    endloop
  endfacet
  facet normal 0 -0 1
    outer loop
      vertex -32.6514 6.5 1.25
      vertex -32.6514 2 1.25
      vertex -30.6514 2 1.25
    endloop
  endfacet
  facet normal 0 0 1
    outer loop
      vertex -29.0333 1.17557 1.25
      vertex -28.7493 0.618034 1.25
      vertex -22.1514 -2.5 1.25
    endloop
  endfacet
  facet normal 0 0 1
    outer loop
      vertex -32.6514 6.5 1.25
      vertex -30.6514 2 1.25
      vertex -30.0333 1.90211 1.25
    endloop
  endfacet
  facet normal 0 0 1
    outer loop
      vertex -32.6514 6.5 1.25
      vertex -29.4758 1.61803 1.25
      vertex -22.1514 -2.5 1.25
    endloop
  endfacet
  facet normal 0 0 1
    outer loop
      vertex -32.6514 6.5 1.25
      vertex -30.0333 1.90211 1.25
      vertex -29.4758 1.61803 1.25
    endloop
  endfacet
  facet normal 0 -0 1
    outer loop
      vertex -28.7493 -0.618034 1.25
      vertex -29.0333 -1.17557 1.25
      vertex -22.1514 -2.5 1.25
    endloop
  endfacet
  facet normal 0 -0 1
    outer loop
      vertex -29.0333 -1.17557 1.25
      vertex -29.4758 -1.61803 1.25
      vertex -22.1514 -2.5 1.25
    endloop
  endfacet
  facet normal 0 -0 1
    outer loop
      vertex -30.6514 -2 1.25
      vertex -32.6514 -2 1.25
      vertex 0 -6.5 1.25
    endloop
  endfacet
  facet normal 0 -0 1
    outer loop
      vertex -29.4758 -1.61803 1.25
      vertex -30.0333 -1.90211 1.25
      vertex -2.00861 -6.18187 1.25
    endloop
  endfacet
  facet normal 0 -0 1
    outer loop
      vertex -30.0333 -1.90211 1.25
      vertex -30.6514 -2 1.25
      vertex 0 -6.5 1.25
    endloop
  endfacet
  facet normal 0 -0 1
    outer loop
      vertex -32.6514 -2 1.25
      vertex -32.6514 -6.5 1.25
      vertex 0 -6.5 1.25
    endloop
  endfacet
  facet normal 0 0 1
    outer loop
      vertex -29.4758 1.61803 1.25
      vertex -29.0333 1.17557 1.25
      vertex -22.1514 -2.5 1.25
    endloop
  endfacet
  facet normal -0.156435 -0.987688 0
    outer loop
      vertex -2.00861 -6.18187 4.75
      vertex -2.00861 -6.18187 1.25
      vertex 0 -6.5 1.25
    endloop
  endfacet
  facet normal -0.156435 -0.987688 0
    outer loop
      vertex 0 -6.5 4.75
      vertex -2.00861 -6.18187 4.75
      vertex 0 -6.5 1.25
    endloop
  endfacet
  facet normal 0.156435 -0.987688 0
    outer loop
      vertex 0 -6.5 4.75
      vertex 0 -6.5 1.25
      vertex 2.00861 -6.18187 1.25
    endloop
  endfacet
  facet normal 0.156435 -0.987688 0
    outer loop
      vertex 2.00861 -6.18187 4.75
      vertex 0 -6.5 4.75
      vertex 2.00861 -6.18187 1.25
    endloop
  endfacet
  facet normal -0 -0 1
    outer loop
      vertex 29.4758 -1.61803 1.25
      vertex 29.0333 -1.17557 1.25
      vertex 32.6514 -6.5 1.25
    endloop
  endfacet
  facet normal 0 0 1
    outer loop
      vertex 32.6514 -6.5 1.25
      vertex 32.6514 -2 1.25
      vertex 30.6514 -2 1.25
    endloop
  endfacet
  facet normal 0 0 1
    outer loop
      vertex 22.1514 2.5 1.25
      vertex 28.7493 -0.618034 1.25
      vertex 28.6514 0 1.25
    endloop
  endfacet
  facet normal 0 0 1
    outer loop
      vertex 30.0333 -1.90211 1.25
      vertex 32.6514 -6.5 1.25
      vertex 30.6514 -2 1.25
    endloop
  endfacet
  facet normal -0 -0 1
    outer loop
      vertex 30.0333 -1.90211 1.25
      vertex 29.4758 -1.61803 1.25
      vertex 32.6514 -6.5 1.25
    endloop
  endfacet
  facet normal 0 0 1
    outer loop
      vertex 22.1514 2.5 1.25
      vertex 29.0333 -1.17557 1.25
      vertex 28.7493 -0.618034 1.25
    endloop
  endfacet
  facet normal 0 0 1
    outer loop
      vertex 22.1514 2.5 1.25
      vertex 32.6514 -6.5 1.25
      vertex 29.0333 -1.17557 1.25
    endloop
  endfacet
  facet normal -0 0 1
    outer loop
      vertex 29.4758 1.61803 1.25
      vertex 32.6514 6.5 1.25
      vertex 29.0333 1.17557 1.25
    endloop
  endfacet
  facet normal -0 0 1
    outer loop
      vertex 30.0333 1.90211 1.25
      vertex 32.6514 6.5 1.25
      vertex 29.4758 1.61803 1.25
    endloop
  endfacet
  facet normal -0 0 1
    outer loop
      vertex 30.6514 2 1.25
      vertex 32.6514 6.5 1.25
      vertex 30.0333 1.90211 1.25
    endloop
  endfacet
  facet normal -0 0 1
    outer loop
      vertex 32.6514 2 1.25
      vertex 32.6514 6.5 1.25
      vertex 30.6514 2 1.25
    endloop
  endfacet
  facet normal 0 -0 1
    outer loop
      vertex 22.1514 2.5 1.25
      vertex 22.1514 -2.5 1.25
      vertex 32.6514 -6.5 1.25
    endloop
  endfacet
  facet normal 0 0 1
    outer loop
      vertex 32.6514 6.5 1.25
      vertex 0 6.5 1.25
      vertex 2.00861 6.18187 1.25
    endloop
  endfacet
  facet normal 0 -0 1
    outer loop
      vertex 5.93149 -2.5 1.25
      vertex 5.25861 -3.8206 1.25
      vertex 32.6514 -6.5 1.25
    endloop
  endfacet
  facet normal 0 0 1
    outer loop
      vertex 32.6514 6.5 1.25
      vertex 22.1514 2.5 1.25
      vertex 29.0333 1.17557 1.25
    endloop
  endfacet
  facet normal 0 0 1
    outer loop
      vertex 32.6514 6.5 1.25
      vertex 2.00861 6.18187 1.25
      vertex 22.1514 2.5 1.25
    endloop
  endfacet
  facet normal 0 0 1
    outer loop
      vertex 22.1514 2.5 1.25
      vertex 28.6514 0 1.25
      vertex 28.7493 0.618034 1.25
    endloop
  endfacet
  facet normal 0 0 1
    outer loop
      vertex 22.1514 2.5 1.25
      vertex 28.7493 0.618034 1.25
      vertex 29.0333 1.17557 1.25
    endloop
  endfacet
  facet normal 0 -0 1
    outer loop
      vertex 5.25861 -3.8206 1.25
      vertex 3.8206 -5.25861 1.25
      vertex 32.6514 -6.5 1.25
    endloop
  endfacet
  facet normal 0 -0 1
    outer loop
      vertex 3.8206 -5.25861 1.25
      vertex 2.00861 -6.18187 1.25
      vertex 32.6514 -6.5 1.25
    endloop
  endfacet
  facet normal 0 -0 1
    outer loop
      vertex 2.00861 -6.18187 1.25
      vertex 0 -6.5 1.25
      vertex 32.6514 -6.5 1.25
    endloop
  endfacet
  facet normal 0 -0 1
    outer loop
      vertex 22.1514 -2.5 1.25
      vertex 5.93149 -2.5 1.25
      vertex 32.6514 -6.5 1.25
    endloop
  endfacet
  facet normal 0 0 1
    outer loop
      vertex 3.8206 5.25861 1.25
      vertex 22.1514 2.5 1.25
      vertex 2.00861 6.18187 1.25
    endloop
  endfacet
  facet normal 0 0 1
    outer loop
      vertex 5.25861 3.8206 1.25
      vertex 22.1514 2.5 1.25
      vertex 3.8206 5.25861 1.25
    endloop
  endfacet
  facet normal 0 0 1
    outer loop
      vertex 5.93149 2.5 1.25
      vertex 22.1514 2.5 1.25
      vertex 5.25861 3.8206 1.25
    endloop
  endfacet
  facet normal 1 0 -0
    outer loop
      vertex 32.6514 -6.5 1.25
      vertex 32.6514 -6.5 0
      vertex 32.6514 -2 0
    endloop
  endfacet
  facet normal 1 0 0
    outer loop
      vertex 32.6514 -2 1.25
      vertex 32.6514 -6.5 1.25
      vertex 32.6514 -2 0
    endloop
  endfacet
  facet normal 0 1 0
    outer loop
      vertex 32.6514 -2 1.25
      vertex 32.6514 -2 0
      vertex 30.6514 -2 1.25
    endloop
  endfacet
  facet normal 0 1 -0
    outer loop
      vertex 30.6514 -2 1.25
      vertex 32.6514 -2 0
      vertex 30.6514 -2 0
    endloop
  endfacet
  facet normal 0.156435 0.987688 -0
    outer loop
      vertex 30.6514 -2 1.25
      vertex 30.6514 -2 0
      vertex 30.0333 -1.90211 1.25
    endloop
  endfacet
  facet normal 0.156435 0.987688 -0
    outer loop
      vertex 30.0333 -1.90211 1.25
      vertex 30.6514 -2 0
      vertex 30.0333 -1.90211 0
    endloop
  endfacet
  facet normal 0.45399 0.891007 -0
    outer loop
      vertex 30.0333 -1.90211 1.25
      vertex 30.0333 -1.90211 0
      vertex 29.4758 -1.61803 1.25
    endloop
  endfacet
  facet normal 0.45399 0.891007 -0
    outer loop
      vertex 29.4758 -1.61803 1.25
      vertex 30.0333 -1.90211 0
      vertex 29.4758 -1.61803 0
    endloop
  endfacet
  facet normal 0.707107 0.707107 -0
    outer loop
      vertex 29.4758 -1.61803 1.25
      vertex 29.4758 -1.61803 0
      vertex 29.0333 -1.17557 1.25
    endloop
  endfacet
  facet normal 0.707107 0.707107 -0
    outer loop
      vertex 29.0333 -1.17557 1.25
      vertex 29.4758 -1.61803 0
      vertex 29.0333 -1.17557 0
    endloop
  endfacet
  facet normal 0.891007 0.45399 0
    outer loop
      vertex 28.7493 -0.618034 1.25
      vertex 29.0333 -1.17557 1.25
      vertex 29.0333 -1.17557 0
    endloop
  endfacet
  facet normal 0.891007 0.45399 0
    outer loop
      vertex 28.7493 -0.618034 0
      vertex 28.7493 -0.618034 1.25
      vertex 29.0333 -1.17557 0
    endloop
  endfacet
  facet normal 0.987688 0.156435 0
    outer loop
      vertex 28.6514 0 1.25
      vertex 28.7493 -0.618034 1.25
      vertex 28.7493 -0.618034 0
    endloop
  endfacet
  facet normal 0.987688 0.156435 0
    outer loop
      vertex 28.6514 0 0
      vertex 28.6514 0 1.25
      vertex 28.7493 -0.618034 0
    endloop
  endfacet
  facet normal 0.987688 -0.156435 0
    outer loop
      vertex 28.7493 0.618034 0
      vertex 28.7493 0.618034 1.25
      vertex 28.6514 0 1.25
    endloop
  endfacet
  facet normal 0.987688 -0.156435 0
    outer loop
      vertex 28.6514 0 0
      vertex 28.7493 0.618034 0
      vertex 28.6514 0 1.25
    endloop
  endfacet
  facet normal 0.891007 -0.45399 0
    outer loop
      vertex 29.0333 1.17557 0
      vertex 29.0333 1.17557 1.25
      vertex 28.7493 0.618034 1.25
    endloop
  endfacet
  facet normal 0.891007 -0.45399 0
    outer loop
      vertex 28.7493 0.618034 0
      vertex 29.0333 1.17557 0
      vertex 28.7493 0.618034 1.25
    endloop
  endfacet
  facet normal 0.707107 -0.707107 0
    outer loop
      vertex 29.4758 1.61803 0
      vertex 29.4758 1.61803 1.25
      vertex 29.0333 1.17557 1.25
    endloop
  endfacet
  facet normal 0.707107 -0.707107 0
    outer loop
      vertex 29.0333 1.17557 0
      vertex 29.4758 1.61803 0
      vertex 29.0333 1.17557 1.25
    endloop
  endfacet
  facet normal 0.45399 -0.891007 0
    outer loop
      vertex 30.0333 1.90211 0
      vertex 30.0333 1.90211 1.25
      vertex 29.4758 1.61803 1.25
    endloop
  endfacet
  facet normal 0.45399 -0.891007 0
    outer loop
      vertex 29.4758 1.61803 0
      vertex 30.0333 1.90211 0
      vertex 29.4758 1.61803 1.25
    endloop
  endfacet
  facet normal 0.156435 -0.987688 0
    outer loop
      vertex 30.6514 2 0
      vertex 30.6514 2 1.25
      vertex 30.0333 1.90211 1.25
    endloop
  endfacet
  facet normal 0.156435 -0.987688 0
    outer loop
      vertex 30.0333 1.90211 0
      vertex 30.6514 2 0
      vertex 30.0333 1.90211 1.25
    endloop
  endfacet
  facet normal 0 -1 0
    outer loop
      vertex 32.6514 2 0
      vertex 32.6514 2 1.25
      vertex 30.6514 2 1.25
    endloop
  endfacet
  facet normal -0 -1 -0
    outer loop
      vertex 30.6514 2 0
      vertex 32.6514 2 0
      vertex 30.6514 2 1.25
    endloop
  endfacet
  facet normal 1 0 -0
    outer loop
      vertex 32.6514 2 1.25
      vertex 32.6514 2 0
      vertex 32.6514 6.5 0
    endloop
  endfacet
  facet normal 1 0 0
    outer loop
      vertex 32.6514 6.5 1.25
      vertex 32.6514 2 1.25
      vertex 32.6514 6.5 0
    endloop
  endfacet
  facet normal 0 1 0
    outer loop
      vertex -32.6514 6.5 0
      vertex -32.6514 6.5 1.25
      vertex 32.6514 6.5 0
    endloop
  endfacet
  facet normal 0 1 0
    outer loop
      vertex 32.6514 6.5 0
      vertex -32.6514 6.5 1.25
      vertex 0 6.5 1.25
    endloop
  endfacet
  facet normal 0 1 0
    outer loop
      vertex 32.6514 6.5 0
      vertex 0 6.5 1.25
      vertex 32.6514 6.5 1.25
    endloop
  endfacet
  facet normal -1 -0 -0
    outer loop
      vertex -32.6514 2 0
      vertex -32.6514 2 1.25
      vertex -32.6514 6.5 0
    endloop
  endfacet
  facet normal -1 0 0
    outer loop
      vertex -32.6514 6.5 0
      vertex -32.6514 2 1.25
      vertex -32.6514 6.5 1.25
    endloop
  endfacet
  facet normal 0 -1 0
    outer loop
      vertex -30.6514 2 0
      vertex -30.6514 2 1.25
      vertex -32.6514 2 1.25
    endloop
  endfacet
  facet normal -0 -1 -0
    outer loop
      vertex -32.6514 2 0
      vertex -30.6514 2 0
      vertex -32.6514 2 1.25
    endloop
  endfacet
  facet normal -0.156435 -0.987688 -0
    outer loop
      vertex -30.0333 1.90211 0
      vertex -30.0333 1.90211 1.25
      vertex -30.6514 2 1.25
    endloop
  endfacet
  facet normal -0.156435 -0.987688 -0
    outer loop
      vertex -30.6514 2 0
      vertex -30.0333 1.90211 0
      vertex -30.6514 2 1.25
    endloop
  endfacet
  facet normal -0.45399 -0.891007 -0
    outer loop
      vertex -29.4758 1.61803 0
      vertex -29.4758 1.61803 1.25
      vertex -30.0333 1.90211 1.25
    endloop
  endfacet
  facet normal -0.45399 -0.891007 -0
    outer loop
      vertex -30.0333 1.90211 0
      vertex -29.4758 1.61803 0
      vertex -30.0333 1.90211 1.25
    endloop
  endfacet
  facet normal -0.707107 -0.707107 -0
    outer loop
      vertex -29.0333 1.17557 0
      vertex -29.0333 1.17557 1.25
      vertex -29.4758 1.61803 1.25
    endloop
  endfacet
  facet normal -0.707107 -0.707107 -0
    outer loop
      vertex -29.4758 1.61803 0
      vertex -29.0333 1.17557 0
      vertex -29.4758 1.61803 1.25
    endloop
  endfacet
  facet normal -0.891007 -0.45399 0
    outer loop
      vertex -28.7493 0.618034 1.25
      vertex -29.0333 1.17557 1.25
      vertex -28.7493 0.618034 0
    endloop
  endfacet
  facet normal -0.891007 -0.45399 0
    outer loop
      vertex -28.7493 0.618034 0
      vertex -29.0333 1.17557 1.25
      vertex -29.0333 1.17557 0
    endloop
  endfacet
  facet normal -0.987688 -0.156435 0
    outer loop
      vertex -28.6514 0 1.25
      vertex -28.7493 0.618034 1.25
      vertex -28.6514 0 0
    endloop
  endfacet
  facet normal -0.987688 -0.156435 0
    outer loop
      vertex -28.6514 0 0
      vertex -28.7493 0.618034 1.25
      vertex -28.7493 0.618034 0
    endloop
  endfacet
  facet normal -0.987688 0.156435 0
    outer loop
      vertex -28.6514 0 1.25
      vertex -28.6514 0 0
      vertex -28.7493 -0.618034 1.25
    endloop
  endfacet
  facet normal -0.987688 0.156435 0
    outer loop
      vertex -28.7493 -0.618034 1.25
      vertex -28.6514 0 0
      vertex -28.7493 -0.618034 0
    endloop
  endfacet
  facet normal -0.891007 0.45399 0
    outer loop
      vertex -28.7493 -0.618034 1.25
      vertex -28.7493 -0.618034 0
      vertex -29.0333 -1.17557 1.25
    endloop
  endfacet
  facet normal -0.891007 0.45399 0
    outer loop
      vertex -29.0333 -1.17557 1.25
      vertex -28.7493 -0.618034 0
      vertex -29.0333 -1.17557 0
    endloop
  endfacet
  facet normal -0.707107 0.707107 0
    outer loop
      vertex -29.0333 -1.17557 1.25
      vertex -29.0333 -1.17557 0
      vertex -29.4758 -1.61803 1.25
    endloop
  endfacet
  facet normal -0.707107 0.707107 0
    outer loop
      vertex -29.4758 -1.61803 1.25
      vertex -29.0333 -1.17557 0
      vertex -29.4758 -1.61803 0
    endloop
  endfacet
  facet normal -0.45399 0.891007 0
    outer loop
      vertex -29.4758 -1.61803 1.25
      vertex -29.4758 -1.61803 0
      vertex -30.0333 -1.90211 1.25
    endloop
  endfacet
  facet normal -0.45399 0.891007 0
    outer loop
      vertex -30.0333 -1.90211 1.25
      vertex -29.4758 -1.61803 0
      vertex -30.0333 -1.90211 0
    endloop
  endfacet
  facet normal -0.156435 0.987688 0
    outer loop
      vertex -30.0333 -1.90211 1.25
      vertex -30.0333 -1.90211 0
      vertex -30.6514 -2 1.25
    endloop
  endfacet
  facet normal -0.156435 0.987688 0
    outer loop
      vertex -30.6514 -2 1.25
      vertex -30.0333 -1.90211 0
      vertex -30.6514 -2 0
    endloop
  endfacet
  facet normal 0.987688 -0.156435 0
    outer loop
      vertex -3.70912 1.20517 0
      vertex -3.70912 1.20517 1.26
      vertex -3.9 0 1.26
    endloop
  endfacet
  facet normal 0.987688 -0.156435 0
    outer loop
      vertex -3.9 0 0
      vertex -3.70912 1.20517 0
      vertex -3.9 0 1.26
    endloop
  endfacet
  facet normal 0.987688 0.156435 0
    outer loop
      vertex -3.9 0 1.26
      vertex -3.70912 -1.20517 1.26
      vertex -3.70912 -1.20517 0
    endloop
  endfacet
  facet normal 0.987688 0.156435 0
    outer loop
      vertex -3.9 0 0
      vertex -3.9 0 1.26
      vertex -3.70912 -1.20517 0
    endloop
  endfacet
  facet normal 0.891007 -0.45399 0
    outer loop
      vertex -3.15517 2.29236 0
      vertex -3.15517 2.29236 1.26
      vertex -3.70912 1.20517 1.26
    endloop
  endfacet
  facet normal 0.891007 -0.45399 0
    outer loop
      vertex -3.70912 1.20517 0
      vertex -3.15517 2.29236 0
      vertex -3.70912 1.20517 1.26
    endloop
  endfacet
  facet normal 0.707107 -0.707107 0
    outer loop
      vertex -2.29236 3.15517 0
      vertex -2.29236 3.15517 1.26
      vertex -3.15517 2.29236 1.26
    endloop
  endfacet
  facet normal 0.707107 -0.707107 0
    outer loop
      vertex -3.15517 2.29236 0
      vertex -2.29236 3.15517 0
      vertex -3.15517 2.29236 1.26
    endloop
  endfacet
  facet normal 0.45399 -0.891007 0
    outer loop
      vertex -1.20517 3.70912 0
      vertex -1.20517 3.70912 1.26
      vertex -2.29236 3.15517 1.26
    endloop
  endfacet
  facet normal 0.45399 -0.891007 0
    outer loop
      vertex -2.29236 3.15517 0
      vertex -1.20517 3.70912 0
      vertex -2.29236 3.15517 1.26
    endloop
  endfacet
  facet normal 0.156435 -0.987688 0
    outer loop
      vertex 0 3.9 0
      vertex 0 3.9 1.26
      vertex -1.20517 3.70912 1.26
    endloop
  endfacet
  facet normal 0.156435 -0.987688 0
    outer loop
      vertex -1.20517 3.70912 0
      vertex 0 3.9 0
      vertex -1.20517 3.70912 1.26
    endloop
  endfacet
  facet normal -0.156435 -0.987688 -0
    outer loop
      vertex 1.20517 3.70912 0
      vertex 1.20517 3.70912 1.26
      vertex 0 3.9 1.26
    endloop
  endfacet
  facet normal -0.156435 -0.987688 -0
    outer loop
      vertex 0 3.9 0
      vertex 1.20517 3.70912 0
      vertex 0 3.9 1.26
    endloop
  endfacet
  facet normal -0.45399 -0.891007 -0
    outer loop
      vertex 2.29236 3.15517 0
      vertex 2.29236 3.15517 1.26
      vertex 1.20517 3.70912 1.26
    endloop
  endfacet
  facet normal -0.45399 -0.891007 -0
    outer loop
      vertex 1.20517 3.70912 0
      vertex 2.29236 3.15517 0
      vertex 1.20517 3.70912 1.26
    endloop
  endfacet
  facet normal -0.707107 -0.707107 -0
    outer loop
      vertex 3.15517 2.29236 0
      vertex 3.15517 2.29236 1.26
      vertex 2.29236 3.15517 1.26
    endloop
  endfacet
  facet normal -0.707107 -0.707107 -0
    outer loop
      vertex 2.29236 3.15517 0
      vertex 3.15517 2.29236 0
      vertex 2.29236 3.15517 1.26
    endloop
  endfacet
  facet normal -0.891007 -0.45399 0
    outer loop
      vertex 3.70912 1.20517 1.26
      vertex 3.15517 2.29236 1.26
      vertex 3.70912 1.20517 0
    endloop
  endfacet
  facet normal -0.891007 -0.45399 0
    outer loop
      vertex 3.70912 1.20517 0
      vertex 3.15517 2.29236 1.26
      vertex 3.15517 2.29236 0
    endloop
  endfacet
  facet normal -0.987688 -0.156435 0
    outer loop
      vertex 3.9 0 1.26
      vertex 3.70912 1.20517 1.26
      vertex 3.9 0 0
    endloop
  endfacet
  facet normal -0.987688 -0.156435 0
    outer loop
      vertex 3.9 0 0
      vertex 3.70912 1.20517 1.26
      vertex 3.70912 1.20517 0
    endloop
  endfacet
  facet normal -0.987688 0.156435 0
    outer loop
      vertex 3.9 0 1.26
      vertex 3.9 0 0
      vertex 3.70912 -1.20517 1.26
    endloop
  endfacet
  facet normal -0.987688 0.156435 0
    outer loop
      vertex 3.70912 -1.20517 1.26
      vertex 3.9 0 0
      vertex 3.70912 -1.20517 0
    endloop
  endfacet
  facet normal -0.891007 0.45399 0
    outer loop
      vertex 3.70912 -1.20517 1.26
      vertex 3.70912 -1.20517 0
      vertex 3.15517 -2.29236 1.26
    endloop
  endfacet
  facet normal -0.891007 0.45399 0
    outer loop
      vertex 3.15517 -2.29236 1.26
      vertex 3.70912 -1.20517 0
      vertex 3.15517 -2.29236 0
    endloop
  endfacet
  facet normal -0.707107 0.707107 0
    outer loop
      vertex 3.15517 -2.29236 1.26
      vertex 3.15517 -2.29236 0
      vertex 2.29236 -3.15517 1.26
    endloop
  endfacet
  facet normal -0.707107 0.707107 0
    outer loop
      vertex 2.29236 -3.15517 1.26
      vertex 3.15517 -2.29236 0
      vertex 2.29236 -3.15517 0
    endloop
  endfacet
  facet normal -0.45399 0.891007 0
    outer loop
      vertex 2.29236 -3.15517 1.26
      vertex 2.29236 -3.15517 0
      vertex 1.20517 -3.70912 1.26
    endloop
  endfacet
  facet normal -0.45399 0.891007 0
    outer loop
      vertex 1.20517 -3.70912 1.26
      vertex 2.29236 -3.15517 0
      vertex 1.20517 -3.70912 0
    endloop
  endfacet
  facet normal -0.156435 0.987688 0
    outer loop
      vertex 1.20517 -3.70912 1.26
      vertex 1.20517 -3.70912 0
      vertex 0 -3.9 1.26
    endloop
  endfacet
  facet normal -0.156435 0.987688 0
    outer loop
      vertex 0 -3.9 1.26
      vertex 1.20517 -3.70912 0
      vertex 0 -3.9 0
    endloop
  endfacet
  facet normal 0.156435 0.987688 -0
    outer loop
      vertex 0 -3.9 1.26
      vertex 0 -3.9 0
      vertex -1.20517 -3.70912 1.26
    endloop
  endfacet
  facet normal 0.156435 0.987688 -0
    outer loop
      vertex -1.20517 -3.70912 1.26
      vertex 0 -3.9 0
      vertex -1.20517 -3.70912 0
    endloop
  endfacet
  facet normal 0.45399 0.891007 -0
    outer loop
      vertex -1.20517 -3.70912 1.26
      vertex -1.20517 -3.70912 0
      vertex -2.29236 -3.15517 1.26
    endloop
  endfacet
  facet normal 0.45399 0.891007 -0
    outer loop
      vertex -2.29236 -3.15517 1.26
      vertex -1.20517 -3.70912 0
      vertex -2.29236 -3.15517 0
    endloop
  endfacet
  facet normal 0.707107 0.707107 -0
    outer loop
      vertex -2.29236 -3.15517 1.26
      vertex -2.29236 -3.15517 0
      vertex -3.15517 -2.29236 1.26
    endloop
  endfacet
  facet normal 0.707107 0.707107 -0
    outer loop
      vertex -3.15517 -2.29236 1.26
      vertex -2.29236 -3.15517 0
      vertex -3.15517 -2.29236 0
    endloop
  endfacet
  facet normal 0.891007 0.45399 0
    outer loop
      vertex -3.70912 -1.20517 1.26
      vertex -3.15517 -2.29236 1.26
      vertex -3.15517 -2.29236 0
    endloop
  endfacet
  facet normal 0.891007 0.45399 0
    outer loop
      vertex -3.70912 -1.20517 0
      vertex -3.70912 -1.20517 1.26
      vertex -3.15517 -2.29236 0
    endloop
  endfacet
  facet normal 0.156435 0.987688 0
    outer loop
      vertex 0 6.5 1.25
      vertex 0 6.5 4.75
      vertex 2.00861 6.18187 1.25
    endloop
  endfacet
  facet normal 0.156435 0.987688 0
    outer loop
      vertex 2.00861 6.18187 1.25
      vertex 0 6.5 4.75
      vertex 2.00861 6.18187 4.75
    endloop
  endfacet
  facet normal -0.156435 0.987688 0
    outer loop
      vertex -2.00861 6.18187 1.25
      vertex -2.00861 6.18187 4.75
      vertex 0 6.5 1.25
    endloop
  endfacet
  facet normal -0.156435 0.987688 0
    outer loop
      vertex 0 6.5 1.25
      vertex -2.00861 6.18187 4.75
      vertex 0 6.5 4.75
    endloop
  endfacet
  facet normal -0.45399 0.891007 0
    outer loop
      vertex -3.8206 5.25861 1.25
      vertex -3.8206 5.25861 4.75
      vertex -2.00861 6.18187 1.25
    endloop
  endfacet
  facet normal -0.45399 0.891007 0
    outer loop
      vertex -2.00861 6.18187 1.25
      vertex -3.8206 5.25861 4.75
      vertex -2.00861 6.18187 4.75
    endloop
  endfacet
  facet normal -0.707107 0.707107 0
    outer loop
      vertex -5.25861 3.8206 1.25
      vertex -5.25861 3.8206 4.75
      vertex -3.8206 5.25861 1.25
    endloop
  endfacet
  facet normal -0.707107 0.707107 0
    outer loop
      vertex -3.8206 5.25861 1.25
      vertex -5.25861 3.8206 4.75
      vertex -3.8206 5.25861 4.75
    endloop
  endfacet
  facet normal -0.891007 0.45399 0
    outer loop
      vertex -5.93149 2.5 1.25
      vertex -5.93149 2.5 4.75
      vertex -5.25861 3.8206 1.25
    endloop
  endfacet
  facet normal -0.891007 0.45399 0
    outer loop
      vertex -5.25861 3.8206 1.25
      vertex -5.93149 2.5 4.75
      vertex -5.25861 3.8206 4.75
    endloop
  endfacet
  facet normal 0 1 0
    outer loop
      vertex -22.1514 2.5 1.25
      vertex -22.1514 2.5 4.75
      vertex -5.93149 2.5 1.25
    endloop
  endfacet
  facet normal 0 1 0
    outer loop
      vertex -5.93149 2.5 1.25
      vertex -22.1514 2.5 4.75
      vertex -5.93149 2.5 4.75
    endloop
  endfacet
  facet normal -1 -0 -0
    outer loop
      vertex -22.1514 -2.5 1.25
      vertex -22.1514 -2.5 4.75
      vertex -22.1514 2.5 1.25
    endloop
  endfacet
  facet normal -1 0 0
    outer loop
      vertex -22.1514 2.5 1.25
      vertex -22.1514 -2.5 4.75
      vertex -22.1514 2.5 4.75
    endloop
  endfacet
  facet normal 0 -1 0
    outer loop
      vertex -22.1514 -2.5 4.75
      vertex -22.1514 -2.5 1.25
      vertex -5.93149 -2.5 1.25
    endloop
  endfacet
  facet normal 0 -1 0
    outer loop
      vertex -5.93149 -2.5 4.75
      vertex -22.1514 -2.5 4.75
      vertex -5.93149 -2.5 1.25
    endloop
  endfacet
  facet normal -0.891007 -0.45399 -0
    outer loop
      vertex -5.93149 -2.5 1.25
      vertex -5.25861 -3.8206 1.25
      vertex -5.93149 -2.5 4.75
    endloop
  endfacet
  facet normal -0.891007 -0.45399 0
    outer loop
      vertex -5.93149 -2.5 4.75
      vertex -5.25861 -3.8206 1.25
      vertex -5.25861 -3.8206 4.75
    endloop
  endfacet
  facet normal -0.707107 -0.707107 0
    outer loop
      vertex -5.25861 -3.8206 4.75
      vertex -5.25861 -3.8206 1.25
      vertex -3.8206 -5.25861 1.25
    endloop
  endfacet
  facet normal -0.707107 -0.707107 0
    outer loop
      vertex -3.8206 -5.25861 4.75
      vertex -5.25861 -3.8206 4.75
      vertex -3.8206 -5.25861 1.25
    endloop
  endfacet
  facet normal -0.45399 -0.891007 0
    outer loop
      vertex -3.8206 -5.25861 4.75
      vertex -3.8206 -5.25861 1.25
      vertex -2.00861 -6.18187 1.25
    endloop
  endfacet
  facet normal -0.45399 -0.891007 0
    outer loop
      vertex -2.00861 -6.18187 4.75
      vertex -3.8206 -5.25861 4.75
      vertex -2.00861 -6.18187 1.25
    endloop
  endfacet
  facet normal 0 0 1
    outer loop
      vertex -5.25861 -3.8206 4.75
      vertex -3.8206 -5.25861 4.75
      vertex -5.93149 -2.5 4.75
    endloop
  endfacet
  facet normal 0 -0 1
    outer loop
      vertex -19.0639 -1.3125 4.75
      vertex -22.1514 -2.5 4.75
      vertex -5.93149 -2.5 4.75
    endloop
  endfacet
  facet normal 0 0 1
    outer loop
      vertex -1.77984 1.29313 4.75
      vertex -1.29313 1.77984 4.75
      vertex -5.93149 2.5 4.75
    endloop
  endfacet
  facet normal 0 0 1
    outer loop
      vertex -3.8206 -5.25861 4.75
      vertex -2.00861 -6.18187 4.75
      vertex -5.93149 -2.5 4.75
    endloop
  endfacet
  facet normal 0 0 1
    outer loop
      vertex -2.00861 -6.18187 4.75
      vertex 0 -6.5 4.75
      vertex -5.93149 -2.5 4.75
    endloop
  endfacet
  facet normal 0 0 1
    outer loop
      vertex 0 -6.5 4.75
      vertex 2.00861 -6.18187 4.75
      vertex -5.93149 -2.5 4.75
    endloop
  endfacet
  facet normal 0 0 1
    outer loop
      vertex 2.00861 -6.18187 4.75
      vertex 3.8206 -5.25861 4.75
      vertex -5.93149 -2.5 4.75
    endloop
  endfacet
  facet normal 0 -0 1
    outer loop
      vertex -12.2389 1.3125 4.75
      vertex -12.2389 -1.3125 4.75
      vertex -5.93149 -2.5 4.75
    endloop
  endfacet
  facet normal 0 0 1
    outer loop
      vertex 0 2.2 4.75
      vertex 5.93149 2.5 4.75
      vertex -5.93149 2.5 4.75
    endloop
  endfacet
  facet normal 0 0 1
    outer loop
      vertex 12.4014 1.25 4.75
      vertex 22.1514 2.5 4.75
      vertex 5.93149 2.5 4.75
    endloop
  endfacet
  facet normal 0 0 1
    outer loop
      vertex -5.25861 3.8206 4.75
      vertex 5.25861 3.8206 4.75
      vertex 3.8206 5.25861 4.75
    endloop
  endfacet
  facet normal 0 0 1
    outer loop
      vertex -3.8206 5.25861 4.75
      vertex 3.8206 5.25861 4.75
      vertex 2.00861 6.18187 4.75
    endloop
  endfacet
  facet normal 0 -0 1
    outer loop
      vertex -3.8206 5.25861 4.75
      vertex -5.25861 3.8206 4.75
      vertex 3.8206 5.25861 4.75
    endloop
  endfacet
  facet normal 0 0 1
    outer loop
      vertex 12.4014 -1.25 4.75
      vertex 1.77984 1.29313 4.75
      vertex 2.09232 0.679837 4.75
    endloop
  endfacet
  facet normal 0 -0 1
    outer loop
      vertex -5.25861 3.8206 4.75
      vertex -5.93149 2.5 4.75
      vertex 5.25861 3.8206 4.75
    endloop
  endfacet
  facet normal 0 0 1
    outer loop
      vertex -12.2389 1.3125 4.75
      vertex -2.09232 0.679837 4.75
      vertex -22.1514 2.5 4.75
    endloop
  endfacet
  facet normal 0 0 1
    outer loop
      vertex -2.09232 0.679837 4.75
      vertex -5.93149 2.5 4.75
      vertex -22.1514 2.5 4.75
    endloop
  endfacet
  facet normal -0 0 1
    outer loop
      vertex 5.93149 2.5 4.75
      vertex 5.25861 3.8206 4.75
      vertex -5.93149 2.5 4.75
    endloop
  endfacet
  facet normal 0 -0 1
    outer loop
      vertex -12.2389 -1.3125 4.75
      vertex -19.0639 -1.3125 4.75
      vertex -5.93149 -2.5 4.75
    endloop
  endfacet
  facet normal 0 -0 1
    outer loop
      vertex -22.1514 2.5 4.75
      vertex -22.1514 -2.5 4.75
      vertex -19.0639 -1.3125 4.75
    endloop
  endfacet
  facet normal 0 0 1
    outer loop
      vertex -22.1514 2.5 4.75
      vertex -19.0639 -1.3125 4.75
      vertex -19.0639 1.3125 4.75
    endloop
  endfacet
  facet normal 0 0 1
    outer loop
      vertex 2.09232 0.679837 4.75
      vertex 2.2 0 4.75
      vertex 12.4014 -1.25 4.75
    endloop
  endfacet
  facet normal 0 -0 1
    outer loop
      vertex 2.09232 -0.679837 4.75
      vertex 1.77984 -1.29313 4.75
      vertex 22.1514 -2.5 4.75
    endloop
  endfacet
  facet normal 0 0 1
    outer loop
      vertex -2.09232 -0.679837 4.75
      vertex -2.2 0 4.75
      vertex -12.2389 1.3125 4.75
    endloop
  endfacet
  facet normal -0 0 1
    outer loop
      vertex -1.77984 1.29313 4.75
      vertex -5.93149 2.5 4.75
      vertex -2.09232 0.679837 4.75
    endloop
  endfacet
  facet normal 0 0 1
    outer loop
      vertex 12.4014 -1.25 4.75
      vertex 5.93149 2.5 4.75
      vertex 1.29313 1.77984 4.75
    endloop
  endfacet
  facet normal 0 0 1
    outer loop
      vertex -1.29313 1.77984 4.75
      vertex -0.679837 2.09232 4.75
      vertex -5.93149 2.5 4.75
    endloop
  endfacet
  facet normal 0 0 1
    outer loop
      vertex -0.679837 2.09232 4.75
      vertex 0 2.2 4.75
      vertex -5.93149 2.5 4.75
    endloop
  endfacet
  facet normal 0 0 1
    outer loop
      vertex 0.679837 2.09232 4.75
      vertex 1.29313 1.77984 4.75
      vertex 5.93149 2.5 4.75
    endloop
  endfacet
  facet normal 0 0 1
    outer loop
      vertex 12.4014 -1.25 4.75
      vertex 12.4014 1.25 4.75
      vertex 5.93149 2.5 4.75
    endloop
  endfacet
  facet normal 0 0 1
    outer loop
      vertex 0 2.2 4.75
      vertex 0.679837 2.09232 4.75
      vertex 5.93149 2.5 4.75
    endloop
  endfacet
  facet normal 0 -0 1
    outer loop
      vertex 1.77984 -1.29313 4.75
      vertex 1.29313 -1.77984 4.75
      vertex 5.93149 -2.5 4.75
    endloop
  endfacet
  facet normal 0 0 1
    outer loop
      vertex -0.679837 -2.09232 4.75
      vertex -1.29313 -1.77984 4.75
      vertex -12.2389 1.3125 4.75
    endloop
  endfacet
  facet normal 0 0 1
    outer loop
      vertex 5.93149 -2.5 4.75
      vertex 22.1514 -2.5 4.75
      vertex 1.77984 -1.29313 4.75
    endloop
  endfacet
  facet normal 0 0 1
    outer loop
      vertex -1.77984 -1.29313 4.75
      vertex -2.09232 -0.679837 4.75
      vertex -12.2389 1.3125 4.75
    endloop
  endfacet
  facet normal 0 0 1
    outer loop
      vertex 5.25861 -3.8206 4.75
      vertex 5.93149 -2.5 4.75
      vertex 1.29313 -1.77984 4.75
    endloop
  endfacet
  facet normal 0 0 1
    outer loop
      vertex 5.25861 -3.8206 4.75
      vertex 1.29313 -1.77984 4.75
      vertex 0.679837 -2.09232 4.75
    endloop
  endfacet
  facet normal 0 0 1
    outer loop
      vertex 5.25861 -3.8206 4.75
      vertex 0.679837 -2.09232 4.75
      vertex 0 -2.2 4.75
    endloop
  endfacet
  facet normal 0 0 1
    outer loop
      vertex 5.25861 -3.8206 4.75
      vertex 0 -2.2 4.75
      vertex -0.679837 -2.09232 4.75
    endloop
  endfacet
  facet normal 0 -0 1
    outer loop
      vertex 18.9014 -1.25 4.75
      vertex 12.4014 -1.25 4.75
      vertex 22.1514 -2.5 4.75
    endloop
  endfacet
  facet normal 0 0 1
    outer loop
      vertex -2.2 0 4.75
      vertex -2.09232 0.679837 4.75
      vertex -12.2389 1.3125 4.75
    endloop
  endfacet
  facet normal 0 0 1
    outer loop
      vertex 22.1514 -2.5 4.75
      vertex 12.4014 -1.25 4.75
      vertex 2.2 0 4.75
    endloop
  endfacet
  facet normal 0 -0 1
    outer loop
      vertex 2.2 0 4.75
      vertex 2.09232 -0.679837 4.75
      vertex 22.1514 -2.5 4.75
    endloop
  endfacet
  facet normal -0 0 1
    outer loop
      vertex 18.9014 1.25 4.75
      vertex 22.1514 2.5 4.75
      vertex 12.4014 1.25 4.75
    endloop
  endfacet
  facet normal 0 0 1
    outer loop
      vertex 22.1514 -2.5 4.75
      vertex 22.1514 2.5 4.75
      vertex 18.9014 1.25 4.75
    endloop
  endfacet
  facet normal 0 0 1
    outer loop
      vertex 22.1514 -2.5 4.75
      vertex 18.9014 1.25 4.75
      vertex 18.9014 -1.25 4.75
    endloop
  endfacet
  facet normal 0 0 1
    outer loop
      vertex -2.00861 6.18187 4.75
      vertex 2.00861 6.18187 4.75
      vertex 0 6.5 4.75
    endloop
  endfacet
  facet normal 0 -0 1
    outer loop
      vertex -2.00861 6.18187 4.75
      vertex -3.8206 5.25861 4.75
      vertex 2.00861 6.18187 4.75
    endloop
  endfacet
  facet normal 0 0 1
    outer loop
      vertex 12.4014 -1.25 4.75
      vertex 1.29313 1.77984 4.75
      vertex 1.77984 1.29313 4.75
    endloop
  endfacet
  facet normal 0 0 1
    outer loop
      vertex -1.29313 -1.77984 4.75
      vertex -1.77984 -1.29313 4.75
      vertex -12.2389 1.3125 4.75
    endloop
  endfacet
  facet normal 0 0 1
    outer loop
      vertex -0.679837 -2.09232 4.75
      vertex 3.8206 -5.25861 4.75
      vertex 5.25861 -3.8206 4.75
    endloop
  endfacet
  facet normal 0 0 1
    outer loop
      vertex -12.2389 1.3125 4.75
      vertex 3.8206 -5.25861 4.75
      vertex -0.679837 -2.09232 4.75
    endloop
  endfacet
  facet normal 0 0 1
    outer loop
      vertex -12.2389 1.3125 4.75
      vertex -5.93149 -2.5 4.75
      vertex 3.8206 -5.25861 4.75
    endloop
  endfacet
  facet normal 0 0 1
    outer loop
      vertex -19.0639 1.3125 4.75
      vertex -12.2389 1.3125 4.75
      vertex -22.1514 2.5 4.75
    endloop
  endfacet
  facet normal 0.45399 -0.891007 0
    outer loop
      vertex 2.00861 -6.18187 4.75
      vertex 2.00861 -6.18187 1.25
      vertex 3.8206 -5.25861 1.25
    endloop
  endfacet
  facet normal 0.45399 -0.891007 0
    outer loop
      vertex 3.8206 -5.25861 4.75
      vertex 2.00861 -6.18187 4.75
      vertex 3.8206 -5.25861 1.25
    endloop
  endfacet
  facet normal 0.707107 -0.707107 0
    outer loop
      vertex 3.8206 -5.25861 4.75
      vertex 3.8206 -5.25861 1.25
      vertex 5.25861 -3.8206 1.25
    endloop
  endfacet
  facet normal 0.707107 -0.707107 0
    outer loop
      vertex 5.25861 -3.8206 4.75
      vertex 3.8206 -5.25861 4.75
      vertex 5.25861 -3.8206 1.25
    endloop
  endfacet
  facet normal 0.891007 -0.45399 0
    outer loop
      vertex 5.25861 -3.8206 4.75
      vertex 5.25861 -3.8206 1.25
      vertex 5.93149 -2.5 1.25
    endloop
  endfacet
  facet normal 0.891007 -0.45399 0
    outer loop
      vertex 5.93149 -2.5 4.75
      vertex 5.25861 -3.8206 4.75
      vertex 5.93149 -2.5 1.25
    endloop
  endfacet
  facet normal 0 -1 0
    outer loop
      vertex 5.93149 -2.5 4.75
      vertex 5.93149 -2.5 1.25
      vertex 22.1514 -2.5 1.25
    endloop
  endfacet
  facet normal 0 -1 0
    outer loop
      vertex 22.1514 -2.5 4.75
      vertex 5.93149 -2.5 4.75
      vertex 22.1514 -2.5 1.25
    endloop
  endfacet
  facet normal 1 0 -0
    outer loop
      vertex 22.1514 -2.5 4.75
      vertex 22.1514 -2.5 1.25
      vertex 22.1514 2.5 1.25
    endloop
  endfacet
  facet normal 1 0 0
    outer loop
      vertex 22.1514 2.5 4.75
      vertex 22.1514 -2.5 4.75
      vertex 22.1514 2.5 1.25
    endloop
  endfacet
  facet normal 0 1 0
    outer loop
      vertex 5.93149 2.5 1.25
      vertex 5.93149 2.5 4.75
      vertex 22.1514 2.5 1.25
    endloop
  endfacet
  facet normal 0 1 0
    outer loop
      vertex 22.1514 2.5 1.25
      vertex 5.93149 2.5 4.75
      vertex 22.1514 2.5 4.75
    endloop
  endfacet
  facet normal 0.891007 0.45399 0
    outer loop
      vertex 5.93149 2.5 1.25
      vertex 5.25861 3.8206 1.25
      vertex 5.25861 3.8206 4.75
    endloop
  endfacet
  facet normal 0.891007 0.45399 -0
    outer loop
      vertex 5.93149 2.5 4.75
      vertex 5.93149 2.5 1.25
      vertex 5.25861 3.8206 4.75
    endloop
  endfacet
  facet normal 0.707107 0.707107 0
    outer loop
      vertex 3.8206 5.25861 1.25
      vertex 3.8206 5.25861 4.75
      vertex 5.25861 3.8206 1.25
    endloop
  endfacet
  facet normal 0.707107 0.707107 0
    outer loop
      vertex 5.25861 3.8206 1.25
      vertex 3.8206 5.25861 4.75
      vertex 5.25861 3.8206 4.75
    endloop
  endfacet
  facet normal 0.45399 0.891007 0
    outer loop
      vertex 2.00861 6.18187 1.25
      vertex 2.00861 6.18187 4.75
      vertex 3.8206 5.25861 1.25
    endloop
  endfacet
  facet normal 0.45399 0.891007 0
    outer loop
      vertex 3.8206 5.25861 1.25
      vertex 2.00861 6.18187 4.75
      vertex 3.8206 5.25861 4.75
    endloop
  endfacet
  facet normal 0 -0 -1
    outer loop
      vertex -3.69682 1.20499 1.26
      vertex -3.70912 1.20517 1.26
      vertex -3.14612 2.28579 1.26
    endloop
  endfacet
  facet normal 0 -0 -1
    outer loop
      vertex -2.28251 3.1478 1.26
      vertex -2.29236 3.15517 1.26
      vertex -1.20517 3.70912 1.26
    endloop
  endfacet
  facet normal 0 -0 -1
    outer loop
      vertex -1.19808 3.69907 1.26
      vertex -1.20517 3.70912 1.26
      vertex 0 3.9 1.26
    endloop
  endfacet
  facet normal -0 -0 -1
    outer loop
      vertex 0.00363549 3.88825 1.26
      vertex 0 3.9 1.26
      vertex 1.20517 3.70912 1.26
    endloop
  endfacet
  facet normal -0 0 -1
    outer loop
      vertex 1.20499 3.69682 1.26
      vertex 1.20517 3.70912 1.26
      vertex 2.29236 3.15517 1.26
    endloop
  endfacet
  facet normal -0 0 -1
    outer loop
      vertex 2.28579 3.14612 1.26
      vertex 2.29236 3.15517 1.26
      vertex 3.15517 2.29236 1.26
    endloop
  endfacet
  facet normal -0 0 -1
    outer loop
      vertex 3.1478 2.28251 1.26
      vertex 3.15517 2.29236 1.26
      vertex 3.70912 1.20517 1.26
    endloop
  endfacet
  facet normal -0 0 -1
    outer loop
      vertex 3.69907 1.19808 1.26
      vertex 3.70912 1.20517 1.26
      vertex 3.9 0 1.26
    endloop
  endfacet
  facet normal -0 0 -1
    outer loop
      vertex 3.88825 -0.00363549 1.26
      vertex 3.9 0 1.26
      vertex 3.70912 -1.20517 1.26
    endloop
  endfacet
  facet normal -0 0 -1
    outer loop
      vertex 3.14612 -2.28579 1.26
      vertex 3.70912 -1.20517 1.26
      vertex 3.15517 -2.29236 1.26
    endloop
  endfacet
  facet normal -0 0 -1
    outer loop
      vertex 2.28579 -3.14612 1.26
      vertex 3.15517 -2.29236 1.26
      vertex 2.29236 -3.15517 1.26
    endloop
  endfacet
  facet normal -0 0 -1
    outer loop
      vertex 1.20171 -3.69849 1.26
      vertex 2.29236 -3.15517 1.26
      vertex 1.20517 -3.70912 1.26
    endloop
  endfacet
  facet normal -0 0 -1
    outer loop
      vertex 0 -3.88882 1.26
      vertex 1.20517 -3.70912 1.26
      vertex 0 -3.9 1.26
    endloop
  endfacet
  facet normal 0 0 -1
    outer loop
      vertex -1.20171 -3.69849 1.26
      vertex 0 -3.9 1.26
      vertex -1.20517 -3.70912 1.26
    endloop
  endfacet
  facet normal 0 0 -1
    outer loop
      vertex -2.28579 -3.14612 1.26
      vertex -1.20517 -3.70912 1.26
      vertex -2.29236 -3.15517 1.26
    endloop
  endfacet
  facet normal 0 0 -1
    outer loop
      vertex -3.14612 -2.28579 1.26
      vertex -2.29236 -3.15517 1.26
      vertex -3.15517 -2.29236 1.26
    endloop
  endfacet
  facet normal 0 0 -1
    outer loop
      vertex -3.69849 -1.20171 1.26
      vertex -3.15517 -2.29236 1.26
      vertex -3.70912 -1.20517 1.26
    endloop
  endfacet
  facet normal 0 0 -1
    outer loop
      vertex -3.88882 0 1.26
      vertex -3.70912 -1.20517 1.26
      vertex -3.9 0 1.26
    endloop
  endfacet
  facet normal 0 0 -1
    outer loop
      vertex -3.70912 1.20517 1.26
      vertex -3.88882 0 1.26
      vertex -3.9 0 1.26
    endloop
  endfacet
  facet normal 0 0 -1
    outer loop
      vertex -3.1478 -2.28251 1.26
      vertex -3.15517 -2.29236 1.26
      vertex -3.69849 -1.20171 1.26
    endloop
  endfacet
  facet normal 0 0 -1
    outer loop
      vertex -3.69907 -1.19808 1.26
      vertex -3.69849 -1.20171 1.26
      vertex -3.70912 -1.20517 1.26
    endloop
  endfacet
  facet normal 0 0 -1
    outer loop
      vertex -2.28579 -3.14612 1.26
      vertex -2.29236 -3.15517 1.26
      vertex -3.14612 -2.28579 1.26
    endloop
  endfacet
  facet normal 0 0 -1
    outer loop
      vertex -3.1478 -2.28251 1.26
      vertex -3.14612 -2.28579 1.26
      vertex -3.15517 -2.29236 1.26
    endloop
  endfacet
  facet normal 0 0 -1
    outer loop
      vertex -1.20499 -3.69682 1.26
      vertex -1.20517 -3.70912 1.26
      vertex -2.28579 -3.14612 1.26
    endloop
  endfacet
  facet normal 0 0 -1
    outer loop
      vertex -0.00363549 -3.88825 1.26
      vertex 0 -3.9 1.26
      vertex -1.20171 -3.69849 1.26
    endloop
  endfacet
  facet normal 0 0 -1
    outer loop
      vertex -1.20499 -3.69682 1.26
      vertex -1.20171 -3.69849 1.26
      vertex -1.20517 -3.70912 1.26
    endloop
  endfacet
  facet normal 0 0 -1
    outer loop
      vertex 1.19808 -3.69907 1.26
      vertex 1.20517 -3.70912 1.26
      vertex 0 -3.88882 1.26
    endloop
  endfacet
  facet normal 0 0 -1
    outer loop
      vertex -0.00363549 -3.88825 1.26
      vertex 0 -3.88882 1.26
      vertex 0 -3.9 1.26
    endloop
  endfacet
  facet normal 0 0 -1
    outer loop
      vertex 2.28251 -3.1478 1.26
      vertex 2.29236 -3.15517 1.26
      vertex 1.20171 -3.69849 1.26
    endloop
  endfacet
  facet normal -0 0 -1
    outer loop
      vertex 1.19808 -3.69907 1.26
      vertex 1.20171 -3.69849 1.26
      vertex 1.20517 -3.70912 1.26
    endloop
  endfacet
  facet normal 0 0 -1
    outer loop
      vertex 3.14612 -2.28579 1.26
      vertex 3.15517 -2.29236 1.26
      vertex 2.28579 -3.14612 1.26
    endloop
  endfacet
  facet normal -0 0 -1
    outer loop
      vertex 2.28251 -3.1478 1.26
      vertex 2.28579 -3.14612 1.26
      vertex 2.29236 -3.15517 1.26
    endloop
  endfacet
  facet normal 0 0 -1
    outer loop
      vertex 3.69682 -1.20499 1.26
      vertex 3.70912 -1.20517 1.26
      vertex 3.14612 -2.28579 1.26
    endloop
  endfacet
  facet normal 0 0 -1
    outer loop
      vertex 3.88825 -0.00363549 1.26
      vertex 3.70912 -1.20517 1.26
      vertex 3.69849 -1.20171 1.26
    endloop
  endfacet
  facet normal 0 0 -1
    outer loop
      vertex 3.69849 -1.20171 1.26
      vertex 3.70912 -1.20517 1.26
      vertex 3.69682 -1.20499 1.26
    endloop
  endfacet
  facet normal 0 0 -1
    outer loop
      vertex 3.88882 0 1.26
      vertex 3.9 0 1.26
      vertex 3.88825 -0.00363549 1.26
    endloop
  endfacet
  facet normal 0 0 -1
    outer loop
      vertex 3.69907 1.19808 1.26
      vertex 3.9 0 1.26
      vertex 3.88882 0 1.26
    endloop
  endfacet
  facet normal -0 0 -1
    outer loop
      vertex 3.69849 1.20171 1.26
      vertex 3.70912 1.20517 1.26
      vertex 3.69907 1.19808 1.26
    endloop
  endfacet
  facet normal 0 0 -1
    outer loop
      vertex 3.1478 2.28251 1.26
      vertex 3.70912 1.20517 1.26
      vertex 3.69849 1.20171 1.26
    endloop
  endfacet
  facet normal -0 0 -1
    outer loop
      vertex 3.14612 2.28579 1.26
      vertex 3.15517 2.29236 1.26
      vertex 3.1478 2.28251 1.26
    endloop
  endfacet
  facet normal 0 0 -1
    outer loop
      vertex 2.28579 3.14612 1.26
      vertex 3.15517 2.29236 1.26
      vertex 3.14612 2.28579 1.26
    endloop
  endfacet
  facet normal 0 0 -1
    outer loop
      vertex 1.20499 3.69682 1.26
      vertex 2.29236 3.15517 1.26
      vertex 2.28579 3.14612 1.26
    endloop
  endfacet
  facet normal -0 0 -1
    outer loop
      vertex 1.20171 3.69849 1.26
      vertex 1.20517 3.70912 1.26
      vertex 1.20499 3.69682 1.26
    endloop
  endfacet
  facet normal 0 0 -1
    outer loop
      vertex 0.00363549 3.88825 1.26
      vertex 1.20517 3.70912 1.26
      vertex 1.20171 3.69849 1.26
    endloop
  endfacet
  facet normal -0 -0 -1
    outer loop
      vertex 0 3.88882 1.26
      vertex 0 3.9 1.26
      vertex 0.00363549 3.88825 1.26
    endloop
  endfacet
  facet normal 0 0 -1
    outer loop
      vertex -1.19808 3.69907 1.26
      vertex 0 3.9 1.26
      vertex 0 3.88882 1.26
    endloop
  endfacet
  facet normal 0 -0 -1
    outer loop
      vertex -1.20171 3.69849 1.26
      vertex -1.20517 3.70912 1.26
      vertex -1.19808 3.69907 1.26
    endloop
  endfacet
  facet normal 0 0 -1
    outer loop
      vertex -2.28251 3.1478 1.26
      vertex -1.20517 3.70912 1.26
      vertex -1.20171 3.69849 1.26
    endloop
  endfacet
  facet normal 0 -0 -1
    outer loop
      vertex -2.28579 3.14612 1.26
      vertex -2.29236 3.15517 1.26
      vertex -2.28251 3.1478 1.26
    endloop
  endfacet
  facet normal 0 0 -1
    outer loop
      vertex -3.14612 2.28579 1.26
      vertex -2.29236 3.15517 1.26
      vertex -2.28579 3.14612 1.26
    endloop
  endfacet
  facet normal -0 0 -1
    outer loop
      vertex -3.15517 2.29236 1.26
      vertex -2.29236 3.15517 1.26
      vertex -3.14612 2.28579 1.26
    endloop
  endfacet
  facet normal 0 0 -1
    outer loop
      vertex -3.15517 2.29236 1.26
      vertex -3.14612 2.28579 1.26
      vertex -3.70912 1.20517 1.26
    endloop
  endfacet
  facet normal 0 -0 -1
    outer loop
      vertex -3.69849 1.20171 1.26
      vertex -3.70912 1.20517 1.26
      vertex -3.69682 1.20499 1.26
    endloop
  endfacet
  facet normal 0 0 -1
    outer loop
      vertex -3.88825 0.00363549 1.26
      vertex -3.70912 1.20517 1.26
      vertex -3.69849 1.20171 1.26
    endloop
  endfacet
  facet normal 0 0 -1
    outer loop
      vertex -3.70912 1.20517 1.26
      vertex -3.88825 0.00363549 1.26
      vertex -3.88882 0 1.26
    endloop
  endfacet
  facet normal 0 0 -1
    outer loop
      vertex -3.69907 -1.19808 1.26
      vertex -3.70912 -1.20517 1.26
      vertex -3.88882 0 1.26
    endloop
  endfacet
  facet normal 1 0 0
    outer loop
      vertex -19.0639 1.3125 3.46875
      vertex -19.0639 1.3125 4.75
      vertex -19.0639 -1.3125 4.75
    endloop
  endfacet
  facet normal 1 0 0
    outer loop
      vertex -19.0639 -1.3125 3.46875
      vertex -19.0639 1.3125 3.46875
      vertex -19.0639 -1.3125 4.75
    endloop
  endfacet
  facet normal 0 1 0
    outer loop
      vertex -12.2389 -1.3125 4.75
      vertex -12.2389 -1.3125 3.46875
      vertex -19.0639 -1.3125 4.75
    endloop
  endfacet
  facet normal 0 1 -0
    outer loop
      vertex -19.0639 -1.3125 4.75
      vertex -12.2389 -1.3125 3.46875
      vertex -19.0639 -1.3125 3.46875
    endloop
  endfacet
  facet normal -1 0 0
    outer loop
      vertex -12.2389 1.3125 4.75
      vertex -12.2389 1.3125 3.46875
      vertex -12.2389 -1.3125 4.75
    endloop
  endfacet
  facet normal -1 0 0
    outer loop
      vertex -12.2389 -1.3125 4.75
      vertex -12.2389 1.3125 3.46875
      vertex -12.2389 -1.3125 3.46875
    endloop
  endfacet
  facet normal 0 -1 0
    outer loop
      vertex -12.2389 1.3125 3.46875
      vertex -12.2389 1.3125 4.75
      vertex -19.0639 1.3125 4.75
    endloop
  endfacet
  facet normal -0 -1 -0
    outer loop
      vertex -19.0639 1.3125 3.46875
      vertex -12.2389 1.3125 3.46875
      vertex -19.0639 1.3125 4.75
    endloop
  endfacet
  facet normal 0.987688 0.156435 0
    outer loop
      vertex -2.2 0 4.75
      vertex -2.09232 -0.679837 4.75
      vertex -2.09232 -0.679837 2.77105
    endloop
  endfacet
  facet normal 0.987688 0.156435 0
    outer loop
      vertex -2.2 0 2.77105
      vertex -2.2 0 4.75
      vertex -2.17991 -0.12686 2.77105
    endloop
  endfacet
  facet normal 0.987688 0.156435 2.06924e-16
    outer loop
      vertex -2.17991 -0.12686 2.77105
      vertex -2.2 0 4.75
      vertex -2.09232 -0.679837 2.77105
    endloop
  endfacet
  facet normal 0.891007 0.45399 0
    outer loop
      vertex -2.09232 -0.679837 4.75
      vertex -1.77984 -1.29313 4.75
      vertex -1.77984 -1.29313 2.77105
    endloop
  endfacet
  facet normal 0.891007 0.45399 3.14875e-17
    outer loop
      vertex -2.03401 -0.794279 2.77105
      vertex -2.09232 -0.679837 4.75
      vertex -1.77984 -1.29313 2.77105
    endloop
  endfacet
  facet normal 0.891007 0.45399 7.37199e-17
    outer loop
      vertex -2.09232 -0.679837 2.77105
      vertex -2.09232 -0.679837 4.75
      vertex -2.03401 -0.794279 2.77105
    endloop
  endfacet
  facet normal 0.707107 0.707107 -0
    outer loop
      vertex -1.29313 -1.77984 4.75
      vertex -1.29313 -1.77984 2.77105
      vertex -1.77984 -1.29313 4.75
    endloop
  endfacet
  facet normal 0.707107 0.707107 -0
    outer loop
      vertex -1.77984 -1.29313 4.75
      vertex -1.29313 -1.77984 2.77105
      vertex -1.77984 -1.29313 2.77105
    endloop
  endfacet
  facet normal 0.45399 0.891007 -0
    outer loop
      vertex -0.679837 -2.09232 4.75
      vertex -0.679837 -2.09232 2.77105
      vertex -1.29313 -1.77984 4.75
    endloop
  endfacet
  facet normal 0.45399 0.891007 7.95137e-17
    outer loop
      vertex -1.29313 -1.77984 4.75
      vertex -0.679837 -2.09232 2.77105
      vertex -1.17869 -1.83815 2.77105
    endloop
  endfacet
  facet normal 0.45399 0.891007 1.30454e-16
    outer loop
      vertex -1.17869 -1.83815 2.77105
      vertex -1.29313 -1.77984 2.77105
      vertex -1.29313 -1.77984 4.75
    endloop
  endfacet
  facet normal 0.156435 0.987688 -0
    outer loop
      vertex 0 -2.2 4.75
      vertex 0 -2.2 2.77105
      vertex -0.679837 -2.09232 4.75
    endloop
  endfacet
  facet normal 0.156435 0.987688 2.57136e-16
    outer loop
      vertex -0.679837 -2.09232 4.75
      vertex 0 -2.2 2.77105
      vertex -0.552978 -2.11242 2.77105
    endloop
  endfacet
  facet normal 0.156435 0.987688 -0
    outer loop
      vertex -0.679837 -2.09232 4.75
      vertex -0.552978 -2.11242 2.77105
      vertex -0.679837 -2.09232 2.77105
    endloop
  endfacet
  facet normal -0.156435 0.987688 0
    outer loop
      vertex 0.679837 -2.09232 4.75
      vertex 0.679837 -2.09232 2.77105
      vertex 0 -2.2 4.75
    endloop
  endfacet
  facet normal -0.156435 0.987688 2.06531e-16
    outer loop
      vertex 0 -2.2 4.75
      vertex 0.679837 -2.09232 2.77105
      vertex 0.12686 -2.17991 2.77105
    endloop
  endfacet
  facet normal -0.156435 0.987688 0
    outer loop
      vertex 0 -2.2 4.75
      vertex 0.12686 -2.17991 2.77105
      vertex 0 -2.2 2.77105
    endloop
  endfacet
  facet normal -0.45399 0.891007 0
    outer loop
      vertex 1.29313 -1.77984 4.75
      vertex 1.29313 -1.77984 2.77105
      vertex 0.679837 -2.09232 4.75
    endloop
  endfacet
  facet normal -0.45399 0.891007 3.23647e-17
    outer loop
      vertex 0.679837 -2.09232 4.75
      vertex 1.29313 -1.77984 2.77105
      vertex 0.794279 -2.03401 2.77105
    endloop
  endfacet
  facet normal -0.45399 0.891007 7.37199e-17
    outer loop
      vertex 0.679837 -2.09232 4.75
      vertex 0.794279 -2.03401 2.77105
      vertex 0.679837 -2.09232 2.77105
    endloop
  endfacet
  facet normal -0.707107 0.707107 0
    outer loop
      vertex 1.77984 -1.29313 4.75
      vertex 1.77984 -1.29313 2.77105
      vertex 1.29313 -1.77984 4.75
    endloop
  endfacet
  facet normal -0.707107 0.707107 0
    outer loop
      vertex 1.29313 -1.77984 4.75
      vertex 1.77984 -1.29313 2.77105
      vertex 1.29313 -1.77984 2.77105
    endloop
  endfacet
  facet normal -0.891007 0.45399 0
    outer loop
      vertex 2.09232 -0.679837 4.75
      vertex 2.09232 -0.679837 2.77105
      vertex 1.77984 -1.29313 4.75
    endloop
  endfacet
  facet normal -0.891007 0.45399 7.95137e-17
    outer loop
      vertex 1.77984 -1.29313 4.75
      vertex 2.09232 -0.679837 2.77105
      vertex 1.83815 -1.17869 2.77105
    endloop
  endfacet
  facet normal -0.891007 0.45399 1.30454e-16
    outer loop
      vertex 1.83815 -1.17869 2.77105
      vertex 1.77984 -1.29313 2.77105
      vertex 1.77984 -1.29313 4.75
    endloop
  endfacet
  facet normal -0.987688 0.156435 0
    outer loop
      vertex 2.2 0 4.75
      vertex 2.2 0 2.77105
      vertex 2.09232 -0.679837 4.75
    endloop
  endfacet
  facet normal -0.987688 0.156435 2.57136e-16
    outer loop
      vertex 2.09232 -0.679837 4.75
      vertex 2.2 0 2.77105
      vertex 2.11242 -0.552978 2.77105
    endloop
  endfacet
  facet normal -0.987688 0.156435 0
    outer loop
      vertex 2.09232 -0.679837 4.75
      vertex 2.11242 -0.552978 2.77105
      vertex 2.09232 -0.679837 2.77105
    endloop
  endfacet
  facet normal -0.987688 -0.156435 -0
    outer loop
      vertex 2.2 0 2.77105
      vertex 2.2 0 4.75
      vertex 2.17991 0.12686 2.77105
    endloop
  endfacet
  facet normal -0.987688 -0.156435 1.68312e-16
    outer loop
      vertex 2.17991 0.12686 2.77105
      vertex 2.2 0 4.75
      vertex 2.09232 0.679837 4.75
    endloop
  endfacet
  facet normal -0.987688 -0.156435 0
    outer loop
      vertex 2.17991 0.12686 2.77105
      vertex 2.09232 0.679837 4.75
      vertex 2.09232 0.679837 2.77105
    endloop
  endfacet
  facet normal -9.12831e-08 -4.6511e-08 -1.65348e-16
    outer loop
      vertex 2.03401 0.794279 2.77105
      vertex 2.09232 0.679837 2.77105
      vertex 1.77984 1.29313 2.77105
    endloop
  endfacet
  facet normal -0.891007 -0.45399 7.34091e-17
    outer loop
      vertex 1.77984 1.29313 2.77105
      vertex 2.09232 0.679837 2.77105
      vertex 2.09232 0.679837 4.75
    endloop
  endfacet
  facet normal -0.891007 -0.45399 1.31988e-16
    outer loop
      vertex 1.77984 1.29313 2.77105
      vertex 2.09232 0.679837 4.75
      vertex 1.77984 1.29313 4.75
    endloop
  endfacet
  facet normal -0.707107 -0.707107 -0
    outer loop
      vertex 1.77984 1.29313 2.77105
      vertex 1.77984 1.29313 4.75
      vertex 1.29313 1.77984 4.75
    endloop
  endfacet
  facet normal -0.707107 -0.707107 -0
    outer loop
      vertex 1.29313 1.77984 2.77105
      vertex 1.77984 1.29313 2.77105
      vertex 1.29313 1.77984 4.75
    endloop
  endfacet
  facet normal -0.45399 -0.891007 1.31988e-16
    outer loop
      vertex 1.29313 1.77984 4.75
      vertex 1.17869 1.83815 2.77105
      vertex 1.29313 1.77984 2.77105
    endloop
  endfacet
  facet normal -0.45399 -0.891007 9.39386e-17
    outer loop
      vertex 0.679837 2.09232 2.77105
      vertex 1.17869 1.83815 2.77105
      vertex 1.29313 1.77984 4.75
    endloop
  endfacet
  facet normal -0.45399 -0.891007 7.66918e-17
    outer loop
      vertex 1.29313 1.77984 4.75
      vertex 0.679837 2.09232 4.75
      vertex 0.679837 2.09232 2.77105
    endloop
  endfacet
  facet normal -0.156435 -0.987688 0
    outer loop
      vertex 0.552978 2.11242 2.77105
      vertex 0.679837 2.09232 2.77105
      vertex 0.679837 2.09232 4.75
    endloop
  endfacet
  facet normal -0.156435 -0.987688 -0
    outer loop
      vertex 0 2.2 2.77105
      vertex 0.552978 2.11242 2.77105
      vertex 0 2.2 4.75
    endloop
  endfacet
  facet normal -0.156435 -0.987688 2.01057e-16
    outer loop
      vertex 0 2.2 4.75
      vertex 0.552978 2.11242 2.77105
      vertex 0.679837 2.09232 4.75
    endloop
  endfacet
  facet normal 0.156435 -0.987688 0
    outer loop
      vertex -0.12686 2.17991 2.77105
      vertex 0 2.2 2.77105
      vertex 0 2.2 4.75
    endloop
  endfacet
  facet normal 0.156435 -0.987688 0
    outer loop
      vertex -0.679837 2.09232 2.77105
      vertex -0.12686 2.17991 2.77105
      vertex -0.679837 2.09232 4.75
    endloop
  endfacet
  facet normal 0.156435 -0.987688 1.69705e-16
    outer loop
      vertex -0.679837 2.09232 4.75
      vertex -0.12686 2.17991 2.77105
      vertex 0 2.2 4.75
    endloop
  endfacet
  facet normal 3.07724e-08 -6.03943e-08 -8.48117e-17
    outer loop
      vertex -1.29313 1.77984 2.77105
      vertex -0.794279 2.03401 2.77105
      vertex -0.679837 2.09232 2.77105
    endloop
  endfacet
  facet normal 0.45399 -0.891007 7.37198e-17
    outer loop
      vertex -0.679837 2.09232 4.75
      vertex -1.29313 1.77984 2.77105
      vertex -0.679837 2.09232 2.77105
    endloop
  endfacet
  facet normal 0.45399 -0.891007 1.31988e-16
    outer loop
      vertex -1.29313 1.77984 4.75
      vertex -1.29313 1.77984 2.77105
      vertex -0.679837 2.09232 4.75
    endloop
  endfacet
  facet normal 0.707107 -0.707107 0
    outer loop
      vertex -1.29313 1.77984 2.77105
      vertex -1.29313 1.77984 4.75
      vertex -1.77984 1.29313 4.75
    endloop
  endfacet
  facet normal 0.707107 -0.707107 0
    outer loop
      vertex -1.77984 1.29313 2.77105
      vertex -1.29313 1.77984 2.77105
      vertex -1.77984 1.29313 4.75
    endloop
  endfacet
  facet normal 0.891007 -0.45399 1.31988e-16
    outer loop
      vertex -1.77984 1.29313 4.75
      vertex -1.83815 1.17869 2.77105
      vertex -1.77984 1.29313 2.77105
    endloop
  endfacet
  facet normal 0.891007 -0.45399 9.39386e-17
    outer loop
      vertex -2.09232 0.679837 2.77105
      vertex -1.83815 1.17869 2.77105
      vertex -1.77984 1.29313 4.75
    endloop
  endfacet
  facet normal 0.891007 -0.45399 7.66918e-17
    outer loop
      vertex -1.77984 1.29313 4.75
      vertex -2.09232 0.679837 4.75
      vertex -2.09232 0.679837 2.77105
    endloop
  endfacet
  facet normal 0.987688 -0.156435 0
    outer loop
      vertex -2.11242 0.552978 2.77105
      vertex -2.09232 0.679837 2.77105
      vertex -2.09232 0.679837 4.75
    endloop
  endfacet
  facet normal 0.987688 -0.156435 0
    outer loop
      vertex -2.2 0 2.77105
      vertex -2.11242 0.552978 2.77105
      vertex -2.2 0 4.75
    endloop
  endfacet
  facet normal 0.987688 -0.156435 2.01057e-16
    outer loop
      vertex -2.2 0 4.75
      vertex -2.11242 0.552978 2.77105
      vertex -2.09232 0.679837 4.75
    endloop
  endfacet
  facet normal -1 -0 -0
    outer loop
      vertex 12.4014 -1.25 4.75
      vertex 12.4014 -1.25 6
      vertex 12.4014 1.25 4.75
    endloop
  endfacet
  facet normal -1 0 0
    outer loop
      vertex 12.4014 1.25 4.75
      vertex 12.4014 -1.25 6
      vertex 12.4014 1.25 6
    endloop
  endfacet
  facet normal 0 -1 0
    outer loop
      vertex 12.4014 -1.25 6
      vertex 12.4014 -1.25 4.75
      vertex 18.9014 -1.25 4.75
    endloop
  endfacet
  facet normal 0 -1 0
    outer loop
      vertex 18.9014 -1.25 6
      vertex 12.4014 -1.25 6
      vertex 18.9014 -1.25 4.75
    endloop
  endfacet
  facet normal 1 0 -0
    outer loop
      vertex 18.9014 -1.25 6
      vertex 18.9014 -1.25 4.75
      vertex 18.9014 1.25 4.75
    endloop
  endfacet
  facet normal 1 0 0
    outer loop
      vertex 18.9014 1.25 6
      vertex 18.9014 -1.25 6
      vertex 18.9014 1.25 4.75
    endloop
  endfacet
  facet normal 0 1 0
    outer loop
      vertex 12.4014 1.25 4.75
      vertex 12.4014 1.25 6
      vertex 18.9014 1.25 4.75
    endloop
  endfacet
  facet normal 0 1 0
    outer loop
      vertex 18.9014 1.25 4.75
      vertex 12.4014 1.25 6
      vertex 18.9014 1.25 6
    endloop
  endfacet
  facet normal 0.663107 0.105026 -0.74112
    outer loop
      vertex -2.17991 -0.12686 2.77105
      vertex -3.69907 -1.19808 1.26
      vertex -2.2 0 2.77105
    endloop
  endfacet
  facet normal 0.663107 0.105026 -0.74112
    outer loop
      vertex -2.2 0 2.77105
      vertex -3.69907 -1.19808 1.26
      vertex -3.88882 0 1.26
    endloop
  endfacet
  facet normal 0.663107 -0.105026 -0.74112
    outer loop
      vertex -2.11242 0.552978 2.77105
      vertex -2.2 0 2.77105
      vertex -3.88825 0.00363549 1.26
    endloop
  endfacet
  facet normal 0.663107 -0.105026 -0.74112
    outer loop
      vertex -3.88825 0.00363549 1.26
      vertex -2.2 0 2.77105
      vertex -3.88882 0 1.26
    endloop
  endfacet
  facet normal 0.663107 -0.105026 -0.74112
    outer loop
      vertex -3.69849 1.20171 1.26
      vertex -2.09232 0.679837 2.77105
      vertex -2.11242 0.552978 2.77105
    endloop
  endfacet
  facet normal 0.663107 -0.105026 -0.74112
    outer loop
      vertex -3.69849 1.20171 1.26
      vertex -2.11242 0.552978 2.77105
      vertex -3.88825 0.00363549 1.26
    endloop
  endfacet
  facet normal 0.598198 -0.304797 -0.74112
    outer loop
      vertex -1.83815 1.17869 2.77105
      vertex -2.09232 0.679837 2.77105
      vertex -3.69682 1.20499 1.26
    endloop
  endfacet
  facet normal 0.598198 -0.304797 -0.74112
    outer loop
      vertex -3.69682 1.20499 1.26
      vertex -2.09232 0.679837 2.77105
      vertex -3.69849 1.20171 1.26
    endloop
  endfacet
  facet normal 0.598198 -0.304797 -0.74112
    outer loop
      vertex -1.77984 1.29313 2.77105
      vertex -1.83815 1.17869 2.77105
      vertex -3.14612 2.28579 1.26
    endloop
  endfacet
  facet normal 0.598198 -0.304797 -0.74112
    outer loop
      vertex -3.14612 2.28579 1.26
      vertex -1.83815 1.17869 2.77105
      vertex -3.69682 1.20499 1.26
    endloop
  endfacet
  facet normal 0.474732 -0.474732 -0.74112
    outer loop
      vertex -2.28579 3.14612 1.26
      vertex -1.29313 1.77984 2.77105
      vertex -1.77984 1.29313 2.77105
    endloop
  endfacet
  facet normal 0.474732 -0.474732 -0.74112
    outer loop
      vertex -2.28579 3.14612 1.26
      vertex -1.77984 1.29313 2.77105
      vertex -3.14612 2.28579 1.26
    endloop
  endfacet
  facet normal 0.304797 -0.598198 -0.74112
    outer loop
      vertex -0.794279 2.03401 2.77105
      vertex -1.29313 1.77984 2.77105
      vertex -2.28251 3.1478 1.26
    endloop
  endfacet
  facet normal 0.304797 -0.598198 -0.74112
    outer loop
      vertex -2.28251 3.1478 1.26
      vertex -1.29313 1.77984 2.77105
      vertex -2.28579 3.14612 1.26
    endloop
  endfacet
  facet normal 0.304797 -0.598198 -0.74112
    outer loop
      vertex -0.679837 2.09232 2.77105
      vertex -0.794279 2.03401 2.77105
      vertex -1.20171 3.69849 1.26
    endloop
  endfacet
  facet normal 0.304797 -0.598198 -0.74112
    outer loop
      vertex -1.20171 3.69849 1.26
      vertex -0.794279 2.03401 2.77105
      vertex -2.28251 3.1478 1.26
    endloop
  endfacet
  facet normal 0.105026 -0.663107 -0.74112
    outer loop
      vertex -0.12686 2.17991 2.77105
      vertex -0.679837 2.09232 2.77105
      vertex -1.19808 3.69907 1.26
    endloop
  endfacet
  facet normal 0.105026 -0.663107 -0.74112
    outer loop
      vertex -1.19808 3.69907 1.26
      vertex -0.679837 2.09232 2.77105
      vertex -1.20171 3.69849 1.26
    endloop
  endfacet
  facet normal 0.105026 -0.663107 -0.74112
    outer loop
      vertex 0 2.2 2.77105
      vertex -0.12686 2.17991 2.77105
      vertex 0 3.88882 1.26
    endloop
  endfacet
  facet normal 0.105026 -0.663107 -0.74112
    outer loop
      vertex 0 3.88882 1.26
      vertex -0.12686 2.17991 2.77105
      vertex -1.19808 3.69907 1.26
    endloop
  endfacet
  facet normal -0.105026 -0.663107 -0.74112
    outer loop
      vertex 0.00363549 3.88825 1.26
      vertex 0.552978 2.11242 2.77105
      vertex 0 3.88882 1.26
    endloop
  endfacet
  facet normal -0.105026 -0.663107 -0.74112
    outer loop
      vertex 0 3.88882 1.26
      vertex 0.552978 2.11242 2.77105
      vertex 0 2.2 2.77105
    endloop
  endfacet
  facet normal -0.105026 -0.663107 -0.74112
    outer loop
      vertex 1.20171 3.69849 1.26
      vertex 0.679837 2.09232 2.77105
      vertex 0.552978 2.11242 2.77105
    endloop
  endfacet
  facet normal -0.105026 -0.663107 -0.74112
    outer loop
      vertex 1.20171 3.69849 1.26
      vertex 0.552978 2.11242 2.77105
      vertex 0.00363549 3.88825 1.26
    endloop
  endfacet
  facet normal -0.304797 -0.598198 -0.74112
    outer loop
      vertex 1.20499 3.69682 1.26
      vertex 1.17869 1.83815 2.77105
      vertex 1.20171 3.69849 1.26
    endloop
  endfacet
  facet normal -0.304797 -0.598198 -0.74112
    outer loop
      vertex 1.20171 3.69849 1.26
      vertex 1.17869 1.83815 2.77105
      vertex 0.679837 2.09232 2.77105
    endloop
  endfacet
  facet normal -0.304797 -0.598198 -0.74112
    outer loop
      vertex 2.28579 3.14612 1.26
      vertex 1.29313 1.77984 2.77105
      vertex 1.20499 3.69682 1.26
    endloop
  endfacet
  facet normal -0.304797 -0.598198 -0.74112
    outer loop
      vertex 1.20499 3.69682 1.26
      vertex 1.29313 1.77984 2.77105
      vertex 1.17869 1.83815 2.77105
    endloop
  endfacet
  facet normal -0.474732 -0.474732 -0.74112
    outer loop
      vertex 3.14612 2.28579 1.26
      vertex 1.77984 1.29313 2.77105
      vertex 2.28579 3.14612 1.26
    endloop
  endfacet
  facet normal -0.474732 -0.474732 -0.74112
    outer loop
      vertex 2.28579 3.14612 1.26
      vertex 1.77984 1.29313 2.77105
      vertex 1.29313 1.77984 2.77105
    endloop
  endfacet
  facet normal -0.598198 -0.304797 -0.74112
    outer loop
      vertex 3.1478 2.28251 1.26
      vertex 2.03401 0.794279 2.77105
      vertex 3.14612 2.28579 1.26
    endloop
  endfacet
  facet normal -0.598198 -0.304797 -0.74112
    outer loop
      vertex 3.14612 2.28579 1.26
      vertex 2.03401 0.794279 2.77105
      vertex 1.77984 1.29313 2.77105
    endloop
  endfacet
  facet normal -0.598198 -0.304797 -0.74112
    outer loop
      vertex 3.69849 1.20171 1.26
      vertex 2.09232 0.679837 2.77105
      vertex 3.1478 2.28251 1.26
    endloop
  endfacet
  facet normal -0.598198 -0.304797 -0.74112
    outer loop
      vertex 3.1478 2.28251 1.26
      vertex 2.09232 0.679837 2.77105
      vertex 2.03401 0.794279 2.77105
    endloop
  endfacet
  facet normal -0.663107 -0.105026 -0.74112
    outer loop
      vertex 3.69907 1.19808 1.26
      vertex 2.17991 0.12686 2.77105
      vertex 3.69849 1.20171 1.26
    endloop
  endfacet
  facet normal -0.663107 -0.105026 -0.74112
    outer loop
      vertex 3.69849 1.20171 1.26
      vertex 2.17991 0.12686 2.77105
      vertex 2.09232 0.679837 2.77105
    endloop
  endfacet
  facet normal -0.663107 -0.105026 -0.74112
    outer loop
      vertex 3.88882 0 1.26
      vertex 2.2 0 2.77105
      vertex 3.69907 1.19808 1.26
    endloop
  endfacet
  facet normal -0.663107 -0.105026 -0.74112
    outer loop
      vertex 3.69907 1.19808 1.26
      vertex 2.2 0 2.77105
      vertex 2.17991 0.12686 2.77105
    endloop
  endfacet
  facet normal -0.663107 0.105026 -0.74112
    outer loop
      vertex 3.88882 0 1.26
      vertex 3.88825 -0.00363549 1.26
      vertex 2.2 0 2.77105
    endloop
  endfacet
  facet normal -0.663107 0.105026 -0.74112
    outer loop
      vertex 2.2 0 2.77105
      vertex 3.88825 -0.00363549 1.26
      vertex 2.11242 -0.552978 2.77105
    endloop
  endfacet
  facet normal -0.663107 0.105026 -0.74112
    outer loop
      vertex 2.11242 -0.552978 2.77105
      vertex 3.88825 -0.00363549 1.26
      vertex 2.09232 -0.679837 2.77105
    endloop
  endfacet
  facet normal -0.663107 0.105026 -0.74112
    outer loop
      vertex 2.09232 -0.679837 2.77105
      vertex 3.88825 -0.00363549 1.26
      vertex 3.69849 -1.20171 1.26
    endloop
  endfacet
  facet normal -0.598198 0.304797 -0.74112
    outer loop
      vertex 3.69849 -1.20171 1.26
      vertex 3.69682 -1.20499 1.26
      vertex 2.09232 -0.679837 2.77105
    endloop
  endfacet
  facet normal -0.598198 0.304797 -0.74112
    outer loop
      vertex 2.09232 -0.679837 2.77105
      vertex 3.69682 -1.20499 1.26
      vertex 1.83815 -1.17869 2.77105
    endloop
  endfacet
  facet normal -0.598198 0.304797 -0.74112
    outer loop
      vertex 3.69682 -1.20499 1.26
      vertex 3.14612 -2.28579 1.26
      vertex 1.83815 -1.17869 2.77105
    endloop
  endfacet
  facet normal -0.598198 0.304797 -0.74112
    outer loop
      vertex 1.83815 -1.17869 2.77105
      vertex 3.14612 -2.28579 1.26
      vertex 1.77984 -1.29313 2.77105
    endloop
  endfacet
  facet normal -0.474732 0.474732 -0.74112
    outer loop
      vertex 1.77984 -1.29313 2.77105
      vertex 3.14612 -2.28579 1.26
      vertex 1.29313 -1.77984 2.77105
    endloop
  endfacet
  facet normal -0.474732 0.474732 -0.74112
    outer loop
      vertex 3.14612 -2.28579 1.26
      vertex 2.28579 -3.14612 1.26
      vertex 1.29313 -1.77984 2.77105
    endloop
  endfacet
  facet normal -0.304797 0.598198 -0.74112
    outer loop
      vertex 2.28579 -3.14612 1.26
      vertex 2.28251 -3.1478 1.26
      vertex 1.29313 -1.77984 2.77105
    endloop
  endfacet
  facet normal -0.304797 0.598198 -0.74112
    outer loop
      vertex 1.29313 -1.77984 2.77105
      vertex 2.28251 -3.1478 1.26
      vertex 0.794279 -2.03401 2.77105
    endloop
  endfacet
  facet normal -0.304797 0.598198 -0.74112
    outer loop
      vertex 2.28251 -3.1478 1.26
      vertex 1.20171 -3.69849 1.26
      vertex 0.794279 -2.03401 2.77105
    endloop
  endfacet
  facet normal -0.304797 0.598198 -0.74112
    outer loop
      vertex 0.794279 -2.03401 2.77105
      vertex 1.20171 -3.69849 1.26
      vertex 0.679837 -2.09232 2.77105
    endloop
  endfacet
  facet normal -0.105026 0.663107 -0.74112
    outer loop
      vertex 0.679837 -2.09232 2.77105
      vertex 1.20171 -3.69849 1.26
      vertex 1.19808 -3.69907 1.26
    endloop
  endfacet
  facet normal -0.105026 0.663107 -0.74112
    outer loop
      vertex 0.679837 -2.09232 2.77105
      vertex 1.19808 -3.69907 1.26
      vertex 0.12686 -2.17991 2.77105
    endloop
  endfacet
  facet normal -0.105026 0.663107 -0.74112
    outer loop
      vertex 0.12686 -2.17991 2.77105
      vertex 1.19808 -3.69907 1.26
      vertex 0 -2.2 2.77105
    endloop
  endfacet
  facet normal -0.105026 0.663107 -0.74112
    outer loop
      vertex 0 -2.2 2.77105
      vertex 1.19808 -3.69907 1.26
      vertex 0 -3.88882 1.26
    endloop
  endfacet
  facet normal 0.105026 0.663107 -0.74112
    outer loop
      vertex 0 -3.88882 1.26
      vertex -0.00363549 -3.88825 1.26
      vertex 0 -2.2 2.77105
    endloop
  endfacet
  facet normal 0.105026 0.663107 -0.74112
    outer loop
      vertex 0 -2.2 2.77105
      vertex -0.00363549 -3.88825 1.26
      vertex -0.552978 -2.11242 2.77105
    endloop
  endfacet
  facet normal 0.105026 0.663107 -0.74112
    outer loop
      vertex -0.679837 -2.09232 2.77105
      vertex -0.552978 -2.11242 2.77105
      vertex -0.00363549 -3.88825 1.26
    endloop
  endfacet
  facet normal 0.105026 0.663107 -0.74112
    outer loop
      vertex -0.00363549 -3.88825 1.26
      vertex -1.20171 -3.69849 1.26
      vertex -0.679837 -2.09232 2.77105
    endloop
  endfacet
  facet normal 0.304797 0.598198 -0.74112
    outer loop
      vertex -0.679837 -2.09232 2.77105
      vertex -1.20171 -3.69849 1.26
      vertex -1.17869 -1.83815 2.77105
    endloop
  endfacet
  facet normal 0.304797 0.598198 -0.74112
    outer loop
      vertex -1.17869 -1.83815 2.77105
      vertex -1.20171 -3.69849 1.26
      vertex -1.20499 -3.69682 1.26
    endloop
  endfacet
  facet normal 0.304797 0.598198 -0.74112
    outer loop
      vertex -1.17869 -1.83815 2.77105
      vertex -1.20499 -3.69682 1.26
      vertex -1.29313 -1.77984 2.77105
    endloop
  endfacet
  facet normal 0.304797 0.598198 -0.74112
    outer loop
      vertex -1.29313 -1.77984 2.77105
      vertex -1.20499 -3.69682 1.26
      vertex -2.28579 -3.14612 1.26
    endloop
  endfacet
  facet normal 0.474732 0.474732 -0.74112
    outer loop
      vertex -1.77984 -1.29313 2.77105
      vertex -1.29313 -1.77984 2.77105
      vertex -2.28579 -3.14612 1.26
    endloop
  endfacet
  facet normal 0.474732 0.474732 -0.74112
    outer loop
      vertex -2.28579 -3.14612 1.26
      vertex -3.14612 -2.28579 1.26
      vertex -1.77984 -1.29313 2.77105
    endloop
  endfacet
  facet normal 0.598198 0.304797 -0.74112
    outer loop
      vertex -1.77984 -1.29313 2.77105
      vertex -3.14612 -2.28579 1.26
      vertex -2.03401 -0.794279 2.77105
    endloop
  endfacet
  facet normal 0.598198 0.304797 -0.74112
    outer loop
      vertex -2.03401 -0.794279 2.77105
      vertex -3.14612 -2.28579 1.26
      vertex -3.1478 -2.28251 1.26
    endloop
  endfacet
  facet normal 0.598198 0.304797 -0.74112
    outer loop
      vertex -2.03401 -0.794279 2.77105
      vertex -3.1478 -2.28251 1.26
      vertex -2.09232 -0.679837 2.77105
    endloop
  endfacet
  facet normal 0.598198 0.304797 -0.74112
    outer loop
      vertex -2.09232 -0.679837 2.77105
      vertex -3.1478 -2.28251 1.26
      vertex -3.69849 -1.20171 1.26
    endloop
  endfacet
  facet normal 0.663107 0.105026 -0.74112
    outer loop
      vertex -2.09232 -0.679837 2.77105
      vertex -3.69849 -1.20171 1.26
      vertex -2.17991 -0.12686 2.77105
    endloop
  endfacet
  facet normal 0.663107 0.105026 -0.74112
    outer loop
      vertex -3.69849 -1.20171 1.26
      vertex -3.69907 -1.19808 1.26
      vertex -2.17991 -0.12686 2.77105
    endloop
  endfacet
  facet normal 0 0 1
    outer loop
      vertex -12.2389 -1.3125 3.46875
      vertex -12.2389 1.3125 3.46875
      vertex -19.0639 1.3125 3.46875
    endloop
  endfacet
  facet normal 0 0 1
    outer loop
      vertex -19.0639 -1.3125 3.46875
      vertex -12.2389 -1.3125 3.46875
      vertex -19.0639 1.3125 3.46875
    endloop
  endfacet
  facet normal 0 -0 1
    outer loop
      vertex 12.4014 1.25 6
      vertex 12.4014 -1.25 6
      vertex 18.9014 -1.25 6
    endloop
  endfacet
  facet normal 0 0 1
    outer loop
      vertex 18.9014 1.25 6
      vertex 12.4014 1.25 6
      vertex 18.9014 -1.25 6
    endloop
  endfacet
endsolid OpenSCAD_Model
