solid OpenSCAD_Model
  facet normal -1 -0 -0
    outer loop
      vertex -16.7 -1.9 -4.9
      vertex -16.7 -1.9 -0.9
      vertex -16.7 13.7 -4.9
    endloop
  endfacet
  facet normal -1 0 0
    outer loop
      vertex -16.7 13.7 -4.9
      vertex -16.7 -1.9 -0.9
      vertex -16.7 13.7 -0.9
    endloop
  endfacet
  facet normal 0 -1 0
    outer loop
      vertex -16.7 -1.9 -0.9
      vertex -16.7 -1.9 -4.9
      vertex -7.49907 -1.9 -4.9
    endloop
  endfacet
  facet normal 0 -1 0
    outer loop
      vertex -7.49907 -1.9 -0.9
      vertex -16.7 -1.9 -0.9
      vertex -7.49907 -1.9 -4.9
    endloop
  endfacet
  facet normal 0 0 -1
    outer loop
      vertex -9.1 3.2 -4.9
      vertex -7.8 0 -4.9
      vertex -7.49907 -1.9 -4.9
    endloop
  endfacet
  facet normal 0 -0 -1
    outer loop
      vertex -2.41033 7.41824 -4.9
      vertex -16.7 13.7 -4.9
      vertex 3.3 13.7 -4.9
    endloop
  endfacet
  facet normal -0 0 -1
    outer loop
      vertex 0 7.8 -4.9
      vertex 3.3 13.7 -4.9
      vertex 3.3 7.8 -4.9
    endloop
  endfacet
  facet normal 0 0 -1
    outer loop
      vertex -9.1 10.2 -4.9
      vertex -4.58472 6.31033 -4.9
      vertex -6.31033 4.58472 -4.9
    endloop
  endfacet
  facet normal -0 -0 -1
    outer loop
      vertex -9.1 10.2 -4.9
      vertex -16.7 13.7 -4.9
      vertex -2.41033 7.41824 -4.9
    endloop
  endfacet
  facet normal -0 -0 -1
    outer loop
      vertex -12.8 10.2 -4.9
      vertex -16.7 13.7 -4.9
      vertex -9.1 10.2 -4.9
    endloop
  endfacet
  facet normal 0 0 -1
    outer loop
      vertex -12.8 3.2 -4.9
      vertex -16.7 13.7 -4.9
      vertex -12.8 10.2 -4.9
    endloop
  endfacet
  facet normal 0 0 -1
    outer loop
      vertex -9.1 3.2 -4.9
      vertex -7.49907 -1.9 -4.9
      vertex -12.8 3.2 -4.9
    endloop
  endfacet
  facet normal 0 -0 -1
    outer loop
      vertex -16.7 -1.9 -4.9
      vertex -16.7 13.7 -4.9
      vertex -12.8 3.2 -4.9
    endloop
  endfacet
  facet normal -0 0 -1
    outer loop
      vertex -16.7 -1.9 -4.9
      vertex -12.8 3.2 -4.9
      vertex -7.49907 -1.9 -4.9
    endloop
  endfacet
  facet normal 0 -0 -1
    outer loop
      vertex -7.8 0 -4.9
      vertex -9.1 3.2 -4.9
      vertex -7.41824 2.41033 -4.9
    endloop
  endfacet
  facet normal 0 0 -1
    outer loop
      vertex -9.1 10.2 -4.9
      vertex -6.31033 4.58472 -4.9
      vertex -7.41824 2.41033 -4.9
    endloop
  endfacet
  facet normal 0 -0 -1
    outer loop
      vertex -4.58472 6.31033 -4.9
      vertex -9.1 10.2 -4.9
      vertex -2.41033 7.41824 -4.9
    endloop
  endfacet
  facet normal 0 0 -1
    outer loop
      vertex -2.41033 7.41824 -4.9
      vertex 3.3 13.7 -4.9
      vertex 0 7.8 -4.9
    endloop
  endfacet
  facet normal 0 0 -1
    outer loop
      vertex -9.1 10.2 -4.9
      vertex -7.41824 2.41033 -4.9
      vertex -9.1 3.2 -4.9
    endloop
  endfacet
  facet normal 0 1 0
    outer loop
      vertex -16.7 13.7 -4.9
      vertex -16.7 13.7 -0.9
      vertex 3.3 13.7 -4.9
    endloop
  endfacet
  facet normal 0 1 0
    outer loop
      vertex 3.3 13.7 -4.9
      vertex -16.7 13.7 -0.9
      vertex 3.3 13.7 -0.9
    endloop
  endfacet
  facet normal 0 -0 1
    outer loop
      vertex -12.8 3.2 -0.9
      vertex -16.7 -1.9 -0.9
      vertex -7.49907 -1.9 -0.9
    endloop
  endfacet
  facet normal 0 0 1
    outer loop
      vertex -12.8 3.2 -0.9
      vertex -12.8 10.2 -0.9
      vertex -16.7 13.7 -0.9
    endloop
  endfacet
  facet normal 0 0 1
    outer loop
      vertex -9.1 10.2 -0.9
      vertex -6.31033 4.58472 -0.9
      vertex -4.58472 6.31033 -0.9
    endloop
  endfacet
  facet normal 0 0 1
    outer loop
      vertex -9.1 10.2 -0.9
      vertex -7.41824 2.41033 -0.9
      vertex -6.31033 4.58472 -0.9
    endloop
  endfacet
  facet normal -0 0 1
    outer loop
      vertex 0 7.8 -0.9
      vertex -16.7 13.7 -0.9
      vertex -2.41033 7.41824 -0.9
    endloop
  endfacet
  facet normal -0 0 1
    outer loop
      vertex 3.3 7.8 -0.9
      vertex -16.7 13.7 -0.9
      vertex 0 7.8 -0.9
    endloop
  endfacet
  facet normal 0 0 1
    outer loop
      vertex 3.3 13.7 -0.9
      vertex -16.7 13.7 -0.9
      vertex 3.3 7.8 -0.9
    endloop
  endfacet
  facet normal 0 -0 1
    outer loop
      vertex -16.7 13.7 -0.9
      vertex -16.7 -1.9 -0.9
      vertex -12.8 3.2 -0.9
    endloop
  endfacet
  facet normal 0 -0 1
    outer loop
      vertex -9.1 10.2 -0.9
      vertex -9.1 3.2 -0.9
      vertex -7.41824 2.41033 -0.9
    endloop
  endfacet
  facet normal -0 0 1
    outer loop
      vertex -2.41033 7.41824 -0.9
      vertex -9.1 10.2 -0.9
      vertex -4.58472 6.31033 -0.9
    endloop
  endfacet
  facet normal 0 0 1
    outer loop
      vertex -2.41033 7.41824 -0.9
      vertex -16.7 13.7 -0.9
      vertex -9.1 10.2 -0.9
    endloop
  endfacet
  facet normal -0 0 1
    outer loop
      vertex -7.41824 2.41033 -0.9
      vertex -9.1 3.2 -0.9
      vertex -7.8 0 -0.9
    endloop
  endfacet
  facet normal 0 0 1
    outer loop
      vertex -12.8 10.2 -0.9
      vertex -9.1 10.2 -0.9
      vertex -16.7 13.7 -0.9
    endloop
  endfacet
  facet normal 0 0 1
    outer loop
      vertex -9.1 3.2 -0.9
      vertex -7.49907 -1.9 -0.9
      vertex -7.8 0 -0.9
    endloop
  endfacet
  facet normal 0 -0 1
    outer loop
      vertex -9.1 3.2 -0.9
      vertex -12.8 3.2 -0.9
      vertex -7.49907 -1.9 -0.9
    endloop
  endfacet
  facet normal -0.987688 -0.156434 -0
    outer loop
      vertex -7.8 0 -5
      vertex -7.41824 -2.41033 -5
      vertex -7.8 0 -4.9
    endloop
  endfacet
  facet normal -0.987688 -0.156434 0
    outer loop
      vertex -7.49907 -1.9 -0.9
      vertex -7.41824 -2.41033 -5
      vertex -7.41824 -2.41033 5
    endloop
  endfacet
  facet normal -0.987688 -0.156434 -0
    outer loop
      vertex -7.8 0 -0.9
      vertex -7.41824 -2.41033 5
      vertex -7.8 0 5
    endloop
  endfacet
  facet normal -0.987688 -0.156434 -0
    outer loop
      vertex -7.49907 -1.9 -4.9
      vertex -7.41824 -2.41033 -5
      vertex -7.49907 -1.9 -0.9
    endloop
  endfacet
  facet normal -0.987688 -0.156434 7.68643e-15
    outer loop
      vertex -7.8 0 -4.9
      vertex -7.41824 -2.41033 -5
      vertex -7.49907 -1.9 -4.9
    endloop
  endfacet
  facet normal -0.987688 -0.156434 -1.40175e-16
    outer loop
      vertex -7.49907 -1.9 -0.9
      vertex -7.41824 -2.41033 5
      vertex -7.8 0 -0.9
    endloop
  endfacet
  facet normal -0.987688 0.156434 0
    outer loop
      vertex -7.8 0 -5
      vertex -7.8 0 -4.9
      vertex -7.41824 2.41033 -5
    endloop
  endfacet
  facet normal -0.987688 0.156434 0
    outer loop
      vertex -7.41824 2.41033 -5
      vertex -7.8 0 -4.9
      vertex -7.41824 2.41033 -4.9
    endloop
  endfacet
  facet normal -0.891007 0.45399 0
    outer loop
      vertex -7.41824 2.41033 -5
      vertex -7.41824 2.41033 -4.9
      vertex -6.31033 4.58472 -5
    endloop
  endfacet
  facet normal -0.891007 0.45399 0
    outer loop
      vertex -6.31033 4.58472 -5
      vertex -7.41824 2.41033 -4.9
      vertex -6.31033 4.58472 -4.9
    endloop
  endfacet
  facet normal -0.707107 0.707107 0
    outer loop
      vertex -6.31033 4.58472 -5
      vertex -6.31033 4.58472 -4.9
      vertex -4.58472 6.31033 -5
    endloop
  endfacet
  facet normal -0.707107 0.707107 0
    outer loop
      vertex -4.58472 6.31033 -5
      vertex -6.31033 4.58472 -4.9
      vertex -4.58472 6.31033 -4.9
    endloop
  endfacet
  facet normal -0.45399 0.891007 0
    outer loop
      vertex -4.58472 6.31033 -5
      vertex -4.58472 6.31033 -4.9
      vertex -2.41033 7.41824 -5
    endloop
  endfacet
  facet normal -0.45399 0.891007 0
    outer loop
      vertex -2.41033 7.41824 -5
      vertex -4.58472 6.31033 -4.9
      vertex -2.41033 7.41824 -4.9
    endloop
  endfacet
  facet normal -0.156434 0.987688 0
    outer loop
      vertex -2.41033 7.41824 -5
      vertex -2.41033 7.41824 -4.9
      vertex 0 7.8 -5
    endloop
  endfacet
  facet normal -0.156434 0.987688 0
    outer loop
      vertex 0 7.8 -5
      vertex -2.41033 7.41824 -4.9
      vertex 0 7.8 -4.9
    endloop
  endfacet
  facet normal 0 1 0
    outer loop
      vertex 0 7.8 -5
      vertex 0 7.8 -4.9
      vertex 15.5 7.8 -5
    endloop
  endfacet
  facet normal 0 1 0
    outer loop
      vertex 15.5 7.8 -5
      vertex 0 7.8 -4.9
      vertex 3.3 7.8 -4.9
    endloop
  endfacet
  facet normal 0 1 0
    outer loop
      vertex 15.5 7.8 -5
      vertex 3.3 7.8 -4.9
      vertex 3.3 7.8 -0.9
    endloop
  endfacet
  facet normal -0 1 0
    outer loop
      vertex 3.3 7.8 -0.9
      vertex 0 7.8 -0.9
      vertex 0 7.8 5
    endloop
  endfacet
  facet normal 0 1 -0
    outer loop
      vertex 9.72533 7.8 -1.6168
      vertex 15.5 7.8 -5
      vertex 8.67467 7.8 -1.6168
    endloop
  endfacet
  facet normal 0 1 0
    outer loop
      vertex 9.72533 7.8 1.6168
      vertex 0 7.8 5
      vertex 15.5 7.8 5
    endloop
  endfacet
  facet normal 0 1 0
    outer loop
      vertex 3.3 7.8 -0.9
      vertex 0 7.8 5
      vertex 7.5 7.8 3.10862e-16
    endloop
  endfacet
  facet normal 0 1 0
    outer loop
      vertex 3.3 7.8 -0.9
      vertex 7.5 7.8 3.10862e-16
      vertex 7.82467 7.8 -0.999235
    endloop
  endfacet
  facet normal 0 1 0
    outer loop
      vertex 3.3 7.8 -0.9
      vertex 7.82467 7.8 -0.999235
      vertex 8.67467 7.8 -1.6168
    endloop
  endfacet
  facet normal 0 1 0
    outer loop
      vertex 3.3 7.8 -0.9
      vertex 8.67467 7.8 -1.6168
      vertex 15.5 7.8 -5
    endloop
  endfacet
  facet normal 0 1 -0
    outer loop
      vertex 10.5753 7.8 -0.999235
      vertex 15.5 7.8 -5
      vertex 9.72533 7.8 -1.6168
    endloop
  endfacet
  facet normal 0 1 0
    outer loop
      vertex 15.5 7.8 -5
      vertex 10.5753 7.8 -0.999235
      vertex 15.5 7.8 5
    endloop
  endfacet
  facet normal 0 1 0
    outer loop
      vertex 10.5753 7.8 -0.999235
      vertex 10.9 7.8 3.10862e-16
      vertex 15.5 7.8 5
    endloop
  endfacet
  facet normal 0 1 0
    outer loop
      vertex 7.82467 7.8 0.999235
      vertex 0 7.8 5
      vertex 8.67467 7.8 1.6168
    endloop
  endfacet
  facet normal 0 1 0
    outer loop
      vertex 10.9 7.8 3.10862e-16
      vertex 10.5753 7.8 0.999235
      vertex 15.5 7.8 5
    endloop
  endfacet
  facet normal 0 1 0
    outer loop
      vertex 10.5753 7.8 0.999235
      vertex 9.72533 7.8 1.6168
      vertex 15.5 7.8 5
    endloop
  endfacet
  facet normal 0 1 0
    outer loop
      vertex 7.5 7.8 3.10862e-16
      vertex 0 7.8 5
      vertex 7.82467 7.8 0.999235
    endloop
  endfacet
  facet normal 0 1 0
    outer loop
      vertex 8.67467 7.8 1.6168
      vertex 0 7.8 5
      vertex 9.72533 7.8 1.6168
    endloop
  endfacet
  facet normal 1 0 -0
    outer loop
      vertex 3.3 7.8 -0.9
      vertex 3.3 7.8 -4.9
      vertex 3.3 13.7 -4.9
    endloop
  endfacet
  facet normal 1 0 0
    outer loop
      vertex 3.3 13.7 -0.9
      vertex 3.3 7.8 -0.9
      vertex 3.3 13.7 -4.9
    endloop
  endfacet
  facet normal 1 0 0
    outer loop
      vertex -12.8 10.2 -4.9
      vertex -12.8 10.2 -0.9
      vertex -12.8 3.2 -0.9
    endloop
  endfacet
  facet normal 1 0 0
    outer loop
      vertex -12.8 3.2 -4.9
      vertex -12.8 10.2 -4.9
      vertex -12.8 3.2 -0.9
    endloop
  endfacet
  facet normal 0 -1 0
    outer loop
      vertex -9.1 10.2 -4.9
      vertex -9.1 10.2 -0.9
      vertex -12.8 10.2 -0.9
    endloop
  endfacet
  facet normal -0 -1 -0
    outer loop
      vertex -12.8 10.2 -4.9
      vertex -9.1 10.2 -4.9
      vertex -12.8 10.2 -0.9
    endloop
  endfacet
  facet normal -1 0 0
    outer loop
      vertex -9.1 10.2 -0.9
      vertex -9.1 10.2 -4.9
      vertex -9.1 3.2 -0.9
    endloop
  endfacet
  facet normal -1 0 0
    outer loop
      vertex -9.1 3.2 -0.9
      vertex -9.1 10.2 -4.9
      vertex -9.1 3.2 -4.9
    endloop
  endfacet
  facet normal 0 1 0
    outer loop
      vertex -9.1 3.2 -0.9
      vertex -9.1 3.2 -4.9
      vertex -12.8 3.2 -0.9
    endloop
  endfacet
  facet normal 0 1 -0
    outer loop
      vertex -12.8 3.2 -0.9
      vertex -9.1 3.2 -4.9
      vertex -12.8 3.2 -4.9
    endloop
  endfacet
  facet normal -0.156434 0.987688 0
    outer loop
      vertex -2.41033 7.41824 -0.9
      vertex -2.41033 7.41824 5
      vertex 0 7.8 -0.9
    endloop
  endfacet
  facet normal -0.156434 0.987688 0
    outer loop
      vertex 0 7.8 -0.9
      vertex -2.41033 7.41824 5
      vertex 0 7.8 5
    endloop
  endfacet
  facet normal -0.45399 0.891007 0
    outer loop
      vertex -4.58472 6.31033 -0.9
      vertex -4.58472 6.31033 5
      vertex -2.41033 7.41824 -0.9
    endloop
  endfacet
  facet normal -0.45399 0.891007 0
    outer loop
      vertex -2.41033 7.41824 -0.9
      vertex -4.58472 6.31033 5
      vertex -2.41033 7.41824 5
    endloop
  endfacet
  facet normal -0.707107 0.707107 0
    outer loop
      vertex -6.31033 4.58472 -0.9
      vertex -6.31033 4.58472 5
      vertex -4.58472 6.31033 -0.9
    endloop
  endfacet
  facet normal -0.707107 0.707107 0
    outer loop
      vertex -4.58472 6.31033 -0.9
      vertex -6.31033 4.58472 5
      vertex -4.58472 6.31033 5
    endloop
  endfacet
  facet normal -0.891007 0.45399 0
    outer loop
      vertex -7.41824 2.41033 -0.9
      vertex -7.41824 2.41033 5
      vertex -6.31033 4.58472 -0.9
    endloop
  endfacet
  facet normal -0.891007 0.45399 0
    outer loop
      vertex -6.31033 4.58472 -0.9
      vertex -7.41824 2.41033 5
      vertex -6.31033 4.58472 5
    endloop
  endfacet
  facet normal -0.987688 0.156434 0
    outer loop
      vertex -7.8 0 -0.9
      vertex -7.8 0 5
      vertex -7.41824 2.41033 -0.9
    endloop
  endfacet
  facet normal -0.987688 0.156434 0
    outer loop
      vertex -7.41824 2.41033 -0.9
      vertex -7.8 0 5
      vertex -7.41824 2.41033 5
    endloop
  endfacet
  facet normal 0 0 1
    outer loop
      vertex -7.41824 2.41033 5
      vertex -7.8 0 5
      vertex -7.41824 -2.41033 5
    endloop
  endfacet
  facet normal 0 0 1
    outer loop
      vertex -4.58472 -6.31033 5
      vertex -7.41824 2.41033 5
      vertex -6.31033 -4.58472 5
    endloop
  endfacet
  facet normal 0 0 1
    outer loop
      vertex -6.31033 -4.58472 5
      vertex -7.41824 2.41033 5
      vertex -7.41824 -2.41033 5
    endloop
  endfacet
  facet normal 0 0 1
    outer loop
      vertex -2.41033 -7.41824 5
      vertex -7.41824 2.41033 5
      vertex -4.58472 -6.31033 5
    endloop
  endfacet
  facet normal 0 0 1
    outer loop
      vertex 0 -7.8 5
      vertex -7.41824 2.41033 5
      vertex -2.41033 -7.41824 5
    endloop
  endfacet
  facet normal -0 -0 1
    outer loop
      vertex -3.4472 -2.89254 5
      vertex -7.41824 2.41033 5
      vertex 0 -7.8 5
    endloop
  endfacet
  facet normal -0 0 1
    outer loop
      vertex 15.5 -7.8 5
      vertex 2.42532 -3.75 5
      vertex 0 -7.8 5
    endloop
  endfacet
  facet normal 0 0 1
    outer loop
      vertex 2.42532 -3.75 5
      vertex 2.25 -3.89711 5
      vertex 0 -7.8 5
    endloop
  endfacet
  facet normal 0 0 1
    outer loop
      vertex -4.22862 1.53909 5
      vertex -3.4472 2.89254 5
      vertex -7.41824 2.41033 5
    endloop
  endfacet
  facet normal 0 0 1
    outer loop
      vertex 2.25 -3.89711 5
      vertex 0.781417 -4.43163 5
      vertex 0 -7.8 5
    endloop
  endfacet
  facet normal 0 0 1
    outer loop
      vertex 0.781417 -4.43163 5
      vertex -0.781417 -4.43163 5
      vertex 0 -7.8 5
    endloop
  endfacet
  facet normal -0 -0 1
    outer loop
      vertex -0.781417 -4.43163 5
      vertex -2.25 -3.89711 5
      vertex 0 -7.8 5
    endloop
  endfacet
  facet normal 0 0 1
    outer loop
      vertex -4.5 0 5
      vertex -4.22862 1.53909 5
      vertex -7.41824 2.41033 5
    endloop
  endfacet
  facet normal -0 -0 1
    outer loop
      vertex -2.25 -3.89711 5
      vertex -3.4472 -2.89254 5
      vertex 0 -7.8 5
    endloop
  endfacet
  facet normal -0 -0 1
    outer loop
      vertex -4.22862 -1.53909 5
      vertex -7.41824 2.41033 5
      vertex -3.4472 -2.89254 5
    endloop
  endfacet
  facet normal 0 0 1
    outer loop
      vertex 2.42532 3.75 5
      vertex 15.5 3.75 5
      vertex 2.25 3.89711 5
    endloop
  endfacet
  facet normal 0 0 1
    outer loop
      vertex -2.25 3.89711 5
      vertex -7.41824 2.41033 5
      vertex -3.4472 2.89254 5
    endloop
  endfacet
  facet normal 0 0 1
    outer loop
      vertex -0.781417 4.43163 5
      vertex -7.41824 2.41033 5
      vertex -2.25 3.89711 5
    endloop
  endfacet
  facet normal 0 0 1
    outer loop
      vertex 0 7.8 5
      vertex -7.41824 2.41033 5
      vertex -0.781417 4.43163 5
    endloop
  endfacet
  facet normal 0 0 1
    outer loop
      vertex 15.5 7.8 5
      vertex -0.781417 4.43163 5
      vertex 0.781417 4.43163 5
    endloop
  endfacet
  facet normal 0 0 1
    outer loop
      vertex 15.5 3.75 5
      vertex 0.781417 4.43163 5
      vertex 2.25 3.89711 5
    endloop
  endfacet
  facet normal 0 0 1
    outer loop
      vertex 15.5 7.8 5
      vertex 0.781417 4.43163 5
      vertex 15.5 3.75 5
    endloop
  endfacet
  facet normal 0 -0 1
    outer loop
      vertex 0 7.8 5
      vertex -0.781417 4.43163 5
      vertex 15.5 7.8 5
    endloop
  endfacet
  facet normal 0 -0 1
    outer loop
      vertex -2.41033 7.41824 5
      vertex -7.41824 2.41033 5
      vertex 0 7.8 5
    endloop
  endfacet
  facet normal 0 -0 1
    outer loop
      vertex -4.58472 6.31033 5
      vertex -7.41824 2.41033 5
      vertex -2.41033 7.41824 5
    endloop
  endfacet
  facet normal 0 -0 1
    outer loop
      vertex -6.31033 4.58472 5
      vertex -7.41824 2.41033 5
      vertex -4.58472 6.31033 5
    endloop
  endfacet
  facet normal 0 0 1
    outer loop
      vertex 15.5 -3.75 5
      vertex 2.42532 -3.75 5
      vertex 15.5 -7.8 5
    endloop
  endfacet
  facet normal 0 0 1
    outer loop
      vertex -4.22862 -1.53909 5
      vertex -4.5 0 5
      vertex -7.41824 2.41033 5
    endloop
  endfacet
  facet normal -0.891007 -0.45399 -0
    outer loop
      vertex -7.41824 -2.41033 -5
      vertex -6.31033 -4.58472 -5
      vertex -7.41824 -2.41033 5
    endloop
  endfacet
  facet normal -0.891007 -0.45399 0
    outer loop
      vertex -7.41824 -2.41033 5
      vertex -6.31033 -4.58472 -5
      vertex -6.31033 -4.58472 5
    endloop
  endfacet
  facet normal -0 0 -1
    outer loop
      vertex -7.8 0 -5
      vertex -7.41824 2.41033 -5
      vertex -7.41824 -2.41033 -5
    endloop
  endfacet
  facet normal 0 -0 -1
    outer loop
      vertex -7.41824 -2.41033 -5
      vertex -7.41824 2.41033 -5
      vertex -6.31033 4.58472 -5
    endloop
  endfacet
  facet normal 0 0 -1
    outer loop
      vertex -7.41824 -2.41033 -5
      vertex -6.31033 4.58472 -5
      vertex -4.58472 6.31033 -5
    endloop
  endfacet
  facet normal 0 0 -1
    outer loop
      vertex -7.41824 -2.41033 -5
      vertex -4.58472 6.31033 -5
      vertex -2.41033 7.41824 -5
    endloop
  endfacet
  facet normal 0 0 -1
    outer loop
      vertex -7.41824 -2.41033 -5
      vertex -2.41033 7.41824 -5
      vertex 0 7.8 -5
    endloop
  endfacet
  facet normal 0 -0 -1
    outer loop
      vertex 2.42532 3.75 -5
      vertex 0 7.8 -5
      vertex 15.5 7.8 -5
    endloop
  endfacet
  facet normal -0 -0 -1
    outer loop
      vertex 2.25 3.89711 -5
      vertex 0 7.8 -5
      vertex 2.42532 3.75 -5
    endloop
  endfacet
  facet normal 0 -0 -1
    outer loop
      vertex -4.5 0 -5
      vertex -7.41824 -2.41033 -5
      vertex -4.22862 1.53909 -5
    endloop
  endfacet
  facet normal -0 -0 -1
    outer loop
      vertex 0.781417 4.43163 -5
      vertex 0 7.8 -5
      vertex 2.25 3.89711 -5
    endloop
  endfacet
  facet normal -0 0 -1
    outer loop
      vertex -0.781417 4.43163 -5
      vertex 0 7.8 -5
      vertex 0.781417 4.43163 -5
    endloop
  endfacet
  facet normal 0 0 -1
    outer loop
      vertex -2.25 3.89711 -5
      vertex 0 7.8 -5
      vertex -0.781417 4.43163 -5
    endloop
  endfacet
  facet normal 0 0 -1
    outer loop
      vertex -3.4472 2.89254 -5
      vertex 0 7.8 -5
      vertex -2.25 3.89711 -5
    endloop
  endfacet
  facet normal 0 0 -1
    outer loop
      vertex -7.41824 -2.41033 -5
      vertex 0 7.8 -5
      vertex -3.4472 2.89254 -5
    endloop
  endfacet
  facet normal 0 0 -1
    outer loop
      vertex -7.41824 -2.41033 -5
      vertex -3.4472 2.89254 -5
      vertex -4.22862 1.53909 -5
    endloop
  endfacet
  facet normal 0 0 -1
    outer loop
      vertex -4.22862 -1.53909 -5
      vertex -7.41824 -2.41033 -5
      vertex -4.5 0 -5
    endloop
  endfacet
  facet normal 0 0 -1
    outer loop
      vertex 15.5 -3.75 -5
      vertex 2.25 -3.89711 -5
      vertex 2.42532 -3.75 -5
    endloop
  endfacet
  facet normal 0 0 -1
    outer loop
      vertex -7.41824 -2.41033 -5
      vertex -3.4472 -2.89254 -5
      vertex -2.25 -3.89711 -5
    endloop
  endfacet
  facet normal 0 0 -1
    outer loop
      vertex -2.25 -3.89711 -5
      vertex -0.781417 -4.43163 -5
      vertex -7.41824 -2.41033 -5
    endloop
  endfacet
  facet normal -0 0 -1
    outer loop
      vertex 2.25 -3.89711 -5
      vertex 15.5 -3.75 -5
      vertex 0.781417 -4.43163 -5
    endloop
  endfacet
  facet normal -0 0 -1
    outer loop
      vertex 0.781417 -4.43163 -5
      vertex 15.5 -3.75 -5
      vertex 15.5 -7.8 -5
    endloop
  endfacet
  facet normal 0 0 -1
    outer loop
      vertex 0.781417 -4.43163 -5
      vertex 15.5 -7.8 -5
      vertex -0.781417 -4.43163 -5
    endloop
  endfacet
  facet normal 0 0 -1
    outer loop
      vertex -0.781417 -4.43163 -5
      vertex 15.5 -7.8 -5
      vertex 0 -7.8 -5
    endloop
  endfacet
  facet normal 0 0 -1
    outer loop
      vertex -0.781417 -4.43163 -5
      vertex 0 -7.8 -5
      vertex -7.41824 -2.41033 -5
    endloop
  endfacet
  facet normal 0 0 -1
    outer loop
      vertex -7.41824 -2.41033 -5
      vertex 0 -7.8 -5
      vertex -2.41033 -7.41824 -5
    endloop
  endfacet
  facet normal 0 0 -1
    outer loop
      vertex -7.41824 -2.41033 -5
      vertex -2.41033 -7.41824 -5
      vertex -4.58472 -6.31033 -5
    endloop
  endfacet
  facet normal 0 0 -1
    outer loop
      vertex -7.41824 -2.41033 -5
      vertex -4.58472 -6.31033 -5
      vertex -6.31033 -4.58472 -5
    endloop
  endfacet
  facet normal -0 0 -1
    outer loop
      vertex 2.42532 3.75 -5
      vertex 15.5 7.8 -5
      vertex 15.5 3.75 -5
    endloop
  endfacet
  facet normal 0 0 -1
    outer loop
      vertex -3.4472 -2.89254 -5
      vertex -7.41824 -2.41033 -5
      vertex -4.22862 -1.53909 -5
    endloop
  endfacet
  facet normal 1 0 -0
    outer loop
      vertex 15.5 3.75 5
      vertex 15.5 3.75 -5
      vertex 15.5 7.8 -5
    endloop
  endfacet
  facet normal 1 0 0
    outer loop
      vertex 15.5 7.8 5
      vertex 15.5 3.75 5
      vertex 15.5 7.8 -5
    endloop
  endfacet
  facet normal 0.951057 -6.8619e-17 -0.309017
    outer loop
      vertex 7.5 7.8 3.10862e-16
      vertex 7.82467 7.8 0.999235
      vertex 7.82467 3.75 0.999235
    endloop
  endfacet
  facet normal 0.951057 -6.86155e-17 -0.309017
    outer loop
      vertex 7.5 3.75 1.21014e-15
      vertex 7.5 7.8 3.10862e-16
      vertex 7.82467 3.75 0.999235
    endloop
  endfacet
  facet normal 0.951057 6.77684e-17 0.309017
    outer loop
      vertex 7.82467 3.75 -0.999235
      vertex 7.82467 7.8 -0.999235
      vertex 7.5 7.8 3.10862e-16
    endloop
  endfacet
  facet normal 0.951057 6.86155e-17 0.309017
    outer loop
      vertex 7.5 3.75 1.21014e-15
      vertex 7.82467 3.75 -0.999235
      vertex 7.5 7.8 3.10862e-16
    endloop
  endfacet
  facet normal 0.587785 -1.7742e-16 -0.809017
    outer loop
      vertex 8.67467 7.8 1.6168
      vertex 8.67467 3.75 1.6168
      vertex 7.82467 7.8 0.999235
    endloop
  endfacet
  facet normal 0.587785 -1.7742e-16 -0.809017
    outer loop
      vertex 7.82467 7.8 0.999235
      vertex 8.67467 3.75 1.6168
      vertex 7.82467 3.75 0.999235
    endloop
  endfacet
  facet normal 0 -2.19303e-16 -1
    outer loop
      vertex 9.72533 7.8 1.6168
      vertex 9.72533 3.75 1.6168
      vertex 8.67467 7.8 1.6168
    endloop
  endfacet
  facet normal 0 -2.19303e-16 -1
    outer loop
      vertex 8.67467 7.8 1.6168
      vertex 9.72533 3.75 1.6168
      vertex 8.67467 3.75 1.6168
    endloop
  endfacet
  facet normal -0.587785 -1.7742e-16 -0.809017
    outer loop
      vertex 10.5753 7.8 0.999235
      vertex 10.5753 3.75 0.999235
      vertex 9.72533 7.8 1.6168
    endloop
  endfacet
  facet normal -0.587785 -1.7742e-16 -0.809017
    outer loop
      vertex 9.72533 7.8 1.6168
      vertex 10.5753 3.75 0.999235
      vertex 9.72533 3.75 1.6168
    endloop
  endfacet
  facet normal -0.951057 -6.86155e-17 -0.309017
    outer loop
      vertex 10.9 7.8 3.10862e-16
      vertex 10.9 3.75 1.21014e-15
      vertex 10.5753 7.8 0.999235
    endloop
  endfacet
  facet normal -0.951057 -6.77684e-17 -0.309017
    outer loop
      vertex 10.5753 7.8 0.999235
      vertex 10.9 3.75 1.21014e-15
      vertex 10.5753 3.75 0.999235
    endloop
  endfacet
  facet normal -0.951057 6.86155e-17 0.309017
    outer loop
      vertex 10.9 7.8 3.10862e-16
      vertex 10.5753 7.8 -0.999235
      vertex 10.9 3.75 1.21014e-15
    endloop
  endfacet
  facet normal -0.951057 6.86124e-17 0.309017
    outer loop
      vertex 10.9 3.75 1.21014e-15
      vertex 10.5753 7.8 -0.999235
      vertex 10.5753 3.75 -0.999235
    endloop
  endfacet
  facet normal -0.587785 1.7742e-16 0.809017
    outer loop
      vertex 10.5753 3.75 -0.999235
      vertex 10.5753 7.8 -0.999235
      vertex 9.72533 7.8 -1.6168
    endloop
  endfacet
  facet normal -0.587785 1.7742e-16 0.809017
    outer loop
      vertex 9.72533 3.75 -1.6168
      vertex 10.5753 3.75 -0.999235
      vertex 9.72533 7.8 -1.6168
    endloop
  endfacet
  facet normal 0 2.19303e-16 1
    outer loop
      vertex 9.72533 3.75 -1.6168
      vertex 9.72533 7.8 -1.6168
      vertex 8.67467 7.8 -1.6168
    endloop
  endfacet
  facet normal 0 2.19303e-16 1
    outer loop
      vertex 8.67467 3.75 -1.6168
      vertex 9.72533 3.75 -1.6168
      vertex 8.67467 7.8 -1.6168
    endloop
  endfacet
  facet normal 0.587785 1.7742e-16 0.809017
    outer loop
      vertex 8.67467 3.75 -1.6168
      vertex 8.67467 7.8 -1.6168
      vertex 7.82467 7.8 -0.999235
    endloop
  endfacet
  facet normal 0.587785 1.7742e-16 0.809017
    outer loop
      vertex 7.82467 3.75 -0.999235
      vertex 8.67467 3.75 -1.6168
      vertex 7.82467 7.8 -0.999235
    endloop
  endfacet
  facet normal 0 -1 -0
    outer loop
      vertex 8.67467 3.75 1.6168
      vertex 15.5 3.75 5
      vertex 2.42532 3.75 5
    endloop
  endfacet
  facet normal -0 -1 0
    outer loop
      vertex 8.67467 3.75 1.6168
      vertex 9.72533 3.75 1.6168
      vertex 15.5 3.75 5
    endloop
  endfacet
  facet normal 0 -1 -0
    outer loop
      vertex 2.42532 3.75 -5
      vertex 7.5 3.75 1.21014e-15
      vertex 2.42532 3.75 5
    endloop
  endfacet
  facet normal 0 -1 -0
    outer loop
      vertex 7.82467 3.75 0.999235
      vertex 8.67467 3.75 1.6168
      vertex 2.42532 3.75 5
    endloop
  endfacet
  facet normal 0 -1 0
    outer loop
      vertex 10.5753 3.75 0.999235
      vertex 10.9 3.75 1.21014e-15
      vertex 15.5 3.75 -5
    endloop
  endfacet
  facet normal 0 -1 -0
    outer loop
      vertex 10.5753 3.75 0.999235
      vertex 15.5 3.75 5
      vertex 9.72533 3.75 1.6168
    endloop
  endfacet
  facet normal 0 -1 0
    outer loop
      vertex 15.5 3.75 -5
      vertex 15.5 3.75 5
      vertex 10.5753 3.75 0.999235
    endloop
  endfacet
  facet normal 0 -1 0
    outer loop
      vertex 15.5 3.75 -5
      vertex 10.9 3.75 1.21014e-15
      vertex 10.5753 3.75 -0.999235
    endloop
  endfacet
  facet normal -0 -1 0
    outer loop
      vertex 2.42532 3.75 -5
      vertex 15.5 3.75 -5
      vertex 9.72533 3.75 -1.6168
    endloop
  endfacet
  facet normal 0 -1 0
    outer loop
      vertex 2.42532 3.75 -5
      vertex 9.72533 3.75 -1.6168
      vertex 8.67467 3.75 -1.6168
    endloop
  endfacet
  facet normal 0 -1 0
    outer loop
      vertex 2.42532 3.75 -5
      vertex 7.82467 3.75 -0.999235
      vertex 7.5 3.75 1.21014e-15
    endloop
  endfacet
  facet normal 0 -1 0
    outer loop
      vertex 2.42532 3.75 -5
      vertex 8.67467 3.75 -1.6168
      vertex 7.82467 3.75 -0.999235
    endloop
  endfacet
  facet normal 0 -1 -0
    outer loop
      vertex 7.5 3.75 1.21014e-15
      vertex 7.82467 3.75 0.999235
      vertex 2.42532 3.75 5
    endloop
  endfacet
  facet normal 0 -1 0
    outer loop
      vertex 10.5753 3.75 -0.999235
      vertex 9.72533 3.75 -1.6168
      vertex 15.5 3.75 -5
    endloop
  endfacet
  facet normal -0.642788 -0.766044 -0
    outer loop
      vertex 2.42532 3.75 -5
      vertex 2.42532 3.75 5
      vertex 2.25 3.89711 5
    endloop
  endfacet
  facet normal -0.642788 -0.766044 -0
    outer loop
      vertex 2.25 3.89711 -5
      vertex 2.42532 3.75 -5
      vertex 2.25 3.89711 5
    endloop
  endfacet
  facet normal -0.34202 -0.939693 -0
    outer loop
      vertex 2.25 3.89711 -5
      vertex 2.25 3.89711 5
      vertex 0.781417 4.43163 5
    endloop
  endfacet
  facet normal -0.34202 -0.939693 -0
    outer loop
      vertex 0.781417 4.43163 -5
      vertex 2.25 3.89711 -5
      vertex 0.781417 4.43163 5
    endloop
  endfacet
  facet normal 0 -1 0
    outer loop
      vertex 0.781417 4.43163 -5
      vertex 0.781417 4.43163 5
      vertex -0.781417 4.43163 5
    endloop
  endfacet
  facet normal -0 -1 -0
    outer loop
      vertex -0.781417 4.43163 -5
      vertex 0.781417 4.43163 -5
      vertex -0.781417 4.43163 5
    endloop
  endfacet
  facet normal 0.34202 -0.939693 0
    outer loop
      vertex -0.781417 4.43163 -5
      vertex -0.781417 4.43163 5
      vertex -2.25 3.89711 5
    endloop
  endfacet
  facet normal 0.34202 -0.939693 0
    outer loop
      vertex -2.25 3.89711 -5
      vertex -0.781417 4.43163 -5
      vertex -2.25 3.89711 5
    endloop
  endfacet
  facet normal 0.642788 -0.766044 0
    outer loop
      vertex -2.25 3.89711 -5
      vertex -2.25 3.89711 5
      vertex -3.4472 2.89254 5
    endloop
  endfacet
  facet normal 0.642788 -0.766044 0
    outer loop
      vertex -3.4472 2.89254 -5
      vertex -2.25 3.89711 -5
      vertex -3.4472 2.89254 5
    endloop
  endfacet
  facet normal 0.866025 -0.5 0
    outer loop
      vertex -3.4472 2.89254 -5
      vertex -3.4472 2.89254 5
      vertex -4.22862 1.53909 5
    endloop
  endfacet
  facet normal 0.866025 -0.5 0
    outer loop
      vertex -4.22862 1.53909 -5
      vertex -3.4472 2.89254 -5
      vertex -4.22862 1.53909 5
    endloop
  endfacet
  facet normal 0.984808 -0.173648 0
    outer loop
      vertex -4.22862 1.53909 -5
      vertex -4.22862 1.53909 5
      vertex -4.5 0 5
    endloop
  endfacet
  facet normal 0.984808 -0.173648 0
    outer loop
      vertex -4.5 0 -5
      vertex -4.22862 1.53909 -5
      vertex -4.5 0 5
    endloop
  endfacet
  facet normal 0.984808 0.173648 0
    outer loop
      vertex -4.5 0 5
      vertex -4.22862 -1.53909 5
      vertex -4.22862 -1.53909 -5
    endloop
  endfacet
  facet normal 0.984808 0.173648 0
    outer loop
      vertex -4.5 0 -5
      vertex -4.5 0 5
      vertex -4.22862 -1.53909 -5
    endloop
  endfacet
  facet normal 0.866025 0.5 0
    outer loop
      vertex -4.22862 -1.53909 5
      vertex -3.4472 -2.89254 5
      vertex -3.4472 -2.89254 -5
    endloop
  endfacet
  facet normal 0.866025 0.5 0
    outer loop
      vertex -4.22862 -1.53909 -5
      vertex -4.22862 -1.53909 5
      vertex -3.4472 -2.89254 -5
    endloop
  endfacet
  facet normal 0.642788 0.766044 -0
    outer loop
      vertex -2.25 -3.89711 5
      vertex -2.25 -3.89711 -5
      vertex -3.4472 -2.89254 5
    endloop
  endfacet
  facet normal 0.642788 0.766044 -0
    outer loop
      vertex -3.4472 -2.89254 5
      vertex -2.25 -3.89711 -5
      vertex -3.4472 -2.89254 -5
    endloop
  endfacet
  facet normal 0.34202 0.939693 -0
    outer loop
      vertex -0.781417 -4.43163 5
      vertex -0.781417 -4.43163 -5
      vertex -2.25 -3.89711 5
    endloop
  endfacet
  facet normal 0.34202 0.939693 -0
    outer loop
      vertex -2.25 -3.89711 5
      vertex -0.781417 -4.43163 -5
      vertex -2.25 -3.89711 -5
    endloop
  endfacet
  facet normal 0 1 0
    outer loop
      vertex 0.781417 -4.43163 5
      vertex 0.781417 -4.43163 -5
      vertex -0.781417 -4.43163 5
    endloop
  endfacet
  facet normal 0 1 -0
    outer loop
      vertex -0.781417 -4.43163 5
      vertex 0.781417 -4.43163 -5
      vertex -0.781417 -4.43163 -5
    endloop
  endfacet
  facet normal -0.34202 0.939693 0
    outer loop
      vertex 2.25 -3.89711 5
      vertex 2.25 -3.89711 -5
      vertex 0.781417 -4.43163 5
    endloop
  endfacet
  facet normal -0.34202 0.939693 0
    outer loop
      vertex 0.781417 -4.43163 5
      vertex 2.25 -3.89711 -5
      vertex 0.781417 -4.43163 -5
    endloop
  endfacet
  facet normal -0.642788 0.766044 0
    outer loop
      vertex 2.42532 -3.75 5
      vertex 2.42532 -3.75 -5
      vertex 2.25 -3.89711 5
    endloop
  endfacet
  facet normal -0.642788 0.766044 0
    outer loop
      vertex 2.25 -3.89711 5
      vertex 2.42532 -3.75 -5
      vertex 2.25 -3.89711 -5
    endloop
  endfacet
  facet normal 0 1 -0
    outer loop
      vertex 8.67467 -3.75 -1.6168
      vertex 15.5 -3.75 -5
      vertex 2.42532 -3.75 -5
    endloop
  endfacet
  facet normal 0 1 -0
    outer loop
      vertex 10.5753 -3.75 -0.999235
      vertex 15.5 -3.75 -5
      vertex 9.72533 -3.75 -1.6168
    endloop
  endfacet
  facet normal 0 1 -0
    outer loop
      vertex 2.42532 -3.75 5
      vertex 7.82467 -3.75 -0.999235
      vertex 2.42532 -3.75 -5
    endloop
  endfacet
  facet normal 0 1 -0
    outer loop
      vertex 7.82467 -3.75 -0.999235
      vertex 8.67467 -3.75 -1.6168
      vertex 2.42532 -3.75 -5
    endloop
  endfacet
  facet normal 0 1 0
    outer loop
      vertex 15.5 -3.75 5
      vertex 15.5 -3.75 -5
      vertex 10.5753 -3.75 -0.999235
    endloop
  endfacet
  facet normal 0 1 0
    outer loop
      vertex 15.5 -3.75 5
      vertex 10.5753 -3.75 -0.999235
      vertex 10.9 -3.75 2.87548e-15
    endloop
  endfacet
  facet normal 0 1 0
    outer loop
      vertex 15.5 -3.75 5
      vertex 10.9 -3.75 2.87548e-15
      vertex 10.5753 -3.75 0.999235
    endloop
  endfacet
  facet normal 0 1 0
    outer loop
      vertex 15.5 -3.75 5
      vertex 10.5753 -3.75 0.999235
      vertex 9.72533 -3.75 1.6168
    endloop
  endfacet
  facet normal 0 1 0
    outer loop
      vertex 15.5 -3.75 5
      vertex 9.72533 -3.75 1.6168
      vertex 2.42532 -3.75 5
    endloop
  endfacet
  facet normal 0 1 0
    outer loop
      vertex 7.82467 -3.75 0.999235
      vertex 2.42532 -3.75 5
      vertex 8.67467 -3.75 1.6168
    endloop
  endfacet
  facet normal 0 1 0
    outer loop
      vertex 8.67467 -3.75 1.6168
      vertex 2.42532 -3.75 5
      vertex 9.72533 -3.75 1.6168
    endloop
  endfacet
  facet normal 0 1 0
    outer loop
      vertex 7.5 -3.75 2.87548e-15
      vertex 2.42532 -3.75 5
      vertex 7.82467 -3.75 0.999235
    endloop
  endfacet
  facet normal 0 1 0
    outer loop
      vertex 2.42532 -3.75 5
      vertex 7.5 -3.75 2.87548e-15
      vertex 7.82467 -3.75 -0.999235
    endloop
  endfacet
  facet normal 0 1 -0
    outer loop
      vertex 9.72533 -3.75 -1.6168
      vertex 15.5 -3.75 -5
      vertex 8.67467 -3.75 -1.6168
    endloop
  endfacet
  facet normal 1 0 -0
    outer loop
      vertex 15.5 -7.8 5
      vertex 15.5 -7.8 -5
      vertex 15.5 -3.75 -5
    endloop
  endfacet
  facet normal 1 0 0
    outer loop
      vertex 15.5 -3.75 5
      vertex 15.5 -7.8 5
      vertex 15.5 -3.75 -5
    endloop
  endfacet
  facet normal 0 -1 0
    outer loop
      vertex 8.67467 -7.8 -1.6168
      vertex 0 -7.8 -5
      vertex 15.5 -7.8 -5
    endloop
  endfacet
  facet normal 0 -1 0
    outer loop
      vertex 0 -7.8 5
      vertex 0 -7.8 -5
      vertex 7.82467 -7.8 -0.999235
    endloop
  endfacet
  facet normal -0 -1 0
    outer loop
      vertex 8.67467 -7.8 1.6168
      vertex 9.72533 -7.8 1.6168
      vertex 15.5 -7.8 5
    endloop
  endfacet
  facet normal 0 -1 0
    outer loop
      vertex 0 -7.8 5
      vertex 7.82467 -7.8 -0.999235
      vertex 7.5 -7.8 3.77476e-15
    endloop
  endfacet
  facet normal 0 -1 0
    outer loop
      vertex 8.67467 -7.8 1.6168
      vertex 0 -7.8 5
      vertex 7.82467 -7.8 0.999235
    endloop
  endfacet
  facet normal 0 -1 0
    outer loop
      vertex 10.5753 -7.8 0.999235
      vertex 10.9 -7.8 3.77476e-15
      vertex 15.5 -7.8 -5
    endloop
  endfacet
  facet normal 0 -1 0
    outer loop
      vertex 15.5 -7.8 5
      vertex 0 -7.8 5
      vertex 8.67467 -7.8 1.6168
    endloop
  endfacet
  facet normal 0 -1 0
    outer loop
      vertex 15.5 -7.8 5
      vertex 10.5753 -7.8 0.999235
      vertex 15.5 -7.8 -5
    endloop
  endfacet
  facet normal 0 -1 0
    outer loop
      vertex 15.5 -7.8 5
      vertex 9.72533 -7.8 1.6168
      vertex 10.5753 -7.8 0.999235
    endloop
  endfacet
  facet normal 0 -1 0
    outer loop
      vertex 10.9 -7.8 3.77476e-15
      vertex 10.5753 -7.8 -0.999235
      vertex 15.5 -7.8 -5
    endloop
  endfacet
  facet normal 0 -1 0
    outer loop
      vertex 7.82467 -7.8 -0.999235
      vertex 0 -7.8 -5
      vertex 8.67467 -7.8 -1.6168
    endloop
  endfacet
  facet normal 0 -1 0
    outer loop
      vertex 9.72533 -7.8 -1.6168
      vertex 8.67467 -7.8 -1.6168
      vertex 15.5 -7.8 -5
    endloop
  endfacet
  facet normal 0 -1 -0
    outer loop
      vertex 7.5 -7.8 3.77476e-15
      vertex 7.82467 -7.8 0.999235
      vertex 0 -7.8 5
    endloop
  endfacet
  facet normal 0 -1 0
    outer loop
      vertex 10.5753 -7.8 -0.999235
      vertex 9.72533 -7.8 -1.6168
      vertex 15.5 -7.8 -5
    endloop
  endfacet
  facet normal -0.156434 -0.987688 0
    outer loop
      vertex -2.41033 -7.41824 5
      vertex -2.41033 -7.41824 -5
      vertex 0 -7.8 -5
    endloop
  endfacet
  facet normal -0.156434 -0.987688 0
    outer loop
      vertex 0 -7.8 5
      vertex -2.41033 -7.41824 5
      vertex 0 -7.8 -5
    endloop
  endfacet
  facet normal -0.45399 -0.891007 0
    outer loop
      vertex -4.58472 -6.31033 5
      vertex -4.58472 -6.31033 -5
      vertex -2.41033 -7.41824 -5
    endloop
  endfacet
  facet normal -0.45399 -0.891007 0
    outer loop
      vertex -2.41033 -7.41824 5
      vertex -4.58472 -6.31033 5
      vertex -2.41033 -7.41824 -5
    endloop
  endfacet
  facet normal -0.707107 -0.707107 0
    outer loop
      vertex -6.31033 -4.58472 5
      vertex -6.31033 -4.58472 -5
      vertex -4.58472 -6.31033 -5
    endloop
  endfacet
  facet normal -0.707107 -0.707107 0
    outer loop
      vertex -4.58472 -6.31033 5
      vertex -6.31033 -4.58472 5
      vertex -4.58472 -6.31033 -5
    endloop
  endfacet
  facet normal 0.951057 6.77684e-17 0.309017
    outer loop
      vertex 7.82467 -7.8 -0.999235
      vertex 7.82467 -3.75 -0.999235
      vertex 7.5 -3.75 2.87548e-15
    endloop
  endfacet
  facet normal 0.951057 6.86155e-17 0.309017
    outer loop
      vertex 7.5 -7.8 3.77476e-15
      vertex 7.82467 -7.8 -0.999235
      vertex 7.5 -3.75 2.87548e-15
    endloop
  endfacet
  facet normal 0.587785 1.7742e-16 0.809017
    outer loop
      vertex 8.67467 -7.8 -1.6168
      vertex 8.67467 -3.75 -1.6168
      vertex 7.82467 -3.75 -0.999235
    endloop
  endfacet
  facet normal 0.587785 1.7742e-16 0.809017
    outer loop
      vertex 7.82467 -7.8 -0.999235
      vertex 8.67467 -7.8 -1.6168
      vertex 7.82467 -3.75 -0.999235
    endloop
  endfacet
  facet normal 0.951057 -7.71931e-17 -0.309017
    outer loop
      vertex 7.5 -3.75 2.87548e-15
      vertex 7.82467 -3.75 0.999235
      vertex 7.82467 -7.8 0.999235
    endloop
  endfacet
  facet normal 0.951057 -6.86155e-17 -0.309017
    outer loop
      vertex 7.5 -7.8 3.77476e-15
      vertex 7.5 -3.75 2.87548e-15
      vertex 7.82467 -7.8 0.999235
    endloop
  endfacet
  facet normal 0.587785 -2.21775e-16 -0.809017
    outer loop
      vertex 8.67467 -3.75 1.6168
      vertex 8.67467 -7.8 1.6168
      vertex 7.82467 -3.75 0.999235
    endloop
  endfacet
  facet normal 0.587785 -1.99598e-16 -0.809017
    outer loop
      vertex 7.82467 -3.75 0.999235
      vertex 8.67467 -7.8 1.6168
      vertex 7.82467 -7.8 0.999235
    endloop
  endfacet
  facet normal 0 -2.74129e-16 -1
    outer loop
      vertex 9.72533 -3.75 1.6168
      vertex 9.72533 -7.8 1.6168
      vertex 8.67467 -3.75 1.6168
    endloop
  endfacet
  facet normal 0 -2.74129e-16 -1
    outer loop
      vertex 8.67467 -3.75 1.6168
      vertex 9.72533 -7.8 1.6168
      vertex 8.67467 -7.8 1.6168
    endloop
  endfacet
  facet normal -0.587785 -1.99598e-16 -0.809017
    outer loop
      vertex 10.5753 -3.75 0.999235
      vertex 10.5753 -7.8 0.999235
      vertex 9.72533 -3.75 1.6168
    endloop
  endfacet
  facet normal -0.587785 -2.21775e-16 -0.809017
    outer loop
      vertex 9.72533 -3.75 1.6168
      vertex 10.5753 -7.8 0.999235
      vertex 9.72533 -7.8 1.6168
    endloop
  endfacet
  facet normal -0.951057 -6.86155e-17 -0.309017
    outer loop
      vertex 10.9 -3.75 2.87548e-15
      vertex 10.9 -7.8 3.77476e-15
      vertex 10.5753 -3.75 0.999235
    endloop
  endfacet
  facet normal -0.951057 -7.62395e-17 -0.309017
    outer loop
      vertex 10.5753 -3.75 0.999235
      vertex 10.9 -7.8 3.77476e-15
      vertex 10.5753 -7.8 0.999235
    endloop
  endfacet
  facet normal -0.951057 6.86155e-17 0.309017
    outer loop
      vertex 10.9 -3.75 2.87548e-15
      vertex 10.5753 -3.75 -0.999235
      vertex 10.9 -7.8 3.77476e-15
    endloop
  endfacet
  facet normal -0.951057 6.86124e-17 0.309017
    outer loop
      vertex 10.9 -7.8 3.77476e-15
      vertex 10.5753 -3.75 -0.999235
      vertex 10.5753 -7.8 -0.999235
    endloop
  endfacet
  facet normal -0.587785 1.7742e-16 0.809017
    outer loop
      vertex 10.5753 -7.8 -0.999235
      vertex 10.5753 -3.75 -0.999235
      vertex 9.72533 -3.75 -1.6168
    endloop
  endfacet
  facet normal -0.587785 1.7742e-16 0.809017
    outer loop
      vertex 9.72533 -7.8 -1.6168
      vertex 10.5753 -7.8 -0.999235
      vertex 9.72533 -3.75 -1.6168
    endloop
  endfacet
  facet normal 0 2.19303e-16 1
    outer loop
      vertex 9.72533 -7.8 -1.6168
      vertex 9.72533 -3.75 -1.6168
      vertex 8.67467 -3.75 -1.6168
    endloop
  endfacet
  facet normal 0 2.19303e-16 1
    outer loop
      vertex 8.67467 -7.8 -1.6168
      vertex 9.72533 -7.8 -1.6168
      vertex 8.67467 -3.75 -1.6168
    endloop
  endfacet
endsolid OpenSCAD_Model
