solid OpenSCAD_Model
  facet normal 1 0 0
    outer loop
      vertex 17 -17 0
      vertex 17 -11 0
      vertex 17 -11 14
    endloop
  endfacet
  facet normal 1 0 -0
    outer loop
      vertex 17 -17 14
      vertex 17 -17 0
      vertex 17 -11 14
    endloop
  endfacet
  facet normal 0 0 -1
    outer loop
      vertex -16.1004 -11 0
      vertex 17 -11 0
      vertex -16.1004 -17 0
    endloop
  endfacet
  facet normal -0 0 -1
    outer loop
      vertex -16.1004 -17 0
      vertex 17 -11 0
      vertex 17 -17 0
    endloop
  endfacet
  facet normal 0 -1.1404e-16 0
    outer loop
      vertex 17 -17 0
      vertex -16.1004 -17 3.77476e-15
      vertex -16.1004 -17 0
    endloop
  endfacet
  facet normal 0 -1 0
    outer loop
      vertex 9.15846 -17 5.84999
      vertex -16.1004 -17 3.77476e-15
      vertex 17 -17 0
    endloop
  endfacet
  facet normal -0 -1 0
    outer loop
      vertex -17 -17 3.77476e-15
      vertex -16.1004 -17 3.77476e-15
      vertex 17 -17 14
    endloop
  endfacet
  facet normal -0 -1 0
    outer loop
      vertex -5.01089 -17 5.05172
      vertex -17 -17 3.77476e-15
      vertex 17 -17 14
    endloop
  endfacet
  facet normal 0 -1 0
    outer loop
      vertex -6.28475 -17 10.1372
      vertex -6.025 -17 10.15
      vertex 17 -17 14
    endloop
  endfacet
  facet normal 0 -1 0
    outer loop
      vertex 7.79154 -17 9.15001
      vertex -16.1004 -17 3.77476e-15
      vertex 6.82499 -17 8.18346
    endloop
  endfacet
  facet normal 0 -1 0
    outer loop
      vertex 10.125 -17 8.18346
      vertex 10.125 -17 6.81654
      vertex 17 -17 0
    endloop
  endfacet
  facet normal 0 -1 0
    outer loop
      vertex 17 -17 14
      vertex -16.1004 -17 3.77476e-15
      vertex 7.79154 -17 9.15001
    endloop
  endfacet
  facet normal 0 -1 0
    outer loop
      vertex 10.125 -17 6.81654
      vertex 9.15846 -17 5.84999
      vertex 17 -17 0
    endloop
  endfacet
  facet normal 0 -1 0
    outer loop
      vertex 17 -17 14
      vertex 10.125 -17 8.18346
      vertex 17 -17 0
    endloop
  endfacet
  facet normal 0 -1 0
    outer loop
      vertex 17 -17 14
      vertex 9.15846 -17 9.15001
      vertex 10.125 -17 8.18346
    endloop
  endfacet
  facet normal -0 -1 0
    outer loop
      vertex 7.79154 -17 5.84999
      vertex -16.1004 -17 3.77476e-15
      vertex 9.15846 -17 5.84999
    endloop
  endfacet
  facet normal 0 -1 0
    outer loop
      vertex 6.82499 -17 6.81654
      vertex -16.1004 -17 3.77476e-15
      vertex 7.79154 -17 5.84999
    endloop
  endfacet
  facet normal 0 -1 0
    outer loop
      vertex 6.82499 -17 8.18346
      vertex -16.1004 -17 3.77476e-15
      vertex 6.82499 -17 6.81654
    endloop
  endfacet
  facet normal 0 -1 0
    outer loop
      vertex -5.01089 -17 5.05172
      vertex -5.25575 -17 4.96411
      vertex -17 -17 3.77476e-15
    endloop
  endfacet
  facet normal 0 -1 0
    outer loop
      vertex -17 -17 14
      vertex -17 -17 3.77476e-15
      vertex -8.675 -17 7.5
    endloop
  endfacet
  facet normal 0 -1 0
    outer loop
      vertex -6.54199 -17 4.90092
      vertex -6.79425 -17 4.96411
      vertex -17 -17 3.77476e-15
    endloop
  endfacet
  facet normal 0 -1 0
    outer loop
      vertex -17 -17 14
      vertex -8.675 -17 7.5
      vertex -8.66224 -17 7.75975
    endloop
  endfacet
  facet normal 0 -1 0
    outer loop
      vertex -17 -17 14
      vertex -8.66224 -17 7.75975
      vertex -8.62408 -17 8.01699
    endloop
  endfacet
  facet normal -0 -1 0
    outer loop
      vertex -3.97652 -17 9.18114
      vertex -3.82161 -17 8.97226
      vertex 17 -17 14
    endloop
  endfacet
  facet normal 0 -1 0
    outer loop
      vertex -17 -17 14
      vertex -8.62408 -17 8.01699
      vertex -8.56089 -17 8.26925
    endloop
  endfacet
  facet normal -0 -1 0
    outer loop
      vertex -4.15117 -17 9.37383
      vertex -3.97652 -17 9.18114
      vertex 17 -17 14
    endloop
  endfacet
  facet normal 0 -1 0
    outer loop
      vertex -17 -17 14
      vertex -8.56089 -17 8.26925
      vertex -8.47328 -17 8.51411
    endloop
  endfacet
  facet normal -0 -1 0
    outer loop
      vertex -4.34386 -17 9.54848
      vertex -4.15117 -17 9.37383
      vertex 17 -17 14
    endloop
  endfacet
  facet normal 0 -1 0
    outer loop
      vertex -17 -17 14
      vertex -8.47328 -17 8.51411
      vertex -8.36209 -17 8.7492
    endloop
  endfacet
  facet normal -0 -1 0
    outer loop
      vertex -4.55274 -17 9.70339
      vertex -4.34386 -17 9.54848
      vertex 17 -17 14
    endloop
  endfacet
  facet normal 0 -1 0
    outer loop
      vertex -17 -17 14
      vertex -8.36209 -17 8.7492
      vertex -8.22839 -17 8.97226
    endloop
  endfacet
  facet normal -0 -1 0
    outer loop
      vertex -3.82161 -17 8.97226
      vertex -3.68791 -17 8.7492
      vertex 17 -17 14
    endloop
  endfacet
  facet normal 0 -1 0
    outer loop
      vertex -17 -17 14
      vertex -8.22839 -17 8.97226
      vertex -8.07348 -17 9.18114
    endloop
  endfacet
  facet normal 0 -1 0
    outer loop
      vertex -17 -17 14
      vertex -8.07348 -17 9.18114
      vertex -7.89883 -17 9.37383
    endloop
  endfacet
  facet normal -0 -1 0
    outer loop
      vertex -5.01089 -17 9.94828
      vertex -4.7758 -17 9.83709
      vertex 17 -17 14
    endloop
  endfacet
  facet normal 0 -1 0
    outer loop
      vertex -17 -17 14
      vertex -7.89883 -17 9.37383
      vertex -7.70614 -17 9.54848
    endloop
  endfacet
  facet normal -0 -1 0
    outer loop
      vertex -5.25575 -17 10.0359
      vertex -5.01089 -17 9.94828
      vertex 17 -17 14
    endloop
  endfacet
  facet normal 0 -1 0
    outer loop
      vertex -17 -17 14
      vertex -7.70614 -17 9.54848
      vertex -7.49726 -17 9.70339
    endloop
  endfacet
  facet normal -0 -1 0
    outer loop
      vertex -5.50801 -17 10.0991
      vertex -5.25575 -17 10.0359
      vertex 17 -17 14
    endloop
  endfacet
  facet normal 0 -1 0
    outer loop
      vertex -17 -17 14
      vertex -7.49726 -17 9.70339
      vertex -7.2742 -17 9.83709
    endloop
  endfacet
  facet normal -0 -1 0
    outer loop
      vertex -5.76525 -17 10.1372
      vertex -5.50801 -17 10.0991
      vertex 17 -17 14
    endloop
  endfacet
  facet normal 0 -1 0
    outer loop
      vertex -17 -17 14
      vertex -7.2742 -17 9.83709
      vertex -7.03911 -17 9.94828
    endloop
  endfacet
  facet normal -0 -1 0
    outer loop
      vertex -6.025 -17 10.15
      vertex -5.76525 -17 10.1372
      vertex 17 -17 14
    endloop
  endfacet
  facet normal 0 -1 0
    outer loop
      vertex -17 -17 14
      vertex -7.03911 -17 9.94828
      vertex -6.79425 -17 10.0359
    endloop
  endfacet
  facet normal 0 -1 0
    outer loop
      vertex -17 -17 14
      vertex -6.54199 -17 10.0991
      vertex 17 -17 14
    endloop
  endfacet
  facet normal 0 -1 0
    outer loop
      vertex -17 -17 14
      vertex -6.79425 -17 10.0359
      vertex -6.54199 -17 10.0991
    endloop
  endfacet
  facet normal 0 -1 0
    outer loop
      vertex -6.54199 -17 10.0991
      vertex -6.28475 -17 10.1372
      vertex 17 -17 14
    endloop
  endfacet
  facet normal -0 -1 0
    outer loop
      vertex -3.68791 -17 8.7492
      vertex -3.57672 -17 8.51411
      vertex 17 -17 14
    endloop
  endfacet
  facet normal -0 -1 0
    outer loop
      vertex -3.57672 -17 8.51411
      vertex -3.48911 -17 8.26925
      vertex 17 -17 14
    endloop
  endfacet
  facet normal -0 -1 0
    outer loop
      vertex -3.48911 -17 8.26925
      vertex -3.42592 -17 8.01699
      vertex 17 -17 14
    endloop
  endfacet
  facet normal 0 -1 0
    outer loop
      vertex -7.89883 -17 5.62617
      vertex -8.07348 -17 5.81886
      vertex -17 -17 3.77476e-15
    endloop
  endfacet
  facet normal -0 -1 0
    outer loop
      vertex -3.42592 -17 8.01699
      vertex -3.38776 -17 7.75975
      vertex 17 -17 14
    endloop
  endfacet
  facet normal -0 -1 0
    outer loop
      vertex -3.38776 -17 7.75975
      vertex -3.375 -17 7.5
      vertex 17 -17 14
    endloop
  endfacet
  facet normal -0 -1 0
    outer loop
      vertex -3.375 -17 7.5
      vertex -3.38776 -17 7.24026
      vertex 17 -17 14
    endloop
  endfacet
  facet normal 0 -1 0
    outer loop
      vertex -7.49726 -17 5.29661
      vertex -7.70614 -17 5.45152
      vertex -17 -17 3.77476e-15
    endloop
  endfacet
  facet normal -0 -1 0
    outer loop
      vertex -3.38776 -17 7.24026
      vertex -3.42592 -17 6.98301
      vertex 17 -17 14
    endloop
  endfacet
  facet normal -0 -1 0
    outer loop
      vertex -3.42592 -17 6.98301
      vertex -3.48911 -17 6.73075
      vertex 17 -17 14
    endloop
  endfacet
  facet normal -0 -1 0
    outer loop
      vertex -3.48911 -17 6.73075
      vertex -3.57672 -17 6.48589
      vertex 17 -17 14
    endloop
  endfacet
  facet normal -0 -1 0
    outer loop
      vertex -3.57672 -17 6.48589
      vertex -3.68791 -17 6.2508
      vertex 17 -17 14
    endloop
  endfacet
  facet normal 0 -1 0
    outer loop
      vertex -6.79425 -17 4.96411
      vertex -7.03911 -17 5.05172
      vertex -17 -17 3.77476e-15
    endloop
  endfacet
  facet normal -0 -1 0
    outer loop
      vertex -3.68791 -17 6.2508
      vertex -3.82161 -17 6.02774
      vertex 17 -17 14
    endloop
  endfacet
  facet normal -0 -1 0
    outer loop
      vertex -3.82161 -17 6.02774
      vertex -3.97652 -17 5.81886
      vertex 17 -17 14
    endloop
  endfacet
  facet normal -0 -1 0
    outer loop
      vertex -3.97652 -17 5.81886
      vertex -4.15117 -17 5.62617
      vertex 17 -17 14
    endloop
  endfacet
  facet normal -0 -1 0
    outer loop
      vertex -4.15117 -17 5.62617
      vertex -4.34386 -17 5.45152
      vertex 17 -17 14
    endloop
  endfacet
  facet normal -0 -1 0
    outer loop
      vertex -4.34386 -17 5.45152
      vertex -4.55274 -17 5.29661
      vertex 17 -17 14
    endloop
  endfacet
  facet normal -0 -1 0
    outer loop
      vertex -4.55274 -17 5.29661
      vertex -4.7758 -17 5.16291
      vertex 17 -17 14
    endloop
  endfacet
  facet normal -0 -1 0
    outer loop
      vertex -4.7758 -17 5.16291
      vertex -5.01089 -17 5.05172
      vertex 17 -17 14
    endloop
  endfacet
  facet normal 0 -1 0
    outer loop
      vertex -5.25575 -17 4.96411
      vertex -5.50801 -17 4.90092
      vertex -17 -17 3.77476e-15
    endloop
  endfacet
  facet normal 0 -1 0
    outer loop
      vertex -5.50801 -17 4.90092
      vertex -5.76525 -17 4.86276
      vertex -17 -17 3.77476e-15
    endloop
  endfacet
  facet normal 0 -1 0
    outer loop
      vertex -5.76525 -17 4.86276
      vertex -6.025 -17 4.85
      vertex -17 -17 3.77476e-15
    endloop
  endfacet
  facet normal 0 -1 0
    outer loop
      vertex -6.025 -17 4.85
      vertex -6.28475 -17 4.86276
      vertex -17 -17 3.77476e-15
    endloop
  endfacet
  facet normal 0 -1 0
    outer loop
      vertex -6.28475 -17 4.86276
      vertex -6.54199 -17 4.90092
      vertex -17 -17 3.77476e-15
    endloop
  endfacet
  facet normal 0 -1 0
    outer loop
      vertex -7.2742 -17 5.16291
      vertex -7.49726 -17 5.29661
      vertex -17 -17 3.77476e-15
    endloop
  endfacet
  facet normal 0 -1 0
    outer loop
      vertex -7.03911 -17 5.05172
      vertex -7.2742 -17 5.16291
      vertex -17 -17 3.77476e-15
    endloop
  endfacet
  facet normal 0 -1 0
    outer loop
      vertex -7.70614 -17 5.45152
      vertex -7.89883 -17 5.62617
      vertex -17 -17 3.77476e-15
    endloop
  endfacet
  facet normal 0 -1 0
    outer loop
      vertex -8.07348 -17 5.81886
      vertex -8.22839 -17 6.02774
      vertex -17 -17 3.77476e-15
    endloop
  endfacet
  facet normal 0 -1 0
    outer loop
      vertex -8.36209 -17 6.2508
      vertex -17 -17 3.77476e-15
      vertex -8.22839 -17 6.02774
    endloop
  endfacet
  facet normal 0 -1 0
    outer loop
      vertex -8.47328 -17 6.48589
      vertex -17 -17 3.77476e-15
      vertex -8.36209 -17 6.2508
    endloop
  endfacet
  facet normal 0 -1 0
    outer loop
      vertex -8.56089 -17 6.73075
      vertex -17 -17 3.77476e-15
      vertex -8.47328 -17 6.48589
    endloop
  endfacet
  facet normal 0 -1 0
    outer loop
      vertex -8.62408 -17 6.98301
      vertex -17 -17 3.77476e-15
      vertex -8.56089 -17 6.73075
    endloop
  endfacet
  facet normal 0 -1 0
    outer loop
      vertex -8.66224 -17 7.24026
      vertex -17 -17 3.77476e-15
      vertex -8.62408 -17 6.98301
    endloop
  endfacet
  facet normal 0 -1 0
    outer loop
      vertex -8.675 -17 7.5
      vertex -17 -17 3.77476e-15
      vertex -8.66224 -17 7.24026
    endloop
  endfacet
  facet normal 0 -1 0
    outer loop
      vertex 7.79154 -17 9.15001
      vertex 9.15846 -17 9.15001
      vertex 17 -17 14
    endloop
  endfacet
  facet normal -0 -1 0
    outer loop
      vertex -4.7758 -17 9.83709
      vertex -4.55274 -17 9.70339
      vertex 17 -17 14
    endloop
  endfacet
  facet normal 0 0 1
    outer loop
      vertex -16.1004 -17 14
      vertex 17 -17 14
      vertex 17 -11 14
    endloop
  endfacet
  facet normal 0 0 1.04492e-16
    outer loop
      vertex -17 -17 14
      vertex 17 -17 14
      vertex -16.1004 -17 14
    endloop
  endfacet
  facet normal 0 0 1
    outer loop
      vertex -16.1004 -11 14
      vertex -16.1004 -17 14
      vertex 17 -11 14
    endloop
  endfacet
  facet normal 0 1 0
    outer loop
      vertex -22.8415 -11 9.15001
      vertex -21.8995 -11 14.0001
      vertex -16.1005 -11 14.0001
    endloop
  endfacet
  facet normal 0 1 0
    outer loop
      vertex -5.01089 -11 9.94828
      vertex -16.1004 -11 14
      vertex 17 -11 14
    endloop
  endfacet
  facet normal 0 1 0
    outer loop
      vertex 10.125 -11 6.81654
      vertex 17 -11 14
      vertex 17 -11 0
    endloop
  endfacet
  facet normal 0 1 0
    outer loop
      vertex -26.0001 -11 4.10048
      vertex 17 -11 0
      vertex -16.1004 -11 0
    endloop
  endfacet
  facet normal 0 1 0
    outer loop
      vertex -26.0001 -11 4.10048
      vertex -16.1004 -11 0
      vertex -16.1005 -11 -5.08866e-05
    endloop
  endfacet
  facet normal 0 1 0
    outer loop
      vertex -26.0001 -11 4.10048
      vertex -16.1005 -11 -5.08866e-05
      vertex -21.8995 -11 -5.04419e-05
    endloop
  endfacet
  facet normal -0 1 0
    outer loop
      vertex -8.47328 -11 6.48589
      vertex -26.0001 -11 4.10048
      vertex -8.56089 -11 6.73075
    endloop
  endfacet
  facet normal 0 1 0
    outer loop
      vertex -3.57672 -11 6.48589
      vertex 6.82499 -11 8.18346
      vertex 6.82499 -11 6.81654
    endloop
  endfacet
  facet normal 0 1 0
    outer loop
      vertex -4.15117 -11 5.62617
      vertex 6.82499 -11 6.81654
      vertex 7.79154 -11 5.84999
    endloop
  endfacet
  facet normal 0 1 0
    outer loop
      vertex -5.76525 -11 4.86276
      vertex 7.79154 -11 5.84999
      vertex 17 -11 0
    endloop
  endfacet
  facet normal 0 1 -0
    outer loop
      vertex 10.125 -11 6.81654
      vertex 17 -11 0
      vertex 9.15846 -11 5.84999
    endloop
  endfacet
  facet normal 0 1 0
    outer loop
      vertex 10.125 -11 8.18346
      vertex 17 -11 14
      vertex 10.125 -11 6.81654
    endloop
  endfacet
  facet normal 0 1 0
    outer loop
      vertex 7.79154 -11 9.15001
      vertex 17 -11 14
      vertex 9.15846 -11 9.15001
    endloop
  endfacet
  facet normal 0 1 0
    outer loop
      vertex 9.15846 -11 9.15001
      vertex 17 -11 14
      vertex 10.125 -11 8.18346
    endloop
  endfacet
  facet normal 0 1 0
    outer loop
      vertex -3.48911 -11 8.26925
      vertex 17 -11 14
      vertex 7.79154 -11 9.15001
    endloop
  endfacet
  facet normal 0 1 0
    outer loop
      vertex -3.38776 -11 7.24026
      vertex 7.79154 -11 9.15001
      vertex 6.82499 -11 8.18346
    endloop
  endfacet
  facet normal 0 1 0
    outer loop
      vertex -3.97652 -11 9.18114
      vertex 17 -11 14
      vertex -3.82161 -11 8.97226
    endloop
  endfacet
  facet normal 0 1 0
    outer loop
      vertex -26.0001 -11 4.10048
      vertex -8.675 -11 7.5
      vertex -8.66224 -11 7.24026
    endloop
  endfacet
  facet normal 0 1 0
    outer loop
      vertex -26.0001 -11 4.10048
      vertex -8.66224 -11 7.24026
      vertex -8.62408 -11 6.98301
    endloop
  endfacet
  facet normal 0 1 0
    outer loop
      vertex -26.0001 -11 4.10048
      vertex -8.62408 -11 6.98301
      vertex -8.56089 -11 6.73075
    endloop
  endfacet
  facet normal 0 1 -0
    outer loop
      vertex -3.38776 -11 7.24026
      vertex 6.82499 -11 8.18346
      vertex -3.42592 -11 6.98301
    endloop
  endfacet
  facet normal -0 1 0
    outer loop
      vertex -8.36209 -11 6.2508
      vertex -26.0001 -11 4.10048
      vertex -8.47328 -11 6.48589
    endloop
  endfacet
  facet normal -0 1 0
    outer loop
      vertex -7.70614 -11 5.45152
      vertex -26.0001 -11 4.10048
      vertex -7.89883 -11 5.62617
    endloop
  endfacet
  facet normal 0 1 0
    outer loop
      vertex -26.0001 -11 4.10048
      vertex -8.36209 -11 6.2508
      vertex -8.22839 -11 6.02774
    endloop
  endfacet
  facet normal 0 1 0
    outer loop
      vertex -26.0001 -11 4.10048
      vertex -8.22839 -11 6.02774
      vertex -8.07348 -11 5.81886
    endloop
  endfacet
  facet normal 0 1 0
    outer loop
      vertex -26.0001 -11 4.10048
      vertex -8.07348 -11 5.81886
      vertex -7.89883 -11 5.62617
    endloop
  endfacet
  facet normal 0 1 -0
    outer loop
      vertex -3.82161 -11 6.02774
      vertex 6.82499 -11 6.81654
      vertex -3.97652 -11 5.81886
    endloop
  endfacet
  facet normal 0 1 0
    outer loop
      vertex -26.0001 -11 4.10048
      vertex -7.70614 -11 5.45152
      vertex -7.49726 -11 5.29661
    endloop
  endfacet
  facet normal 0 1 0
    outer loop
      vertex -26.0001 -11 4.10048
      vertex -7.49726 -11 5.29661
      vertex -7.2742 -11 5.16291
    endloop
  endfacet
  facet normal -0 1 -0
    outer loop
      vertex -6.28475 -11 4.86276
      vertex 17 -11 0
      vertex -6.54199 -11 4.90092
    endloop
  endfacet
  facet normal 0 1 0
    outer loop
      vertex -26.0001 -11 4.10048
      vertex -7.03911 -11 5.05172
      vertex -6.79425 -11 4.96411
    endloop
  endfacet
  facet normal 0 1 0
    outer loop
      vertex -26.0001 -11 4.10048
      vertex -6.79425 -11 4.96411
      vertex -6.54199 -11 4.90092
    endloop
  endfacet
  facet normal 0 1 0
    outer loop
      vertex -26.0001 -11 4.10048
      vertex -6.54199 -11 4.90092
      vertex 17 -11 0
    endloop
  endfacet
  facet normal -0 1 -0
    outer loop
      vertex -6.025 -11 4.85
      vertex 17 -11 0
      vertex -6.28475 -11 4.86276
    endloop
  endfacet
  facet normal 0 1 -0
    outer loop
      vertex -4.55274 -11 5.29661
      vertex 7.79154 -11 5.84999
      vertex -4.7758 -11 5.16291
    endloop
  endfacet
  facet normal 0 1 -0
    outer loop
      vertex -5.50801 -11 4.90092
      vertex 7.79154 -11 5.84999
      vertex -5.76525 -11 4.86276
    endloop
  endfacet
  facet normal 0 1 0
    outer loop
      vertex -6.025 -11 4.85
      vertex -5.76525 -11 4.86276
      vertex 17 -11 0
    endloop
  endfacet
  facet normal 0 1 -0
    outer loop
      vertex -5.25575 -11 4.96411
      vertex 7.79154 -11 5.84999
      vertex -5.50801 -11 4.90092
    endloop
  endfacet
  facet normal 0 1 -0
    outer loop
      vertex -5.01089 -11 5.05172
      vertex 7.79154 -11 5.84999
      vertex -5.25575 -11 4.96411
    endloop
  endfacet
  facet normal 0 1 -0
    outer loop
      vertex -4.7758 -11 5.16291
      vertex 7.79154 -11 5.84999
      vertex -5.01089 -11 5.05172
    endloop
  endfacet
  facet normal 0 1 -0
    outer loop
      vertex -4.34386 -11 5.45152
      vertex 7.79154 -11 5.84999
      vertex -4.55274 -11 5.29661
    endloop
  endfacet
  facet normal 0 1 -0
    outer loop
      vertex -4.15117 -11 5.62617
      vertex 7.79154 -11 5.84999
      vertex -4.34386 -11 5.45152
    endloop
  endfacet
  facet normal 0 1 -0
    outer loop
      vertex -3.97652 -11 5.81886
      vertex 6.82499 -11 6.81654
      vertex -4.15117 -11 5.62617
    endloop
  endfacet
  facet normal -0 1 0
    outer loop
      vertex -7.03911 -11 5.05172
      vertex -26.0001 -11 4.10048
      vertex -7.2742 -11 5.16291
    endloop
  endfacet
  facet normal 0 1 -0
    outer loop
      vertex -3.68791 -11 6.2508
      vertex 6.82499 -11 6.81654
      vertex -3.82161 -11 6.02774
    endloop
  endfacet
  facet normal 0 1 -0
    outer loop
      vertex -3.57672 -11 6.48589
      vertex 6.82499 -11 6.81654
      vertex -3.68791 -11 6.2508
    endloop
  endfacet
  facet normal 0 1 -0
    outer loop
      vertex -3.48911 -11 6.73075
      vertex 6.82499 -11 8.18346
      vertex -3.57672 -11 6.48589
    endloop
  endfacet
  facet normal 0 1 -0
    outer loop
      vertex -3.42592 -11 6.98301
      vertex 6.82499 -11 8.18346
      vertex -3.48911 -11 6.73075
    endloop
  endfacet
  facet normal 0 1 -0
    outer loop
      vertex -3.375 -11 7.5
      vertex 7.79154 -11 9.15001
      vertex -3.38776 -11 7.24026
    endloop
  endfacet
  facet normal 0 1 0
    outer loop
      vertex -3.38776 -11 7.75975
      vertex 7.79154 -11 9.15001
      vertex -3.375 -11 7.5
    endloop
  endfacet
  facet normal 0 1 0
    outer loop
      vertex -3.42592 -11 8.01699
      vertex 7.79154 -11 9.15001
      vertex -3.38776 -11 7.75975
    endloop
  endfacet
  facet normal 0 1 0
    outer loop
      vertex -3.48911 -11 8.26925
      vertex 7.79154 -11 9.15001
      vertex -3.42592 -11 8.01699
    endloop
  endfacet
  facet normal 0 1 0
    outer loop
      vertex -3.57672 -11 8.51411
      vertex 17 -11 14
      vertex -3.48911 -11 8.26925
    endloop
  endfacet
  facet normal 0 1 0
    outer loop
      vertex -3.82161 -11 8.97226
      vertex 17 -11 14
      vertex -3.68791 -11 8.7492
    endloop
  endfacet
  facet normal 0 1 0
    outer loop
      vertex -3.68791 -11 8.7492
      vertex 17 -11 14
      vertex -3.57672 -11 8.51411
    endloop
  endfacet
  facet normal -0 1 0
    outer loop
      vertex -8.66224 -11 7.75975
      vertex -26.0001 -11 4.10048
      vertex -8.62408 -11 8.01699
    endloop
  endfacet
  facet normal 0 1 0
    outer loop
      vertex -24.2085 -11 9.15001
      vertex -21.8995 -11 14.0001
      vertex -22.8415 -11 9.15001
    endloop
  endfacet
  facet normal -0 1 0
    outer loop
      vertex -7.2742 -11 9.83709
      vertex -26.0001 -11 4.10048
      vertex -7.03911 -11 9.94828
    endloop
  endfacet
  facet normal 0 1 0
    outer loop
      vertex -5.50801 -11 10.0991
      vertex -16.1004 -11 14
      vertex -5.25575 -11 10.0359
    endloop
  endfacet
  facet normal 0 1 0
    outer loop
      vertex -6.54199 -11 10.0991
      vertex -16.1004 -11 14
      vertex -6.28475 -11 10.1372
    endloop
  endfacet
  facet normal 0 1 0
    outer loop
      vertex -3.97652 -11 9.18114
      vertex -4.15117 -11 9.37383
      vertex 17 -11 14
    endloop
  endfacet
  facet normal 0 1 0
    outer loop
      vertex -6.28475 -11 10.1372
      vertex -16.1004 -11 14
      vertex -6.025 -11 10.15
    endloop
  endfacet
  facet normal 0 1 0
    outer loop
      vertex -4.15117 -11 9.37383
      vertex -4.34386 -11 9.54848
      vertex 17 -11 14
    endloop
  endfacet
  facet normal 0 1 0
    outer loop
      vertex -6.025 -11 10.15
      vertex -16.1004 -11 14
      vertex -5.76525 -11 10.1372
    endloop
  endfacet
  facet normal 0 1 0
    outer loop
      vertex -4.34386 -11 9.54848
      vertex -4.55274 -11 9.70339
      vertex 17 -11 14
    endloop
  endfacet
  facet normal 0 1 0
    outer loop
      vertex -5.76525 -11 10.1372
      vertex -16.1004 -11 14
      vertex -5.50801 -11 10.0991
    endloop
  endfacet
  facet normal 0 1 0
    outer loop
      vertex -4.55274 -11 9.70339
      vertex -4.7758 -11 9.83709
      vertex 17 -11 14
    endloop
  endfacet
  facet normal 0 1 0
    outer loop
      vertex -5.25575 -11 10.0359
      vertex -16.1004 -11 14
      vertex -5.01089 -11 9.94828
    endloop
  endfacet
  facet normal 0 1 0
    outer loop
      vertex -4.7758 -11 9.83709
      vertex -5.01089 -11 9.94828
      vertex 17 -11 14
    endloop
  endfacet
  facet normal 0 1 0
    outer loop
      vertex -6.79425 -11 10.0359
      vertex -16.1004 -11 14
      vertex -6.54199 -11 10.0991
    endloop
  endfacet
  facet normal 0 1 0
    outer loop
      vertex -21.875 -11 6.81654
      vertex -16.1004 -11 14
      vertex -6.79425 -11 10.0359
    endloop
  endfacet
  facet normal 0 1 0
    outer loop
      vertex -26.0001 -11 4.10048
      vertex -6.79425 -11 10.0359
      vertex -7.03911 -11 9.94828
    endloop
  endfacet
  facet normal -0 1 0
    outer loop
      vertex -8.62408 -11 8.01699
      vertex -26.0001 -11 4.10048
      vertex -8.56089 -11 8.26925
    endloop
  endfacet
  facet normal 0 1 0
    outer loop
      vertex -26.0001 -11 4.10048
      vertex -7.2742 -11 9.83709
      vertex -7.49726 -11 9.70339
    endloop
  endfacet
  facet normal 0 1 0
    outer loop
      vertex -26.0001 -11 4.10048
      vertex -7.49726 -11 9.70339
      vertex -7.70614 -11 9.54848
    endloop
  endfacet
  facet normal 0 1 0
    outer loop
      vertex -26.0001 -11 4.10048
      vertex -7.70614 -11 9.54848
      vertex -7.89883 -11 9.37383
    endloop
  endfacet
  facet normal 0 1 0
    outer loop
      vertex -26.0001 -11 4.10048
      vertex -7.89883 -11 9.37383
      vertex -8.07348 -11 9.18114
    endloop
  endfacet
  facet normal 0 1 0
    outer loop
      vertex -26.0001 -11 4.10048
      vertex -8.07348 -11 9.18114
      vertex -8.22839 -11 8.97226
    endloop
  endfacet
  facet normal 0 1 0
    outer loop
      vertex -26.0001 -11 4.10048
      vertex -8.22839 -11 8.97226
      vertex -8.36209 -11 8.7492
    endloop
  endfacet
  facet normal 0 1 0
    outer loop
      vertex -26.0001 -11 4.10048
      vertex -8.36209 -11 8.7492
      vertex -8.47328 -11 8.51411
    endloop
  endfacet
  facet normal 0 1 0
    outer loop
      vertex -26.0001 -11 4.10048
      vertex -8.47328 -11 8.51411
      vertex -8.56089 -11 8.26925
    endloop
  endfacet
  facet normal -0 1 0
    outer loop
      vertex -24.2085 -11 5.84999
      vertex -26.0001 -11 4.10048
      vertex -25.175 -11 6.81654
    endloop
  endfacet
  facet normal 0 1 0
    outer loop
      vertex -26.0001 -11 4.10048
      vertex -8.66224 -11 7.75975
      vertex -8.675 -11 7.5
    endloop
  endfacet
  facet normal 0 1 0
    outer loop
      vertex -26.0001 -11 9.89952
      vertex -21.8995 -11 14.0001
      vertex -25.175 -11 8.18346
    endloop
  endfacet
  facet normal 0 1 -0
    outer loop
      vertex -26.0001 -11 9.89952
      vertex -25.175 -11 8.18346
      vertex -26.0001 -11 4.10048
    endloop
  endfacet
  facet normal 0 1 -0
    outer loop
      vertex -25.175 -11 8.18346
      vertex -25.175 -11 6.81654
      vertex -26.0001 -11 4.10048
    endloop
  endfacet
  facet normal 0 1 -0
    outer loop
      vertex -21.875 -11 6.81654
      vertex -6.79425 -11 10.0359
      vertex -22.8415 -11 5.84999
    endloop
  endfacet
  facet normal 0 1 0
    outer loop
      vertex -22.8415 -11 9.15001
      vertex -16.1004 -11 14
      vertex -21.875 -11 8.18346
    endloop
  endfacet
  facet normal 0 1 0
    outer loop
      vertex -26.0001 -11 4.10048
      vertex -24.2085 -11 5.84999
      vertex -22.8415 -11 5.84999
    endloop
  endfacet
  facet normal 0 1 0
    outer loop
      vertex -26.0001 -11 4.10048
      vertex -22.8415 -11 5.84999
      vertex -6.79425 -11 10.0359
    endloop
  endfacet
  facet normal 0 1 0
    outer loop
      vertex -21.875 -11 8.18346
      vertex -16.1004 -11 14
      vertex -21.875 -11 6.81654
    endloop
  endfacet
  facet normal 0 1 0
    outer loop
      vertex -22.8415 -11 9.15001
      vertex -16.1005 -11 14.0001
      vertex -16.1004 -11 14
    endloop
  endfacet
  facet normal 0 1 0
    outer loop
      vertex -25.175 -11 8.18346
      vertex -21.8995 -11 14.0001
      vertex -24.2085 -11 9.15001
    endloop
  endfacet
  facet normal 0 1 -0
    outer loop
      vertex 9.15846 -11 5.84999
      vertex 17 -11 0
      vertex 7.79154 -11 5.84999
    endloop
  endfacet
  facet normal 0.707107 -1.57009e-16 -0.707107
    outer loop
      vertex -16.1005 -17 -5.08866e-05
      vertex -16.1005 -11 -5.08866e-05
      vertex -16.1004 -11 0
    endloop
  endfacet
  facet normal 0 -4.36351e-12 0
    outer loop
      vertex -16.1004 -17 3.77476e-15
      vertex -16.1005 -17 -5.08866e-05
      vertex -16.1004 -17 0
    endloop
  endfacet
  facet normal 0.707107 0 -0.707107
    outer loop
      vertex -16.1004 -17 0
      vertex -16.1005 -17 -5.08866e-05
      vertex -16.1004 -11 0
    endloop
  endfacet
  facet normal 0 -1 0
    outer loop
      vertex -17 -17 3.77476e-15
      vertex -21.8995 -17 -5.04419e-05
      vertex -16.1005 -17 -5.08866e-05
    endloop
  endfacet
  facet normal 0 -1 0
    outer loop
      vertex -24.2085 -17 5.84999
      vertex -25.175 -17 6.81654
      vertex -26.0001 -17 4.10048
    endloop
  endfacet
  facet normal -2.1659e-16 -1 3.91025e-16
    outer loop
      vertex -17 -17 3.77476e-15
      vertex -22.8415 -17 5.84999
      vertex -26.0001 -17 4.10048
    endloop
  endfacet
  facet normal -8.91977e-21 -1 8.66394e-16
    outer loop
      vertex -26.0001 -17 4.10048
      vertex -21.8995 -17 -5.04419e-05
      vertex -17 -17 3.77476e-15
    endloop
  endfacet
  facet normal 0 -1 0
    outer loop
      vertex -22.8415 -17 5.84999
      vertex -24.2085 -17 5.84999
      vertex -26.0001 -17 4.10048
    endloop
  endfacet
  facet normal 0 -1 0
    outer loop
      vertex -16.1005 -17 14.0001
      vertex -17 -17 14
      vertex -16.1004 -17 14
    endloop
  endfacet
  facet normal 0 -1 0
    outer loop
      vertex -21.8995 -17 14.0001
      vertex -17 -17 14
      vertex -16.1005 -17 14.0001
    endloop
  endfacet
  facet normal -0 -1 0
    outer loop
      vertex -22.8415 -17 9.15001
      vertex -21.875 -17 8.18346
      vertex -17 -17 14
    endloop
  endfacet
  facet normal -0 -1 0
    outer loop
      vertex -26.0001 -17 9.89952
      vertex -25.175 -17 8.18346
      vertex -21.8995 -17 14.0001
    endloop
  endfacet
  facet normal 0 -1 0
    outer loop
      vertex -26.0001 -17 9.89952
      vertex -26.0001 -17 4.10048
      vertex -25.175 -17 8.18346
    endloop
  endfacet
  facet normal 0 -1 0
    outer loop
      vertex -25.175 -17 8.18346
      vertex -24.2085 -17 9.15001
      vertex -21.8995 -17 14.0001
    endloop
  endfacet
  facet normal 0 -1 0
    outer loop
      vertex -21.8995 -17 14.0001
      vertex -22.8415 -17 9.15001
      vertex -17 -17 14
    endloop
  endfacet
  facet normal 0 -1 0
    outer loop
      vertex -24.2085 -17 9.15001
      vertex -22.8415 -17 9.15001
      vertex -21.8995 -17 14.0001
    endloop
  endfacet
  facet normal 0 -1 0
    outer loop
      vertex -25.175 -17 8.18346
      vertex -26.0001 -17 4.10048
      vertex -25.175 -17 6.81654
    endloop
  endfacet
  facet normal 0 -1 0
    outer loop
      vertex -16.1004 -17 3.77476e-15
      vertex -17 -17 3.77476e-15
      vertex -16.1005 -17 -5.08866e-05
    endloop
  endfacet
  facet normal -3.03871e-16 -1 3.03871e-16
    outer loop
      vertex -17 -17 3.77476e-15
      vertex -21.875 -17 6.81654
      vertex -22.8415 -17 5.84999
    endloop
  endfacet
  facet normal -7.28764e-16 -1 -2.97393e-22
    outer loop
      vertex -17 -17 3.77476e-15
      vertex -21.875 -17 8.18346
      vertex -21.875 -17 6.81654
    endloop
  endfacet
  facet normal -3.02777e-16 -1 2.53765e-16
    outer loop
      vertex -17 -17 3.77476e-15
      vertex -17 -17 14
      vertex -21.875 -17 8.18346
    endloop
  endfacet
  facet normal 1 5.6633e-23 4.08078e-07
    outer loop
      vertex 6.82499 -17 8.18346
      vertex 6.82499 -17 6.81654
      vertex 6.82499 -11 6.81654
    endloop
  endfacet
  facet normal 1 1.20815e-22 4.08078e-07
    outer loop
      vertex 6.82499 -11 8.18346
      vertex 6.82499 -17 8.18346
      vertex 6.82499 -11 6.81654
    endloop
  endfacet
  facet normal 0.707106 -2.09346e-16 -0.707107
    outer loop
      vertex 6.82499 -11 8.18346
      vertex 7.79154 -11 9.15001
      vertex 6.82499 -17 8.18346
    endloop
  endfacet
  facet normal 0.707106 0 -0.707107
    outer loop
      vertex 6.82499 -17 8.18346
      vertex 7.79154 -11 9.15001
      vertex 7.79154 -17 9.15001
    endloop
  endfacet
  facet normal 0.707107 9.81256e-17 0.707106
    outer loop
      vertex 6.82499 -17 6.81654
      vertex 7.79154 -17 5.84999
      vertex 7.79154 -11 5.84999
    endloop
  endfacet
  facet normal 0.707107 1.04673e-16 0.707106
    outer loop
      vertex 6.82499 -11 6.81654
      vertex 6.82499 -17 6.81654
      vertex 7.79154 -11 5.84999
    endloop
  endfacet
  facet normal -4.08078e-07 1.4803e-16 1
    outer loop
      vertex 7.79154 -17 5.84999
      vertex 9.15846 -17 5.84999
      vertex 9.15846 -11 5.84999
    endloop
  endfacet
  facet normal -4.08078e-07 1.4803e-16 1
    outer loop
      vertex 7.79154 -11 5.84999
      vertex 7.79154 -17 5.84999
      vertex 9.15846 -11 5.84999
    endloop
  endfacet
  facet normal -0.707106 2.1589e-16 0.707107
    outer loop
      vertex 9.15846 -17 5.84999
      vertex 10.125 -17 6.81654
      vertex 10.125 -11 6.81654
    endloop
  endfacet
  facet normal -0.707106 1.04673e-16 0.707107
    outer loop
      vertex 9.15846 -11 5.84999
      vertex 9.15846 -17 5.84999
      vertex 10.125 -11 6.81654
    endloop
  endfacet
  facet normal -1 0 -4.08078e-07
    outer loop
      vertex 10.125 -11 8.18346
      vertex 10.125 -11 6.81654
      vertex 10.125 -17 8.18346
    endloop
  endfacet
  facet normal -1 -1.24591e-22 -4.08078e-07
    outer loop
      vertex 10.125 -17 8.18346
      vertex 10.125 -11 6.81654
      vertex 10.125 -17 6.81654
    endloop
  endfacet
  facet normal -0.707107 0 -0.707106
    outer loop
      vertex 9.15846 -11 9.15001
      vertex 10.125 -11 8.18346
      vertex 9.15846 -17 9.15001
    endloop
  endfacet
  facet normal -0.707107 0 -0.707106
    outer loop
      vertex 9.15846 -17 9.15001
      vertex 10.125 -11 8.18346
      vertex 10.125 -17 8.18346
    endloop
  endfacet
  facet normal 4.08078e-07 0 -1
    outer loop
      vertex 7.79154 -11 9.15001
      vertex 9.15846 -11 9.15001
      vertex 7.79154 -17 9.15001
    endloop
  endfacet
  facet normal 4.08078e-07 0 -1
    outer loop
      vertex 7.79154 -17 9.15001
      vertex 9.15846 -11 9.15001
      vertex 9.15846 -17 9.15001
    endloop
  endfacet
  facet normal 0.998796 7.49014e-18 0.0490659
    outer loop
      vertex -8.675 -17 7.5
      vertex -8.66224 -17 7.24026
      vertex -8.66224 -11 7.24026
    endloop
  endfacet
  facet normal 0.998796 1.45264e-17 0.0490659
    outer loop
      vertex -8.675 -11 7.5
      vertex -8.675 -17 7.5
      vertex -8.66224 -11 7.24026
    endloop
  endfacet
  facet normal 0.998796 -1.45264e-17 -0.0490659
    outer loop
      vertex -8.675 -17 7.5
      vertex -8.675 -11 7.5
      vertex -8.66224 -11 7.75975
    endloop
  endfacet
  facet normal 0.998796 -7.26322e-18 -0.0490659
    outer loop
      vertex -8.66224 -17 7.75975
      vertex -8.675 -17 7.5
      vertex -8.66224 -11 7.75975
    endloop
  endfacet
  facet normal 0.989176 2.23994e-17 0.146732
    outer loop
      vertex -8.66224 -17 7.24026
      vertex -8.62408 -17 6.98301
      vertex -8.62408 -11 6.98301
    endloop
  endfacet
  facet normal 0.989176 2.17207e-17 0.146732
    outer loop
      vertex -8.66224 -11 7.24026
      vertex -8.66224 -17 7.24026
      vertex -8.62408 -11 6.98301
    endloop
  endfacet
  facet normal 0.970031 7.24984e-17 0.24298
    outer loop
      vertex -8.62408 -17 6.98301
      vertex -8.56089 -17 6.73075
      vertex -8.56089 -11 6.73075
    endloop
  endfacet
  facet normal 0.970031 3.59682e-17 0.24298
    outer loop
      vertex -8.62408 -11 6.98301
      vertex -8.62408 -17 6.98301
      vertex -8.56089 -11 6.73075
    endloop
  endfacet
  facet normal 0.941544 5.14273e-17 0.336889
    outer loop
      vertex -8.56089 -17 6.73075
      vertex -8.47328 -17 6.48589
      vertex -8.47328 -11 6.48589
    endloop
  endfacet
  facet normal 0.941544 9.97392e-17 0.336889
    outer loop
      vertex -8.56089 -11 6.73075
      vertex -8.56089 -17 6.73075
      vertex -8.47328 -11 6.48589
    endloop
  endfacet
  facet normal 0.903988 1.27571e-16 0.427557
    outer loop
      vertex -8.47328 -17 6.48589
      vertex -8.36209 -17 6.2508
      vertex -8.36209 -11 6.2508
    endloop
  endfacet
  facet normal 0.903988 6.32912e-17 0.427557
    outer loop
      vertex -8.47328 -11 6.48589
      vertex -8.47328 -17 6.48589
      vertex -8.36209 -11 6.2508
    endloop
  endfacet
  facet normal 0.857729 7.49137e-17 0.514103
    outer loop
      vertex -8.36209 -17 6.2508
      vertex -8.22839 -17 6.02774
      vertex -8.22839 -11 6.02774
    endloop
  endfacet
  facet normal 0.857729 1.52205e-16 0.514103
    outer loop
      vertex -8.36209 -11 6.2508
      vertex -8.36209 -17 6.2508
      vertex -8.22839 -11 6.02774
    endloop
  endfacet
  facet normal 0.803209 9.09376e-17 0.595698
    outer loop
      vertex -8.22839 -17 6.02774
      vertex -8.07348 -17 5.81886
      vertex -8.07348 -11 5.81886
    endloop
  endfacet
  facet normal 0.803209 8.8181e-17 0.595698
    outer loop
      vertex -8.22839 -11 6.02774
      vertex -8.22839 -17 6.02774
      vertex -8.07348 -11 5.81886
    endloop
  endfacet
  facet normal 0.740951 9.78577e-17 0.671559
    outer loop
      vertex -8.07348 -17 5.81886
      vertex -7.89883 -17 5.62617
      vertex -7.89883 -11 5.62617
    endloop
  endfacet
  facet normal 0.740951 9.94107e-17 0.671559
    outer loop
      vertex -8.07348 -11 5.81886
      vertex -8.07348 -17 5.81886
      vertex -7.89883 -11 5.62617
    endloop
  endfacet
  facet normal 0.671559 1.07969e-16 0.740951
    outer loop
      vertex -7.89883 -17 5.62617
      vertex -7.70614 -17 5.45152
      vertex -7.70614 -11 5.45152
    endloop
  endfacet
  facet normal 0.671559 1.09683e-16 0.740951
    outer loop
      vertex -7.89883 -11 5.62617
      vertex -7.89883 -17 5.62617
      vertex -7.70614 -11 5.45152
    endloop
  endfacet
  facet normal 0.595698 1.17042e-16 0.803209
    outer loop
      vertex -7.70614 -17 5.45152
      vertex -7.49726 -17 5.29661
      vertex -7.49726 -11 5.29661
    endloop
  endfacet
  facet normal 0.595698 1.18899e-16 0.803209
    outer loop
      vertex -7.70614 -11 5.45152
      vertex -7.70614 -17 5.45152
      vertex -7.49726 -11 5.29661
    endloop
  endfacet
  facet normal 0.514103 2.52947e-16 0.857729
    outer loop
      vertex -7.49726 -17 5.29661
      vertex -7.2742 -17 5.16291
      vertex -7.2742 -11 5.16291
    endloop
  endfacet
  facet normal 0.514103 1.26969e-16 0.857729
    outer loop
      vertex -7.49726 -11 5.29661
      vertex -7.49726 -17 5.29661
      vertex -7.2742 -11 5.16291
    endloop
  endfacet
  facet normal 0.427557 2.66589e-16 0.903988
    outer loop
      vertex -7.2742 -17 5.16291
      vertex -7.03911 -17 5.05172
      vertex -7.03911 -11 5.05172
    endloop
  endfacet
  facet normal 0.427557 2.67634e-16 0.903988
    outer loop
      vertex -7.2742 -11 5.16291
      vertex -7.2742 -17 5.16291
      vertex -7.03911 -11 5.05172
    endloop
  endfacet
  facet normal 0.336889 1.40467e-16 0.941544
    outer loop
      vertex -7.03911 -17 5.05172
      vertex -6.79425 -17 4.96411
      vertex -6.79425 -11 4.96411
    endloop
  endfacet
  facet normal 0.336889 2.78753e-16 0.941544
    outer loop
      vertex -7.03911 -11 5.05172
      vertex -7.03911 -17 5.05172
      vertex -6.79425 -11 4.96411
    endloop
  endfacet
  facet normal 0.24298 2.87748e-16 0.970031
    outer loop
      vertex -6.79425 -17 4.96411
      vertex -6.54199 -17 4.90092
      vertex -6.54199 -11 4.90092
    endloop
  endfacet
  facet normal 0.24298 1.43593e-16 0.970031
    outer loop
      vertex -6.79425 -11 4.96411
      vertex -6.79425 -17 4.96411
      vertex -6.54199 -11 4.90092
    endloop
  endfacet
  facet normal 0.146732 1.45855e-16 0.989176
    outer loop
      vertex -6.54199 -17 4.90092
      vertex -6.28475 -17 4.86276
      vertex -6.28475 -11 4.86276
    endloop
  endfacet
  facet normal 0.146732 2.92855e-16 0.989176
    outer loop
      vertex -6.54199 -11 4.90092
      vertex -6.54199 -17 4.90092
      vertex -6.28475 -11 4.86276
    endloop
  endfacet
  facet normal 0.0490659 1.47707e-16 0.998796
    outer loop
      vertex -6.28475 -17 4.86276
      vertex -6.025 -17 4.85
      vertex -6.025 -11 4.85
    endloop
  endfacet
  facet normal 0.0490659 1.47851e-16 0.998796
    outer loop
      vertex -6.28475 -11 4.86276
      vertex -6.28475 -17 4.86276
      vertex -6.025 -11 4.85
    endloop
  endfacet
  facet normal -0.0490659 1.4814e-16 0.998796
    outer loop
      vertex -6.025 -17 4.85
      vertex -5.76525 -17 4.86276
      vertex -5.76525 -11 4.86276
    endloop
  endfacet
  facet normal -0.0490659 1.47851e-16 0.998796
    outer loop
      vertex -6.025 -11 4.85
      vertex -6.025 -17 4.85
      vertex -5.76525 -11 4.86276
    endloop
  endfacet
  facet normal -0.146732 2.93427e-16 0.989176
    outer loop
      vertex -5.76525 -17 4.86276
      vertex -5.50801 -17 4.90092
      vertex -5.50801 -11 4.90092
    endloop
  endfacet
  facet normal -0.146732 1.46428e-16 0.989176
    outer loop
      vertex -5.76525 -11 4.86276
      vertex -5.76525 -17 4.86276
      vertex -5.50801 -11 4.90092
    endloop
  endfacet
  facet normal -0.24298 1.43033e-16 0.970031
    outer loop
      vertex -5.50801 -17 4.90092
      vertex -5.25575 -17 4.96411
      vertex -5.25575 -11 4.96411
    endloop
  endfacet
  facet normal -0.24298 2.87187e-16 0.970031
    outer loop
      vertex -5.50801 -11 4.90092
      vertex -5.50801 -17 4.90092
      vertex -5.25575 -11 4.96411
    endloop
  endfacet
  facet normal -0.336889 2.77663e-16 0.941544
    outer loop
      vertex -5.25575 -17 4.96411
      vertex -5.01089 -17 5.05172
      vertex -5.01089 -11 5.05172
    endloop
  endfacet
  facet normal -0.336889 1.39377e-16 0.941544
    outer loop
      vertex -5.25575 -11 4.96411
      vertex -5.25575 -17 4.96411
      vertex -5.01089 -11 5.05172
    endloop
  endfacet
  facet normal -0.427557 2.66589e-16 0.903988
    outer loop
      vertex -5.01089 -17 5.05172
      vertex -4.7758 -17 5.16291
      vertex -4.7758 -11 5.16291
    endloop
  endfacet
  facet normal -0.427557 2.67634e-16 0.903988
    outer loop
      vertex -5.01089 -11 5.05172
      vertex -5.01089 -17 5.05172
      vertex -4.7758 -11 5.16291
    endloop
  endfacet
  facet normal -0.514103 1.27961e-16 0.857729
    outer loop
      vertex -4.7758 -17 5.16291
      vertex -4.55274 -17 5.29661
      vertex -4.55274 -11 5.29661
    endloop
  endfacet
  facet normal -0.514103 2.53939e-16 0.857729
    outer loop
      vertex -4.7758 -11 5.16291
      vertex -4.7758 -17 5.16291
      vertex -4.55274 -11 5.29661
    endloop
  endfacet
  facet normal -0.595698 1.19828e-16 0.803209
    outer loop
      vertex -4.55274 -17 5.29661
      vertex -4.34386 -17 5.45152
      vertex -4.34386 -11 5.45152
    endloop
  endfacet
  facet normal -0.595698 1.18899e-16 0.803209
    outer loop
      vertex -4.55274 -11 5.29661
      vertex -4.55274 -17 5.29661
      vertex -4.34386 -11 5.45152
    endloop
  endfacet
  facet normal -0.671559 1.1054e-16 0.740951
    outer loop
      vertex -4.34386 -17 5.45152
      vertex -4.15117 -17 5.62617
      vertex -4.15117 -11 5.62617
    endloop
  endfacet
  facet normal -0.671559 1.09683e-16 0.740951
    outer loop
      vertex -4.34386 -11 5.45152
      vertex -4.34386 -17 5.45152
      vertex -4.15117 -11 5.62617
    endloop
  endfacet
  facet normal -0.740951 9.94107e-17 0.671559
    outer loop
      vertex -3.97652 -17 5.81886
      vertex -3.97652 -11 5.81886
      vertex -4.15117 -17 5.62617
    endloop
  endfacet
  facet normal -0.740951 9.94107e-17 0.671559
    outer loop
      vertex -4.15117 -17 5.62617
      vertex -3.97652 -11 5.81886
      vertex -4.15117 -11 5.62617
    endloop
  endfacet
  facet normal -0.803209 8.8181e-17 0.595698
    outer loop
      vertex -3.82161 -17 6.02774
      vertex -3.82161 -11 6.02774
      vertex -3.97652 -17 5.81886
    endloop
  endfacet
  facet normal -0.803209 8.8181e-17 0.595698
    outer loop
      vertex -3.97652 -17 5.81886
      vertex -3.82161 -11 6.02774
      vertex -3.97652 -11 5.81886
    endloop
  endfacet
  facet normal -0.857729 1.52205e-16 0.514103
    outer loop
      vertex -3.68791 -17 6.2508
      vertex -3.68791 -11 6.2508
      vertex -3.82161 -17 6.02774
    endloop
  endfacet
  facet normal -0.857729 7.61025e-17 0.514103
    outer loop
      vertex -3.82161 -17 6.02774
      vertex -3.68791 -11 6.2508
      vertex -3.82161 -11 6.02774
    endloop
  endfacet
  facet normal -0.903988 6.32912e-17 0.427557
    outer loop
      vertex -3.57672 -17 6.48589
      vertex -3.57672 -11 6.48589
      vertex -3.68791 -17 6.2508
    endloop
  endfacet
  facet normal -0.903988 1.26582e-16 0.427557
    outer loop
      vertex -3.68791 -17 6.2508
      vertex -3.57672 -11 6.48589
      vertex -3.68791 -11 6.2508
    endloop
  endfacet
  facet normal -0.941544 9.97392e-17 0.336889
    outer loop
      vertex -3.48911 -17 6.73075
      vertex -3.48911 -11 6.73075
      vertex -3.57672 -17 6.48589
    endloop
  endfacet
  facet normal -0.941544 4.98696e-17 0.336889
    outer loop
      vertex -3.57672 -17 6.48589
      vertex -3.48911 -11 6.73075
      vertex -3.57672 -11 6.48589
    endloop
  endfacet
  facet normal -0.970031 3.59682e-17 0.24298
    outer loop
      vertex -3.42592 -17 6.98301
      vertex -3.42592 -11 6.98301
      vertex -3.48911 -17 6.73075
    endloop
  endfacet
  facet normal -0.970031 7.19365e-17 0.24298
    outer loop
      vertex -3.48911 -17 6.73075
      vertex -3.42592 -11 6.98301
      vertex -3.48911 -11 6.73075
    endloop
  endfacet
  facet normal -0.989176 2.17207e-17 0.146732
    outer loop
      vertex -3.38776 -17 7.24026
      vertex -3.38776 -11 7.24026
      vertex -3.42592 -17 6.98301
    endloop
  endfacet
  facet normal -0.989176 2.17207e-17 0.146732
    outer loop
      vertex -3.42592 -17 6.98301
      vertex -3.38776 -11 7.24026
      vertex -3.42592 -11 6.98301
    endloop
  endfacet
  facet normal -0.998796 1.45264e-17 0.0490659
    outer loop
      vertex -3.375 -17 7.5
      vertex -3.375 -11 7.5
      vertex -3.38776 -17 7.24026
    endloop
  endfacet
  facet normal -0.998796 7.26322e-18 0.0490659
    outer loop
      vertex -3.38776 -17 7.24026
      vertex -3.375 -11 7.5
      vertex -3.38776 -11 7.24026
    endloop
  endfacet
  facet normal -0.998796 -7.26322e-18 -0.0490659
    outer loop
      vertex -3.38776 -11 7.75975
      vertex -3.375 -11 7.5
      vertex -3.38776 -17 7.75975
    endloop
  endfacet
  facet normal -0.998796 -1.464e-17 -0.0490659
    outer loop
      vertex -3.38776 -17 7.75975
      vertex -3.375 -11 7.5
      vertex -3.375 -17 7.5
    endloop
  endfacet
  facet normal -0.989176 0 -0.146732
    outer loop
      vertex -3.42592 -11 8.01699
      vertex -3.38776 -11 7.75975
      vertex -3.42592 -17 8.01699
    endloop
  endfacet
  facet normal -0.989176 -2.13813e-17 -0.146732
    outer loop
      vertex -3.42592 -17 8.01699
      vertex -3.38776 -11 7.75975
      vertex -3.38776 -17 7.75975
    endloop
  endfacet
  facet normal -0.970031 -7.19365e-17 -0.24298
    outer loop
      vertex -3.48911 -11 8.26925
      vertex -3.42592 -11 8.01699
      vertex -3.48911 -17 8.26925
    endloop
  endfacet
  facet normal -0.970031 0 -0.24298
    outer loop
      vertex -3.48911 -17 8.26925
      vertex -3.42592 -11 8.01699
      vertex -3.42592 -17 8.01699
    endloop
  endfacet
  facet normal -0.941544 -9.97392e-17 -0.336889
    outer loop
      vertex -3.57672 -11 8.51411
      vertex -3.48911 -11 8.26925
      vertex -3.57672 -17 8.51411
    endloop
  endfacet
  facet normal -0.941544 -1.00519e-16 -0.336889
    outer loop
      vertex -3.57672 -17 8.51411
      vertex -3.48911 -11 8.26925
      vertex -3.48911 -17 8.26925
    endloop
  endfacet
  facet normal -0.903988 -1.26582e-16 -0.427557
    outer loop
      vertex -3.68791 -11 8.7492
      vertex -3.57672 -11 8.51411
      vertex -3.68791 -17 8.7492
    endloop
  endfacet
  facet normal -0.903988 -1.27571e-16 -0.427557
    outer loop
      vertex -3.68791 -17 8.7492
      vertex -3.57672 -11 8.51411
      vertex -3.57672 -17 8.51411
    endloop
  endfacet
  facet normal -0.857729 -1.52205e-16 -0.514103
    outer loop
      vertex -3.82161 -11 8.97226
      vertex -3.68791 -11 8.7492
      vertex -3.82161 -17 8.97226
    endloop
  endfacet
  facet normal -0.857729 -1.49826e-16 -0.514103
    outer loop
      vertex -3.82161 -17 8.97226
      vertex -3.68791 -11 8.7492
      vertex -3.68791 -17 8.7492
    endloop
  endfacet
  facet normal -0.803209 -1.76362e-16 -0.595698
    outer loop
      vertex -3.97652 -11 9.18114
      vertex -3.82161 -11 8.97226
      vertex -3.97652 -17 9.18114
    endloop
  endfacet
  facet normal -0.803209 -1.77741e-16 -0.595698
    outer loop
      vertex -3.97652 -17 9.18114
      vertex -3.82161 -11 8.97226
      vertex -3.82161 -17 8.97226
    endloop
  endfacet
  facet normal -0.740951 -1.98821e-16 -0.671559
    outer loop
      vertex -4.15117 -11 9.37383
      vertex -3.97652 -11 9.18114
      vertex -4.15117 -17 9.37383
    endloop
  endfacet
  facet normal -0.740951 -1.95714e-16 -0.671559
    outer loop
      vertex -4.15117 -17 9.37383
      vertex -3.97652 -11 9.18114
      vertex -3.97652 -17 9.18114
    endloop
  endfacet
  facet normal -0.671559 -2.19366e-16 -0.740951
    outer loop
      vertex -4.34386 -11 9.54848
      vertex -4.15117 -11 9.37383
      vertex -4.34386 -17 9.54848
    endloop
  endfacet
  facet normal -0.671559 -2.18508e-16 -0.740951
    outer loop
      vertex -4.34386 -17 9.54848
      vertex -4.15117 -11 9.37383
      vertex -4.15117 -17 9.37383
    endloop
  endfacet
  facet normal -0.595698 -2.37798e-16 -0.803209
    outer loop
      vertex -4.55274 -11 9.70339
      vertex -4.34386 -11 9.54848
      vertex -4.55274 -17 9.70339
    endloop
  endfacet
  facet normal -0.595698 -2.36869e-16 -0.803209
    outer loop
      vertex -4.55274 -17 9.70339
      vertex -4.34386 -11 9.54848
      vertex -4.34386 -17 9.54848
    endloop
  endfacet
  facet normal -0.514103 -2.53939e-16 -0.857729
    outer loop
      vertex -4.7758 -11 9.83709
      vertex -4.55274 -11 9.70339
      vertex -4.7758 -17 9.83709
    endloop
  endfacet
  facet normal -0.514103 -2.52947e-16 -0.857729
    outer loop
      vertex -4.7758 -17 9.83709
      vertex -4.55274 -11 9.70339
      vertex -4.55274 -17 9.70339
    endloop
  endfacet
  facet normal -0.427557 -2.67634e-16 -0.903988
    outer loop
      vertex -5.01089 -11 9.94828
      vertex -4.7758 -11 9.83709
      vertex -5.01089 -17 9.94828
    endloop
  endfacet
  facet normal -0.427557 -2.66589e-16 -0.903988
    outer loop
      vertex -5.01089 -17 9.94828
      vertex -4.7758 -11 9.83709
      vertex -4.7758 -17 9.83709
    endloop
  endfacet
  facet normal -0.336889 0 -0.941544
    outer loop
      vertex -5.25575 -11 10.0359
      vertex -5.01089 -11 9.94828
      vertex -5.25575 -17 10.0359
    endloop
  endfacet
  facet normal -0.336889 -2.77663e-16 -0.941544
    outer loop
      vertex -5.25575 -17 10.0359
      vertex -5.01089 -11 9.94828
      vertex -5.01089 -17 9.94828
    endloop
  endfacet
  facet normal -0.24298 -2.87187e-16 -0.970031
    outer loop
      vertex -5.50801 -11 10.0991
      vertex -5.25575 -11 10.0359
      vertex -5.50801 -17 10.0991
    endloop
  endfacet
  facet normal -0.24298 0 -0.970031
    outer loop
      vertex -5.50801 -17 10.0991
      vertex -5.25575 -11 10.0359
      vertex -5.25575 -17 10.0359
    endloop
  endfacet
  facet normal -0.146732 0 -0.989176
    outer loop
      vertex -5.76525 -11 10.1372
      vertex -5.50801 -11 10.0991
      vertex -5.76525 -17 10.1372
    endloop
  endfacet
  facet normal -0.146732 -2.93427e-16 -0.989176
    outer loop
      vertex -5.76525 -17 10.1372
      vertex -5.50801 -11 10.0991
      vertex -5.50801 -17 10.0991
    endloop
  endfacet
  facet normal -0.0490659 0 -0.998796
    outer loop
      vertex -6.025 -11 10.15
      vertex -5.76525 -11 10.1372
      vertex -6.025 -17 10.15
    endloop
  endfacet
  facet normal -0.0490659 0 -0.998796
    outer loop
      vertex -6.025 -17 10.15
      vertex -5.76525 -11 10.1372
      vertex -5.76525 -17 10.1372
    endloop
  endfacet
  facet normal 0.0490659 0 -0.998796
    outer loop
      vertex -6.28475 -11 10.1372
      vertex -6.025 -11 10.15
      vertex -6.28475 -17 10.1372
    endloop
  endfacet
  facet normal 0.0490659 0 -0.998796
    outer loop
      vertex -6.28475 -17 10.1372
      vertex -6.025 -11 10.15
      vertex -6.025 -17 10.15
    endloop
  endfacet
  facet normal 0.146732 -2.92855e-16 -0.989176
    outer loop
      vertex -6.54199 -11 10.0991
      vertex -6.28475 -11 10.1372
      vertex -6.54199 -17 10.0991
    endloop
  endfacet
  facet normal 0.146732 0 -0.989176
    outer loop
      vertex -6.54199 -17 10.0991
      vertex -6.28475 -11 10.1372
      vertex -6.28475 -17 10.1372
    endloop
  endfacet
  facet normal 0.24298 0 -0.970031
    outer loop
      vertex -6.79425 -11 10.0359
      vertex -6.54199 -11 10.0991
      vertex -6.79425 -17 10.0359
    endloop
  endfacet
  facet normal 0.24298 -2.87748e-16 -0.970031
    outer loop
      vertex -6.79425 -17 10.0359
      vertex -6.54199 -11 10.0991
      vertex -6.54199 -17 10.0991
    endloop
  endfacet
  facet normal 0.336889 -2.78753e-16 -0.941544
    outer loop
      vertex -7.03911 -11 9.94828
      vertex -6.79425 -11 10.0359
      vertex -7.03911 -17 9.94828
    endloop
  endfacet
  facet normal 0.336889 0 -0.941544
    outer loop
      vertex -7.03911 -17 9.94828
      vertex -6.79425 -11 10.0359
      vertex -6.79425 -17 10.0359
    endloop
  endfacet
  facet normal 0.427557 -2.67634e-16 -0.903988
    outer loop
      vertex -7.2742 -11 9.83709
      vertex -7.03911 -11 9.94828
      vertex -7.2742 -17 9.83709
    endloop
  endfacet
  facet normal 0.427557 -2.69726e-16 -0.903988
    outer loop
      vertex -7.2742 -17 9.83709
      vertex -7.03911 -11 9.94828
      vertex -7.03911 -17 9.94828
    endloop
  endfacet
  facet normal 0.514103 -2.53939e-16 -0.857729
    outer loop
      vertex -7.49726 -11 9.70339
      vertex -7.2742 -11 9.83709
      vertex -7.49726 -17 9.70339
    endloop
  endfacet
  facet normal 0.514103 -2.55922e-16 -0.857729
    outer loop
      vertex -7.49726 -17 9.70339
      vertex -7.2742 -11 9.83709
      vertex -7.2742 -17 9.83709
    endloop
  endfacet
  facet normal 0.595698 -2.37798e-16 -0.803209
    outer loop
      vertex -7.70614 -11 9.54848
      vertex -7.49726 -11 9.70339
      vertex -7.70614 -17 9.54848
    endloop
  endfacet
  facet normal 0.595698 -2.39655e-16 -0.803209
    outer loop
      vertex -7.70614 -17 9.54848
      vertex -7.49726 -11 9.70339
      vertex -7.49726 -17 9.70339
    endloop
  endfacet
  facet normal 0.671559 -2.19366e-16 -0.740951
    outer loop
      vertex -7.89883 -11 9.37383
      vertex -7.70614 -11 9.54848
      vertex -7.89883 -17 9.37383
    endloop
  endfacet
  facet normal 0.671559 -2.21079e-16 -0.740951
    outer loop
      vertex -7.89883 -17 9.37383
      vertex -7.70614 -11 9.54848
      vertex -7.70614 -17 9.54848
    endloop
  endfacet
  facet normal 0.740951 -1.98821e-16 -0.671559
    outer loop
      vertex -8.07348 -17 9.18114
      vertex -8.07348 -11 9.18114
      vertex -7.89883 -11 9.37383
    endloop
  endfacet
  facet normal 0.740951 -1.98821e-16 -0.671559
    outer loop
      vertex -7.89883 -17 9.37383
      vertex -8.07348 -17 9.18114
      vertex -7.89883 -11 9.37383
    endloop
  endfacet
  facet normal 0.803209 -1.76362e-16 -0.595698
    outer loop
      vertex -8.22839 -17 8.97226
      vertex -8.22839 -11 8.97226
      vertex -8.07348 -11 9.18114
    endloop
  endfacet
  facet normal 0.803209 -1.76362e-16 -0.595698
    outer loop
      vertex -8.07348 -17 9.18114
      vertex -8.22839 -17 8.97226
      vertex -8.07348 -11 9.18114
    endloop
  endfacet
  facet normal 0.857729 -1.52205e-16 -0.514103
    outer loop
      vertex -8.36209 -17 8.7492
      vertex -8.36209 -11 8.7492
      vertex -8.22839 -11 8.97226
    endloop
  endfacet
  facet normal 0.857729 -1.52205e-16 -0.514103
    outer loop
      vertex -8.22839 -17 8.97226
      vertex -8.36209 -17 8.7492
      vertex -8.22839 -11 8.97226
    endloop
  endfacet
  facet normal 0.903988 -1.26582e-16 -0.427557
    outer loop
      vertex -8.47328 -17 8.51411
      vertex -8.47328 -11 8.51411
      vertex -8.36209 -11 8.7492
    endloop
  endfacet
  facet normal 0.903988 -1.26582e-16 -0.427557
    outer loop
      vertex -8.36209 -17 8.7492
      vertex -8.47328 -17 8.51411
      vertex -8.36209 -11 8.7492
    endloop
  endfacet
  facet normal 0.941544 -9.97392e-17 -0.336889
    outer loop
      vertex -8.56089 -17 8.26925
      vertex -8.56089 -11 8.26925
      vertex -8.47328 -11 8.51411
    endloop
  endfacet
  facet normal 0.941544 -9.97392e-17 -0.336889
    outer loop
      vertex -8.47328 -17 8.51411
      vertex -8.56089 -17 8.26925
      vertex -8.47328 -11 8.51411
    endloop
  endfacet
  facet normal 0.970031 0 -0.24298
    outer loop
      vertex -8.62408 -17 8.01699
      vertex -8.62408 -11 8.01699
      vertex -8.56089 -11 8.26925
    endloop
  endfacet
  facet normal 0.970031 -7.19365e-17 -0.24298
    outer loop
      vertex -8.56089 -17 8.26925
      vertex -8.62408 -17 8.01699
      vertex -8.56089 -11 8.26925
    endloop
  endfacet
  facet normal 0.989176 -2.17207e-17 -0.146732
    outer loop
      vertex -8.66224 -17 7.75975
      vertex -8.66224 -11 7.75975
      vertex -8.62408 -11 8.01699
    endloop
  endfacet
  facet normal 0.989176 0 -0.146732
    outer loop
      vertex -8.62408 -17 8.01699
      vertex -8.66224 -17 7.75975
      vertex -8.62408 -11 8.01699
    endloop
  endfacet
  facet normal 0.707107 4.18691e-16 0.707107
    outer loop
      vertex -16.1005 -17 14.0001
      vertex -16.1004 -17 14
      vertex -16.1004 -11 14
    endloop
  endfacet
  facet normal 0.707107 2.09346e-16 0.707107
    outer loop
      vertex -16.1005 -11 14.0001
      vertex -16.1005 -17 14.0001
      vertex -16.1004 -11 14
    endloop
  endfacet
  facet normal -0.707107 -1.04673e-16 -0.707107
    outer loop
      vertex -26.0001 -11 4.10048
      vertex -21.8995 -11 -5.04419e-05
      vertex -26.0001 -17 4.10048
    endloop
  endfacet
  facet normal -0.707107 -7.84963e-17 -0.707107
    outer loop
      vertex -26.0001 -17 4.10048
      vertex -21.8995 -11 -5.04419e-05
      vertex -21.8995 -17 -5.04419e-05
    endloop
  endfacet
  facet normal -1 2.26999e-23 7.66733e-08
    outer loop
      vertex -26.0001 -17 9.89952
      vertex -26.0001 -11 9.89952
      vertex -26.0001 -17 4.10048
    endloop
  endfacet
  facet normal -1 1.13499e-23 7.66733e-08
    outer loop
      vertex -26.0001 -17 4.10048
      vertex -26.0001 -11 9.89952
      vertex -26.0001 -11 4.10048
    endloop
  endfacet
  facet normal -7.66733e-08 -2.22045e-16 -1
    outer loop
      vertex -21.8995 -11 -5.04419e-05
      vertex -16.1005 -11 -5.08866e-05
      vertex -21.8995 -17 -5.04419e-05
    endloop
  endfacet
  facet normal -7.66733e-08 -2.22045e-16 -1
    outer loop
      vertex -21.8995 -17 -5.04419e-05
      vertex -16.1005 -11 -5.08866e-05
      vertex -16.1005 -17 -5.08866e-05
    endloop
  endfacet
  facet normal 7.66733e-08 2.96059e-16 1
    outer loop
      vertex -21.8995 -17 14.0001
      vertex -16.1005 -17 14.0001
      vertex -16.1005 -11 14.0001
    endloop
  endfacet
  facet normal 7.66733e-08 -0 1
    outer loop
      vertex -21.8995 -11 14.0001
      vertex -21.8995 -17 14.0001
      vertex -16.1005 -11 14.0001
    endloop
  endfacet
  facet normal -0.707107 0 0.707107
    outer loop
      vertex -21.8995 -17 14.0001
      vertex -21.8995 -11 14.0001
      vertex -26.0001 -17 9.89952
    endloop
  endfacet
  facet normal -0.707107 2.09346e-16 0.707107
    outer loop
      vertex -26.0001 -17 9.89952
      vertex -21.8995 -11 14.0001
      vertex -26.0001 -11 9.89952
    endloop
  endfacet
  facet normal 0.707106 -2.09346e-16 -0.707107
    outer loop
      vertex -25.175 -11 8.18346
      vertex -24.2085 -11 9.15001
      vertex -25.175 -17 8.18346
    endloop
  endfacet
  facet normal 0.707106 0 -0.707107
    outer loop
      vertex -25.175 -17 8.18346
      vertex -24.2085 -11 9.15001
      vertex -24.2085 -17 9.15001
    endloop
  endfacet
  facet normal 1 5.6633e-23 4.08078e-07
    outer loop
      vertex -25.175 -17 8.18346
      vertex -25.175 -17 6.81654
      vertex -25.175 -11 6.81654
    endloop
  endfacet
  facet normal 1 1.20815e-22 4.08078e-07
    outer loop
      vertex -25.175 -11 8.18346
      vertex -25.175 -17 8.18346
      vertex -25.175 -11 6.81654
    endloop
  endfacet
  facet normal 4.08078e-07 0 -1
    outer loop
      vertex -24.2085 -11 9.15001
      vertex -22.8415 -11 9.15001
      vertex -24.2085 -17 9.15001
    endloop
  endfacet
  facet normal 4.08078e-07 0 -1
    outer loop
      vertex -24.2085 -17 9.15001
      vertex -22.8415 -11 9.15001
      vertex -22.8415 -17 9.15001
    endloop
  endfacet
  facet normal -0.707107 0 -0.707106
    outer loop
      vertex -22.8415 -11 9.15001
      vertex -21.875 -11 8.18346
      vertex -22.8415 -17 9.15001
    endloop
  endfacet
  facet normal -0.707107 0 -0.707106
    outer loop
      vertex -22.8415 -17 9.15001
      vertex -21.875 -11 8.18346
      vertex -21.875 -17 8.18346
    endloop
  endfacet
  facet normal -1 0 -4.08078e-07
    outer loop
      vertex -21.875 -11 8.18346
      vertex -21.875 -11 6.81654
      vertex -21.875 -17 8.18346
    endloop
  endfacet
  facet normal -1 -1.24591e-22 -4.08078e-07
    outer loop
      vertex -21.875 -17 8.18346
      vertex -21.875 -11 6.81654
      vertex -21.875 -17 6.81654
    endloop
  endfacet
  facet normal -0.707106 2.15882e-16 0.707107
    outer loop
      vertex -22.8415 -17 5.84999
      vertex -21.875 -17 6.81654
      vertex -21.875 -11 6.81654
    endloop
  endfacet
  facet normal -0.707106 1.04673e-16 0.707107
    outer loop
      vertex -22.8415 -11 5.84999
      vertex -22.8415 -17 5.84999
      vertex -21.875 -11 6.81654
    endloop
  endfacet
  facet normal -4.08078e-07 1.4803e-16 1
    outer loop
      vertex -24.2085 -17 5.84999
      vertex -22.8415 -17 5.84999
      vertex -22.8415 -11 5.84999
    endloop
  endfacet
  facet normal -4.08078e-07 1.4803e-16 1
    outer loop
      vertex -24.2085 -11 5.84999
      vertex -24.2085 -17 5.84999
      vertex -22.8415 -11 5.84999
    endloop
  endfacet
  facet normal 0.707107 9.81331e-17 0.707106
    outer loop
      vertex -25.175 -17 6.81654
      vertex -24.2085 -17 5.84999
      vertex -24.2085 -11 5.84999
    endloop
  endfacet
  facet normal 0.707107 1.04673e-16 0.707106
    outer loop
      vertex -25.175 -11 6.81654
      vertex -25.175 -17 6.81654
      vertex -24.2085 -11 5.84999
    endloop
  endfacet
endsolid OpenSCAD_Model
