solid OpenSCAD_Model
  facet normal -1.000000 -0.000000 -0.000000
    outer loop
      vertex -21.000000 -18.500000 0.000000
      vertex -21.000000 -18.500000 2.000000
      vertex -21.000000 18.500000 0.000000
    endloop
  endfacet
  facet normal -1.000000 0.000000 0.000000
    outer loop
      vertex -21.000000 18.500000 0.000000
      vertex -21.000000 -18.500000 2.000000
      vertex -21.000000 18.500000 2.000000
    endloop
  endfacet
  facet normal -0.707107 -0.707107 0.000000
    outer loop
      vertex -18.500000 -21.000000 2.000000
      vertex -21.000000 -18.500000 2.000000
      vertex -18.500000 -21.000000 0.000000
    endloop
  endfacet
  facet normal -0.707107 -0.707107 0.000000
    outer loop
      vertex -18.500000 -21.000000 0.000000
      vertex -21.000000 -18.500000 2.000000
      vertex -21.000000 -18.500000 0.000000
    endloop
  endfacet
  facet normal -0.000000 -0.000000 -1.000000
    outer loop
      vertex -21.000000 -18.500000 0.000000
      vertex -21.000000 18.500000 0.000000
      vertex -18.500000 -21.000000 0.000000
    endloop
  endfacet
  facet normal 0.000000 -0.000000 -1.000000
    outer loop
      vertex -18.500000 -21.000000 0.000000
      vertex -21.000000 18.500000 0.000000
      vertex -18.500000 21.000000 0.000000
    endloop
  endfacet
  facet normal 0.000000 -0.000000 -1.000000
    outer loop
      vertex -14.868629 17.131371 0.000000
      vertex -18.500000 21.000000 0.000000
      vertex 18.500000 21.000000 0.000000
    endloop
  endfacet
  facet normal 0.000000 0.000000 -1.000000
    outer loop
      vertex 17.131371 17.131371 0.000000
      vertex 18.500000 21.000000 0.000000
      vertex 21.000000 18.500000 0.000000
    endloop
  endfacet
  facet normal -0.000000 0.000000 -1.000000
    outer loop
      vertex 10.231709 -4.555450 0.000000
      vertex 21.000000 18.500000 0.000000
      vertex 21.000000 -18.500000 0.000000
    endloop
  endfacet
  facet normal -0.000000 0.000000 -1.000000
    outer loop
      vertex -18.500000 -21.000000 0.000000
      vertex 21.000000 -18.500000 0.000000
      vertex 18.500000 -21.000000 0.000000
    endloop
  endfacet
  facet normal 0.000000 0.000000 -1.000000
    outer loop
      vertex -18.500000 -21.000000 0.000000
      vertex -18.500000 21.000000 0.000000
      vertex -17.545482 -15.585889 0.000000
    endloop
  endfacet
  facet normal 0.000000 0.000000 -1.000000
    outer loop
      vertex -18.500000 -21.000000 0.000000
      vertex -17.545482 -15.585889 0.000000
      vertex -17.545482 -16.414111 0.000000
    endloop
  endfacet
  facet normal 0.000000 0.000000 -1.000000
    outer loop
      vertex -18.500000 -21.000000 0.000000
      vertex -17.545482 -16.414111 0.000000
      vertex -17.131371 -17.131371 0.000000
    endloop
  endfacet
  facet normal 0.000000 0.000000 -1.000000
    outer loop
      vertex -7.494263 -8.323222 0.000000
      vertex -15.585889 -14.454518 0.000000
      vertex -16.414111 -14.454518 0.000000
    endloop
  endfacet
  facet normal 0.000000 0.000000 -1.000000
    outer loop
      vertex -18.500000 -21.000000 0.000000
      vertex -17.131371 -17.131371 0.000000
      vertex -16.414111 -17.545482 0.000000
    endloop
  endfacet
  facet normal 0.000000 0.000000 -1.000000
    outer loop
      vertex -18.500000 -21.000000 0.000000
      vertex -16.414111 -17.545482 0.000000
      vertex -15.585889 -17.545482 0.000000
    endloop
  endfacet
  facet normal 0.000000 0.000000 -1.000000
    outer loop
      vertex -5.600000 -9.699485 0.000000
      vertex -18.500000 -21.000000 0.000000
      vertex -14.868629 -17.131371 0.000000
    endloop
  endfacet
  facet normal 0.000000 0.000000 -1.000000
    outer loop
      vertex -5.600000 -9.699485 0.000000
      vertex -14.454518 -16.414111 0.000000
      vertex -7.494263 -8.323222 0.000000
    endloop
  endfacet
  facet normal 0.000000 -0.000000 -1.000000
    outer loop
      vertex -17.545482 -15.585889 0.000000
      vertex -18.500000 21.000000 0.000000
      vertex -17.131371 -14.868629 0.000000
    endloop
  endfacet
  facet normal 0.000000 0.000000 -1.000000
    outer loop
      vertex -17.131371 14.868629 0.000000
      vertex -17.131371 -14.868629 0.000000
      vertex -17.545482 15.585889 0.000000
    endloop
  endfacet
  facet normal 0.000000 0.000000 -1.000000
    outer loop
      vertex -17.545482 15.585889 0.000000
      vertex -18.500000 21.000000 0.000000
      vertex -17.545482 16.414111 0.000000
    endloop
  endfacet
  facet normal 0.000000 0.000000 -1.000000
    outer loop
      vertex -7.494263 -8.323222 0.000000
      vertex -14.868629 -14.868629 0.000000
      vertex -15.585889 -14.454518 0.000000
    endloop
  endfacet
  facet normal 0.000000 0.000000 -1.000000
    outer loop
      vertex -17.131371 -14.868629 0.000000
      vertex -18.500000 21.000000 0.000000
      vertex -17.545482 15.585889 0.000000
    endloop
  endfacet
  facet normal -0.000000 0.000000 -1.000000
    outer loop
      vertex -14.868629 14.868629 0.000000
      vertex 18.500000 21.000000 0.000000
      vertex -15.585889 14.454518 0.000000
    endloop
  endfacet
  facet normal 0.000000 0.000000 -1.000000
    outer loop
      vertex -17.131371 -14.868629 0.000000
      vertex -17.131371 14.868629 0.000000
      vertex -16.414111 14.454518 0.000000
    endloop
  endfacet
  facet normal 0.000000 0.000000 -1.000000
    outer loop
      vertex -17.131371 -14.868629 0.000000
      vertex -16.414111 14.454518 0.000000
      vertex -15.585889 14.454518 0.000000
    endloop
  endfacet
  facet normal 0.000000 -0.000000 -1.000000
    outer loop
      vertex 1.170719 11.138645 0.000000
      vertex -15.585889 14.454518 0.000000
      vertex 18.500000 21.000000 0.000000
    endloop
  endfacet
  facet normal -0.000000 0.000000 -1.000000
    outer loop
      vertex -14.454518 15.585889 0.000000
      vertex 18.500000 21.000000 0.000000
      vertex -14.868629 14.868629 0.000000
    endloop
  endfacet
  facet normal -0.000000 0.000000 -1.000000
    outer loop
      vertex -14.868629 17.131371 0.000000
      vertex 18.500000 21.000000 0.000000
      vertex -14.454518 16.414111 0.000000
    endloop
  endfacet
  facet normal 0.000000 -0.000000 -1.000000
    outer loop
      vertex -14.454518 15.585889 0.000000
      vertex -14.454518 16.414111 0.000000
      vertex 18.500000 21.000000 0.000000
    endloop
  endfacet
  facet normal -0.000000 -0.000000 -1.000000
    outer loop
      vertex -15.585889 17.545482 0.000000
      vertex -18.500000 21.000000 0.000000
      vertex -14.868629 17.131371 0.000000
    endloop
  endfacet
  facet normal 0.000000 0.000000 -1.000000
    outer loop
      vertex -7.494263 -8.323222 0.000000
      vertex -14.454518 -15.585889 0.000000
      vertex -14.868629 -14.868629 0.000000
    endloop
  endfacet
  facet normal -0.000000 -0.000000 -1.000000
    outer loop
      vertex -16.414111 17.545482 0.000000
      vertex -18.500000 21.000000 0.000000
      vertex -15.585889 17.545482 0.000000
    endloop
  endfacet
  facet normal 0.000000 -0.000000 -1.000000
    outer loop
      vertex -17.131371 17.131371 0.000000
      vertex -18.500000 21.000000 0.000000
      vertex -16.414111 17.545482 0.000000
    endloop
  endfacet
  facet normal 0.000000 -0.000000 -1.000000
    outer loop
      vertex -17.545482 16.414111 0.000000
      vertex -18.500000 21.000000 0.000000
      vertex -17.131371 17.131371 0.000000
    endloop
  endfacet
  facet normal 0.000000 0.000000 -1.000000
    outer loop
      vertex -17.131371 -14.868629 0.000000
      vertex -15.585889 14.454518 0.000000
      vertex -11.200000 0.000000 0.000000
    endloop
  endfacet
  facet normal 0.000000 0.000000 -1.000000
    outer loop
      vertex -17.131371 -14.868629 0.000000
      vertex -11.200000 0.000000 0.000000
      vertex -10.955253 -2.328611 0.000000
    endloop
  endfacet
  facet normal 0.000000 0.000000 -1.000000
    outer loop
      vertex 17.545482 -15.585889 0.000000
      vertex 21.000000 -18.500000 0.000000
      vertex 17.545482 -16.414111 0.000000
    endloop
  endfacet
  facet normal 0.000000 0.000000 -1.000000
    outer loop
      vertex -17.131371 -14.868629 0.000000
      vertex -10.955253 -2.328611 0.000000
      vertex -10.231709 -4.555450 0.000000
    endloop
  endfacet
  facet normal 0.000000 0.000000 -1.000000
    outer loop
      vertex -17.131371 -14.868629 0.000000
      vertex -10.231709 -4.555450 0.000000
      vertex -9.060990 -6.583195 0.000000
    endloop
  endfacet
  facet normal 0.000000 0.000000 -1.000000
    outer loop
      vertex 5.600000 9.699485 0.000000
      vertex 14.868629 17.131371 0.000000
      vertex 14.454518 16.414111 0.000000
    endloop
  endfacet
  facet normal 0.000000 0.000000 -1.000000
    outer loop
      vertex -5.600000 -9.699485 0.000000
      vertex -14.868629 -17.131371 0.000000
      vertex -14.454518 -16.414111 0.000000
    endloop
  endfacet
  facet normal 0.000000 0.000000 -1.000000
    outer loop
      vertex -18.500000 -21.000000 0.000000
      vertex -5.600000 -9.699485 0.000000
      vertex -3.460990 -10.651833 0.000000
    endloop
  endfacet
  facet normal 0.000000 0.000000 -1.000000
    outer loop
      vertex 17.131371 -17.131371 0.000000
      vertex 21.000000 -18.500000 0.000000
      vertex 16.414111 -17.545482 0.000000
    endloop
  endfacet
  facet normal -0.000000 0.000000 -1.000000
    outer loop
      vertex 9.060990 6.583195 0.000000
      vertex 21.000000 18.500000 0.000000
      vertex 10.231709 4.555450 0.000000
    endloop
  endfacet
  facet normal -0.000000 0.000000 -1.000000
    outer loop
      vertex 10.955253 -2.328611 0.000000
      vertex 21.000000 18.500000 0.000000
      vertex 10.231709 -4.555450 0.000000
    endloop
  endfacet
  facet normal -0.000000 0.000000 -1.000000
    outer loop
      vertex 10.231709 4.555450 0.000000
      vertex 21.000000 18.500000 0.000000
      vertex 10.955253 2.328611 0.000000
    endloop
  endfacet
  facet normal 0.000000 0.000000 -1.000000
    outer loop
      vertex 14.454518 -16.414111 0.000000
      vertex -3.460990 -10.651833 0.000000
      vertex -1.170719 -11.138645 0.000000
    endloop
  endfacet
  facet normal 0.000000 0.000000 -1.000000
    outer loop
      vertex 14.454518 -16.414111 0.000000
      vertex -1.170719 -11.138645 0.000000
      vertex 1.170719 -11.138645 0.000000
    endloop
  endfacet
  facet normal -0.000000 0.000000 -1.000000
    outer loop
      vertex 10.955253 2.328611 0.000000
      vertex 21.000000 18.500000 0.000000
      vertex 11.200000 0.000000 0.000000
    endloop
  endfacet
  facet normal -0.000000 0.000000 -1.000000
    outer loop
      vertex 11.200000 0.000000 0.000000
      vertex 21.000000 18.500000 0.000000
      vertex 10.955253 -2.328611 0.000000
    endloop
  endfacet
  facet normal -0.000000 -0.000000 -1.000000
    outer loop
      vertex 17.131371 -14.868629 0.000000
      vertex 9.060990 -6.583195 0.000000
      vertex 21.000000 -18.500000 0.000000
    endloop
  endfacet
  facet normal -0.000000 0.000000 -1.000000
    outer loop
      vertex 9.060990 -6.583195 0.000000
      vertex 10.231709 -4.555450 0.000000
      vertex 21.000000 -18.500000 0.000000
    endloop
  endfacet
  facet normal -0.000000 0.000000 -1.000000
    outer loop
      vertex 7.494263 8.323222 0.000000
      vertex 17.131371 14.868629 0.000000
      vertex 9.060990 6.583195 0.000000
    endloop
  endfacet
  facet normal -0.000000 0.000000 -1.000000
    outer loop
      vertex 17.131371 14.868629 0.000000
      vertex 21.000000 18.500000 0.000000
      vertex 9.060990 6.583195 0.000000
    endloop
  endfacet
  facet normal -0.000000 0.000000 -1.000000
    outer loop
      vertex 3.460990 10.651833 0.000000
      vertex 18.500000 21.000000 0.000000
      vertex 5.600000 9.699485 0.000000
    endloop
  endfacet
  facet normal 0.000000 0.000000 -1.000000
    outer loop
      vertex 14.454518 -15.585889 0.000000
      vertex 3.460990 -10.651833 0.000000
      vertex 5.600000 -9.699485 0.000000
    endloop
  endfacet
  facet normal -0.000000 -0.000000 -1.000000
    outer loop
      vertex -1.170719 11.138645 0.000000
      vertex -15.585889 14.454518 0.000000
      vertex 1.170719 11.138645 0.000000
    endloop
  endfacet
  facet normal 0.000000 -0.000000 -1.000000
    outer loop
      vertex 14.454518 -15.585889 0.000000
      vertex 5.600000 -9.699485 0.000000
      vertex 14.868629 -14.868629 0.000000
    endloop
  endfacet
  facet normal 0.000000 -0.000000 -1.000000
    outer loop
      vertex 3.460990 10.651833 0.000000
      vertex 1.170719 11.138645 0.000000
      vertex 18.500000 21.000000 0.000000
    endloop
  endfacet
  facet normal 0.000000 -0.000000 -1.000000
    outer loop
      vertex -3.460990 10.651833 0.000000
      vertex -15.585889 14.454518 0.000000
      vertex -1.170719 11.138645 0.000000
    endloop
  endfacet
  facet normal 0.000000 -0.000000 -1.000000
    outer loop
      vertex -5.600000 9.699485 0.000000
      vertex -15.585889 14.454518 0.000000
      vertex -3.460990 10.651833 0.000000
    endloop
  endfacet
  facet normal 0.000000 -0.000000 -1.000000
    outer loop
      vertex -7.494263 8.323222 0.000000
      vertex -15.585889 14.454518 0.000000
      vertex -5.600000 9.699485 0.000000
    endloop
  endfacet
  facet normal 0.000000 -0.000000 -1.000000
    outer loop
      vertex -9.060990 6.583195 0.000000
      vertex -15.585889 14.454518 0.000000
      vertex -7.494263 8.323222 0.000000
    endloop
  endfacet
  facet normal 0.000000 -0.000000 -1.000000
    outer loop
      vertex -10.231709 4.555450 0.000000
      vertex -15.585889 14.454518 0.000000
      vertex -9.060990 6.583195 0.000000
    endloop
  endfacet
  facet normal 0.000000 -0.000000 -1.000000
    outer loop
      vertex -10.955253 2.328611 0.000000
      vertex -15.585889 14.454518 0.000000
      vertex -10.231709 4.555450 0.000000
    endloop
  endfacet
  facet normal 0.000000 -0.000000 -1.000000
    outer loop
      vertex -11.200000 0.000000 0.000000
      vertex -15.585889 14.454518 0.000000
      vertex -10.955253 2.328611 0.000000
    endloop
  endfacet
  facet normal -0.000000 0.000000 -1.000000
    outer loop
      vertex 1.170719 -11.138645 0.000000
      vertex 3.460990 -10.651833 0.000000
      vertex 14.454518 -15.585889 0.000000
    endloop
  endfacet
  facet normal 0.000000 0.000000 -1.000000
    outer loop
      vertex -18.500000 -21.000000 0.000000
      vertex -3.460990 -10.651833 0.000000
      vertex 14.454518 -16.414111 0.000000
    endloop
  endfacet
  facet normal 0.000000 0.000000 -1.000000
    outer loop
      vertex -18.500000 -21.000000 0.000000
      vertex 14.454518 -16.414111 0.000000
      vertex 14.868629 -17.131371 0.000000
    endloop
  endfacet
  facet normal 0.000000 0.000000 -1.000000
    outer loop
      vertex -18.500000 -21.000000 0.000000
      vertex 14.868629 -17.131371 0.000000
      vertex 15.585889 -17.545482 0.000000
    endloop
  endfacet
  facet normal 0.000000 0.000000 -1.000000
    outer loop
      vertex -18.500000 -21.000000 0.000000
      vertex 15.585889 -17.545482 0.000000
      vertex 21.000000 -18.500000 0.000000
    endloop
  endfacet
  facet normal 0.000000 0.000000 -1.000000
    outer loop
      vertex 15.585889 -17.545482 0.000000
      vertex 16.414111 -17.545482 0.000000
      vertex 21.000000 -18.500000 0.000000
    endloop
  endfacet
  facet normal 0.000000 0.000000 -1.000000
    outer loop
      vertex 14.454518 15.585889 0.000000
      vertex 7.494263 8.323222 0.000000
      vertex 14.454518 16.414111 0.000000
    endloop
  endfacet
  facet normal 0.000000 0.000000 -1.000000
    outer loop
      vertex 14.454518 -16.414111 0.000000
      vertex 1.170719 -11.138645 0.000000
      vertex 14.454518 -15.585889 0.000000
    endloop
  endfacet
  facet normal -0.000000 -0.000000 -1.000000
    outer loop
      vertex 15.585889 -14.454518 0.000000
      vertex 7.494263 -8.323222 0.000000
      vertex 16.414111 -14.454518 0.000000
    endloop
  endfacet
  facet normal -0.000000 -0.000000 -1.000000
    outer loop
      vertex 16.414111 -14.454518 0.000000
      vertex 9.060990 -6.583195 0.000000
      vertex 17.131371 -14.868629 0.000000
    endloop
  endfacet
  facet normal -0.000000 -0.000000 -1.000000
    outer loop
      vertex 17.545482 -15.585889 0.000000
      vertex 17.131371 -14.868629 0.000000
      vertex 21.000000 -18.500000 0.000000
    endloop
  endfacet
  facet normal -0.000000 0.000000 -1.000000
    outer loop
      vertex 7.494263 -8.323222 0.000000
      vertex 9.060990 -6.583195 0.000000
      vertex 16.414111 -14.454518 0.000000
    endloop
  endfacet
  facet normal -0.000000 0.000000 -1.000000
    outer loop
      vertex 5.600000 -9.699485 0.000000
      vertex 7.494263 -8.323222 0.000000
      vertex 14.868629 -14.868629 0.000000
    endloop
  endfacet
  facet normal -0.000000 0.000000 -1.000000
    outer loop
      vertex -14.454518 -15.585889 0.000000
      vertex -7.494263 -8.323222 0.000000
      vertex -14.454518 -16.414111 0.000000
    endloop
  endfacet
  facet normal 0.000000 0.000000 -1.000000
    outer loop
      vertex 14.868629 17.131371 0.000000
      vertex 18.500000 21.000000 0.000000
      vertex 15.585889 17.545482 0.000000
    endloop
  endfacet
  facet normal 0.000000 0.000000 -1.000000
    outer loop
      vertex 7.494263 8.323222 0.000000
      vertex 14.454518 15.585889 0.000000
      vertex 14.868629 14.868629 0.000000
    endloop
  endfacet
  facet normal 0.000000 0.000000 -1.000000
    outer loop
      vertex 7.494263 8.323222 0.000000
      vertex 14.868629 14.868629 0.000000
      vertex 15.585889 14.454518 0.000000
    endloop
  endfacet
  facet normal -0.000000 0.000000 -1.000000
    outer loop
      vertex 17.545482 15.585889 0.000000
      vertex 21.000000 18.500000 0.000000
      vertex 17.131371 14.868629 0.000000
    endloop
  endfacet
  facet normal -0.000000 0.000000 -1.000000
    outer loop
      vertex 17.545482 16.414111 0.000000
      vertex 21.000000 18.500000 0.000000
      vertex 17.545482 15.585889 0.000000
    endloop
  endfacet
  facet normal -0.000000 0.000000 -1.000000
    outer loop
      vertex 17.131371 17.131371 0.000000
      vertex 21.000000 18.500000 0.000000
      vertex 17.545482 16.414111 0.000000
    endloop
  endfacet
  facet normal -0.000000 0.000000 -1.000000
    outer loop
      vertex 16.414111 17.545482 0.000000
      vertex 18.500000 21.000000 0.000000
      vertex 17.131371 17.131371 0.000000
    endloop
  endfacet
  facet normal -0.000000 0.000000 -1.000000
    outer loop
      vertex 15.585889 17.545482 0.000000
      vertex 18.500000 21.000000 0.000000
      vertex 16.414111 17.545482 0.000000
    endloop
  endfacet
  facet normal 0.000000 0.000000 -1.000000
    outer loop
      vertex 16.414111 14.454518 0.000000
      vertex 7.494263 8.323222 0.000000
      vertex 15.585889 14.454518 0.000000
    endloop
  endfacet
  facet normal 0.000000 0.000000 -1.000000
    outer loop
      vertex 5.600000 9.699485 0.000000
      vertex 18.500000 21.000000 0.000000
      vertex 14.868629 17.131371 0.000000
    endloop
  endfacet
  facet normal 0.000000 0.000000 -1.000000
    outer loop
      vertex -14.868629 -17.131371 0.000000
      vertex -18.500000 -21.000000 0.000000
      vertex -15.585889 -17.545482 0.000000
    endloop
  endfacet
  facet normal 0.000000 0.000000 -1.000000
    outer loop
      vertex -7.494263 -8.323222 0.000000
      vertex -16.414111 -14.454518 0.000000
      vertex -17.131371 -14.868629 0.000000
    endloop
  endfacet
  facet normal 0.000000 0.000000 -1.000000
    outer loop
      vertex -7.494263 -8.323222 0.000000
      vertex -17.131371 -14.868629 0.000000
      vertex -9.060990 -6.583195 0.000000
    endloop
  endfacet
  facet normal 0.000000 0.000000 -1.000000
    outer loop
      vertex 17.545482 -16.414111 0.000000
      vertex 21.000000 -18.500000 0.000000
      vertex 17.131371 -17.131371 0.000000
    endloop
  endfacet
  facet normal 0.000000 -0.000000 -1.000000
    outer loop
      vertex 14.868629 -14.868629 0.000000
      vertex 7.494263 -8.323222 0.000000
      vertex 15.585889 -14.454518 0.000000
    endloop
  endfacet
  facet normal -0.000000 0.000000 -1.000000
    outer loop
      vertex 5.600000 9.699485 0.000000
      vertex 14.454518 16.414111 0.000000
      vertex 7.494263 8.323222 0.000000
    endloop
  endfacet
  facet normal 0.000000 0.000000 -1.000000
    outer loop
      vertex 7.494263 8.323222 0.000000
      vertex 16.414111 14.454518 0.000000
      vertex 17.131371 14.868629 0.000000
    endloop
  endfacet
  facet normal -0.707107 0.707107 0.000000
    outer loop
      vertex -18.500000 21.000000 2.000000
      vertex -18.500000 21.000000 0.000000
      vertex -21.000000 18.500000 2.000000
    endloop
  endfacet
  facet normal -0.707107 0.707107 0.000000
    outer loop
      vertex -21.000000 18.500000 2.000000
      vertex -18.500000 21.000000 0.000000
      vertex -21.000000 18.500000 0.000000
    endloop
  endfacet
  facet normal 0.000000 -0.000000 1.000000
    outer loop
      vertex -21.000000 18.500000 2.000000
      vertex -21.000000 -18.500000 2.000000
      vertex -18.500000 -21.000000 2.000000
    endloop
  endfacet
  facet normal 0.000000 -0.000000 1.000000
    outer loop
      vertex 17.545482 -15.585889 2.000000
      vertex 17.545482 -16.414111 2.000000
      vertex 21.000000 -18.500000 2.000000
    endloop
  endfacet
  facet normal -0.000000 0.000000 1.000000
    outer loop
      vertex -17.545482 -16.414111 2.000000
      vertex -21.000000 18.500000 2.000000
      vertex -18.500000 -21.000000 2.000000
    endloop
  endfacet
  facet normal 0.000000 0.000000 1.000000
    outer loop
      vertex -15.585889 17.545482 2.000000
      vertex -14.868629 17.131371 2.000000
      vertex 21.000000 18.500000 2.000000
    endloop
  endfacet
  facet normal 0.000000 -0.000000 1.000000
    outer loop
      vertex 18.500000 21.000000 2.000000
      vertex -21.000000 18.500000 2.000000
      vertex 21.000000 18.500000 2.000000
    endloop
  endfacet
  facet normal 0.000000 -0.000000 1.000000
    outer loop
      vertex -18.500000 21.000000 2.000000
      vertex -21.000000 18.500000 2.000000
      vertex 18.500000 21.000000 2.000000
    endloop
  endfacet
  facet normal -0.000000 0.000000 1.000000
    outer loop
      vertex -17.131371 -17.131371 2.000000
      vertex -17.545482 -16.414111 2.000000
      vertex -18.500000 -21.000000 2.000000
    endloop
  endfacet
  facet normal -0.000000 0.000000 1.000000
    outer loop
      vertex -17.545482 -15.585889 2.000000
      vertex -21.000000 18.500000 2.000000
      vertex -17.545482 -16.414111 2.000000
    endloop
  endfacet
  facet normal -0.000000 0.000000 1.000000
    outer loop
      vertex -17.131371 -14.868629 2.000000
      vertex -21.000000 18.500000 2.000000
      vertex -17.545482 -15.585889 2.000000
    endloop
  endfacet
  facet normal -0.000000 0.000000 1.000000
    outer loop
      vertex -16.414111 -14.454518 2.000000
      vertex -21.000000 18.500000 2.000000
      vertex -17.131371 -14.868629 2.000000
    endloop
  endfacet
  facet normal -0.000000 0.000000 1.000000
    outer loop
      vertex -15.585889 -14.454518 2.000000
      vertex -21.000000 18.500000 2.000000
      vertex -16.414111 -14.454518 2.000000
    endloop
  endfacet
  facet normal 0.000000 0.000000 1.000000
    outer loop
      vertex -14.868629 -14.868629 2.000000
      vertex -14.454518 -15.585889 2.000000
      vertex 18.500000 -21.000000 2.000000
    endloop
  endfacet
  facet normal -0.000000 0.000000 1.000000
    outer loop
      vertex -10.955253 -2.328611 2.000000
      vertex -21.000000 18.500000 2.000000
      vertex -15.585889 -14.454518 2.000000
    endloop
  endfacet
  facet normal 0.000000 -0.000000 1.000000
    outer loop
      vertex -14.454518 -15.585889 2.000000
      vertex -14.454518 -16.414111 2.000000
      vertex 18.500000 -21.000000 2.000000
    endloop
  endfacet
  facet normal 0.000000 -0.000000 1.000000
    outer loop
      vertex -14.454518 -16.414111 2.000000
      vertex -14.868629 -17.131371 2.000000
      vertex 18.500000 -21.000000 2.000000
    endloop
  endfacet
  facet normal -0.000000 0.000000 1.000000
    outer loop
      vertex 18.500000 -21.000000 2.000000
      vertex -14.868629 -17.131371 2.000000
      vertex -18.500000 -21.000000 2.000000
    endloop
  endfacet
  facet normal 0.000000 -0.000000 1.000000
    outer loop
      vertex 7.494263 -8.323222 2.000000
      vertex 5.600000 -9.699485 2.000000
      vertex 14.868629 -17.131371 2.000000
    endloop
  endfacet
  facet normal 0.000000 0.000000 1.000000
    outer loop
      vertex -14.868629 -17.131371 2.000000
      vertex -15.585889 -17.545482 2.000000
      vertex -18.500000 -21.000000 2.000000
    endloop
  endfacet
  facet normal 0.000000 0.000000 1.000000
    outer loop
      vertex -15.585889 -17.545482 2.000000
      vertex -16.414111 -17.545482 2.000000
      vertex -18.500000 -21.000000 2.000000
    endloop
  endfacet
  facet normal -0.000000 0.000000 1.000000
    outer loop
      vertex -16.414111 -17.545482 2.000000
      vertex -17.131371 -17.131371 2.000000
      vertex -18.500000 -21.000000 2.000000
    endloop
  endfacet
  facet normal -0.000000 0.000000 1.000000
    outer loop
      vertex -17.545482 16.414111 2.000000
      vertex -21.000000 18.500000 2.000000
      vertex -17.545482 15.585889 2.000000
    endloop
  endfacet
  facet normal -0.000000 0.000000 1.000000
    outer loop
      vertex -17.131371 17.131371 2.000000
      vertex -21.000000 18.500000 2.000000
      vertex -17.545482 16.414111 2.000000
    endloop
  endfacet
  facet normal -0.000000 0.000000 1.000000
    outer loop
      vertex -16.414111 17.545482 2.000000
      vertex -21.000000 18.500000 2.000000
      vertex -17.131371 17.131371 2.000000
    endloop
  endfacet
  facet normal 0.000000 0.000000 1.000000
    outer loop
      vertex 21.000000 18.500000 2.000000
      vertex -21.000000 18.500000 2.000000
      vertex -16.414111 17.545482 2.000000
    endloop
  endfacet
  facet normal 0.000000 0.000000 1.000000
    outer loop
      vertex -14.868629 17.131371 2.000000
      vertex -14.454518 16.414111 2.000000
      vertex 21.000000 18.500000 2.000000
    endloop
  endfacet
  facet normal 0.000000 0.000000 1.000000
    outer loop
      vertex 21.000000 18.500000 2.000000
      vertex -16.414111 17.545482 2.000000
      vertex -15.585889 17.545482 2.000000
    endloop
  endfacet
  facet normal 0.000000 -0.000000 1.000000
    outer loop
      vertex -14.454518 16.414111 2.000000
      vertex -14.454518 15.585889 2.000000
      vertex 21.000000 18.500000 2.000000
    endloop
  endfacet
  facet normal 0.000000 0.000000 1.000000
    outer loop
      vertex -7.494263 8.323222 2.000000
      vertex -5.600000 9.699485 2.000000
      vertex -14.454518 15.585889 2.000000
    endloop
  endfacet
  facet normal 0.000000 -0.000000 1.000000
    outer loop
      vertex 9.060990 -6.583195 2.000000
      vertex 7.494263 -8.323222 2.000000
      vertex 16.414111 -14.454518 2.000000
    endloop
  endfacet
  facet normal -0.000000 0.000000 1.000000
    outer loop
      vertex -10.231709 -4.555450 2.000000
      vertex -10.955253 -2.328611 2.000000
      vertex -15.585889 -14.454518 2.000000
    endloop
  endfacet
  facet normal -0.000000 -0.000000 1.000000
    outer loop
      vertex -11.200000 0.000000 2.000000
      vertex -21.000000 18.500000 2.000000
      vertex -10.955253 -2.328611 2.000000
    endloop
  endfacet
  facet normal -0.000000 0.000000 1.000000
    outer loop
      vertex -10.955253 2.328611 2.000000
      vertex -21.000000 18.500000 2.000000
      vertex -11.200000 0.000000 2.000000
    endloop
  endfacet
  facet normal 0.000000 -0.000000 1.000000
    outer loop
      vertex 3.460990 -10.651833 2.000000
      vertex 1.170719 -11.138645 2.000000
      vertex 18.500000 -21.000000 2.000000
    endloop
  endfacet
  facet normal -0.000000 0.000000 1.000000
    outer loop
      vertex -10.231709 4.555450 2.000000
      vertex -21.000000 18.500000 2.000000
      vertex -10.955253 2.328611 2.000000
    endloop
  endfacet
  facet normal -0.000000 -0.000000 1.000000
    outer loop
      vertex -17.131371 14.868629 2.000000
      vertex -21.000000 18.500000 2.000000
      vertex -9.060990 6.583195 2.000000
    endloop
  endfacet
  facet normal 0.000000 -0.000000 1.000000
    outer loop
      vertex 11.200000 0.000000 2.000000
      vertex 10.955253 -2.328611 2.000000
      vertex 21.000000 -18.500000 2.000000
    endloop
  endfacet
  facet normal 0.000000 -0.000000 1.000000
    outer loop
      vertex -14.454518 15.585889 2.000000
      vertex -14.868629 14.868629 2.000000
      vertex -7.494263 8.323222 2.000000
    endloop
  endfacet
  facet normal 0.000000 0.000000 1.000000
    outer loop
      vertex 9.060990 -6.583195 2.000000
      vertex 17.131371 -14.868629 2.000000
      vertex 21.000000 -18.500000 2.000000
    endloop
  endfacet
  facet normal -0.000000 0.000000 1.000000
    outer loop
      vertex -3.460990 10.651833 2.000000
      vertex -14.454518 15.585889 2.000000
      vertex -5.600000 9.699485 2.000000
    endloop
  endfacet
  facet normal 0.000000 0.000000 1.000000
    outer loop
      vertex 10.231709 4.555450 2.000000
      vertex 10.955253 2.328611 2.000000
      vertex 21.000000 -18.500000 2.000000
    endloop
  endfacet
  facet normal 0.000000 0.000000 1.000000
    outer loop
      vertex 14.454518 16.414111 2.000000
      vertex -14.454518 15.585889 2.000000
      vertex -3.460990 10.651833 2.000000
    endloop
  endfacet
  facet normal 0.000000 -0.000000 1.000000
    outer loop
      vertex 10.231709 -4.555450 2.000000
      vertex 9.060990 -6.583195 2.000000
      vertex 21.000000 -18.500000 2.000000
    endloop
  endfacet
  facet normal 0.000000 0.000000 1.000000
    outer loop
      vertex 9.060990 -6.583195 2.000000
      vertex 16.414111 -14.454518 2.000000
      vertex 17.131371 -14.868629 2.000000
    endloop
  endfacet
  facet normal 0.000000 0.000000 1.000000
    outer loop
      vertex 14.454518 15.585889 2.000000
      vertex 1.170719 11.138645 2.000000
      vertex 3.460990 10.651833 2.000000
    endloop
  endfacet
  facet normal 0.000000 -0.000000 1.000000
    outer loop
      vertex 10.955253 -2.328611 2.000000
      vertex 10.231709 -4.555450 2.000000
      vertex 21.000000 -18.500000 2.000000
    endloop
  endfacet
  facet normal 0.000000 0.000000 1.000000
    outer loop
      vertex 14.868629 14.868629 2.000000
      vertex 5.600000 9.699485 2.000000
      vertex 7.494263 8.323222 2.000000
    endloop
  endfacet
  facet normal 0.000000 0.000000 1.000000
    outer loop
      vertex 10.955253 2.328611 2.000000
      vertex 11.200000 0.000000 2.000000
      vertex 21.000000 -18.500000 2.000000
    endloop
  endfacet
  facet normal 0.000000 0.000000 1.000000
    outer loop
      vertex 16.414111 14.454518 2.000000
      vertex 7.494263 8.323222 2.000000
      vertex 9.060990 6.583195 2.000000
    endloop
  endfacet
  facet normal 0.000000 0.000000 1.000000
    outer loop
      vertex 21.000000 18.500000 2.000000
      vertex 10.231709 4.555450 2.000000
      vertex 21.000000 -18.500000 2.000000
    endloop
  endfacet
  facet normal 0.000000 0.000000 1.000000
    outer loop
      vertex 21.000000 18.500000 2.000000
      vertex 9.060990 6.583195 2.000000
      vertex 10.231709 4.555450 2.000000
    endloop
  endfacet
  facet normal 0.000000 0.000000 1.000000
    outer loop
      vertex 14.454518 -16.414111 2.000000
      vertex 14.454518 -15.585889 2.000000
      vertex 7.494263 -8.323222 2.000000
    endloop
  endfacet
  facet normal 0.000000 0.000000 1.000000
    outer loop
      vertex 18.500000 -21.000000 2.000000
      vertex 1.170719 -11.138645 2.000000
      vertex -15.585889 -14.454518 2.000000
    endloop
  endfacet
  facet normal 0.000000 0.000000 1.000000
    outer loop
      vertex 1.170719 -11.138645 2.000000
      vertex -1.170719 -11.138645 2.000000
      vertex -15.585889 -14.454518 2.000000
    endloop
  endfacet
  facet normal -0.000000 0.000000 1.000000
    outer loop
      vertex -1.170719 -11.138645 2.000000
      vertex -3.460990 -10.651833 2.000000
      vertex -15.585889 -14.454518 2.000000
    endloop
  endfacet
  facet normal -0.000000 0.000000 1.000000
    outer loop
      vertex -3.460990 -10.651833 2.000000
      vertex -5.600000 -9.699485 2.000000
      vertex -15.585889 -14.454518 2.000000
    endloop
  endfacet
  facet normal -0.000000 0.000000 1.000000
    outer loop
      vertex -5.600000 -9.699485 2.000000
      vertex -7.494263 -8.323222 2.000000
      vertex -15.585889 -14.454518 2.000000
    endloop
  endfacet
  facet normal -0.000000 0.000000 1.000000
    outer loop
      vertex -7.494263 -8.323222 2.000000
      vertex -9.060990 -6.583195 2.000000
      vertex -15.585889 -14.454518 2.000000
    endloop
  endfacet
  facet normal -0.000000 0.000000 1.000000
    outer loop
      vertex -9.060990 -6.583195 2.000000
      vertex -10.231709 -4.555450 2.000000
      vertex -15.585889 -14.454518 2.000000
    endloop
  endfacet
  facet normal 0.000000 0.000000 1.000000
    outer loop
      vertex 15.585889 -14.454518 2.000000
      vertex 16.414111 -14.454518 2.000000
      vertex 7.494263 -8.323222 2.000000
    endloop
  endfacet
  facet normal -0.000000 -0.000000 1.000000
    outer loop
      vertex 15.585889 -17.545482 2.000000
      vertex 14.868629 -17.131371 2.000000
      vertex 18.500000 -21.000000 2.000000
    endloop
  endfacet
  facet normal -0.000000 0.000000 1.000000
    outer loop
      vertex 14.868629 -14.868629 2.000000
      vertex 7.494263 -8.323222 2.000000
      vertex 14.454518 -15.585889 2.000000
    endloop
  endfacet
  facet normal -0.000000 -0.000000 1.000000
    outer loop
      vertex 16.414111 -17.545482 2.000000
      vertex 15.585889 -17.545482 2.000000
      vertex 18.500000 -21.000000 2.000000
    endloop
  endfacet
  facet normal -0.000000 0.000000 1.000000
    outer loop
      vertex 15.585889 -14.454518 2.000000
      vertex 7.494263 -8.323222 2.000000
      vertex 14.868629 -14.868629 2.000000
    endloop
  endfacet
  facet normal 0.000000 -0.000000 1.000000
    outer loop
      vertex 17.545482 -16.414111 2.000000
      vertex 17.131371 -17.131371 2.000000
      vertex 21.000000 -18.500000 2.000000
    endloop
  endfacet
  facet normal 0.000000 0.000000 1.000000
    outer loop
      vertex -10.231709 4.555450 2.000000
      vertex -9.060990 6.583195 2.000000
      vertex -21.000000 18.500000 2.000000
    endloop
  endfacet
  facet normal 0.000000 0.000000 1.000000
    outer loop
      vertex 7.494263 -8.323222 2.000000
      vertex 14.868629 -17.131371 2.000000
      vertex 14.454518 -16.414111 2.000000
    endloop
  endfacet
  facet normal -0.000000 -0.000000 1.000000
    outer loop
      vertex 14.868629 -17.131371 2.000000
      vertex 5.600000 -9.699485 2.000000
      vertex 18.500000 -21.000000 2.000000
    endloop
  endfacet
  facet normal 0.000000 0.000000 1.000000
    outer loop
      vertex 17.131371 -14.868629 2.000000
      vertex 17.545482 -15.585889 2.000000
      vertex 21.000000 -18.500000 2.000000
    endloop
  endfacet
  facet normal 0.000000 0.000000 1.000000
    outer loop
      vertex 14.868629 14.868629 2.000000
      vertex 3.460990 10.651833 2.000000
      vertex 5.600000 9.699485 2.000000
    endloop
  endfacet
  facet normal -0.000000 0.000000 1.000000
    outer loop
      vertex 21.000000 -18.500000 2.000000
      vertex 17.131371 -17.131371 2.000000
      vertex 18.500000 -21.000000 2.000000
    endloop
  endfacet
  facet normal 0.000000 -0.000000 1.000000
    outer loop
      vertex 17.131371 -17.131371 2.000000
      vertex 16.414111 -17.545482 2.000000
      vertex 18.500000 -21.000000 2.000000
    endloop
  endfacet
  facet normal 0.000000 0.000000 1.000000
    outer loop
      vertex 14.868629 17.131371 2.000000
      vertex -14.454518 15.585889 2.000000
      vertex 14.454518 16.414111 2.000000
    endloop
  endfacet
  facet normal 0.000000 0.000000 1.000000
    outer loop
      vertex 17.131371 17.131371 2.000000
      vertex 17.545482 16.414111 2.000000
      vertex 21.000000 18.500000 2.000000
    endloop
  endfacet
  facet normal 0.000000 0.000000 1.000000
    outer loop
      vertex 15.585889 17.545482 2.000000
      vertex -14.454518 15.585889 2.000000
      vertex 14.868629 17.131371 2.000000
    endloop
  endfacet
  facet normal 0.000000 0.000000 1.000000
    outer loop
      vertex 21.000000 18.500000 2.000000
      vertex -14.454518 15.585889 2.000000
      vertex 15.585889 17.545482 2.000000
    endloop
  endfacet
  facet normal 0.000000 -0.000000 1.000000
    outer loop
      vertex 17.545482 16.414111 2.000000
      vertex 17.545482 15.585889 2.000000
      vertex 21.000000 18.500000 2.000000
    endloop
  endfacet
  facet normal 0.000000 0.000000 1.000000
    outer loop
      vertex 21.000000 18.500000 2.000000
      vertex 15.585889 17.545482 2.000000
      vertex 16.414111 17.545482 2.000000
    endloop
  endfacet
  facet normal 0.000000 0.000000 1.000000
    outer loop
      vertex 16.414111 17.545482 2.000000
      vertex 17.131371 17.131371 2.000000
      vertex 21.000000 18.500000 2.000000
    endloop
  endfacet
  facet normal 0.000000 0.000000 1.000000
    outer loop
      vertex 16.414111 14.454518 2.000000
      vertex 15.585889 14.454518 2.000000
      vertex 7.494263 8.323222 2.000000
    endloop
  endfacet
  facet normal 0.000000 0.000000 1.000000
    outer loop
      vertex 21.000000 18.500000 2.000000
      vertex 17.131371 14.868629 2.000000
      vertex 9.060990 6.583195 2.000000
    endloop
  endfacet
  facet normal 0.000000 0.000000 1.000000
    outer loop
      vertex 21.000000 18.500000 2.000000
      vertex 17.545482 15.585889 2.000000
      vertex 17.131371 14.868629 2.000000
    endloop
  endfacet
  facet normal -0.000000 0.000000 1.000000
    outer loop
      vertex 15.585889 14.454518 2.000000
      vertex 14.868629 14.868629 2.000000
      vertex 7.494263 8.323222 2.000000
    endloop
  endfacet
  facet normal 0.000000 0.000000 1.000000
    outer loop
      vertex 17.131371 14.868629 2.000000
      vertex 16.414111 14.454518 2.000000
      vertex 9.060990 6.583195 2.000000
    endloop
  endfacet
  facet normal 0.000000 0.000000 1.000000
    outer loop
      vertex 14.454518 15.585889 2.000000
      vertex -1.170719 11.138645 2.000000
      vertex 1.170719 11.138645 2.000000
    endloop
  endfacet
  facet normal 0.000000 0.000000 1.000000
    outer loop
      vertex -15.585889 -14.454518 2.000000
      vertex -14.868629 -14.868629 2.000000
      vertex 18.500000 -21.000000 2.000000
    endloop
  endfacet
  facet normal 0.000000 0.000000 1.000000
    outer loop
      vertex -17.131371 14.868629 2.000000
      vertex -17.545482 15.585889 2.000000
      vertex -21.000000 18.500000 2.000000
    endloop
  endfacet
  facet normal -0.000000 0.000000 1.000000
    outer loop
      vertex 14.454518 15.585889 2.000000
      vertex 14.454518 16.414111 2.000000
      vertex -3.460990 10.651833 2.000000
    endloop
  endfacet
  facet normal 0.000000 0.000000 1.000000
    outer loop
      vertex 14.454518 15.585889 2.000000
      vertex -3.460990 10.651833 2.000000
      vertex -1.170719 11.138645 2.000000
    endloop
  endfacet
  facet normal 0.000000 -0.000000 1.000000
    outer loop
      vertex 5.600000 -9.699485 2.000000
      vertex 3.460990 -10.651833 2.000000
      vertex 18.500000 -21.000000 2.000000
    endloop
  endfacet
  facet normal -0.000000 0.000000 1.000000
    outer loop
      vertex 14.868629 14.868629 2.000000
      vertex 14.454518 15.585889 2.000000
      vertex 3.460990 10.651833 2.000000
    endloop
  endfacet
  facet normal 0.000000 0.000000 1.000000
    outer loop
      vertex -9.060990 6.583195 2.000000
      vertex -16.414111 14.454518 2.000000
      vertex -17.131371 14.868629 2.000000
    endloop
  endfacet
  facet normal 0.000000 0.000000 1.000000
    outer loop
      vertex -9.060990 6.583195 2.000000
      vertex -15.585889 14.454518 2.000000
      vertex -16.414111 14.454518 2.000000
    endloop
  endfacet
  facet normal 0.000000 0.000000 1.000000
    outer loop
      vertex -9.060990 6.583195 2.000000
      vertex -14.868629 14.868629 2.000000
      vertex -15.585889 14.454518 2.000000
    endloop
  endfacet
  facet normal 0.000000 0.000000 1.000000
    outer loop
      vertex -9.060990 6.583195 2.000000
      vertex -7.494263 8.323222 2.000000
      vertex -14.868629 14.868629 2.000000
    endloop
  endfacet
  facet normal 0.000000 -1.000000 0.000000
    outer loop
      vertex -18.500000 -21.000000 2.000000
      vertex -18.500000 -21.000000 0.000000
      vertex 18.500000 -21.000000 0.000000
    endloop
  endfacet
  facet normal 0.000000 -1.000000 0.000000
    outer loop
      vertex 18.500000 -21.000000 2.000000
      vertex -18.500000 -21.000000 2.000000
      vertex 18.500000 -21.000000 0.000000
    endloop
  endfacet
  facet normal 0.707107 -0.707107 0.000000
    outer loop
      vertex 21.000000 -18.500000 0.000000
      vertex 21.000000 -18.500000 2.000000
      vertex 18.500000 -21.000000 2.000000
    endloop
  endfacet
  facet normal 0.707107 -0.707107 0.000000
    outer loop
      vertex 18.500000 -21.000000 0.000000
      vertex 21.000000 -18.500000 0.000000
      vertex 18.500000 -21.000000 2.000000
    endloop
  endfacet
  facet normal 1.000000 0.000000 -0.000000
    outer loop
      vertex 21.000000 -18.500000 2.000000
      vertex 21.000000 -18.500000 0.000000
      vertex 21.000000 18.500000 0.000000
    endloop
  endfacet
  facet normal 1.000000 0.000000 0.000000
    outer loop
      vertex 21.000000 18.500000 2.000000
      vertex 21.000000 -18.500000 2.000000
      vertex 21.000000 18.500000 0.000000
    endloop
  endfacet
  facet normal 0.707107 0.707107 0.000000
    outer loop
      vertex 18.500000 21.000000 2.000000
      vertex 21.000000 18.500000 2.000000
      vertex 21.000000 18.500000 0.000000
    endloop
  endfacet
  facet normal 0.707107 0.707107 0.000000
    outer loop
      vertex 18.500000 21.000000 0.000000
      vertex 18.500000 21.000000 2.000000
      vertex 21.000000 18.500000 0.000000
    endloop
  endfacet
  facet normal 0.000000 1.000000 0.000000
    outer loop
      vertex -18.500000 21.000000 0.000000
      vertex -18.500000 21.000000 2.000000
      vertex 18.500000 21.000000 0.000000
    endloop
  endfacet
  facet normal 0.000000 1.000000 0.000000
    outer loop
      vertex 18.500000 21.000000 0.000000
      vertex -18.500000 21.000000 2.000000
      vertex 18.500000 21.000000 2.000000
    endloop
  endfacet
  facet normal 0.866025 -0.500000 0.000000
    outer loop
      vertex -17.131371 -14.868629 0.000000
      vertex -17.131371 -14.868629 2.000000
      vertex -17.545482 -15.585889 2.000000
    endloop
  endfacet
  facet normal 0.866025 -0.500000 0.000000
    outer loop
      vertex -17.545482 -15.585889 0.000000
      vertex -17.131371 -14.868629 0.000000
      vertex -17.545482 -15.585889 2.000000
    endloop
  endfacet
  facet normal 1.000000 -0.000000 0.000000
    outer loop
      vertex -17.545482 -15.585889 0.000000
      vertex -17.545482 -15.585889 2.000000
      vertex -17.545482 -16.414111 2.000000
    endloop
  endfacet
  facet normal 1.000000 -0.000000 0.000000
    outer loop
      vertex -17.545482 -16.414111 0.000000
      vertex -17.545482 -15.585889 0.000000
      vertex -17.545482 -16.414111 2.000000
    endloop
  endfacet
  facet normal 0.500000 -0.866025 0.000000
    outer loop
      vertex -16.414111 -14.454518 0.000000
      vertex -16.414111 -14.454518 2.000000
      vertex -17.131371 -14.868629 2.000000
    endloop
  endfacet
  facet normal 0.500000 -0.866025 0.000000
    outer loop
      vertex -17.131371 -14.868629 0.000000
      vertex -16.414111 -14.454518 0.000000
      vertex -17.131371 -14.868629 2.000000
    endloop
  endfacet
  facet normal 0.000000 -1.000000 0.000000
    outer loop
      vertex -15.585889 -14.454518 0.000000
      vertex -15.585889 -14.454518 2.000000
      vertex -16.414111 -14.454518 2.000000
    endloop
  endfacet
  facet normal -0.000000 -1.000000 -0.000000
    outer loop
      vertex -16.414111 -14.454518 0.000000
      vertex -15.585889 -14.454518 0.000000
      vertex -16.414111 -14.454518 2.000000
    endloop
  endfacet
  facet normal -0.500000 -0.866025 -0.000000
    outer loop
      vertex -14.868629 -14.868629 0.000000
      vertex -14.868629 -14.868629 2.000000
      vertex -15.585889 -14.454518 2.000000
    endloop
  endfacet
  facet normal -0.500000 -0.866025 -0.000000
    outer loop
      vertex -15.585889 -14.454518 0.000000
      vertex -14.868629 -14.868629 0.000000
      vertex -15.585889 -14.454518 2.000000
    endloop
  endfacet
  facet normal -0.866025 -0.500000 0.000000
    outer loop
      vertex -14.454518 -15.585889 2.000000
      vertex -14.868629 -14.868629 2.000000
      vertex -14.454518 -15.585889 0.000000
    endloop
  endfacet
  facet normal -0.866025 -0.500000 0.000000
    outer loop
      vertex -14.454518 -15.585889 0.000000
      vertex -14.868629 -14.868629 2.000000
      vertex -14.868629 -14.868629 0.000000
    endloop
  endfacet
  facet normal -1.000000 0.000000 0.000000
    outer loop
      vertex -14.454518 -15.585889 2.000000
      vertex -14.454518 -15.585889 0.000000
      vertex -14.454518 -16.414111 2.000000
    endloop
  endfacet
  facet normal -1.000000 0.000000 0.000000
    outer loop
      vertex -14.454518 -16.414111 2.000000
      vertex -14.454518 -15.585889 0.000000
      vertex -14.454518 -16.414111 0.000000
    endloop
  endfacet
  facet normal -0.866025 0.500000 0.000000
    outer loop
      vertex -14.454518 -16.414111 2.000000
      vertex -14.454518 -16.414111 0.000000
      vertex -14.868629 -17.131371 2.000000
    endloop
  endfacet
  facet normal -0.866025 0.500000 0.000000
    outer loop
      vertex -14.868629 -17.131371 2.000000
      vertex -14.454518 -16.414111 0.000000
      vertex -14.868629 -17.131371 0.000000
    endloop
  endfacet
  facet normal -0.500000 0.866025 0.000000
    outer loop
      vertex -14.868629 -17.131371 2.000000
      vertex -14.868629 -17.131371 0.000000
      vertex -15.585889 -17.545482 2.000000
    endloop
  endfacet
  facet normal -0.500000 0.866025 0.000000
    outer loop
      vertex -15.585889 -17.545482 2.000000
      vertex -14.868629 -17.131371 0.000000
      vertex -15.585889 -17.545482 0.000000
    endloop
  endfacet
  facet normal 0.000000 1.000000 0.000000
    outer loop
      vertex -15.585889 -17.545482 2.000000
      vertex -15.585889 -17.545482 0.000000
      vertex -16.414111 -17.545482 2.000000
    endloop
  endfacet
  facet normal 0.000000 1.000000 -0.000000
    outer loop
      vertex -16.414111 -17.545482 2.000000
      vertex -15.585889 -17.545482 0.000000
      vertex -16.414111 -17.545482 0.000000
    endloop
  endfacet
  facet normal 0.500000 0.866025 -0.000000
    outer loop
      vertex -16.414111 -17.545482 2.000000
      vertex -16.414111 -17.545482 0.000000
      vertex -17.131371 -17.131371 2.000000
    endloop
  endfacet
  facet normal 0.500000 0.866025 -0.000000
    outer loop
      vertex -17.131371 -17.131371 2.000000
      vertex -16.414111 -17.545482 0.000000
      vertex -17.131371 -17.131371 0.000000
    endloop
  endfacet
  facet normal 0.866025 0.500000 0.000000
    outer loop
      vertex -17.545482 -16.414111 2.000000
      vertex -17.131371 -17.131371 2.000000
      vertex -17.131371 -17.131371 0.000000
    endloop
  endfacet
  facet normal 0.866025 0.500000 0.000000
    outer loop
      vertex -17.545482 -16.414111 0.000000
      vertex -17.545482 -16.414111 2.000000
      vertex -17.131371 -17.131371 0.000000
    endloop
  endfacet
  facet normal 0.866025 -0.500000 0.000000
    outer loop
      vertex -17.131371 17.131371 0.000000
      vertex -17.131371 17.131371 2.000000
      vertex -17.545482 16.414111 2.000000
    endloop
  endfacet
  facet normal 0.866025 -0.500000 0.000000
    outer loop
      vertex -17.545482 16.414111 0.000000
      vertex -17.131371 17.131371 0.000000
      vertex -17.545482 16.414111 2.000000
    endloop
  endfacet
  facet normal 1.000000 0.000000 0.000000
    outer loop
      vertex -17.545482 16.414111 0.000000
      vertex -17.545482 16.414111 2.000000
      vertex -17.545482 15.585889 2.000000
    endloop
  endfacet
  facet normal 1.000000 0.000000 0.000000
    outer loop
      vertex -17.545482 15.585889 0.000000
      vertex -17.545482 16.414111 0.000000
      vertex -17.545482 15.585889 2.000000
    endloop
  endfacet
  facet normal 0.500000 -0.866025 0.000000
    outer loop
      vertex -16.414111 17.545482 0.000000
      vertex -16.414111 17.545482 2.000000
      vertex -17.131371 17.131371 2.000000
    endloop
  endfacet
  facet normal 0.500000 -0.866025 0.000000
    outer loop
      vertex -17.131371 17.131371 0.000000
      vertex -16.414111 17.545482 0.000000
      vertex -17.131371 17.131371 2.000000
    endloop
  endfacet
  facet normal 0.000000 -1.000000 0.000000
    outer loop
      vertex -15.585889 17.545482 0.000000
      vertex -15.585889 17.545482 2.000000
      vertex -16.414111 17.545482 2.000000
    endloop
  endfacet
  facet normal -0.000000 -1.000000 -0.000000
    outer loop
      vertex -16.414111 17.545482 0.000000
      vertex -15.585889 17.545482 0.000000
      vertex -16.414111 17.545482 2.000000
    endloop
  endfacet
  facet normal -0.500000 -0.866025 -0.000000
    outer loop
      vertex -14.868629 17.131371 0.000000
      vertex -14.868629 17.131371 2.000000
      vertex -15.585889 17.545482 2.000000
    endloop
  endfacet
  facet normal -0.500000 -0.866025 -0.000000
    outer loop
      vertex -15.585889 17.545482 0.000000
      vertex -14.868629 17.131371 0.000000
      vertex -15.585889 17.545482 2.000000
    endloop
  endfacet
  facet normal -0.866025 -0.500000 0.000000
    outer loop
      vertex -14.454518 16.414111 2.000000
      vertex -14.868629 17.131371 2.000000
      vertex -14.454518 16.414111 0.000000
    endloop
  endfacet
  facet normal -0.866025 -0.500000 0.000000
    outer loop
      vertex -14.454518 16.414111 0.000000
      vertex -14.868629 17.131371 2.000000
      vertex -14.868629 17.131371 0.000000
    endloop
  endfacet
  facet normal -1.000000 0.000000 0.000000
    outer loop
      vertex -14.454518 16.414111 2.000000
      vertex -14.454518 16.414111 0.000000
      vertex -14.454518 15.585889 2.000000
    endloop
  endfacet
  facet normal -1.000000 0.000000 0.000000
    outer loop
      vertex -14.454518 15.585889 2.000000
      vertex -14.454518 16.414111 0.000000
      vertex -14.454518 15.585889 0.000000
    endloop
  endfacet
  facet normal -0.866025 0.500000 0.000000
    outer loop
      vertex -14.454518 15.585889 2.000000
      vertex -14.454518 15.585889 0.000000
      vertex -14.868629 14.868629 2.000000
    endloop
  endfacet
  facet normal -0.866025 0.500000 0.000000
    outer loop
      vertex -14.868629 14.868629 2.000000
      vertex -14.454518 15.585889 0.000000
      vertex -14.868629 14.868629 0.000000
    endloop
  endfacet
  facet normal -0.500000 0.866025 0.000000
    outer loop
      vertex -14.868629 14.868629 2.000000
      vertex -14.868629 14.868629 0.000000
      vertex -15.585889 14.454518 2.000000
    endloop
  endfacet
  facet normal -0.500000 0.866025 0.000000
    outer loop
      vertex -15.585889 14.454518 2.000000
      vertex -14.868629 14.868629 0.000000
      vertex -15.585889 14.454518 0.000000
    endloop
  endfacet
  facet normal 0.000000 1.000000 0.000000
    outer loop
      vertex -15.585889 14.454518 2.000000
      vertex -15.585889 14.454518 0.000000
      vertex -16.414111 14.454518 2.000000
    endloop
  endfacet
  facet normal 0.000000 1.000000 -0.000000
    outer loop
      vertex -16.414111 14.454518 2.000000
      vertex -15.585889 14.454518 0.000000
      vertex -16.414111 14.454518 0.000000
    endloop
  endfacet
  facet normal 0.500000 0.866025 -0.000000
    outer loop
      vertex -16.414111 14.454518 2.000000
      vertex -16.414111 14.454518 0.000000
      vertex -17.131371 14.868629 2.000000
    endloop
  endfacet
  facet normal 0.500000 0.866025 -0.000000
    outer loop
      vertex -17.131371 14.868629 2.000000
      vertex -16.414111 14.454518 0.000000
      vertex -17.131371 14.868629 0.000000
    endloop
  endfacet
  facet normal 0.866025 0.500000 0.000000
    outer loop
      vertex -17.545482 15.585889 2.000000
      vertex -17.131371 14.868629 2.000000
      vertex -17.131371 14.868629 0.000000
    endloop
  endfacet
  facet normal 0.866025 0.500000 0.000000
    outer loop
      vertex -17.545482 15.585889 0.000000
      vertex -17.545482 15.585889 2.000000
      vertex -17.131371 14.868629 0.000000
    endloop
  endfacet
  facet normal 0.994522 -0.104529 0.000000
    outer loop
      vertex -10.955253 2.328611 0.000000
      vertex -10.955253 2.328611 2.000000
      vertex -11.200000 0.000000 2.000000
    endloop
  endfacet
  facet normal 0.994522 -0.104529 0.000000
    outer loop
      vertex -11.200000 0.000000 0.000000
      vertex -10.955253 2.328611 0.000000
      vertex -11.200000 0.000000 2.000000
    endloop
  endfacet
  facet normal 0.994522 0.104529 0.000000
    outer loop
      vertex -11.200000 0.000000 2.000000
      vertex -10.955253 -2.328611 2.000000
      vertex -10.955253 -2.328611 0.000000
    endloop
  endfacet
  facet normal 0.994522 0.104529 0.000000
    outer loop
      vertex -11.200000 0.000000 0.000000
      vertex -11.200000 0.000000 2.000000
      vertex -10.955253 -2.328611 0.000000
    endloop
  endfacet
  facet normal 0.951056 -0.309017 0.000000
    outer loop
      vertex -10.231709 4.555450 0.000000
      vertex -10.231709 4.555450 2.000000
      vertex -10.955253 2.328611 2.000000
    endloop
  endfacet
  facet normal 0.951056 -0.309017 0.000000
    outer loop
      vertex -10.955253 2.328611 0.000000
      vertex -10.231709 4.555450 0.000000
      vertex -10.955253 2.328611 2.000000
    endloop
  endfacet
  facet normal 0.866025 -0.500000 0.000000
    outer loop
      vertex -9.060990 6.583195 0.000000
      vertex -9.060990 6.583195 2.000000
      vertex -10.231709 4.555450 2.000000
    endloop
  endfacet
  facet normal 0.866025 -0.500000 0.000000
    outer loop
      vertex -10.231709 4.555450 0.000000
      vertex -9.060990 6.583195 0.000000
      vertex -10.231709 4.555450 2.000000
    endloop
  endfacet
  facet normal 0.743145 -0.669131 0.000000
    outer loop
      vertex -7.494263 8.323222 0.000000
      vertex -7.494263 8.323222 2.000000
      vertex -9.060990 6.583195 2.000000
    endloop
  endfacet
  facet normal 0.743145 -0.669131 0.000000
    outer loop
      vertex -9.060990 6.583195 0.000000
      vertex -7.494263 8.323222 0.000000
      vertex -9.060990 6.583195 2.000000
    endloop
  endfacet
  facet normal 0.587785 -0.809017 0.000000
    outer loop
      vertex -5.600000 9.699485 0.000000
      vertex -5.600000 9.699485 2.000000
      vertex -7.494263 8.323222 2.000000
    endloop
  endfacet
  facet normal 0.587785 -0.809017 0.000000
    outer loop
      vertex -7.494263 8.323222 0.000000
      vertex -5.600000 9.699485 0.000000
      vertex -7.494263 8.323222 2.000000
    endloop
  endfacet
  facet normal 0.406736 -0.913546 0.000000
    outer loop
      vertex -3.460990 10.651833 0.000000
      vertex -3.460990 10.651833 2.000000
      vertex -5.600000 9.699485 2.000000
    endloop
  endfacet
  facet normal 0.406736 -0.913546 0.000000
    outer loop
      vertex -5.600000 9.699485 0.000000
      vertex -3.460990 10.651833 0.000000
      vertex -5.600000 9.699485 2.000000
    endloop
  endfacet
  facet normal 0.207912 -0.978148 0.000000
    outer loop
      vertex -1.170719 11.138645 0.000000
      vertex -1.170719 11.138645 2.000000
      vertex -3.460990 10.651833 2.000000
    endloop
  endfacet
  facet normal 0.207912 -0.978148 0.000000
    outer loop
      vertex -3.460990 10.651833 0.000000
      vertex -1.170719 11.138645 0.000000
      vertex -3.460990 10.651833 2.000000
    endloop
  endfacet
  facet normal 0.000000 -1.000000 0.000000
    outer loop
      vertex 1.170719 11.138645 0.000000
      vertex 1.170719 11.138645 2.000000
      vertex -1.170719 11.138645 2.000000
    endloop
  endfacet
  facet normal -0.000000 -1.000000 -0.000000
    outer loop
      vertex -1.170719 11.138645 0.000000
      vertex 1.170719 11.138645 0.000000
      vertex -1.170719 11.138645 2.000000
    endloop
  endfacet
  facet normal -0.207912 -0.978148 -0.000000
    outer loop
      vertex 3.460990 10.651833 0.000000
      vertex 3.460990 10.651833 2.000000
      vertex 1.170719 11.138645 2.000000
    endloop
  endfacet
  facet normal -0.207912 -0.978148 -0.000000
    outer loop
      vertex 1.170719 11.138645 0.000000
      vertex 3.460990 10.651833 0.000000
      vertex 1.170719 11.138645 2.000000
    endloop
  endfacet
  facet normal -0.406736 -0.913546 -0.000000
    outer loop
      vertex 5.600000 9.699485 0.000000
      vertex 5.600000 9.699485 2.000000
      vertex 3.460990 10.651833 2.000000
    endloop
  endfacet
  facet normal -0.406736 -0.913546 -0.000000
    outer loop
      vertex 3.460990 10.651833 0.000000
      vertex 5.600000 9.699485 0.000000
      vertex 3.460990 10.651833 2.000000
    endloop
  endfacet
  facet normal -0.587785 -0.809017 -0.000000
    outer loop
      vertex 7.494263 8.323222 0.000000
      vertex 7.494263 8.323222 2.000000
      vertex 5.600000 9.699485 2.000000
    endloop
  endfacet
  facet normal -0.587785 -0.809017 -0.000000
    outer loop
      vertex 5.600000 9.699485 0.000000
      vertex 7.494263 8.323222 0.000000
      vertex 5.600000 9.699485 2.000000
    endloop
  endfacet
  facet normal -0.743145 -0.669131 0.000000
    outer loop
      vertex 9.060990 6.583195 2.000000
      vertex 7.494263 8.323222 2.000000
      vertex 9.060990 6.583195 0.000000
    endloop
  endfacet
  facet normal -0.743145 -0.669131 0.000000
    outer loop
      vertex 9.060990 6.583195 0.000000
      vertex 7.494263 8.323222 2.000000
      vertex 7.494263 8.323222 0.000000
    endloop
  endfacet
  facet normal -0.866025 -0.500000 0.000000
    outer loop
      vertex 10.231709 4.555450 2.000000
      vertex 9.060990 6.583195 2.000000
      vertex 10.231709 4.555450 0.000000
    endloop
  endfacet
  facet normal -0.866025 -0.500000 0.000000
    outer loop
      vertex 10.231709 4.555450 0.000000
      vertex 9.060990 6.583195 2.000000
      vertex 9.060990 6.583195 0.000000
    endloop
  endfacet
  facet normal -0.951056 -0.309017 0.000000
    outer loop
      vertex 10.955253 2.328611 2.000000
      vertex 10.231709 4.555450 2.000000
      vertex 10.955253 2.328611 0.000000
    endloop
  endfacet
  facet normal -0.951056 -0.309017 0.000000
    outer loop
      vertex 10.955253 2.328611 0.000000
      vertex 10.231709 4.555450 2.000000
      vertex 10.231709 4.555450 0.000000
    endloop
  endfacet
  facet normal -0.994522 -0.104529 0.000000
    outer loop
      vertex 11.200000 0.000000 2.000000
      vertex 10.955253 2.328611 2.000000
      vertex 11.200000 0.000000 0.000000
    endloop
  endfacet
  facet normal -0.994522 -0.104529 0.000000
    outer loop
      vertex 11.200000 0.000000 0.000000
      vertex 10.955253 2.328611 2.000000
      vertex 10.955253 2.328611 0.000000
    endloop
  endfacet
  facet normal -0.994522 0.104529 0.000000
    outer loop
      vertex 11.200000 0.000000 2.000000
      vertex 11.200000 0.000000 0.000000
      vertex 10.955253 -2.328611 2.000000
    endloop
  endfacet
  facet normal -0.994522 0.104529 0.000000
    outer loop
      vertex 10.955253 -2.328611 2.000000
      vertex 11.200000 0.000000 0.000000
      vertex 10.955253 -2.328611 0.000000
    endloop
  endfacet
  facet normal -0.951056 0.309017 0.000000
    outer loop
      vertex 10.955253 -2.328611 2.000000
      vertex 10.955253 -2.328611 0.000000
      vertex 10.231709 -4.555450 2.000000
    endloop
  endfacet
  facet normal -0.951056 0.309017 0.000000
    outer loop
      vertex 10.231709 -4.555450 2.000000
      vertex 10.955253 -2.328611 0.000000
      vertex 10.231709 -4.555450 0.000000
    endloop
  endfacet
  facet normal -0.866025 0.500000 0.000000
    outer loop
      vertex 10.231709 -4.555450 2.000000
      vertex 10.231709 -4.555450 0.000000
      vertex 9.060990 -6.583195 2.000000
    endloop
  endfacet
  facet normal -0.866025 0.500000 0.000000
    outer loop
      vertex 9.060990 -6.583195 2.000000
      vertex 10.231709 -4.555450 0.000000
      vertex 9.060990 -6.583195 0.000000
    endloop
  endfacet
  facet normal -0.743145 0.669131 0.000000
    outer loop
      vertex 9.060990 -6.583195 2.000000
      vertex 9.060990 -6.583195 0.000000
      vertex 7.494263 -8.323222 2.000000
    endloop
  endfacet
  facet normal -0.743145 0.669131 0.000000
    outer loop
      vertex 7.494263 -8.323222 2.000000
      vertex 9.060990 -6.583195 0.000000
      vertex 7.494263 -8.323222 0.000000
    endloop
  endfacet
  facet normal -0.587785 0.809017 0.000000
    outer loop
      vertex 7.494263 -8.323222 2.000000
      vertex 7.494263 -8.323222 0.000000
      vertex 5.600000 -9.699485 2.000000
    endloop
  endfacet
  facet normal -0.587785 0.809017 0.000000
    outer loop
      vertex 5.600000 -9.699485 2.000000
      vertex 7.494263 -8.323222 0.000000
      vertex 5.600000 -9.699485 0.000000
    endloop
  endfacet
  facet normal -0.406736 0.913546 0.000000
    outer loop
      vertex 5.600000 -9.699485 2.000000
      vertex 5.600000 -9.699485 0.000000
      vertex 3.460990 -10.651833 2.000000
    endloop
  endfacet
  facet normal -0.406736 0.913546 0.000000
    outer loop
      vertex 3.460990 -10.651833 2.000000
      vertex 5.600000 -9.699485 0.000000
      vertex 3.460990 -10.651833 0.000000
    endloop
  endfacet
  facet normal -0.207912 0.978148 0.000000
    outer loop
      vertex 3.460990 -10.651833 2.000000
      vertex 3.460990 -10.651833 0.000000
      vertex 1.170719 -11.138645 2.000000
    endloop
  endfacet
  facet normal -0.207912 0.978148 0.000000
    outer loop
      vertex 1.170719 -11.138645 2.000000
      vertex 3.460990 -10.651833 0.000000
      vertex 1.170719 -11.138645 0.000000
    endloop
  endfacet
  facet normal 0.000000 1.000000 0.000000
    outer loop
      vertex 1.170719 -11.138645 2.000000
      vertex 1.170719 -11.138645 0.000000
      vertex -1.170719 -11.138645 2.000000
    endloop
  endfacet
  facet normal 0.000000 1.000000 -0.000000
    outer loop
      vertex -1.170719 -11.138645 2.000000
      vertex 1.170719 -11.138645 0.000000
      vertex -1.170719 -11.138645 0.000000
    endloop
  endfacet
  facet normal 0.207912 0.978148 -0.000000
    outer loop
      vertex -1.170719 -11.138645 2.000000
      vertex -1.170719 -11.138645 0.000000
      vertex -3.460990 -10.651833 2.000000
    endloop
  endfacet
  facet normal 0.207912 0.978148 -0.000000
    outer loop
      vertex -3.460990 -10.651833 2.000000
      vertex -1.170719 -11.138645 0.000000
      vertex -3.460990 -10.651833 0.000000
    endloop
  endfacet
  facet normal 0.406736 0.913546 -0.000000
    outer loop
      vertex -3.460990 -10.651833 2.000000
      vertex -3.460990 -10.651833 0.000000
      vertex -5.600000 -9.699485 2.000000
    endloop
  endfacet
  facet normal 0.406736 0.913546 -0.000000
    outer loop
      vertex -5.600000 -9.699485 2.000000
      vertex -3.460990 -10.651833 0.000000
      vertex -5.600000 -9.699485 0.000000
    endloop
  endfacet
  facet normal 0.587785 0.809017 -0.000000
    outer loop
      vertex -5.600000 -9.699485 2.000000
      vertex -5.600000 -9.699485 0.000000
      vertex -7.494263 -8.323222 2.000000
    endloop
  endfacet
  facet normal 0.587785 0.809017 -0.000000
    outer loop
      vertex -7.494263 -8.323222 2.000000
      vertex -5.600000 -9.699485 0.000000
      vertex -7.494263 -8.323222 0.000000
    endloop
  endfacet
  facet normal 0.743145 0.669131 0.000000
    outer loop
      vertex -9.060990 -6.583195 2.000000
      vertex -7.494263 -8.323222 2.000000
      vertex -7.494263 -8.323222 0.000000
    endloop
  endfacet
  facet normal 0.743145 0.669131 0.000000
    outer loop
      vertex -9.060990 -6.583195 0.000000
      vertex -9.060990 -6.583195 2.000000
      vertex -7.494263 -8.323222 0.000000
    endloop
  endfacet
  facet normal 0.866025 0.500000 0.000000
    outer loop
      vertex -10.231709 -4.555450 2.000000
      vertex -9.060990 -6.583195 2.000000
      vertex -9.060990 -6.583195 0.000000
    endloop
  endfacet
  facet normal 0.866025 0.500000 0.000000
    outer loop
      vertex -10.231709 -4.555450 0.000000
      vertex -10.231709 -4.555450 2.000000
      vertex -9.060990 -6.583195 0.000000
    endloop
  endfacet
  facet normal 0.951056 0.309017 0.000000
    outer loop
      vertex -10.955253 -2.328611 2.000000
      vertex -10.231709 -4.555450 2.000000
      vertex -10.231709 -4.555450 0.000000
    endloop
  endfacet
  facet normal 0.951056 0.309017 0.000000
    outer loop
      vertex -10.955253 -2.328611 0.000000
      vertex -10.955253 -2.328611 2.000000
      vertex -10.231709 -4.555450 0.000000
    endloop
  endfacet
  facet normal 0.866025 -0.500000 0.000000
    outer loop
      vertex 14.868629 -14.868629 0.000000
      vertex 14.868629 -14.868629 2.000000
      vertex 14.454518 -15.585889 2.000000
    endloop
  endfacet
  facet normal 0.866025 -0.500000 0.000000
    outer loop
      vertex 14.454518 -15.585889 0.000000
      vertex 14.868629 -14.868629 0.000000
      vertex 14.454518 -15.585889 2.000000
    endloop
  endfacet
  facet normal 1.000000 0.000000 0.000000
    outer loop
      vertex 14.454518 -15.585889 0.000000
      vertex 14.454518 -15.585889 2.000000
      vertex 14.454518 -16.414111 2.000000
    endloop
  endfacet
  facet normal 1.000000 0.000000 0.000000
    outer loop
      vertex 14.454518 -16.414111 0.000000
      vertex 14.454518 -15.585889 0.000000
      vertex 14.454518 -16.414111 2.000000
    endloop
  endfacet
  facet normal 0.500000 -0.866025 0.000000
    outer loop
      vertex 15.585889 -14.454518 0.000000
      vertex 15.585889 -14.454518 2.000000
      vertex 14.868629 -14.868629 2.000000
    endloop
  endfacet
  facet normal 0.500000 -0.866025 0.000000
    outer loop
      vertex 14.868629 -14.868629 0.000000
      vertex 15.585889 -14.454518 0.000000
      vertex 14.868629 -14.868629 2.000000
    endloop
  endfacet
  facet normal 0.000000 -1.000000 0.000000
    outer loop
      vertex 16.414111 -14.454518 0.000000
      vertex 16.414111 -14.454518 2.000000
      vertex 15.585889 -14.454518 2.000000
    endloop
  endfacet
  facet normal -0.000000 -1.000000 -0.000000
    outer loop
      vertex 15.585889 -14.454518 0.000000
      vertex 16.414111 -14.454518 0.000000
      vertex 15.585889 -14.454518 2.000000
    endloop
  endfacet
  facet normal -0.500000 -0.866025 -0.000000
    outer loop
      vertex 17.131371 -14.868629 0.000000
      vertex 17.131371 -14.868629 2.000000
      vertex 16.414111 -14.454518 2.000000
    endloop
  endfacet
  facet normal -0.500000 -0.866025 -0.000000
    outer loop
      vertex 16.414111 -14.454518 0.000000
      vertex 17.131371 -14.868629 0.000000
      vertex 16.414111 -14.454518 2.000000
    endloop
  endfacet
  facet normal -0.866025 -0.500000 0.000000
    outer loop
      vertex 17.545482 -15.585889 2.000000
      vertex 17.131371 -14.868629 2.000000
      vertex 17.545482 -15.585889 0.000000
    endloop
  endfacet
  facet normal -0.866025 -0.500000 0.000000
    outer loop
      vertex 17.545482 -15.585889 0.000000
      vertex 17.131371 -14.868629 2.000000
      vertex 17.131371 -14.868629 0.000000
    endloop
  endfacet
  facet normal -1.000000 0.000000 0.000000
    outer loop
      vertex 17.545482 -15.585889 2.000000
      vertex 17.545482 -15.585889 0.000000
      vertex 17.545482 -16.414111 2.000000
    endloop
  endfacet
  facet normal -1.000000 0.000000 0.000000
    outer loop
      vertex 17.545482 -16.414111 2.000000
      vertex 17.545482 -15.585889 0.000000
      vertex 17.545482 -16.414111 0.000000
    endloop
  endfacet
  facet normal -0.866025 0.500000 0.000000
    outer loop
      vertex 17.545482 -16.414111 2.000000
      vertex 17.545482 -16.414111 0.000000
      vertex 17.131371 -17.131371 2.000000
    endloop
  endfacet
  facet normal -0.866025 0.500000 0.000000
    outer loop
      vertex 17.131371 -17.131371 2.000000
      vertex 17.545482 -16.414111 0.000000
      vertex 17.131371 -17.131371 0.000000
    endloop
  endfacet
  facet normal -0.500000 0.866025 0.000000
    outer loop
      vertex 17.131371 -17.131371 2.000000
      vertex 17.131371 -17.131371 0.000000
      vertex 16.414111 -17.545482 2.000000
    endloop
  endfacet
  facet normal -0.500000 0.866025 0.000000
    outer loop
      vertex 16.414111 -17.545482 2.000000
      vertex 17.131371 -17.131371 0.000000
      vertex 16.414111 -17.545482 0.000000
    endloop
  endfacet
  facet normal 0.000000 1.000000 -0.000000
    outer loop
      vertex 16.414111 -17.545482 2.000000
      vertex 16.414111 -17.545482 0.000000
      vertex 15.585889 -17.545482 2.000000
    endloop
  endfacet
  facet normal 0.000000 1.000000 -0.000000
    outer loop
      vertex 15.585889 -17.545482 2.000000
      vertex 16.414111 -17.545482 0.000000
      vertex 15.585889 -17.545482 0.000000
    endloop
  endfacet
  facet normal 0.500000 0.866025 -0.000000
    outer loop
      vertex 15.585889 -17.545482 2.000000
      vertex 15.585889 -17.545482 0.000000
      vertex 14.868629 -17.131371 2.000000
    endloop
  endfacet
  facet normal 0.500000 0.866025 -0.000000
    outer loop
      vertex 14.868629 -17.131371 2.000000
      vertex 15.585889 -17.545482 0.000000
      vertex 14.868629 -17.131371 0.000000
    endloop
  endfacet
  facet normal 0.866025 0.500000 0.000000
    outer loop
      vertex 14.454518 -16.414111 2.000000
      vertex 14.868629 -17.131371 2.000000
      vertex 14.868629 -17.131371 0.000000
    endloop
  endfacet
  facet normal 0.866025 0.500000 0.000000
    outer loop
      vertex 14.454518 -16.414111 0.000000
      vertex 14.454518 -16.414111 2.000000
      vertex 14.868629 -17.131371 0.000000
    endloop
  endfacet
  facet normal 1.000000 0.000000 0.000000
    outer loop
      vertex 14.454518 16.414111 0.000000
      vertex 14.454518 16.414111 2.000000
      vertex 14.454518 15.585889 2.000000
    endloop
  endfacet
  facet normal 1.000000 0.000000 0.000000
    outer loop
      vertex 14.454518 15.585889 0.000000
      vertex 14.454518 16.414111 0.000000
      vertex 14.454518 15.585889 2.000000
    endloop
  endfacet
  facet normal 0.866025 -0.500000 0.000000
    outer loop
      vertex 14.868629 17.131371 0.000000
      vertex 14.868629 17.131371 2.000000
      vertex 14.454518 16.414111 2.000000
    endloop
  endfacet
  facet normal 0.866025 -0.500000 0.000000
    outer loop
      vertex 14.454518 16.414111 0.000000
      vertex 14.868629 17.131371 0.000000
      vertex 14.454518 16.414111 2.000000
    endloop
  endfacet
  facet normal 0.500000 -0.866025 0.000000
    outer loop
      vertex 15.585889 17.545482 0.000000
      vertex 15.585889 17.545482 2.000000
      vertex 14.868629 17.131371 2.000000
    endloop
  endfacet
  facet normal 0.500000 -0.866025 0.000000
    outer loop
      vertex 14.868629 17.131371 0.000000
      vertex 15.585889 17.545482 0.000000
      vertex 14.868629 17.131371 2.000000
    endloop
  endfacet
  facet normal 0.000000 -1.000000 0.000000
    outer loop
      vertex 16.414111 17.545482 0.000000
      vertex 16.414111 17.545482 2.000000
      vertex 15.585889 17.545482 2.000000
    endloop
  endfacet
  facet normal -0.000000 -1.000000 -0.000000
    outer loop
      vertex 15.585889 17.545482 0.000000
      vertex 16.414111 17.545482 0.000000
      vertex 15.585889 17.545482 2.000000
    endloop
  endfacet
  facet normal -0.500000 -0.866025 -0.000000
    outer loop
      vertex 17.131371 17.131371 0.000000
      vertex 17.131371 17.131371 2.000000
      vertex 16.414111 17.545482 2.000000
    endloop
  endfacet
  facet normal -0.500000 -0.866025 -0.000000
    outer loop
      vertex 16.414111 17.545482 0.000000
      vertex 17.131371 17.131371 0.000000
      vertex 16.414111 17.545482 2.000000
    endloop
  endfacet
  facet normal -0.866025 -0.500000 0.000000
    outer loop
      vertex 17.545482 16.414111 2.000000
      vertex 17.131371 17.131371 2.000000
      vertex 17.545482 16.414111 0.000000
    endloop
  endfacet
  facet normal -0.866025 -0.500000 0.000000
    outer loop
      vertex 17.545482 16.414111 0.000000
      vertex 17.131371 17.131371 2.000000
      vertex 17.131371 17.131371 0.000000
    endloop
  endfacet
  facet normal -1.000000 0.000000 0.000000
    outer loop
      vertex 17.545482 16.414111 2.000000
      vertex 17.545482 16.414111 0.000000
      vertex 17.545482 15.585889 2.000000
    endloop
  endfacet
  facet normal -1.000000 0.000000 0.000000
    outer loop
      vertex 17.545482 15.585889 2.000000
      vertex 17.545482 16.414111 0.000000
      vertex 17.545482 15.585889 0.000000
    endloop
  endfacet
  facet normal -0.866025 0.500000 0.000000
    outer loop
      vertex 17.545482 15.585889 2.000000
      vertex 17.545482 15.585889 0.000000
      vertex 17.131371 14.868629 2.000000
    endloop
  endfacet
  facet normal -0.866025 0.500000 0.000000
    outer loop
      vertex 17.131371 14.868629 2.000000
      vertex 17.545482 15.585889 0.000000
      vertex 17.131371 14.868629 0.000000
    endloop
  endfacet
  facet normal -0.500000 0.866025 0.000000
    outer loop
      vertex 17.131371 14.868629 2.000000
      vertex 17.131371 14.868629 0.000000
      vertex 16.414111 14.454518 2.000000
    endloop
  endfacet
  facet normal -0.500000 0.866025 0.000000
    outer loop
      vertex 16.414111 14.454518 2.000000
      vertex 17.131371 14.868629 0.000000
      vertex 16.414111 14.454518 0.000000
    endloop
  endfacet
  facet normal 0.000000 1.000000 0.000000
    outer loop
      vertex 16.414111 14.454518 2.000000
      vertex 16.414111 14.454518 0.000000
      vertex 15.585889 14.454518 2.000000
    endloop
  endfacet
  facet normal 0.000000 1.000000 -0.000000
    outer loop
      vertex 15.585889 14.454518 2.000000
      vertex 16.414111 14.454518 0.000000
      vertex 15.585889 14.454518 0.000000
    endloop
  endfacet
  facet normal 0.500000 0.866025 -0.000000
    outer loop
      vertex 15.585889 14.454518 2.000000
      vertex 15.585889 14.454518 0.000000
      vertex 14.868629 14.868629 2.000000
    endloop
  endfacet
  facet normal 0.500000 0.866025 -0.000000
    outer loop
      vertex 14.868629 14.868629 2.000000
      vertex 15.585889 14.454518 0.000000
      vertex 14.868629 14.868629 0.000000
    endloop
  endfacet
  facet normal 0.866025 0.500000 0.000000
    outer loop
      vertex 14.454518 15.585889 2.000000
      vertex 14.868629 14.868629 2.000000
      vertex 14.868629 14.868629 0.000000
    endloop
  endfacet
  facet normal 0.866025 0.500000 0.000000
    outer loop
      vertex 14.454518 15.585889 0.000000
      vertex 14.454518 15.585889 2.000000
      vertex 14.868629 14.868629 0.000000
    endloop
  endfacet
endsolid OpenSCAD_Model
