999
dxflib 2.0.4.8
  0
SECTION
  2
HEADER
  9
$ACADVER
  1
AC1015
  9
$HANDSEED
  5
FFFF
  9
$DIMASZ
 40
2.5
  9
$DIMGAP
 40
0.625
  9
$INSUNITS
 70
4
  9
$DIMEXO
 40
0.625
  9
$DIMTXT
 40
2.5
  9
$DIMSTYLE
  2
Standard
  9
$PLIMMIN
 10
0.0
 20
0.0
  9
$PLIMMAX
 10
210.0
 20
297.0
  9
$DIMEXE
 40
1.25
  0
ENDSEC
  0
SECTION
  2
TABLES
  0
TABLE
  2
VPORT
  5
8
100
AcDbSymbolTable
 70
1
  0
VPORT
  5
30
100
AcDbSymbolTableRecord
100
AcDbViewportTableRecord
  2
*Active
 70
0
 10
0.0
 20
0.0
 11
1.0
 21
1.0
 12
286.3055555555554861
 22
148.5
 13
0.0
 23
0.0
 14
10.0
 24
10.0
 15
10.0
 25
10.0
 16
0.0
 26
0.0
 36
1.0
 17
0.0
 27
0.0
 37
0.0
 40
297.0
 41
1.92798353909465
 42
50.0
 43
0.0
 44
0.0
 50
0.0
 51
0.0
 71
0
 72
100
 73
1
 74
3
 75
1
 76
1
 77
0
 78
0
281
0
 65
1
110
0.0
120
0.0
130
0.0
111
1.0
121
0.0
131
0.0
112
0.0
122
1.0
132
0.0
 79
0
146
0.0
  0
ENDTAB
  0
TABLE
  2
LTYPE
  5
5
100
AcDbSymbolTable
 70
21
  0
LTYPE
  5
14
100
AcDbSymbolTableRecord
100
AcDbLinetypeTableRecord
  2
ByBlock
 70
0
  3

 72
65
 73
0
 40
0.0
  0
LTYPE
  5
15
100
AcDbSymbolTableRecord
100
AcDbLinetypeTableRecord
  2
ByLayer
 70
0
  3

 72
65
 73
0
 40
0.0
  0
LTYPE
  5
16
100
AcDbSymbolTableRecord
100
AcDbLinetypeTableRecord
  2
CONTINUOUS
 70
0
  3
Solid line
 72
65
 73
0
 40
0.0
  0
LTYPE
  5
31
100
AcDbSymbolTableRecord
100
AcDbLinetypeTableRecord
  2
DOT
 70
0
  3
Dot . . . . . . . . . . . . . . . . . . . . . .
 72
65
 73
2
 40
6.3499999999999996
 49
0.0
 74
0
 49
-6.3499999999999996
 74
0
  0
LTYPE
  5
32
100
AcDbSymbolTableRecord
100
AcDbLinetypeTableRecord
  2
DOT2
 70
0
  3
Dot (.5x) .....................................
 72
65
 73
2
 40
3.1749999999999998
 49
0.0
 74
0
 49
-3.1749999999999998
 74
0
  0
LTYPE
  5
33
100
AcDbSymbolTableRecord
100
AcDbLinetypeTableRecord
  2
DOTX2
 70
0
  3
Dot (2x) .  .  .  .  .  .  .  .  .  .  .  .  .
 72
65
 73
2
 40
12.6999999999999993
 49
0.0
 74
0
 49
-12.6999999999999993
 74
0
  0
LTYPE
  5
34
100
AcDbSymbolTableRecord
100
AcDbLinetypeTableRecord
  2
DASHED
 70
0
  3
Dashed __ __ __ __ __ __ __ __ __ __ __ __ __ _
 72
65
 73
2
 40
19.0500000000000007
 49
12.6999999999999993
 74
0
 49
-6.3499999999999996
 74
0
  0
LTYPE
  5
35
100
AcDbSymbolTableRecord
100
AcDbLinetypeTableRecord
  2
DASHED2
 70
0
  3
Dashed (.5x) _ _ _ _ _ _ _ _ _ _ _ _ _ _ _ _ _
 72
65
 73
2
 40
9.5250000000000004
 49
6.3499999999999996
 74
0
 49
-3.1749999999999998
 74
0
  0
LTYPE
  5
36
100
AcDbSymbolTableRecord
100
AcDbLinetypeTableRecord
  2
DASHEDX2
 70
0
  3
Dashed (2x) ____  ____  ____  ____  ____  ___
 72
65
 73
2
 40
38.1000000000000014
 49
25.3999999999999986
 74
0
 49
-12.6999999999999993
 74
0
  0
LTYPE
  5
37
100
AcDbSymbolTableRecord
100
AcDbLinetypeTableRecord
  2
DASHDOT
 70
0
  3
Dash dot __ . __ . __ . __ . __ . __ . __ . __
 72
65
 73
4
 40
25.3999999999999986
 49
12.6999999999999993
 74
0
 49
-6.3499999999999996
 74
0
 49
0.0
 74
0
 49
-6.3499999999999996
 74
0
  0
LTYPE
  5
38
100
AcDbSymbolTableRecord
100
AcDbLinetypeTableRecord
  2
DASHDOT2
 70
0
  3
Dash dot (.5x) _._._._._._._._._._._._._._._.
 72
65
 73
4
 40
12.6999999999999993
 49
6.3499999999999996
 74
0
 49
-3.1749999999999998
 74
0
 49
0.0
 74
0
 49
-3.1749999999999998
 74
0
  0
LTYPE
  5
39
100
AcDbSymbolTableRecord
100
AcDbLinetypeTableRecord
  2
DASHDOTX2
 70
0
  3
Dash dot (2x) ____  .  ____  .  ____  .  ___
 72
65
 73
4
 40
50.7999999999999972
 49
25.3999999999999986
 74
0
 49
-12.6999999999999993
 74
0
 49
0.0
 74
0
 49
-12.6999999999999993
 74
0
  0
LTYPE
  5
3A
100
AcDbSymbolTableRecord
100
AcDbLinetypeTableRecord
  2
DIVIDE
 70
0
  3
Divide ____ . . ____ . . ____ . . ____ . . ____
 72
65
 73
6
 40
31.75
 49
12.6999999999999993
 74
0
 49
-6.3499999999999996
 74
0
 49
0.0
 74
0
 49
-6.3499999999999996
 74
0
 49
0.0
 74
0
 49
-6.3499999999999996
 74
0
  0
LTYPE
  5
3B
100
AcDbSymbolTableRecord
100
AcDbLinetypeTableRecord
  2
DIVIDE2
 70
0
  3
Divide (.5x) __..__..__..__..__..__..__..__.._
 72
65
 73
6
 40
15.875
 49
6.3499999999999996
 74
0
 49
-3.1749999999999998
 74
0
 49
0.0
 74
0
 49
-3.1749999999999998
 74
0
 49
0.0
 74
0
 49
-3.1749999999999998
 74
0
  0
LTYPE
  5
3C
100
AcDbSymbolTableRecord
100
AcDbLinetypeTableRecord
  2
DIVIDEX2
 70
0
  3
Divide (2x) ________  .  .  ________  .  .  _
 72
65
 73
6
 40
63.5
 49
25.3999999999999986
 74
0
 49
-12.6999999999999993
 74
0
 49
0.0
 74
0
 49
-12.6999999999999993
 74
0
 49
0.0
 74
0
 49
-12.6999999999999993
 74
0
  0
LTYPE
  5
3D
100
AcDbSymbolTableRecord
100
AcDbLinetypeTableRecord
  2
CENTER
 70
0
  3
Center ____ _ ____ _ ____ _ ____ _ ____ _ ____
 72
65
 73
4
 40
50.7999999999999972
 49
31.75
 74
0
 49
-6.3499999999999996
 74
0
 49
6.3499999999999996
 74
0
 49
-6.3499999999999996
 74
0
  0
LTYPE
  5
3E
100
AcDbSymbolTableRecord
100
AcDbLinetypeTableRecord
  2
CENTER2
 70
0
  3
Center (.5x) ___ _ ___ _ ___ _ ___ _ ___ _ ___
 72
65
 73
4
 40
28.5749999999999993
 49
19.0500000000000007
 74
0
 49
-3.1749999999999998
 74
0
 49
3.1749999999999998
 74
0
 49
-3.1749999999999998
 74
0
  0
LTYPE
  5
3F
100
AcDbSymbolTableRecord
100
AcDbLinetypeTableRecord
  2
CENTERX2
 70
0
  3
Center (2x) ________  __  ________  __  _____
 72
65
 73
4
 40
101.5999999999999943
 49
63.5
 74
0
 49
-12.6999999999999993
 74
0
 49
12.6999999999999993
 74
0
 49
-12.6999999999999993
 74
0
  0
LTYPE
  5
40
100
AcDbSymbolTableRecord
100
AcDbLinetypeTableRecord
  2
BORDER
 70
0
  3
Border __ __ . __ __ . __ __ . __ __ . __ __ .
 72
65
 73
6
 40
44.4500000000000028
 49
12.6999999999999993
 74
0
 49
-6.3499999999999996
 74
0
 49
12.6999999999999993
 74
0
 49
-6.3499999999999996
 74
0
 49
0.0
 74
0
 49
-6.3499999999999996
 74
0
  0
LTYPE
  5
41
100
AcDbSymbolTableRecord
100
AcDbLinetypeTableRecord
  2
BORDER2
 70
0
  3
Border (.5x) __.__.__.__.__.__.__.__.__.__.__.
 72
65
 73
6
 40
22.2250000000000014
 49
6.3499999999999996
 74
0
 49
-3.1749999999999998
 74
0
 49
6.3499999999999996
 74
0
 49
-3.1749999999999998
 74
0
 49
0.0
 74
0
 49
-3.1749999999999998
 74
0
  0
LTYPE
  5
42
100
AcDbSymbolTableRecord
100
AcDbLinetypeTableRecord
  2
BORDERX2
 70
0
  3
Border (2x) ____  ____  .  ____  ____  .  ___
 72
65
 73
6
 40
88.9000000000000057
 49
25.3999999999999986
 74
0
 49
-12.6999999999999993
 74
0
 49
25.3999999999999986
 74
0
 49
-12.6999999999999993
 74
0
 49
0.0
 74
0
 49
-12.6999999999999993
 74
0
  0
ENDTAB
  0
TABLE
  2
LAYER
  5
2
100
AcDbSymbolTable
 70
4
  0
LAYER
  5
10
100
AcDbSymbolTableRecord
100
AcDbLayerTableRecord
  2
0
 70
0
 62
7
  6
CONTINUOUS
370
0
390
F
  0
LAYER
  5
43
100
AcDbSymbolTableRecord
100
AcDbLayerTableRecord
  2
centres
 70
1
 62
7
  6
CENTERX2
370
0
390
F
  0
LAYER
  5
44
100
AcDbSymbolTableRecord
100
AcDbLayerTableRecord
  2
dimensions
 70
1
 62
7
  6
CONTINUOUS
370
0
390
F
  0
LAYER
  5
45
100
AcDbSymbolTableRecord
100
AcDbLayerTableRecord
  2
bed
 70
1
 62
7
  6
CONTINUOUS
370
0
390
F
  0
ENDTAB
  0
TABLE
  2
STYLE
  5
3
100
AcDbSymbolTable
 70
1
  0
STYLE
  5
11
100
AcDbSymbolTableRecord
100
AcDbTextStyleTableRecord
  2
Standard
 70
0
 40
0.0
 41
0.75
 50
0.0
 71
0
 42
2.5
  3
txt
  4

  0
ENDTAB
  0
TABLE
  2
VIEW
  5
6
100
AcDbSymbolTable
 70
0
  0
ENDTAB
  0
TABLE
  2
UCS
  5
7
100
AcDbSymbolTable
 70
0
  0
ENDTAB
  0
TABLE
  2
APPID
  5
9
100
AcDbSymbolTable
 70
1
  0
APPID
  5
12
100
AcDbSymbolTableRecord
100
AcDbRegAppTableRecord
  2
ACAD
 70
0
  0
ENDTAB
  0
TABLE
  2
DIMSTYLE
  5
A
100
AcDbSymbolTable
 70
1
100
AcDbDimStyleTable
 71
0
  0
DIMSTYLE
105
27
100
AcDbSymbolTableRecord
100
AcDbDimStyleTableRecord
  2
Standard
 41
2.5
 42
0.625
 43
3.75
 44
1.25
 70
0
 73
0
 74
0
 77
1
 78
8
140
2.5
141
2.5
143
0.03937007874016
147
0.625
171
3
172
1
271
2
272
2
274
3
278
44
283
0
284
8
340
11
  0
ENDTAB
  0
TABLE
  2
BLOCK_RECORD
  5
1
100
AcDbSymbolTable
 70
1
  0
BLOCK_RECORD
  5
1F
100
AcDbSymbolTableRecord
100
AcDbBlockTableRecord
  2
*Model_Space
340
22
  0
BLOCK_RECORD
  5
1B
100
AcDbSymbolTableRecord
100
AcDbBlockTableRecord
  2
*Paper_Space
340
1E
  0
BLOCK_RECORD
  5
23
100
AcDbSymbolTableRecord
100
AcDbBlockTableRecord
  2
*Paper_Space0
340
26
  0
ENDTAB
  0
ENDSEC
  0
SECTION
  2
BLOCKS
  0
BLOCK
  5
20
100
AcDbEntity
  8
0
100
AcDbBlockBegin
  2
*Model_Space
 70
0
 10
0.0
 20
0.0
 30
0.0
  3
*Model_Space
  1

  0
ENDBLK
  5
21
100
AcDbEntity
  8
0
100
AcDbBlockEnd
  0
BLOCK
  5
1C
100
AcDbEntity
 67
1
  8
0
100
AcDbBlockBegin
  2
*Paper_Space
 70
0
 10
0.0
 20
0.0
 30
0.0
  3
*Paper_Space
  1

  0
ENDBLK
  5
1D
100
AcDbEntity
 67
1
  8
0
100
AcDbBlockEnd
  0
BLOCK
  5
24
100
AcDbEntity
  8
0
100
AcDbBlockBegin
  2
*Paper_Space0
 70
0
 10
0.0
 20
0.0
 30
0.0
  3
*Paper_Space0
  1

  0
ENDBLK
  5
25
100
AcDbEntity
  8
0
100
AcDbBlockEnd
  0
ENDSEC
  0
SECTION
  2
ENTITIES
  0
LINE
  5
46
100
AcDbEntity
100
AcDbLine
  8
centres
 62
256
370
-1
  6
ByLayer
 10
203.0
 20
10.0
 30
0.0
 11
203.0
 21
149.0
 31
0.0
  0
LINE
  5
47
100
AcDbEntity
100
AcDbLine
  8
centres
 62
256
370
-1
  6
ByLayer
 10
-10.0000000000000249
 20
14.0
 30
0.0
 11
262.0
 21
14.0
 31
0.0
  0
LINE
  5
48
100
AcDbEntity
100
AcDbLine
  8
centres
 62
256
370
-1
  6
ByLayer
 10
-50.0000000000000142
 20
72.0
 30
0.0
 11
262.0
 21
72.0
 31
0.0
  0
LINE
  5
49
100
AcDbEntity
100
AcDbLine
  8
centres
 62
256
370
-1
  6
ByLayer
 10
-10.0
 20
130.0
 30
0.0
 11
142.0
 21
130.0
 31
0.0
  0
LINE
  5
4A
100
AcDbEntity
100
AcDbLine
  8
centres
 62
256
370
-1
  6
CENTERX2
 10
-8.6000000000000014
 20
150.0
 30
0.0
 11
-8.6000000000000014
 21
10.0000000000000107
 31
0.0
  0
LINE
  5
4B
100
AcDbEntity
100
AcDbLine
  8
centres
 62
256
370
-1
  6
CENTERX2
 10
231.5999999999999943
 20
9.9999999999999929
 30
0.0
 11
231.5999999999999943
 21
149.0
 31
0.0
  0
LINE
  5
4C
100
AcDbEntity
100
AcDbLine
  8
bed
 62
256
370
-1
  6
ByLayer
 10
9.9999999999999982
 20
179.0
 30
0.0
 11
224.0
 21
179.0
 31
0.0
  0
LINE
  5
4D
100
AcDbEntity
100
AcDbLine
  8
bed
 62
256
370
-1
  6
ByLayer
 10
224.0
 20
179.0
 30
0.0
 11
224.0000000000000284
 21
-35.0
 31
0.0
  0
LINE
  5
4E
100
AcDbEntity
100
AcDbLine
  8
centres
 62
256
370
-1
  6
ByLayer
 10
9.9999999999999982
 20
176.5
 30
0.0
 11
224.0
 21
176.5
 31
0.0
  0
LINE
  5
4F
100
AcDbEntity
100
AcDbLine
  8
centres
 62
256
370
-1
  6
ByLayer
 10
10.0
 20
-32.5
 30
0.0
 11
224.0000000000000284
 21
-32.5
 31
0.0
  0
LINE
  5
50
100
AcDbEntity
100
AcDbLine
  8
centres
 62
256
370
-1
  6
ByLayer
 10
12.4999999999999982
 20
179.0
 30
0.0
 11
12.4999999999999982
 21
99.0
 31
0.0
  0
LINE
  5
51
100
AcDbEntity
100
AcDbLine
  8
centres
 62
256
370
-1
  6
ByLayer
 10
12.4999999999999982
 20
45.0
 30
0.0
 11
12.5
 21
-35.0
 31
0.0
  0
LINE
  5
52
100
AcDbEntity
100
AcDbLine
  8
centres
 62
256
370
-1
  6
ByLayer
 10
221.5
 20
179.0
 30
0.0
 11
221.5000000000000284
 21
-35.0
 31
0.0
  0
ARC
  5
53
100
AcDbEntity
  8
0
 62
256
370
-1
  6
ByLayer
100
AcDbCircle
 10
2.5000000000000191
 20
145.0
 30
0.0
 40
5.0
100
AcDbArc
 50
270.0
 51
0.0
  0
ARC
  5
54
100
AcDbEntity
  8
0
 62
256
370
-1
  6
ByLayer
100
AcDbCircle
 10
2.5000000000000027
 20
-1.0
 30
0.0
 40
5.0
100
AcDbArc
 50
360.0
 51
90.0000000000000142
  0
ARC
  5
55
100
AcDbEntity
  8
0
 62
256
370
-1
  6
ByLayer
100
AcDbCircle
 10
231.5000000000000284
 20
57.0
 30
0.0
 40
5.0
100
AcDbArc
 50
90.0
 51
180.0
  0
ARC
  5
56
100
AcDbEntity
  8
0
 62
256
370
-1
  6
ByLayer
100
AcDbCircle
 10
231.5000000000000284
 20
87.0
 30
0.0
 40
5.0
100
AcDbArc
 50
180.0
 51
270.0
  0
ARC
  5
57
100
AcDbEntity
  8
0
 62
256
370
-1
  6
ByLayer
100
AcDbCircle
 10
12.5000000000000249
 20
176.5
 30
0.0
 40
5.0
100
AcDbArc
 50
90.0
 51
180.0
  0
LINE
  5
58
100
AcDbEntity
100
AcDbLine
  8
0
 62
256
370
-1
  6
ByLayer
 10
-8.6000000000000014
 20
140.0
 30
0.0
 11
2.5000000000000178
 21
140.0
 31
0.0
  0
ARC
  5
59
100
AcDbEntity
  8
0
 62
256
370
-1
  6
ByLayer
100
AcDbCircle
 10
-8.6000000000000014
 20
135.0
 30
0.0
 40
5.0
100
AcDbArc
 50
90.0
 51
180.0
  0
LINE
  5
5A
100
AcDbEntity
100
AcDbLine
  8
0
 62
256
370
-1
  6
ByLayer
 10
-8.6000000000000068
 20
4.0
 30
0.0
 11
2.5000000000000018
 21
4.0
 31
0.0
  0
LINE
  5
5B
100
AcDbEntity
100
AcDbLine
  8
0
 62
256
370
-1
  6
ByLayer
 10
-13.6000000000000014
 20
135.0
 30
0.0
 11
-13.6000000000000068
 21
9.0
 31
0.0
  0
ARC
  5
5C
100
AcDbEntity
  8
0
 62
256
370
-1
  6
ByLayer
100
AcDbCircle
 10
-8.6000000000000068
 20
9.0
 30
0.0
 40
5.0
100
AcDbArc
 50
180.0
 51
270.0
  0
LINE
  5
5D
100
AcDbEntity
100
AcDbLine
  8
0
 62
256
370
-1
  6
ByLayer
 10
231.5000000000000284
 20
82.0
 30
0.0
 11
231.5999999999999943
 21
82.0
 31
0.0
  0
ARC
  5
5E
100
AcDbEntity
  8
0
 62
256
370
-1
  6
ByLayer
100
AcDbCircle
 10
231.5999999999999943
 20
77.0
 30
0.0
 40
5.0
100
AcDbArc
 50
0.0
 51
90.0
  0
LINE
  5
5F
100
AcDbEntity
100
AcDbLine
  8
0
 62
256
370
-1
  6
ByLayer
 10
236.5999999999999943
 20
67.0
 30
0.0
 11
236.5999999999999943
 21
77.0
 31
0.0
  0
LINE
  5
60
100
AcDbEntity
100
AcDbLine
  8
0
 62
256
370
-1
  6
ByLayer
 10
231.5000000000000284
 20
62.0
 30
0.0
 11
231.5999999999999943
 21
62.0
 31
0.0
  0
ARC
  5
61
100
AcDbEntity
  8
0
 62
256
370
-1
  6
ByLayer
100
AcDbCircle
 10
231.5999999999999943
 20
67.0
 30
0.0
 40
5.0
100
AcDbArc
 50
270.0
 51
0.0
  0
LINE
  5
62
100
AcDbEntity
100
AcDbLine
  8
centres
 62
256
370
-1
  6
ByLayer
 10
-0.6000000000000014
 20
150.0
 30
0.0
 11
-0.6000000000000014
 21
10.0000000000000089
 31
0.0
  0
DIMENSION
  5
63
100
AcDbEntity
  8
dimensions
 62
256
370
-1
  6
ByLayer
100
AcDbDimension
 10
231.5999999999999943
 20
-50.7399103139013334
 30
0.0
 11
111.4999999999999858
 21
-48.8649103139013334
 31
0.0
 70
0
 71
5
 72
0
 41
1.0
 42
0.0
  1

  3
Standard
100
AcDbAlignedDimension
 13
-8.6000000000000014
 23
14.0
 33
0.0
 14
231.5999999999999943
 24
72.0
 34
0.0
 50
0.0
100
AcDbRotatedDimension
  0
DIMENSION
  5
64
100
AcDbEntity
  8
dimensions
 62
256
370
-1
  6
ByLayer
100
AcDbDimension
 10
-22.9147982062780216
 20
14.0000000000000018
 30
0.0
 11
-24.7897982062780216
 21
-11.7499999999999929
 31
0.0
 70
0
 71
5
 72
0
 41
1.0
 42
0.0
  1

  3
Standard
100
AcDbAlignedDimension
 13
117.0
 23
-37.5
 33
0.0
 14
-8.6000000000000014
 24
14.0
 34
0.0
 50
90.0
100
AcDbRotatedDimension
  0
DIMENSION
  5
65
100
AcDbEntity
  8
dimensions
 62
256
370
-1
  6
ByLayer
100
AcDbDimension
 10
-33.1446188340807169
 20
130.0
 30
0.0
 11
-35.019618834080724
 21
46.25
 31
0.0
 70
0
 71
5
 72
0
 41
1.0
 42
0.0
  1

  3
Standard
100
AcDbAlignedDimension
 13
117.0
 23
-37.5
 33
0.0
 14
-8.6000000000000014
 24
130.0
 34
0.0
 50
90.0
100
AcDbRotatedDimension
  0
LINE
  5
66
100
AcDbEntity
100
AcDbLine
  8
centres
 62
256
370
-1
  6
CENTERX2
 10
12.4999999999999982
 20
176.5
 30
0.0
 11
221.5000000000000284
 21
-32.5
 31
0.0
  0
LINE
  5
67
100
AcDbEntity
100
AcDbLine
  8
centres
 62
256
370
-1
  6
CENTERX2
 10
221.5000000000000284
 20
-32.5
 30
0.0
 11
221.5
 21
176.5
 31
0.0
  0
LINE
  5
68
100
AcDbEntity
100
AcDbLine
  8
centres
 62
256
370
-1
  6
CENTERX2
 10
221.5
 20
176.5
 30
0.0
 11
12.5
 21
-32.5
 31
0.0
  0
LINE
  5
69
100
AcDbEntity
100
AcDbLine
  8
0
 62
256
370
-1
  6
CONTINUOUS
 10
4.9999999999999929
 20
80.0
 30
0.0
 11
20.0
 21
80.0
 31
0.0
  0
LINE
  5
6A
100
AcDbEntity
100
AcDbLine
  8
0
 62
256
370
-1
  6
ByLayer
 10
20.0
 20
80.0
 30
0.0
 11
20.0
 21
54.0
 31
0.0
  0
LINE
  5
6B
100
AcDbEntity
100
AcDbLine
  8
0
 62
256
370
-1
  6
CONTINUOUS
 10
4.9999999999999929
 20
80.0
 30
0.0
 11
4.9999999999999893
 21
54.0
 31
0.0
  0
LINE
  5
6C
100
AcDbEntity
100
AcDbLine
  8
0
 62
256
370
-1
  6
CONTINUOUS
 10
4.9999999999999893
 20
54.0
 30
0.0
 11
20.0
 21
54.0
 31
0.0
  0
LINE
  5
6D
100
AcDbEntity
100
AcDbLine
  8
bed
 62
256
370
-1
  6
ByLayer
 10
9.9999999999999734
 20
-35.0
 30
0.0
 11
224.0000000000000284
 21
-35.0
 31
0.0
  0
LINE
  5
6E
100
AcDbEntity
100
AcDbLine
  8
bed
 62
256
370
-1
  6
ByLayer
 10
9.9999999999999982
 20
179.0
 30
0.0
 11
9.9999999999999734
 21
-35.0
 31
0.0
  0
LINE
  5
6F
100
AcDbEntity
100
AcDbLine
  8
0
 62
256
370
-1
  6
ByLayer
 10
7.5000000000000204
 20
151.529437251522836
 30
0.0
 11
7.5000000000000195
 21
145.0
 31
0.0
  0
LINE
  5
70
100
AcDbEntity
100
AcDbLine
  8
0
 62
256
370
-1
  6
ByLayer
 10
7.5000000000000213
 20
161.4289321881345529
 30
0.0
 11
7.5000000000000213
 21
157.5294372515228929
 31
0.0
  0
LINE
  5
71
100
AcDbEntity
100
AcDbLine
  8
0
 62
256
370
-1
  6
ByLayer
 10
7.5000000000000231
 20
176.5
 30
0.0
 11
7.5000000000000222
 21
167.4289321881345813
 31
0.0
  0
LINE
  5
72
100
AcDbEntity
100
AcDbLine
  8
0
 62
256
370
-1
  6
ByLayer
 10
27.5710678118654648
 20
181.642135623730951
 30
0.0
 11
31.4705627484771213
 21
181.642135623730951
 31
0.0
  0
ARC
  5
73
100
AcDbEntity
  8
0
 62
256
370
-1
  6
ByLayer
100
AcDbCircle
 10
12.5
 20
-32.4999999999999716
 30
0.0
 40
5.0
100
AcDbArc
 50
180.0
 51
270.0
  0
LINE
  5
74
100
AcDbEntity
100
AcDbLine
  8
0
 62
256
370
-1
  6
ByLayer
 10
27.5710678118654435
 20
-37.4999999999999858
 30
0.0
 11
31.4705627484771036
 21
-37.4999999999999858
 31
0.0
  0
LINE
  5
75
100
AcDbEntity
100
AcDbLine
  8
0
 62
256
370
-1
  6
ByLayer
 10
12.4999999999999982
 20
-37.4999999999999716
 30
0.0
 11
21.5710678118654187
 21
-37.4999999999999716
 31
0.0
  0
LINE
  5
76
100
AcDbEntity
100
AcDbLine
  8
0
 62
256
370
-1
  6
ByLayer
 10
7.357864376269049
 20
-17.4289321881345245
 30
0.0
 11
7.3578643762690499
 21
-13.5294372515228929
 31
0.0
  0
ARC
  5
77
100
AcDbEntity
  8
0
 62
256
370
-1
  6
ByLayer
100
AcDbCircle
 10
221.5
 20
-32.5
 30
0.0
 40
5.0
100
AcDbArc
 50
270.0
 51
360.0
  0
LINE
  5
78
100
AcDbEntity
100
AcDbLine
  8
0
 62
256
370
-1
  6
ByLayer
 10
226.5
 20
-17.4289321881345565
 30
0.0
 11
226.5000000000000284
 21
-13.5294372515228964
 31
0.0
  0
LINE
  5
79
100
AcDbEntity
100
AcDbLine
  8
0
 62
256
370
-1
  6
ByLayer
 10
226.5
 20
-32.5
 30
0.0
 11
226.5
 21
-23.4289321881345813
 31
0.0
  0
LINE
  5
7A
100
AcDbEntity
100
AcDbLine
  8
0
 62
256
370
-1
  6
ByLayer
 10
206.4289321881345529
 20
-37.642135623730951
 30
0.0
 11
202.5294372515229213
 21
-37.6421356237309439
 31
0.0
  0
ARC
  5
7B
100
AcDbEntity
  8
0
 62
256
370
-1
  6
ByLayer
100
AcDbCircle
 10
221.5
 20
176.4999999999999716
 30
0.0
 40
5.0
100
AcDbArc
 50
0.0
 51
90.0
  0
LINE
  5
7C
100
AcDbEntity
100
AcDbLine
  8
0
 62
256
370
-1
  6
ByLayer
 10
206.4289321881345529
 20
181.4999999999999716
 30
0.0
 11
202.5294372515228929
 21
181.4999999999999716
 31
0.0
  0
LINE
  5
7D
100
AcDbEntity
100
AcDbLine
  8
0
 62
256
370
-1
  6
ByLayer
 10
221.5
 20
181.4999999999999716
 30
0.0
 11
212.4289321881345813
 21
181.4999999999999716
 31
0.0
  0
LINE
  5
7E
100
AcDbEntity
100
AcDbLine
  8
0
 62
256
370
-1
  6
ByLayer
 10
226.642135623730951
 20
161.4289321881345245
 30
0.0
 11
226.642135623730951
 21
157.5294372515228929
 31
0.0
  0
CIRCLE
  5
7F
100
AcDbEntity
100
AcDbCircle
  8
0
 62
256
370
-1
  6
ByLayer
 10
-8.6000000000000014
 20
130.0
 30
0.0
 40
1.3999999999999999
  0
CIRCLE
  5
80
100
AcDbEntity
100
AcDbCircle
  8
0
 62
256
370
-1
  6
ByLayer
 10
-8.6000000000000014
 20
14.0
 30
0.0
 40
1.3999999999999999
  0
CIRCLE
  5
81
100
AcDbEntity
100
AcDbCircle
  8
0
 62
256
370
-1
  6
ByLayer
 10
231.5999999999999659
 20
72.0
 30
0.0
 40
1.3999999999999999
  0
CIRCLE
  5
82
100
AcDbEntity
100
AcDbCircle
  8
0
 62
256
370
-1
  6
ByLayer
 10
12.4999999999999982
 20
176.5
 30
0.0
 40
1.3999999999999999
  0
CIRCLE
  5
83
100
AcDbEntity
100
AcDbCircle
  8
0
 62
256
370
-1
  6
CONTINUOUS
 10
117.0000000000000142
 20
72.0
 30
0.0
 40
3.0
  0
CIRCLE
  5
84
100
AcDbEntity
100
AcDbCircle
  8
0
 62
256
370
-1
  6
CONTINUOUS
 10
-5.0
 20
96.0
 30
0.0
 40
1.5
  0
CIRCLE
  5
85
100
AcDbEntity
100
AcDbCircle
  8
0
 62
256
370
-1
  6
CONTINUOUS
 10
1.0
 20
101.0
 30
0.0
 40
1.5
  0
ARC
  5
86
100
AcDbEntity
  8
0
 62
7
370
0
  6
CONTINUOUS
100
AcDbCircle
 10
120.0
 20
67.0
 30
0.0
 40
25.0
100
AcDbArc
 50
148.2955399998915027
 51
204.2667390376974197
  0
ARC
  5
87
100
AcDbEntity
  8
0
 62
7
370
0
  6
CONTINUOUS
100
AcDbCircle
 10
123.0
 20
67.0
 30
0.0
 40
25.0
100
AcDbArc
 50
183.1088994748764378
 51
221.2077403010331977
  0
ARC
  5
88
100
AcDbEntity
  8
0
 62
7
370
0
  6
CONTINUOUS
100
AcDbCircle
 10
119.8301270189222123
 20
77.0980762113533018
 30
0.0
 40
25.0
100
AcDbArc
 50
268.2955399998915027
 51
324.2667390376974481
  0
ARC
  5
89
100
AcDbEntity
  8
0
 62
7
370
0
  6
CONTINUOUS
100
AcDbCircle
 10
118.3301270189222123
 20
79.6961524227066178
 30
0.0
 40
25.0
100
AcDbArc
 50
303.1088994748764094
 51
341.2077403010331409
  0
ARC
  5
8A
100
AcDbEntity
  8
0
 62
7
370
0
  6
CONTINUOUS
100
AcDbCircle
 10
111.1698729810778303
 20
71.9019237886466982
 30
0.0
 40
25.0
100
AcDbArc
 50
28.2955399998914991
 51
84.2667390376974197
  0
ARC
  5
8B
100
AcDbEntity
  8
0
 62
7
370
0
  6
CONTINUOUS
100
AcDbCircle
 10
109.6698729810778303
 20
69.3038475772933822
 30
0.0
 40
25.0
100
AcDbArc
 50
63.1088994748763952
 51
101.2077403010331267
  0
ARC
  5
8C
100
AcDbEntity
  8
0
 62
7
370
0
  6
CONTINUOUS
100
AcDbCircle
 10
117.0000000000000142
 20
72.0
 30
0.0
 40
25.0
100
AcDbArc
 50
359.1811175144368917
 51
97.6607740264493458
  0
ARC
  5
8D
100
AcDbEntity
  8
0
 62
7
370
0
  6
CONTINUOUS
100
AcDbCircle
 10
117.0000000000000142
 20
72.0
 30
0.0
 40
25.0
100
AcDbArc
 50
239.181117514436238
 51
337.66077402644936
  0
ARC
  5
8E
100
AcDbEntity
  8
0
 62
7
370
0
  6
CONTINUOUS
100
AcDbCircle
 10
117.0000000000000142
 20
72.0
 30
0.0
 40
25.0
100
AcDbArc
 50
119.1811175144362807
 51
217.6607740264493316
  0
ARC
  5
8F
100
AcDbEntity
  8
0
 62
7
370
0
  6
CONTINUOUS
100
AcDbCircle
 10
117.0000000000000142
 20
72.0
 30
0.0
 40
20.0
100
AcDbArc
 50
78.5294702678665573
 51
155.9883524514513624
  0
ARC
  5
90
100
AcDbEntity
  8
0
 62
7
370
0
  6
CONTINUOUS
100
AcDbCircle
 10
117.0000000000000142
 20
72.0
 30
0.0
 40
20.0
100
AcDbArc
 50
318.5294702678665999
 51
35.9883524514512985
  0
ARC
  5
91
100
AcDbEntity
  8
0
 62
7
370
0
  6
CONTINUOUS
100
AcDbCircle
 10
117.0000000000000142
 20
72.0
 30
0.0
 40
20.0
100
AcDbArc
 50
198.5294702678665431
 51
275.9883524514513056
  0
LINE
  5
92
100
AcDbEntity
100
AcDbLine
  8
0
 62
256
370
-1
  6
ByLayer
 10
14.7426406871193247
 20
154.5294372515228645
 30
0.0
 11
9.7928932188134787
 21
159.4791847198287087
 31
0.0
  0
LINE
  5
93
100
AcDbEntity
100
AcDbLine
  8
0
 62
256
370
-1
  6
ByLayer
 10
14.7426406871193194
 20
164.4289321881345245
 30
0.0
 11
9.7928932188134787
 21
159.4791847198287087
 31
0.0
  0
LINE
  5
94
100
AcDbEntity
100
AcDbLine
  8
0
 62
256
370
-1
  6
ByLayer
 10
17.5710678118655004
 20
164.4289321881345245
 30
0.0
 11
12.6213203435596721
 21
159.4791847198287087
 31
0.0
  0
LINE
  5
95
100
AcDbEntity
100
AcDbLine
  8
0
 62
256
370
-1
  6
ByLayer
 10
17.5710678118655039
 20
154.5294372515228645
 30
0.0
 11
12.6213203435596721
 21
159.4791847198287087
 31
0.0
  0
LINE
  5
96
100
AcDbEntity
100
AcDbLine
  8
0
 62
256
370
-1
  6
ByLayer
 10
17.5710678118655004
 20
164.4289321881345245
 30
0.0
 11
12.5000000000000266
 21
169.5
 31
0.0
  0
LINE
  5
97
100
AcDbEntity
100
AcDbLine
  8
0
 62
256
370
-1
  6
ByLayer
 10
14.7426406871193194
 20
164.4289321881345245
 30
0.0
 11
10.5000000000000231
 21
168.6715728752538439
 31
0.0
  0
LINE
  5
98
100
AcDbEntity
100
AcDbLine
  8
0
 62
256
370
-1
  6
ByLayer
 10
10.5000000000000231
 20
168.6715728752538439
 30
0.0
 11
10.5000000000000231
 21
171.5
 31
0.0
  0
LINE
  5
99
100
AcDbEntity
100
AcDbLine
  8
0
 62
256
370
-1
  6
ByLayer
 10
10.5000000000000338
 20
164.4289321881345529
 30
0.0
 11
7.5000000000000213
 21
161.4289321881345529
 31
0.0
  0
LINE
  5
9A
100
AcDbEntity
100
AcDbLine
  8
0
 62
256
370
-1
  6
ByLayer
 10
10.5000000000000338
 20
164.4289321881345529
 30
0.0
 11
7.5000000000000222
 21
167.4289321881345813
 31
0.0
  0
LINE
  5
9B
100
AcDbEntity
100
AcDbLine
  8
0
 62
256
370
-1
  6
ByLayer
 10
10.5000000000000515
 20
154.5294372515228645
 30
0.0
 11
7.5000000000000204
 21
151.529437251522836
 31
0.0
  0
LINE
  5
9C
100
AcDbEntity
100
AcDbLine
  8
0
 62
256
370
-1
  6
ByLayer
 10
10.5000000000000515
 20
154.5294372515228645
 30
0.0
 11
7.5000000000000213
 21
157.5294372515228929
 31
0.0
  0
LINE
  5
9D
100
AcDbEntity
100
AcDbLine
  8
0
 62
256
370
-1
  6
ByLayer
 10
34.4705627484771568
 20
174.39949493661166
 30
0.0
 11
29.520815280171302
 21
179.3492424049175042
 31
0.0
  0
LINE
  5
9E
100
AcDbEntity
100
AcDbLine
  8
0
 62
256
370
-1
  6
ByLayer
 10
24.5710678118654968
 20
174.39949493661166
 30
0.0
 11
29.520815280171302
 21
179.3492424049175042
 31
0.0
  0
LINE
  5
9F
100
AcDbEntity
100
AcDbLine
  8
0
 62
256
370
-1
  6
ByLayer
 10
24.5710678118654968
 20
171.5710678118654755
 30
0.0
 11
29.5208152801713126
 21
176.5208152801712913
 31
0.0
  0
LINE
  5
A0
100
AcDbEntity
100
AcDbLine
  8
0
 62
256
370
-1
  6
ByLayer
 10
34.4705627484771568
 20
171.5710678118654755
 30
0.0
 11
29.5208152801713126
 21
176.5208152801712913
 31
0.0
  0
LINE
  5
A1
100
AcDbEntity
100
AcDbLine
  8
0
 62
256
370
-1
  6
ByLayer
 10
24.5710678118654968
 20
171.5710678118654755
 30
0.0
 11
19.5000000000000178
 21
176.642135623730951
 31
0.0
  0
LINE
  5
A2
100
AcDbEntity
100
AcDbLine
  8
0
 62
256
370
-1
  6
ByLayer
 10
24.5710678118654968
 20
174.39949493661166
 30
0.0
 11
20.3284271247461774
 21
178.642135623730951
 31
0.0
  0
LINE
  5
A3
100
AcDbEntity
100
AcDbLine
  8
0
 62
256
370
-1
  6
ByLayer
 10
20.3284271247461774
 20
178.642135623730951
 30
0.0
 11
17.5000000000000213
 21
178.642135623730951
 31
0.0
  0
LINE
  5
A4
100
AcDbEntity
100
AcDbLine
  8
0
 62
256
370
-1
  6
ByLayer
 10
24.571067811865472
 20
178.642135623730951
 30
0.0
 11
27.5710678118654648
 21
181.642135623730951
 31
0.0
  0
LINE
  5
A5
100
AcDbEntity
100
AcDbLine
  8
0
 62
256
370
-1
  6
ByLayer
 10
24.571067811865472
 20
178.642135623730951
 30
0.0
 11
21.5710678118654364
 21
181.642135623730951
 31
0.0
  0
LINE
  5
A6
100
AcDbEntity
100
AcDbLine
  8
0
 62
256
370
-1
  6
ByLayer
 10
34.4705627484771497
 20
178.6421356237309226
 30
0.0
 11
37.4705627484771782
 21
181.642135623730951
 31
0.0
  0
LINE
  5
A7
100
AcDbEntity
100
AcDbLine
  8
0
 62
256
370
-1
  6
ByLayer
 10
34.4705627484771497
 20
178.6421356237309226
 30
0.0
 11
31.4705627484771213
 21
181.642135623730951
 31
0.0
  0
LINE
  5
A8
100
AcDbEntity
100
AcDbLine
  8
0
 62
256
370
-1
  6
ByLayer
 10
17.5000000000000213
 20
178.642135623730951
 30
0.0
 11
17.5000000000000213
 21
171.5
 31
0.0
  0
LINE
  5
A9
100
AcDbEntity
100
AcDbLine
  8
0
 62
256
370
-1
  6
ByLayer
 10
10.5000000000000231
 20
171.5
 30
0.0
 11
17.5000000000000213
 21
171.5
 31
0.0
  0
LINE
  5
AA
100
AcDbEntity
100
AcDbLine
  8
0
 62
256
370
-1
  6
ByLayer
 10
19.5000000000000178
 20
176.642135623730951
 30
0.0
 11
19.5000000000000178
 21
169.5
 31
0.0
  0
LINE
  5
AB
100
AcDbEntity
100
AcDbLine
  8
0
 62
256
370
-1
  6
ByLayer
 10
12.5000000000000266
 20
169.5
 30
0.0
 11
19.5000000000000178
 21
169.5
 31
0.0
  0
LINE
  5
AC
100
AcDbEntity
100
AcDbLine
  8
0
 62
256
370
-1
  6
ByLayer
 10
21.5710678118654364
 20
181.642135623730951
 30
0.0
 11
12.5000000000000249
 21
181.5
 31
0.0
  0
CIRCLE
  5
AD
100
AcDbEntity
100
AcDbCircle
  8
0
 62
256
370
-1
  6
ByLayer
 10
12.5
 20
-32.5
 30
0.0
 40
1.3999999999999999
  0
LINE
  5
AE
100
AcDbEntity
100
AcDbLine
  8
0
 62
256
370
-1
  6
ByLayer
 10
34.4705627484771355
 20
-30.2573593128806806
 30
0.0
 11
29.5208152801712878
 21
-35.2071067811865319
 31
0.0
  0
LINE
  5
AF
100
AcDbEntity
100
AcDbLine
  8
0
 62
256
370
-1
  6
ByLayer
 10
24.5710678118654755
 20
-30.2573593128806841
 30
0.0
 11
29.5208152801712878
 21
-35.2071067811865319
 31
0.0
  0
LINE
  5
B0
100
AcDbEntity
100
AcDbLine
  8
0
 62
256
370
-1
  6
ByLayer
 10
24.5710678118654755
 20
-27.4289321881344961
 30
0.0
 11
29.5208152801712913
 21
-32.3786796564403474
 31
0.0
  0
LINE
  5
B1
100
AcDbEntity
100
AcDbLine
  8
0
 62
256
370
-1
  6
ByLayer
 10
34.4705627484771355
 20
-27.4289321881345103
 30
0.0
 11
29.5208152801712913
 21
-32.3786796564403474
 31
0.0
  0
LINE
  5
B2
100
AcDbEntity
100
AcDbLine
  8
0
 62
256
370
-1
  6
ByLayer
 10
24.5710678118654755
 20
-27.4289321881344961
 30
0.0
 11
19.5
 21
-32.4999999999999787
 31
0.0
  0
LINE
  5
B3
100
AcDbEntity
100
AcDbLine
  8
0
 62
256
370
-1
  6
ByLayer
 10
24.5710678118654755
 20
-30.2573593128806841
 30
0.0
 11
20.3284271247461561
 21
-34.4999999999999716
 31
0.0
  0
LINE
  5
B4
100
AcDbEntity
100
AcDbLine
  8
0
 62
256
370
-1
  6
ByLayer
 10
20.3284271247461561
 20
-34.4999999999999716
 30
0.0
 11
17.5
 21
-34.4999999999999716
 31
0.0
  0
LINE
  5
B5
100
AcDbEntity
100
AcDbLine
  8
0
 62
256
370
-1
  6
ByLayer
 10
24.5710678118654471
 20
-34.4999999999999716
 30
0.0
 11
27.5710678118654435
 21
-37.4999999999999858
 31
0.0
  0
LINE
  5
B6
100
AcDbEntity
100
AcDbLine
  8
0
 62
256
370
-1
  6
ByLayer
 10
24.5710678118654471
 20
-34.4999999999999716
 30
0.0
 11
21.5710678118654187
 21
-37.4999999999999716
 31
0.0
  0
LINE
  5
B7
100
AcDbEntity
100
AcDbLine
  8
0
 62
256
370
-1
  6
ByLayer
 10
34.4705627484771355
 20
-34.4999999999999432
 30
0.0
 11
37.470562748477164
 21
-37.4999999999999787
 31
0.0
  0
LINE
  5
B8
100
AcDbEntity
100
AcDbLine
  8
0
 62
256
370
-1
  6
ByLayer
 10
34.4705627484771355
 20
-34.4999999999999432
 30
0.0
 11
31.4705627484771036
 21
-37.4999999999999858
 31
0.0
  0
LINE
  5
B9
100
AcDbEntity
100
AcDbLine
  8
0
 62
256
370
-1
  6
ByLayer
 10
14.6005050633883506
 20
-10.5294372515228396
 30
0.0
 11
9.6507575950824993
 21
-15.4791847198287087
 31
0.0
  0
LINE
  5
BA
100
AcDbEntity
100
AcDbLine
  8
0
 62
256
370
-1
  6
ByLayer
 10
14.6005050633883382
 20
-20.4289321881344961
 30
0.0
 11
9.6507575950824993
 21
-15.4791847198287087
 31
0.0
  0
LINE
  5
BB
100
AcDbEntity
100
AcDbLine
  8
0
 62
256
370
-1
  6
ByLayer
 10
17.4289321881345316
 20
-20.4289321881344961
 30
0.0
 11
12.4791847198303376
 21
-15.4791847198286803
 31
0.0
  0
LINE
  5
BC
100
AcDbEntity
100
AcDbLine
  8
0
 62
256
370
-1
  6
ByLayer
 10
17.4289321881345423
 20
-10.5294372515228396
 30
0.0
 11
12.4791847198303376
 21
-15.4791847198286803
 31
0.0
  0
LINE
  5
BD
100
AcDbEntity
100
AcDbLine
  8
0
 62
256
370
-1
  6
ByLayer
 10
17.4289321881345316
 20
-20.4289321881344961
 30
0.0
 11
12.3578643762690294
 21
-25.4999999999999716
 31
0.0
  0
LINE
  5
BE
100
AcDbEntity
100
AcDbLine
  8
0
 62
256
370
-1
  6
ByLayer
 10
14.6005050633883382
 20
-20.4289321881344961
 30
0.0
 11
10.3578643762690472
 21
-24.6715728752538155
 31
0.0
  0
LINE
  5
BF
100
AcDbEntity
100
AcDbLine
  8
0
 62
256
370
-1
  6
ByLayer
 10
10.3578643762690472
 20
-24.6715728752538155
 30
0.0
 11
10.3578643762690508
 21
-27.4999999999999716
 31
0.0
  0
LINE
  5
C0
100
AcDbEntity
100
AcDbLine
  8
0
 62
256
370
-1
  6
ByLayer
 10
10.3578643762690508
 20
-20.4289321881345245
 30
0.0
 11
7.357864376269049
 21
-17.4289321881345245
 31
0.0
  0
LINE
  5
C1
100
AcDbEntity
100
AcDbLine
  8
0
 62
256
370
-1
  6
ByLayer
 10
10.3578643762690508
 20
-20.4289321881345245
 30
0.0
 11
7.3578643762690481
 21
-23.4289321881345529
 31
0.0
  0
LINE
  5
C2
100
AcDbEntity
100
AcDbLine
  8
0
 62
256
370
-1
  6
ByLayer
 10
10.357864376269081
 20
-10.529437251522836
 30
0.0
 11
7.357864376269049
 21
-7.529437251522836
 31
0.0
  0
LINE
  5
C3
100
AcDbEntity
100
AcDbLine
  8
0
 62
256
370
-1
  6
ByLayer
 10
10.357864376269081
 20
-10.529437251522836
 30
0.0
 11
7.3578643762690499
 21
-13.5294372515228929
 31
0.0
  0
LINE
  5
C4
100
AcDbEntity
100
AcDbLine
  8
0
 62
256
370
-1
  6
ByLayer
 10
10.3578643762690508
 20
-27.4999999999999716
 30
0.0
 11
17.5
 21
-27.4999999999999751
 31
0.0
  0
LINE
  5
C5
100
AcDbEntity
100
AcDbLine
  8
0
 62
256
370
-1
  6
ByLayer
 10
17.5
 20
-34.4999999999999716
 30
0.0
 11
17.5
 21
-27.4999999999999751
 31
0.0
  0
LINE
  5
C6
100
AcDbEntity
100
AcDbLine
  8
0
 62
256
370
-1
  6
ByLayer
 10
12.3578643762690294
 20
-25.4999999999999716
 30
0.0
 11
19.5000000000000036
 21
-25.4999999999999751
 31
0.0
  0
LINE
  5
C7
100
AcDbEntity
100
AcDbLine
  8
0
 62
256
370
-1
  6
ByLayer
 10
19.5
 20
-32.4999999999999787
 30
0.0
 11
19.5000000000000036
 21
-25.4999999999999751
 31
0.0
  0
LINE
  5
C8
100
AcDbEntity
100
AcDbLine
  8
0
 62
256
370
-1
  6
ByLayer
 10
7.3578643762690481
 20
-23.4289321881345529
 30
0.0
 11
7.5
 21
-32.4999999999999716
 31
0.0
  0
CIRCLE
  5
C9
100
AcDbEntity
100
AcDbCircle
  8
0
 62
256
370
-1
  6
ByLayer
 10
221.5000000000000284
 20
-32.5
 30
0.0
 40
1.3999999999999999
  0
LINE
  5
CA
100
AcDbEntity
100
AcDbLine
  8
0
 62
256
370
-1
  6
ByLayer
 10
219.257359312880709
 20
-10.5294372515228645
 30
0.0
 11
224.2071067811865532
 21
-15.4791847198287122
 31
0.0
  0
LINE
  5
CB
100
AcDbEntity
100
AcDbLine
  8
0
 62
256
370
-1
  6
ByLayer
 10
219.257359312880709
 20
-20.4289321881345245
 30
0.0
 11
224.2071067811865532
 21
-15.4791847198287122
 31
0.0
  0
LINE
  5
CC
100
AcDbEntity
100
AcDbLine
  8
0
 62
256
370
-1
  6
ByLayer
 10
216.4289321881345245
 20
-20.4289321881345245
 30
0.0
 11
221.3786796564403687
 21
-15.4791847198287087
 31
0.0
  0
LINE
  5
CD
100
AcDbEntity
100
AcDbLine
  8
0
 62
256
370
-1
  6
ByLayer
 10
216.4289321881345245
 20
-10.5294372515228609
 30
0.0
 11
221.3786796564403687
 21
-15.4791847198287087
 31
0.0
  0
LINE
  5
CE
100
AcDbEntity
100
AcDbLine
  8
0
 62
256
370
-1
  6
ByLayer
 10
216.4289321881345245
 20
-20.4289321881345245
 30
0.0
 11
221.5
 21
-25.5
 31
0.0
  0
LINE
  5
CF
100
AcDbEntity
100
AcDbLine
  8
0
 62
256
370
-1
  6
ByLayer
 10
219.257359312880709
 20
-20.4289321881345245
 30
0.0
 11
223.5
 21
-24.6715728752538439
 31
0.0
  0
LINE
  5
D0
100
AcDbEntity
100
AcDbLine
  8
0
 62
256
370
-1
  6
ByLayer
 10
223.5
 20
-24.6715728752538439
 30
0.0
 11
223.5
 21
-27.5
 31
0.0
  0
LINE
  5
D1
100
AcDbEntity
100
AcDbLine
  8
0
 62
256
370
-1
  6
ByLayer
 10
223.5
 20
-20.4289321881345529
 30
0.0
 11
226.5
 21
-17.4289321881345565
 31
0.0
  0
LINE
  5
D2
100
AcDbEntity
100
AcDbLine
  8
0
 62
256
370
-1
  6
ByLayer
 10
223.5
 20
-20.4289321881345529
 30
0.0
 11
226.5
 21
-23.4289321881345813
 31
0.0
  0
LINE
  5
D3
100
AcDbEntity
100
AcDbLine
  8
0
 62
256
370
-1
  6
ByLayer
 10
223.4999999999999716
 20
-10.5294372515228645
 30
0.0
 11
226.5
 21
-7.529437251522836
 31
0.0
  0
LINE
  5
D4
100
AcDbEntity
100
AcDbLine
  8
0
 62
256
370
-1
  6
ByLayer
 10
223.4999999999999716
 20
-10.5294372515228645
 30
0.0
 11
226.5000000000000284
 21
-13.5294372515228964
 31
0.0
  0
LINE
  5
D5
100
AcDbEntity
100
AcDbLine
  8
0
 62
256
370
-1
  6
ByLayer
 10
199.5294372515228645
 20
-30.3994949366116494
 30
0.0
 11
204.4791847198287371
 21
-35.3492424049174971
 31
0.0
  0
LINE
  5
D6
100
AcDbEntity
100
AcDbLine
  8
0
 62
256
370
-1
  6
ByLayer
 10
209.4289321881345245
 20
-30.39949493661166
 30
0.0
 11
204.4791847198287371
 21
-35.3492424049174971
 31
0.0
  0
LINE
  5
D7
100
AcDbEntity
100
AcDbLine
  8
0
 62
256
370
-1
  6
ByLayer
 10
209.4289321881345245
 20
-27.5710678118654684
 30
0.0
 11
204.4791847198287087
 21
-32.5208152801696642
 31
0.0
  0
LINE
  5
D8
100
AcDbEntity
100
AcDbLine
  8
0
 62
256
370
-1
  6
ByLayer
 10
199.5294372515228645
 20
-27.5710678118654577
 30
0.0
 11
204.4791847198287087
 21
-32.5208152801696642
 31
0.0
  0
LINE
  5
D9
100
AcDbEntity
100
AcDbLine
  8
0
 62
256
370
-1
  6
ByLayer
 10
209.4289321881345245
 20
-27.5710678118654684
 30
0.0
 11
214.5
 21
-32.6421356237309723
 31
0.0
  0
LINE
  5
DA
100
AcDbEntity
100
AcDbLine
  8
0
 62
256
370
-1
  6
ByLayer
 10
209.4289321881345245
 20
-30.39949493661166
 30
0.0
 11
213.6715728752538439
 21
-34.642135623730951
 31
0.0
  0
LINE
  5
DB
100
AcDbEntity
100
AcDbLine
  8
0
 62
256
370
-1
  6
ByLayer
 10
213.6715728752538439
 20
-34.642135623730951
 30
0.0
 11
216.5
 21
-34.642135623730951
 31
0.0
  0
LINE
  5
DC
100
AcDbEntity
100
AcDbLine
  8
0
 62
256
370
-1
  6
ByLayer
 10
209.4289321881345529
 20
-34.642135623730951
 30
0.0
 11
206.4289321881345529
 21
-37.642135623730951
 31
0.0
  0
LINE
  5
DD
100
AcDbEntity
100
AcDbLine
  8
0
 62
256
370
-1
  6
ByLayer
 10
209.4289321881345529
 20
-34.642135623730951
 30
0.0
 11
212.4289321881345813
 21
-37.642135623730951
 31
0.0
  0
LINE
  5
DE
100
AcDbEntity
100
AcDbLine
  8
0
 62
256
370
-1
  6
ByLayer
 10
199.5294372515228645
 20
-34.6421356237309155
 30
0.0
 11
196.5294372515228645
 21
-37.642135623730951
 31
0.0
  0
LINE
  5
DF
100
AcDbEntity
100
AcDbLine
  8
0
 62
256
370
-1
  6
ByLayer
 10
199.5294372515228645
 20
-34.6421356237309155
 30
0.0
 11
202.5294372515229213
 21
-37.6421356237309439
 31
0.0
  0
LINE
  5
E0
100
AcDbEntity
100
AcDbLine
  8
0
 62
256
370
-1
  6
ByLayer
 10
216.5
 20
-34.642135623730951
 30
0.0
 11
216.5
 21
-27.4999999999999964
 31
0.0
  0
LINE
  5
E1
100
AcDbEntity
100
AcDbLine
  8
0
 62
256
370
-1
  6
ByLayer
 10
223.5
 20
-27.5
 30
0.0
 11
216.5
 21
-27.4999999999999964
 31
0.0
  0
LINE
  5
E2
100
AcDbEntity
100
AcDbLine
  8
0
 62
256
370
-1
  6
ByLayer
 10
214.5
 20
-32.6421356237309723
 30
0.0
 11
214.5
 21
-25.5
 31
0.0
  0
LINE
  5
E3
100
AcDbEntity
100
AcDbLine
  8
0
 62
256
370
-1
  6
ByLayer
 10
221.5
 20
-25.5
 30
0.0
 11
214.5
 21
-25.5
 31
0.0
  0
LINE
  5
E4
100
AcDbEntity
100
AcDbLine
  8
0
 62
256
370
-1
  6
ByLayer
 10
212.4289321881345813
 20
-37.642135623730951
 30
0.0
 11
221.5
 21
-37.5
 31
0.0
  0
CIRCLE
  5
E5
100
AcDbEntity
100
AcDbCircle
  8
0
 62
256
370
-1
  6
ByLayer
 10
221.5
 20
176.5
 30
0.0
 40
1.3999999999999999
  0
LINE
  5
E6
100
AcDbEntity
100
AcDbLine
  8
0
 62
256
370
-1
  6
ByLayer
 10
199.5294372515228645
 20
174.2573593128806806
 30
0.0
 11
204.4791847198287087
 21
179.2071067811865248
 31
0.0
  0
LINE
  5
E7
100
AcDbEntity
100
AcDbLine
  8
0
 62
256
370
-1
  6
ByLayer
 10
209.4289321881345245
 20
174.2573593128806806
 30
0.0
 11
204.4791847198287087
 21
179.2071067811865248
 31
0.0
  0
LINE
  5
E8
100
AcDbEntity
100
AcDbLine
  8
0
 62
256
370
-1
  6
ByLayer
 10
209.4289321881345245
 20
171.4289321881344961
 30
0.0
 11
204.4791847198287087
 21
176.3786796564403403
 31
0.0
  0
LINE
  5
E9
100
AcDbEntity
100
AcDbLine
  8
0
 62
256
370
-1
  6
ByLayer
 10
199.5294372515228645
 20
171.4289321881344961
 30
0.0
 11
204.4791847198287087
 21
176.3786796564403403
 31
0.0
  0
LINE
  5
EA
100
AcDbEntity
100
AcDbLine
  8
0
 62
256
370
-1
  6
ByLayer
 10
209.4289321881345245
 20
171.4289321881344961
 30
0.0
 11
214.5
 21
176.4999999999999716
 31
0.0
  0
LINE
  5
EB
100
AcDbEntity
100
AcDbLine
  8
0
 62
256
370
-1
  6
ByLayer
 10
209.4289321881345245
 20
174.2573593128806806
 30
0.0
 11
213.6715728752538439
 21
178.4999999999999716
 31
0.0
  0
LINE
  5
EC
100
AcDbEntity
100
AcDbLine
  8
0
 62
256
370
-1
  6
ByLayer
 10
213.6715728752538439
 20
178.4999999999999716
 30
0.0
 11
216.5
 21
178.4999999999999716
 31
0.0
  0
LINE
  5
ED
100
AcDbEntity
100
AcDbLine
  8
0
 62
256
370
-1
  6
ByLayer
 10
209.4289321881345529
 20
178.4999999999999716
 30
0.0
 11
206.4289321881345529
 21
181.4999999999999716
 31
0.0
  0
LINE
  5
EE
100
AcDbEntity
100
AcDbLine
  8
0
 62
256
370
-1
  6
ByLayer
 10
209.4289321881345529
 20
178.4999999999999716
 30
0.0
 11
212.4289321881345813
 21
181.4999999999999716
 31
0.0
  0
LINE
  5
EF
100
AcDbEntity
100
AcDbLine
  8
0
 62
256
370
-1
  6
ByLayer
 10
199.5294372515228645
 20
178.4999999999999432
 30
0.0
 11
196.529437251522836
 21
181.4999999999999716
 31
0.0
  0
LINE
  5
F0
100
AcDbEntity
100
AcDbLine
  8
0
 62
256
370
-1
  6
ByLayer
 10
199.5294372515228645
 20
178.4999999999999432
 30
0.0
 11
202.5294372515228929
 21
181.4999999999999716
 31
0.0
  0
LINE
  5
F1
100
AcDbEntity
100
AcDbLine
  8
0
 62
256
370
-1
  6
ByLayer
 10
219.39949493661166
 20
154.529437251522836
 30
0.0
 11
224.3492424049175042
 21
159.4791847198287087
 31
0.0
  0
LINE
  5
F2
100
AcDbEntity
100
AcDbLine
  8
0
 62
256
370
-1
  6
ByLayer
 10
219.39949493661166
 20
164.4289321881344961
 30
0.0
 11
224.3492424049175042
 21
159.4791847198287087
 31
0.0
  0
LINE
  5
F3
100
AcDbEntity
100
AcDbLine
  8
0
 62
256
370
-1
  6
ByLayer
 10
216.5710678118654755
 20
164.4289321881344961
 30
0.0
 11
221.5208152801696713
 21
159.4791847198286803
 31
0.0
  0
LINE
  5
F4
100
AcDbEntity
100
AcDbLine
  8
0
 62
256
370
-1
  6
ByLayer
 10
216.5710678118654755
 20
154.529437251522836
 30
0.0
 11
221.5208152801696713
 21
159.4791847198286803
 31
0.0
  0
LINE
  5
F5
100
AcDbEntity
100
AcDbLine
  8
0
 62
256
370
-1
  6
ByLayer
 10
216.5710678118654755
 20
164.4289321881344961
 30
0.0
 11
221.6421356237309794
 21
169.4999999999999716
 31
0.0
  0
LINE
  5
F6
100
AcDbEntity
100
AcDbLine
  8
0
 62
256
370
-1
  6
ByLayer
 10
219.39949493661166
 20
164.4289321881344961
 30
0.0
 11
223.642135623730951
 21
168.6715728752538155
 31
0.0
  0
LINE
  5
F7
100
AcDbEntity
100
AcDbLine
  8
0
 62
256
370
-1
  6
ByLayer
 10
223.642135623730951
 20
168.6715728752538155
 30
0.0
 11
223.642135623730951
 21
171.4999999999999716
 31
0.0
  0
LINE
  5
F8
100
AcDbEntity
100
AcDbLine
  8
0
 62
256
370
-1
  6
ByLayer
 10
223.642135623730951
 20
164.4289321881345245
 30
0.0
 11
226.642135623730951
 21
161.4289321881345245
 31
0.0
  0
LINE
  5
F9
100
AcDbEntity
100
AcDbLine
  8
0
 62
256
370
-1
  6
ByLayer
 10
223.642135623730951
 20
164.4289321881345245
 30
0.0
 11
226.642135623730951
 21
167.4289321881345529
 31
0.0
  0
LINE
  5
FA
100
AcDbEntity
100
AcDbLine
  8
0
 62
256
370
-1
  6
ByLayer
 10
223.6421356237309226
 20
154.529437251522836
 30
0.0
 11
226.642135623730951
 21
151.529437251522836
 31
0.0
  0
LINE
  5
FB
100
AcDbEntity
100
AcDbLine
  8
0
 62
256
370
-1
  6
ByLayer
 10
223.6421356237309226
 20
154.529437251522836
 30
0.0
 11
226.642135623730951
 21
157.5294372515228929
 31
0.0
  0
LINE
  5
FC
100
AcDbEntity
100
AcDbLine
  8
0
 62
256
370
-1
  6
ByLayer
 10
223.642135623730951
 20
171.4999999999999716
 30
0.0
 11
216.5
 21
171.4999999999999716
 31
0.0
  0
LINE
  5
FD
100
AcDbEntity
100
AcDbLine
  8
0
 62
256
370
-1
  6
ByLayer
 10
216.5
 20
178.4999999999999716
 30
0.0
 11
216.5
 21
171.4999999999999716
 31
0.0
  0
LINE
  5
FE
100
AcDbEntity
100
AcDbLine
  8
0
 62
256
370
-1
  6
ByLayer
 10
221.6421356237309794
 20
169.4999999999999716
 30
0.0
 11
214.5
 21
169.4999999999999716
 31
0.0
  0
LINE
  5
FF
100
AcDbEntity
100
AcDbLine
  8
0
 62
256
370
-1
  6
ByLayer
 10
214.5
 20
176.4999999999999716
 30
0.0
 11
214.5
 21
169.4999999999999716
 31
0.0
  0
LINE
  5
100
100
AcDbEntity
100
AcDbLine
  8
0
 62
256
370
-1
  6
ByLayer
 10
226.642135623730951
 20
167.4289321881345529
 30
0.0
 11
226.5
 21
176.4999999999999716
 31
0.0
  0
LINE
  5
101
100
AcDbEntity
100
AcDbLine
  8
0
 62
256
370
-1
  6
ByLayer
 10
37.4705627484771782
 20
181.642135623730951
 30
0.0
 11
196.529437251522836
 21
181.4999999999999716
 31
0.0
  0
LINE
  5
102
100
AcDbEntity
100
AcDbLine
  8
0
 62
256
370
-1
  6
ByLayer
 10
226.642135623730951
 20
151.529437251522836
 30
0.0
 11
226.5000000000000284
 21
87.0
 31
0.0
  0
LINE
  5
103
100
AcDbEntity
100
AcDbLine
  8
0
 62
256
370
-1
  6
ByLayer
 10
226.5000000000000284
 20
57.0
 30
0.0
 11
226.5
 21
-7.529437251522836
 31
0.0
  0
LINE
  5
104
100
AcDbEntity
100
AcDbLine
  8
0
 62
256
370
-1
  6
ByLayer
 10
196.5294372515228645
 20
-37.642135623730951
 30
0.0
 11
37.470562748477164
 21
-37.4999999999999787
 31
0.0
  0
LINE
  5
105
100
AcDbEntity
100
AcDbLine
  8
0
 62
256
370
-1
  6
ByLayer
 10
7.357864376269049
 20
-7.529437251522836
 30
0.0
 11
7.5000000000000027
 21
-1.0000000000000013
 31
0.0
  0
LINE
  5
106
100
AcDbEntity
100
AcDbLine
  8
bed
 62
256
370
-1
  6
ByLayer
 10
-10.6000000000000014
 20
135.0
 30
0.0
 11
-10.6000000000000068
 21
9.0
 31
0.0
  0
LINE
  5
107
100
AcDbEntity
100
AcDbLine
  8
0
 62
256
370
-1
  6
ByLayer
 10
14.6005050633883506
 20
-10.5294372515228396
 30
0.0
 11
11.0649711574556058
 21
-6.9939033455901063
 31
0.0
  0
LINE
  5
108
100
AcDbEntity
100
AcDbLine
  8
0
 62
256
370
-1
  6
ByLayer
 10
12.4791847198286963
 20
-5.5796897832170016
 30
0.0
 11
11.0649711574556058
 21
-6.9939033455901063
 31
0.0
  0
LINE
  5
109
100
AcDbEntity
100
AcDbLine
  8
0
 62
256
370
-1
  6
ByLayer
 10
17.4289321881345423
 20
-10.5294372515228396
 30
0.0
 11
12.4791847198286963
 21
-5.5796897832170016
 31
0.0
  0
LINE
  5
10A
100
AcDbEntity
100
AcDbLine
  8
0
 62
256
370
-1
  6
ByLayer
 10
34.4705627484771355
 20
-30.2573593128806806
 30
0.0
 11
38.0060966544098946
 21
-33.7928932188134397
 31
0.0
  0
LINE
  5
10B
100
AcDbEntity
100
AcDbLine
  8
0
 62
256
370
-1
  6
ByLayer
 10
39.4203102167829655
 20
-32.3786796564403403
 30
0.0
 11
38.0060966544098946
 21
-33.7928932188134397
 31
0.0
  0
LINE
  5
10C
100
AcDbEntity
100
AcDbLine
  8
0
 62
256
370
-1
  6
ByLayer
 10
34.4705627484771355
 20
-27.4289321881345103
 30
0.0
 11
39.4203102167829655
 21
-32.3786796564403403
 31
0.0
  0
LINE
  5
10D
100
AcDbEntity
100
AcDbLine
  8
0
 62
256
370
-1
  6
ByLayer
 10
216.4289321881345245
 20
-10.5294372515228609
 30
0.0
 11
221.3786796564403403
 21
-5.5796897832170353
 31
0.0
  0
LINE
  5
10E
100
AcDbEntity
100
AcDbLine
  8
0
 62
256
370
-1
  6
ByLayer
 10
221.3786796564403403
 20
-5.5796897832170353
 30
0.0
 11
222.7928932188134468
 21
-6.9939033455901143
 31
0.0
  0
LINE
  5
10F
100
AcDbEntity
100
AcDbLine
  8
0
 62
256
370
-1
  6
ByLayer
 10
219.257359312880709
 20
-10.5294372515228645
 30
0.0
 11
222.7928932188134468
 21
-6.9939033455901143
 31
0.0
  0
LINE
  5
110
100
AcDbEntity
100
AcDbLine
  8
0
 62
256
370
-1
  6
ByLayer
 10
199.5294372515228645
 20
-27.5710678118654577
 30
0.0
 11
194.5796897832170202
 21
-32.5208152801712984
 31
0.0
  0
LINE
  5
111
100
AcDbEntity
100
AcDbLine
  8
0
 62
256
370
-1
  6
ByLayer
 10
194.5796897832170202
 20
-32.5208152801712984
 30
0.0
 11
195.9939033455901267
 21
-33.9350288425443978
 31
0.0
  0
LINE
  5
112
100
AcDbEntity
100
AcDbLine
  8
0
 62
256
370
-1
  6
ByLayer
 10
199.5294372515228645
 20
-30.3994949366116494
 30
0.0
 11
195.9939033455901267
 21
-33.9350288425443978
 31
0.0
  0
LINE
  5
113
100
AcDbEntity
100
AcDbLine
  8
0
 62
256
370
-1
  6
ByLayer
 10
199.5294372515228645
 20
174.2573593128806806
 30
0.0
 11
195.9939033455901267
 21
177.7928932188134468
 31
0.0
  0
LINE
  5
114
100
AcDbEntity
100
AcDbLine
  8
0
 62
256
370
-1
  6
ByLayer
 10
194.5796897832170202
 20
176.3786796564403403
 30
0.0
 11
195.9939033455901267
 21
177.7928932188134468
 31
0.0
  0
LINE
  5
115
100
AcDbEntity
100
AcDbLine
  8
0
 62
256
370
-1
  6
ByLayer
 10
199.5294372515228645
 20
171.4289321881344961
 30
0.0
 11
194.5796897832170202
 21
176.3786796564403403
 31
0.0
  0
LINE
  5
116
100
AcDbEntity
100
AcDbLine
  8
0
 62
256
370
-1
  6
ByLayer
 10
219.39949493661166
 20
154.529437251522836
 30
0.0
 11
222.9350288425443978
 21
150.9939033455901267
 31
0.0
  0
LINE
  5
117
100
AcDbEntity
100
AcDbLine
  8
0
 62
256
370
-1
  6
ByLayer
 10
221.5208152801712913
 20
149.5796897832170202
 30
0.0
 11
222.9350288425443978
 21
150.9939033455901267
 31
0.0
  0
LINE
  5
118
100
AcDbEntity
100
AcDbLine
  8
0
 62
256
370
-1
  6
ByLayer
 10
216.5710678118654755
 20
154.529437251522836
 30
0.0
 11
221.5208152801712913
 21
149.5796897832170202
 31
0.0
  0
LINE
  5
119
100
AcDbEntity
100
AcDbLine
  8
0
 62
256
370
-1
  6
ByLayer
 10
34.4705627484771568
 20
174.39949493661166
 30
0.0
 11
38.0060966544099017
 21
177.9350288425444262
 31
0.0
  0
LINE
  5
11A
100
AcDbEntity
100
AcDbLine
  8
0
 62
256
370
-1
  6
ByLayer
 10
39.420310216782994
 20
176.5208152801713197
 30
0.0
 11
38.0060966544099017
 21
177.9350288425444262
 31
0.0
  0
LINE
  5
11B
100
AcDbEntity
100
AcDbLine
  8
0
 62
256
370
-1
  6
ByLayer
 10
34.4705627484771568
 20
171.5710678118654755
 30
0.0
 11
39.420310216782994
 21
176.5208152801713197
 31
0.0
  0
LINE
  5
11C
100
AcDbEntity
100
AcDbLine
  8
0
 62
256
370
-1
  6
ByLayer
 10
14.7426406871193247
 20
154.5294372515228645
 30
0.0
 11
11.2071067811865674
 21
150.9939033455900983
 31
0.0
  0
LINE
  5
11D
100
AcDbEntity
100
AcDbLine
  8
0
 62
256
370
-1
  6
ByLayer
 10
12.6213203435596704
 20
149.5796897832170202
 30
0.0
 11
11.2071067811865674
 21
150.9939033455900983
 31
0.0
  0
LINE
  5
11E
100
AcDbEntity
100
AcDbLine
  8
0
 62
256
370
-1
  6
ByLayer
 10
17.5710678118655039
 20
154.5294372515228645
 30
0.0
 11
12.6213203435596704
 21
149.5796897832170202
 31
0.0
  0
DIMENSION
  5
11F
100
AcDbEntity
  8
dimensions
 62
256
370
-1
  6
ByLayer
100
AcDbDimension
 10
221.5
 20
187.243856427672057
 30
0.0
 11
117.0
 21
189.118856427672057
 31
0.0
 70
0
 71
5
 72
0
 41
1.0
 42
0.0
  1

  3
Standard
100
AcDbAlignedDimension
 13
12.4999999999999982
 23
176.5
 33
0.0
 14
221.5
 24
176.5
 34
0.0
 50
0.0
100
AcDbRotatedDimension
  0
DIMENSION
  5
120
100
AcDbEntity
  8
dimensions
 62
256
370
-1
  6
ByLayer
100
AcDbDimension
 10
274.1053390593273207
 20
-32.5000000000000071
 30
0.0
 11
272.2303390593273207
 21
72.0
 31
0.0
 70
0
 71
5
 72
0
 41
1.0
 42
0.0
  1

  3
Standard
100
AcDbAlignedDimension
 13
221.5
 23
176.5
 33
0.0
 14
221.5000000000000284
 24
-32.5
 34
0.0
 50
90.0
100
AcDbRotatedDimension
  0
LINE
  5
121
100
AcDbEntity
100
AcDbLine
  8
centres
 62
256
370
-1
  6
CENTERX2
 10
-5.0000000000000053
 20
16.0
 30
0.0
 11
-4.9999999999999956
 21
166.0
 31
0.0
  0
LINE
  5
122
100
AcDbEntity
100
AcDbLine
  8
centres
 62
256
370
-1
  6
CENTERX2
 10
0.9999999999999951
 20
21.0
 30
0.0
 11
1.0000000000000042
 21
171.0
 31
0.0
  0
CIRCLE
  5
123
100
AcDbEntity
100
AcDbCircle
  8
0
 62
256
370
-1
  6
CONTINUOUS
 10
-4.9999999999999973
 20
38.0
 30
0.0
 40
1.5
  0
CIRCLE
  5
124
100
AcDbEntity
100
AcDbCircle
  8
0
 62
256
370
-1
  6
CONTINUOUS
 10
0.9999999999999974
 20
33.0
 30
0.0
 40
1.5
  0
ENDSEC
  0
SECTION
  2
OBJECTS
  0
DICTIONARY
  5
C
100
AcDbDictionary
280
0
281
1
  3
ACAD_GROUP
350
D
  3
ACAD_LAYOUT
350
1A
  3
ACAD_MLINESTYLE
350
17
  3
ACAD_PLOTSETTINGS
350
19
  3
ACAD_PLOTSTYLENAME
350
E
  3
AcDbVariableDictionary
350
125
  0
DICTIONARY
  5
D
100
AcDbDictionary
280
0
281
1
  0
ACDBDICTIONARYWDFLT
  5
E
100
AcDbDictionary
281
1
  3
Normal
350
F
100
AcDbDictionaryWithDefault
340
F
  0
ACDBPLACEHOLDER
  5
F
  0
DICTIONARY
  5
17
100
AcDbDictionary
280
0
281
1
  3
Standard
350
18
  0
MLINESTYLE
  5
18
100
AcDbMlineStyle
  2
STANDARD
 70
0
  3

 62
256
 51
90.0
 52
90.0
 71
2
 49
0.5
 62
256
  6
BYLAYER
 49
-0.5
 62
256
  6
BYLAYER
  0
DICTIONARY
  5
19
100
AcDbDictionary
280
0
281
1
  0
DICTIONARY
  5
1A
100
AcDbDictionary
281
1
  3
Layout1
350
1E
  3
Layout2
350
26
  3
Model
350
22
  0
LAYOUT
  5
1E
100
AcDbPlotSettings
  1

  2
C:\Program Files\AutoCAD 2002\plotters\DWF ePlot (optimized for plotting).pc3
  4

  6

 40
0.0
 41
0.0
 42
0.0
 43
0.0
 44
0.0
 45
0.0
 46
0.0
 47
0.0
 48
0.0
 49
0.0
140
0.0
141
0.0
142
1.0
143
1.0
 70
688
 72
0
 73
0
 74
5
  7

 75
16
147
1.0
148
0.0
149
0.0
100
AcDbLayout
  1
Layout1
 70
1
 71
1
 10
0.0
 20
0.0
 11
420.0
 21
297.0
 12
0.0
 22
0.0
 32
0.0
 14
100000000000000000000.0
 24
100000000000000000000.0
 34
100000000000000000000.0
 15
-100000000000000000000.0
 25
-100000000000000000000.0
 35
-100000000000000000000.0
146
0.0
 13
0.0
 23
0.0
 33
0.0
 16
1.0
 26
0.0
 36
0.0
 17
0.0
 27
1.0
 37
0.0
 76
0
330
1B
  0
LAYOUT
  5
22
100
AcDbPlotSettings
  1

  2
C:\Program Files\AutoCAD 2002\plotters\DWF ePlot (optimized for plotting).pc3
  4

  6

 40
0.0
 41
0.0
 42
0.0
 43
0.0
 44
0.0
 45
0.0
 46
0.0
 47
0.0
 48
0.0
 49
0.0
140
0.0
141
0.0
142
1.0
143
1.0
 70
1712
 72
0
 73
0
 74
0
  7

 75
0
147
1.0
148
0.0
149
0.0
100
AcDbLayout
  1
Model
 70
1
 71
0
 10
0.0
 20
0.0
 11
12.0
 21
9.0
 12
0.0
 22
0.0
 32
0.0
 14
0.0
 24
0.0
 34
0.0
 15
0.0
 25
0.0
 35
0.0
146
0.0
 13
0.0
 23
0.0
 33
0.0
 16
1.0
 26
0.0
 36
0.0
 17
0.0
 27
1.0
 37
0.0
 76
0
330
1F
  0
LAYOUT
  5
26
100
AcDbPlotSettings
  1

  2
C:\Program Files\AutoCAD 2002\plotters\DWF ePlot (optimized for plotting).pc3
  4

  6

 40
0.0
 41
0.0
 42
0.0
 43
0.0
 44
0.0
 45
0.0
 46
0.0
 47
0.0
 48
0.0
 49
0.0
140
0.0
141
0.0
142
1.0
143
1.0
 70
688
 72
0
 73
0
 74
5
  7

 75
16
147
1.0
148
0.0
149
0.0
100
AcDbLayout
  1
Layout2
 70
1
 71
2
 10
0.0
 20
0.0
 11
12.0
 21
9.0
 12
0.0
 22
0.0
 32
0.0
 14
0.0
 24
0.0
 34
0.0
 15
0.0
 25
0.0
 35
0.0
146
0.0
 13
0.0
 23
0.0
 33
0.0
 16
1.0
 26
0.0
 36
0.0
 17
0.0
 27
1.0
 37
0.0
 76
0
330
23
  0
DICTIONARY
  5
125
100
AcDbDictionary
281
1
  3
DIMASSOC
350
127
  3
HIDETEXT
350
126
  0
DICTIONARYVAR
  5
126
100
DictionaryVariables
280
0
  1
2
  0
DICTIONARYVAR
  5
127
100
DictionaryVariables
280
0
  1
1
  0
ENDSEC
  0
EOF
