999
dxflib 2.2.0.0
  0
SECTION
  2
HEADER
  9
$ACADVER
  1
AC1015
  9
$HANDSEED
  5
FFFF
  9
$DIMLIM
 70
0
  9
$DIMLUNIT
 70
2
  9
$DIMTIX
 70
0
  9
$AUNITS
 70
0
  9
$QTEXTMODE
 70
0
  9
$USERR1
 40
0.0
  9
$DIMALTU
 70
2
  9
$UCSORGBOTTOM
 10
0.0
 20
0.0
 30
0.0
  9
$USERR2
 40
0.0
  9
$USERR3
 40
0.0
  9
$USERR4
 40
0.0
  9
$LIMMAX
 10
420.0
 20
297.0
  9
$USERR5
 40
0.0
  9
$PELEVATION
 40
0.0
  9
$DIMALTZ
 70
0
  9
$DIMADEC
 70
2
  9
$JOINSTYLE
280
0
  9
$DIMATFIT
 70
3
  9
$TILEMODE
 70
1
  9
$PEXTMIN
 10
100000000000000000000.0
 20
100000000000000000000.0
 30
100000000000000000000.0
  9
$TDUSRTIMER
 40
0.0000000116
  9
$DWGCODEPAGE
  3
ANSI_1252
  9
$UCSORTHOVIEW
 70
0
  9
$DIMSOXD
 70
0
  9
$DIMTZIN
 70
0
  9
$SPLINETYPE
 70
6
  9
$DIMLFAC
 40
1.0
  9
$DIMSE1
 70
0
  9
$FILLETRAD
 40
10.0
  9
$DIMSE2
 70
0
  9
$PSTYLEMODE
290
1
  9
$TEXTSTYLE
  7
Standard
  9
$DIMTSZ
 40
0.0
  9
$PUCSXDIR
 10
1.0
 20
0.0
 30
0.0
  9
$DIMTXSTY
  7
Standard
  9
$PLIMMAX
 10
420.0
 20
297.0
  9
$DIMTM
 40
0.0
  9
$UCSORG
 10
0.0
 20
0.0
 30
0.0
  9
$DIMTP
 40
0.0
  9
$PSLTSCALE
 70
1
  9
$ANGBASE
 50
0.0
  9
$PUCSYDIR
 10
0.0
 20
1.0
 30
0.0
  9
$EXTNAMES
290
1
  9
$DIMASZ
 40
3.302
  9
$PUCSORTHOVIEW
 70
0
  9
$INSBASE
 10
0.0
 20
0.0
 30
0.0
  9
$UNITMODE
 70
0
  9
$MEASUREMENT
 70
1
  9
$EXTMAX
 10
243.0
 20
181.6421356236999998
 30
0.0
  9
$ELEVATION
 40
0.0
  9
$TDCREATE
 40
2456316.6900807181373239
  9
$DIMDEC
 70
2
  9
$CELTYPE
  6
ByLayer
  9
$MENU
  1
.
  9
$ANGDIR
 70
0
  9
$DIMALTTD
 70
3
  9
$TREEDEPTH
 70
3020
  9
$LTSCALE
 40
1.0
  9
$PROXYGRAPHICS
 70
1
  9
$DIMTMOVE
 70
0
  9
$DIMAZIN
 70
0
  9
$TDUPDATE
 40
2456316.6901190630160272
  9
$DIMTOLJ
 70
0
  9
$DIMCEN
 40
2.5
  9
$DIMTVP
 40
0.0
  9
$TRACEWID
 40
1.0
  9
$CMLSTYLE
  2
Standard
  9
$DISPSILH
 70
0
  9
$DIMSTYLE
  2
ISO-25
  9
$SKETCHINC
 40
1.0
  9
$FILLMODE
 70
1
  9
$PLINEGEN
 70
0
  9
$DIMLWD
 70
-2
  9
$THICKNESS
 40
0.0
  9
$DIMLWE
 70
-2
  9
$CELTSCALE
 40
1.0
  9
$PUCSORG
 10
0.0
 20
0.0
 30
0.0
  9
$DIMALTTZ
 70
0
  9
$INSUNITS
 70
4
  9
$UCSORGBACK
 10
0.0
 20
0.0
 30
0.0
  9
$PLINEWID
 40
0.0
  9
$PEXTMAX
 10
-100000000000000000000.0
 20
-100000000000000000000.0
 30
-100000000000000000000.0
  9
$DIMJUST
 70
0
  9
$UCSYDIR
 10
0.0
 20
1.0
 30
0.0
  9
$PUCSORGBACK
 10
0.0
 20
0.0
 30
0.0
  9
$PDSIZE
 40
-1.0
  9
$PUCSORGBOTTOM
 10
0.0
 20
0.0
 30
0.0
  9
$DIMUPT
 70
0
  9
$DIMTAD
 70
1
  9
$UCSXDIR
 10
1.0
 20
0.0
 30
0.0
  9
$MAXACTVP
 70
64
  9
$DIMSAH
 70
0
  9
$TDUCREATE
 40
2456316.6900807181373239
  9
$DIMFRAC
 70
0
  9
$USERI1
 70
0
  9
$USERI2
 70
0
  9
$UCSORGRIGHT
 10
0.0
 20
0.0
 30
0.0
  9
$USERI3
 70
0
  9
$CELWEIGHT
370
-1
  9
$LWDISPLAY
290
1
  9
$SKPOLY
 70
0
  9
$USERI4
 70
0
  9
$USERI5
 70
0
  9
$UCSORGTOP
 10
0.0
 20
0.0
 30
0.0
  9
$LIMMIN
 10
0.0
 20
0.0
  9
$ACADMAINTVER
 70
6
  9
$MIRRTEXT
 70
1
  9
$TDUUPDATE
 40
2456316.6901190630160272
  9
$TEXTSIZE
 40
3.5
  9
$DIMGAP
 40
1.524
  9
$LUPREC
 70
2
  9
$CECOLOR
 62
256
  9
$DIMSD1
 70
0
  9
$DIMSD2
 70
0
  9
$WORLDVIEW
 70
1
  9
$PUCSORGRIGHT
 10
0.0
 20
0.0
 30
0.0
  9
$PLIMCHECK
 70
0
  9
$DIMTFAC
 40
1.0
  9
$CMLJUST
 70
0
  9
$USRTIMER
 70
1
  9
$SURFU
 70
6
  9
$SURFV
 70
6
  9
$DIMASO
 70
1
  9
$DIMDLE
 40
0.0
  9
$EXTMIN
 10
-9.0
 20
-37.6421356236999998
 30
0.0
  9
$UCSORGLEFT
 10
0.0
 20
0.0
 30
0.0
  9
$OLESTARTUP
290
0
  9
$PUCSORGFRONT
 10
0.0
 20
0.0
 30
0.0
  9
$DIMDLI
 40
3.75
  9
$LUNITS
 70
2
  9
$DIMCLRD
 70
0
  9
$SHADEDIF
 70
70
  9
$DIMCLRE
 70
0
  9
$SPLINESEGS
 70
8
  9
$PUCSORGLEFT
 10
0.0
 20
0.0
 30
0.0
  9
$DIMALTRND
 40
0.0
  9
$DIMRND
 40
0.0
  9
$DIMALT
 70
0
  9
$FINGERPRINTGUID
  2
{A32B5DF7-A2D6-45A8-9DA3-7D82D2496F05}
  9
$DIMCLRT
 70
0
  9
$PUCSORGTOP
 10
0.0
 20
0.0
 30
0.0
  9
$DIMTOH
 70
1
  9
$UCSORGFRONT
 10
0.0
 20
0.0
 30
0.0
  9
$VISRETAIN
 70
1
  9
$SHADEDGE
 70
3
  9
$DIMTOL
 70
0
  9
$SURFTYPE
 70
6
  9
$VERSIONGUID
  2
{FAEB1C32-E019-11D5-929B-00C0DF256EC4}
  9
$CHAMFERA
 40
10.0
  9
$SURFTAB1
 70
6
  9
$CHAMFERB
 40
10.0
  9
$SURFTAB2
 70
6
  9
$CHAMFERC
 40
20.0
  9
$AUPREC
 70
2
  9
$CHAMFERD
 40
0.0
  9
$DIMTDEC
 70
2
  9
$PDMODE
 70
0
  9
$SPLFRAME
 70
0
  9
$PLIMMIN
 10
0.0
 20
0.0
  9
$XEDIT
290
1
  9
$DIMDSEP
 70
44
  9
$LIMCHECK
 70
0
  9
$PINSBASE
 10
0.0
 20
0.0
 30
0.0
  9
$ORTHOMODE
 70
0
  9
$PSVPSCALE
 40
0.0
  9
$CLAYER
  8
0
  9
$DIMSHO
 70
1
  9
$DIMTOFL
 70
1
  9
$DIMTXT
 40
3.5
  9
$DIMEXE
 40
1.0
  9
$TDINDWG
 40
0.0000000116
  9
$REGENMODE
 70
1
  9
$ATTMODE
 70
1
  9
$CMLSCALE
 40
20.0
  9
$DIMTIH
 70
1
  9
$DIMZIN
 70
0
  9
$CEPSNTYPE
380
0
  9
$DIMSCALE
 40
1.0
  9
$DIMALTD
 70
3
  9
$DIMAUNIT
 70
0
  9
$DIMALTF
 40
0.0393700787
  9
$DIMEXO
 40
1.0
  9
$ENDCAPS
280
0
  0
ENDSEC
  0
SECTION
  2
TABLES
  0
TABLE
  2
VPORT
  5
8
100
AcDbSymbolTable
 70
1
  0
VPORT
  5
30
100
AcDbSymbolTableRecord
100
AcDbViewportTableRecord
  2
*Active
 70
0
 10
0.0
 20
0.0
 11
1.0
 21
1.0
 12
286.3055555555554861
 22
148.5
 13
0.0
 23
0.0
 14
10.0
 24
10.0
 15
10.0
 25
10.0
 16
0.0
 26
0.0
 36
1.0
 17
0.0
 27
0.0
 37
0.0
 40
297.0
 41
1.92798353909465
 42
50.0
 43
0.0
 44
0.0
 50
0.0
 51
0.0
 71
0
 72
100
 73
1
 74
3
 75
1
 76
1
 77
0
 78
0
281
0
 65
1
110
0.0
120
0.0
130
0.0
111
1.0
121
0.0
131
0.0
112
0.0
122
1.0
132
0.0
 79
0
146
0.0
  0
ENDTAB
  0
TABLE
  2
LTYPE
  5
5
100
AcDbSymbolTable
 70
21
  0
LTYPE
  5
14
100
AcDbSymbolTableRecord
100
AcDbLinetypeTableRecord
  2
ByBlock
 70
0
  3

 72
65
 73
0
 40
0.0
  0
LTYPE
  5
15
100
AcDbSymbolTableRecord
100
AcDbLinetypeTableRecord
  2
ByLayer
 70
0
  3

 72
65
 73
0
 40
0.0
  0
LTYPE
  5
16
100
AcDbSymbolTableRecord
100
AcDbLinetypeTableRecord
  2
CONTINUOUS
 70
0
  3
Solid line
 72
65
 73
0
 40
0.0
  0
LTYPE
  5
31
100
AcDbSymbolTableRecord
100
AcDbLinetypeTableRecord
  2
DOT
 70
0
  3
Dot . . . . . . . . . . . . . . . . . . . . . .
 72
65
 73
2
 40
6.3499999999999996
 49
0.0
 74
0
 49
-6.3499999999999996
 74
0
  0
LTYPE
  5
32
100
AcDbSymbolTableRecord
100
AcDbLinetypeTableRecord
  2
DOT2
 70
0
  3
Dot (.5x) .....................................
 72
65
 73
2
 40
3.1749999999999998
 49
0.0
 74
0
 49
-3.1749999999999998
 74
0
  0
LTYPE
  5
33
100
AcDbSymbolTableRecord
100
AcDbLinetypeTableRecord
  2
DOTX2
 70
0
  3
Dot (2x) .  .  .  .  .  .  .  .  .  .  .  .  .
 72
65
 73
2
 40
12.6999999999999993
 49
0.0
 74
0
 49
-12.6999999999999993
 74
0
  0
LTYPE
  5
34
100
AcDbSymbolTableRecord
100
AcDbLinetypeTableRecord
  2
DASHED
 70
0
  3
Dashed __ __ __ __ __ __ __ __ __ __ __ __ __ _
 72
65
 73
2
 40
19.0500000000000007
 49
12.6999999999999993
 74
0
 49
-6.3499999999999996
 74
0
  0
LTYPE
  5
35
100
AcDbSymbolTableRecord
100
AcDbLinetypeTableRecord
  2
DASHED2
 70
0
  3
Dashed (.5x) _ _ _ _ _ _ _ _ _ _ _ _ _ _ _ _ _
 72
65
 73
2
 40
9.5250000000000004
 49
6.3499999999999996
 74
0
 49
-3.1749999999999998
 74
0
  0
LTYPE
  5
36
100
AcDbSymbolTableRecord
100
AcDbLinetypeTableRecord
  2
DASHEDX2
 70
0
  3
Dashed (2x) ____  ____  ____  ____  ____  ___
 72
65
 73
2
 40
38.1000000000000014
 49
25.3999999999999986
 74
0
 49
-12.6999999999999993
 74
0
  0
LTYPE
  5
37
100
AcDbSymbolTableRecord
100
AcDbLinetypeTableRecord
  2
DASHDOT
 70
0
  3
Dash dot __ . __ . __ . __ . __ . __ . __ . __
 72
65
 73
4
 40
25.3999999999999986
 49
12.6999999999999993
 74
0
 49
-6.3499999999999996
 74
0
 49
0.0
 74
0
 49
-6.3499999999999996
 74
0
  0
LTYPE
  5
38
100
AcDbSymbolTableRecord
100
AcDbLinetypeTableRecord
  2
DASHDOT2
 70
0
  3
Dash dot (.5x) _._._._._._._._._._._._._._._.
 72
65
 73
4
 40
12.6999999999999993
 49
6.3499999999999996
 74
0
 49
-3.1749999999999998
 74
0
 49
0.0
 74
0
 49
-3.1749999999999998
 74
0
  0
LTYPE
  5
39
100
AcDbSymbolTableRecord
100
AcDbLinetypeTableRecord
  2
DASHDOTX2
 70
0
  3
Dash dot (2x) ____  .  ____  .  ____  .  ___
 72
65
 73
4
 40
50.7999999999999972
 49
25.3999999999999986
 74
0
 49
-12.6999999999999993
 74
0
 49
0.0
 74
0
 49
-12.6999999999999993
 74
0
  0
LTYPE
  5
3A
100
AcDbSymbolTableRecord
100
AcDbLinetypeTableRecord
  2
DIVIDE
 70
0
  3
Divide ____ . . ____ . . ____ . . ____ . . ____
 72
65
 73
6
 40
31.75
 49
12.6999999999999993
 74
0
 49
-6.3499999999999996
 74
0
 49
0.0
 74
0
 49
-6.3499999999999996
 74
0
 49
0.0
 74
0
 49
-6.3499999999999996
 74
0
  0
LTYPE
  5
3B
100
AcDbSymbolTableRecord
100
AcDbLinetypeTableRecord
  2
DIVIDE2
 70
0
  3
Divide (.5x) __..__..__..__..__..__..__..__.._
 72
65
 73
6
 40
15.875
 49
6.3499999999999996
 74
0
 49
-3.1749999999999998
 74
0
 49
0.0
 74
0
 49
-3.1749999999999998
 74
0
 49
0.0
 74
0
 49
-3.1749999999999998
 74
0
  0
LTYPE
  5
3C
100
AcDbSymbolTableRecord
100
AcDbLinetypeTableRecord
  2
DIVIDEX2
 70
0
  3
Divide (2x) ________  .  .  ________  .  .  _
 72
65
 73
6
 40
63.5
 49
25.3999999999999986
 74
0
 49
-12.6999999999999993
 74
0
 49
0.0
 74
0
 49
-12.6999999999999993
 74
0
 49
0.0
 74
0
 49
-12.6999999999999993
 74
0
  0
LTYPE
  5
3D
100
AcDbSymbolTableRecord
100
AcDbLinetypeTableRecord
  2
CENTER
 70
0
  3
Center ____ _ ____ _ ____ _ ____ _ ____ _ ____
 72
65
 73
4
 40
50.7999999999999972
 49
31.75
 74
0
 49
-6.3499999999999996
 74
0
 49
6.3499999999999996
 74
0
 49
-6.3499999999999996
 74
0
  0
LTYPE
  5
3E
100
AcDbSymbolTableRecord
100
AcDbLinetypeTableRecord
  2
CENTER2
 70
0
  3
Center (.5x) ___ _ ___ _ ___ _ ___ _ ___ _ ___
 72
65
 73
4
 40
28.5749999999999993
 49
19.0500000000000007
 74
0
 49
-3.1749999999999998
 74
0
 49
3.1749999999999998
 74
0
 49
-3.1749999999999998
 74
0
  0
LTYPE
  5
3F
100
AcDbSymbolTableRecord
100
AcDbLinetypeTableRecord
  2
CENTERX2
 70
0
  3
Center (2x) ________  __  ________  __  _____
 72
65
 73
4
 40
101.5999999999999943
 49
63.5
 74
0
 49
-12.6999999999999993
 74
0
 49
12.6999999999999993
 74
0
 49
-12.6999999999999993
 74
0
  0
LTYPE
  5
40
100
AcDbSymbolTableRecord
100
AcDbLinetypeTableRecord
  2
BORDER
 70
0
  3
Border __ __ . __ __ . __ __ . __ __ . __ __ .
 72
65
 73
6
 40
44.4500000000000028
 49
12.6999999999999993
 74
0
 49
-6.3499999999999996
 74
0
 49
12.6999999999999993
 74
0
 49
-6.3499999999999996
 74
0
 49
0.0
 74
0
 49
-6.3499999999999996
 74
0
  0
LTYPE
  5
41
100
AcDbSymbolTableRecord
100
AcDbLinetypeTableRecord
  2
BORDER2
 70
0
  3
Border (.5x) __.__.__.__.__.__.__.__.__.__.__.
 72
65
 73
6
 40
22.2250000000000014
 49
6.3499999999999996
 74
0
 49
-3.1749999999999998
 74
0
 49
6.3499999999999996
 74
0
 49
-3.1749999999999998
 74
0
 49
0.0
 74
0
 49
-3.1749999999999998
 74
0
  0
LTYPE
  5
42
100
AcDbSymbolTableRecord
100
AcDbLinetypeTableRecord
  2
BORDERX2
 70
0
  3
Border (2x) ____  ____  .  ____  ____  .  ___
 72
65
 73
6
 40
88.9000000000000057
 49
25.3999999999999986
 74
0
 49
-12.6999999999999993
 74
0
 49
25.3999999999999986
 74
0
 49
-12.6999999999999993
 74
0
 49
0.0
 74
0
 49
-12.6999999999999993
 74
0
  0
ENDTAB
  0
TABLE
  2
LAYER
  5
2
100
AcDbSymbolTable
 70
1
  0
LAYER
  5
10
100
AcDbSymbolTableRecord
100
AcDbLayerTableRecord
  2
0
 70
0
 62
7
  6
CONTINUOUS
370
-3
390
F
  0
ENDTAB
  0
TABLE
  2
STYLE
  5
3
100
AcDbSymbolTable
 70
1
  0
STYLE
  5
11
100
AcDbSymbolTableRecord
100
AcDbTextStyleTableRecord
  2
Standard
 70
0
 40
0.0
 41
0.75
 50
0.0
 71
0
 42
2.5
  3
txt
  4

  0
ENDTAB
  0
TABLE
  2
VIEW
  5
6
100
AcDbSymbolTable
 70
0
  0
ENDTAB
  0
TABLE
  2
UCS
  5
7
100
AcDbSymbolTable
 70
0
  0
ENDTAB
  0
TABLE
  2
APPID
  5
9
100
AcDbSymbolTable
 70
1
  0
APPID
  5
12
100
AcDbSymbolTableRecord
100
AcDbRegAppTableRecord
  2
ACAD
 70
0
  0
ENDTAB
  0
TABLE
  2
DIMSTYLE
  5
A
100
AcDbSymbolTable
 70
1
100
AcDbDimStyleTable
 71
0
  0
DIMSTYLE
105
27
100
AcDbSymbolTableRecord
100
AcDbDimStyleTableRecord
  2
Standard
 41
3.302
 42
1.0
 43
3.75
 44
1.0
 70
0
 73
0
 74
0
 77
1
 78
8
140
3.5
141
2.5
143
0.03937007874016
147
1.524
171
3
172
1
271
2
272
2
274
3
278
44
283
0
284
8
340
11
  0
ENDTAB
  0
TABLE
  2
BLOCK_RECORD
  5
1
100
AcDbSymbolTable
 70
1
  0
BLOCK_RECORD
  5
1F
100
AcDbSymbolTableRecord
100
AcDbBlockTableRecord
  2
*Model_Space
340
22
  0
BLOCK_RECORD
  5
1B
100
AcDbSymbolTableRecord
100
AcDbBlockTableRecord
  2
*Paper_Space
340
1E
  0
BLOCK_RECORD
  5
23
100
AcDbSymbolTableRecord
100
AcDbBlockTableRecord
  2
*Paper_Space0
340
26
  0
ENDTAB
  0
ENDSEC
  0
SECTION
  2
BLOCKS
  0
BLOCK
  5
20
100
AcDbEntity
  8
0
100
AcDbBlockBegin
  2
*Model_Space
 70
0
 10
0.0
 20
0.0
 30
0.0
  3
*Model_Space
  1

  0
ENDBLK
  5
21
100
AcDbEntity
  8
0
100
AcDbBlockEnd
  0
BLOCK
  5
1C
100
AcDbEntity
 67
1
  8
0
100
AcDbBlockBegin
  2
*Paper_Space
 70
0
 10
0.0
 20
0.0
 30
0.0
  3
*Paper_Space
  1

  0
ENDBLK
  5
1D
100
AcDbEntity
 67
1
  8
0
100
AcDbBlockEnd
  0
BLOCK
  5
24
100
AcDbEntity
  8
0
100
AcDbBlockBegin
  2
*Paper_Space0
 70
0
 10
0.0
 20
0.0
 30
0.0
  3
*Paper_Space0
  1

  0
ENDBLK
  5
25
100
AcDbEntity
  8
0
100
AcDbBlockEnd
  0
ENDSEC
  0
SECTION
  2
ENTITIES
  0
CIRCLE
  5
43
100
AcDbEntity
100
AcDbCircle
  8
0
 62
7
370
15
  6
CONTINUOUS
 10
236.0
 20
72.0
 30
0.0
 40
2.500000000000028
  0
CIRCLE
  5
44
100
AcDbEntity
100
AcDbCircle
  8
0
 62
7
370
15
  6
CONTINUOUS
 10
221.5
 20
176.5
 30
0.0
 40
1.4000000000000341
  0
CIRCLE
  5
45
100
AcDbEntity
100
AcDbCircle
  8
0
 62
7
370
15
  6
CONTINUOUS
 10
12.5
 20
-32.5
 30
0.0
 40
1.399999999999997
  0
CIRCLE
  5
46
100
AcDbEntity
100
AcDbCircle
  8
0
 62
7
370
15
  6
CONTINUOUS
 10
1.0
 20
42.3999999999999986
 30
0.0
 40
1.5
  0
CIRCLE
  5
47
100
AcDbEntity
100
AcDbCircle
  8
0
 62
7
370
15
  6
CONTINUOUS
 10
-2.0
 20
118.5999999999999943
 30
0.0
 40
2.5000000000000169
  0
CIRCLE
  5
48
100
AcDbEntity
100
AcDbCircle
  8
0
 62
7
370
15
  6
CONTINUOUS
 10
-5.0
 20
95.5999999999999943
 30
0.0
 40
1.4999999999999889
  0
CIRCLE
  5
49
100
AcDbEntity
100
AcDbCircle
  8
0
 62
7
370
15
  6
CONTINUOUS
 10
12.5
 20
176.5
 30
0.0
 40
1.399999999999995
  0
CIRCLE
  5
4A
100
AcDbEntity
100
AcDbCircle
  8
0
 62
7
370
15
  6
CONTINUOUS
 10
1.0
 20
101.5999999999999943
 30
0.0
 40
1.500000000000002
  0
CIRCLE
  5
4B
100
AcDbEntity
100
AcDbCircle
  8
0
 62
7
370
15
  6
CONTINUOUS
 10
-5.0
 20
48.3999999999999986
 30
0.0
 40
1.4999999999999969
  0
CIRCLE
  5
4C
100
AcDbEntity
100
AcDbCircle
  8
0
 62
7
370
15
  6
CONTINUOUS
 10
-2.0
 20
25.3999999999999986
 30
0.0
 40
2.5000000000000031
  0
CIRCLE
  5
4D
100
AcDbEntity
100
AcDbCircle
  8
0
 62
7
370
15
  6
CONTINUOUS
 10
117.0
 20
72.0
 30
0.0
 40
3.0000000000000142
  0
CIRCLE
  5
4E
100
AcDbEntity
100
AcDbCircle
  8
0
 62
7
370
15
  6
CONTINUOUS
 10
221.5
 20
-32.5
 30
0.0
 40
1.400000000000063
  0
LINE
  5
4F
100
AcDbEntity
100
AcDbLine
  8
0
 62
7
370
15
  6
CONTINUOUS
 10
216.4289321880999921
 20
-10.5294372514999992
 30
0.0
 11
221.3786796564000099
 21
-5.5796897832000001
 31
0.0
  0
LINE
  5
50
100
AcDbEntity
100
AcDbLine
  8
0
 62
7
370
15
  6
CONTINUOUS
 10
216.4289321880999921
 20
-10.5294372514999992
 30
0.0
 11
221.3786796564000099
 21
-15.4791847197999992
 31
0.0
  0
LINE
  5
51
100
AcDbEntity
100
AcDbLine
  8
0
 62
7
370
15
  6
CONTINUOUS
 10
216.4289321880999921
 20
-20.4289321880999992
 30
0.0
 11
221.3786796564000099
 21
-15.4791847197999992
 31
0.0
  0
LINE
  5
52
100
AcDbEntity
100
AcDbLine
  8
0
 62
7
370
15
  6
CONTINUOUS
 10
216.4289321880999921
 20
-20.4289321880999992
 30
0.0
 11
221.5
 21
-25.5
 31
0.0
  0
LINE
  5
53
100
AcDbEntity
100
AcDbLine
  8
0
 62
7
370
15
  6
CONTINUOUS
 10
221.5
 20
-25.5
 30
0.0
 11
214.5
 21
-25.5
 31
0.0
  0
LINE
  5
54
100
AcDbEntity
100
AcDbLine
  8
0
 62
7
370
15
  6
CONTINUOUS
 10
214.5
 20
-32.6421356236999998
 30
0.0
 11
214.5
 21
-25.5
 31
0.0
  0
LINE
  5
55
100
AcDbEntity
100
AcDbLine
  8
0
 62
7
370
15
  6
CONTINUOUS
 10
209.4289321880999921
 20
-27.5710678119000008
 30
0.0
 11
214.5
 21
-32.6421356236999998
 31
0.0
  0
LINE
  5
56
100
AcDbEntity
100
AcDbLine
  8
0
 62
7
370
15
  6
CONTINUOUS
 10
209.4289321880999921
 20
-27.5710678119000008
 30
0.0
 11
204.4791847198000028
 21
-32.5208152801999972
 31
0.0
  0
LINE
  5
57
100
AcDbEntity
100
AcDbLine
  8
0
 62
7
370
15
  6
CONTINUOUS
 10
199.5294372515000134
 20
-27.5710678119000008
 30
0.0
 11
204.4791847198000028
 21
-32.5208152801999972
 31
0.0
  0
LINE
  5
58
100
AcDbEntity
100
AcDbLine
  8
0
 62
7
370
15
  6
CONTINUOUS
 10
199.5294372515000134
 20
-27.5710678119000008
 30
0.0
 11
194.5796897831999956
 21
-32.5208152801999972
 31
0.0
  0
LINE
  5
59
100
AcDbEntity
100
AcDbLine
  8
0
 62
7
370
15
  6
CONTINUOUS
 10
34.4705627485000008
 20
-27.4289321880999992
 30
0.0
 11
29.5208152802000008
 21
-32.3786796564000028
 31
0.0
  0
LINE
  5
5A
100
AcDbEntity
100
AcDbLine
  8
0
 62
7
370
15
  6
CONTINUOUS
 10
24.5710678119000008
 20
-27.4289321880999992
 30
0.0
 11
29.5208152802000008
 21
-32.3786796564000028
 31
0.0
  0
LINE
  5
5B
100
AcDbEntity
100
AcDbLine
  8
0
 62
7
370
15
  6
CONTINUOUS
 10
24.5710678119000008
 20
-27.4289321880999992
 30
0.0
 11
19.5
 21
-32.5
 31
0.0
  0
LINE
  5
5C
100
AcDbEntity
100
AcDbLine
  8
0
 62
7
370
15
  6
CONTINUOUS
 10
19.5
 20
-32.5
 30
0.0
 11
19.5
 21
-25.5
 31
0.0
  0
LINE
  5
5D
100
AcDbEntity
100
AcDbLine
  8
0
 62
7
370
15
  6
CONTINUOUS
 10
12.3578643763000002
 20
-25.5
 30
0.0
 11
19.5
 21
-25.5
 31
0.0
  0
LINE
  5
5E
100
AcDbEntity
100
AcDbLine
  8
0
 62
7
370
15
  6
CONTINUOUS
 10
17.4289321880999992
 20
-20.4289321880999992
 30
0.0
 11
12.3578643763000002
 21
-25.5
 31
0.0
  0
LINE
  5
5F
100
AcDbEntity
100
AcDbLine
  8
0
 62
7
370
15
  6
CONTINUOUS
 10
17.4289321880999992
 20
-20.4289321880999992
 30
0.0
 11
12.4791847197999992
 21
-15.4791847197999992
 31
0.0
  0
LINE
  5
60
100
AcDbEntity
100
AcDbLine
  8
0
 62
7
370
15
  6
CONTINUOUS
 10
17.4289321880999992
 20
-10.5294372514999992
 30
0.0
 11
12.4791847197999992
 21
-15.4791847197999992
 31
0.0
  0
LINE
  5
61
100
AcDbEntity
100
AcDbLine
  8
0
 62
7
370
15
  6
CONTINUOUS
 10
17.4289321880999992
 20
-10.5294372514999992
 30
0.0
 11
12.4791847197999992
 21
-5.5796897832000001
 31
0.0
  0
LINE
  5
62
100
AcDbEntity
100
AcDbLine
  8
0
 62
7
370
15
  6
CONTINUOUS
 10
34.4705627485000008
 20
-27.4289321880999992
 30
0.0
 11
39.4203102167999972
 21
-32.3786796564000028
 31
0.0
  0
LINE
  5
63
100
AcDbEntity
100
AcDbLine
  8
0
 62
7
370
15
  6
CONTINUOUS
 10
17.5710678119000008
 20
154.5294372515000134
 30
0.0
 11
12.6213203436000008
 21
159.4791847198000028
 31
0.0
  0
LINE
  5
64
100
AcDbEntity
100
AcDbLine
  8
0
 62
7
370
15
  6
CONTINUOUS
 10
17.5710678119000008
 20
164.4289321880999921
 30
0.0
 11
12.6213203436000008
 21
159.4791847198000028
 31
0.0
  0
LINE
  5
65
100
AcDbEntity
100
AcDbLine
  8
0
 62
7
370
15
  6
CONTINUOUS
 10
17.5710678119000008
 20
164.4289321880999921
 30
0.0
 11
12.5
 21
169.5
 31
0.0
  0
LINE
  5
66
100
AcDbEntity
100
AcDbLine
  8
0
 62
7
370
15
  6
CONTINUOUS
 10
12.5
 20
169.5
 30
0.0
 11
19.5
 21
169.5
 31
0.0
  0
LINE
  5
67
100
AcDbEntity
100
AcDbLine
  8
0
 62
7
370
15
  6
CONTINUOUS
 10
19.5
 20
176.6421356236999998
 30
0.0
 11
19.5
 21
169.5
 31
0.0
  0
LINE
  5
68
100
AcDbEntity
100
AcDbLine
  8
0
 62
7
370
15
  6
CONTINUOUS
 10
24.5710678119000008
 20
171.5710678119000079
 30
0.0
 11
19.5
 21
176.6421356236999998
 31
0.0
  0
LINE
  5
69
100
AcDbEntity
100
AcDbLine
  8
0
 62
7
370
15
  6
CONTINUOUS
 10
24.5710678119000008
 20
171.5710678119000079
 30
0.0
 11
29.5208152802000008
 21
176.5208152801999972
 31
0.0
  0
LINE
  5
6A
100
AcDbEntity
100
AcDbLine
  8
0
 62
7
370
15
  6
CONTINUOUS
 10
34.4705627485000008
 20
171.5710678119000079
 30
0.0
 11
29.5208152802000008
 21
176.5208152801999972
 31
0.0
  0
LINE
  5
6B
100
AcDbEntity
100
AcDbLine
  8
0
 62
7
370
15
  6
CONTINUOUS
 10
34.4705627485000008
 20
171.5710678119000079
 30
0.0
 11
39.4203102167999972
 21
176.5208152801999972
 31
0.0
  0
LINE
  5
6C
100
AcDbEntity
100
AcDbLine
  8
0
 62
7
370
15
  6
CONTINUOUS
 10
17.5710678119000008
 20
154.5294372515000134
 30
0.0
 11
12.6213203436000008
 21
149.5796897831999956
 31
0.0
  0
LINE
  5
6D
100
AcDbEntity
100
AcDbLine
  8
0
 62
7
370
15
  6
CONTINUOUS
 10
37.4705627485000008
 20
181.6421356236999998
 30
0.0
 11
196.5294372515000134
 21
181.5
 31
0.0
  0
LINE
  5
6E
100
AcDbEntity
100
AcDbLine
  8
0
 62
7
370
15
  6
CONTINUOUS
 10
199.5294372515000134
 20
178.5
 30
0.0
 11
196.5294372515000134
 21
181.5
 31
0.0
  0
LINE
  5
6F
100
AcDbEntity
100
AcDbLine
  8
0
 62
7
370
15
  6
CONTINUOUS
 10
199.5294372515000134
 20
178.5
 30
0.0
 11
202.5294372515000134
 21
181.5
 31
0.0
  0
LINE
  5
70
100
AcDbEntity
100
AcDbLine
  8
0
 62
7
370
15
  6
CONTINUOUS
 10
206.4289321880999921
 20
181.5
 30
0.0
 11
202.5294372515000134
 21
181.5
 31
0.0
  0
LINE
  5
71
100
AcDbEntity
100
AcDbLine
  8
0
 62
7
370
15
  6
CONTINUOUS
 10
209.4289321880999921
 20
178.5
 30
0.0
 11
206.4289321880999921
 21
181.5
 31
0.0
  0
LINE
  5
72
100
AcDbEntity
100
AcDbLine
  8
0
 62
7
370
15
  6
CONTINUOUS
 10
209.4289321880999921
 20
178.5
 30
0.0
 11
212.4289321880999921
 21
181.5
 31
0.0
  0
LINE
  5
73
100
AcDbEntity
100
AcDbLine
  8
0
 62
7
370
15
  6
CONTINUOUS
 10
221.5
 20
181.5
 30
0.0
 11
212.4289321880999921
 21
181.5
 31
0.0
  0
LINE
  5
74
100
AcDbEntity
100
AcDbLine
  8
0
 62
7
370
15
  6
CONTINUOUS
 10
226.6421356236999998
 20
167.4289321880999921
 30
0.0
 11
226.5
 21
176.5
 31
0.0
  0
LINE
  5
75
100
AcDbEntity
100
AcDbLine
  8
0
 62
7
370
15
  6
CONTINUOUS
 10
223.6421356236999998
 20
164.4289321880999921
 30
0.0
 11
226.6421356236999998
 21
167.4289321880999921
 31
0.0
  0
LINE
  5
76
100
AcDbEntity
100
AcDbLine
  8
0
 62
7
370
15
  6
CONTINUOUS
 10
223.6421356236999998
 20
164.4289321880999921
 30
0.0
 11
226.6421356236999998
 21
161.4289321880999921
 31
0.0
  0
LINE
  5
77
100
AcDbEntity
100
AcDbLine
  8
0
 62
7
370
15
  6
CONTINUOUS
 10
226.6421356236999998
 20
161.4289321880999921
 30
0.0
 11
226.6421356236999998
 21
157.5294372515000134
 31
0.0
  0
LINE
  5
78
100
AcDbEntity
100
AcDbLine
  8
0
 62
7
370
15
  6
CONTINUOUS
 10
223.6421356236999998
 20
154.5294372515000134
 30
0.0
 11
226.6421356236999998
 21
157.5294372515000134
 31
0.0
  0
LINE
  5
79
100
AcDbEntity
100
AcDbLine
  8
0
 62
7
370
15
  6
CONTINUOUS
 10
223.6421356236999998
 20
154.5294372515000134
 30
0.0
 11
226.6421356236999998
 21
151.5294372515000134
 31
0.0
  0
LINE
  5
7A
100
AcDbEntity
100
AcDbLine
  8
0
 62
7
370
15
  6
CONTINUOUS
 10
226.6421356236999998
 20
151.5294372515000134
 30
0.0
 11
226.4934163147999868
 21
84.0110132123
 31
0.0
  0
LINE
  5
7B
100
AcDbEntity
100
AcDbLine
  8
0
 62
7
370
15
  6
CONTINUOUS
 10
238.0
 20
79.0
 30
0.0
 11
231.4934041857000011
 21
79.0
 31
0.0
  0
LINE
  5
7C
100
AcDbEntity
100
AcDbLine
  8
0
 62
7
370
15
  6
CONTINUOUS
 10
243.0
 20
74.0
 30
0.0
 11
243.0
 21
70.0
 31
0.0
  0
LINE
  5
7D
100
AcDbEntity
100
AcDbLine
  8
0
 62
7
370
15
  6
CONTINUOUS
 10
238.0
 20
65.0
 30
0.0
 11
231.5
 21
65.0
 31
0.0
  0
LINE
  5
7E
100
AcDbEntity
100
AcDbLine
  8
0
 62
7
370
15
  6
CONTINUOUS
 10
226.5
 20
60.0
 30
0.0
 11
226.5
 21
-7.5294372515000001
 31
0.0
  0
LINE
  5
7F
100
AcDbEntity
100
AcDbLine
  8
0
 62
7
370
15
  6
CONTINUOUS
 10
223.5
 20
-10.5294372514999992
 30
0.0
 11
226.5
 21
-7.5294372515000001
 31
0.0
  0
LINE
  5
80
100
AcDbEntity
100
AcDbLine
  8
0
 62
7
370
15
  6
CONTINUOUS
 10
223.5
 20
-10.5294372514999992
 30
0.0
 11
226.5
 21
-13.5294372514999992
 31
0.0
  0
LINE
  5
81
100
AcDbEntity
100
AcDbLine
  8
0
 62
7
370
15
  6
CONTINUOUS
 10
226.5
 20
-17.4289321880999992
 30
0.0
 11
226.5
 21
-13.5294372514999992
 31
0.0
  0
LINE
  5
82
100
AcDbEntity
100
AcDbLine
  8
0
 62
7
370
15
  6
CONTINUOUS
 10
223.5
 20
-20.4289321880999992
 30
0.0
 11
226.5
 21
-17.4289321880999992
 31
0.0
  0
LINE
  5
83
100
AcDbEntity
100
AcDbLine
  8
0
 62
7
370
15
  6
CONTINUOUS
 10
223.5
 20
-20.4289321880999992
 30
0.0
 11
226.5
 21
-23.4289321880999992
 31
0.0
  0
LINE
  5
84
100
AcDbEntity
100
AcDbLine
  8
0
 62
7
370
15
  6
CONTINUOUS
 10
226.5
 20
-32.5
 30
0.0
 11
226.5
 21
-23.4289321880999992
 31
0.0
  0
LINE
  5
85
100
AcDbEntity
100
AcDbLine
  8
0
 62
7
370
15
  6
CONTINUOUS
 10
212.4289321880999921
 20
-37.6421356236999998
 30
0.0
 11
221.5
 21
-37.5
 31
0.0
  0
LINE
  5
86
100
AcDbEntity
100
AcDbLine
  8
0
 62
7
370
15
  6
CONTINUOUS
 10
209.4289321880999921
 20
-34.6421356236999998
 30
0.0
 11
212.4289321880999921
 21
-37.6421356236999998
 31
0.0
  0
LINE
  5
87
100
AcDbEntity
100
AcDbLine
  8
0
 62
7
370
15
  6
CONTINUOUS
 10
209.4289321880999921
 20
-34.6421356236999998
 30
0.0
 11
206.4289321880999921
 21
-37.6421356236999998
 31
0.0
  0
LINE
  5
88
100
AcDbEntity
100
AcDbLine
  8
0
 62
7
370
15
  6
CONTINUOUS
 10
206.4289321880999921
 20
-37.6421356236999998
 30
0.0
 11
202.5294372515000134
 21
-37.6421356236999998
 31
0.0
  0
LINE
  5
89
100
AcDbEntity
100
AcDbLine
  8
0
 62
7
370
15
  6
CONTINUOUS
 10
199.5294372515000134
 20
-34.6421356236999998
 30
0.0
 11
202.5294372515000134
 21
-37.6421356236999998
 31
0.0
  0
LINE
  5
8A
100
AcDbEntity
100
AcDbLine
  8
0
 62
7
370
15
  6
CONTINUOUS
 10
199.5294372515000134
 20
-34.6421356236999998
 30
0.0
 11
196.5294372515000134
 21
-37.6421356236999998
 31
0.0
  0
LINE
  5
8B
100
AcDbEntity
100
AcDbLine
  8
0
 62
7
370
15
  6
CONTINUOUS
 10
196.5294372515000134
 20
-37.6421356236999998
 30
0.0
 11
37.4705627485000008
 21
-37.5
 31
0.0
  0
LINE
  5
8C
100
AcDbEntity
100
AcDbLine
  8
0
 62
7
370
15
  6
CONTINUOUS
 10
34.4705627485000008
 20
-34.5
 30
0.0
 11
37.4705627485000008
 21
-37.5
 31
0.0
  0
LINE
  5
8D
100
AcDbEntity
100
AcDbLine
  8
0
 62
7
370
15
  6
CONTINUOUS
 10
34.4705627485000008
 20
-34.5
 30
0.0
 11
31.4705627485000008
 21
-37.5
 31
0.0
  0
LINE
  5
8E
100
AcDbEntity
100
AcDbLine
  8
0
 62
7
370
15
  6
CONTINUOUS
 10
27.5710678119000008
 20
-37.5
 30
0.0
 11
31.4705627485000008
 21
-37.5
 31
0.0
  0
LINE
  5
8F
100
AcDbEntity
100
AcDbLine
  8
0
 62
7
370
15
  6
CONTINUOUS
 10
24.5710678119000008
 20
-34.5
 30
0.0
 11
27.5710678119000008
 21
-37.5
 31
0.0
  0
LINE
  5
90
100
AcDbEntity
100
AcDbLine
  8
0
 62
7
370
15
  6
CONTINUOUS
 10
24.5710678119000008
 20
-34.5
 30
0.0
 11
21.5710678119000008
 21
-37.5
 31
0.0
  0
LINE
  5
91
100
AcDbEntity
100
AcDbLine
  8
0
 62
7
370
15
  6
CONTINUOUS
 10
12.5
 20
-37.5
 30
0.0
 11
21.5710678119000008
 21
-37.5
 31
0.0
  0
LINE
  5
92
100
AcDbEntity
100
AcDbLine
  8
0
 62
7
370
15
  6
CONTINUOUS
 10
7.3578643763000002
 20
-23.4289321880999992
 30
0.0
 11
7.5
 21
-32.5
 31
0.0
  0
LINE
  5
93
100
AcDbEntity
100
AcDbLine
  8
0
 62
7
370
15
  6
CONTINUOUS
 10
10.3578643763000002
 20
-20.4289321880999992
 30
0.0
 11
7.3578643763000002
 21
-23.4289321880999992
 31
0.0
  0
LINE
  5
94
100
AcDbEntity
100
AcDbLine
  8
0
 62
7
370
15
  6
CONTINUOUS
 10
10.3578643763000002
 20
-20.4289321880999992
 30
0.0
 11
7.3578643763000002
 21
-17.4289321880999992
 31
0.0
  0
LINE
  5
95
100
AcDbEntity
100
AcDbLine
  8
0
 62
7
370
15
  6
CONTINUOUS
 10
7.3578643763000002
 20
-17.4289321880999992
 30
0.0
 11
7.3578643763000002
 21
-13.5294372514999992
 31
0.0
  0
LINE
  5
96
100
AcDbEntity
100
AcDbLine
  8
0
 62
7
370
15
  6
CONTINUOUS
 10
10.3578643763000002
 20
-10.5294372514999992
 30
0.0
 11
7.3578643763000002
 21
-13.5294372514999992
 31
0.0
  0
LINE
  5
97
100
AcDbEntity
100
AcDbLine
  8
0
 62
7
370
15
  6
CONTINUOUS
 10
10.3578643763000002
 20
-10.5294372514999992
 30
0.0
 11
7.3578643763000002
 21
-7.5294372515000001
 31
0.0
  0
LINE
  5
98
100
AcDbEntity
100
AcDbLine
  8
0
 62
7
370
15
  6
CONTINUOUS
 10
7.3578643763000002
 20
-7.5294372515000001
 30
0.0
 11
7.8110966869
 21
13.2911836092000009
 31
0.0
  0
LINE
  5
99
100
AcDbEntity
100
AcDbLine
  8
0
 62
7
370
15
  6
CONTINUOUS
 10
-4.0
 20
18.3999999999999986
 30
0.0
 11
2.8122809277999998
 21
18.3999999999999986
 31
0.0
  0
LINE
  5
9A
100
AcDbEntity
100
AcDbLine
  8
0
 62
7
370
15
  6
CONTINUOUS
 10
-9.0
 20
120.5999999999999943
 30
0.0
 11
-9.0
 21
23.3999999999999986
 31
0.0
  0
LINE
  5
9B
100
AcDbEntity
100
AcDbLine
  8
0
 62
7
370
15
  6
CONTINUOUS
 10
-4.0
 20
125.5999999999999943
 30
0.0
 11
2.5
 21
125.5999999999999943
 31
0.0
  0
LINE
  5
9C
100
AcDbEntity
100
AcDbLine
  8
0
 62
7
370
15
  6
CONTINUOUS
 10
7.5
 20
151.5294372515000134
 30
0.0
 11
7.5
 21
130.5999999999999943
 31
0.0
  0
LINE
  5
9D
100
AcDbEntity
100
AcDbLine
  8
0
 62
7
370
15
  6
CONTINUOUS
 10
10.5
 20
154.5294372515000134
 30
0.0
 11
7.5
 21
151.5294372515000134
 31
0.0
  0
LINE
  5
9E
100
AcDbEntity
100
AcDbLine
  8
0
 62
7
370
15
  6
CONTINUOUS
 10
10.5
 20
154.5294372515000134
 30
0.0
 11
7.5
 21
157.5294372515000134
 31
0.0
  0
LINE
  5
9F
100
AcDbEntity
100
AcDbLine
  8
0
 62
7
370
15
  6
CONTINUOUS
 10
7.5
 20
161.4289321880999921
 30
0.0
 11
7.5
 21
157.5294372515000134
 31
0.0
  0
LINE
  5
A0
100
AcDbEntity
100
AcDbLine
  8
0
 62
7
370
15
  6
CONTINUOUS
 10
10.5
 20
164.4289321880999921
 30
0.0
 11
7.5
 21
161.4289321880999921
 31
0.0
  0
LINE
  5
A1
100
AcDbEntity
100
AcDbLine
  8
0
 62
7
370
15
  6
CONTINUOUS
 10
10.5
 20
164.4289321880999921
 30
0.0
 11
7.5
 21
167.4289321880999921
 31
0.0
  0
LINE
  5
A2
100
AcDbEntity
100
AcDbLine
  8
0
 62
7
370
15
  6
CONTINUOUS
 10
7.5
 20
176.5
 30
0.0
 11
7.5
 21
167.4289321880999921
 31
0.0
  0
LINE
  5
A3
100
AcDbEntity
100
AcDbLine
  8
0
 62
7
370
15
  6
CONTINUOUS
 10
21.5710678119000008
 20
181.6421356236999998
 30
0.0
 11
12.5
 21
181.5
 31
0.0
  0
LINE
  5
A4
100
AcDbEntity
100
AcDbLine
  8
0
 62
7
370
15
  6
CONTINUOUS
 10
24.5710678119000008
 20
178.6421356236999998
 30
0.0
 11
21.5710678119000008
 21
181.6421356236999998
 31
0.0
  0
LINE
  5
A5
100
AcDbEntity
100
AcDbLine
  8
0
 62
7
370
15
  6
CONTINUOUS
 10
24.5710678119000008
 20
178.6421356236999998
 30
0.0
 11
27.5710678119000008
 21
181.6421356236999998
 31
0.0
  0
LINE
  5
A6
100
AcDbEntity
100
AcDbLine
  8
0
 62
7
370
15
  6
CONTINUOUS
 10
27.5710678119000008
 20
181.6421356236999998
 30
0.0
 11
31.4705627485000008
 21
181.6421356236999998
 31
0.0
  0
LINE
  5
A7
100
AcDbEntity
100
AcDbLine
  8
0
 62
7
370
15
  6
CONTINUOUS
 10
34.4705627485000008
 20
178.6421356236999998
 30
0.0
 11
31.4705627485000008
 21
181.6421356236999998
 31
0.0
  0
LINE
  5
A8
100
AcDbEntity
100
AcDbLine
  8
0
 62
7
370
15
  6
CONTINUOUS
 10
34.4705627485000008
 20
178.6421356236999998
 30
0.0
 11
37.4705627485000008
 21
181.6421356236999998
 31
0.0
  0
LINE
  5
A9
100
AcDbEntity
100
AcDbLine
  8
0
 62
7
370
15
  6
CONTINUOUS
 10
22.4583694397000002
 20
57.0
 30
0.0
 11
22.4583694397000002
 21
87.0
 31
0.0
  0
LINE
  5
AA
100
AcDbEntity
100
AcDbLine
  8
0
 62
7
370
15
  6
CONTINUOUS
 10
17.4583694397000002
 20
92.0
 30
0.0
 11
7.4583694397000002
 21
92.0
 31
0.0
  0
LINE
  5
AB
100
AcDbEntity
100
AcDbLine
  8
0
 62
7
370
15
  6
CONTINUOUS
 10
2.4583694397000002
 20
57.0
 30
0.0
 11
2.4583694397000002
 21
87.0
 31
0.0
  0
LINE
  5
AC
100
AcDbEntity
100
AcDbLine
  8
0
 62
7
370
15
  6
CONTINUOUS
 10
17.4583694397000002
 20
52.0
 30
0.0
 11
7.4583694397000002
 21
52.0
 31
0.0
  0
LINE
  5
AD
100
AcDbEntity
100
AcDbLine
  8
0
 62
7
370
15
  6
CONTINUOUS
 10
216.5710678119000079
 20
154.5294372515000134
 30
0.0
 11
221.5208152801999972
 21
149.5796897831999956
 31
0.0
  0
LINE
  5
AE
100
AcDbEntity
100
AcDbLine
  8
0
 62
7
370
15
  6
CONTINUOUS
 10
199.5294372515000134
 20
171.4289321880999921
 30
0.0
 11
194.5796897831999956
 21
176.3786796564000099
 31
0.0
  0
LINE
  5
AF
100
AcDbEntity
100
AcDbLine
  8
0
 62
7
370
15
  6
CONTINUOUS
 10
199.5294372515000134
 20
171.4289321880999921
 30
0.0
 11
204.4791847198000028
 21
176.3786796564000099
 31
0.0
  0
LINE
  5
B0
100
AcDbEntity
100
AcDbLine
  8
0
 62
7
370
15
  6
CONTINUOUS
 10
209.4289321880999921
 20
171.4289321880999921
 30
0.0
 11
204.4791847198000028
 21
176.3786796564000099
 31
0.0
  0
LINE
  5
B1
100
AcDbEntity
100
AcDbLine
  8
0
 62
7
370
15
  6
CONTINUOUS
 10
209.4289321880999921
 20
171.4289321880999921
 30
0.0
 11
214.5
 21
176.5
 31
0.0
  0
LINE
  5
B2
100
AcDbEntity
100
AcDbLine
  8
0
 62
7
370
15
  6
CONTINUOUS
 10
214.5
 20
176.5
 30
0.0
 11
214.5
 21
169.5
 31
0.0
  0
LINE
  5
B3
100
AcDbEntity
100
AcDbLine
  8
0
 62
7
370
15
  6
CONTINUOUS
 10
221.6421356236999998
 20
169.5
 30
0.0
 11
214.5
 21
169.5
 31
0.0
  0
LINE
  5
B4
100
AcDbEntity
100
AcDbLine
  8
0
 62
7
370
15
  6
CONTINUOUS
 10
216.5710678119000079
 20
164.4289321880999921
 30
0.0
 11
221.6421356236999998
 21
169.5
 31
0.0
  0
LINE
  5
B5
100
AcDbEntity
100
AcDbLine
  8
0
 62
7
370
15
  6
CONTINUOUS
 10
216.5710678119000079
 20
164.4289321880999921
 30
0.0
 11
221.5208152801999972
 21
159.4791847198000028
 31
0.0
  0
LINE
  5
B6
100
AcDbEntity
100
AcDbLine
  8
0
 62
7
370
15
  6
CONTINUOUS
 10
216.5710678119000079
 20
154.5294372515000134
 30
0.0
 11
221.5208152801999972
 21
159.4791847198000028
 31
0.0
  0
ARC
  5
B7
100
AcDbEntity
  8
0
 62
7
370
15
  6
CONTINUOUS
100
AcDbCircle
 10
120.0
 20
67.0
 30
0.0
 40
24.9999999999999503
100
AcDbArc
 50
148.2955399999000008
 51
204.2667390377000061
  0
ARC
  5
B8
100
AcDbEntity
  8
0
 62
7
370
15
  6
CONTINUOUS
100
AcDbCircle
 10
117.0
 20
72.0
 30
0.0
 40
20.0000000000000213
100
AcDbArc
 50
78.5294702678999954
 51
155.988352451499992
  0
ARC
  5
B9
100
AcDbEntity
  8
0
 62
7
370
15
  6
CONTINUOUS
100
AcDbCircle
 10
119.8301270189000007
 20
77.0980762113999987
 30
0.0
 40
25.0000000000000213
100
AcDbArc
 50
268.2955399998999724
 51
324.2667390377000061
  0
ARC
  5
BA
100
AcDbEntity
  8
0
 62
7
370
15
  6
CONTINUOUS
100
AcDbCircle
 10
117.0
 20
72.0
 30
0.0
 40
20.0000000000000604
100
AcDbArc
 50
198.5294702678999954
 51
275.9883524515000204
  0
ARC
  5
BB
100
AcDbEntity
  8
0
 62
7
370
15
  6
CONTINUOUS
100
AcDbCircle
 10
111.1698729810999993
 20
71.9019237886000013
 30
0.0
 40
24.9999999999999503
100
AcDbArc
 50
28.2955399999000008
 51
84.2667390377000061
  0
ARC
  5
BC
100
AcDbEntity
  8
0
 62
7
370
15
  6
CONTINUOUS
100
AcDbCircle
 10
117.0
 20
72.0
 30
0.0
 40
19.9999999999999893
100
AcDbArc
 50
318.5294702679000238
 51
35.9883524514999991
  0
ARC
  5
BD
100
AcDbEntity
  8
0
 62
7
370
15
  6
CONTINUOUS
100
AcDbCircle
 10
221.5
 20
176.5
 30
0.0
 40
4.9999999999999716
100
AcDbArc
 50
0.0
 51
90.0
  0
ARC
  5
BE
100
AcDbEntity
  8
0
 62
7
370
15
  6
CONTINUOUS
100
AcDbCircle
 10
231.4934041857000011
 20
84.0
 30
0.0
 40
5.0000000000000711
100
AcDbArc
 50
179.8737977808000039
 51
270.0
  0
ARC
  5
BF
100
AcDbEntity
  8
0
 62
7
370
15
  6
CONTINUOUS
100
AcDbCircle
 10
238.0
 20
74.0
 30
0.0
 40
5.0
100
AcDbArc
 50
0.0
 51
90.0
  0
ARC
  5
C0
100
AcDbEntity
  8
0
 62
7
370
15
  6
CONTINUOUS
100
AcDbCircle
 10
238.0
 20
70.0
 30
0.0
 40
4.9999999999999716
100
AcDbArc
 50
270.0
 51
0.0
  0
ARC
  5
C1
100
AcDbEntity
  8
0
 62
7
370
15
  6
CONTINUOUS
100
AcDbCircle
 10
231.5
 20
60.0
 30
0.0
 40
4.9999999999999716
100
AcDbArc
 50
90.0
 51
180.0
  0
ARC
  5
C2
100
AcDbEntity
  8
0
 62
7
370
15
  6
CONTINUOUS
100
AcDbCircle
 10
221.5
 20
-32.5
 30
0.0
 40
5.0
100
AcDbArc
 50
270.0
 51
0.0
  0
ARC
  5
C3
100
AcDbEntity
  8
0
 62
7
370
15
  6
CONTINUOUS
100
AcDbCircle
 10
12.5
 20
-32.5
 30
0.0
 40
5.0000000000000071
100
AcDbArc
 50
180.0
 51
270.0
  0
ARC
  5
C4
100
AcDbEntity
  8
0
 62
7
370
15
  6
CONTINUOUS
100
AcDbCircle
 10
2.8122809277999998
 20
13.4000000000000004
 30
0.0
 40
5.0000000000000018
100
AcDbArc
 50
358.7529575579999914
 51
90.0
  0
ARC
  5
C5
100
AcDbEntity
  8
0
 62
7
370
15
  6
CONTINUOUS
100
AcDbCircle
 10
-4.0
 20
23.3999999999999986
 30
0.0
 40
5.0000000000000426
100
AcDbArc
 50
180.0
 51
270.0
  0
ARC
  5
C6
100
AcDbEntity
  8
0
 62
7
370
15
  6
CONTINUOUS
100
AcDbCircle
 10
-4.0
 20
120.5999999999999943
 30
0.0
 40
5.0
100
AcDbArc
 50
90.0
 51
180.0
  0
ARC
  5
C7
100
AcDbEntity
  8
0
 62
7
370
15
  6
CONTINUOUS
100
AcDbCircle
 10
2.5
 20
130.5999999999999943
 30
0.0
 40
5.0000000000000142
100
AcDbArc
 50
270.0
 51
0.0
  0
ARC
  5
C8
100
AcDbEntity
  8
0
 62
7
370
15
  6
CONTINUOUS
100
AcDbCircle
 10
12.5
 20
176.5
 30
0.0
 40
5.0000000000000284
100
AcDbArc
 50
90.0
 51
180.0
  0
ARC
  5
C9
100
AcDbEntity
  8
0
 62
7
370
15
  6
CONTINUOUS
100
AcDbCircle
 10
17.4583694397000002
 20
57.0
 30
0.0
 40
4.9999999999999956
100
AcDbArc
 50
270.0
 51
0.0
  0
ARC
  5
CA
100
AcDbEntity
  8
0
 62
7
370
15
  6
CONTINUOUS
100
AcDbCircle
 10
17.4583694397000002
 20
87.0
 30
0.0
 40
5.0000000000000107
100
AcDbArc
 50
0.0
 51
90.0
  0
ARC
  5
CB
100
AcDbEntity
  8
0
 62
7
370
15
  6
CONTINUOUS
100
AcDbCircle
 10
7.4583694397000002
 20
87.0
 30
0.0
 40
4.9999999999999947
100
AcDbArc
 50
90.0
 51
180.0
  0
ARC
  5
CC
100
AcDbEntity
  8
0
 62
7
370
15
  6
CONTINUOUS
100
AcDbCircle
 10
7.4583694397000002
 20
57.0
 30
0.0
 40
5.0
100
AcDbArc
 50
180.0
 51
270.0
  0
ENDSEC
  0
SECTION
  2
OBJECTS
  0
DICTIONARY
  5
C
100
AcDbDictionary
280
0
281
1
  3
ACAD_GROUP
350
D
  3
ACAD_LAYOUT
350
1A
  3
ACAD_MLINESTYLE
350
17
  3
ACAD_PLOTSETTINGS
350
19
  3
ACAD_PLOTSTYLENAME
350
E
  3
AcDbVariableDictionary
350
CD
  0
DICTIONARY
  5
D
100
AcDbDictionary
280
0
281
1
  0
ACDBDICTIONARYWDFLT
  5
E
100
AcDbDictionary
281
1
  3
Normal
350
F
100
AcDbDictionaryWithDefault
340
F
  0
ACDBPLACEHOLDER
  5
F
  0
DICTIONARY
  5
17
100
AcDbDictionary
280
0
281
1
  3
Standard
350
18
  0
MLINESTYLE
  5
18
100
AcDbMlineStyle
  2
STANDARD
 70
0
  3

 62
256
 51
90.0
 52
90.0
 71
2
 49
0.5
 62
256
  6
BYLAYER
 49
-0.5
 62
256
  6
BYLAYER
  0
DICTIONARY
  5
19
100
AcDbDictionary
280
0
281
1
  0
DICTIONARY
  5
1A
100
AcDbDictionary
281
1
  3
Layout1
350
1E
  3
Layout2
350
26
  3
Model
350
22
  0
LAYOUT
  5
1E
100
AcDbPlotSettings
  1

  2
C:\Program Files\AutoCAD 2002\plotters\DWF ePlot (optimized for plotting).pc3
  4

  6

 40
0.0
 41
0.0
 42
0.0
 43
0.0
 44
0.0
 45
0.0
 46
0.0
 47
0.0
 48
0.0
 49
0.0
140
0.0
141
0.0
142
1.0
143
1.0
 70
688
 72
0
 73
0
 74
5
  7

 75
16
147
1.0
148
0.0
149
0.0
100
AcDbLayout
  1
Layout1
 70
1
 71
1
 10
0.0
 20
0.0
 11
420.0
 21
297.0
 12
0.0
 22
0.0
 32
0.0
 14
100000000000000000000.0
 24
100000000000000000000.0
 34
100000000000000000000.0
 15
-100000000000000000000.0
 25
-100000000000000000000.0
 35
-100000000000000000000.0
146
0.0
 13
0.0
 23
0.0
 33
0.0
 16
1.0
 26
0.0
 36
0.0
 17
0.0
 27
1.0
 37
0.0
 76
0
330
1B
  0
LAYOUT
  5
22
100
AcDbPlotSettings
  1

  2
C:\Program Files\AutoCAD 2002\plotters\DWF ePlot (optimized for plotting).pc3
  4

  6

 40
0.0
 41
0.0
 42
0.0
 43
0.0
 44
0.0
 45
0.0
 46
0.0
 47
0.0
 48
0.0
 49
0.0
140
0.0
141
0.0
142
1.0
143
1.0
 70
1712
 72
0
 73
0
 74
0
  7

 75
0
147
1.0
148
0.0
149
0.0
100
AcDbLayout
  1
Model
 70
1
 71
0
 10
0.0
 20
0.0
 11
12.0
 21
9.0
 12
0.0
 22
0.0
 32
0.0
 14
0.0
 24
0.0
 34
0.0
 15
0.0
 25
0.0
 35
0.0
146
0.0
 13
0.0
 23
0.0
 33
0.0
 16
1.0
 26
0.0
 36
0.0
 17
0.0
 27
1.0
 37
0.0
 76
0
330
1F
  0
LAYOUT
  5
26
100
AcDbPlotSettings
  1

  2
C:\Program Files\AutoCAD 2002\plotters\DWF ePlot (optimized for plotting).pc3
  4

  6

 40
0.0
 41
0.0
 42
0.0
 43
0.0
 44
0.0
 45
0.0
 46
0.0
 47
0.0
 48
0.0
 49
0.0
140
0.0
141
0.0
142
1.0
143
1.0
 70
688
 72
0
 73
0
 74
5
  7

 75
16
147
1.0
148
0.0
149
0.0
100
AcDbLayout
  1
Layout2
 70
1
 71
2
 10
0.0
 20
0.0
 11
12.0
 21
9.0
 12
0.0
 22
0.0
 32
0.0
 14
0.0
 24
0.0
 34
0.0
 15
0.0
 25
0.0
 35
0.0
146
0.0
 13
0.0
 23
0.0
 33
0.0
 16
1.0
 26
0.0
 36
0.0
 17
0.0
 27
1.0
 37
0.0
 76
0
330
23
  0
DICTIONARY
  5
CD
100
AcDbDictionary
281
1
  3
DIMASSOC
350
CF
  3
HIDETEXT
350
CE
  0
DICTIONARYVAR
  5
CE
100
DictionaryVariables
280
0
  1
2
  0
DICTIONARYVAR
  5
CF
100
DictionaryVariables
280
0
  1
1
  0
ENDSEC
  0
EOF
