  0
SECTION
  2
HEADER
  9
$ACADVER
  1
AC1015
  9
$ACADMAINTVER
 70
     6
  9
$DWGCODEPAGE
  3
ANSI_1252
  9
$INSBASE
 10
0.0
 20
0.0
 30
0.0
  9
$EXTMIN
 10
0.0
 20
0.0
 30
0.0
  9
$EXTMAX
 10
841.0
 20
594.0
 30
0.0
  9
$LIMMIN
 10
0.0
 20
0.0
  9
$LIMMAX
 10
841.0
 20
594.0
  9
$ORTHOMODE
 70
     0
  9
$REGENMODE
 70
     1
  9
$FILLMODE
 70
     1
  9
$QTEXTMODE
 70
     0
  9
$MIRRTEXT
 70
     1
  9
$LTSCALE
 40
1.0
  9
$ATTMODE
 70
     1
  9
$TEXTSIZE
 40
3.5
  9
$TRACEWID
 40
1.0
  9
$TEXTSTYLE
  7
Standard
  9
$CLAYER
  8
0
  9
$CELTYPE
  6
ByLayer
  9
$CECOLOR
 62
   256
  9
$CELTSCALE
 40
1.0
  9
$DISPSILH
 70
     0
  9
$DIMSCALE
 40
1.0
  9
$DIMASZ
 40
3.302
  9
$DIMEXO
 40
1.0
  9
$DIMDLI
 40
3.75
  9
$DIMRND
 40
0.0
  9
$DIMDLE
 40
0.0
  9
$DIMEXE
 40
1.0
  9
$DIMTP
 40
0.0
  9
$DIMTM
 40
0.0
  9
$DIMTXT
 40
3.5
  9
$DIMCEN
 40
2.5
  9
$DIMTSZ
 40
0.0
  9
$DIMTOL
 70
     0
  9
$DIMLIM
 70
     0
  9
$DIMTIH
 70
     1
  9
$DIMTOH
 70
     1
  9
$DIMSE1
 70
     0
  9
$DIMSE2
 70
     0
  9
$DIMTAD
 70
     1
  9
$DIMZIN
 70
     1
  9
$DIMBLK
  1

  9
$DIMASO
 70
     1
  9
$DIMSHO
 70
     1
  9
$DIMPOST
  1

  9
$DIMAPOST
  1

  9
$DIMALT
 70
     0
  9
$DIMALTD
 70
     3
  9
$DIMALTF
 40
0.0393700787
  9
$DIMLFAC
 40
1.0
  9
$DIMTOFL
 70
     1
  9
$DIMTVP
 40
0.0
  9
$DIMTIX
 70
     0
  9
$DIMSOXD
 70
     0
  9
$DIMSAH
 70
     0
  9
$DIMBLK1
  1

  9
$DIMBLK2
  1

  9
$DIMSTYLE
  2
ISO-25
  9
$DIMCLRD
 70
     0
  9
$DIMCLRE
 70
     0
  9
$DIMCLRT
 70
     0
  9
$DIMTFAC
 40
1.0
  9
$DIMGAP
 40
1.524
  9
$DIMJUST
 70
     0
  9
$DIMSD1
 70
     0
  9
$DIMSD2
 70
     0
  9
$DIMTOLJ
 70
     0
  9
$DIMTZIN
 70
     1
  9
$DIMALTZ
 70
     0
  9
$DIMALTTZ
 70
     0
  9
$DIMUPT
 70
     0
  9
$DIMDEC
 70
     2
  9
$DIMTDEC
 70
     2
  9
$DIMALTU
 70
     2
  9
$DIMALTTD
 70
     3
  9
$DIMTXSTY
  7
Standard
  9
$DIMAUNIT
 70
     0
  9
$DIMADEC
 70
     2
  9
$DIMALTRND
 40
0.0
  9
$DIMAZIN
 70
     0
  9
$DIMDSEP
 70
    44
  9
$DIMATFIT
 70
     3
  9
$DIMFRAC
 70
     0
  9
$DIMLDRBLK
  1

  9
$DIMLUNIT
 70
     2
  9
$DIMLWD
 70
    -2
  9
$DIMLWE
 70
    -2
  9
$DIMTMOVE
 70
     0
  9
$LUNITS
 70
     2
  9
$LUPREC
 70
     2
  9
$SKETCHINC
 40
1.0
  9
$FILLETRAD
 40
10.0
  9
$AUNITS
 70
     0
  9
$AUPREC
 70
     2
  9
$MENU
  1
.
  9
$ELEVATION
 40
0.0
  9
$PELEVATION
 40
0.0
  9
$THICKNESS
 40
0.0
  9
$LIMCHECK
 70
     0
  9
$CHAMFERA
 40
10.0
  9
$CHAMFERB
 40
10.0
  9
$CHAMFERC
 40
20.0
  9
$CHAMFERD
 40
0.0
  9
$SKPOLY
 70
     0
  9
$TDCREATE
 40
2456316.703941945
  9
$TDUCREATE
 40
2456316.703941945
  9
$TDUPDATE
 40
2456316.703941945
  9
$TDUUPDATE
 40
2456316.703941945
  9
$TDINDWG
 40
0.0000000116
  9
$TDUSRTIMER
 40
0.0000000116
  9
$USRTIMER
 70
     1
  9
$ANGBASE
 50
0.0
  9
$ANGDIR
 70
     0
  9
$PDMODE
 70
     0
  9
$PDSIZE
 40
-1.0
  9
$PLINEWID
 40
0.0
  9
$SPLFRAME
 70
     0
  9
$SPLINETYPE
 70
     6
  9
$SPLINESEGS
 70
     8
  9
$HANDSEED
  5
D5
  9
$SURFTAB1
 70
     6
  9
$SURFTAB2
 70
     6
  9
$SURFTYPE
 70
     6
  9
$SURFU
 70
     6
  9
$SURFV
 70
     6
  9
$UCSBASE
  2

  9
$UCSNAME
  2

  9
$UCSORG
 10
0.0
 20
0.0
 30
0.0
  9
$UCSXDIR
 10
1.0
 20
0.0
 30
0.0
  9
$UCSYDIR
 10
0.0
 20
1.0
 30
0.0
  9
$UCSORTHOREF
  2

  9
$UCSORTHOVIEW
 70
     0
  9
$UCSORGTOP
 10
0.0
 20
0.0
 30
0.0
  9
$UCSORGBOTTOM
 10
0.0
 20
0.0
 30
0.0
  9
$UCSORGLEFT
 10
0.0
 20
0.0
 30
0.0
  9
$UCSORGRIGHT
 10
0.0
 20
0.0
 30
0.0
  9
$UCSORGFRONT
 10
0.0
 20
0.0
 30
0.0
  9
$UCSORGBACK
 10
0.0
 20
0.0
 30
0.0
  9
$PUCSBASE
  2

  9
$PUCSNAME
  2

  9
$PUCSORG
 10
0.0
 20
0.0
 30
0.0
  9
$PUCSXDIR
 10
1.0
 20
0.0
 30
0.0
  9
$PUCSYDIR
 10
0.0
 20
1.0
 30
0.0
  9
$PUCSORTHOREF
  2

  9
$PUCSORTHOVIEW
 70
     0
  9
$PUCSORGTOP
 10
0.0
 20
0.0
 30
0.0
  9
$PUCSORGBOTTOM
 10
0.0
 20
0.0
 30
0.0
  9
$PUCSORGLEFT
 10
0.0
 20
0.0
 30
0.0
  9
$PUCSORGRIGHT
 10
0.0
 20
0.0
 30
0.0
  9
$PUCSORGFRONT
 10
0.0
 20
0.0
 30
0.0
  9
$PUCSORGBACK
 10
0.0
 20
0.0
 30
0.0
  9
$USERI1
 70
     0
  9
$USERI2
 70
     0
  9
$USERI3
 70
     0
  9
$USERI4
 70
     0
  9
$USERI5
 70
     0
  9
$USERR1
 40
0.0
  9
$USERR2
 40
0.0
  9
$USERR3
 40
0.0
  9
$USERR4
 40
0.0
  9
$USERR5
 40
0.0
  9
$WORLDVIEW
 70
     1
  9
$SHADEDGE
 70
     3
  9
$SHADEDIF
 70
    70
  9
$TILEMODE
 70
     1
  9
$MAXACTVP
 70
    64
  9
$PINSBASE
 10
0.0
 20
0.0
 30
0.0
  9
$PLIMCHECK
 70
     0
  9
$PEXTMIN
 10
1.0000000000E+20
 20
1.0000000000E+20
 30
1.0000000000E+20
  9
$PEXTMAX
 10
-1.0000000000E+20
 20
-1.0000000000E+20
 30
-1.0000000000E+20
  9
$PLIMMIN
 10
0.0
 20
0.0
  9
$PLIMMAX
 10
420.0
 20
297.0
  9
$UNITMODE
 70
     0
  9
$VISRETAIN
 70
     1
  9
$PLINEGEN
 70
     0
  9
$PSLTSCALE
 70
     1
  9
$TREEDEPTH
 70
  3020
  9
$CMLSTYLE
  2
Standard
  9
$CMLJUST
 70
     0
  9
$CMLSCALE
 40
20.0
  9
$PROXYGRAPHICS
 70
     1
  9
$MEASUREMENT
 70
     1
  9
$CELWEIGHT
370
    -1
  9
$ENDCAPS
280
     0
  9
$JOINSTYLE
280
     0
  9
$LWDISPLAY
290
     1
  9
$INSUNITS
 70
     4
  9
$HYPERLINKBASE
  1

  9
$STYLESHEET
  1

  9
$XEDIT
290
     1
  9
$CEPSNTYPE
380
     0
  9
$PSTYLEMODE
290
     1
  9
$FINGERPRINTGUID
  2
{93894350-BBF7-49D9-BE7D-17F835CACFD5}
  9
$VERSIONGUID
  2
{FAEB1C32-E019-11D5-929B-00C0DF256EC4}
  9
$EXTNAMES
290
     1
  9
$PSVPSCALE
 40
0.0
  9
$OLESTARTUP
290
     0
  0
ENDSEC
  0
SECTION
  2
CLASSES
  0
CLASS
  1
ACDBDICTIONARYWDFLT
  2
AcDbDictionaryWithDefault
  3
ObjectDBX Classes
 90
        0
280
     0
281
     0
  0
CLASS
  1
VISUALSTYLE
  2
AcDbVisualStyle
  3
ObjectDBX Classes
 90
     4095
280
     0
281
     0
  0
CLASS
  1
MATERIAL
  2
AcDbMaterial
  3
ObjectDBX Classes
 90
     1153
280
     0
281
     0
  0
CLASS
  1
ACDBPLACEHOLDER
  2
AcDbPlaceHolder
  3
ObjectDBX Classes
 90
        0
280
     0
281
     0
  0
CLASS
  1
LAYOUT
  2
AcDbLayout
  3
ObjectDBX Classes
 90
        0
280
     0
281
     0
  0
ENDSEC
  0
SECTION
  2
TABLES
  0
TABLE
  2
VPORT
  5
8
330
0
100
AcDbSymbolTable
 70
     1
  0
VPORT
  5
29
330
8
100
AcDbSymbolTableRecord
100
AcDbViewportTableRecord
  2
*Active
 70
     0
 10
0.0
 20
0.0
 11
1.0
 21
1.0
 12
420.5
 22
297.0
 13
0.0
 23
0.0
 14
10.0
 24
10.0
 15
10.0
 25
10.0
 16
0.0
 26
0.0
 36
1.0
 17
0.0
 27
0.0
 37
0.0
 40
594.0
 41
1.4158249158
 42
50.0
 43
0.0
 44
0.0
 50
0.0
 51
0.0
 71
     0
 72
  2000
 73
     1
 74
     3
 75
     0
 76
     0
 77
     0
 78
     0
281
     0
 65
     1
110
0.0
120
0.0
130
0.0
111
1.0
121
0.0
131
0.0
112
0.0
122
1.0
132
0.0
 79
     0
146
0.0
  0
ENDTAB
  0
TABLE
  2
LTYPE
  5
5
330
0
100
AcDbSymbolTable
 70
     6
  0
LTYPE
  5
14
330
5
100
AcDbSymbolTableRecord
100
AcDbLinetypeTableRecord
  2
ByBlock
 70
     0
  3

 72
    65
 73
     0
 40
0.0
  0
LTYPE
  5
15
330
5
100
AcDbSymbolTableRecord
100
AcDbLinetypeTableRecord
  2
ByLayer
 70
     0
  3

 72
    65
 73
     0
 40
0.0
  0
LTYPE
  5
16
330
5
100
AcDbSymbolTableRecord
100
AcDbLinetypeTableRecord
  2
Continuous
 70
     0
  3
Solid line
 72
    65
 73
     0
 40
0.0
  0
LTYPE
  5
3F
330
5
100
AcDbSymbolTableRecord
100
AcDbLinetypeTableRecord
  2
HIDDEN
 70
     0
  3
Hidden __ __ __ __ __ __ __ __ __ __ __ __ __ __
 72
    65
 73
     2
 40
1.905
 49
1.27
 74
     0
 49
-0.635
 74
     0
  0
LTYPE
  5
40
330
5
100
AcDbSymbolTableRecord
100
AcDbLinetypeTableRecord
  2
PHANTOM
 70
     0
  3
Phantom ______  __  __  ______  __  __  ______
 72
    65
 73
     6
 40
12.7
 49
6.35
 74
     0
 49
-1.27
 74
     0
 49
1.27
 74
     0
 49
-1.27
 74
     0
 49
1.27
 74
     0
 49
-1.27
 74
     0
  0
LTYPE
  5
41
330
5
100
AcDbSymbolTableRecord
100
AcDbLinetypeTableRecord
  2
CENTER
 70
     0
  3
Center ____ _ ____ _ ____ _ ____ _ ____ _ ____
 72
    65
 73
     4
 40
10.16
 49
6.35
 74
     0
 49
-1.27
 74
     0
 49
1.27
 74
     0
 49
-1.27
 74
     0
  0
LTYPE
  5
42
330
5
100
AcDbSymbolTableRecord
100
AcDbLinetypeTableRecord
  2
CENTERX2
 70
     0
  3
Center (2x) ________  __  ________  __  _____
 72
    65
 73
     4
 40
20.32
 49
12.7
 74
     0
 49
-2.54
 74
     0
 49
2.54
 74
     0
 49
-2.54
 74
     0
  0
LTYPE
  5
43
330
5
100
AcDbSymbolTableRecord
100
AcDbLinetypeTableRecord
  2
DOT2
 70
     0
  3
Dot (.5x) ........................................
 72
    65
 73
     2
 40
0.635
 49
0.0
 74
     0
 49
-0.635
 74
     0
  0
ENDTAB
  0
TABLE
  2
LAYER
  5
2
330
0
100
AcDbSymbolTable
 70
     2
  0
LAYER
  5
10
330
2
100
AcDbSymbolTableRecord
100
AcDbLayerTableRecord
  2
0
 70
     0
 62
     7
  6
Continuous
370
    -3
390
F
  0
LAYER
  5
44
330
2
100
AcDbSymbolTableRecord
100
AcDbLayerTableRecord
  2
SLD-0
 70
     0
 62
   179
  6
Continuous
370
    -3
390
F
  0
ENDTAB
  0
TABLE
  2
STYLE
  5
3
330
0
100
AcDbSymbolTable
 70
     1
  0
STYLE
  5
11
330
3
100
AcDbSymbolTableRecord
100
AcDbTextStyleTableRecord
  2
Standard
 70
     0
 40
0.0
 41
1.0
 50
0.0
 71
     0
 42
3.5
  3
txt
  4

  0
ENDTAB
  0
TABLE
  2
VIEW
  5
6
330
0
100
AcDbSymbolTable
 70
     0
  0
ENDTAB
  0
TABLE
  2
UCS
  5
7
330
0
100
AcDbSymbolTable
 70
     0
  0
ENDTAB
  0
TABLE
  2
APPID
  5
9
330
0
100
AcDbSymbolTable
 70
     1
  0
APPID
  5
12
330
9
100
AcDbSymbolTableRecord
100
AcDbRegAppTableRecord
  2
ACAD
 70
     0
  0
ENDTAB
  0
TABLE
  2
DIMSTYLE
  5
A
330
0
100
AcDbSymbolTable
 70
     1
100
AcDbDimStyleTable
  0
DIMSTYLE
105
27
330
A
100
AcDbSymbolTableRecord
100
AcDbDimStyleTableRecord
  2
ISO-25
 70
     0
 41
2.5
 42
0.625
 43
3.75
 44
1.25
 73
     0
 74
     0
 77
     1
 78
     8
140
2.5
141
2.5
143
0.0393700787
147
0.625
171
     3
172
     1
178
     0
271
     2
272
     2
274
     3
278
    44
283
     0
284
     8
340
11
  0
ENDTAB
  0
TABLE
  2
BLOCK_RECORD
  5
1
330
0
100
AcDbSymbolTable
 70
     1
  0
BLOCK_RECORD
  5
1F
330
1
100
AcDbSymbolTableRecord
100
AcDbBlockTableRecord
  2
*Model_Space
340
22
  0
BLOCK_RECORD
  5
1B
330
1
100
AcDbSymbolTableRecord
100
AcDbBlockTableRecord
  2
*Paper_Space
340
1E
  0
BLOCK_RECORD
  5
23
330
1
100
AcDbSymbolTableRecord
100
AcDbBlockTableRecord
  2
*Paper_Space0
340
26
  0
ENDTAB
  0
ENDSEC
  0
SECTION
  2
BLOCKS
  0
BLOCK
  5
20
330
1F
100
AcDbEntity
  8
0
100
AcDbBlockBegin
  2
*Model_Space
 70
     0
 10
0.0
 20
0.0
 30
0.0
  3
*Model_Space
  1

  0
ENDBLK
  5
21
330
1F
100
AcDbEntity
  8
0
100
AcDbBlockEnd
  0
BLOCK
  5
1C
330
1B
100
AcDbEntity
 67
     1
  8
0
100
AcDbBlockBegin
  2
*Paper_Space
 70
     0
 10
0.0
 20
0.0
 30
0.0
  3
*Paper_Space
  1

  0
ENDBLK
  5
1D
330
1B
100
AcDbEntity
 67
     1
  8
0
100
AcDbBlockEnd
  0
BLOCK
  5
24
330
23
100
AcDbEntity
  8
0
100
AcDbBlockBegin
  2
*Paper_Space0
 70
     0
 10
0.0
 20
0.0
 30
0.0
  3
*Paper_Space0
  1

  0
ENDBLK
  5
25
330
23
100
AcDbEntity
  8
0
100
AcDbBlockEnd
  0
ENDSEC
  0
SECTION
  2
ENTITIES
  0
LINE
  5
45
330
1F
100
AcDbEntity
  8
SLD-0
  6
Continuous
 62
   179
370
    15
100
AcDbLine
 10
216.428932188
 20
-10.5294372515
 30
0.0
 11
221.3786796563
 21
-5.5796897832
 31
0.0
  0
LINE
  5
46
330
1F
100
AcDbEntity
  8
SLD-0
  6
Continuous
 62
   179
370
    15
100
AcDbLine
 10
216.428932188
 20
-10.5294372515
 30
0.0
 11
221.3786796563
 21
-15.4791847198
 31
0.0
  0
LINE
  5
47
330
1F
100
AcDbEntity
  8
SLD-0
  6
Continuous
 62
   179
370
    15
100
AcDbLine
 10
216.428932188
 20
-20.4289321882
 30
0.0
 11
221.3786796563
 21
-15.4791847198
 31
0.0
  0
LINE
  5
48
330
1F
100
AcDbEntity
  8
SLD-0
  6
Continuous
 62
   179
370
    15
100
AcDbLine
 10
216.428932188
 20
-20.4289321882
 30
0.0
 11
221.4999999999
 21
-25.5000000001
 31
0.0
  0
LINE
  5
49
330
1F
100
AcDbEntity
  8
SLD-0
  6
Continuous
 62
   179
370
    15
100
AcDbLine
 10
221.4999999999
 20
-25.5000000001
 30
0.0
 11
214.4999999999
 21
-25.5000000001
 31
0.0
  0
LINE
  5
4A
330
1F
100
AcDbEntity
  8
SLD-0
  6
Continuous
 62
   179
370
    15
100
AcDbLine
 10
214.4999999999
 20
-32.6421356238
 30
0.0
 11
214.4999999999
 21
-25.5000000001
 31
0.0
  0
LINE
  5
4B
330
1F
100
AcDbEntity
  8
SLD-0
  6
Continuous
 62
   179
370
    15
100
AcDbLine
 10
209.4289321881
 20
-27.5710678119
 30
0.0
 11
214.4999999999
 21
-32.6421356238
 31
0.0
  0
LINE
  5
4C
330
1F
100
AcDbEntity
  8
SLD-0
  6
Continuous
 62
   179
370
    15
100
AcDbLine
 10
209.4289321881
 20
-27.5710678119
 30
0.0
 11
204.4791847198
 21
-32.5208152802
 31
0.0
  0
LINE
  5
4D
330
1F
100
AcDbEntity
  8
SLD-0
  6
Continuous
 62
   179
370
    15
100
AcDbLine
 10
199.5294372515
 20
-27.5710678119
 30
0.0
 11
204.4791847198
 21
-32.5208152802
 31
0.0
  0
LINE
  5
4E
330
1F
100
AcDbEntity
  8
SLD-0
  6
Continuous
 62
   179
370
    15
100
AcDbLine
 10
199.5294372515
 20
-27.5710678119
 30
0.0
 11
194.5796897832
 21
-32.5208152802
 31
0.0
  0
LINE
  5
4F
330
1F
100
AcDbEntity
  8
SLD-0
  6
Continuous
 62
   179
370
    15
100
AcDbLine
 10
34.4705627486
 20
-27.4289321882
 30
0.0
 11
29.5208152803
 21
-32.3786796565
 31
0.0
  0
LINE
  5
50
330
1F
100
AcDbEntity
  8
SLD-0
  6
Continuous
 62
   179
370
    15
100
AcDbLine
 10
24.571067812
 20
-27.4289321882
 30
0.0
 11
29.5208152803
 21
-32.3786796565
 31
0.0
  0
LINE
  5
51
330
1F
100
AcDbEntity
  8
SLD-0
  6
Continuous
 62
   179
370
    15
100
AcDbLine
 10
24.571067812
 20
-27.4289321882
 30
0.0
 11
19.5
 21
-32.5000000001
 31
0.0
  0
LINE
  5
52
330
1F
100
AcDbEntity
  8
SLD-0
  6
Continuous
 62
   179
370
    15
100
AcDbLine
 10
19.5
 20
-32.5000000001
 30
0.0
 11
19.5
 21
-25.5000000001
 31
0.0
  0
LINE
  5
53
330
1F
100
AcDbEntity
  8
SLD-0
  6
Continuous
 62
   179
370
    15
100
AcDbLine
 10
12.3578643763
 20
-25.5000000001
 30
0.0
 11
19.5
 21
-25.5000000001
 31
0.0
  0
LINE
  5
54
330
1F
100
AcDbEntity
  8
SLD-0
  6
Continuous
 62
   179
370
    15
100
AcDbLine
 10
17.4289321882
 20
-20.4289321882
 30
0.0
 11
12.3578643763
 21
-25.5000000001
 31
0.0
  0
LINE
  5
55
330
1F
100
AcDbEntity
  8
SLD-0
  6
Continuous
 62
   179
370
    15
100
AcDbLine
 10
17.4289321882
 20
-20.4289321882
 30
0.0
 11
12.4791847199
 21
-15.4791847199
 31
0.0
  0
LINE
  5
56
330
1F
100
AcDbEntity
  8
SLD-0
  6
Continuous
 62
   179
370
    15
100
AcDbLine
 10
17.4289321882
 20
-10.5294372516
 30
0.0
 11
12.4791847199
 21
-15.4791847199
 31
0.0
  0
LINE
  5
57
330
1F
100
AcDbEntity
  8
SLD-0
  6
Continuous
 62
   179
370
    15
100
AcDbLine
 10
17.4289321882
 20
-10.5294372516
 30
0.0
 11
12.4791847199
 21
-5.5796897833
 31
0.0
  0
LINE
  5
58
330
1F
100
AcDbEntity
  8
SLD-0
  6
Continuous
 62
   179
370
    15
100
AcDbLine
 10
34.4705627486
 20
-27.4289321882
 30
0.0
 11
39.4203102168
 21
-32.3786796563
 31
0.0
  0
LINE
  5
59
330
1F
100
AcDbEntity
  8
SLD-0
  6
Continuous
 62
   179
370
    15
100
AcDbLine
 10
17.5710678119
 20
154.5294372515
 30
0.0
 11
12.6213203436
 21
159.4791847198
 31
0.0
  0
LINE
  5
5A
330
1F
100
AcDbEntity
  8
SLD-0
  6
Continuous
 62
   179
370
    15
100
AcDbLine
 10
17.5710678119
 20
164.4289321881
 30
0.0
 11
12.6213203436
 21
159.4791847198
 31
0.0
  0
LINE
  5
5B
330
1F
100
AcDbEntity
  8
SLD-0
  6
Continuous
 62
   179
370
    15
100
AcDbLine
 10
17.5710678119
 20
164.4289321881
 30
0.0
 11
12.5
 21
169.5
 31
0.0
  0
LINE
  5
5C
330
1F
100
AcDbEntity
  8
SLD-0
  6
Continuous
 62
   179
370
    15
100
AcDbLine
 10
12.5
 20
169.5
 30
0.0
 11
19.5
 21
169.5
 31
0.0
  0
LINE
  5
5D
330
1F
100
AcDbEntity
  8
SLD-0
  6
Continuous
 62
   179
370
    15
100
AcDbLine
 10
19.5
 20
176.6421356237
 30
0.0
 11
19.5
 21
169.5
 31
0.0
  0
LINE
  5
5E
330
1F
100
AcDbEntity
  8
SLD-0
  6
Continuous
 62
   179
370
    15
100
AcDbLine
 10
24.5710678119
 20
171.5710678119
 30
0.0
 11
19.5
 21
176.6421356237
 31
0.0
  0
LINE
  5
5F
330
1F
100
AcDbEntity
  8
SLD-0
  6
Continuous
 62
   179
370
    15
100
AcDbLine
 10
24.5710678119
 20
171.5710678119
 30
0.0
 11
29.5208152801
 21
176.5208152802
 31
0.0
  0
LINE
  5
60
330
1F
100
AcDbEntity
  8
SLD-0
  6
Continuous
 62
   179
370
    15
100
AcDbLine
 10
34.4705627484
 20
171.5710678119
 30
0.0
 11
29.5208152801
 21
176.5208152802
 31
0.0
  0
LINE
  5
61
330
1F
100
AcDbEntity
  8
SLD-0
  6
Continuous
 62
   179
370
    15
100
AcDbLine
 10
34.4705627484
 20
171.5710678119
 30
0.0
 11
39.4203102167
 21
176.5208152802
 31
0.0
  0
LINE
  5
62
330
1F
100
AcDbEntity
  8
SLD-0
  6
Continuous
 62
   179
370
    15
100
AcDbLine
 10
17.5710678119
 20
154.5294372515
 30
0.0
 11
12.6213203436
 21
149.5796897832
 31
0.0
  0
LINE
  5
63
330
1F
100
AcDbEntity
  8
SLD-0
  6
Continuous
 62
   179
370
    15
100
AcDbLine
 10
37.4705627485
 20
181.6421356237
 30
0.0
 11
196.5294372515
 21
181.5
 31
0.0
  0
LINE
  5
64
330
1F
100
AcDbEntity
  8
SLD-0
  6
Continuous
 62
   179
370
    15
100
AcDbLine
 10
199.5294372515
 20
178.5
 30
0.0
 11
196.5294372515
 21
181.5
 31
0.0
  0
LINE
  5
65
330
1F
100
AcDbEntity
  8
SLD-0
  6
Continuous
 62
   179
370
    15
100
AcDbLine
 10
199.5294372515
 20
178.5
 30
0.0
 11
202.5294372515
 21
181.5
 31
0.0
  0
LINE
  5
66
330
1F
100
AcDbEntity
  8
SLD-0
  6
Continuous
 62
   179
370
    15
100
AcDbLine
 10
206.4289321881
 20
181.5
 30
0.0
 11
202.5294372515
 21
181.5
 31
0.0
  0
LINE
  5
67
330
1F
100
AcDbEntity
  8
SLD-0
  6
Continuous
 62
   179
370
    15
100
AcDbLine
 10
209.4289321881
 20
178.5
 30
0.0
 11
206.4289321881
 21
181.5
 31
0.0
  0
LINE
  5
68
330
1F
100
AcDbEntity
  8
SLD-0
  6
Continuous
 62
   179
370
    15
100
AcDbLine
 10
209.4289321881
 20
178.5
 30
0.0
 11
212.4289321881
 21
181.5
 31
0.0
  0
LINE
  5
69
330
1F
100
AcDbEntity
  8
SLD-0
  6
Continuous
 62
   179
370
    15
100
AcDbLine
 10
221.5
 20
181.5
 30
0.0
 11
212.4289321881
 21
181.5
 31
0.0
  0
LINE
  5
6A
330
1F
100
AcDbEntity
  8
SLD-0
  6
Continuous
 62
   179
370
    15
100
AcDbLine
 10
226.6421356237
 20
167.4289321881
 30
0.0
 11
226.5
 21
176.5
 31
0.0
  0
LINE
  5
6B
330
1F
100
AcDbEntity
  8
SLD-0
  6
Continuous
 62
   179
370
    15
100
AcDbLine
 10
223.6421356237
 20
164.4289321881
 30
0.0
 11
226.6421356237
 21
167.4289321881
 31
0.0
  0
LINE
  5
6C
330
1F
100
AcDbEntity
  8
SLD-0
  6
Continuous
 62
   179
370
    15
100
AcDbLine
 10
223.6421356237
 20
164.4289321881
 30
0.0
 11
226.6421356237
 21
161.4289321881
 31
0.0
  0
LINE
  5
6D
330
1F
100
AcDbEntity
  8
SLD-0
  6
Continuous
 62
   179
370
    15
100
AcDbLine
 10
226.6421356237
 20
161.4289321881
 30
0.0
 11
226.6421356237
 21
157.5294372515
 31
0.0
  0
LINE
  5
6E
330
1F
100
AcDbEntity
  8
SLD-0
  6
Continuous
 62
   179
370
    15
100
AcDbLine
 10
223.6421356237
 20
154.5294372515
 30
0.0
 11
226.6421356237
 21
157.5294372515
 31
0.0
  0
LINE
  5
6F
330
1F
100
AcDbEntity
  8
SLD-0
  6
Continuous
 62
   179
370
    15
100
AcDbLine
 10
223.6421356237
 20
154.5294372515
 30
0.0
 11
226.6421356237
 21
151.5294372515
 31
0.0
  0
LINE
  5
70
330
1F
100
AcDbEntity
  8
SLD-0
  6
Continuous
 62
   179
370
    15
100
AcDbLine
 10
226.6421356237
 20
151.5294372515
 30
0.0
 11
226.4934163148
 21
84.0110132123
 31
0.0
  0
LINE
  5
71
330
1F
100
AcDbEntity
  8
SLD-0
  6
Continuous
 62
   179
370
    15
100
AcDbLine
 10
238.0
 20
79.0
 30
0.0
 11
231.4934041857
 21
79.0
 31
0.0
  0
LINE
  5
72
330
1F
100
AcDbEntity
  8
SLD-0
  6
Continuous
 62
   179
370
    15
100
AcDbLine
 10
243.0
 20
74.0
 30
0.0
 11
243.0
 21
70.0
 31
0.0
  0
LINE
  5
73
330
1F
100
AcDbEntity
  8
SLD-0
  6
Continuous
 62
   179
370
    15
100
AcDbLine
 10
238.0
 20
65.0
 30
0.0
 11
231.5
 21
65.0
 31
0.0
  0
LINE
  5
74
330
1F
100
AcDbEntity
  8
SLD-0
  6
Continuous
 62
   179
370
    15
100
AcDbLine
 10
226.5
 20
60.0
 30
0.0
 11
226.5
 21
-7.5294372515
 31
0.0
  0
LINE
  5
75
330
1F
100
AcDbEntity
  8
SLD-0
  6
Continuous
 62
   179
370
    15
100
AcDbLine
 10
223.5
 20
-10.5294372515
 30
0.0
 11
226.5
 21
-7.5294372515
 31
0.0
  0
LINE
  5
76
330
1F
100
AcDbEntity
  8
SLD-0
  6
Continuous
 62
   179
370
    15
100
AcDbLine
 10
223.5
 20
-10.5294372515
 30
0.0
 11
226.5
 21
-13.5294372515
 31
0.0
  0
LINE
  5
77
330
1F
100
AcDbEntity
  8
SLD-0
  6
Continuous
 62
   179
370
    15
100
AcDbLine
 10
226.5
 20
-17.4289321881
 30
0.0
 11
226.5
 21
-13.5294372515
 31
0.0
  0
LINE
  5
78
330
1F
100
AcDbEntity
  8
SLD-0
  6
Continuous
 62
   179
370
    15
100
AcDbLine
 10
223.5
 20
-20.4289321881
 30
0.0
 11
226.5
 21
-17.4289321881
 31
0.0
  0
LINE
  5
79
330
1F
100
AcDbEntity
  8
SLD-0
  6
Continuous
 62
   179
370
    15
100
AcDbLine
 10
223.5
 20
-20.4289321881
 30
0.0
 11
226.5
 21
-23.4289321881
 31
0.0
  0
LINE
  5
7A
330
1F
100
AcDbEntity
  8
SLD-0
  6
Continuous
 62
   179
370
    15
100
AcDbLine
 10
226.5
 20
-32.5
 30
0.0
 11
226.5
 21
-23.4289321881
 31
0.0
  0
LINE
  5
7B
330
1F
100
AcDbEntity
  8
SLD-0
  6
Continuous
 62
   179
370
    15
100
AcDbLine
 10
212.4289321881
 20
-37.6421356237
 30
0.0
 11
221.5
 21
-37.5
 31
0.0
  0
LINE
  5
7C
330
1F
100
AcDbEntity
  8
SLD-0
  6
Continuous
 62
   179
370
    15
100
AcDbLine
 10
209.4289321881
 20
-34.6421356237
 30
0.0
 11
212.4289321881
 21
-37.6421356237
 31
0.0
  0
LINE
  5
7D
330
1F
100
AcDbEntity
  8
SLD-0
  6
Continuous
 62
   179
370
    15
100
AcDbLine
 10
209.4289321881
 20
-34.6421356237
 30
0.0
 11
206.4289321881
 21
-37.6421356237
 31
0.0
  0
LINE
  5
7E
330
1F
100
AcDbEntity
  8
SLD-0
  6
Continuous
 62
   179
370
    15
100
AcDbLine
 10
206.4289321881
 20
-37.6421356237
 30
0.0
 11
202.5294372515
 21
-37.6421356237
 31
0.0
  0
LINE
  5
7F
330
1F
100
AcDbEntity
  8
SLD-0
  6
Continuous
 62
   179
370
    15
100
AcDbLine
 10
199.5294372515
 20
-34.6421356237
 30
0.0
 11
202.5294372515
 21
-37.6421356237
 31
0.0
  0
LINE
  5
80
330
1F
100
AcDbEntity
  8
SLD-0
  6
Continuous
 62
   179
370
    15
100
AcDbLine
 10
199.5294372515
 20
-34.6421356237
 30
0.0
 11
196.5294372515
 21
-37.6421356237
 31
0.0
  0
LINE
  5
81
330
1F
100
AcDbEntity
  8
SLD-0
  6
Continuous
 62
   179
370
    15
100
AcDbLine
 10
196.5294372515
 20
-37.6421356237
 30
0.0
 11
37.4705627485
 21
-37.5
 31
0.0
  0
LINE
  5
82
330
1F
100
AcDbEntity
  8
SLD-0
  6
Continuous
 62
   179
370
    15
100
AcDbLine
 10
34.4705627485
 20
-34.5
 30
0.0
 11
37.4705627485
 21
-37.5
 31
0.0
  0
LINE
  5
83
330
1F
100
AcDbEntity
  8
SLD-0
  6
Continuous
 62
   179
370
    15
100
AcDbLine
 10
34.4705627485
 20
-34.5
 30
0.0
 11
31.4705627485
 21
-37.5
 31
0.0
  0
LINE
  5
84
330
1F
100
AcDbEntity
  8
SLD-0
  6
Continuous
 62
   179
370
    15
100
AcDbLine
 10
27.5710678119
 20
-37.5
 30
0.0
 11
31.4705627485
 21
-37.5
 31
0.0
  0
LINE
  5
85
330
1F
100
AcDbEntity
  8
SLD-0
  6
Continuous
 62
   179
370
    15
100
AcDbLine
 10
24.5710678119
 20
-34.5
 30
0.0
 11
27.5710678119
 21
-37.5
 31
0.0
  0
LINE
  5
86
330
1F
100
AcDbEntity
  8
SLD-0
  6
Continuous
 62
   179
370
    15
100
AcDbLine
 10
24.5710678119
 20
-34.5
 30
0.0
 11
21.5710678119
 21
-37.5
 31
0.0
  0
LINE
  5
87
330
1F
100
AcDbEntity
  8
SLD-0
  6
Continuous
 62
   179
370
    15
100
AcDbLine
 10
12.5
 20
-37.5
 30
0.0
 11
21.5710678119
 21
-37.5
 31
0.0
  0
LINE
  5
88
330
1F
100
AcDbEntity
  8
SLD-0
  6
Continuous
 62
   179
370
    15
100
AcDbLine
 10
7.3578643763
 20
-23.4289321881
 30
0.0
 11
7.5
 21
-32.5
 31
0.0
  0
LINE
  5
89
330
1F
100
AcDbEntity
  8
SLD-0
  6
Continuous
 62
   179
370
    15
100
AcDbLine
 10
10.3578643763
 20
-20.4289321881
 30
0.0
 11
7.3578643763
 21
-23.4289321881
 31
0.0
  0
LINE
  5
8A
330
1F
100
AcDbEntity
  8
SLD-0
  6
Continuous
 62
   179
370
    15
100
AcDbLine
 10
10.3578643763
 20
-20.4289321881
 30
0.0
 11
7.3578643763
 21
-17.4289321881
 31
0.0
  0
LINE
  5
8B
330
1F
100
AcDbEntity
  8
SLD-0
  6
Continuous
 62
   179
370
    15
100
AcDbLine
 10
7.3578643763
 20
-17.4289321881
 30
0.0
 11
7.3578643763
 21
-13.5294372515
 31
0.0
  0
LINE
  5
8C
330
1F
100
AcDbEntity
  8
SLD-0
  6
Continuous
 62
   179
370
    15
100
AcDbLine
 10
10.3578643763
 20
-10.5294372515
 30
0.0
 11
7.3578643763
 21
-13.5294372515
 31
0.0
  0
LINE
  5
8D
330
1F
100
AcDbEntity
  8
SLD-0
  6
Continuous
 62
   179
370
    15
100
AcDbLine
 10
10.3578643763
 20
-10.5294372515
 30
0.0
 11
7.3578643763
 21
-7.5294372515
 31
0.0
  0
LINE
  5
8E
330
1F
100
AcDbEntity
  8
SLD-0
  6
Continuous
 62
   179
370
    15
100
AcDbLine
 10
7.3578643763
 20
-7.5294372515
 30
0.0
 11
7.8110966869
 21
13.2911836092
 31
0.0
  0
LINE
  5
8F
330
1F
100
AcDbEntity
  8
SLD-0
  6
Continuous
 62
   179
370
    15
100
AcDbLine
 10
-4.0
 20
18.4
 30
0.0
 11
2.8122809278
 21
18.4
 31
0.0
  0
LINE
  5
90
330
1F
100
AcDbEntity
  8
SLD-0
  6
Continuous
 62
   179
370
    15
100
AcDbLine
 10
-9.0
 20
120.6
 30
0.0
 11
-9.0
 21
23.4
 31
0.0
  0
LINE
  5
91
330
1F
100
AcDbEntity
  8
SLD-0
  6
Continuous
 62
   179
370
    15
100
AcDbLine
 10
-4.0
 20
125.6
 30
0.0
 11
2.5
 21
125.6
 31
0.0
  0
LINE
  5
92
330
1F
100
AcDbEntity
  8
SLD-0
  6
Continuous
 62
   179
370
    15
100
AcDbLine
 10
7.5
 20
151.5294372515
 30
0.0
 11
7.5
 21
130.6
 31
0.0
  0
LINE
  5
93
330
1F
100
AcDbEntity
  8
SLD-0
  6
Continuous
 62
   179
370
    15
100
AcDbLine
 10
10.5
 20
154.5294372515
 30
0.0
 11
7.5
 21
151.5294372515
 31
0.0
  0
LINE
  5
94
330
1F
100
AcDbEntity
  8
SLD-0
  6
Continuous
 62
   179
370
    15
100
AcDbLine
 10
10.5
 20
154.5294372515
 30
0.0
 11
7.5
 21
157.5294372515
 31
0.0
  0
LINE
  5
95
330
1F
100
AcDbEntity
  8
SLD-0
  6
Continuous
 62
   179
370
    15
100
AcDbLine
 10
7.5
 20
161.4289321881
 30
0.0
 11
7.5
 21
157.5294372515
 31
0.0
  0
LINE
  5
96
330
1F
100
AcDbEntity
  8
SLD-0
  6
Continuous
 62
   179
370
    15
100
AcDbLine
 10
10.5
 20
164.4289321881
 30
0.0
 11
7.5
 21
161.4289321881
 31
0.0
  0
LINE
  5
97
330
1F
100
AcDbEntity
  8
SLD-0
  6
Continuous
 62
   179
370
    15
100
AcDbLine
 10
10.5
 20
164.4289321881
 30
0.0
 11
7.5
 21
167.4289321881
 31
0.0
  0
LINE
  5
98
330
1F
100
AcDbEntity
  8
SLD-0
  6
Continuous
 62
   179
370
    15
100
AcDbLine
 10
7.5
 20
176.5
 30
0.0
 11
7.5
 21
167.4289321881
 31
0.0
  0
LINE
  5
99
330
1F
100
AcDbEntity
  8
SLD-0
  6
Continuous
 62
   179
370
    15
100
AcDbLine
 10
21.5710678119
 20
181.6421356237
 30
0.0
 11
12.5
 21
181.5
 31
0.0
  0
LINE
  5
9A
330
1F
100
AcDbEntity
  8
SLD-0
  6
Continuous
 62
   179
370
    15
100
AcDbLine
 10
24.5710678119
 20
178.6421356237
 30
0.0
 11
21.5710678119
 21
181.6421356237
 31
0.0
  0
LINE
  5
9B
330
1F
100
AcDbEntity
  8
SLD-0
  6
Continuous
 62
   179
370
    15
100
AcDbLine
 10
24.5710678119
 20
178.6421356237
 30
0.0
 11
27.5710678119
 21
181.6421356237
 31
0.0
  0
LINE
  5
9C
330
1F
100
AcDbEntity
  8
SLD-0
  6
Continuous
 62
   179
370
    15
100
AcDbLine
 10
27.5710678119
 20
181.6421356237
 30
0.0
 11
31.4705627485
 21
181.6421356237
 31
0.0
  0
LINE
  5
9D
330
1F
100
AcDbEntity
  8
SLD-0
  6
Continuous
 62
   179
370
    15
100
AcDbLine
 10
34.4705627485
 20
178.6421356237
 30
0.0
 11
31.4705627485
 21
181.6421356237
 31
0.0
  0
LINE
  5
9E
330
1F
100
AcDbEntity
  8
SLD-0
  6
Continuous
 62
   179
370
    15
100
AcDbLine
 10
34.4705627485
 20
178.6421356237
 30
0.0
 11
37.4705627485
 21
181.6421356237
 31
0.0
  0
LINE
  5
9F
330
1F
100
AcDbEntity
  8
SLD-0
  6
Continuous
 62
   179
370
    15
100
AcDbLine
 10
22.4583694397
 20
57.0
 30
0.0
 11
22.4583694397
 21
87.0
 31
0.0
  0
LINE
  5
A0
330
1F
100
AcDbEntity
  8
SLD-0
  6
Continuous
 62
   179
370
    15
100
AcDbLine
 10
17.4583694397
 20
92.0
 30
0.0
 11
7.4583694397
 21
92.0
 31
0.0
  0
LINE
  5
A1
330
1F
100
AcDbEntity
  8
SLD-0
  6
Continuous
 62
   179
370
    15
100
AcDbLine
 10
2.4583694397
 20
57.0
 30
0.0
 11
2.4583694397
 21
87.0
 31
0.0
  0
LINE
  5
A2
330
1F
100
AcDbEntity
  8
SLD-0
  6
Continuous
 62
   179
370
    15
100
AcDbLine
 10
17.4583694397
 20
52.0
 30
0.0
 11
7.4583694397
 21
52.0
 31
0.0
  0
LINE
  5
A3
330
1F
100
AcDbEntity
  8
SLD-0
  6
Continuous
 62
   179
370
    15
100
AcDbLine
 10
216.5710678119
 20
154.5294372516
 30
0.0
 11
221.5208152802
 21
149.5796897833
 31
0.0
  0
LINE
  5
A4
330
1F
100
AcDbEntity
  8
SLD-0
  6
Continuous
 62
   179
370
    15
100
AcDbLine
 10
199.5294372515
 20
171.4289321881
 30
0.0
 11
194.5796897832
 21
176.3786796564
 31
0.0
  0
LINE
  5
A5
330
1F
100
AcDbEntity
  8
SLD-0
  6
Continuous
 62
   179
370
    15
100
AcDbLine
 10
199.5294372515
 20
171.4289321881
 30
0.0
 11
204.4791847198
 21
176.3786796564
 31
0.0
  0
LINE
  5
A6
330
1F
100
AcDbEntity
  8
SLD-0
  6
Continuous
 62
   179
370
    15
100
AcDbLine
 10
209.4289321881
 20
171.4289321881
 30
0.0
 11
204.4791847198
 21
176.3786796564
 31
0.0
  0
LINE
  5
A7
330
1F
100
AcDbEntity
  8
SLD-0
  6
Continuous
 62
   179
370
    15
100
AcDbLine
 10
209.4289321881
 20
171.4289321881
 30
0.0
 11
214.5
 21
176.5
 31
0.0
  0
LINE
  5
A8
330
1F
100
AcDbEntity
  8
SLD-0
  6
Continuous
 62
   179
370
    15
100
AcDbLine
 10
214.5
 20
176.5
 30
0.0
 11
214.5
 21
169.5
 31
0.0
  0
LINE
  5
A9
330
1F
100
AcDbEntity
  8
SLD-0
  6
Continuous
 62
   179
370
    15
100
AcDbLine
 10
221.6421356237
 20
169.5
 30
0.0
 11
214.5
 21
169.5
 31
0.0
  0
LINE
  5
AA
330
1F
100
AcDbEntity
  8
SLD-0
  6
Continuous
 62
   179
370
    15
100
AcDbLine
 10
216.5710678119
 20
164.4289321882
 30
0.0
 11
221.6421356237
 21
169.5
 31
0.0
  0
LINE
  5
AB
330
1F
100
AcDbEntity
  8
SLD-0
  6
Continuous
 62
   179
370
    15
100
AcDbLine
 10
216.5710678119
 20
164.4289321882
 30
0.0
 11
221.5208152802
 21
159.4791847198
 31
0.0
  0
LINE
  5
AC
330
1F
100
AcDbEntity
  8
SLD-0
  6
Continuous
 62
   179
370
    15
100
AcDbLine
 10
216.5710678119
 20
154.5294372516
 30
0.0
 11
221.5208152802
 21
159.4791847198
 31
0.0
  0
CIRCLE
  5
AD
330
1F
100
AcDbEntity
  8
SLD-0
  6
Continuous
 62
   179
370
    15
100
AcDbCircle
 10
236.0
 20
72.0
 30
0.0
 40
2.500000000000028
  0
CIRCLE
  5
AE
330
1F
100
AcDbEntity
  8
SLD-0
  6
Continuous
 62
   179
370
    15
100
AcDbCircle
 10
221.5
 20
176.5
 30
0.0
 40
1.400000000000034
  0
CIRCLE
  5
AF
330
1F
100
AcDbEntity
  8
SLD-0
  6
Continuous
 62
   179
370
    15
100
AcDbCircle
 10
12.5
 20
-32.5
 30
0.0
 40
1.400000000016655
  0
CIRCLE
  5
B0
330
1F
100
AcDbEntity
  8
SLD-0
  6
Continuous
 62
   179
370
    15
100
AcDbCircle
 10
1.0
 20
42.4
 30
0.0
 40
1.5
  0
CIRCLE
  5
B1
330
1F
100
AcDbEntity
  8
SLD-0
  6
Continuous
 62
   179
370
    15
100
AcDbCircle
 10
-2.0
 20
118.6
 30
0.0
 40
2.500000000000017
  0
CIRCLE
  5
B2
330
1F
100
AcDbEntity
  8
SLD-0
  6
Continuous
 62
   179
370
    15
100
AcDbCircle
 10
-5.0
 20
95.6
 30
0.0
 40
1.499999999999989
  0
CIRCLE
  5
B3
330
1F
100
AcDbEntity
  8
SLD-0
  6
Continuous
 62
   179
370
    15
100
AcDbCircle
 10
12.5
 20
176.5
 30
0.0
 40
1.399999999999995
  0
CIRCLE
  5
B4
330
1F
100
AcDbEntity
  8
SLD-0
  6
Continuous
 62
   179
370
    15
100
AcDbCircle
 10
1.0
 20
101.6
 30
0.0
 40
1.500000000000002
  0
CIRCLE
  5
B5
330
1F
100
AcDbEntity
  8
SLD-0
  6
Continuous
 62
   179
370
    15
100
AcDbCircle
 10
-5.0
 20
48.4
 30
0.0
 40
1.499999999999997
  0
CIRCLE
  5
B6
330
1F
100
AcDbEntity
  8
SLD-0
  6
Continuous
 62
   179
370
    15
100
AcDbCircle
 10
-2.0
 20
25.4
 30
0.0
 40
2.500000000000003
  0
CIRCLE
  5
B7
330
1F
100
AcDbEntity
  8
SLD-0
  6
Continuous
 62
   179
370
    15
100
AcDbCircle
 10
117.0
 20
72.0
 30
0.0
 40
2.999999999978186
  0
CIRCLE
  5
B8
330
1F
100
AcDbEntity
  8
SLD-0
  6
Continuous
 62
   179
370
    15
100
AcDbCircle
 10
221.5
 20
-32.5
 30
0.0
 40
1.400000000016746
  0
ARC
  5
B9
330
1F
100
AcDbEntity
  8
SLD-0
  6
Continuous
 62
   179
370
    15
100
AcDbCircle
 10
109.6698729811
 20
69.3038475773
 30
0.0
 40
25.00000000000021
100
AcDbArc
 50
63.1088994749
 51
101.207740301
  0
ARC
  5
BA
330
1F
100
AcDbEntity
  8
SLD-0
  6
Continuous
 62
   179
370
    15
100
AcDbCircle
 10
117.0
 20
72.0
 30
0.0
 40
24.99999999998559
100
AcDbArc
 50
119.1811175144
 51
217.6607740265
  0
ARC
  5
BB
330
1F
100
AcDbEntity
  8
SLD-0
  6
Continuous
 62
   179
370
    15
100
AcDbCircle
 10
120.0
 20
67.0
 30
0.0
 40
24.99999999999744
100
AcDbArc
 50
148.29554
 51
204.2667390378
  0
ARC
  5
BC
330
1F
100
AcDbEntity
  8
SLD-0
  6
Continuous
 62
   179
370
    15
100
AcDbCircle
 10
117.0
 20
72.0
 30
0.0
 40
20.00000000000713
100
AcDbArc
 50
78.5294702678
 51
155.9883524515
  0
ARC
  5
BD
330
1F
100
AcDbEntity
  8
SLD-0
  6
Continuous
 62
   179
370
    15
100
AcDbCircle
 10
123.0
 20
67.0
 30
0.0
 40
25.00000000000017
100
AcDbArc
 50
183.1088994748
 51
221.2077403009
  0
ARC
  5
BE
330
1F
100
AcDbEntity
  8
SLD-0
  6
Continuous
 62
   179
370
    15
100
AcDbCircle
 10
117.0
 20
72.0
 30
0.0
 40
24.99999999999788
100
AcDbArc
 50
239.1811175144
 51
337.6607740265
  0
ARC
  5
BF
330
1F
100
AcDbEntity
  8
SLD-0
  6
Continuous
 62
   179
370
    15
100
AcDbCircle
 10
119.8301270189
 20
77.0980762114
 30
0.0
 40
25.00000000002011
100
AcDbArc
 50
268.2955399999
 51
324.2667390377
  0
ARC
  5
C0
330
1F
100
AcDbEntity
  8
SLD-0
  6
Continuous
 62
   179
370
    15
100
AcDbCircle
 10
117.0
 20
72.0
 30
0.0
 40
19.99999999997733
100
AcDbArc
 50
198.5294702679
 51
275.9883524514
  0
ARC
  5
C1
330
1F
100
AcDbEntity
  8
SLD-0
  6
Continuous
 62
   179
370
    15
100
AcDbCircle
 10
118.3301270189
 20
79.6961524227
 30
0.0
 40
25.00000000000011
100
AcDbArc
 50
303.1088994749
 51
341.207740301
  0
ARC
  5
C2
330
1F
100
AcDbEntity
  8
SLD-0
  6
Continuous
 62
   179
370
    15
100
AcDbCircle
 10
117.0
 20
72.0
 30
0.0
 40
24.99999999996725
100
AcDbArc
 50
359.1811175144
 51
97.6607740265
  0
ARC
  5
C3
330
1F
100
AcDbEntity
  8
SLD-0
  6
Continuous
 62
   179
370
    15
100
AcDbCircle
 10
111.1698729811
 20
71.9019237886
 30
0.0
 40
25.0000000000246
100
AcDbArc
 50
28.2955399999
 51
84.2667390377
  0
ARC
  5
C4
330
1F
100
AcDbEntity
  8
SLD-0
  6
Continuous
 62
   179
370
    15
100
AcDbCircle
 10
117.0
 20
72.0
 30
0.0
 40
19.99999999999078
100
AcDbArc
 50
318.5294702678
 51
35.9883524513
  0
ARC
  5
C5
330
1F
100
AcDbEntity
  8
SLD-0
  6
Continuous
 62
   179
370
    15
100
AcDbCircle
 10
221.5
 20
176.5
 30
0.0
 40
5.0
100
AcDbArc
 50
0.0
 51
90.0
  0
ARC
  5
C6
330
1F
100
AcDbEntity
  8
SLD-0
  6
Continuous
 62
   179
370
    15
100
AcDbCircle
 10
231.4934041857
 20
84.0
 30
0.0
 40
4.999999999999616
100
AcDbArc
 50
179.8737977812
 51
270.0
  0
ARC
  5
C7
330
1F
100
AcDbEntity
  8
SLD-0
  6
Continuous
 62
   179
370
    15
100
AcDbCircle
 10
238.0
 20
74.0
 30
0.0
 40
5.0
100
AcDbArc
 50
0.0
 51
90.0
  0
ARC
  5
C8
330
1F
100
AcDbEntity
  8
SLD-0
  6
Continuous
 62
   179
370
    15
100
AcDbCircle
 10
238.0
 20
70.0
 30
0.0
 40
5.0
100
AcDbArc
 50
270.0
 51
0.0
  0
ARC
  5
C9
330
1F
100
AcDbEntity
  8
SLD-0
  6
Continuous
 62
   179
370
    15
100
AcDbCircle
 10
231.5
 20
60.0
 30
0.0
 40
5.000000000000007
100
AcDbArc
 50
90.0
 51
180.0
  0
ARC
  5
CA
330
1F
100
AcDbEntity
  8
SLD-0
  6
Continuous
 62
   179
370
    15
100
AcDbCircle
 10
221.5
 20
-32.5
 30
0.0
 40
5.000000000000007
100
AcDbArc
 50
270.0
 51
0.0
  0
ARC
  5
CB
330
1F
100
AcDbEntity
  8
SLD-0
  6
Continuous
 62
   179
370
    15
100
AcDbCircle
 10
12.5
 20
-32.5
 30
0.0
 40
5.000000000000007
100
AcDbArc
 50
180.0
 51
270.0
  0
ARC
  5
CC
330
1F
100
AcDbEntity
  8
SLD-0
  6
Continuous
 62
   179
370
    15
100
AcDbCircle
 10
2.8122809278
 20
13.4
 30
0.0
 40
5.000000000016663
100
AcDbArc
 50
358.7529575583
 51
90.0
  0
ARC
  5
CD
330
1F
100
AcDbEntity
  8
SLD-0
  6
Continuous
 62
   179
370
    15
100
AcDbCircle
 10
-4.0
 20
23.4
 30
0.0
 40
5.000000000000004
100
AcDbArc
 50
180.0
 51
270.0
  0
ARC
  5
CE
330
1F
100
AcDbEntity
  8
SLD-0
  6
Continuous
 62
   179
370
    15
100
AcDbCircle
 10
-4.0
 20
120.6
 30
0.0
 40
5.000000000000002
100
AcDbArc
 50
90.0
 51
180.0
  0
ARC
  5
CF
330
1F
100
AcDbEntity
  8
SLD-0
  6
Continuous
 62
   179
370
    15
100
AcDbCircle
 10
2.5
 20
130.6
 30
0.0
 40
5.0
100
AcDbArc
 50
270.0
 51
0.0
  0
ARC
  5
D0
330
1F
100
AcDbEntity
  8
SLD-0
  6
Continuous
 62
   179
370
    15
100
AcDbCircle
 10
12.5
 20
176.5
 30
0.0
 40
5.0
100
AcDbArc
 50
90.0
 51
180.0
  0
ARC
  5
D1
330
1F
100
AcDbEntity
  8
SLD-0
  6
Continuous
 62
   179
370
    15
100
AcDbCircle
 10
17.4583694397
 20
57.0
 30
0.0
 40
5.0
100
AcDbArc
 50
270.0
 51
0.0
  0
ARC
  5
D2
330
1F
100
AcDbEntity
  8
SLD-0
  6
Continuous
 62
   179
370
    15
100
AcDbCircle
 10
17.4583694397
 20
87.0
 30
0.0
 40
5.0
100
AcDbArc
 50
0.0
 51
90.0
  0
ARC
  5
D3
330
1F
100
AcDbEntity
  8
SLD-0
  6
Continuous
 62
   179
370
    15
100
AcDbCircle
 10
7.4583694397
 20
87.0
 30
0.0
 40
5.0
100
AcDbArc
 50
90.0
 51
180.0
  0
ARC
  5
D4
330
1F
100
AcDbEntity
  8
SLD-0
  6
Continuous
 62
   179
370
    15
100
AcDbCircle
 10
7.4583694397
 20
57.0
 30
0.0
 40
5.0
100
AcDbArc
 50
180.0
 51
270.0
  0
ENDSEC
  0
SECTION
  2
OBJECTS
  0
DICTIONARY
  5
C
330
0
100
AcDbDictionary
281
     1
  3
ACAD_GROUP
350
D
  3
ACAD_LAYOUT
350
1A
  3
ACAD_MLINESTYLE
350
17
  3
ACAD_PLOTSETTINGS
350
19
  3
ACAD_PLOTSTYLENAME
350
E
  0
DICTIONARY
  5
D
102
{ACAD_REACTORS
330
C
102
}
330
C
100
AcDbDictionary
281
     1
  0
DICTIONARY
  5
1A
102
{ACAD_REACTORS
330
C
102
}
330
C
100
AcDbDictionary
281
     1
  3
Layout1
350
1E
  3
Layout2
350
26
  3
Model
350
22
  0
DICTIONARY
  5
17
102
{ACAD_REACTORS
330
C
102
}
330
C
100
AcDbDictionary
281
     1
  3
Standard
350
18
  0
DICTIONARY
  5
19
102
{ACAD_REACTORS
330
C
102
}
330
C
100
AcDbDictionary
281
     1
  0
ACDBDICTIONARYWDFLT
  5
E
102
{ACAD_REACTORS
330
C
102
}
330
C
100
AcDbDictionary
281
     1
  3
Normal
350
F
100
AcDbDictionaryWithDefault
340
F
  0
LAYOUT
  5
1E
102
{ACAD_REACTORS
330
1A
102
}
330
1A
100
AcDbPlotSettings
  1

  2
none_device
  4

  6

 40
0.0
 41
0.0
 42
0.0
 43
0.0
 44
0.0
 45
0.0
 46
0.0
 47
0.0
 48
0.0
 49
0.0
140
0.0
141
0.0
142
1.0
143
1.0
 70
   688
 72
     0
 73
     0
 74
     5
  7

 75
    16
147
1.0
148
0.0
149
0.0
100
AcDbLayout
  1
Layout1
 70
     1
 71
     1
 10
0.0
 20
0.0
 11
420.0
 21
297.0
 12
0.0
 22
0.0
 32
0.0
 14
1.0000000000E+20
 24
1.0000000000E+20
 34
1.0000000000E+20
 15
-1.0000000000E+20
 25
-1.0000000000E+20
 35
-1.0000000000E+20
146
0.0
 13
0.0
 23
0.0
 33
0.0
 16
1.0
 26
0.0
 36
0.0
 17
0.0
 27
1.0
 37
0.0
 76
     0
330
1B
  0
LAYOUT
  5
26
102
{ACAD_REACTORS
330
1A
102
}
330
1A
100
AcDbPlotSettings
  1

  2
none_device
  4

  6

 40
0.0
 41
0.0
 42
0.0
 43
0.0
 44
0.0
 45
0.0
 46
0.0
 47
0.0
 48
0.0
 49
0.0
140
0.0
141
0.0
142
1.0
143
1.0
 70
   688
 72
     0
 73
     0
 74
     5
  7

 75
    16
147
1.0
148
0.0
149
0.0
100
AcDbLayout
  1
Layout2
 70
     1
 71
     2
 10
0.0
 20
0.0
 11
0.0
 21
0.0
 12
0.0
 22
0.0
 32
0.0
 14
0.0
 24
0.0
 34
0.0
 15
0.0
 25
0.0
 35
0.0
146
0.0
 13
0.0
 23
0.0
 33
0.0
 16
1.0
 26
0.0
 36
0.0
 17
0.0
 27
1.0
 37
0.0
 76
     0
330
23
  0
LAYOUT
  5
22
102
{ACAD_REACTORS
330
1A
102
}
330
1A
100
AcDbPlotSettings
  1

  2
none_device
  4

  6

 40
0.0
 41
0.0
 42
0.0
 43
0.0
 44
0.0
 45
0.0
 46
0.0
 47
0.0
 48
0.0
 49
0.0
140
0.0
141
0.0
142
1.0
143
1.0
 70
  1712
 72
     0
 73
     0
 74
     0
  7

 75
     0
147
1.0
148
0.0
149
0.0
100
AcDbLayout
  1
Model
 70
     1
 71
     0
 10
0.0
 20
0.0
 11
841.0
 21
594.0
 12
0.0
 22
0.0
 32
0.0
 14
0.0
 24
0.0
 34
0.0
 15
841.0
 25
594.0
 35
0.0
146
0.0
 13
0.0
 23
0.0
 33
0.0
 16
1.0
 26
0.0
 36
0.0
 17
0.0
 27
1.0
 37
0.0
 76
     0
330
1F
331
29
  0
MLINESTYLE
  5
18
102
{ACAD_REACTORS
330
17
102
}
330
17
100
AcDbMlineStyle
  2
Standard
 70
     0
  3

 62
   256
 51
90.0
 52
90.0
 71
     2
 49
0.5
 62
   256
  6
BYLAYER
 49
-0.5
 62
   256
  6
BYLAYER
  0
ACDBPLACEHOLDER
  5
F
102
{ACAD_REACTORS
330
E
102
}
330
E
  0
ENDSEC
  0
EOF
