999
dxflib 2.2.0.0
  0
SECTION
  2
HEADER
  9
$ACADVER
  1
AC1015
  9
$HANDSEED
  5
FFFF
  9
$SPLINESEGS
 70
8
  9
$DIMEXE
 40
0.75
  9
$PSVPSCALE
 40
1.6306400000000001
  9
$DIMLUNIT
 70
2
  9
$GRIDMODE
 70
1
  9
$INSUNITS
 70
4
  9
$DIMADEC
 70
1
  9
$DIMASZ
 40
1.0
  9
$DIMGAP
 40
0.625
  9
$DIMTXT
 40
1.0
  9
$GRIDUNIT
 10
0.0
 20
0.0
  9
$DIMEXO
 40
0.625
  9
$LUPREC
 70
2
  9
$PINSBASE
 10
76.2983687510422186
 20
171.127079056158891
 30
0.0
  9
$DIMAUNIT
 70
0
  9
$AUPREC
 70
1
  9
$PLIMMIN
 10
0.0
 20
0.0
  9
$LUNITS
 70
2
  9
$PLIMMAX
 10
297.0
 20
210.0
  9
$DIMSTYLE
  2
Standard
  9
$AUNITS
 70
0
  0
ENDSEC
  0
SECTION
  2
TABLES
  0
TABLE
  2
VPORT
  5
8
100
AcDbSymbolTable
 70
1
  0
VPORT
  5
30
100
AcDbSymbolTableRecord
100
AcDbViewportTableRecord
  2
*Active
 70
0
 10
0.0
 20
0.0
 11
1.0
 21
1.0
 12
286.3055555555554861
 22
148.5
 13
0.0
 23
0.0
 14
10.0
 24
10.0
 15
10.0
 25
10.0
 16
0.0
 26
0.0
 36
1.0
 17
0.0
 27
0.0
 37
0.0
 40
297.0
 41
1.92798353909465
 42
50.0
 43
0.0
 44
0.0
 50
0.0
 51
0.0
 71
0
 72
100
 73
1
 74
3
 75
1
 76
1
 77
0
 78
0
281
0
 65
1
110
0.0
120
0.0
130
0.0
111
1.0
121
0.0
131
0.0
112
0.0
122
1.0
132
0.0
 79
0
146
0.0
  0
ENDTAB
  0
TABLE
  2
LTYPE
  5
5
100
AcDbSymbolTable
 70
21
  0
LTYPE
  5
14
100
AcDbSymbolTableRecord
100
AcDbLinetypeTableRecord
  2
ByBlock
 70
0
  3

 72
65
 73
0
 40
0.0
  0
LTYPE
  5
15
100
AcDbSymbolTableRecord
100
AcDbLinetypeTableRecord
  2
ByLayer
 70
0
  3

 72
65
 73
0
 40
0.0
  0
LTYPE
  5
16
100
AcDbSymbolTableRecord
100
AcDbLinetypeTableRecord
  2
CONTINUOUS
 70
0
  3
Solid line
 72
65
 73
0
 40
0.0
  0
LTYPE
  5
31
100
AcDbSymbolTableRecord
100
AcDbLinetypeTableRecord
  2
DOT
 70
0
  3
Dot . . . . . . . . . . . . . . . . . . . . . .
 72
65
 73
2
 40
6.3499999999999996
 49
0.0
 74
0
 49
-6.3499999999999996
 74
0
  0
LTYPE
  5
32
100
AcDbSymbolTableRecord
100
AcDbLinetypeTableRecord
  2
DOT2
 70
0
  3
Dot (.5x) .....................................
 72
65
 73
2
 40
3.1749999999999998
 49
0.0
 74
0
 49
-3.1749999999999998
 74
0
  0
LTYPE
  5
33
100
AcDbSymbolTableRecord
100
AcDbLinetypeTableRecord
  2
DOTX2
 70
0
  3
Dot (2x) .  .  .  .  .  .  .  .  .  .  .  .  .
 72
65
 73
2
 40
12.6999999999999993
 49
0.0
 74
0
 49
-12.6999999999999993
 74
0
  0
LTYPE
  5
34
100
AcDbSymbolTableRecord
100
AcDbLinetypeTableRecord
  2
DASHED
 70
0
  3
Dashed __ __ __ __ __ __ __ __ __ __ __ __ __ _
 72
65
 73
2
 40
19.0500000000000007
 49
12.6999999999999993
 74
0
 49
-6.3499999999999996
 74
0
  0
LTYPE
  5
35
100
AcDbSymbolTableRecord
100
AcDbLinetypeTableRecord
  2
DASHED2
 70
0
  3
Dashed (.5x) _ _ _ _ _ _ _ _ _ _ _ _ _ _ _ _ _
 72
65
 73
2
 40
9.5250000000000004
 49
6.3499999999999996
 74
0
 49
-3.1749999999999998
 74
0
  0
LTYPE
  5
36
100
AcDbSymbolTableRecord
100
AcDbLinetypeTableRecord
  2
DASHEDX2
 70
0
  3
Dashed (2x) ____  ____  ____  ____  ____  ___
 72
65
 73
2
 40
38.1000000000000014
 49
25.3999999999999986
 74
0
 49
-12.6999999999999993
 74
0
  0
LTYPE
  5
37
100
AcDbSymbolTableRecord
100
AcDbLinetypeTableRecord
  2
DASHDOT
 70
0
  3
Dash dot __ . __ . __ . __ . __ . __ . __ . __
 72
65
 73
4
 40
25.3999999999999986
 49
12.6999999999999993
 74
0
 49
-6.3499999999999996
 74
0
 49
0.0
 74
0
 49
-6.3499999999999996
 74
0
  0
LTYPE
  5
38
100
AcDbSymbolTableRecord
100
AcDbLinetypeTableRecord
  2
DASHDOT2
 70
0
  3
Dash dot (.5x) _._._._._._._._._._._._._._._.
 72
65
 73
4
 40
12.6999999999999993
 49
6.3499999999999996
 74
0
 49
-3.1749999999999998
 74
0
 49
0.0
 74
0
 49
-3.1749999999999998
 74
0
  0
LTYPE
  5
39
100
AcDbSymbolTableRecord
100
AcDbLinetypeTableRecord
  2
DASHDOTX2
 70
0
  3
Dash dot (2x) ____  .  ____  .  ____  .  ___
 72
65
 73
4
 40
50.7999999999999972
 49
25.3999999999999986
 74
0
 49
-12.6999999999999993
 74
0
 49
0.0
 74
0
 49
-12.6999999999999993
 74
0
  0
LTYPE
  5
3A
100
AcDbSymbolTableRecord
100
AcDbLinetypeTableRecord
  2
DIVIDE
 70
0
  3
Divide ____ . . ____ . . ____ . . ____ . . ____
 72
65
 73
6
 40
31.75
 49
12.6999999999999993
 74
0
 49
-6.3499999999999996
 74
0
 49
0.0
 74
0
 49
-6.3499999999999996
 74
0
 49
0.0
 74
0
 49
-6.3499999999999996
 74
0
  0
LTYPE
  5
3B
100
AcDbSymbolTableRecord
100
AcDbLinetypeTableRecord
  2
DIVIDE2
 70
0
  3
Divide (.5x) __..__..__..__..__..__..__..__.._
 72
65
 73
6
 40
15.875
 49
6.3499999999999996
 74
0
 49
-3.1749999999999998
 74
0
 49
0.0
 74
0
 49
-3.1749999999999998
 74
0
 49
0.0
 74
0
 49
-3.1749999999999998
 74
0
  0
LTYPE
  5
3C
100
AcDbSymbolTableRecord
100
AcDbLinetypeTableRecord
  2
DIVIDEX2
 70
0
  3
Divide (2x) ________  .  .  ________  .  .  _
 72
65
 73
6
 40
63.5
 49
25.3999999999999986
 74
0
 49
-12.6999999999999993
 74
0
 49
0.0
 74
0
 49
-12.6999999999999993
 74
0
 49
0.0
 74
0
 49
-12.6999999999999993
 74
0
  0
LTYPE
  5
3D
100
AcDbSymbolTableRecord
100
AcDbLinetypeTableRecord
  2
CENTER
 70
0
  3
Center ____ _ ____ _ ____ _ ____ _ ____ _ ____
 72
65
 73
4
 40
50.7999999999999972
 49
31.75
 74
0
 49
-6.3499999999999996
 74
0
 49
6.3499999999999996
 74
0
 49
-6.3499999999999996
 74
0
  0
LTYPE
  5
3E
100
AcDbSymbolTableRecord
100
AcDbLinetypeTableRecord
  2
CENTER2
 70
0
  3
Center (.5x) ___ _ ___ _ ___ _ ___ _ ___ _ ___
 72
65
 73
4
 40
28.5749999999999993
 49
19.0500000000000007
 74
0
 49
-3.1749999999999998
 74
0
 49
3.1749999999999998
 74
0
 49
-3.1749999999999998
 74
0
  0
LTYPE
  5
3F
100
AcDbSymbolTableRecord
100
AcDbLinetypeTableRecord
  2
CENTERX2
 70
0
  3
Center (2x) ________  __  ________  __  _____
 72
65
 73
4
 40
101.5999999999999943
 49
63.5
 74
0
 49
-12.6999999999999993
 74
0
 49
12.6999999999999993
 74
0
 49
-12.6999999999999993
 74
0
  0
LTYPE
  5
40
100
AcDbSymbolTableRecord
100
AcDbLinetypeTableRecord
  2
BORDER
 70
0
  3
Border __ __ . __ __ . __ __ . __ __ . __ __ .
 72
65
 73
6
 40
44.4500000000000028
 49
12.6999999999999993
 74
0
 49
-6.3499999999999996
 74
0
 49
12.6999999999999993
 74
0
 49
-6.3499999999999996
 74
0
 49
0.0
 74
0
 49
-6.3499999999999996
 74
0
  0
LTYPE
  5
41
100
AcDbSymbolTableRecord
100
AcDbLinetypeTableRecord
  2
BORDER2
 70
0
  3
Border (.5x) __.__.__.__.__.__.__.__.__.__.__.
 72
65
 73
6
 40
22.2250000000000014
 49
6.3499999999999996
 74
0
 49
-3.1749999999999998
 74
0
 49
6.3499999999999996
 74
0
 49
-3.1749999999999998
 74
0
 49
0.0
 74
0
 49
-3.1749999999999998
 74
0
  0
LTYPE
  5
42
100
AcDbSymbolTableRecord
100
AcDbLinetypeTableRecord
  2
BORDERX2
 70
0
  3
Border (2x) ____  ____  .  ____  ____  .  ___
 72
65
 73
6
 40
88.9000000000000057
 49
25.3999999999999986
 74
0
 49
-12.6999999999999993
 74
0
 49
25.3999999999999986
 74
0
 49
-12.6999999999999993
 74
0
 49
0.0
 74
0
 49
-12.6999999999999993
 74
0
  0
ENDTAB
  0
TABLE
  2
LAYER
  5
2
100
AcDbSymbolTable
 70
5
  0
LAYER
  5
10
100
AcDbSymbolTableRecord
100
AcDbLayerTableRecord
  2
0
 70
0
 62
7
  6
CONTINUOUS
370
0
390
F
  0
LAYER
  5
43
100
AcDbSymbolTableRecord
100
AcDbLayerTableRecord
  2
centreline
 70
0
 62
7
  6
CENTERX2
370
0
390
F
  0
LAYER
  5
44
100
AcDbSymbolTableRecord
100
AcDbLayerTableRecord
  2
construction
 70
0
 62
8
  6
DASHED
370
0
390
F
  0
LAYER
  5
45
100
AcDbSymbolTableRecord
100
AcDbLayerTableRecord
  2
dimensions
 70
0
 62
7
  6
CONTINUOUS
370
0
390
F
  0
LAYER
  5
46
100
AcDbSymbolTableRecord
100
AcDbLayerTableRecord
  2
hatching
 70
0
 62
7
  6
CONTINUOUS
370
0
390
F
  0
ENDTAB
  0
TABLE
  2
STYLE
  5
3
100
AcDbSymbolTable
 70
1
  0
STYLE
  5
11
100
AcDbSymbolTableRecord
100
AcDbTextStyleTableRecord
  2
Standard
 70
0
 40
0.0
 41
0.75
 50
0.0
 71
0
 42
2.5
  3
txt
  4

  0
ENDTAB
  0
TABLE
  2
VIEW
  5
6
100
AcDbSymbolTable
 70
0
  0
ENDTAB
  0
TABLE
  2
UCS
  5
7
100
AcDbSymbolTable
 70
0
  0
ENDTAB
  0
TABLE
  2
APPID
  5
9
100
AcDbSymbolTable
 70
1
  0
APPID
  5
12
100
AcDbSymbolTableRecord
100
AcDbRegAppTableRecord
  2
ACAD
 70
0
  0
ENDTAB
  0
TABLE
  2
DIMSTYLE
  5
A
100
AcDbSymbolTable
 70
1
100
AcDbDimStyleTable
 71
0
  0
DIMSTYLE
105
27
100
AcDbSymbolTableRecord
100
AcDbDimStyleTableRecord
  2
Standard
 41
1.0
 42
0.625
 43
3.75
 44
0.75
 70
0
 73
0
 74
0
 77
1
 78
8
140
1.0
141
2.5
143
0.03937007874016
147
0.625
171
3
172
1
271
2
272
2
274
3
278
44
283
0
284
8
340
11
  0
ENDTAB
  0
TABLE
  2
BLOCK_RECORD
  5
1
100
AcDbSymbolTable
 70
1
  0
BLOCK_RECORD
  5
1F
100
AcDbSymbolTableRecord
100
AcDbBlockTableRecord
  2
*Model_Space
340
22
  0
BLOCK_RECORD
  5
1B
100
AcDbSymbolTableRecord
100
AcDbBlockTableRecord
  2
*Paper_Space
340
1E
  0
BLOCK_RECORD
  5
23
100
AcDbSymbolTableRecord
100
AcDbBlockTableRecord
  2
*Paper_Space0
340
26
  0
ENDTAB
  0
ENDSEC
  0
SECTION
  2
BLOCKS
  0
BLOCK
  5
20
100
AcDbEntity
  8
0
100
AcDbBlockBegin
  2
*Model_Space
 70
0
 10
0.0
 20
0.0
 30
0.0
  3
*Model_Space
  1

  0
ENDBLK
  5
21
100
AcDbEntity
  8
0
100
AcDbBlockEnd
  0
BLOCK
  5
1C
100
AcDbEntity
 67
1
  8
0
100
AcDbBlockBegin
  2
*Paper_Space
 70
0
 10
0.0
 20
0.0
 30
0.0
  3
*Paper_Space
  1

  0
ENDBLK
  5
1D
100
AcDbEntity
 67
1
  8
0
100
AcDbBlockEnd
  0
BLOCK
  5
24
100
AcDbEntity
  8
0
100
AcDbBlockBegin
  2
*Paper_Space0
 70
0
 10
0.0
 20
0.0
 30
0.0
  3
*Paper_Space0
  1

  0
ENDBLK
  5
25
100
AcDbEntity
  8
0
100
AcDbBlockEnd
  0
ENDSEC
  0
SECTION
  2
ENTITIES
  0
HATCH
  5
47
  8
hatching
 62
256
370
-1
  6
ByLayer
100
AcDbEntity
100
AcDbHatch
 10
0.0
 20
0.0
 30
0.0
210
0.0
220
0.0
230
1.0
  2
ANSI31
 70
0
 71
0
 91
1
 92
1
 93
7
 72
1
 10
38.5
 20
-18.1999999999999993
 11
38.5
 21
-27.0
 72
1
 10
38.5
 20
-27.0
 11
41.0
 21
-26.9999999999999964
 72
1
 10
41.0
 20
-26.9999999999999964
 11
41.0
 21
-24.6709999999999958
 72
2
 10
42.7925075757576465
 20
-23.7999999999999972
 40
1.9929185656088799
 50
154.0843512385716281
 51
205.9156487614283719
 73
0
 72
1
 10
41.0
 20
-22.9289999999999949
 11
40.9999999999999858
 21
-19.198999999999991
 72
1
 10
40.9999999999999858
 20
-19.198999999999991
 11
40.0010000000000048
 21
-18.2000000000000028
 72
1
 10
40.0010000000000048
 20
-18.2000000000000028
 11
38.5
 21
-18.1999999999999993
 97
0
 75
0
 76
1
 52
0.0
 41
1.0
 77
0
 78
1
 53
45.0
 43
0.0
 44
0.0
 45
-0.0883883476483184
 46
0.0883883476483185
 79
0
 98
0
  0
HATCH
  5
48
  8
hatching
 62
256
370
-1
  6
ByLayer
100
AcDbEntity
100
AcDbHatch
 10
0.0
 20
0.0
 30
0.0
210
0.0
220
0.0
230
1.0
  2
ANSI31
 70
0
 71
0
 91
1
 92
1
 93
7
 72
1
 10
35.5000000000000071
 20
-18.1999999999999993
 11
35.5000000000000142
 21
-27.0
 72
1
 10
35.5000000000000142
 20
-27.0
 11
33.0
 21
-26.9999999999999964
 72
1
 10
33.0
 20
-26.9999999999999964
 11
33.0
 21
-24.6709999999999958
 72
2
 10
31.207492424242389
 20
-23.8000000000000043
 40
1.992918565608844
 50
334.0843512385714575
 51
25.9156487614290221
 73
1
 72
1
 10
32.9999999999999929
 20
-22.9289999999999985
 11
32.9999999999999858
 21
-19.1989999999999945
 72
1
 10
32.9999999999999858
 20
-19.1989999999999945
 11
33.9989999999999952
 21
-18.1999999999999993
 72
1
 10
33.9989999999999952
 20
-18.1999999999999993
 11
35.5000000000000071
 21
-18.1999999999999993
 97
0
 75
0
 76
1
 52
0.0
 41
1.0
 77
0
 78
1
 53
45.0
 43
0.0
 44
0.0
 45
-0.0883883476483184
 46
0.0883883476483185
 79
0
 98
0
  0
HATCH
  5
49
  8
hatching
 62
256
370
-1
  6
ByLayer
100
AcDbEntity
100
AcDbHatch
 10
0.0
 20
0.0
 30
0.0
210
0.0
220
0.0
230
1.0
  2
ANSI31
 70
0
 71
0
 91
1
 92
1
 93
7
 72
1
 10
10.0
 20
4.0
 11
11.6479999999999997
 21
4.0
 72
2
 10
13.1999999999999993
 20
5.7905552677029331
 40
2.3695552677029346
 50
229.0822284176474284
 51
310.9177715823525432
 73
1
 72
1
 10
14.7520000000000007
 20
4.0
 11
17.8009999999999984
 21
4.0
 72
1
 10
17.8009999999999984
 20
4.0
 11
18.8000000000000007
 21
3.0009999999999999
 72
1
 10
18.8000000000000007
 20
3.0009999999999999
 11
18.8000000000000007
 21
1.5
 72
1
 10
18.8000000000000007
 20
1.5
 11
10.0
 21
1.5
 72
1
 10
10.0
 20
1.5
 11
10.0
 21
4.0
 97
0
 75
0
 76
1
 52
0.0
 41
1.0
 77
0
 78
1
 53
45.0
 43
0.0
 44
0.0
 45
-0.0883883476483184
 46
0.0883883476483185
 79
0
 98
0
  0
HATCH
  5
4A
  8
hatching
 62
256
370
-1
  6
ByLayer
100
AcDbEntity
100
AcDbHatch
 10
0.0
 20
0.0
 30
0.0
210
0.0
220
0.0
230
1.0
  2
ANSI31
 70
0
 71
0
 91
1
 92
1
 93
7
 72
1
 10
18.8000000000000007
 20
-3.0009999999999999
 11
17.8009999999999984
 21
-4.0
 72
1
 10
17.8009999999999984
 20
-4.0
 11
14.7520000000000007
 21
-4.0
 72
2
 10
13.1999999999999993
 20
-5.7905552677029331
 40
2.3695552677029346
 50
49.0822284176474497
 51
130.9177715823526
 73
1
 72
1
 10
11.6479999999999997
 20
-4.0
 11
10.0
 21
-4.0
 72
1
 10
10.0
 20
-4.0
 11
10.0
 21
-1.5
 72
1
 10
10.0
 20
-1.5
 11
18.8000000000000007
 21
-1.5
 72
1
 10
18.8000000000000007
 20
-1.5
 11
18.8000000000000007
 21
-3.0009999999999999
 97
0
 75
0
 76
1
 52
0.0
 41
1.0
 77
0
 78
1
 53
45.0
 43
0.0
 44
0.0
 45
-0.0883883476483184
 46
0.0883883476483185
 79
0
 98
0
  0
HATCH
  5
4B
  8
hatching
 62
256
370
-1
  6
ByLayer
100
AcDbEntity
100
AcDbHatch
 10
0.0
 20
0.0
 30
0.0
210
0.0
220
0.0
230
1.0
  2
ANSI31
 70
0
 71
0
 91
1
 92
1
 93
10
 72
1
 10
8.865021372352011
 20
-13.7002976734278352
 11
9.4450213723520093
 21
-17.8902976734278383
 72
1
 10
9.4450213723520093
 20
-17.8902976734278383
 11
9.1850213723520113
 21
-18.050297673427842
 72
1
 10
9.1850213723520113
 20
-18.050297673427842
 11
5.5950213723520115
 21
-15.8402976734278393
 72
1
 10
5.5950213723520115
 20
-15.8402976734278393
 11
4.0550213723520123
 21
-16.6702976734278252
 72
1
 10
4.0550213723520123
 20
-16.6702976734278252
 11
3.9450213723520107
 21
-20.8702976734278423
 72
1
 10
3.9450213723520107
 20
-20.8702976734278423
 11
3.6550213723520115
 21
-21.0102976734278357
 72
1
 10
3.6550213723520115
 20
-21.0102976734278357
 11
0.4850213723520098
 21
-18.2402976734278255
 72
1
 10
0.4850213723520098
 20
-18.2402976734278255
 11
-0.9685074767682393
 21
-18.7394009529450187
 72
2
 10
5.3568295702901674
 20
-18.6264273888917842
 40
6.3263458477279331
 50
178.9767785935598567
 51
306.2153019825464639
 73
0
 72
1
 10
9.0945685716330704
 20
-13.5223154247099036
 11
8.865021372352011
 21
-13.7002976734278352
 97
0
 75
0
 76
1
 52
0.0
 41
1.0
 77
0
 78
1
 53
45.0
 43
0.0
 44
0.0
 45
-0.0883883476483184
 46
0.0883883476483185
 79
0
 98
0
  0
LINE
  5
4C
100
AcDbEntity
100
AcDbLine
  8
0
 62
256
370
-1
  6
ByLayer
 10
10.0
 20
-1.25
 30
0.0
 11
18.8000000000000007
 21
-1.25
 31
0.0
  0
LINE
  5
4D
100
AcDbEntity
100
AcDbLine
  8
0
 62
256
370
-1
  6
ByLayer
 10
18.8000000000000007
 20
-3.0009999999999999
 30
0.0
 11
17.8009999999999984
 21
-4.0
 31
0.0
  0
LINE
  5
4E
100
AcDbEntity
100
AcDbLine
  8
0
 62
256
370
-1
  6
ByLayer
 10
17.8009999999999984
 20
-4.0
 30
0.0
 11
14.7520000000000007
 21
-4.0
 31
0.0
  0
LINE
  5
4F
100
AcDbEntity
100
AcDbLine
  8
0
 62
256
370
-1
  6
ByLayer
 10
11.6479999999999997
 20
-4.0
 30
0.0
 11
10.0
 21
-4.0
 31
0.0
  0
LINE
  5
50
100
AcDbEntity
100
AcDbLine
  8
0
 62
256
370
-1
  6
ByLayer
 10
10.0
 20
4.0
 30
0.0
 11
11.6479999999999997
 21
4.0
 31
0.0
  0
LINE
  5
51
100
AcDbEntity
100
AcDbLine
  8
0
 62
256
370
-1
  6
ByLayer
 10
14.7520000000000007
 20
4.0
 30
0.0
 11
17.8009999999999984
 21
4.0
 31
0.0
  0
LINE
  5
52
100
AcDbEntity
100
AcDbLine
  8
0
 62
256
370
-1
  6
ByLayer
 10
17.8009999999999984
 20
4.0
 30
0.0
 11
18.8000000000000007
 21
3.0009999999999999
 31
0.0
  0
LINE
  5
53
100
AcDbEntity
100
AcDbLine
  8
0
 62
256
370
-1
  6
ByLayer
 10
18.8000000000000007
 20
1.25
 30
0.0
 11
10.0
 21
1.25
 31
0.0
  0
LINE
  5
54
100
AcDbEntity
100
AcDbLine
  8
0
 62
256
370
-1
  6
ByLayer
 10
18.8000000000000007
 20
1.5
 30
0.0
 11
10.0
 21
1.5
 31
0.0
  0
LINE
  5
55
100
AcDbEntity
100
AcDbLine
  8
0
 62
256
370
-1
  6
ByLayer
 10
18.8000000000000007
 20
-1.5
 30
0.0
 11
10.0
 21
-1.5
 31
0.0
  0
ARC
  5
56
100
AcDbEntity
  8
0
 62
256
370
-1
  6
ByLayer
100
AcDbCircle
 10
13.1999999999999993
 20
5.7905552677029331
 30
0.0
 40
2.3695552677029346
100
AcDbArc
 50
229.0822284176474568
 51
310.9177715823525432
  0
ARC
  5
57
100
AcDbEntity
  8
0
 62
256
370
-1
  6
ByLayer
100
AcDbCircle
 10
13.1996470943021365
 20
5.7981394043141501
 30
0.0
 40
1.9981394354787547
100
AcDbArc
 50
244.1458283545877066
 51
295.8541716454122934
  0
ARC
  5
58
100
AcDbEntity
  8
0
 62
256
370
-1
  6
ByLayer
100
AcDbCircle
 10
13.1999999999999993
 20
-5.7905552677029331
 30
0.0
 40
2.3695552677029346
100
AcDbArc
 50
49.0822284176474426
 51
130.9177715823526
  0
ARC
  5
59
100
AcDbEntity
  8
0
 62
256
370
-1
  6
ByLayer
100
AcDbCircle
 10
13.1999999999999993
 20
-5.799710937499972
 30
0.0
 40
1.999710937499976
100
AcDbArc
 50
64.1561672285388482
 51
115.8438327714611091
  0
LINE
  5
5A
100
AcDbEntity
100
AcDbLine
  8
0
 62
256
370
-1
  6
ByLayer
 10
11.6479999999999961
 20
-4.0000000000000009
 30
0.0
 11
12.3282865292999073
 21
-3.9999999999999991
 31
0.0
  0
LINE
  5
5B
100
AcDbEntity
100
AcDbLine
  8
0
 62
256
370
-1
  6
ByLayer
 10
14.071713470700093
 20
-4.0
 30
0.0
 11
14.7520000000000007
 21
-4.0
 31
0.0
  0
LINE
  5
5C
100
AcDbEntity
100
AcDbLine
  8
0
 62
256
370
-1
  6
ByLayer
 10
11.6479999999999997
 20
4.0
 30
0.0
 11
12.3282941886042714
 21
4.0000000000000009
 31
0.0
  0
LINE
  5
5D
100
AcDbEntity
100
AcDbLine
  8
0
 62
256
370
-1
  6
ByLayer
 10
14.0710000000000015
 20
4.0000000000000009
 30
0.0
 11
14.7520000000000007
 21
4.0
 31
0.0
  0
DIMENSION
  5
5E
100
AcDbEntity
  8
dimensions
 62
256
370
-1
  6
ByLayer
100
AcDbDimension
 10
17.8009999999999984
 20
5.3325474516835456
 30
0.0
 11
18.3004999999999995
 21
6.9575474516835456
 31
0.0
 70
0
 71
5
 72
0
 41
1.0
 42
0.0
  1

  3
Standard
100
AcDbAlignedDimension
 13
18.8000000000000007
 23
3.0009999999999999
 33
0.0
 14
17.8009999999999984
 24
4.0
 34
0.0
 50
0.0
100
AcDbRotatedDimension
  0
DIMENSION
  5
5F
100
AcDbEntity
  8
dimensions
 62
256
370
-1
  6
ByLayer
100
AcDbDimension
 10
13.1996470943021365
 20
9.38528351496306
 30
0.0
 11
15.9998235471510686
 21
10.51028351496306
 31
0.0
 70
0
 71
5
 72
0
 41
1.0
 42
0.0
  1

  3
Standard
100
AcDbAlignedDimension
 13
18.8000000000000007
 23
3.0009999999999999
 33
0.0
 14
13.1996470943021365
 24
3.7999999688353956
 34
0.0
 50
0.0
100
AcDbRotatedDimension
  0
DIMENSION
  5
60
100
AcDbEntity
  8
dimensions
 62
256
370
-1
  6
ByLayer
100
AcDbDimension
 10
10.0
 20
13.3313686292088942
 30
0.0
 11
14.4000000000000004
 21
14.4563686292088942
 31
0.0
 70
0
 71
5
 72
0
 41
1.0
 42
0.0
  1

  3
Standard
100
AcDbAlignedDimension
 13
18.8000000000000007
 23
3.0009999999999999
 33
0.0
 14
10.0
 24
4.0
 34
0.0
 50
0.0
100
AcDbRotatedDimension
  0
LINE
  5
61
100
AcDbEntity
100
AcDbLine
  8
0
 62
256
370
-1
  6
ByLayer
 10
38.0
 20
4.0
 30
0.0
 11
38.0
 21
4.0
 31
0.0
  0
CIRCLE
  5
62
100
AcDbEntity
100
AcDbCircle
  8
0
 62
256
370
-1
  6
ByLayer
 10
37.0
 20
0.0
 30
0.0
 40
3.0009999999999994
  0
CIRCLE
  5
63
100
AcDbEntity
100
AcDbCircle
  8
0
 62
256
370
-1
  6
ByLayer
 10
37.0
 20
0.0
 30
0.0
 40
4.0
  0
CIRCLE
  5
64
100
AcDbEntity
100
AcDbCircle
  8
0
 62
256
370
-1
  6
ByLayer
 10
37.0
 20
0.0
 30
0.0
 40
1.5
  0
ARC
  5
65
100
AcDbEntity
  8
0
 62
256
370
-1
  6
ByLayer
100
AcDbCircle
 10
37.0
 20
0.0000000000000007
 30
0.0
 40
1.2499999999999993
100
AcDbArc
 50
132.5691267288532629
 51
90.0
  0
DIMENSION
  5
66
100
AcDbEntity
  8
dimensions
 62
256
370
-1
  6
ByLayer
100
AcDbDimension
 10
57.2820457882341501
 20
3.9999999999999973
 30
0.0
 11
56.1570457882341501
 21
0.0000000000000001
 31
0.0
 70
1
 71
5
 72
0
 41
1.0
 42
0.0
  1
%%c<>
  3
Standard
100
AcDbAlignedDimension
 13
37.0
 23
-4.0
 33
0.0
 14
37.0
 24
4.0
 34
0.0
  0
LINE
  5
67
100
AcDbEntity
100
AcDbLine
  8
0
 62
256
370
-1
  6
ByLayer
 10
35.5000000000000071
 20
-18.1999999999999993
 30
0.0
 11
35.5000000000000142
 21
-27.0
 31
0.0
  0
LINE
  5
68
100
AcDbEntity
100
AcDbLine
  8
0
 62
256
370
-1
  6
ByLayer
 10
38.5
 20
-18.1999999999999993
 30
0.0
 11
38.5
 21
-27.0
 31
0.0
  0
LINE
  5
69
100
AcDbEntity
100
AcDbLine
  8
0
 62
256
370
-1
  6
ByLayer
 10
32.9999999999999858
 20
-19.1989999999999945
 30
0.0
 11
32.9999999999999929
 21
-22.9289999999999985
 31
0.0
  0
LINE
  5
6A
100
AcDbEntity
100
AcDbLine
  8
0
 62
256
370
-1
  6
ByLayer
 10
33.0
 20
-24.6709999999999958
 30
0.0
 11
33.0
 21
-26.9999999999999964
 31
0.0
  0
LINE
  5
6B
100
AcDbEntity
100
AcDbLine
  8
0
 62
256
370
-1
  6
ByLayer
 10
35.75
 20
-26.9999999999999964
 30
0.0
 11
35.7499999999999858
 21
-18.1999999999999993
 31
0.0
  0
LINE
  5
6C
100
AcDbEntity
100
AcDbLine
  8
0
 62
256
370
-1
  6
ByLayer
 10
33.9989999999999952
 20
-18.1999999999999993
 30
0.0
 11
32.9999999999999858
 21
-19.1989999999999945
 31
0.0
  0
LINE
  5
6D
100
AcDbEntity
100
AcDbLine
  8
0
 62
256
370
-1
  6
ByLayer
 10
38.2500000000000071
 20
-18.1999999999999957
 30
0.0
 11
38.25
 21
-26.9999999999999929
 31
0.0
  0
LINE
  5
6E
100
AcDbEntity
100
AcDbLine
  8
0
 62
256
370
-1
  6
ByLayer
 10
41.0
 20
-26.9999999999999964
 30
0.0
 11
41.0
 21
-24.6709999999999958
 31
0.0
  0
LINE
  5
6F
100
AcDbEntity
100
AcDbLine
  8
0
 62
256
370
-1
  6
ByLayer
 10
41.0
 20
-22.9289999999999949
 30
0.0
 11
40.9999999999999858
 21
-19.198999999999991
 31
0.0
  0
LINE
  5
70
100
AcDbEntity
100
AcDbLine
  8
0
 62
256
370
-1
  6
ByLayer
 10
40.9999999999999858
 20
-19.198999999999991
 30
0.0
 11
40.0010000000000048
 21
-18.2000000000000028
 31
0.0
  0
ARC
  5
71
100
AcDbEntity
  8
0
 62
256
370
-1
  6
ByLayer
100
AcDbCircle
 10
42.7925075757576465
 20
-23.7999999999999972
 30
0.0
 40
1.9929185656088799
100
AcDbArc
 50
154.0843512385716281
 51
205.9156487614283719
  0
ARC
  5
72
100
AcDbEntity
  8
0
 62
256
370
-1
  6
ByLayer
100
AcDbCircle
 10
31.207492424242389
 20
-23.8000000000000043
 30
0.0
 40
1.992918565608844
100
AcDbArc
 50
334.0843512385714575
 51
25.9156487614290221
  0
CIRCLE
  5
73
100
AcDbEntity
100
AcDbCircle
  8
construction
 62
256
370
-1
  6
ByLayer
 10
42.7925075757576181
 20
-23.7999999999999972
 30
0.0
 40
1.9929185656088524
  0
DIMENSION
  5
74
100
AcDbEntity
  8
dimensions
 62
256
370
-1
  6
ByLayer
100
AcDbDimension
 10
40.8114811017351968
 20
-24.0173902444239928
 30
0.0
 11
42.6152503845783031
 21
-22.184696657536044
 31
0.0
 70
3
 71
5
 72
0
 41
1.0
 42
0.0
  1
%%c4.0
  3
Standard
100
AcDbDiametricDimension
 15
44.7735340497800962
 25
-23.5826097555760015
 35
0.0
 40
0.0
  0
DIMENSION
  5
75
100
AcDbEntity
  8
dimensions
 62
256
370
-1
  6
ByLayer
100
AcDbDimension
 10
38.5
 20
-16.0896210209679218
 30
0.0
 11
37.0
 21
-14.9646210209679218
 31
0.0
 70
1
 71
5
 72
0
 41
1.0
 42
0.0
  1
M3 x 0.5mm THRO'
  3
Standard
100
AcDbAlignedDimension
 13
35.5000000000000071
 23
-18.1999999999999993
 33
0.0
 14
38.5
 24
-18.1999999999999957
 34
0.0
  0
LINE
  5
76
100
AcDbEntity
100
AcDbLine
  8
0
 62
256
370
-1
  6
ByLayer
 10
8.865021372352011
 20
-13.7002976734278352
 30
0.0
 11
9.4450213723520093
 21
-17.8902976734278383
 31
0.0
  0
LINE
  5
77
100
AcDbEntity
100
AcDbLine
  8
0
 62
256
370
-1
  6
ByLayer
 10
9.4450213723520093
 20
-17.8902976734278383
 30
0.0
 11
9.1850213723520113
 21
-18.050297673427842
 31
0.0
  0
LINE
  5
78
100
AcDbEntity
100
AcDbLine
  8
0
 62
256
370
-1
  6
ByLayer
 10
9.1850213723520113
 20
-18.050297673427842
 30
0.0
 11
5.5950213723520115
 21
-15.8402976734278393
 31
0.0
  0
LINE
  5
79
100
AcDbEntity
100
AcDbLine
  8
0
 62
256
370
-1
  6
ByLayer
 10
5.5950213723520115
 20
-15.8402976734278393
 30
0.0
 11
4.0550213723520123
 21
-16.6702976734278252
 31
0.0
  0
LINE
  5
7A
100
AcDbEntity
100
AcDbLine
  8
0
 62
256
370
-1
  6
ByLayer
 10
4.0550213723520123
 20
-16.6702976734278252
 30
0.0
 11
3.9450213723520107
 21
-20.8702976734278423
 31
0.0
  0
LINE
  5
7B
100
AcDbEntity
100
AcDbLine
  8
0
 62
256
370
-1
  6
ByLayer
 10
3.9450213723520107
 20
-20.8702976734278423
 30
0.0
 11
3.6550213723520115
 21
-21.0102976734278357
 31
0.0
  0
LINE
  5
7C
100
AcDbEntity
100
AcDbLine
  8
0
 62
256
370
-1
  6
ByLayer
 10
3.6550213723520115
 20
-21.0102976734278357
 30
0.0
 11
0.4850213723520098
 21
-18.2402976734278255
 31
0.0
  0
LINE
  5
7D
100
AcDbEntity
100
AcDbLine
  8
0
 62
256
370
-1
  6
ByLayer
 10
9.1850213723520113
 20
-18.050297673427842
 30
0.0
 11
10.2838059133103688
 21
-19.7474513151793971
 31
0.0
  0
LINE
  5
7E
100
AcDbEntity
100
AcDbLine
  8
0
 62
256
370
-1
  6
ByLayer
 10
9.4450213723520093
 20
-17.8902976734278383
 30
0.0
 11
10.5528840341967189
 21
-19.5717045458543524
 31
0.0
  0
LINE
  5
7F
100
AcDbEntity
100
AcDbLine
  8
0
 62
256
370
-1
  6
ByLayer
 10
3.9450213723520107
 20
-20.8702976734278423
 30
0.0
 11
4.7710056942955781
 21
-22.7314441650798926
 31
0.0
  0
LINE
  5
80
100
AcDbEntity
100
AcDbLine
  8
0
 62
256
370
-1
  6
ByLayer
 10
3.6550213723520115
 20
-21.0102976734278357
 30
0.0
 11
4.4605508228499904
 21
-22.8676534679579291
 31
0.0
  0
CIRCLE
  5
81
100
AcDbEntity
100
AcDbCircle
  8
0
 62
256
370
-1
  6
ByLayer
 10
5.3568295702901647
 20
-18.6264273888917842
 30
0.0
 40
6.3263458477279304
  0
LINE
  5
82
100
AcDbEntity
100
AcDbLine
  8
0
 62
256
370
-1
  6
ByLayer
 10
0.4850213723520098
 20
-18.2402976734278255
 30
0.0
 11
-0.9685074767682393
 21
-18.7394009529450187
 31
0.0
  0
LINE
  5
83
100
AcDbEntity
100
AcDbLine
  8
0
 62
256
370
-1
  6
ByLayer
 10
8.865021372352011
 20
-13.7002976734278352
 30
0.0
 11
9.0945685716330704
 21
-13.5223154247099036
 31
0.0
  0
ARC
  5
84
100
AcDbEntity
  8
0
 62
256
370
-1
  6
ByLayer
100
AcDbCircle
 10
-11.454978627647991
 20
13.8297023265721624
 30
0.0
 40
40.0
100
AcDbArc
 50
289.4293561861749708
 51
305.33765709135821
  0
POINT
  5
85
100
AcDbEntity
100
AcDbPoint
  8
0
 62
256
370
-1
  6
ByLayer
 10
6.5650213723520103
 20
-19.4602976734278386
 30
0.0
  0
DIMENSION
  5
86
100
AcDbEntity
  8
dimensions
 62
256
370
-1
  6
ByLayer
100
AcDbDimension
 10
-7.2623419389503248
 20
-22.8175479578790146
 30
0.0
 11
-4.7445225520986725
 21
-23.5254439849860759
 31
0.0
 70
1
 71
5
 72
0
 41
1.0
 42
0.0
  1
0.37
  3
Standard
100
AcDbAlignedDimension
 13
6.5650213723520103
 23
-19.4602976734278386
 33
0.0
 14
4.8250213723520119
 24
-16.2552976734278332
 34
0.0
  0
DIMENSION
  5
87
100
AcDbEntity
  8
dimensions
 62
256
370
-1
  6
ByLayer
100
AcDbDimension
 10
3.9450213723520107
 20
-20.8702976734278423
 30
0.0
 11
1.8476884041045909
 21
-6.3642600585824791
 31
0.0
 70
2
 71
5
 72
0
 41
1.0
 42
0.0
  1
60%%d
  3
Standard
100
AcDb2LineAngularDimension
 13
5.5950213723520115
 23
-15.8402976734278393
 33
0.0
 14
9.1850213723520113
 24
-18.050297673427842
 34
0.0
 15
4.0550213723520123
 25
-16.6702976734278252
 35
0.0
 16
14.0458906998306947
 26
-28.7609593556533554
 36
0.0
  0
LEADER
  5
88
  8
dimensions
 62
256
370
-1
  6
ByLayer
100
AcDbEntity
100
AcDbLeader
  3
Standard
 71
1
 72
0
 73
3
 74
0
 75
0
 40
1.0
 41
10.0
 76
2
 10
44.0
 20
0.0
 10
44.0
 20
-3.0
  0
LEADER
  5
89
  8
dimensions
 62
256
370
-1
  6
ByLayer
100
AcDbEntity
100
AcDbLeader
  3
Standard
 71
1
 72
0
 73
3
 74
0
 75
0
 40
1.0
 41
10.0
 76
2
 10
31.0
 20
0.0
 10
31.0
 20
-3.0
  0
LEADER
  5
8A
  8
dimensions
 62
256
370
-1
  6
ByLayer
100
AcDbEntity
100
AcDbLeader
  3
Standard
 71
1
 72
0
 73
3
 74
0
 75
0
 40
1.0
 41
10.0
 76
2
 10
37.0
 20
5.0
 10
34.0
 20
5.0
  0
LEADER
  5
8B
  8
dimensions
 62
256
370
-1
  6
ByLayer
100
AcDbEntity
100
AcDbLeader
  3
Standard
 71
1
 72
0
 73
3
 74
0
 75
0
 40
1.0
 41
10.0
 76
2
 10
37.0
 20
-6.0
 10
34.0
 20
-6.0
  0
MTEXT
  5
8C
100
AcDbEntity
100
AcDbMText
  8
dimensions
 62
256
370
-1
  6
ByLayer
 10
34.424487955584226
 20
6.2542199491824784
 30
0.0
 40
1.0
 41
100.0
 71
1
 72
2
  1
A
  7
iso
 50
0.0
 73
0
 44
1.0
  0
MTEXT
  5
8D
100
AcDbEntity
100
AcDbMText
  8
dimensions
 62
256
370
-1
  6
ByLayer
 10
34.3719314854230333
 20
-4.6249693741853619
 30
0.0
 40
1.0
 41
100.0
 71
1
 72
2
  1
A
  7
iso
 50
0.0
 73
0
 44
1.0
  0
MTEXT
  5
8E
100
AcDbEntity
100
AcDbMText
  8
dimensions
 62
256
370
-1
  6
ByLayer
 10
30.1674138725272485
 20
-2.102258806447892
 30
0.0
 40
1.0
 41
100.0
 71
1
 72
2
  1
B
  7
iso
 50
0.0
 73
0
 44
1.0
  0
MTEXT
  5
8F
100
AcDbEntity
100
AcDbMText
  8
dimensions
 62
256
370
-1
  6
ByLayer
 10
42.991192591859388
 20
-1.9971458661254973
 30
0.0
 40
1.0
 41
100.0
 71
1
 72
2
  1
B
  7
iso
 50
0.0
 73
0
 44
1.0
  0
LINE
  5
90
100
AcDbEntity
100
AcDbLine
  8
construction
 62
256
370
-1
  6
ByLayer
 10
13.1996470943021365
 20
5.6172355308287711
 30
0.0
 11
13.1996470943021365
 21
-5.5835993899256042
 31
0.0
  0
LEADER
  5
91
  8
dimensions
 62
256
370
-1
  6
ByLayer
100
AcDbEntity
100
AcDbLeader
  3
Standard
 71
1
 72
0
 73
3
 74
0
 75
0
 40
1.0
 41
10.0
 76
2
 10
13.1996470943021365
 20
-5.5835993899256042
 10
10.9317457935290463
 20
-5.5835993899256042
  0
LEADER
  5
92
  8
dimensions
 62
256
370
-1
  6
ByLayer
100
AcDbEntity
100
AcDbLeader
  3
Standard
 71
1
 72
0
 73
3
 74
0
 75
0
 40
1.0
 41
10.0
 76
2
 10
13.1996470943021365
 20
5.6760987774093126
 10
10.8897006174000897
 20
5.6760987774093126
  0
MTEXT
  5
93
100
AcDbEntity
100
AcDbMText
  8
dimensions
 62
256
370
-1
  6
ByLayer
 10
11.0578813219159198
 20
-4.330653141282661
 30
0.0
 40
1.0
 41
100.0
 71
1
 72
2
  1
C
  7
iso
 50
0.0
 73
0
 44
1.0
  0
MTEXT
  5
94
100
AcDbEntity
100
AcDbMText
  8
dimensions
 62
256
370
-1
  6
ByLayer
 10
11.0158361457869631
 20
6.8954088851490907
 30
0.0
 40
1.0
 41
100.0
 71
1
 72
2
  1
C
  7
iso
 50
0.0
 73
0
 44
1.0
  0
MTEXT
  5
95
100
AcDbEntity
100
AcDbMText
  8
dimensions
 62
256
370
-1
  6
ByLayer
 10
10.1828160937319865
 20
-6.5695587701496683
 30
0.0
 40
1.0
 41
100.0
 71
1
 72
2
  1
SECTION A-A
  7
iso
 50
0.0
 73
0
 44
1.0
  0
DIMENSION
  5
96
100
AcDbEntity
  8
dimensions
 62
256
370
-1
  6
ByLayer
100
AcDbDimension
 10
40.7995890101487646
 20
-31.180702617235216
 30
0.0
 11
37.0
 21
-30.055702617235216
 31
0.0
 70
1
 71
5
 72
0
 41
1.0
 42
0.0
  1
%%c<>
  3
Standard
100
AcDbAlignedDimension
 13
33.2004109898512354
 23
-23.7999999999999972
 33
0.0
 14
40.7995890101487646
 24
-23.7999999999999972
 34
0.0
  0
LINE
  5
97
100
AcDbEntity
100
AcDbLine
  8
centreline
 62
256
370
-1
  6
ByLayer
 10
37.0
 20
-28.0
 30
0.0
 11
37.0
 21
5.0
 31
0.0
  0
MTEXT
  5
98
100
AcDbEntity
100
AcDbMText
  8
dimensions
 62
256
370
-1
  6
ByLayer
 10
33.0
 20
-33.0
 30
0.0
 40
1.0
 41
100.0
 71
1
 72
2
  1
SECTION B-B
  7
iso
 50
0.0
 73
0
 44
1.0
  0
LINE
  5
99
100
AcDbEntity
100
AcDbLine
  8
0
 62
256
370
-1
  6
ByLayer
 10
-13.8000000000000007
 20
0.0
 30
0.0
 11
-13.7989999999999995
 21
0.015
 31
0.0
  0
LINE
  5
9A
100
AcDbEntity
100
AcDbLine
  8
0
 62
256
370
-1
  6
ByLayer
 10
-13.7989999999999995
 20
0.015
 30
0.0
 11
-13.4169999999999998
 21
0.195
 31
0.0
  0
LINE
  5
9B
100
AcDbEntity
100
AcDbLine
  8
0
 62
256
370
-1
  6
ByLayer
 10
-13.4169999999999998
 20
0.195
 30
0.0
 11
-13.402000000000001
 21
0.37
 31
0.0
  0
LINE
  5
9C
100
AcDbEntity
100
AcDbLine
  8
0
 62
256
370
-1
  6
ByLayer
 10
-13.402000000000001
 20
0.37
 30
0.0
 11
-13.7469999999999999
 21
0.609
 31
0.0
  0
LINE
  5
9D
100
AcDbEntity
100
AcDbLine
  8
0
 62
256
370
-1
  6
ByLayer
 10
-13.7469999999999999
 20
0.609
 30
0.0
 11
-13.7420000000000009
 21
0.641
 31
0.0
  0
LINE
  5
9E
100
AcDbEntity
100
AcDbLine
  8
0
 62
256
370
-1
  6
ByLayer
 10
-13.7420000000000009
 20
0.641
 30
0.0
 11
-13.338000000000001
 21
0.755
 31
0.0
  0
LINE
  5
9F
100
AcDbEntity
100
AcDbLine
  8
0
 62
256
370
-1
  6
ByLayer
 10
-13.338000000000001
 20
0.755
 30
0.0
 11
-13.2949999999999999
 21
0.925
 31
0.0
  0
LINE
  5
A0
100
AcDbEntity
100
AcDbLine
  8
0
 62
256
370
-1
  6
ByLayer
 10
-13.2949999999999999
 20
0.925
 30
0.0
 11
-13.5960000000000001
 21
1.2170000000000001
 31
0.0
  0
LINE
  5
A1
100
AcDbEntity
100
AcDbLine
  8
0
 62
256
370
-1
  6
ByLayer
 10
-13.5960000000000001
 20
1.2170000000000001
 30
0.0
 11
-13.5850000000000009
 21
1.248
 31
0.0
  0
LINE
  5
A2
100
AcDbEntity
100
AcDbLine
  8
0
 62
256
370
-1
  6
ByLayer
 10
-13.5850000000000009
 20
1.248
 30
0.0
 11
-13.1679999999999993
 21
1.294
 31
0.0
  0
LINE
  5
A3
100
AcDbEntity
100
AcDbLine
  8
0
 62
256
370
-1
  6
ByLayer
 10
-13.1679999999999993
 20
1.294
 30
0.0
 11
-13.097999999999999
 21
1.454
 31
0.0
  0
LINE
  5
A4
100
AcDbEntity
100
AcDbLine
  8
0
 62
256
370
-1
  6
ByLayer
 10
-13.097999999999999
 20
1.454
 30
0.0
 11
-13.3490000000000002
 21
1.796
 31
0.0
  0
LINE
  5
A5
100
AcDbEntity
100
AcDbLine
  8
0
 62
256
370
-1
  6
ByLayer
 10
-13.3490000000000002
 20
1.796
 30
0.0
 11
-13.3330000000000002
 21
1.821
 31
0.0
  0
LINE
  5
A6
100
AcDbEntity
100
AcDbLine
  8
0
 62
256
370
-1
  6
ByLayer
 10
-13.3330000000000002
 20
1.821
 30
0.0
 11
-12.911999999999999
 21
1.798
 31
0.0
  0
LINE
  5
A7
100
AcDbEntity
100
AcDbLine
  8
0
 62
256
370
-1
  6
ByLayer
 10
-12.911999999999999
 20
1.798
 30
0.0
 11
-12.8159999999999989
 21
1.944
 31
0.0
  0
LINE
  5
A8
100
AcDbEntity
100
AcDbLine
  8
0
 62
256
370
-1
  6
ByLayer
 10
-12.8159999999999989
 20
1.944
 30
0.0
 11
-13.0060000000000002
 21
2.319
 31
0.0
  0
LINE
  5
A9
100
AcDbEntity
100
AcDbLine
  8
0
 62
256
370
-1
  6
ByLayer
 10
-13.0060000000000002
 20
2.319
 30
0.0
 11
-12.9860000000000007
 21
2.3450000000000002
 31
0.0
  0
LINE
  5
AA
100
AcDbEntity
100
AcDbLine
  8
0
 62
256
370
-1
  6
ByLayer
 10
-12.9860000000000007
 20
2.3450000000000002
 30
0.0
 11
-12.5760000000000005
 21
2.2530000000000001
 31
0.0
  0
LINE
  5
AB
100
AcDbEntity
100
AcDbLine
  8
0
 62
256
370
-1
  6
ByLayer
 10
-12.5760000000000005
 20
2.2530000000000001
 30
0.0
 11
-12.4580000000000002
 21
2.3809999999999998
 31
0.0
  0
LINE
  5
AC
100
AcDbEntity
100
AcDbLine
  8
0
 62
256
370
-1
  6
ByLayer
 10
-12.4580000000000002
 20
2.3809999999999998
 30
0.0
 11
-12.5830000000000002
 21
2.7810000000000001
 31
0.0
  0
LINE
  5
AD
100
AcDbEntity
100
AcDbLine
  8
0
 62
256
370
-1
  6
ByLayer
 10
-12.5830000000000002
 20
2.7810000000000001
 30
0.0
 11
-12.5579999999999998
 21
2.8039999999999998
 31
0.0
  0
LINE
  5
AE
100
AcDbEntity
100
AcDbLine
  8
0
 62
256
370
-1
  6
ByLayer
 10
-12.5579999999999998
 20
2.8039999999999998
 30
0.0
 11
-12.1699999999999999
 21
2.6459999999999999
 31
0.0
  0
LINE
  5
AF
100
AcDbEntity
100
AcDbLine
  8
0
 62
256
370
-1
  6
ByLayer
 10
-12.1699999999999999
 20
2.6459999999999999
 30
0.0
 11
-12.032
 21
2.7530000000000001
 31
0.0
  0
LINE
  5
B0
100
AcDbEntity
100
AcDbLine
  8
0
 62
256
370
-1
  6
ByLayer
 10
-12.032
 20
2.7530000000000001
 30
0.0
 11
-12.0899999999999999
 21
3.1720000000000002
 31
0.0
  0
LINE
  5
B1
100
AcDbEntity
100
AcDbLine
  8
0
 62
256
370
-1
  6
ByLayer
 10
-12.0899999999999999
 20
3.1720000000000002
 30
0.0
 11
-12.0640000000000001
 21
3.1880000000000002
 31
0.0
  0
LINE
  5
B2
100
AcDbEntity
100
AcDbLine
  8
0
 62
256
370
-1
  6
ByLayer
 10
-12.0640000000000001
 20
3.1880000000000002
 30
0.0
 11
-11.7050000000000001
 21
2.9670000000000001
 31
0.0
  0
LINE
  5
B3
100
AcDbEntity
100
AcDbLine
  8
0
 62
256
370
-1
  6
ByLayer
 10
-11.7050000000000001
 20
2.9670000000000001
 30
0.0
 11
-11.5510000000000002
 21
3.0499999999999998
 31
0.0
  0
LINE
  5
B4
100
AcDbEntity
100
AcDbLine
  8
0
 62
256
370
-1
  6
ByLayer
 10
-11.5510000000000002
 20
3.0499999999999998
 30
0.0
 11
-11.5399999999999991
 21
3.4700000000000002
 31
0.0
  0
LINE
  5
B5
100
AcDbEntity
100
AcDbLine
  8
0
 62
256
370
-1
  6
ByLayer
 10
-11.5399999999999991
 20
3.4700000000000002
 30
0.0
 11
-11.5109999999999992
 21
3.484
 31
0.0
  0
LINE
  5
B6
100
AcDbEntity
100
AcDbLine
  8
0
 62
256
370
-1
  6
ByLayer
 10
-11.5109999999999992
 20
3.484
 30
0.0
 11
-11.1939999999999991
 21
3.2069999999999999
 31
0.0
  0
LINE
  5
B7
100
AcDbEntity
100
AcDbLine
  8
0
 62
256
370
-1
  6
ByLayer
 10
-11.1939999999999991
 20
3.2069999999999999
 30
0.0
 11
-11.0280000000000005
 21
3.2639999999999998
 31
0.0
  0
LINE
  5
B8
100
AcDbEntity
100
AcDbLine
  8
0
 62
256
370
-1
  6
ByLayer
 10
-11.0280000000000005
 20
3.2639999999999998
 30
0.0
 11
-10.9480000000000004
 21
3.6749999999999998
 31
0.0
  0
LINE
  5
B9
100
AcDbEntity
100
AcDbLine
  8
0
 62
256
370
-1
  6
ByLayer
 10
-10.9480000000000004
 20
3.6749999999999998
 30
0.0
 11
-10.9160000000000004
 21
3.6829999999999998
 31
0.0
  0
LINE
  5
BA
100
AcDbEntity
100
AcDbLine
  8
0
 62
256
370
-1
  6
ByLayer
 10
-10.9160000000000004
 20
3.6829999999999998
 30
0.0
 11
-10.6490000000000009
 21
3.3599999999999999
 31
0.0
  0
LINE
  5
BB
100
AcDbEntity
100
AcDbLine
  8
0
 62
256
370
-1
  6
ByLayer
 10
-10.6490000000000009
 20
3.3599999999999999
 30
0.0
 11
-10.4770000000000003
 21
3.3889999999999998
 31
0.0
  0
LINE
  5
BC
100
AcDbEntity
100
AcDbLine
  8
0
 62
256
370
-1
  6
ByLayer
 10
-10.4770000000000003
 20
3.3889999999999998
 30
0.0
 11
-10.3290000000000006
 21
3.7839999999999998
 31
0.0
  0
LINE
  5
BD
100
AcDbEntity
100
AcDbLine
  8
0
 62
256
370
-1
  6
ByLayer
 10
-10.3290000000000006
 20
3.7839999999999998
 30
0.0
 11
-10.298
 21
3.7850000000000001
 31
0.0
  0
LINE
  5
BE
100
AcDbEntity
100
AcDbLine
  8
0
 62
256
370
-1
  6
ByLayer
 10
-10.298
 20
3.7850000000000001
 30
0.0
 11
-10.0869999999999997
 21
3.4209999999999998
 31
0.0
  0
LINE
  5
BF
100
AcDbEntity
100
AcDbLine
  8
0
 62
256
370
-1
  6
ByLayer
 10
-10.0869999999999997
 20
3.4209999999999998
 30
0.0
 11
-9.9130000000000003
 21
3.4209999999999998
 31
0.0
  0
LINE
  5
C0
100
AcDbEntity
100
AcDbLine
  8
0
 62
256
370
-1
  6
ByLayer
 10
-9.9130000000000003
 20
3.4209999999999998
 30
0.0
 11
-9.702
 21
3.7850000000000001
 31
0.0
  0
LINE
  5
C1
100
AcDbEntity
100
AcDbLine
  8
0
 62
256
370
-1
  6
ByLayer
 10
-9.702
 20
3.7850000000000001
 30
0.0
 11
-9.6709999999999994
 21
3.7839999999999998
 31
0.0
  0
LINE
  5
C2
100
AcDbEntity
100
AcDbLine
  8
0
 62
256
370
-1
  6
ByLayer
 10
-9.6709999999999994
 20
3.7839999999999998
 30
0.0
 11
-9.5229999999999997
 21
3.3889999999999998
 31
0.0
  0
LINE
  5
C3
100
AcDbEntity
100
AcDbLine
  8
0
 62
256
370
-1
  6
ByLayer
 10
-9.5229999999999997
 20
3.3889999999999998
 30
0.0
 11
-9.3509999999999991
 21
3.3599999999999999
 31
0.0
  0
LINE
  5
C4
100
AcDbEntity
100
AcDbLine
  8
0
 62
256
370
-1
  6
ByLayer
 10
-9.3509999999999991
 20
3.3599999999999999
 30
0.0
 11
-9.0839999999999996
 21
3.6829999999999998
 31
0.0
  0
LINE
  5
C5
100
AcDbEntity
100
AcDbLine
  8
0
 62
256
370
-1
  6
ByLayer
 10
-9.0839999999999996
 20
3.6829999999999998
 30
0.0
 11
-9.0519999999999996
 21
3.6749999999999998
 31
0.0
  0
LINE
  5
C6
100
AcDbEntity
100
AcDbLine
  8
0
 62
256
370
-1
  6
ByLayer
 10
-9.0519999999999996
 20
3.6749999999999998
 30
0.0
 11
-8.9719999999999995
 21
3.2639999999999998
 31
0.0
  0
LINE
  5
C7
100
AcDbEntity
100
AcDbLine
  8
0
 62
256
370
-1
  6
ByLayer
 10
-8.9719999999999995
 20
3.2639999999999998
 30
0.0
 11
-8.8060000000000009
 21
3.2069999999999999
 31
0.0
  0
LINE
  5
C8
100
AcDbEntity
100
AcDbLine
  8
0
 62
256
370
-1
  6
ByLayer
 10
-8.8060000000000009
 20
3.2069999999999999
 30
0.0
 11
-8.4890000000000008
 21
3.484
 31
0.0
  0
LINE
  5
C9
100
AcDbEntity
100
AcDbLine
  8
0
 62
256
370
-1
  6
ByLayer
 10
-8.4890000000000008
 20
3.484
 30
0.0
 11
-8.4600000000000009
 21
3.4700000000000002
 31
0.0
  0
LINE
  5
CA
100
AcDbEntity
100
AcDbLine
  8
0
 62
256
370
-1
  6
ByLayer
 10
-8.4600000000000009
 20
3.4700000000000002
 30
0.0
 11
-8.4489999999999998
 21
3.0499999999999998
 31
0.0
  0
LINE
  5
CB
100
AcDbEntity
100
AcDbLine
  8
0
 62
256
370
-1
  6
ByLayer
 10
-8.4489999999999998
 20
3.0499999999999998
 30
0.0
 11
-8.2949999999999999
 21
2.9670000000000001
 31
0.0
  0
LINE
  5
CC
100
AcDbEntity
100
AcDbLine
  8
0
 62
256
370
-1
  6
ByLayer
 10
-8.2949999999999999
 20
2.9670000000000001
 30
0.0
 11
-7.9359999999999999
 21
3.1880000000000002
 31
0.0
  0
LINE
  5
CD
100
AcDbEntity
100
AcDbLine
  8
0
 62
256
370
-1
  6
ByLayer
 10
-7.9359999999999999
 20
3.1880000000000002
 30
0.0
 11
-7.9100000000000001
 21
3.1720000000000002
 31
0.0
  0
LINE
  5
CE
100
AcDbEntity
100
AcDbLine
  8
0
 62
256
370
-1
  6
ByLayer
 10
-7.9100000000000001
 20
3.1720000000000002
 30
0.0
 11
-7.968
 21
2.7530000000000001
 31
0.0
  0
LINE
  5
CF
100
AcDbEntity
100
AcDbLine
  8
0
 62
256
370
-1
  6
ByLayer
 10
-7.968
 20
2.7530000000000001
 30
0.0
 11
-7.8300000000000001
 21
2.6459999999999999
 31
0.0
  0
LINE
  5
D0
100
AcDbEntity
100
AcDbLine
  8
0
 62
256
370
-1
  6
ByLayer
 10
-7.8300000000000001
 20
2.6459999999999999
 30
0.0
 11
-7.4420000000000002
 21
2.8039999999999998
 31
0.0
  0
LINE
  5
D1
100
AcDbEntity
100
AcDbLine
  8
0
 62
256
370
-1
  6
ByLayer
 10
-7.4420000000000002
 20
2.8039999999999998
 30
0.0
 11
-7.4169999999999998
 21
2.7810000000000001
 31
0.0
  0
LINE
  5
D2
100
AcDbEntity
100
AcDbLine
  8
0
 62
256
370
-1
  6
ByLayer
 10
-7.4169999999999998
 20
2.7810000000000001
 30
0.0
 11
-7.5419999999999998
 21
2.3809999999999998
 31
0.0
  0
LINE
  5
D3
100
AcDbEntity
100
AcDbLine
  8
0
 62
256
370
-1
  6
ByLayer
 10
-7.5419999999999998
 20
2.3809999999999998
 30
0.0
 11
-7.4239999999999995
 21
2.2530000000000001
 31
0.0
  0
LINE
  5
D4
100
AcDbEntity
100
AcDbLine
  8
0
 62
256
370
-1
  6
ByLayer
 10
-7.4239999999999995
 20
2.2530000000000001
 30
0.0
 11
-7.0139999999999993
 21
2.3450000000000002
 31
0.0
  0
LINE
  5
D5
100
AcDbEntity
100
AcDbLine
  8
0
 62
256
370
-1
  6
ByLayer
 10
-7.0139999999999993
 20
2.3450000000000002
 30
0.0
 11
-6.9939999999999998
 21
2.319
 31
0.0
  0
LINE
  5
D6
100
AcDbEntity
100
AcDbLine
  8
0
 62
256
370
-1
  6
ByLayer
 10
-6.9939999999999998
 20
2.319
 30
0.0
 11
-7.1840000000000002
 21
1.944
 31
0.0
  0
LINE
  5
D7
100
AcDbEntity
100
AcDbLine
  8
0
 62
256
370
-1
  6
ByLayer
 10
-7.1840000000000002
 20
1.944
 30
0.0
 11
-7.0880000000000001
 21
1.798
 31
0.0
  0
LINE
  5
D8
100
AcDbEntity
100
AcDbLine
  8
0
 62
256
370
-1
  6
ByLayer
 10
-7.0880000000000001
 20
1.798
 30
0.0
 11
-6.6669999999999998
 21
1.821
 31
0.0
  0
LINE
  5
D9
100
AcDbEntity
100
AcDbLine
  8
0
 62
256
370
-1
  6
ByLayer
 10
-6.6669999999999998
 20
1.821
 30
0.0
 11
-6.6509999999999998
 21
1.796
 31
0.0
  0
LINE
  5
DA
100
AcDbEntity
100
AcDbLine
  8
0
 62
256
370
-1
  6
ByLayer
 10
-6.6509999999999998
 20
1.796
 30
0.0
 11
-6.9020000000000001
 21
1.454
 31
0.0
  0
LINE
  5
DB
100
AcDbEntity
100
AcDbLine
  8
0
 62
256
370
-1
  6
ByLayer
 10
-6.9020000000000001
 20
1.454
 30
0.0
 11
-6.8319999999999999
 21
1.294
 31
0.0
  0
LINE
  5
DC
100
AcDbEntity
100
AcDbLine
  8
0
 62
256
370
-1
  6
ByLayer
 10
-6.8319999999999999
 20
1.294
 30
0.0
 11
-6.415
 21
1.248
 31
0.0
  0
LINE
  5
DD
100
AcDbEntity
100
AcDbLine
  8
0
 62
256
370
-1
  6
ByLayer
 10
-6.415
 20
1.248
 30
0.0
 11
-6.4039999999999999
 21
1.2170000000000001
 31
0.0
  0
LINE
  5
DE
100
AcDbEntity
100
AcDbLine
  8
0
 62
256
370
-1
  6
ByLayer
 10
-6.4039999999999999
 20
1.2170000000000001
 30
0.0
 11
-6.7050000000000001
 21
0.925
 31
0.0
  0
LINE
  5
DF
100
AcDbEntity
100
AcDbLine
  8
0
 62
256
370
-1
  6
ByLayer
 10
-6.7050000000000001
 20
0.925
 30
0.0
 11
-6.6619999999999999
 21
0.755
 31
0.0
  0
LINE
  5
E0
100
AcDbEntity
100
AcDbLine
  8
0
 62
256
370
-1
  6
ByLayer
 10
-6.6619999999999999
 20
0.755
 30
0.0
 11
-6.258
 21
0.641
 31
0.0
  0
LINE
  5
E1
100
AcDbEntity
100
AcDbLine
  8
0
 62
256
370
-1
  6
ByLayer
 10
-6.258
 20
0.641
 30
0.0
 11
-6.2530000000000001
 21
0.609
 31
0.0
  0
LINE
  5
E2
100
AcDbEntity
100
AcDbLine
  8
0
 62
256
370
-1
  6
ByLayer
 10
-6.2530000000000001
 20
0.609
 30
0.0
 11
-6.5979999999999999
 21
0.37
 31
0.0
  0
LINE
  5
E3
100
AcDbEntity
100
AcDbLine
  8
0
 62
256
370
-1
  6
ByLayer
 10
-6.5979999999999999
 20
0.37
 30
0.0
 11
-6.5830000000000002
 21
0.195
 31
0.0
  0
LINE
  5
E4
100
AcDbEntity
100
AcDbLine
  8
0
 62
256
370
-1
  6
ByLayer
 10
-6.5830000000000002
 20
0.195
 30
0.0
 11
-6.2010000000000005
 21
0.015
 31
0.0
  0
LINE
  5
E5
100
AcDbEntity
100
AcDbLine
  8
0
 62
256
370
-1
  6
ByLayer
 10
-6.2010000000000005
 20
0.015
 30
0.0
 11
-6.2000000000000002
 21
0.0
 31
0.0
  0
LINE
  5
E6
100
AcDbEntity
100
AcDbLine
  8
0
 62
256
370
-1
  6
ByLayer
 10
-6.2000000000000002
 20
0.0
 30
0.0
 11
-6.2010000000000005
 21
-0.015
 31
0.0
  0
LINE
  5
E7
100
AcDbEntity
100
AcDbLine
  8
0
 62
256
370
-1
  6
ByLayer
 10
-6.2010000000000005
 20
-0.015
 30
0.0
 11
-6.5830000000000002
 21
-0.195
 31
0.0
  0
LINE
  5
E8
100
AcDbEntity
100
AcDbLine
  8
0
 62
256
370
-1
  6
ByLayer
 10
-6.5830000000000002
 20
-0.195
 30
0.0
 11
-6.5979999999999999
 21
-0.37
 31
0.0
  0
LINE
  5
E9
100
AcDbEntity
100
AcDbLine
  8
0
 62
256
370
-1
  6
ByLayer
 10
-6.5979999999999999
 20
-0.37
 30
0.0
 11
-6.2530000000000001
 21
-0.609
 31
0.0
  0
LINE
  5
EA
100
AcDbEntity
100
AcDbLine
  8
0
 62
256
370
-1
  6
ByLayer
 10
-6.2530000000000001
 20
-0.609
 30
0.0
 11
-6.258
 21
-0.641
 31
0.0
  0
LINE
  5
EB
100
AcDbEntity
100
AcDbLine
  8
0
 62
256
370
-1
  6
ByLayer
 10
-6.258
 20
-0.641
 30
0.0
 11
-6.6619999999999999
 21
-0.755
 31
0.0
  0
LINE
  5
EC
100
AcDbEntity
100
AcDbLine
  8
0
 62
256
370
-1
  6
ByLayer
 10
-6.6619999999999999
 20
-0.755
 30
0.0
 11
-6.7050000000000001
 21
-0.925
 31
0.0
  0
LINE
  5
ED
100
AcDbEntity
100
AcDbLine
  8
0
 62
256
370
-1
  6
ByLayer
 10
-6.7050000000000001
 20
-0.925
 30
0.0
 11
-6.4039999999999999
 21
-1.2170000000000001
 31
0.0
  0
LINE
  5
EE
100
AcDbEntity
100
AcDbLine
  8
0
 62
256
370
-1
  6
ByLayer
 10
-6.4039999999999999
 20
-1.2170000000000001
 30
0.0
 11
-6.415
 21
-1.248
 31
0.0
  0
LINE
  5
EF
100
AcDbEntity
100
AcDbLine
  8
0
 62
256
370
-1
  6
ByLayer
 10
-6.415
 20
-1.248
 30
0.0
 11
-6.8319999999999999
 21
-1.294
 31
0.0
  0
LINE
  5
F0
100
AcDbEntity
100
AcDbLine
  8
0
 62
256
370
-1
  6
ByLayer
 10
-6.8319999999999999
 20
-1.294
 30
0.0
 11
-6.9020000000000001
 21
-1.454
 31
0.0
  0
LINE
  5
F1
100
AcDbEntity
100
AcDbLine
  8
0
 62
256
370
-1
  6
ByLayer
 10
-6.9020000000000001
 20
-1.454
 30
0.0
 11
-6.6509999999999998
 21
-1.796
 31
0.0
  0
LINE
  5
F2
100
AcDbEntity
100
AcDbLine
  8
0
 62
256
370
-1
  6
ByLayer
 10
-6.6509999999999998
 20
-1.796
 30
0.0
 11
-6.6669999999999998
 21
-1.821
 31
0.0
  0
LINE
  5
F3
100
AcDbEntity
100
AcDbLine
  8
0
 62
256
370
-1
  6
ByLayer
 10
-6.6669999999999998
 20
-1.821
 30
0.0
 11
-7.0880000000000001
 21
-1.798
 31
0.0
  0
LINE
  5
F4
100
AcDbEntity
100
AcDbLine
  8
0
 62
256
370
-1
  6
ByLayer
 10
-7.0880000000000001
 20
-1.798
 30
0.0
 11
-7.1840000000000002
 21
-1.944
 31
0.0
  0
LINE
  5
F5
100
AcDbEntity
100
AcDbLine
  8
0
 62
256
370
-1
  6
ByLayer
 10
-7.1840000000000002
 20
-1.944
 30
0.0
 11
-6.9939999999999998
 21
-2.319
 31
0.0
  0
LINE
  5
F6
100
AcDbEntity
100
AcDbLine
  8
0
 62
256
370
-1
  6
ByLayer
 10
-6.9939999999999998
 20
-2.319
 30
0.0
 11
-7.0139999999999993
 21
-2.3450000000000002
 31
0.0
  0
LINE
  5
F7
100
AcDbEntity
100
AcDbLine
  8
0
 62
256
370
-1
  6
ByLayer
 10
-7.0139999999999993
 20
-2.3450000000000002
 30
0.0
 11
-7.4239999999999995
 21
-2.2530000000000001
 31
0.0
  0
LINE
  5
F8
100
AcDbEntity
100
AcDbLine
  8
0
 62
256
370
-1
  6
ByLayer
 10
-7.4239999999999995
 20
-2.2530000000000001
 30
0.0
 11
-7.5419999999999998
 21
-2.3809999999999998
 31
0.0
  0
LINE
  5
F9
100
AcDbEntity
100
AcDbLine
  8
0
 62
256
370
-1
  6
ByLayer
 10
-7.5419999999999998
 20
-2.3809999999999998
 30
0.0
 11
-7.4169999999999998
 21
-2.7810000000000001
 31
0.0
  0
LINE
  5
FA
100
AcDbEntity
100
AcDbLine
  8
0
 62
256
370
-1
  6
ByLayer
 10
-7.4169999999999998
 20
-2.7810000000000001
 30
0.0
 11
-7.4420000000000002
 21
-2.8039999999999998
 31
0.0
  0
LINE
  5
FB
100
AcDbEntity
100
AcDbLine
  8
0
 62
256
370
-1
  6
ByLayer
 10
-7.4420000000000002
 20
-2.8039999999999998
 30
0.0
 11
-7.8300000000000001
 21
-2.6459999999999999
 31
0.0
  0
LINE
  5
FC
100
AcDbEntity
100
AcDbLine
  8
0
 62
256
370
-1
  6
ByLayer
 10
-7.8300000000000001
 20
-2.6459999999999999
 30
0.0
 11
-7.968
 21
-2.7530000000000001
 31
0.0
  0
LINE
  5
FD
100
AcDbEntity
100
AcDbLine
  8
0
 62
256
370
-1
  6
ByLayer
 10
-7.968
 20
-2.7530000000000001
 30
0.0
 11
-7.9100000000000001
 21
-3.1720000000000002
 31
0.0
  0
LINE
  5
FE
100
AcDbEntity
100
AcDbLine
  8
0
 62
256
370
-1
  6
ByLayer
 10
-7.9100000000000001
 20
-3.1720000000000002
 30
0.0
 11
-7.9359999999999999
 21
-3.1880000000000002
 31
0.0
  0
LINE
  5
FF
100
AcDbEntity
100
AcDbLine
  8
0
 62
256
370
-1
  6
ByLayer
 10
-7.9359999999999999
 20
-3.1880000000000002
 30
0.0
 11
-8.2949999999999999
 21
-2.9670000000000001
 31
0.0
  0
LINE
  5
100
100
AcDbEntity
100
AcDbLine
  8
0
 62
256
370
-1
  6
ByLayer
 10
-8.2949999999999999
 20
-2.9670000000000001
 30
0.0
 11
-8.4489999999999998
 21
-3.0499999999999998
 31
0.0
  0
LINE
  5
101
100
AcDbEntity
100
AcDbLine
  8
0
 62
256
370
-1
  6
ByLayer
 10
-8.4489999999999998
 20
-3.0499999999999998
 30
0.0
 11
-8.4600000000000009
 21
-3.4700000000000002
 31
0.0
  0
LINE
  5
102
100
AcDbEntity
100
AcDbLine
  8
0
 62
256
370
-1
  6
ByLayer
 10
-8.4600000000000009
 20
-3.4700000000000002
 30
0.0
 11
-8.4890000000000008
 21
-3.484
 31
0.0
  0
LINE
  5
103
100
AcDbEntity
100
AcDbLine
  8
0
 62
256
370
-1
  6
ByLayer
 10
-8.4890000000000008
 20
-3.484
 30
0.0
 11
-8.8060000000000009
 21
-3.2069999999999999
 31
0.0
  0
LINE
  5
104
100
AcDbEntity
100
AcDbLine
  8
0
 62
256
370
-1
  6
ByLayer
 10
-8.8060000000000009
 20
-3.2069999999999999
 30
0.0
 11
-8.9719999999999995
 21
-3.2639999999999998
 31
0.0
  0
LINE
  5
105
100
AcDbEntity
100
AcDbLine
  8
0
 62
256
370
-1
  6
ByLayer
 10
-8.9719999999999995
 20
-3.2639999999999998
 30
0.0
 11
-9.0519999999999996
 21
-3.6749999999999998
 31
0.0
  0
LINE
  5
106
100
AcDbEntity
100
AcDbLine
  8
0
 62
256
370
-1
  6
ByLayer
 10
-9.0519999999999996
 20
-3.6749999999999998
 30
0.0
 11
-9.0839999999999996
 21
-3.6829999999999998
 31
0.0
  0
LINE
  5
107
100
AcDbEntity
100
AcDbLine
  8
0
 62
256
370
-1
  6
ByLayer
 10
-9.0839999999999996
 20
-3.6829999999999998
 30
0.0
 11
-9.3509999999999991
 21
-3.3599999999999999
 31
0.0
  0
LINE
  5
108
100
AcDbEntity
100
AcDbLine
  8
0
 62
256
370
-1
  6
ByLayer
 10
-9.3509999999999991
 20
-3.3599999999999999
 30
0.0
 11
-9.5229999999999997
 21
-3.3889999999999998
 31
0.0
  0
LINE
  5
109
100
AcDbEntity
100
AcDbLine
  8
0
 62
256
370
-1
  6
ByLayer
 10
-9.5229999999999997
 20
-3.3889999999999998
 30
0.0
 11
-9.6709999999999994
 21
-3.7839999999999998
 31
0.0
  0
LINE
  5
10A
100
AcDbEntity
100
AcDbLine
  8
0
 62
256
370
-1
  6
ByLayer
 10
-9.6709999999999994
 20
-3.7839999999999998
 30
0.0
 11
-9.702
 21
-3.7850000000000001
 31
0.0
  0
LINE
  5
10B
100
AcDbEntity
100
AcDbLine
  8
0
 62
256
370
-1
  6
ByLayer
 10
-9.702
 20
-3.7850000000000001
 30
0.0
 11
-9.9130000000000003
 21
-3.4209999999999998
 31
0.0
  0
LINE
  5
10C
100
AcDbEntity
100
AcDbLine
  8
0
 62
256
370
-1
  6
ByLayer
 10
-9.9130000000000003
 20
-3.4209999999999998
 30
0.0
 11
-10.0869999999999997
 21
-3.4209999999999998
 31
0.0
  0
LINE
  5
10D
100
AcDbEntity
100
AcDbLine
  8
0
 62
256
370
-1
  6
ByLayer
 10
-10.0869999999999997
 20
-3.4209999999999998
 30
0.0
 11
-10.298
 21
-3.7850000000000001
 31
0.0
  0
LINE
  5
10E
100
AcDbEntity
100
AcDbLine
  8
0
 62
256
370
-1
  6
ByLayer
 10
-10.298
 20
-3.7850000000000001
 30
0.0
 11
-10.3290000000000006
 21
-3.7839999999999998
 31
0.0
  0
LINE
  5
10F
100
AcDbEntity
100
AcDbLine
  8
0
 62
256
370
-1
  6
ByLayer
 10
-10.3290000000000006
 20
-3.7839999999999998
 30
0.0
 11
-10.4770000000000003
 21
-3.3889999999999998
 31
0.0
  0
LINE
  5
110
100
AcDbEntity
100
AcDbLine
  8
0
 62
256
370
-1
  6
ByLayer
 10
-10.4770000000000003
 20
-3.3889999999999998
 30
0.0
 11
-10.6490000000000009
 21
-3.3599999999999999
 31
0.0
  0
LINE
  5
111
100
AcDbEntity
100
AcDbLine
  8
0
 62
256
370
-1
  6
ByLayer
 10
-10.6490000000000009
 20
-3.3599999999999999
 30
0.0
 11
-10.9160000000000004
 21
-3.6829999999999998
 31
0.0
  0
LINE
  5
112
100
AcDbEntity
100
AcDbLine
  8
0
 62
256
370
-1
  6
ByLayer
 10
-10.9160000000000004
 20
-3.6829999999999998
 30
0.0
 11
-10.9480000000000004
 21
-3.6749999999999998
 31
0.0
  0
LINE
  5
113
100
AcDbEntity
100
AcDbLine
  8
0
 62
256
370
-1
  6
ByLayer
 10
-10.9480000000000004
 20
-3.6749999999999998
 30
0.0
 11
-11.0280000000000005
 21
-3.2639999999999998
 31
0.0
  0
LINE
  5
114
100
AcDbEntity
100
AcDbLine
  8
0
 62
256
370
-1
  6
ByLayer
 10
-11.0280000000000005
 20
-3.2639999999999998
 30
0.0
 11
-11.1939999999999991
 21
-3.2069999999999999
 31
0.0
  0
LINE
  5
115
100
AcDbEntity
100
AcDbLine
  8
0
 62
256
370
-1
  6
ByLayer
 10
-11.1939999999999991
 20
-3.2069999999999999
 30
0.0
 11
-11.5109999999999992
 21
-3.484
 31
0.0
  0
LINE
  5
116
100
AcDbEntity
100
AcDbLine
  8
0
 62
256
370
-1
  6
ByLayer
 10
-11.5109999999999992
 20
-3.484
 30
0.0
 11
-11.5399999999999991
 21
-3.4700000000000002
 31
0.0
  0
LINE
  5
117
100
AcDbEntity
100
AcDbLine
  8
0
 62
256
370
-1
  6
ByLayer
 10
-11.5399999999999991
 20
-3.4700000000000002
 30
0.0
 11
-11.5510000000000002
 21
-3.0499999999999998
 31
0.0
  0
LINE
  5
118
100
AcDbEntity
100
AcDbLine
  8
0
 62
256
370
-1
  6
ByLayer
 10
-11.5510000000000002
 20
-3.0499999999999998
 30
0.0
 11
-11.7050000000000001
 21
-2.9670000000000001
 31
0.0
  0
LINE
  5
119
100
AcDbEntity
100
AcDbLine
  8
0
 62
256
370
-1
  6
ByLayer
 10
-11.7050000000000001
 20
-2.9670000000000001
 30
0.0
 11
-12.0640000000000001
 21
-3.1880000000000002
 31
0.0
  0
LINE
  5
11A
100
AcDbEntity
100
AcDbLine
  8
0
 62
256
370
-1
  6
ByLayer
 10
-12.0640000000000001
 20
-3.1880000000000002
 30
0.0
 11
-12.0899999999999999
 21
-3.1720000000000002
 31
0.0
  0
LINE
  5
11B
100
AcDbEntity
100
AcDbLine
  8
0
 62
256
370
-1
  6
ByLayer
 10
-12.0899999999999999
 20
-3.1720000000000002
 30
0.0
 11
-12.032
 21
-2.7530000000000001
 31
0.0
  0
LINE
  5
11C
100
AcDbEntity
100
AcDbLine
  8
0
 62
256
370
-1
  6
ByLayer
 10
-12.032
 20
-2.7530000000000001
 30
0.0
 11
-12.1699999999999999
 21
-2.6459999999999999
 31
0.0
  0
LINE
  5
11D
100
AcDbEntity
100
AcDbLine
  8
0
 62
256
370
-1
  6
ByLayer
 10
-12.1699999999999999
 20
-2.6459999999999999
 30
0.0
 11
-12.5579999999999998
 21
-2.8039999999999998
 31
0.0
  0
LINE
  5
11E
100
AcDbEntity
100
AcDbLine
  8
0
 62
256
370
-1
  6
ByLayer
 10
-12.5579999999999998
 20
-2.8039999999999998
 30
0.0
 11
-12.5830000000000002
 21
-2.7810000000000001
 31
0.0
  0
LINE
  5
11F
100
AcDbEntity
100
AcDbLine
  8
0
 62
256
370
-1
  6
ByLayer
 10
-12.5830000000000002
 20
-2.7810000000000001
 30
0.0
 11
-12.4580000000000002
 21
-2.3809999999999998
 31
0.0
  0
LINE
  5
120
100
AcDbEntity
100
AcDbLine
  8
0
 62
256
370
-1
  6
ByLayer
 10
-12.4580000000000002
 20
-2.3809999999999998
 30
0.0
 11
-12.5760000000000005
 21
-2.2530000000000001
 31
0.0
  0
LINE
  5
121
100
AcDbEntity
100
AcDbLine
  8
0
 62
256
370
-1
  6
ByLayer
 10
-12.5760000000000005
 20
-2.2530000000000001
 30
0.0
 11
-12.9860000000000007
 21
-2.3450000000000002
 31
0.0
  0
LINE
  5
122
100
AcDbEntity
100
AcDbLine
  8
0
 62
256
370
-1
  6
ByLayer
 10
-12.9860000000000007
 20
-2.3450000000000002
 30
0.0
 11
-13.0060000000000002
 21
-2.319
 31
0.0
  0
LINE
  5
123
100
AcDbEntity
100
AcDbLine
  8
0
 62
256
370
-1
  6
ByLayer
 10
-13.0060000000000002
 20
-2.319
 30
0.0
 11
-12.8159999999999989
 21
-1.944
 31
0.0
  0
LINE
  5
124
100
AcDbEntity
100
AcDbLine
  8
0
 62
256
370
-1
  6
ByLayer
 10
-12.8159999999999989
 20
-1.944
 30
0.0
 11
-12.911999999999999
 21
-1.798
 31
0.0
  0
LINE
  5
125
100
AcDbEntity
100
AcDbLine
  8
0
 62
256
370
-1
  6
ByLayer
 10
-12.911999999999999
 20
-1.798
 30
0.0
 11
-13.3330000000000002
 21
-1.821
 31
0.0
  0
LINE
  5
126
100
AcDbEntity
100
AcDbLine
  8
0
 62
256
370
-1
  6
ByLayer
 10
-13.3330000000000002
 20
-1.821
 30
0.0
 11
-13.3490000000000002
 21
-1.796
 31
0.0
  0
LINE
  5
127
100
AcDbEntity
100
AcDbLine
  8
0
 62
256
370
-1
  6
ByLayer
 10
-13.3490000000000002
 20
-1.796
 30
0.0
 11
-13.097999999999999
 21
-1.454
 31
0.0
  0
LINE
  5
128
100
AcDbEntity
100
AcDbLine
  8
0
 62
256
370
-1
  6
ByLayer
 10
-13.097999999999999
 20
-1.454
 30
0.0
 11
-13.1679999999999993
 21
-1.294
 31
0.0
  0
LINE
  5
129
100
AcDbEntity
100
AcDbLine
  8
0
 62
256
370
-1
  6
ByLayer
 10
-13.1679999999999993
 20
-1.294
 30
0.0
 11
-13.5850000000000009
 21
-1.248
 31
0.0
  0
LINE
  5
12A
100
AcDbEntity
100
AcDbLine
  8
0
 62
256
370
-1
  6
ByLayer
 10
-13.5850000000000009
 20
-1.248
 30
0.0
 11
-13.5960000000000001
 21
-1.2170000000000001
 31
0.0
  0
LINE
  5
12B
100
AcDbEntity
100
AcDbLine
  8
0
 62
256
370
-1
  6
ByLayer
 10
-13.5960000000000001
 20
-1.2170000000000001
 30
0.0
 11
-13.2949999999999999
 21
-0.925
 31
0.0
  0
LINE
  5
12C
100
AcDbEntity
100
AcDbLine
  8
0
 62
256
370
-1
  6
ByLayer
 10
-13.2949999999999999
 20
-0.925
 30
0.0
 11
-13.338000000000001
 21
-0.755
 31
0.0
  0
LINE
  5
12D
100
AcDbEntity
100
AcDbLine
  8
0
 62
256
370
-1
  6
ByLayer
 10
-13.338000000000001
 20
-0.755
 30
0.0
 11
-13.7420000000000009
 21
-0.641
 31
0.0
  0
LINE
  5
12E
100
AcDbEntity
100
AcDbLine
  8
0
 62
256
370
-1
  6
ByLayer
 10
-13.7420000000000009
 20
-0.641
 30
0.0
 11
-13.7469999999999999
 21
-0.609
 31
0.0
  0
LINE
  5
12F
100
AcDbEntity
100
AcDbLine
  8
0
 62
256
370
-1
  6
ByLayer
 10
-13.7469999999999999
 20
-0.609
 30
0.0
 11
-13.402000000000001
 21
-0.37
 31
0.0
  0
LINE
  5
130
100
AcDbEntity
100
AcDbLine
  8
0
 62
256
370
-1
  6
ByLayer
 10
-13.402000000000001
 20
-0.37
 30
0.0
 11
-13.4169999999999998
 21
-0.195
 31
0.0
  0
LINE
  5
131
100
AcDbEntity
100
AcDbLine
  8
0
 62
256
370
-1
  6
ByLayer
 10
-13.4169999999999998
 20
-0.195
 30
0.0
 11
-13.7989999999999995
 21
-0.015
 31
0.0
  0
LINE
  5
132
100
AcDbEntity
100
AcDbLine
  8
0
 62
256
370
-1
  6
ByLayer
 10
-13.7989999999999995
 20
-0.015
 30
0.0
 11
-13.8000000000000007
 21
0.0
 31
0.0
  0
LINE
  5
133
100
AcDbEntity
100
AcDbLine
  8
0
 62
256
370
-1
  6
ByLayer
 10
-9.702
 20
3.7850000000000001
 30
0.0
 11
-9.6860442111405103
 21
3.9876599356817795
 31
0.0
  0
LINE
  5
134
100
AcDbEntity
100
AcDbLine
  8
0
 62
256
370
-1
  6
ByLayer
 10
-9.6535269783121951
 20
3.984966304153966
 30
0.0
 11
-9.6709999999999994
 21
3.7839999999999998
 31
0.0
  0
LINE
  5
135
100
AcDbEntity
100
AcDbLine
  8
0
 62
256
370
-1
  6
ByLayer
 10
-12.9860000000000007
 20
2.3449999999999998
 30
0.0
 11
-13.1458581956361602
 21
2.4705416841148016
 31
0.0
  0
LINE
  5
136
100
AcDbEntity
100
AcDbLine
  8
0
 62
256
370
-1
  6
ByLayer
 10
-13.1670853469151456
 20
2.4432704323008063
 30
0.0
 11
-13.0060000000000002
 21
2.319
 31
0.0
  0
LINE
  5
137
100
AcDbEntity
100
AcDbLine
  8
0
 62
256
370
-1
  6
ByLayer
 10
-12.5830000000000002
 20
2.7810000000000001
 30
0.0
 11
-12.7221681811397875
 21
2.9308361253386557
 31
0.0
  0
LINE
  5
138
100
AcDbEntity
100
AcDbLine
  8
0
 62
256
370
-1
  6
ByLayer
 10
-12.6958277681947145
 20
2.9550825105621508
 30
0.0
 11
-12.5579999999999998
 21
2.8039999999999998
 31
0.0
  0
LINE
  5
139
100
AcDbEntity
100
AcDbLine
  8
0
 62
256
370
-1
  6
ByLayer
 10
-12.2007862661844708
 20
3.340140687242652
 30
0.0
 11
-12.0899999999999999
 21
3.1720000000000002
 31
0.0
  0
LINE
  5
13A
100
AcDbEntity
100
AcDbLine
  8
0
 62
256
370
-1
  6
ByLayer
 10
-12.0640000000000001
 20
3.1880000000000002
 30
0.0
 11
-12.1738784540958349
 21
3.3577153641751565
 31
0.0
  0
LINE
  5
13B
100
AcDbEntity
100
AcDbLine
  8
0
 62
256
370
-1
  6
ByLayer
 10
-11.5399999999999991
 20
3.4700000000000002
 30
0.0
 11
-11.6225984321943567
 21
3.6561146491652057
 31
0.0
  0
LINE
  5
13C
100
AcDbEntity
100
AcDbLine
  8
0
 62
256
370
-1
  6
ByLayer
 10
-11.5109999999999992
 20
3.484
 30
0.0
 11
-11.5915529450497985
 21
3.6697355794530089
 31
0.0
  0
LINE
  5
13D
100
AcDbEntity
100
AcDbLine
  8
0
 62
256
370
-1
  6
ByLayer
 10
-10.9480000000000004
 20
3.6749999999999994
 30
0.0
 11
-10.9991295702350769
 21
3.8732079858796471
 31
0.0
  0
LINE
  5
13E
100
AcDbEntity
100
AcDbLine
  8
0
 62
256
370
-1
  6
ByLayer
 10
-10.9160000000000004
 20
3.6829999999999994
 30
0.0
 11
-10.9654299511766986
 21
3.8817450984539104
 31
0.0
  0
LINE
  5
13F
100
AcDbEntity
100
AcDbLine
  8
0
 62
256
370
-1
  6
ByLayer
 10
-10.3290000000000006
 20
3.7839999999999998
 30
0.0
 11
-10.3464730216878049
 21
3.9849663041539665
 31
0.0
  0
LINE
  5
140
100
AcDbEntity
100
AcDbLine
  8
0
 62
256
370
-1
  6
ByLayer
 10
-10.298
 20
3.7850000000000001
 30
0.0
 11
-10.3139557888594897
 21
3.9876599356817795
 31
0.0
  0
LINE
  5
141
100
AcDbEntity
100
AcDbLine
  8
0
 62
256
370
-1
  6
ByLayer
 10
-9.0839999999999996
 20
3.6830000000000003
 30
0.0
 11
-9.0345700488233014
 21
3.8817450984539104
 31
0.0
  0
LINE
  5
142
100
AcDbEntity
100
AcDbLine
  8
0
 62
256
370
-1
  6
ByLayer
 10
-9.0519999999999996
 20
3.6749999999999998
 30
0.0
 11
-9.0008704297649231
 21
3.8732079858796471
 31
0.0
  0
LINE
  5
143
100
AcDbEntity
100
AcDbLine
  8
0
 62
256
370
-1
  6
ByLayer
 10
-8.4890000000000008
 20
3.484
 30
0.0
 11
-8.4084470549502015
 21
3.6697355794530089
 31
0.0
  0
LINE
  5
144
100
AcDbEntity
100
AcDbLine
  8
0
 62
256
370
-1
  6
ByLayer
 10
-8.4600000000000009
 20
3.4700000000000002
 30
0.0
 11
-8.3774015678056433
 21
3.6561146491652057
 31
0.0
  0
LINE
  5
145
100
AcDbEntity
100
AcDbLine
  8
0
 62
256
370
-1
  6
ByLayer
 10
-7.9359999999999999
 20
3.1880000000000002
 30
0.0
 11
-7.8261215459041651
 21
3.3577153641751565
 31
0.0
  0
LINE
  5
146
100
AcDbEntity
100
AcDbLine
  8
0
 62
256
370
-1
  6
ByLayer
 10
-7.9100000000000001
 20
3.1720000000000006
 30
0.0
 11
-7.7992137338155292
 21
3.340140687242652
 31
0.0
  0
LINE
  5
147
100
AcDbEntity
100
AcDbLine
  8
0
 62
256
370
-1
  6
ByLayer
 10
-7.4420000000000002
 20
2.8040000000000003
 30
0.0
 11
-7.3041722318052855
 21
2.9550825105621508
 31
0.0
  0
LINE
  5
148
100
AcDbEntity
100
AcDbLine
  8
0
 62
256
370
-1
  6
ByLayer
 10
-7.2778318188602125
 20
2.9308361253386557
 30
0.0
 11
-7.4169999999999998
 21
2.7810000000000001
 31
0.0
  0
LINE
  5
149
100
AcDbEntity
100
AcDbLine
  8
0
 62
256
370
-1
  6
ByLayer
 10
-6.8541418043638398
 20
2.4705416841148016
 30
0.0
 11
-7.0139999999999993
 21
2.3450000000000002
 31
0.0
  0
LINE
  5
14A
100
AcDbEntity
100
AcDbLine
  8
0
 62
256
370
-1
  6
ByLayer
 10
-6.9940000000000007
 20
2.3189999999999995
 30
0.0
 11
-6.8329146530848544
 21
2.4432704323008063
 31
0.0
  0
LINE
  5
14B
100
AcDbEntity
100
AcDbLine
  8
0
 62
256
370
-1
  6
ByLayer
 10
-6.6669999999999998
 20
1.8209999999999997
 30
0.0
 11
-6.4897467685155839
 21
1.9178431246724039
 31
0.0
  0
LINE
  5
14C
100
AcDbEntity
100
AcDbLine
  8
0
 62
256
370
-1
  6
ByLayer
 10
-6.4749097967549387
 20
1.8904335637587728
 30
0.0
 11
-6.6509999999999998
 21
1.796
 31
0.0
  0
LINE
  5
14D
100
AcDbEntity
100
AcDbLine
  8
0
 62
256
370
-1
  6
ByLayer
 10
-6.4149999999999991
 20
1.2480000000000002
 30
0.0
 11
-6.222354116624202
 21
1.3150633368069724
 31
0.0
  0
LINE
  5
14E
100
AcDbEntity
100
AcDbLine
  8
0
 62
256
370
-1
  6
ByLayer
 10
-6.4039999999999999
 20
1.2170000000000005
 30
0.0
 11
-6.211101665455562
 21
1.2822828901948224
 31
0.0
  0
LINE
  5
14F
100
AcDbEntity
100
AcDbLine
  8
0
 62
256
370
-1
  6
ByLayer
 10
-6.0574257882352631
 20
0.6753581159115971
 30
0.0
 11
-6.258
 21
0.641
 31
0.0
  0
LINE
  5
150
100
AcDbEntity
100
AcDbLine
  8
0
 62
256
370
-1
  6
ByLayer
 10
-6.2530000000000001
 20
0.609
 30
0.0
 11
-6.0518078304671477
 21
0.6416997681466525
 31
0.0
  0
LINE
  5
151
100
AcDbEntity
100
AcDbLine
  8
0
 62
256
370
-1
  6
ByLayer
 10
-6.2010000000000005
 20
0.015
 30
0.0
 11
-6.0000311794786239
 21
0.0157935067933195
 31
0.0
  0
LINE
  5
152
100
AcDbEntity
100
AcDbLine
  8
0
 62
256
370
-1
  6
ByLayer
 10
-6.2010000000000005
 20
-0.015
 30
0.0
 11
-6.0000311794786239
 21
-0.0157935067933195
 31
0.0
  0
LINE
  5
153
100
AcDbEntity
100
AcDbLine
  8
0
 62
256
370
-1
  6
ByLayer
 10
-6.2530000000000001
 20
-0.609
 30
0.0
 11
-6.0518078304671477
 21
-0.6416997681466525
 31
0.0
  0
LINE
  5
154
100
AcDbEntity
100
AcDbLine
  8
0
 62
256
370
-1
  6
ByLayer
 10
-6.258
 20
-0.641
 30
0.0
 11
-6.0574257882352622
 21
-0.6753581159115972
 31
0.0
  0
LINE
  5
155
100
AcDbEntity
100
AcDbLine
  8
0
 62
256
370
-1
  6
ByLayer
 10
-6.211101665455562
 20
-1.2822828901948224
 30
0.0
 11
-6.4039999999999999
 21
-1.2170000000000003
 31
0.0
  0
LINE
  5
156
100
AcDbEntity
100
AcDbLine
  8
0
 62
256
370
-1
  6
ByLayer
 10
-6.222354116624202
 20
-1.3150633368069724
 30
0.0
 11
-6.415
 21
-1.248
 31
0.0
  0
LINE
  5
157
100
AcDbEntity
100
AcDbLine
  8
0
 62
256
370
-1
  6
ByLayer
 10
-6.4749097967549387
 20
-1.8904335637587728
 30
0.0
 11
-6.6509999999999998
 21
-1.796
 31
0.0
  0
LINE
  5
158
100
AcDbEntity
100
AcDbLine
  8
0
 62
256
370
-1
  6
ByLayer
 10
-6.4897467685155839
 20
-1.9178431246724039
 30
0.0
 11
-6.6669999999999998
 21
-1.821
 31
0.0
  0
LINE
  5
159
100
AcDbEntity
100
AcDbLine
  8
0
 62
256
370
-1
  6
ByLayer
 10
-6.9940000000000007
 20
-2.3189999999999995
 30
0.0
 11
-6.8329146530848544
 21
-2.4432704323008063
 31
0.0
  0
LINE
  5
15A
100
AcDbEntity
100
AcDbLine
  8
0
 62
256
370
-1
  6
ByLayer
 10
-7.0140000000000002
 20
-2.3449999999999998
 30
0.0
 11
-6.8541418043638398
 21
-2.4705416841148016
 31
0.0
  0
LINE
  5
15B
100
AcDbEntity
100
AcDbLine
  8
0
 62
256
370
-1
  6
ByLayer
 10
-7.4169999999999998
 20
-2.7810000000000001
 30
0.0
 11
-7.2778318188602125
 21
-2.9308361253386557
 31
0.0
  0
LINE
  5
15C
100
AcDbEntity
100
AcDbLine
  8
0
 62
256
370
-1
  6
ByLayer
 10
-7.4420000000000002
 20
-2.8040000000000003
 30
0.0
 11
-7.3041722318052855
 21
-2.9550825105621508
 31
0.0
  0
LINE
  5
15D
100
AcDbEntity
100
AcDbLine
  8
0
 62
256
370
-1
  6
ByLayer
 10
-7.9359999999999999
 20
-3.1880000000000002
 30
0.0
 11
-7.8261215459041651
 21
-3.3577153641751565
 31
0.0
  0
LINE
  5
15E
100
AcDbEntity
100
AcDbLine
  8
0
 62
256
370
-1
  6
ByLayer
 10
-7.9100000000000001
 20
-3.1720000000000006
 30
0.0
 11
-7.7992137338155292
 21
-3.340140687242652
 31
0.0
  0
LINE
  5
15F
100
AcDbEntity
100
AcDbLine
  8
0
 62
256
370
-1
  6
ByLayer
 10
-8.4600000000000009
 20
-3.4700000000000002
 30
0.0
 11
-8.3774015678056433
 21
-3.6561146491652057
 31
0.0
  0
LINE
  5
160
100
AcDbEntity
100
AcDbLine
  8
0
 62
256
370
-1
  6
ByLayer
 10
-8.4890000000000008
 20
-3.484
 30
0.0
 11
-8.4084470549502015
 21
-3.6697355794530089
 31
0.0
  0
LINE
  5
161
100
AcDbEntity
100
AcDbLine
  8
0
 62
256
370
-1
  6
ByLayer
 10
-9.0519999999999996
 20
-3.6749999999999994
 30
0.0
 11
-9.0008704297649231
 21
-3.8732079858796471
 31
0.0
  0
LINE
  5
162
100
AcDbEntity
100
AcDbLine
  8
0
 62
256
370
-1
  6
ByLayer
 10
-9.0839999999999996
 20
-3.6829999999999994
 30
0.0
 11
-9.0345700488233014
 21
-3.8817450984539104
 31
0.0
  0
LINE
  5
163
100
AcDbEntity
100
AcDbLine
  8
0
 62
256
370
-1
  6
ByLayer
 10
-9.6709999999999994
 20
-3.7839999999999998
 30
0.0
 11
-9.6535269783121951
 21
-3.9849663041539665
 31
0.0
  0
LINE
  5
164
100
AcDbEntity
100
AcDbLine
  8
0
 62
256
370
-1
  6
ByLayer
 10
-9.702
 20
-3.7850000000000001
 30
0.0
 11
-9.6860442111405103
 21
-3.9876599356817795
 31
0.0
  0
LINE
  5
165
100
AcDbEntity
100
AcDbLine
  8
0
 62
256
370
-1
  6
ByLayer
 10
-10.298
 20
-3.7850000000000001
 30
0.0
 11
-10.3139557888594897
 21
-3.9876599356817795
 31
0.0
  0
LINE
  5
166
100
AcDbEntity
100
AcDbLine
  8
0
 62
256
370
-1
  6
ByLayer
 10
-10.3290000000000006
 20
-3.7839999999999998
 30
0.0
 11
-10.3464730216878049
 21
-3.9849663041539665
 31
0.0
  0
LINE
  5
167
100
AcDbEntity
100
AcDbLine
  8
0
 62
256
370
-1
  6
ByLayer
 10
-10.9160000000000004
 20
-3.6830000000000003
 30
0.0
 11
-10.9654299511766986
 21
-3.8817450984539104
 31
0.0
  0
LINE
  5
168
100
AcDbEntity
100
AcDbLine
  8
0
 62
256
370
-1
  6
ByLayer
 10
-10.9480000000000004
 20
-3.6749999999999998
 30
0.0
 11
-10.9991295702350769
 21
-3.8732079858796471
 31
0.0
  0
LINE
  5
169
100
AcDbEntity
100
AcDbLine
  8
0
 62
256
370
-1
  6
ByLayer
 10
-11.5399999999999991
 20
-3.4700000000000002
 30
0.0
 11
-11.6225984321943567
 21
-3.6561146491652057
 31
0.0
  0
LINE
  5
16A
100
AcDbEntity
100
AcDbLine
  8
0
 62
256
370
-1
  6
ByLayer
 10
-11.5109999999999992
 20
-3.484
 30
0.0
 11
-11.5915529450497985
 21
-3.6697355794530089
 31
0.0
  0
LINE
  5
16B
100
AcDbEntity
100
AcDbLine
  8
0
 62
256
370
-1
  6
ByLayer
 10
-12.0899999999999999
 20
-3.1720000000000006
 30
0.0
 11
-12.2007862661844708
 21
-3.340140687242652
 31
0.0
  0
LINE
  5
16C
100
AcDbEntity
100
AcDbLine
  8
0
 62
256
370
-1
  6
ByLayer
 10
-12.0640000000000001
 20
-3.1880000000000002
 30
0.0
 11
-12.1738784540958349
 21
-3.3577153641751556
 31
0.0
  0
LINE
  5
16D
100
AcDbEntity
100
AcDbLine
  8
0
 62
256
370
-1
  6
ByLayer
 10
-12.5830000000000002
 20
-2.7810000000000001
 30
0.0
 11
-12.7221681811397875
 21
-2.9308361253386557
 31
0.0
  0
LINE
  5
16E
100
AcDbEntity
100
AcDbLine
  8
0
 62
256
370
-1
  6
ByLayer
 10
-12.5579999999999998
 20
-2.8040000000000003
 30
0.0
 11
-12.6958277681947145
 21
-2.9550825105621508
 31
0.0
  0
LINE
  5
16F
100
AcDbEntity
100
AcDbLine
  8
0
 62
256
370
-1
  6
ByLayer
 10
-13.0060000000000002
 20
-2.3189999999999995
 30
0.0
 11
-13.1670853469151456
 21
-2.4432704323008063
 31
0.0
  0
LINE
  5
170
100
AcDbEntity
100
AcDbLine
  8
0
 62
256
370
-1
  6
ByLayer
 10
-12.9860000000000007
 20
-2.3449999999999998
 30
0.0
 11
-13.1458581956361602
 21
-2.4705416841148016
 31
0.0
  0
ARC
  5
171
100
AcDbEntity
  8
0
 62
256
370
-1
  6
ByLayer
100
AcDbCircle
 10
-10.0
 20
0.0
 30
0.0
 40
4.0
100
AcDbArc
 50
90.0
 51
90.0
  0
LINE
  5
172
100
AcDbEntity
100
AcDbLine
  8
0
 62
256
370
-1
  6
ByLayer
 10
-13.5102532314844161
 20
-1.9178431246724039
 30
0.0
 11
-13.3330000000000002
 21
-1.821
 31
0.0
  0
LINE
  5
173
100
AcDbEntity
100
AcDbLine
  8
0
 62
256
370
-1
  6
ByLayer
 10
-13.5250902032450604
 20
-1.8904335637587728
 30
0.0
 11
-13.3490000000000002
 21
-1.796
 31
0.0
  0
LINE
  5
174
100
AcDbEntity
100
AcDbLine
  8
0
 62
256
370
-1
  6
ByLayer
 10
-13.7776458833757971
 20
-1.3150633368069724
 30
0.0
 11
-13.5850000000000009
 21
-1.248
 31
0.0
  0
LINE
  5
175
100
AcDbEntity
100
AcDbLine
  8
0
 62
256
370
-1
  6
ByLayer
 10
-13.5960000000000001
 20
-1.2170000000000005
 30
0.0
 11
-13.788898334544438
 21
-1.2822828901948224
 31
0.0
  0
LINE
  5
176
100
AcDbEntity
100
AcDbLine
  8
0
 62
256
370
-1
  6
ByLayer
 10
-13.9425742117647378
 20
-0.6753581159115972
 30
0.0
 11
-13.7420000000000009
 21
-0.641
 31
0.0
  0
LINE
  5
177
100
AcDbEntity
100
AcDbLine
  8
0
 62
256
370
-1
  6
ByLayer
 10
-13.9481921695328523
 20
-0.6416997681466525
 30
0.0
 11
-13.7469999999999999
 21
-0.609
 31
0.0
  0
LINE
  5
178
100
AcDbEntity
100
AcDbLine
  8
0
 62
256
370
-1
  6
ByLayer
 10
-13.9999688205213761
 20
-0.0157935067933195
 30
0.0
 11
-13.7989999999999995
 21
-0.015
 31
0.0
  0
LINE
  5
179
100
AcDbEntity
100
AcDbLine
  8
0
 62
256
370
-1
  6
ByLayer
 10
-13.9999688205213761
 20
0.0157935067933195
 30
0.0
 11
-13.7989999999999995
 21
0.015
 31
0.0
  0
LINE
  5
17A
100
AcDbEntity
100
AcDbLine
  8
0
 62
256
370
-1
  6
ByLayer
 10
-13.9481921695328523
 20
0.6416997681466525
 30
0.0
 11
-13.7469999999999999
 21
0.609
 31
0.0
  0
LINE
  5
17B
100
AcDbEntity
100
AcDbLine
  8
0
 62
256
370
-1
  6
ByLayer
 10
-13.9425742117647378
 20
0.6753581159115972
 30
0.0
 11
-13.7420000000000009
 21
0.641
 31
0.0
  0
LINE
  5
17C
100
AcDbEntity
100
AcDbLine
  8
0
 62
256
370
-1
  6
ByLayer
 10
-13.788898334544438
 20
1.2822828901948222
 30
0.0
 11
-13.5960000000000001
 21
1.2170000000000001
 31
0.0
  0
LINE
  5
17D
100
AcDbEntity
100
AcDbLine
  8
0
 62
256
370
-1
  6
ByLayer
 10
-13.7776458833757971
 20
1.3150633368069724
 30
0.0
 11
-13.5850000000000009
 21
1.248
 31
0.0
  0
LINE
  5
17E
100
AcDbEntity
100
AcDbLine
  8
0
 62
256
370
-1
  6
ByLayer
 10
-13.5102532314844161
 20
1.9178431246724039
 30
0.0
 11
-13.3330000000000002
 21
1.821
 31
0.0
  0
LINE
  5
17F
100
AcDbEntity
100
AcDbLine
  8
0
 62
256
370
-1
  6
ByLayer
 10
-13.5250902032450604
 20
1.8904335637587728
 30
0.0
 11
-13.3490000000000002
 21
1.796
 31
0.0
  0
CIRCLE
  5
180
100
AcDbEntity
100
AcDbCircle
  8
0
 62
256
370
-1
  6
ByLayer
 10
-8.3188191802061837
 20
-3.2456129715463944
 30
0.0
 40
0.632634584772793
  0
MTEXT
  5
181
100
AcDbEntity
100
AcDbMText
  8
dimensions
 62
256
370
-1
  6
ByLayer
 10
-36.3635297637342205
 20
9.4690714138476899
 30
0.0
 40
1.0
 41
100.0
 71
1
 72
2
  1
HOBBED TEETH - 38 OFF\PM4 TOOTH PROFILE OR SIMILAR
  7
iso
 50
0.0
 73
0
 44
1.0
  0
LEADER
  5
182
  8
dimensions
 62
256
370
-1
  6
ByLayer
100
AcDbEntity
100
AcDbLeader
  3
Standard
 71
1
 72
0
 73
3
 74
0
 75
0
 40
1.0
 41
10.0
 76
3
 10
-12.7205527768591491
 20
2.4764006045769174
 10
-15.0
 20
6.0
 10
-36.0
 20
6.0
  0
MTEXT
  5
183
100
AcDbEntity
100
AcDbMText
  8
dimensions
 62
256
370
-1
  6
ByLayer
 10
-13.5475617358808282
 20
-5.3870381915227394
 30
0.0
 40
1.0
 41
100.0
 71
1
 72
2
  1
SECTION C-C
  7
iso
 50
0.0
 73
0
 44
1.0
  0
LINE
  5
184
100
AcDbEntity
100
AcDbLine
  8
centreline
 62
256
370
-1
  6
ByLayer
 10
-16.0
 20
0.0
 30
0.0
 11
45.0
 21
0.0
 31
0.0
  0
LEADER
  5
185
  8
dimensions
 62
256
370
-1
  6
ByLayer
100
AcDbEntity
100
AcDbLeader
  3
Standard
 71
1
 72
0
 73
3
 74
0
 75
0
 40
1.0
 41
10.0
 76
3
 10
-7.873589488958733
 20
-3.6950537795315439
 10
-5.0
 20
-4.0
 10
-3.0
 20
-4.0
  0
MTEXT
  5
186
100
AcDbEntity
100
AcDbMText
  8
dimensions
 62
256
370
-1
  6
ByLayer
 10
-3.5519764793743756
 20
-2.8254358358659806
 30
0.0
 40
1.0
 41
100.0
 71
1
 72
2
  1
D
  7
iso
 50
0.0
 73
0
 44
1.0
  0
MTEXT
  5
187
100
AcDbEntity
100
AcDbMText
  8
dimensions
 62
256
370
-1
  6
ByLayer
 10
2.1812988104012687
 20
-34.2592224927728637
 30
0.0
 40
1.0
 41
100.0
 71
1
 72
2
  1
DETAIL D\PSCALE 10:1
  7
iso
 50
0.0
 73
0
 44
1.0
  0
LINE
  5
188
100
AcDbEntity
100
AcDbLine
  8
dimensions
 62
256
370
0
  6
CONTINUOUS
 10
48.8275141855016557
 20
-29.268918579872782
 30
0.0
 11
74.3275141855016557
 21
-29.268918579872782
 31
0.0
  0
LINE
  5
189
100
AcDbEntity
100
AcDbLine
  8
dimensions
 62
256
370
0
  6
CONTINUOUS
 10
74.3275141855016557
 20
-29.268918579872782
 30
0.0
 11
74.3275141855016557
 21
-37.768918579872782
 31
0.0
  0
LINE
  5
18A
100
AcDbEntity
100
AcDbLine
  8
dimensions
 62
256
370
0
  6
CONTINUOUS
 10
74.3275141855016557
 20
-37.768918579872782
 30
0.0
 11
48.8275141855016557
 21
-37.768918579872782
 31
0.0
  0
LINE
  5
18B
100
AcDbEntity
100
AcDbLine
  8
dimensions
 62
256
370
0
  6
CONTINUOUS
 10
48.8275141855016557
 20
-37.768918579872782
 30
0.0
 11
48.8275141855016557
 21
-29.268918579872782
 31
0.0
  0
LINE
  5
18C
100
AcDbEntity
100
AcDbLine
  8
dimensions
 62
256
370
0
  6
CONTINUOUS
 10
48.8275141855016557
 20
-31.768918579872782
 30
0.0
 11
74.3275141855016557
 21
-31.768918579872782
 31
0.0
  0
LINE
  5
18D
100
AcDbEntity
100
AcDbLine
  8
centreline
 62
256
370
-1
  6
ByLayer
 10
48.8275141855016557
 20
-37.768918579872782
 30
0.0
 11
74.3275141855016557
 21
-37.768918579872782
 31
0.0
  0
LINE
  5
18E
100
AcDbEntity
100
AcDbLine
  8
0
 62
256
370
-1
  6
ByLayer
 10
74.3275141855016557
 20
-37.768918579872782
 30
0.0
 11
74.3275141855016557
 21
-41.6288996583965698
 31
0.0
  0
LINE
  5
18F
100
AcDbEntity
100
AcDbLine
  8
0
 62
256
370
-1
  6
ByLayer
 10
74.3275141855016557
 20
-41.6288996583965698
 30
0.0
 11
48.8275141855016557
 21
-41.6288996583965698
 31
0.0
  0
LINE
  5
190
100
AcDbEntity
100
AcDbLine
  8
0
 62
256
370
0
  6
CONTINUOUS
 10
74.3275141855016557
 20
-41.6288996583965698
 30
0.0
 11
48.8275141855016557
 21
-41.6288996583965698
 31
0.0
  0
LINE
  5
191
100
AcDbEntity
100
AcDbLine
  8
0
 62
256
370
-1
  6
ByLayer
 10
48.8275141855016557
 20
-41.6288996583965698
 30
0.0
 11
74.3275141855016557
 21
-41.6288996583965698
 31
0.0
  0
LINE
  5
192
100
AcDbEntity
100
AcDbLine
  8
0
 62
256
370
-1
  6
ByLayer
 10
74.3275141855016557
 20
-41.6288996583965698
 30
0.0
 11
74.3275141855016557
 21
-45.4888807369203434
 31
0.0
  0
LINE
  5
193
100
AcDbEntity
100
AcDbLine
  8
0
 62
256
370
-1
  6
ByLayer
 10
74.3275141855016557
 20
-45.4888807369203434
 30
0.0
 11
48.8275141855016557
 21
-45.4888807369203434
 31
0.0
  0
LINE
  5
194
100
AcDbEntity
100
AcDbLine
  8
0
 62
256
370
-1
  6
ByLayer
 10
48.8275141855016557
 20
-41.6288996583965698
 30
0.0
 11
48.8275141855016557
 21
-37.768918579872782
 31
0.0
  0
LINE
  5
195
100
AcDbEntity
100
AcDbLine
  8
0
 62
256
370
-1
  6
ByLayer
 10
48.8275141855016557
 20
-45.4888807369203434
 30
0.0
 11
48.8275141855016557
 21
-41.6288996583965698
 31
0.0
  0
LINE
  5
196
100
AcDbEntity
100
AcDbLine
  8
dimensions
 62
256
370
-1
  6
ByLayer
 10
74.3275141855016557
 20
-45.4888807369203434
 30
0.0
 11
-39.1246107255622704
 21
-45.4888807369203434
 31
0.0
  0
LINE
  5
197
100
AcDbEntity
100
AcDbLine
  8
dimensions
 62
256
370
-1
  6
ByLayer
 10
-39.1246107255622704
 20
-45.4888807369203434
 30
0.0
 11
-39.1246107255622704
 21
17.7364901955882281
 31
0.0
  0
LINE
  5
198
100
AcDbEntity
100
AcDbLine
  8
dimensions
 62
256
370
-1
  6
ByLayer
 10
-39.1246107255622704
 20
17.7364901955882281
 30
0.0
 11
74.3275141855016557
 21
17.7364901955882281
 31
0.0
  0
LINE
  5
199
100
AcDbEntity
100
AcDbLine
  8
dimensions
 62
256
370
-1
  6
ByLayer
 10
74.3275141855016557
 20
17.7364901955882281
 30
0.0
 11
74.3275141855016557
 21
-45.4888807369203434
 31
0.0
  0
MTEXT
  5
19A
100
AcDbEntity
100
AcDbMText
  8
0
 62
256
370
-1
  6
ByLayer
 10
51.193517663257424
 20
-29.835074831129166
 30
0.0
 40
1.0
 41
200.0
 71
1
 72
2
  1
RepRapPro Ltd\P\PHobbed insert\P\PMaterial: Steel\P\PAll Dimensions mm u.o.s.\P\PTolerance %%p0.1 u.o.s.
  7
iso
 50
0.0
 73
1
 44
1.0
  0
MTEXT
  5
19B
100
AcDbEntity
100
AcDbMText
  8
dimensions
 62
256
370
-1
  6
ByLayer
 10
66.7451338504007907
 20
-29.8528040073081691
 30
0.0
 40
1.0
 41
100.0
 71
1
 72
2
  1
Rev 1.0
  7
iso
 50
0.0
 73
0
 44
1.0
  0
LINE
  5
19C
100
AcDbEntity
100
AcDbLine
  8
dimensions
 62
256
370
-1
  6
ByLayer
 10
48.8275141855016557
 20
-41.6288996583965698
 30
0.0
 11
19.2935152536314796
 21
-41.6288996583965698
 31
0.0
  0
LINE
  5
19D
100
AcDbEntity
100
AcDbLine
  8
dimensions
 62
256
370
-1
  6
ByLayer
 10
19.2935152536314796
 20
-41.6288996583965698
 30
0.0
 11
19.2935152536314796
 21
-45.4888807369203434
 31
0.0
  0
LINE
  5
19E
100
AcDbEntity
100
AcDbLine
  8
dimensions
 62
256
370
-1
  6
ByLayer
 10
36.2926665311554615
 20
-41.6288996583965698
 30
0.0
 11
36.2926665311554615
 21
-45.4888807369203434
 31
0.0
  0
MTEXT
  5
19F
100
AcDbEntity
100
AcDbMText
  8
dimensions
 62
256
370
-1
  6
ByLayer
 10
21.118577507353379
 20
-43.149686141567706
 30
0.0
 40
1.0
 41
100.0
 71
1
 72
2
  1
Drawn:    Jan-13        Author JMG
  7
iso
 50
0.0
 73
0
 44
1.0
  0
LINE
  5
1A0
100
AcDbEntity
100
AcDbLine
  8
dimensions
 62
256
370
-1
  6
ByLayer
 10
10.0
 20
4.0
 30
0.0
 11
10.0
 21
1.5
 31
0.0
  0
LINE
  5
1A1
100
AcDbEntity
100
AcDbLine
  8
dimensions
 62
256
370
-1
  6
ByLayer
 10
10.0
 20
1.5
 30
0.0
 11
10.0
 21
-1.5
 31
0.0
  0
LINE
  5
1A2
100
AcDbEntity
100
AcDbLine
  8
dimensions
 62
256
370
-1
  6
ByLayer
 10
10.0
 20
-1.5
 30
0.0
 11
10.0
 21
-4.0
 31
0.0
  0
LINE
  5
1A3
100
AcDbEntity
100
AcDbLine
  8
dimensions
 62
256
370
-1
  6
ByLayer
 10
18.8000000000000007
 20
-3.0009999999999999
 30
0.0
 11
18.8000000000000007
 21
-1.5
 31
0.0
  0
LINE
  5
1A4
100
AcDbEntity
100
AcDbLine
  8
dimensions
 62
256
370
-1
  6
ByLayer
 10
18.8000000000000007
 20
-1.5
 30
0.0
 11
18.8000000000000007
 21
1.5
 31
0.0
  0
LINE
  5
1A5
100
AcDbEntity
100
AcDbLine
  8
dimensions
 62
256
370
-1
  6
ByLayer
 10
18.8000000000000007
 20
1.5
 30
0.0
 11
18.8000000000000007
 21
3.0009999999999999
 31
0.0
  0
LINE
  5
1A6
100
AcDbEntity
100
AcDbLine
  8
dimensions
 62
256
370
-1
  6
ByLayer
 10
41.0
 20
-26.9999999999999964
 30
0.0
 11
38.5
 21
-27.0
 31
0.0
  0
LINE
  5
1A7
100
AcDbEntity
100
AcDbLine
  8
dimensions
 62
256
370
-1
  6
ByLayer
 10
38.5
 20
-27.0
 30
0.0
 11
35.5000000000000142
 21
-27.0
 31
0.0
  0
LINE
  5
1A8
100
AcDbEntity
100
AcDbLine
  8
dimensions
 62
256
370
-1
  6
ByLayer
 10
35.5000000000000142
 20
-27.0
 30
0.0
 11
33.0
 21
-26.9999999999999964
 31
0.0
  0
LINE
  5
1A9
100
AcDbEntity
100
AcDbLine
  8
dimensions
 62
256
370
-1
  6
ByLayer
 10
33.9989999999999952
 20
-18.1999999999999993
 30
0.0
 11
35.5000000000000071
 21
-18.1999999999999993
 31
0.0
  0
LINE
  5
1AA
100
AcDbEntity
100
AcDbLine
  8
dimensions
 62
256
370
-1
  6
ByLayer
 10
35.5000000000000071
 20
-18.1999999999999993
 30
0.0
 11
38.5
 21
-18.1999999999999993
 31
0.0
  0
LINE
  5
1AB
100
AcDbEntity
100
AcDbLine
  8
dimensions
 62
256
370
-1
  6
ByLayer
 10
38.5
 20
-18.1999999999999993
 30
0.0
 11
40.0010000000000048
 21
-18.2000000000000028
 31
0.0
  0
LINE
  5
1AC
100
AcDbEntity
100
AcDbLine
  8
centreline
 62
256
370
-1
  6
ByLayer
 10
-10.0
 20
-5.0
 30
0.0
 11
-10.0
 21
6.0
 31
0.0
  0
CIRCLE
  5
1AD
100
AcDbEntity
100
AcDbCircle
  8
hatching
 62
256
370
-1
  6
ByLayer
 10
-10.0
 20
0.0
 30
0.0
 40
3.4222390331477421
  0
LINE
  5
1AE
100
AcDbEntity
100
AcDbLine
  8
hatching
 62
256
370
-1
  6
ByLayer
 10
-9.3623044627442624
 20
-3.3623004627442583
 30
0.0
 11
-6.6376995372556848
 21
-0.6376955372556807
 31
0.0
  0
LINE
  5
1AF
100
AcDbEntity
100
AcDbLine
  8
hatching
 62
256
370
-1
  6
ByLayer
 10
-11.2036044543658875
 20
-3.2036005240093601
 30
0.0
 11
-8.0000079999999514
 21
-0.0000040000000183
 31
0.0
  0
LINE
  5
1B0
100
AcDbEntity
100
AcDbLine
  8
hatching
 62
256
370
-1
  6
ByLayer
 10
-13.2036026897797001
 20
-1.2035986897796533
 30
0.0
 11
-12.0000080000000224
 21
-0.0000039999999757
 31
0.0
  0
LINE
  5
1B1
100
AcDbEntity
100
AcDbLine
  8
hatching
 62
256
370
-1
  6
ByLayer
 10
-13.3622977388902484
 20
0.637709898820393
 30
0.0
 11
-10.6377132611180514
 21
3.3622971011786236
 31
0.0
  0
LINE
  5
1B2
100
AcDbEntity
100
AcDbLine
  8
hatching
 62
256
370
-1
  6
ByLayer
 10
-12.000007999999994
 20
0.0000019999999807
 30
0.0
 11
-8.796404701339263
 21
3.2036039638260156
 31
0.0
  0
LINE
  5
1B3
100
AcDbEntity
100
AcDbLine
  8
hatching
 62
256
370
-1
  6
ByLayer
 10
-8.000007999999994
 20
-0.0000020000000281
 30
0.0
 11
-6.7964000412093233
 21
1.2036059587906529
 31
0.0
  0
CIRCLE
  5
1B4
100
AcDbEntity
100
AcDbCircle
  8
hatching
 62
256
370
-1
  6
ByLayer
 10
-10.0001053995377838
 20
0.0001972603594279
 30
0.0
 40
1.2497158570272648
  0
LINE
  5
1B5
100
AcDbEntity
100
AcDbLine
  8
hatching
 62
256
370
-1
  6
ByLayer
 10
-12.4198904540667741
 20
-2.4198864002916594
 30
0.0
 11
-10.8836386238519331
 21
-0.8836346042157499
 31
0.0
  0
LINE
  5
1B6
100
AcDbEntity
100
AcDbLine
  8
hatching
 62
256
370
-1
  6
ByLayer
 10
-9.1162755248104617
 20
0.8837324751895307
 30
0.0
 11
-7.5801155728232388
 21
2.4198924271767512
 31
0.0
  0
ARC
  5
1B7
100
AcDbEntity
  8
hatching
 62
256
370
-1
  6
ByLayer
100
AcDbCircle
 10
5.3568295702901674
 20
-18.6264273888917842
 30
0.0
 40
6.3263458477279331
100
AcDbArc
 50
53.7846980174535219
 51
181.0232214064401433
  0
ENDSEC
  0
SECTION
  2
OBJECTS
  0
DICTIONARY
  5
C
100
AcDbDictionary
280
0
281
1
  3
ACAD_GROUP
350
D
  3
ACAD_LAYOUT
350
1A
  3
ACAD_MLINESTYLE
350
17
  3
ACAD_PLOTSETTINGS
350
19
  3
ACAD_PLOTSTYLENAME
350
E
  3
AcDbVariableDictionary
350
1B8
  0
DICTIONARY
  5
D
100
AcDbDictionary
280
0
281
1
  0
ACDBDICTIONARYWDFLT
  5
E
100
AcDbDictionary
281
1
  3
Normal
350
F
100
AcDbDictionaryWithDefault
340
F
  0
ACDBPLACEHOLDER
  5
F
  0
DICTIONARY
  5
17
100
AcDbDictionary
280
0
281
1
  3
Standard
350
18
  0
MLINESTYLE
  5
18
100
AcDbMlineStyle
  2
STANDARD
 70
0
  3

 62
256
 51
90.0
 52
90.0
 71
2
 49
0.5
 62
256
  6
BYLAYER
 49
-0.5
 62
256
  6
BYLAYER
  0
DICTIONARY
  5
19
100
AcDbDictionary
280
0
281
1
  0
DICTIONARY
  5
1A
100
AcDbDictionary
281
1
  3
Layout1
350
1E
  3
Layout2
350
26
  3
Model
350
22
  0
LAYOUT
  5
1E
100
AcDbPlotSettings
  1

  2
C:\Program Files\AutoCAD 2002\plotters\DWF ePlot (optimized for plotting).pc3
  4

  6

 40
0.0
 41
0.0
 42
0.0
 43
0.0
 44
0.0
 45
0.0
 46
0.0
 47
0.0
 48
0.0
 49
0.0
140
0.0
141
0.0
142
1.0
143
1.0
 70
688
 72
0
 73
0
 74
5
  7

 75
16
147
1.0
148
0.0
149
0.0
100
AcDbLayout
  1
Layout1
 70
1
 71
1
 10
0.0
 20
0.0
 11
420.0
 21
297.0
 12
0.0
 22
0.0
 32
0.0
 14
100000000000000000000.0
 24
100000000000000000000.0
 34
100000000000000000000.0
 15
-100000000000000000000.0
 25
-100000000000000000000.0
 35
-100000000000000000000.0
146
0.0
 13
0.0
 23
0.0
 33
0.0
 16
1.0
 26
0.0
 36
0.0
 17
0.0
 27
1.0
 37
0.0
 76
0
330
1B
  0
LAYOUT
  5
22
100
AcDbPlotSettings
  1

  2
C:\Program Files\AutoCAD 2002\plotters\DWF ePlot (optimized for plotting).pc3
  4

  6

 40
0.0
 41
0.0
 42
0.0
 43
0.0
 44
0.0
 45
0.0
 46
0.0
 47
0.0
 48
0.0
 49
0.0
140
0.0
141
0.0
142
1.0
143
1.0
 70
1712
 72
0
 73
0
 74
0
  7

 75
0
147
1.0
148
0.0
149
0.0
100
AcDbLayout
  1
Model
 70
1
 71
0
 10
0.0
 20
0.0
 11
12.0
 21
9.0
 12
0.0
 22
0.0
 32
0.0
 14
0.0
 24
0.0
 34
0.0
 15
0.0
 25
0.0
 35
0.0
146
0.0
 13
0.0
 23
0.0
 33
0.0
 16
1.0
 26
0.0
 36
0.0
 17
0.0
 27
1.0
 37
0.0
 76
0
330
1F
  0
LAYOUT
  5
26
100
AcDbPlotSettings
  1

  2
C:\Program Files\AutoCAD 2002\plotters\DWF ePlot (optimized for plotting).pc3
  4

  6

 40
0.0
 41
0.0
 42
0.0
 43
0.0
 44
0.0
 45
0.0
 46
0.0
 47
0.0
 48
0.0
 49
0.0
140
0.0
141
0.0
142
1.0
143
1.0
 70
688
 72
0
 73
0
 74
5
  7

 75
16
147
1.0
148
0.0
149
0.0
100
AcDbLayout
  1
Layout2
 70
1
 71
2
 10
0.0
 20
0.0
 11
12.0
 21
9.0
 12
0.0
 22
0.0
 32
0.0
 14
0.0
 24
0.0
 34
0.0
 15
0.0
 25
0.0
 35
0.0
146
0.0
 13
0.0
 23
0.0
 33
0.0
 16
1.0
 26
0.0
 36
0.0
 17
0.0
 27
1.0
 37
0.0
 76
0
330
23
  0
DICTIONARY
  5
1B8
100
AcDbDictionary
281
1
  3
DIMASSOC
350
1BA
  3
HIDETEXT
350
1B9
  0
DICTIONARYVAR
  5
1B9
100
DictionaryVariables
280
0
  1
2
  0
DICTIONARYVAR
  5
1BA
100
DictionaryVariables
280
0
  1
1
  0
ENDSEC
  0
EOF
