999
dxflib 2.2.0.0
  0
SECTION
  2
HEADER
  9
$ACADVER
  1
AC1015
  9
$HANDSEED
  5
FFFF
  9
$DIMASZ
 40
2.5
  9
$DIMGAP
 40
0.625
  9
$INSUNITS
 70
4
  9
$DIMEXO
 40
0.625
  9
$DIMTXT
 40
2.5
  9
$DIMSTYLE
  2
Standard
  9
$PLIMMIN
 10
0.0
 20
0.0
  9
$PLIMMAX
 10
210.0
 20
297.0
  9
$DIMEXE
 40
1.25
  0
ENDSEC
  0
SECTION
  2
TABLES
  0
TABLE
  2
VPORT
  5
8
100
AcDbSymbolTable
 70
1
  0
VPORT
  5
30
100
AcDbSymbolTableRecord
100
AcDbViewportTableRecord
  2
*Active
 70
0
 10
0.0
 20
0.0
 11
1.0
 21
1.0
 12
286.3055555555554861
 22
148.5
 13
0.0
 23
0.0
 14
10.0
 24
10.0
 15
10.0
 25
10.0
 16
0.0
 26
0.0
 36
1.0
 17
0.0
 27
0.0
 37
0.0
 40
297.0
 41
1.92798353909465
 42
50.0
 43
0.0
 44
0.0
 50
0.0
 51
0.0
 71
0
 72
100
 73
1
 74
3
 75
1
 76
1
 77
0
 78
0
281
0
 65
1
110
0.0
120
0.0
130
0.0
111
1.0
121
0.0
131
0.0
112
0.0
122
1.0
132
0.0
 79
0
146
0.0
  0
ENDTAB
  0
TABLE
  2
LTYPE
  5
5
100
AcDbSymbolTable
 70
21
  0
LTYPE
  5
14
100
AcDbSymbolTableRecord
100
AcDbLinetypeTableRecord
  2
ByBlock
 70
0
  3

 72
65
 73
0
 40
0.0
  0
LTYPE
  5
15
100
AcDbSymbolTableRecord
100
AcDbLinetypeTableRecord
  2
ByLayer
 70
0
  3

 72
65
 73
0
 40
0.0
  0
LTYPE
  5
16
100
AcDbSymbolTableRecord
100
AcDbLinetypeTableRecord
  2
CONTINUOUS
 70
0
  3
Solid line
 72
65
 73
0
 40
0.0
  0
LTYPE
  5
31
100
AcDbSymbolTableRecord
100
AcDbLinetypeTableRecord
  2
DOT
 70
0
  3
Dot . . . . . . . . . . . . . . . . . . . . . .
 72
65
 73
2
 40
6.3499999999999996
 49
0.0
 74
0
 49
-6.3499999999999996
 74
0
  0
LTYPE
  5
32
100
AcDbSymbolTableRecord
100
AcDbLinetypeTableRecord
  2
DOT2
 70
0
  3
Dot (.5x) .....................................
 72
65
 73
2
 40
3.1749999999999998
 49
0.0
 74
0
 49
-3.1749999999999998
 74
0
  0
LTYPE
  5
33
100
AcDbSymbolTableRecord
100
AcDbLinetypeTableRecord
  2
DOTX2
 70
0
  3
Dot (2x) .  .  .  .  .  .  .  .  .  .  .  .  .
 72
65
 73
2
 40
12.6999999999999993
 49
0.0
 74
0
 49
-12.6999999999999993
 74
0
  0
LTYPE
  5
34
100
AcDbSymbolTableRecord
100
AcDbLinetypeTableRecord
  2
DASHED
 70
0
  3
Dashed __ __ __ __ __ __ __ __ __ __ __ __ __ _
 72
65
 73
2
 40
19.0500000000000007
 49
12.6999999999999993
 74
0
 49
-6.3499999999999996
 74
0
  0
LTYPE
  5
35
100
AcDbSymbolTableRecord
100
AcDbLinetypeTableRecord
  2
DASHED2
 70
0
  3
Dashed (.5x) _ _ _ _ _ _ _ _ _ _ _ _ _ _ _ _ _
 72
65
 73
2
 40
9.5250000000000004
 49
6.3499999999999996
 74
0
 49
-3.1749999999999998
 74
0
  0
LTYPE
  5
36
100
AcDbSymbolTableRecord
100
AcDbLinetypeTableRecord
  2
DASHEDX2
 70
0
  3
Dashed (2x) ____  ____  ____  ____  ____  ___
 72
65
 73
2
 40
38.1000000000000014
 49
25.3999999999999986
 74
0
 49
-12.6999999999999993
 74
0
  0
LTYPE
  5
37
100
AcDbSymbolTableRecord
100
AcDbLinetypeTableRecord
  2
DASHDOT
 70
0
  3
Dash dot __ . __ . __ . __ . __ . __ . __ . __
 72
65
 73
4
 40
25.3999999999999986
 49
12.6999999999999993
 74
0
 49
-6.3499999999999996
 74
0
 49
0.0
 74
0
 49
-6.3499999999999996
 74
0
  0
LTYPE
  5
38
100
AcDbSymbolTableRecord
100
AcDbLinetypeTableRecord
  2
DASHDOT2
 70
0
  3
Dash dot (.5x) _._._._._._._._._._._._._._._.
 72
65
 73
4
 40
12.6999999999999993
 49
6.3499999999999996
 74
0
 49
-3.1749999999999998
 74
0
 49
0.0
 74
0
 49
-3.1749999999999998
 74
0
  0
LTYPE
  5
39
100
AcDbSymbolTableRecord
100
AcDbLinetypeTableRecord
  2
DASHDOTX2
 70
0
  3
Dash dot (2x) ____  .  ____  .  ____  .  ___
 72
65
 73
4
 40
50.7999999999999972
 49
25.3999999999999986
 74
0
 49
-12.6999999999999993
 74
0
 49
0.0
 74
0
 49
-12.6999999999999993
 74
0
  0
LTYPE
  5
3A
100
AcDbSymbolTableRecord
100
AcDbLinetypeTableRecord
  2
DIVIDE
 70
0
  3
Divide ____ . . ____ . . ____ . . ____ . . ____
 72
65
 73
6
 40
31.75
 49
12.6999999999999993
 74
0
 49
-6.3499999999999996
 74
0
 49
0.0
 74
0
 49
-6.3499999999999996
 74
0
 49
0.0
 74
0
 49
-6.3499999999999996
 74
0
  0
LTYPE
  5
3B
100
AcDbSymbolTableRecord
100
AcDbLinetypeTableRecord
  2
DIVIDE2
 70
0
  3
Divide (.5x) __..__..__..__..__..__..__..__.._
 72
65
 73
6
 40
15.875
 49
6.3499999999999996
 74
0
 49
-3.1749999999999998
 74
0
 49
0.0
 74
0
 49
-3.1749999999999998
 74
0
 49
0.0
 74
0
 49
-3.1749999999999998
 74
0
  0
LTYPE
  5
3C
100
AcDbSymbolTableRecord
100
AcDbLinetypeTableRecord
  2
DIVIDEX2
 70
0
  3
Divide (2x) ________  .  .  ________  .  .  _
 72
65
 73
6
 40
63.5
 49
25.3999999999999986
 74
0
 49
-12.6999999999999993
 74
0
 49
0.0
 74
0
 49
-12.6999999999999993
 74
0
 49
0.0
 74
0
 49
-12.6999999999999993
 74
0
  0
LTYPE
  5
3D
100
AcDbSymbolTableRecord
100
AcDbLinetypeTableRecord
  2
CENTER
 70
0
  3
Center ____ _ ____ _ ____ _ ____ _ ____ _ ____
 72
65
 73
4
 40
50.7999999999999972
 49
31.75
 74
0
 49
-6.3499999999999996
 74
0
 49
6.3499999999999996
 74
0
 49
-6.3499999999999996
 74
0
  0
LTYPE
  5
3E
100
AcDbSymbolTableRecord
100
AcDbLinetypeTableRecord
  2
CENTER2
 70
0
  3
Center (.5x) ___ _ ___ _ ___ _ ___ _ ___ _ ___
 72
65
 73
4
 40
28.5749999999999993
 49
19.0500000000000007
 74
0
 49
-3.1749999999999998
 74
0
 49
3.1749999999999998
 74
0
 49
-3.1749999999999998
 74
0
  0
LTYPE
  5
3F
100
AcDbSymbolTableRecord
100
AcDbLinetypeTableRecord
  2
CENTERX2
 70
0
  3
Center (2x) ________  __  ________  __  _____
 72
65
 73
4
 40
101.5999999999999943
 49
63.5
 74
0
 49
-12.6999999999999993
 74
0
 49
12.6999999999999993
 74
0
 49
-12.6999999999999993
 74
0
  0
LTYPE
  5
40
100
AcDbSymbolTableRecord
100
AcDbLinetypeTableRecord
  2
BORDER
 70
0
  3
Border __ __ . __ __ . __ __ . __ __ . __ __ .
 72
65
 73
6
 40
44.4500000000000028
 49
12.6999999999999993
 74
0
 49
-6.3499999999999996
 74
0
 49
12.6999999999999993
 74
0
 49
-6.3499999999999996
 74
0
 49
0.0
 74
0
 49
-6.3499999999999996
 74
0
  0
LTYPE
  5
41
100
AcDbSymbolTableRecord
100
AcDbLinetypeTableRecord
  2
BORDER2
 70
0
  3
Border (.5x) __.__.__.__.__.__.__.__.__.__.__.
 72
65
 73
6
 40
22.2250000000000014
 49
6.3499999999999996
 74
0
 49
-3.1749999999999998
 74
0
 49
6.3499999999999996
 74
0
 49
-3.1749999999999998
 74
0
 49
0.0
 74
0
 49
-3.1749999999999998
 74
0
  0
LTYPE
  5
42
100
AcDbSymbolTableRecord
100
AcDbLinetypeTableRecord
  2
BORDERX2
 70
0
  3
Border (2x) ____  ____  .  ____  ____  .  ___
 72
65
 73
6
 40
88.9000000000000057
 49
25.3999999999999986
 74
0
 49
-12.6999999999999993
 74
0
 49
25.3999999999999986
 74
0
 49
-12.6999999999999993
 74
0
 49
0.0
 74
0
 49
-12.6999999999999993
 74
0
  0
ENDTAB
  0
TABLE
  2
LAYER
  5
2
100
AcDbSymbolTable
 70
1
  0
LAYER
  5
10
100
AcDbSymbolTableRecord
100
AcDbLayerTableRecord
  2
0
 70
0
 62
7
  6
CONTINUOUS
370
0
390
F
  0
ENDTAB
  0
TABLE
  2
STYLE
  5
3
100
AcDbSymbolTable
 70
1
  0
STYLE
  5
11
100
AcDbSymbolTableRecord
100
AcDbTextStyleTableRecord
  2
Standard
 70
0
 40
0.0
 41
0.75
 50
0.0
 71
0
 42
2.5
  3
txt
  4

  0
ENDTAB
  0
TABLE
  2
VIEW
  5
6
100
AcDbSymbolTable
 70
0
  0
ENDTAB
  0
TABLE
  2
UCS
  5
7
100
AcDbSymbolTable
 70
0
  0
ENDTAB
  0
TABLE
  2
APPID
  5
9
100
AcDbSymbolTable
 70
1
  0
APPID
  5
12
100
AcDbSymbolTableRecord
100
AcDbRegAppTableRecord
  2
ACAD
 70
0
  0
ENDTAB
  0
TABLE
  2
DIMSTYLE
  5
A
100
AcDbSymbolTable
 70
1
100
AcDbDimStyleTable
 71
0
  0
DIMSTYLE
105
27
100
AcDbSymbolTableRecord
100
AcDbDimStyleTableRecord
  2
Standard
 41
2.5
 42
0.625
 43
3.75
 44
1.25
 70
0
 73
0
 74
0
 77
1
 78
8
140
2.5
141
2.5
143
0.03937007874016
147
0.625
171
3
172
1
271
2
272
2
274
3
278
44
283
0
284
8
340
11
  0
ENDTAB
  0
TABLE
  2
BLOCK_RECORD
  5
1
100
AcDbSymbolTable
 70
1
  0
BLOCK_RECORD
  5
1F
100
AcDbSymbolTableRecord
100
AcDbBlockTableRecord
  2
*Model_Space
340
22
  0
BLOCK_RECORD
  5
1B
100
AcDbSymbolTableRecord
100
AcDbBlockTableRecord
  2
*Paper_Space
340
1E
  0
BLOCK_RECORD
  5
23
100
AcDbSymbolTableRecord
100
AcDbBlockTableRecord
  2
*Paper_Space0
340
26
  0
ENDTAB
  0
ENDSEC
  0
SECTION
  2
BLOCKS
  0
BLOCK
  5
20
100
AcDbEntity
  8
0
100
AcDbBlockBegin
  2
*Model_Space
 70
0
 10
0.0
 20
0.0
 30
0.0
  3
*Model_Space
  1

  0
ENDBLK
  5
21
100
AcDbEntity
  8
0
100
AcDbBlockEnd
  0
BLOCK
  5
1C
100
AcDbEntity
 67
1
  8
0
100
AcDbBlockBegin
  2
*Paper_Space
 70
0
 10
0.0
 20
0.0
 30
0.0
  3
*Paper_Space
  1

  0
ENDBLK
  5
1D
100
AcDbEntity
 67
1
  8
0
100
AcDbBlockEnd
  0
BLOCK
  5
24
100
AcDbEntity
  8
0
100
AcDbBlockBegin
  2
*Paper_Space0
 70
0
 10
0.0
 20
0.0
 30
0.0
  3
*Paper_Space0
  1

  0
ENDBLK
  5
25
100
AcDbEntity
  8
0
100
AcDbBlockEnd
  0
ENDSEC
  0
SECTION
  2
ENTITIES
  0
LINE
  5
43
100
AcDbEntity
100
AcDbLine
  8
0
 62
256
370
-1
  6
ByLayer
 10
290.0
 20
0.0
 30
0.0
 11
290.0
 21
22.0
 31
0.0
  0
LINE
  5
44
100
AcDbEntity
100
AcDbLine
  8
0
 62
256
370
-1
  6
ByLayer
 10
0.0
 20
22.0
 30
0.0
 11
0.0
 21
0.0
 31
0.0
  0
LINE
  5
45
100
AcDbEntity
100
AcDbLine
  8
0
 62
256
370
-1
  6
ByLayer
 10
281.5
 20
22.0
 30
0.0
 11
281.5
 21
37.0
 31
0.0
  0
LINE
  5
46
100
AcDbEntity
100
AcDbLine
  8
0
 62
256
370
-1
  6
ByLayer
 10
8.5
 20
37.0
 30
0.0
 11
8.5
 21
22.0
 31
0.0
  0
LINE
  5
47
100
AcDbEntity
100
AcDbLine
  8
0
 62
256
370
-1
  6
ByLayer
 10
8.5
 20
22.0
 30
0.0
 11
0.0
 21
22.0
 31
0.0
  0
LINE
  5
48
100
AcDbEntity
100
AcDbLine
  8
0
 62
256
370
-1
  6
ByLayer
 10
0.0
 20
0.0
 30
0.0
 11
57.5
 21
0.0
 31
0.0
  0
LINE
  5
49
100
AcDbEntity
100
AcDbLine
  8
0
 62
256
370
-1
  6
ByLayer
 10
281.5
 20
22.0
 30
0.0
 11
290.0
 21
22.0
 31
0.0
  0
LINE
  5
4A
100
AcDbEntity
100
AcDbLine
  8
0
 62
256
370
-1
  6
ByLayer
 10
290.0
 20
0.0
 30
0.0
 11
232.5
 21
0.0
 31
0.0
  0
LINE
  5
4B
100
AcDbEntity
100
AcDbLine
  8
0
 62
256
370
-1
  6
ByLayer
 10
30.5
 20
37.0
 30
0.0
 11
30.5
 21
22.0
 31
0.0
  0
LINE
  5
4C
100
AcDbEntity
100
AcDbLine
  8
0
 62
256
370
-1
  6
ByLayer
 10
259.5
 20
22.0
 30
0.0
 11
259.5
 21
37.0
 31
0.0
  0
LINE
  5
4D
100
AcDbEntity
100
AcDbLine
  8
0
 62
256
370
-1
  6
ByLayer
 10
30.5
 20
22.0
 30
0.0
 11
259.5
 21
22.0
 31
0.0
  0
LINE
  5
4E
100
AcDbEntity
100
AcDbLine
  8
0
 62
256
370
-1
  6
ByLayer
 10
30.5
 20
37.0
 30
0.0
 11
8.5
 21
37.0
 31
0.0
  0
LINE
  5
4F
100
AcDbEntity
100
AcDbLine
  8
0
 62
256
370
-1
  6
ByLayer
 10
259.5
 20
37.0
 30
0.0
 11
281.5
 21
37.0
 31
0.0
  0
LINE
  5
50
100
AcDbEntity
100
AcDbLine
  8
0
 62
256
370
-1
  6
ByLayer
 10
57.5
 20
-15.0
 30
0.0
 11
79.5
 21
-15.0
 31
0.0
  0
LINE
  5
51
100
AcDbEntity
100
AcDbLine
  8
0
 62
256
370
-1
  6
ByLayer
 10
79.5
 20
-15.0
 30
0.0
 11
79.5
 21
0.0
 31
0.0
  0
LINE
  5
52
100
AcDbEntity
100
AcDbLine
  8
0
 62
256
370
-1
  6
ByLayer
 10
57.5
 20
0.0
 30
0.0
 11
57.5
 21
-15.0
 31
0.0
  0
LINE
  5
53
100
AcDbEntity
100
AcDbLine
  8
0
 62
256
370
-1
  6
ByLayer
 10
232.5
 20
-15.0
 30
0.0
 11
210.5
 21
-15.0
 31
0.0
  0
LINE
  5
54
100
AcDbEntity
100
AcDbLine
  8
0
 62
256
370
-1
  6
ByLayer
 10
210.5
 20
-15.0
 30
0.0
 11
210.5
 21
0.0
 31
0.0
  0
LINE
  5
55
100
AcDbEntity
100
AcDbLine
  8
0
 62
256
370
-1
  6
ByLayer
 10
232.5
 20
0.0
 30
0.0
 11
232.5
 21
-15.0
 31
0.0
  0
LINE
  5
56
100
AcDbEntity
100
AcDbLine
  8
0
 62
256
370
-1
  6
ByLayer
 10
79.5
 20
0.0
 30
0.0
 11
210.5
 21
0.0
 31
0.0
  0
LINE
  5
57
100
AcDbEntity
100
AcDbLine
  8
0
 62
256
370
-1
  6
ByLayer
 10
11.6468994220291844
 20
27.3654106666669037
 30
0.0
 11
11.646899200000087
 21
26.4765442222224578
 31
0.0
  0
LINE
  5
58
100
AcDbEntity
100
AcDbLine
  8
0
 62
256
370
-1
  6
ByLayer
 10
11.646899200000087
 20
26.4765442222224578
 30
0.0
 11
10.1698596444445304
 21
27.3353217777780131
 31
0.0
  0
ARC
  5
59
100
AcDbEntity
  8
0
 62
256
370
-1
  6
ByLayer
100
AcDbCircle
 10
10.0581632000000862
 20
27.1431884444446787
 30
0.0
 40
0.2222222222222222
100
AcDbArc
 50
59.8254600000000067
 51
110.5290980000000047
  0
ARC
  5
5A
100
AcDbEntity
  8
0
 62
256
370
-1
  6
ByLayer
100
AcDbCircle
 10
10.0913436444445335
 20
26.9209662222224573
 30
0.0
 40
0.4444444444444444
100
AcDbArc
 50
104.4775080000000003
 51
255.5224700000000269
  0
LINE
  5
5B
100
AcDbEntity
100
AcDbLine
  8
0
 62
256
370
-1
  6
ByLayer
 10
9.646899200000087
 20
28.032077333333568
 30
0.0
 11
9.646899200000087
 21
28.9209440000002367
 31
0.0
  0
LINE
  5
5C
100
AcDbEntity
100
AcDbLine
  8
0
 62
256
370
-1
  6
ByLayer
 10
9.646899200000087
 20
28.9209440000002367
 30
0.0
 11
11.6468994221890103
 21
28.3654106666669037
 31
0.0
  0
LINE
  5
5D
100
AcDbEntity
100
AcDbLine
  8
0
 62
256
370
-1
  6
ByLayer
 10
10.5357883111111992
 20
28.4764995555557903
 30
0.0
 11
10.5357883111111992
 21
28.9209440000002331
 31
0.0
  0
LINE
  5
5E
100
AcDbEntity
100
AcDbLine
  8
0
 62
256
370
-1
  6
ByLayer
 10
9.646899200000087
 20
29.587610666666901
 30
0.0
 11
9.646899200000087
 21
30.0320551111113474
 31
0.0
  0
LINE
  5
5F
100
AcDbEntity
100
AcDbLine
  8
0
 62
256
370
-1
  6
ByLayer
 10
10.5357883111111992
 20
30.0320551111113438
 30
0.0
 11
10.5357883111111992
 21
29.8098328888891224
 31
0.0
  0
LINE
  5
60
100
AcDbEntity
100
AcDbLine
  8
0
 62
256
370
-1
  6
ByLayer
 10
10.9802325333334192
 20
30.4764995555557903
 30
0.0
 11
11.2024547555556442
 21
30.4764995555557903
 31
0.0
  0
LINE
  5
61
100
AcDbEntity
100
AcDbLine
  8
0
 62
256
370
-1
  6
ByLayer
 10
11.6468994222321864
 20
30.0320551111113474
 30
0.0
 11
11.646899200000087
 21
29.5876108888891238
 31
0.0
  0
ARC
  5
62
100
AcDbEntity
  8
0
 62
256
370
-1
  6
ByLayer
100
AcDbCircle
 10
10.0913436444445299
 20
30.0320551111113474
 30
0.0
 40
0.4444444444444444
100
AcDbArc
 50
360.0
 51
180.0
  0
ARC
  5
63
100
AcDbEntity
  8
0
 62
256
370
-1
  6
ByLayer
100
AcDbCircle
 10
10.9802325333334192
 20
30.0320551111113474
 30
0.0
 40
0.4444444444444444
100
AcDbArc
 50
90.0
 51
180.0
  0
ARC
  5
64
100
AcDbEntity
  8
0
 62
256
370
-1
  6
ByLayer
100
AcDbCircle
 10
11.2024547555556442
 20
30.0320551111113474
 30
0.0
 40
0.4444444444444444
100
AcDbArc
 50
360.0
 51
90.0
  0
LINE
  5
65
100
AcDbEntity
100
AcDbLine
  8
0
 62
256
370
-1
  6
ByLayer
 10
279.4400002220315855
 20
26.3288666666669009
 30
0.0
 11
279.4400000000024988
 21
25.4400002222224515
 31
0.0
  0
LINE
  5
66
100
AcDbEntity
100
AcDbLine
  8
0
 62
256
370
-1
  6
ByLayer
 10
279.4400000000024988
 20
25.4400002222224515
 30
0.0
 11
277.9629604444469351
 21
26.2987777777780174
 31
0.0
  0
ARC
  5
67
100
AcDbEntity
  8
0
 62
256
370
-1
  6
ByLayer
100
AcDbCircle
 10
277.8512640000025158
 20
26.1066444444446724
 30
0.0
 40
0.2222222222222222
100
AcDbArc
 50
59.8254600000000067
 51
110.5290980000000047
  0
ARC
  5
68
100
AcDbEntity
  8
0
 62
256
370
-1
  6
ByLayer
100
AcDbCircle
 10
277.8844444444469559
 20
25.8844222222224438
 30
0.0
 40
0.4444444444444444
100
AcDbArc
 50
104.4775080000000003
 51
255.5224700000000269
  0
LINE
  5
69
100
AcDbEntity
100
AcDbLine
  8
0
 62
256
370
-1
  6
ByLayer
 10
277.4400000000024988
 20
26.9955333333335616
 30
0.0
 11
277.4400000000024988
 21
27.8844000000002339
 31
0.0
  0
LINE
  5
6A
100
AcDbEntity
100
AcDbLine
  8
0
 62
256
370
-1
  6
ByLayer
 10
277.4400000000024988
 20
27.8844000000002339
 30
0.0
 11
279.4400002221914292
 21
27.328866666666876
 31
0.0
  0
LINE
  5
6B
100
AcDbEntity
100
AcDbLine
  8
0
 62
256
370
-1
  6
ByLayer
 10
278.3288891111135968
 20
27.4399555555557768
 30
0.0
 11
278.3288891111135968
 21
27.8844000000002339
 31
0.0
  0
LINE
  5
6C
100
AcDbEntity
100
AcDbLine
  8
0
 62
256
370
-1
  6
ByLayer
 10
277.4400000000024988
 20
28.5510666666668946
 30
0.0
 11
277.4400000000024988
 21
28.9955111111113517
 31
0.0
  0
LINE
  5
6D
100
AcDbEntity
100
AcDbLine
  8
0
 62
256
370
-1
  6
ByLayer
 10
278.3288891111135968
 20
28.9955111111113517
 30
0.0
 11
278.3288891111135968
 21
28.7732888888891232
 31
0.0
  0
LINE
  5
6E
100
AcDbEntity
100
AcDbLine
  8
0
 62
256
370
-1
  6
ByLayer
 10
278.7733333333358132
 20
29.4399555555558088
 30
0.0
 11
278.9955555555580418
 21
29.4399555555558088
 31
0.0
  0
LINE
  5
6F
100
AcDbEntity
100
AcDbLine
  8
0
 62
256
370
-1
  6
ByLayer
 10
279.4400002222345734
 20
28.9955111111113517
 30
0.0
 11
279.4400000000024988
 21
28.5510668888891175
 31
0.0
  0
ARC
  5
70
100
AcDbEntity
  8
0
 62
256
370
-1
  6
ByLayer
100
AcDbCircle
 10
277.8844444444469559
 20
28.9955111111113517
 30
0.0
 40
0.4444444444444444
100
AcDbArc
 50
360.0
 51
180.0
  0
ARC
  5
71
100
AcDbEntity
  8
0
 62
256
370
-1
  6
ByLayer
100
AcDbCircle
 10
278.7733333333358132
 20
28.9955111111113517
 30
0.0
 40
0.4444444444444444
100
AcDbArc
 50
90.0
 51
180.0
  0
ARC
  5
72
100
AcDbEntity
  8
0
 62
256
370
-1
  6
ByLayer
100
AcDbCircle
 10
278.9955555555580418
 20
28.9955111111113517
 30
0.0
 40
0.4444444444444444
100
AcDbArc
 50
360.0
 51
90.0
  0
LINE
  5
73
100
AcDbEntity
100
AcDbLine
  8
0
 62
256
370
-1
  6
ByLayer
 10
279.1517442220323915
 20
33.1325786666670581
 30
0.0
 11
279.1517440000033048
 21
32.2437122222226051
 31
0.0
  0
LINE
  5
74
100
AcDbEntity
100
AcDbLine
  8
0
 62
256
370
-1
  6
ByLayer
 10
279.1517440000033048
 20
32.2437122222226051
 30
0.0
 11
277.674704444447741
 21
33.1024897777781746
 31
0.0
  0
ARC
  5
75
100
AcDbEntity
  8
0
 62
256
370
-1
  6
ByLayer
100
AcDbCircle
 10
277.5630080000033217
 20
32.9103564444448295
 30
0.0
 40
0.2222222222222222
100
AcDbArc
 50
59.8254600000000067
 51
110.5290980000000047
  0
ARC
  5
76
100
AcDbEntity
  8
0
 62
256
370
-1
  6
ByLayer
100
AcDbCircle
 10
277.5961884444477619
 20
32.688134222222601
 30
0.0
 40
0.4444444444444444
100
AcDbArc
 50
104.4775080000000003
 51
255.5224700000000269
  0
LINE
  5
77
100
AcDbEntity
100
AcDbLine
  8
0
 62
256
370
-1
  6
ByLayer
 10
279.1517442220323915
 20
34.6881120000003875
 30
0.0
 11
279.1517440000033048
 21
33.7992455555559346
 31
0.0
  0
LINE
  5
78
100
AcDbEntity
100
AcDbLine
  8
0
 62
256
370
-1
  6
ByLayer
 10
279.1517440000033048
 20
33.7992455555559346
 30
0.0
 11
277.674704444447741
 21
34.658023111111504
 31
0.0
  0
ARC
  5
79
100
AcDbEntity
  8
0
 62
256
370
-1
  6
ByLayer
100
AcDbCircle
 10
277.5630080000033217
 20
34.465889777778159
 30
0.0
 40
0.2222222222222222
100
AcDbArc
 50
59.8254600000000067
 51
110.5290980000000047
  0
ARC
  5
7A
100
AcDbEntity
  8
0
 62
256
370
-1
  6
ByLayer
100
AcDbCircle
 10
277.5961884444477619
 20
34.2436675555559304
 30
0.0
 40
0.4444444444444444
100
AcDbArc
 50
104.4775080000000003
 51
255.5224700000000269
  0
LINE
  5
7B
100
AcDbEntity
100
AcDbLine
  8
0
 62
256
370
-1
  6
ByLayer
 10
262.1123842220322331
 20
32.9359706666670533
 30
0.0
 11
262.1123840000031464
 21
32.0471042222226004
 31
0.0
  0
LINE
  5
7C
100
AcDbEntity
100
AcDbLine
  8
0
 62
256
370
-1
  6
ByLayer
 10
262.1123840000031464
 20
32.0471042222226004
 30
0.0
 11
260.6353444444475826
 21
32.9058817777781698
 31
0.0
  0
ARC
  5
7D
100
AcDbEntity
  8
0
 62
256
370
-1
  6
ByLayer
100
AcDbCircle
 10
260.5236480000031634
 20
32.7137484444448248
 30
0.0
 40
0.2222222222222222
100
AcDbArc
 50
59.8254600000000067
 51
110.5290980000000047
  0
ARC
  5
7E
100
AcDbEntity
  8
0
 62
256
370
-1
  6
ByLayer
100
AcDbCircle
 10
260.5568284444476035
 20
32.4915262222225962
 30
0.0
 40
0.4444444444444444
100
AcDbArc
 50
104.4775080000000003
 51
255.5224700000000269
  0
LINE
  5
7F
100
AcDbEntity
100
AcDbLine
  8
0
 62
256
370
-1
  6
ByLayer
 10
262.1123842220322331
 20
34.4915040000003827
 30
0.0
 11
262.1123840000031464
 21
33.6026375555559298
 31
0.0
  0
LINE
  5
80
100
AcDbEntity
100
AcDbLine
  8
0
 62
256
370
-1
  6
ByLayer
 10
262.1123840000031464
 20
33.6026375555559298
 30
0.0
 11
260.6353444444475826
 21
34.4614151111114992
 31
0.0
  0
ARC
  5
81
100
AcDbEntity
  8
0
 62
256
370
-1
  6
ByLayer
100
AcDbCircle
 10
260.5236480000031634
 20
34.2692817777781542
 30
0.0
 40
0.2222222222222222
100
AcDbArc
 50
59.8254600000000067
 51
110.5290980000000047
  0
ARC
  5
82
100
AcDbEntity
  8
0
 62
256
370
-1
  6
ByLayer
100
AcDbCircle
 10
260.5568284444476035
 20
34.0470595555559257
 30
0.0
 40
0.4444444444444444
100
AcDbArc
 50
104.4775080000000003
 51
255.5224700000000269
  0
LINE
  5
83
100
AcDbEntity
100
AcDbLine
  8
0
 62
256
370
-1
  6
ByLayer
 10
11.6000002220292355
 20
33.5288666666671347
 30
0.0
 11
11.6000000000001382
 21
32.6400002222226888
 31
0.0
  0
LINE
  5
84
100
AcDbEntity
100
AcDbLine
  8
0
 62
256
370
-1
  6
ByLayer
 10
11.6000000000001382
 20
32.6400002222226888
 30
0.0
 11
10.1229604444445815
 21
33.4987777777782441
 31
0.0
  0
ARC
  5
85
100
AcDbEntity
  8
0
 62
256
370
-1
  6
ByLayer
100
AcDbCircle
 10
10.0112640000001409
 20
33.3066444444449132
 30
0.0
 40
0.2222222222222222
100
AcDbArc
 50
59.8254600000000067
 51
110.5290980000000047
  0
ARC
  5
86
100
AcDbEntity
  8
0
 62
256
370
-1
  6
ByLayer
100
AcDbCircle
 10
10.0444444444445811
 20
33.0844222222226918
 30
0.0
 40
0.4444444444444444
100
AcDbArc
 50
104.4775080000000003
 51
255.5224700000000269
  0
LINE
  5
87
100
AcDbEntity
100
AcDbLine
  8
0
 62
256
370
-1
  6
ByLayer
 10
11.6000002220292355
 20
35.0844000000004641
 30
0.0
 11
11.6000000000001382
 21
34.1955335555560183
 31
0.0
  0
LINE
  5
88
100
AcDbEntity
100
AcDbLine
  8
0
 62
256
370
-1
  6
ByLayer
 10
11.6000000000001382
 20
34.1955335555560183
 30
0.0
 11
10.1229604444445815
 21
35.0543111111115735
 31
0.0
  0
ARC
  5
89
100
AcDbEntity
  8
0
 62
256
370
-1
  6
ByLayer
100
AcDbCircle
 10
10.0112640000001409
 20
34.8621777777782427
 30
0.0
 40
0.2222222222222222
100
AcDbArc
 50
59.8254600000000067
 51
110.5290980000000047
  0
ARC
  5
8A
100
AcDbEntity
  8
0
 62
256
370
-1
  6
ByLayer
100
AcDbCircle
 10
10.0444444444445811
 20
34.6399555555560212
 30
0.0
 40
0.4444444444444444
100
AcDbArc
 50
104.4775080000000003
 51
255.5224700000000269
  0
LINE
  5
8B
100
AcDbEntity
100
AcDbLine
  8
0
 62
256
370
-1
  6
ByLayer
 10
29.0080002220294837
 20
33.1448666666671272
 30
0.0
 11
29.0080000000003864
 21
32.2560002222226814
 31
0.0
  0
LINE
  5
8C
100
AcDbEntity
100
AcDbLine
  8
0
 62
256
370
-1
  6
ByLayer
 10
29.0080000000003864
 20
32.2560002222226814
 30
0.0
 11
27.5309604444448297
 21
33.1147777777782437
 31
0.0
  0
ARC
  5
8D
100
AcDbEntity
  8
0
 62
256
370
-1
  6
ByLayer
100
AcDbCircle
 10
27.4192640000003891
 20
32.9226444444449058
 30
0.0
 40
0.2222222222222222
100
AcDbArc
 50
59.8254600000000067
 51
110.5290980000000047
  0
ARC
  5
8E
100
AcDbEntity
  8
0
 62
256
370
-1
  6
ByLayer
100
AcDbCircle
 10
27.4524444444448292
 20
32.7004222222226844
 30
0.0
 40
0.4444444444444444
100
AcDbArc
 50
104.4775080000000003
 51
255.5224700000000269
  0
LINE
  5
8F
100
AcDbEntity
100
AcDbLine
  8
0
 62
256
370
-1
  6
ByLayer
 10
29.0080002220294837
 20
34.7004000000004567
 30
0.0
 11
29.0080000000003864
 21
33.8115335555560108
 31
0.0
  0
LINE
  5
90
100
AcDbEntity
100
AcDbLine
  8
0
 62
256
370
-1
  6
ByLayer
 10
29.0080000000003864
 20
33.8115335555560108
 30
0.0
 11
27.5309604444448297
 21
34.6703111111115732
 31
0.0
  0
ARC
  5
91
100
AcDbEntity
  8
0
 62
256
370
-1
  6
ByLayer
100
AcDbCircle
 10
27.4192640000003891
 20
34.4781777777782352
 30
0.0
 40
0.2222222222222222
100
AcDbArc
 50
59.8254600000000067
 51
110.5290980000000047
  0
ARC
  5
92
100
AcDbEntity
  8
0
 62
256
370
-1
  6
ByLayer
100
AcDbCircle
 10
27.4524444444448292
 20
34.2559555555560138
 30
0.0
 40
0.4444444444444444
100
AcDbArc
 50
104.4775080000000003
 51
255.5224700000000269
  0
LINE
  5
93
100
AcDbEntity
100
AcDbLine
  8
0
 62
256
370
-1
  6
ByLayer
 10
60.4089602220300108
 20
-13.1194533333335546
 30
0.0
 11
60.408960000000917
 21
-14.0083197777779969
 31
0.0
  0
LINE
  5
94
100
AcDbEntity
100
AcDbLine
  8
0
 62
256
370
-1
  6
ByLayer
 10
60.408960000000917
 20
-14.0083197777779969
 30
0.0
 11
58.9319204444453604
 21
-13.1495422222224381
 31
0.0
  0
ARC
  5
95
100
AcDbEntity
  8
0
 62
256
370
-1
  6
ByLayer
100
AcDbCircle
 10
58.8202240000009198
 20
-13.341675555555776
 30
0.0
 40
0.2222222222222222
100
AcDbArc
 50
59.8254600000000067
 51
110.5290980000000047
  0
ARC
  5
96
100
AcDbEntity
  8
0
 62
256
370
-1
  6
ByLayer
100
AcDbCircle
 10
58.8534044444453599
 20
-13.5638977777779974
 30
0.0
 40
0.4444444444444444
100
AcDbArc
 50
104.4775080000000003
 51
255.5224700000000269
  0
LINE
  5
97
100
AcDbEntity
100
AcDbLine
  8
0
 62
256
370
-1
  6
ByLayer
 10
60.4089602220300108
 20
-11.5639200000002216
 30
0.0
 11
60.408960000000917
 21
-12.4527864444446639
 31
0.0
  0
LINE
  5
98
100
AcDbEntity
100
AcDbLine
  8
0
 62
256
370
-1
  6
ByLayer
 10
60.408960000000917
 20
-12.4527864444446639
 30
0.0
 11
58.9319204444453604
 21
-11.5940088888891051
 31
0.0
  0
ARC
  5
99
100
AcDbEntity
  8
0
 62
256
370
-1
  6
ByLayer
100
AcDbCircle
 10
58.8202240000009198
 20
-11.786142222222443
 30
0.0
 40
0.2222222222222222
100
AcDbArc
 50
59.8254600000000067
 51
110.5290980000000047
  0
ARC
  5
9A
100
AcDbEntity
  8
0
 62
256
370
-1
  6
ByLayer
100
AcDbCircle
 10
58.8534044444453599
 20
-12.0083644444446644
 30
0.0
 40
0.4444444444444444
100
AcDbArc
 50
104.4775080000000003
 51
255.5224700000000269
  0
LINE
  5
9B
100
AcDbEntity
100
AcDbLine
  8
0
 62
256
370
-1
  6
ByLayer
 10
78.5952002220303001
 20
-13.2013733333335495
 30
0.0
 11
78.5952000000011992
 21
-14.0902397777779989
 31
0.0
  0
LINE
  5
9C
100
AcDbEntity
100
AcDbLine
  8
0
 62
256
370
-1
  6
ByLayer
 10
78.5952000000011992
 20
-14.0902397777779989
 30
0.0
 11
77.1181604444456497
 21
-13.2314622222224472
 31
0.0
  0
ARC
  5
9D
100
AcDbEntity
  8
0
 62
256
370
-1
  6
ByLayer
100
AcDbCircle
 10
77.006464000001202
 20
-13.423595555555778
 30
0.0
 40
0.2222222222222222
100
AcDbArc
 50
59.8254600000000067
 51
110.5290980000000047
  0
ARC
  5
9E
100
AcDbEntity
  8
0
 62
256
370
-1
  6
ByLayer
100
AcDbCircle
 10
77.0396444444456421
 20
-13.6458177777780065
 30
0.0
 40
0.4444444444444444
100
AcDbArc
 50
104.4775080000000003
 51
255.5224700000000269
  0
LINE
  5
9F
100
AcDbEntity
100
AcDbLine
  8
0
 62
256
370
-1
  6
ByLayer
 10
78.5952002220303001
 20
-11.6458400000002165
 30
0.0
 11
78.5952000000011992
 21
-12.5347064444446659
 31
0.0
  0
LINE
  5
A0
100
AcDbEntity
100
AcDbLine
  8
0
 62
256
370
-1
  6
ByLayer
 10
78.5952000000011992
 20
-12.5347064444446659
 30
0.0
 11
77.1181604444456497
 21
-11.6759288888891142
 31
0.0
  0
ARC
  5
A1
100
AcDbEntity
  8
0
 62
256
370
-1
  6
ByLayer
100
AcDbCircle
 10
77.006464000001202
 20
-11.868062222222445
 30
0.0
 40
0.2222222222222222
100
AcDbArc
 50
59.8254600000000067
 51
110.5290980000000047
  0
ARC
  5
A2
100
AcDbEntity
  8
0
 62
256
370
-1
  6
ByLayer
100
AcDbCircle
 10
77.0396444444456421
 20
-12.0902844444446735
 30
0.0
 40
0.4444444444444444
100
AcDbArc
 50
104.4775080000000003
 51
255.5224700000000269
  0
LINE
  5
A3
100
AcDbEntity
100
AcDbLine
  8
0
 62
256
370
-1
  6
ByLayer
 10
213.5174402220326897
 20
-12.7917733333335608
 30
0.0
 11
213.517440000003603
 21
-13.6806397777780102
 31
0.0
  0
LINE
  5
A4
100
AcDbEntity
100
AcDbLine
  8
0
 62
256
370
-1
  6
ByLayer
 10
213.517440000003603
 20
-13.6806397777780102
 30
0.0
 11
212.0404004444480393
 21
-12.8218622222224443
 31
0.0
  0
ARC
  5
A5
100
AcDbEntity
  8
0
 62
256
370
-1
  6
ByLayer
100
AcDbCircle
 10
211.9287040000035915
 20
-13.0139955555557894
 30
0.0
 40
0.2222222222222222
100
AcDbArc
 50
59.8254600000000067
 51
110.5290980000000047
  0
ARC
  5
A6
100
AcDbEntity
  8
0
 62
256
370
-1
  6
ByLayer
100
AcDbCircle
 10
211.9618844444480601
 20
-13.2362177777780179
 30
0.0
 40
0.4444444444444444
100
AcDbArc
 50
104.4775080000000003
 51
255.5224700000000269
  0
LINE
  5
A7
100
AcDbEntity
100
AcDbLine
  8
0
 62
256
370
-1
  6
ByLayer
 10
213.5174402220326897
 20
-11.2362400000002278
 30
0.0
 11
213.517440000003603
 21
-12.1251064444446772
 31
0.0
  0
LINE
  5
A8
100
AcDbEntity
100
AcDbLine
  8
0
 62
256
370
-1
  6
ByLayer
 10
213.517440000003603
 20
-12.1251064444446772
 30
0.0
 11
212.0404004444480393
 21
-11.2663288888891113
 31
0.0
  0
ARC
  5
A9
100
AcDbEntity
  8
0
 62
256
370
-1
  6
ByLayer
100
AcDbCircle
 10
211.9287040000035915
 20
-11.4584622222224564
 30
0.0
 40
0.2222222222222222
100
AcDbArc
 50
59.8254600000000067
 51
110.5290980000000047
  0
ARC
  5
AA
100
AcDbEntity
  8
0
 62
256
370
-1
  6
ByLayer
100
AcDbCircle
 10
211.9618844444480601
 20
-11.6806844444446849
 30
0.0
 40
0.4444444444444444
100
AcDbArc
 50
104.4775080000000003
 51
255.5224700000000269
  0
LINE
  5
AB
100
AcDbEntity
100
AcDbLine
  8
0
 62
256
370
-1
  6
ByLayer
 10
231.6217602220330036
 20
-13.119453333333567
 30
0.0
 11
231.621760000003917
 21
-14.0083197777780164
 31
0.0
  0
LINE
  5
AC
100
AcDbEntity
100
AcDbLine
  8
0
 62
256
370
-1
  6
ByLayer
 10
231.621760000003917
 20
-14.0083197777780164
 30
0.0
 11
230.1447204444483532
 21
-13.1495422222224505
 31
0.0
  0
ARC
  5
AD
100
AcDbEntity
  8
0
 62
256
370
-1
  6
ByLayer
100
AcDbCircle
 10
230.0330240000039055
 20
-13.3416755555557955
 30
0.0
 40
0.2222222222222222
100
AcDbArc
 50
59.8254600000000067
 51
110.5290980000000047
  0
ARC
  5
AE
100
AcDbEntity
  8
0
 62
256
370
-1
  6
ByLayer
100
AcDbCircle
 10
230.066204444448374
 20
-13.5638977777780241
 30
0.0
 40
0.4444444444444444
100
AcDbArc
 50
104.4775080000000003
 51
255.5224700000000269
  0
LINE
  5
AF
100
AcDbEntity
100
AcDbLine
  8
0
 62
256
370
-1
  6
ByLayer
 10
231.6217602220330036
 20
-11.563920000000234
 30
0.0
 11
231.621760000003917
 21
-12.4527864444446834
 31
0.0
  0
LINE
  5
B0
100
AcDbEntity
100
AcDbLine
  8
0
 62
256
370
-1
  6
ByLayer
 10
231.621760000003917
 20
-12.4527864444446834
 30
0.0
 11
230.1447204444483532
 21
-11.5940088888891175
 31
0.0
  0
ARC
  5
B1
100
AcDbEntity
  8
0
 62
256
370
-1
  6
ByLayer
100
AcDbCircle
 10
230.0330240000039055
 20
-11.7861422222224626
 30
0.0
 40
0.2222222222222222
100
AcDbArc
 50
59.8254600000000067
 51
110.5290980000000047
  0
ARC
  5
B2
100
AcDbEntity
  8
0
 62
256
370
-1
  6
ByLayer
100
AcDbCircle
 10
230.066204444448374
 20
-12.0083644444446911
 30
0.0
 40
0.4444444444444444
100
AcDbArc
 50
104.4775080000000003
 51
255.5224700000000269
  0
LINE
  5
B3
100
AcDbEntity
100
AcDbLine
  8
0
 62
256
370
-1
  6
ByLayer
 10
2.3961946666666929
 20
19.2991997779712818
 30
0.0
 11
1.5073282222222493
 21
19.2992000000003792
 31
0.0
  0
LINE
  5
B4
100
AcDbEntity
100
AcDbLine
  8
0
 62
256
370
-1
  6
ByLayer
 10
1.5073282222222493
 20
19.2992000000003792
 30
0.0
 11
2.3661057777778041
 21
20.7762395555559358
 31
0.0
  0
ARC
  5
B5
100
AcDbEntity
  8
0
 62
256
370
-1
  6
ByLayer
100
AcDbCircle
 10
2.1739724444444706
 20
20.88793600000038
 30
0.0
 40
0.2222222222222222
100
AcDbArc
 50
329.825460000000021
 51
20.5290980000000012
  0
ARC
  5
B6
100
AcDbEntity
  8
0
 62
256
370
-1
  6
ByLayer
100
AcDbCircle
 10
1.9517502222222487
 20
20.8547555555559327
 30
0.0
 40
0.4444444444444444
100
AcDbArc
 50
14.4775080000000003
 51
165.5224699999999984
  0
LINE
  5
B7
100
AcDbEntity
100
AcDbLine
  8
0
 62
256
370
-1
  6
ByLayer
 10
3.9517280000000263
 20
19.2991997779712818
 30
0.0
 11
3.0628615555555827
 21
19.2992000000003792
 31
0.0
  0
LINE
  5
B8
100
AcDbEntity
100
AcDbLine
  8
0
 62
256
370
-1
  6
ByLayer
 10
3.0628615555555827
 20
19.2992000000003792
 30
0.0
 11
3.9216391111111379
 21
20.7762395555559358
 31
0.0
  0
ARC
  5
B9
100
AcDbEntity
  8
0
 62
256
370
-1
  6
ByLayer
100
AcDbCircle
 10
3.729505777777804
 20
20.88793600000038
 30
0.0
 40
0.2222222222222222
100
AcDbArc
 50
329.825460000000021
 51
20.5290980000000012
  0
ARC
  5
BA
100
AcDbEntity
  8
0
 62
256
370
-1
  6
ByLayer
100
AcDbCircle
 10
3.5072835555555821
 20
20.8547555555559327
 30
0.0
 40
0.4444444444444444
100
AcDbArc
 50
14.4775080000000003
 51
165.5224699999999984
  0
LINE
  5
BB
100
AcDbEntity
100
AcDbLine
  8
0
 62
256
370
-1
  6
ByLayer
 10
1.7848666666666824
 20
1.1999997779709608
 30
0.0
 11
0.8960002222222381
 21
1.2000000000000579
 31
0.0
  0
LINE
  5
BC
100
AcDbEntity
100
AcDbLine
  8
0
 62
256
370
-1
  6
ByLayer
 10
0.8960002222222381
 20
1.2000000000000579
 30
0.0
 11
1.754777777777794
 21
2.6770395555556128
 31
0.0
  0
ARC
  5
BD
100
AcDbEntity
  8
0
 62
256
370
-1
  6
ByLayer
100
AcDbCircle
 10
1.5626444444444605
 20
2.7887360000000578
 30
0.0
 40
0.2222222222222222
100
AcDbArc
 50
329.825460000000021
 51
20.5290980000000012
  0
ARC
  5
BE
100
AcDbEntity
  8
0
 62
256
370
-1
  6
ByLayer
100
AcDbCircle
 10
1.3404222222222382
 20
2.7555555555556133
 30
0.0
 40
0.4444444444444444
100
AcDbArc
 50
14.4775080000000003
 51
165.5224699999999984
  0
LINE
  5
BF
100
AcDbEntity
100
AcDbLine
  8
0
 62
256
370
-1
  6
ByLayer
 10
3.3404000000000158
 20
1.1999997779709604
 30
0.0
 11
2.4515335555555717
 21
1.2000000000000575
 31
0.0
  0
LINE
  5
C0
100
AcDbEntity
100
AcDbLine
  8
0
 62
256
370
-1
  6
ByLayer
 10
2.4515335555555717
 20
1.2000000000000575
 30
0.0
 11
3.310311111111127
 21
2.6770395555556128
 31
0.0
  0
ARC
  5
C1
100
AcDbEntity
  8
0
 62
256
370
-1
  6
ByLayer
100
AcDbCircle
 10
3.1181777777777935
 20
2.7887360000000574
 30
0.0
 40
0.2222222222222222
100
AcDbArc
 50
329.825460000000021
 51
20.5290980000000012
  0
ARC
  5
C2
100
AcDbEntity
  8
0
 62
256
370
-1
  6
ByLayer
100
AcDbCircle
 10
2.8959555555555716
 20
2.7555555555556128
 30
0.0
 40
0.4444444444444444
100
AcDbArc
 50
14.4775080000000003
 51
165.5224699999999984
  0
LINE
  5
C3
100
AcDbEntity
100
AcDbLine
  8
0
 62
256
370
-1
  6
ByLayer
 10
285.9704666666722801
 20
19.0943997779713186
 30
0.0
 11
285.0816002222278485
 21
19.0944000000004159
 31
0.0
  0
LINE
  5
C4
100
AcDbEntity
100
AcDbLine
  8
0
 62
256
370
-1
  6
ByLayer
 10
285.0816002222278485
 20
19.0944000000004159
 30
0.0
 11
285.9403777777833966
 21
20.5714395555559726
 31
0.0
  0
ARC
  5
C5
100
AcDbEntity
  8
0
 62
256
370
-1
  6
ByLayer
100
AcDbCircle
 10
285.7482444444500516
 20
20.6831360000004167
 30
0.0
 40
0.2222222222222222
100
AcDbArc
 50
329.825460000000021
 51
20.5290980000000012
  0
ARC
  5
C6
100
AcDbEntity
  8
0
 62
256
370
-1
  6
ByLayer
100
AcDbCircle
 10
285.526022222227823
 20
20.6499555555559695
 30
0.0
 40
0.4444444444444444
100
AcDbArc
 50
14.4775080000000003
 51
165.5224699999999984
  0
LINE
  5
C7
100
AcDbEntity
100
AcDbLine
  8
0
 62
256
370
-1
  6
ByLayer
 10
287.526000000005638
 20
19.0943997779713186
 30
0.0
 11
286.6371335555612063
 21
19.0944000000004159
 31
0.0
  0
LINE
  5
C8
100
AcDbEntity
100
AcDbLine
  8
0
 62
256
370
-1
  6
ByLayer
 10
286.6371335555612063
 20
19.0944000000004159
 30
0.0
 11
287.4959111111167545
 21
20.5714395555559726
 31
0.0
  0
ARC
  5
C9
100
AcDbEntity
  8
0
 62
256
370
-1
  6
ByLayer
100
AcDbCircle
 10
287.3037777777834094
 20
20.6831360000004167
 30
0.0
 40
0.2222222222222222
100
AcDbArc
 50
329.825460000000021
 51
20.5290980000000012
  0
ARC
  5
CA
100
AcDbEntity
  8
0
 62
256
370
-1
  6
ByLayer
100
AcDbCircle
 10
287.0815555555611809
 20
20.6499555555559695
 30
0.0
 40
0.4444444444444444
100
AcDbArc
 50
14.4775080000000003
 51
165.5224699999999984
  0
LINE
  5
CB
100
AcDbEntity
100
AcDbLine
  8
0
 62
256
370
-1
  6
ByLayer
 10
285.8680666666722914
 20
1.7887997779709772
 30
0.0
 11
284.9792002222278597
 21
1.7888000000000743
 31
0.0
  0
LINE
  5
CC
100
AcDbEntity
100
AcDbLine
  8
0
 62
256
370
-1
  6
ByLayer
 10
284.9792002222278597
 20
1.7888000000000743
 30
0.0
 11
285.8379777777834079
 21
3.2658395555556297
 31
0.0
  0
ARC
  5
CD
100
AcDbEntity
  8
0
 62
256
370
-1
  6
ByLayer
100
AcDbCircle
 10
285.6458444444500628
 20
3.3775360000000743
 30
0.0
 40
0.2222222222222222
100
AcDbArc
 50
329.825460000000021
 51
20.5290980000000012
  0
ARC
  5
CE
100
AcDbEntity
  8
0
 62
256
370
-1
  6
ByLayer
100
AcDbCircle
 10
285.4236222222278343
 20
3.3443555555556297
 30
0.0
 40
0.4444444444444444
100
AcDbArc
 50
14.4775080000000003
 51
165.5224699999999984
  0
LINE
  5
CF
100
AcDbEntity
100
AcDbLine
  8
0
 62
256
370
-1
  6
ByLayer
 10
287.4236000000056492
 20
1.7887997779709768
 30
0.0
 11
286.5347335555612176
 21
1.7888000000000739
 31
0.0
  0
LINE
  5
D0
100
AcDbEntity
100
AcDbLine
  8
0
 62
256
370
-1
  6
ByLayer
 10
286.5347335555612176
 20
1.7888000000000739
 30
0.0
 11
287.3935111111167657
 21
3.2658395555556297
 31
0.0
  0
ARC
  5
D1
100
AcDbEntity
  8
0
 62
256
370
-1
  6
ByLayer
100
AcDbCircle
 10
287.2013777777834207
 20
3.3775360000000738
 30
0.0
 40
0.2222222222222222
100
AcDbArc
 50
329.825460000000021
 51
20.5290980000000012
  0
ARC
  5
D2
100
AcDbEntity
  8
0
 62
256
370
-1
  6
ByLayer
100
AcDbCircle
 10
286.9791555555611922
 20
3.3443555555556292
 30
0.0
 40
0.4444444444444444
100
AcDbArc
 50
14.4775080000000003
 51
165.5224699999999984
  0
LINE
  5
D3
100
AcDbEntity
100
AcDbLine
  8
0
 62
256
370
-1
  6
ByLayer
 10
288.8224002220347302
 20
10.5144666666668609
 30
0.0
 11
288.8224000000056435
 21
9.6256002222224115
 31
0.0
  0
LINE
  5
D4
100
AcDbEntity
100
AcDbLine
  8
0
 62
256
370
-1
  6
ByLayer
 10
288.8224000000056435
 20
9.6256002222224115
 30
0.0
 11
287.3453604444500797
 21
10.4843777777779774
 31
0.0
  0
ARC
  5
D5
100
AcDbEntity
  8
0
 62
256
370
-1
  6
ByLayer
100
AcDbCircle
 10
287.2336640000056605
 20
10.2922444444446324
 30
0.0
 40
0.2222222222222222
100
AcDbArc
 50
59.8254600000000067
 51
110.5290980000000047
  0
ARC
  5
D6
100
AcDbEntity
  8
0
 62
256
370
-1
  6
ByLayer
100
AcDbCircle
 10
287.2668444444501006
 20
10.0700222222224038
 30
0.0
 40
0.4444444444444444
100
AcDbArc
 50
104.4775080000000003
 51
255.5224700000000269
  0
LINE
  5
D7
100
AcDbEntity
100
AcDbLine
  8
0
 62
256
370
-1
  6
ByLayer
 10
287.6677000000056523
 20
12.0700222222224358
 30
0.0
 11
287.2668444444501006
 21
12.0700222222224358
 31
0.0
  0
LINE
  5
D8
100
AcDbEntity
100
AcDbLine
  8
0
 62
256
370
-1
  6
ByLayer
 10
287.2668444444501006
 20
11.1811111111112798
 30
0.0
 11
287.4890668888945129
 21
11.1811111111112798
 31
0.0
  0
LINE
  5
D9
100
AcDbEntity
100
AcDbLine
  8
0
 62
256
370
-1
  6
ByLayer
 10
287.9335111111167294
 20
11.6255777777779787
 30
0.0
 11
287.9335111111167294
 21
12.0432666666668258
 31
0.0
  0
ARC
  5
DA
100
AcDbEntity
  8
0
 62
256
370
-1
  6
ByLayer
100
AcDbCircle
 10
287.6677000000056523
 20
10.7366666666668795
 30
0.0
 40
1.3333333333333333
100
AcDbArc
 50
30.0000000000000178
 51
90.0
  0
ARC
  5
DB
100
AcDbEntity
  8
0
 62
256
370
-1
  6
ByLayer
100
AcDbCircle
 10
287.2668444444501006
 20
11.6255777777779787
 30
0.0
 40
0.4444444444444444
100
AcDbArc
 50
90.0
 51
270.0
  0
ARC
  5
DC
100
AcDbEntity
  8
0
 62
256
370
-1
  6
ByLayer
100
AcDbCircle
 10
287.4890668888945129
 20
11.6255777777779787
 30
0.0
 40
0.4444444444444444
100
AcDbArc
 50
270.0
 51
360.0
  0
ARC
  5
DD
100
AcDbEntity
  8
0
 62
256
370
-1
  6
ByLayer
100
AcDbCircle
 10
287.0645133333389936
 20
13.1811333333335341
 30
0.0
 40
0.2421133333333333
100
AcDbArc
 50
122.7569500000000033
 51
237.2430419999999742
  0
ARC
  5
DE
100
AcDbEntity
  8
0
 62
256
370
-1
  6
ByLayer
100
AcDbCircle
 10
287.5727288888945168
 20
13.8329888888890622
 30
0.0
 40
1.0679088888888888
100
AcDbArc
 50
233.232467999999983
 51
259.4911350000000425
  0
ARC
  5
DF
100
AcDbEntity
  8
0
 62
256
370
-1
  6
ByLayer
100
AcDbCircle
 10
288.0720711111167702
 20
13.8329888888890622
 30
0.0
 40
1.0679088888888888
100
AcDbArc
 50
280.5088649999999575
 51
306.767532000000017
  0
ARC
  5
E0
100
AcDbEntity
  8
0
 62
256
370
-1
  6
ByLayer
100
AcDbCircle
 10
288.5802866666722934
 20
13.1811333333335341
 30
0.0
 40
0.2421133333333333
100
AcDbArc
 50
302.7569580000000542
 51
57.2430420000000169
  0
ARC
  5
E1
100
AcDbEntity
  8
0
 62
256
370
-1
  6
ByLayer
100
AcDbCircle
 10
288.0720711111167702
 20
12.5292777777779492
 30
0.0
 40
1.0679088888888888
100
AcDbArc
 50
53.2324520000000234
 51
79.4911190000000119
  0
ARC
  5
E2
100
AcDbEntity
  8
0
 62
256
370
-1
  6
ByLayer
100
AcDbCircle
 10
287.8292755555611961
 20
11.5356526666668486
 30
0.0
 40
2.0899399999999999
100
AcDbArc
 50
77.913146999999995
 51
90.1885099999999937
  0
ARC
  5
E3
100
AcDbEntity
  8
0
 62
256
370
-1
  6
ByLayer
100
AcDbCircle
 10
287.8155244444500909
 20
11.5356526666668486
 30
0.0
 40
2.0899399999999999
100
AcDbArc
 50
89.8114929999999845
 51
102.0868600000000015
  0
ARC
  5
E4
100
AcDbEntity
  8
0
 62
256
370
-1
  6
ByLayer
100
AcDbCircle
 10
287.5727288888945168
 20
12.5292777777779492
 30
0.0
 40
1.0679088888888888
100
AcDbArc
 50
100.5088700000000017
 51
126.7675399999999968
  0
ARC
  5
E5
100
AcDbEntity
  8
0
 62
256
370
-1
  6
ByLayer
100
AcDbCircle
 10
287.8292755555611961
 20
14.8266140000001627
 30
0.0
 40
2.0899399999999999
100
AcDbArc
 50
269.8114930000000413
 51
282.0868680000000381
  0
ARC
  5
E6
100
AcDbEntity
  8
0
 62
256
370
-1
  6
ByLayer
100
AcDbCircle
 10
287.8155244444500909
 20
14.8266140000001627
 30
0.0
 40
2.0899399999999999
100
AcDbArc
 50
257.9131319999999619
 51
270.1885069999999587
  0
LINE
  5
E7
100
AcDbEntity
100
AcDbLine
  8
0
 62
256
370
-1
  6
ByLayer
 10
3.6384002220291327
 20
10.3915866666668713
 30
0.0
 11
3.6384000000000354
 21
9.502720222222429
 31
0.0
  0
LINE
  5
E8
100
AcDbEntity
100
AcDbLine
  8
0
 62
256
370
-1
  6
ByLayer
 10
3.6384000000000354
 20
9.502720222222429
 30
0.0
 11
2.1613604444444805
 21
10.3614977777779842
 31
0.0
  0
ARC
  5
E9
100
AcDbEntity
  8
0
 62
256
370
-1
  6
ByLayer
100
AcDbCircle
 10
2.0496640000000363
 20
10.1693644444446498
 30
0.0
 40
0.2222222222222222
100
AcDbArc
 50
59.8254600000000067
 51
110.5290980000000047
  0
ARC
  5
EA
100
AcDbEntity
  8
0
 62
256
370
-1
  6
ByLayer
100
AcDbCircle
 10
2.08284444444448
 20
9.9471422222224284
 30
0.0
 40
0.4444444444444444
100
AcDbArc
 50
104.4775080000000003
 51
255.5224700000000269
  0
LINE
  5
EB
100
AcDbEntity
100
AcDbLine
  8
0
 62
256
370
-1
  6
ByLayer
 10
2.4837000000000358
 20
11.9471422222224284
 30
0.0
 11
2.0828444444444809
 21
11.9471422222224284
 31
0.0
  0
LINE
  5
EC
100
AcDbEntity
100
AcDbLine
  8
0
 62
256
370
-1
  6
ByLayer
 10
2.0828444444444805
 20
11.0582311111113167
 30
0.0
 11
2.3050668888889247
 21
11.0582311111113167
 31
0.0
  0
LINE
  5
ED
100
AcDbEntity
100
AcDbLine
  8
0
 62
256
370
-1
  6
ByLayer
 10
2.7495111111111465
 20
11.5026977777779837
 30
0.0
 11
2.7495111111111461
 21
11.9203866666668716
 31
0.0
  0
ARC
  5
EE
100
AcDbEntity
  8
0
 62
256
370
-1
  6
ByLayer
100
AcDbCircle
 10
2.4837000000000362
 20
10.6137866666668721
 30
0.0
 40
1.3333333333333333
100
AcDbArc
 50
30.0000000000000178
 51
90.0
  0
ARC
  5
EF
100
AcDbEntity
  8
0
 62
256
370
-1
  6
ByLayer
100
AcDbCircle
 10
2.0828444444444805
 20
11.5026977777779837
 30
0.0
 40
0.4444444444444444
100
AcDbArc
 50
90.0
 51
270.0
  0
ARC
  5
F0
100
AcDbEntity
  8
0
 62
256
370
-1
  6
ByLayer
100
AcDbCircle
 10
2.3050668888889252
 20
11.5026977777779837
 30
0.0
 40
0.4444444444444444
100
AcDbArc
 50
270.0
 51
360.0
  0
ARC
  5
F1
100
AcDbEntity
  8
0
 62
256
370
-1
  6
ByLayer
100
AcDbCircle
 10
1.8805133333333701
 20
13.0582533333335391
 30
0.0
 40
0.2421133333333333
100
AcDbArc
 50
122.7569500000000033
 51
237.2430419999999742
  0
ARC
  5
F2
100
AcDbEntity
  8
0
 62
256
370
-1
  6
ByLayer
100
AcDbCircle
 10
2.3887288888889255
 20
13.7101088888890938
 30
0.0
 40
1.0679088888888888
100
AcDbArc
 50
233.232467999999983
 51
259.4911350000000425
  0
ARC
  5
F3
100
AcDbEntity
  8
0
 62
256
370
-1
  6
ByLayer
100
AcDbCircle
 10
2.888071111111147
 20
13.7101088888890938
 30
0.0
 40
1.0679088888888888
100
AcDbArc
 50
280.5088649999999575
 51
306.767532000000017
  0
ARC
  5
F4
100
AcDbEntity
  8
0
 62
256
370
-1
  6
ByLayer
100
AcDbCircle
 10
3.3962866666667018
 20
13.0582533333335391
 30
0.0
 40
0.2421133333333333
100
AcDbArc
 50
302.7569580000000542
 51
57.2430420000000169
  0
ARC
  5
F5
100
AcDbEntity
  8
0
 62
256
370
-1
  6
ByLayer
100
AcDbCircle
 10
2.8880711111111466
 20
12.4063977777779844
 30
0.0
 40
1.0679088888888888
100
AcDbArc
 50
53.2324520000000234
 51
79.4911190000000119
  0
ARC
  5
F6
100
AcDbEntity
  8
0
 62
256
370
-1
  6
ByLayer
100
AcDbCircle
 10
2.6452755555555916
 20
11.4127726666668732
 30
0.0
 40
2.0899399999999999
100
AcDbArc
 50
77.913146999999995
 51
90.1885099999999937
  0
ARC
  5
F7
100
AcDbEntity
  8
0
 62
256
370
-1
  6
ByLayer
100
AcDbCircle
 10
2.6315244444444814
 20
11.4127726666668714
 30
0.0
 40
2.0899399999999999
100
AcDbArc
 50
89.8114929999999845
 51
102.0868600000000015
  0
ARC
  5
F8
100
AcDbEntity
  8
0
 62
256
370
-1
  6
ByLayer
100
AcDbCircle
 10
2.3887288888889251
 20
12.4063977777779844
 30
0.0
 40
1.0679088888888888
100
AcDbArc
 50
100.5088700000000017
 51
126.7675399999999968
  0
ARC
  5
F9
100
AcDbEntity
  8
0
 62
256
370
-1
  6
ByLayer
100
AcDbCircle
 10
2.6452755555555929
 20
14.7037340000002068
 30
0.0
 40
2.0899399999999999
100
AcDbArc
 50
269.8114930000000413
 51
282.0868680000000381
  0
ARC
  5
FA
100
AcDbEntity
  8
0
 62
256
370
-1
  6
ByLayer
100
AcDbCircle
 10
2.6315244444444827
 20
14.7037340000002068
 30
0.0
 40
2.0899399999999999
100
AcDbArc
 50
257.9131319999999619
 51
270.1885069999999587
  0
LINE
  5
FB
100
AcDbEntity
100
AcDbLine
  8
0
 62
256
370
-1
  6
ByLayer
 10
58.771484444445754
 20
-7.4055902222223873
 30
0.0
 11
58.3270400000013112
 21
-6.9611457777779453
 31
0.0
  0
LINE
  5
FC
100
AcDbEntity
100
AcDbLine
  8
0
 62
256
370
-1
  6
ByLayer
 10
58.3270400000013112
 20
-6.9611457777779453
 30
0.0
 11
60.3270402222223012
 21
-6.9611457777779453
 31
0.0
  0
LINE
  5
FD
100
AcDbEntity
100
AcDbLine
  8
0
 62
256
370
-1
  6
ByLayer
 10
58.3270400000013112
 20
-6.2944791111112783
 30
0.0
 11
58.3270400000013112
 21
-5.4056124444446132
 31
0.0
  0
LINE
  5
FE
100
AcDbEntity
100
AcDbLine
  8
0
 62
256
370
-1
  6
ByLayer
 10
58.3270400000013112
 20
-5.4056124444446132
 30
0.0
 11
60.3270402221902344
 21
-5.9611457777779426
 31
0.0
  0
LINE
  5
FF
100
AcDbEntity
100
AcDbLine
  8
0
 62
256
370
-1
  6
ByLayer
 10
59.2159291111124233
 20
-5.8500568888890561
 30
0.0
 11
59.2159291111124233
 21
-5.4056124444446132
 31
0.0
  0
LINE
  5
100
100
AcDbEntity
100
AcDbLine
  8
0
 62
256
370
-1
  6
ByLayer
 10
58.3270400000013112
 20
-3.8500568888890525
 30
0.0
 11
58.3270400000013112
 21
-4.7389680000001668
 31
0.0
  0
LINE
  5
101
100
AcDbEntity
100
AcDbLine
  8
0
 62
256
370
-1
  6
ByLayer
 10
58.3270400000013112
 20
-4.7389680000001668
 30
0.0
 11
59.2159291111124233
 21
-4.7389680000001668
 31
0.0
  0
LINE
  5
102
100
AcDbEntity
100
AcDbLine
  8
0
 62
256
370
-1
  6
ByLayer
 10
59.2159291111124233
 20
-4.7389680000001668
 30
0.0
 11
59.2159291111124233
 21
-4.294523555555724
 31
0.0
  0
LINE
  5
103
100
AcDbEntity
100
AcDbLine
  8
0
 62
256
370
-1
  6
ByLayer
 10
59.6603733333346469
 20
-3.8500568888890534
 30
0.0
 11
59.8825955555568683
 21
-3.8500568888890534
 31
0.0
  0
LINE
  5
104
100
AcDbEntity
100
AcDbLine
  8
0
 62
256
370
-1
  6
ByLayer
 10
60.3270402222223012
 20
-4.294523555555724
 30
0.0
 11
60.3270402222235305
 21
-4.7389680000001668
 31
0.0
  0
ARC
  5
105
100
AcDbEntity
  8
0
 62
256
370
-1
  6
ByLayer
100
AcDbCircle
 10
59.6603733333346469
 20
-4.294523555555724
 30
0.0
 40
0.4444444444444444
100
AcDbArc
 50
90.0
 51
180.0
  0
ARC
  5
106
100
AcDbEntity
  8
0
 62
256
370
-1
  6
ByLayer
100
AcDbCircle
 10
59.8825955555568683
 20
-4.294523555555724
 30
0.0
 40
0.4444444444444444
100
AcDbArc
 50
360.0
 51
90.0
  0
LINE
  5
107
100
AcDbEntity
100
AcDbLine
  8
0
 62
256
370
-1
  6
ByLayer
 10
230.0909770524506257
 20
-8.4221846542224394
 30
0.0
 11
229.6465326080061686
 21
-7.9777402097780108
 31
0.0
  0
LINE
  5
108
100
AcDbEntity
100
AcDbLine
  8
0
 62
256
370
-1
  6
ByLayer
 10
229.6465326080061686
 20
-7.9777402097780108
 30
0.0
 11
231.6465328302271587
 21
-7.9777402097780108
 31
0.0
  0
LINE
  5
109
100
AcDbEntity
100
AcDbLine
  8
0
 62
256
370
-1
  6
ByLayer
 10
229.6465326080061686
 20
-7.3110735431113376
 30
0.0
 11
229.6465326080061686
 21
-6.4222068764446654
 31
0.0
  0
LINE
  5
10A
100
AcDbEntity
100
AcDbLine
  8
0
 62
256
370
-1
  6
ByLayer
 10
229.6465326080061686
 20
-6.4222068764446654
 30
0.0
 11
231.646532830195099
 21
-6.9777402097779948
 31
0.0
  0
LINE
  5
10B
100
AcDbEntity
100
AcDbLine
  8
0
 62
256
370
-1
  6
ByLayer
 10
230.5354217191172665
 20
-6.8666513208891224
 30
0.0
 11
230.5354217191172665
 21
-6.4222068764446654
 31
0.0
  0
LINE
  5
10C
100
AcDbEntity
100
AcDbLine
  8
0
 62
256
370
-1
  6
ByLayer
 10
229.6465326080061686
 20
-4.8666513208891198
 30
0.0
 11
229.6465326080061686
 21
-5.755562432000219
 31
0.0
  0
LINE
  5
10D
100
AcDbEntity
100
AcDbLine
  8
0
 62
256
370
-1
  6
ByLayer
 10
229.6465326080061686
 20
-5.755562432000219
 30
0.0
 11
230.5354217191172665
 21
-5.755562432000219
 31
0.0
  0
LINE
  5
10E
100
AcDbEntity
100
AcDbLine
  8
0
 62
256
370
-1
  6
ByLayer
 10
230.5354217191172665
 20
-5.755562432000219
 30
0.0
 11
230.5354217191172665
 21
-5.3111179875557903
 31
0.0
  0
LINE
  5
10F
100
AcDbEntity
100
AcDbLine
  8
0
 62
256
370
-1
  6
ByLayer
 10
230.9798659413395114
 20
-4.8666513208891198
 30
0.0
 11
231.2020881635617116
 21
-4.8666513208891198
 31
0.0
  0
LINE
  5
110
100
AcDbEntity
100
AcDbLine
  8
0
 62
256
370
-1
  6
ByLayer
 10
231.6465328302271587
 20
-5.3111179875557903
 30
0.0
 11
231.6465328302283808
 21
-5.755562432000219
 31
0.0
  0
ARC
  5
111
100
AcDbEntity
  8
0
 62
256
370
-1
  6
ByLayer
100
AcDbCircle
 10
230.9798659413395114
 20
-5.3111179875557903
 30
0.0
 40
0.4444444444444444
100
AcDbArc
 50
90.0
 51
180.0
  0
ARC
  5
112
100
AcDbEntity
  8
0
 62
256
370
-1
  6
ByLayer
100
AcDbCircle
 10
231.2020881635617116
 20
-5.3111179875557903
 30
0.0
 40
0.4444444444444444
100
AcDbArc
 50
360.0
 51
90.0
  0
LINE
  5
113
100
AcDbEntity
100
AcDbLine
  8
0
 62
256
370
-1
  6
ByLayer
 10
115.1713841269843073
 20
2.3523805079365174
 30
0.0
 11
115.1713841269843073
 21
5.0190471746031839
 31
0.0
  0
LINE
  5
114
100
AcDbEntity
100
AcDbLine
  8
0
 62
256
370
-1
  6
ByLayer
 10
115.1713841269843073
 20
5.0190471746031839
 30
0.0
 11
116.060273015873193
 21
5.0190471746031839
 31
0.0
  0
ARC
  5
115
100
AcDbEntity
  8
0
 62
256
370
-1
  6
ByLayer
100
AcDbCircle
 10
116.060273015873193
 20
4.5746027301587393
 30
0.0
 40
0.4444444444444444
100
AcDbArc
 50
0.0
 51
90.0
  0
LINE
  5
116
100
AcDbEntity
100
AcDbLine
  8
0
 62
256
370
-1
  6
ByLayer
 10
117.8380952380954056
 20
3.6857142857142939
 30
0.0
 11
119.6158285714287359
 21
3.6857142857142939
 31
0.0
  0
LINE
  5
117
100
AcDbEntity
100
AcDbLine
  8
0
 62
256
370
-1
  6
ByLayer
 10
119.6158285714287359
 20
3.6857142857142939
 30
0.0
 11
119.6158285714287359
 21
4.1301587301587386
 31
0.0
  0
LINE
  5
118
100
AcDbEntity
100
AcDbLine
  8
0
 62
256
370
-1
  6
ByLayer
 10
117.8380952380954056
 20
4.1301587301587386
 30
0.0
 11
117.8380952380954056
 21
3.0190471746031831
 31
0.0
  0
LINE
  5
119
100
AcDbEntity
100
AcDbLine
  8
0
 62
256
370
-1
  6
ByLayer
 10
118.5047174603176359
 20
2.3523805080031162
 30
0.0
 11
119.6158285714287359
 21
2.3523805083116649
 31
0.0
  0
ARC
  5
11A
100
AcDbEntity
  8
0
 62
256
370
-1
  6
ByLayer
100
AcDbCircle
 10
118.7269396825398502
 20
4.1301587301587386
 30
0.0
 40
0.8888888888888888
100
AcDbArc
 50
0.0
 51
180.0
  0
ARC
  5
11B
100
AcDbEntity
  8
0
 62
256
370
-1
  6
ByLayer
100
AcDbCircle
 10
118.5047174603176359
 20
3.0190471746031831
 30
0.0
 40
0.6666666666666666
100
AcDbArc
 50
180.0
 51
270.0
  0
LINE
  5
11C
100
AcDbEntity
100
AcDbLine
  8
0
 62
256
370
-1
  6
ByLayer
 10
120.9491174603176376
 20
2.3523805079365183
 30
0.0
 11
122.0601841269842964
 21
2.3523805075331516
 31
0.0
  0
LINE
  5
11D
100
AcDbEntity
100
AcDbLine
  8
0
 62
256
370
-1
  6
ByLayer
 10
122.7268507936509678
 20
3.0190471746031848
 30
0.0
 11
122.7268507936509678
 21
4.3523805079365179
 31
0.0
  0
LINE
  5
11E
100
AcDbEntity
100
AcDbLine
  8
0
 62
256
370
-1
  6
ByLayer
 10
122.0601841269842964
 20
5.0190471746031848
 30
0.0
 11
120.9491174603176376
 21
5.0190471746031848
 31
0.0
  0
LINE
  5
11F
100
AcDbEntity
100
AcDbLine
  8
0
 62
256
370
-1
  6
ByLayer
 10
120.9491174603176376
 20
5.0190471746031848
 30
0.0
 11
120.9491174603176376
 21
1.0190476190476294
 31
0.0
  0
ARC
  5
120
100
AcDbEntity
  8
0
 62
256
370
-1
  6
ByLayer
100
AcDbCircle
 10
122.0601841269842964
 20
3.0190471746031848
 30
0.0
 40
0.6666666666666666
100
AcDbArc
 50
270.0
 51
0.0
  0
ARC
  5
121
100
AcDbEntity
  8
0
 62
256
370
-1
  6
ByLayer
100
AcDbCircle
 10
122.0601841269842964
 20
4.3523805079365179
 30
0.0
 40
0.6666666666666666
100
AcDbArc
 50
0.0
 51
90.0
  0
LINE
  5
122
100
AcDbEntity
100
AcDbLine
  8
0
 62
256
370
-1
  6
ByLayer
 10
124.0601396825398552
 20
2.3523805079365139
 30
0.0
 11
124.0601396825398552
 21
5.0190471746031804
 31
0.0
  0
LINE
  5
123
100
AcDbEntity
100
AcDbLine
  8
0
 62
256
370
-1
  6
ByLayer
 10
124.0601396825398552
 20
5.0190471746031804
 30
0.0
 11
124.949028571428741
 21
5.0190471746031804
 31
0.0
  0
ARC
  5
124
100
AcDbEntity
  8
0
 62
256
370
-1
  6
ByLayer
100
AcDbCircle
 10
124.949028571428741
 20
4.5746027301587358
 30
0.0
 40
0.4444444444444444
100
AcDbArc
 50
0.0
 51
90.0
  0
LINE
  5
125
100
AcDbEntity
100
AcDbLine
  8
0
 62
256
370
-1
  6
ByLayer
 10
126.9490285714287552
 20
5.0190471746031813
 30
0.0
 11
127.8378730158731855
 21
5.0190471746031813
 31
0.0
  0
LINE
  5
126
100
AcDbEntity
100
AcDbLine
  8
0
 62
256
370
-1
  6
ByLayer
 10
128.5045396825398711
 20
4.3523805079365143
 30
0.0
 11
128.5045396825398711
 21
2.3523805083227649
 31
0.0
  0
LINE
  5
127
100
AcDbEntity
100
AcDbLine
  8
0
 62
256
370
-1
  6
ByLayer
 10
128.5045396825398711
 20
2.3523805083227649
 30
0.0
 11
127.3934285714287427
 21
2.3523805080327396
 31
0.0
  0
LINE
  5
128
100
AcDbEntity
100
AcDbLine
  8
0
 62
256
370
-1
  6
ByLayer
 10
127.3934285714287427
 20
3.6857142857142922
 30
0.0
 11
128.5045396825398711
 21
3.6857142857142926
 31
0.0
  0
ARC
  5
129
100
AcDbEntity
  8
0
 62
256
370
-1
  6
ByLayer
100
AcDbCircle
 10
127.8378730158731855
 20
4.3523805079365143
 30
0.0
 40
0.6666666666666666
100
AcDbArc
 50
0.0
 51
90.0
  0
ARC
  5
12A
100
AcDbEntity
  8
0
 62
256
370
-1
  6
ByLayer
100
AcDbCircle
 10
127.3934285714287427
 20
3.0190471746031813
 30
0.0
 40
0.6666666666666666
100
AcDbArc
 50
90.0
 51
270.0
  0
LINE
  5
12B
100
AcDbEntity
100
AcDbLine
  8
0
 62
256
370
-1
  6
ByLayer
 10
129.8378285714287301
 20
2.3523805079365148
 30
0.0
 11
130.9488952380954174
 21
2.3523805081497091
 31
0.0
  0
LINE
  5
12C
100
AcDbEntity
100
AcDbLine
  8
0
 62
256
370
-1
  6
ByLayer
 10
131.6155619047620746
 20
3.0190471746031813
 30
0.0
 11
131.6155619047620746
 21
4.3523805079365143
 31
0.0
  0
LINE
  5
12D
100
AcDbEntity
100
AcDbLine
  8
0
 62
256
370
-1
  6
ByLayer
 10
130.9488952380954174
 20
5.0190471746031813
 30
0.0
 11
129.8378285714287301
 21
5.0190471746031813
 31
0.0
  0
LINE
  5
12E
100
AcDbEntity
100
AcDbLine
  8
0
 62
256
370
-1
  6
ByLayer
 10
129.8378285714287301
 20
5.0190471746031813
 30
0.0
 11
129.8378285714287301
 21
1.0190476190476259
 31
0.0
  0
ARC
  5
12F
100
AcDbEntity
  8
0
 62
256
370
-1
  6
ByLayer
100
AcDbCircle
 10
130.9488952380954174
 20
3.0190471746031813
 30
0.0
 40
0.6666666666666666
100
AcDbArc
 50
270.0
 51
0.0
  0
ARC
  5
130
100
AcDbEntity
  8
0
 62
256
370
-1
  6
ByLayer
100
AcDbCircle
 10
130.9488952380954174
 20
4.3523805079365143
 30
0.0
 40
0.6666666666666666
100
AcDbArc
 50
0.0
 51
90.0
  0
LINE
  5
131
100
AcDbEntity
100
AcDbLine
  8
0
 62
256
370
-1
  6
ByLayer
 10
132.948850793650962
 20
2.352380507936513
 30
0.0
 11
134.0599174603176493
 21
2.3523805081497073
 31
0.0
  0
LINE
  5
132
100
AcDbEntity
100
AcDbLine
  8
0
 62
256
370
-1
  6
ByLayer
 10
134.7265841269843065
 20
3.0190471746031795
 30
0.0
 11
134.7265841269843065
 21
4.3523805079365125
 31
0.0
  0
LINE
  5
133
100
AcDbEntity
100
AcDbLine
  8
0
 62
256
370
-1
  6
ByLayer
 10
134.0599174603176493
 20
5.0190471746031795
 30
0.0
 11
132.948850793650962
 21
5.0190471746031795
 31
0.0
  0
LINE
  5
134
100
AcDbEntity
100
AcDbLine
  8
0
 62
256
370
-1
  6
ByLayer
 10
132.948850793650962
 20
5.0190471746031795
 30
0.0
 11
132.948850793650962
 21
1.0190476190476241
 31
0.0
  0
ARC
  5
135
100
AcDbEntity
  8
0
 62
256
370
-1
  6
ByLayer
100
AcDbCircle
 10
134.0599174603176493
 20
3.0190471746031795
 30
0.0
 40
0.6666666666666666
100
AcDbArc
 50
270.0
 51
0.0
  0
ARC
  5
136
100
AcDbEntity
  8
0
 62
256
370
-1
  6
ByLayer
100
AcDbCircle
 10
134.0599174603176493
 20
4.3523805079365125
 30
0.0
 40
0.6666666666666666
100
AcDbArc
 50
0.0
 51
90.0
  0
LINE
  5
137
100
AcDbEntity
100
AcDbLine
  8
0
 62
256
370
-1
  6
ByLayer
 10
136.0598730158731939
 20
2.3523805079365263
 30
0.0
 11
136.0598730158731939
 21
5.0190471746031928
 31
0.0
  0
LINE
  5
138
100
AcDbEntity
100
AcDbLine
  8
0
 62
256
370
-1
  6
ByLayer
 10
136.0598730158731939
 20
5.0190471746031928
 30
0.0
 11
136.9487619047620797
 21
5.0190471746031928
 31
0.0
  0
ARC
  5
139
100
AcDbEntity
  8
0
 62
256
370
-1
  6
ByLayer
100
AcDbCircle
 10
136.9487619047620797
 20
4.5746027301587482
 30
0.0
 40
0.4444444444444444
100
AcDbArc
 50
0.0
 51
90.0
  0
LINE
  5
13A
100
AcDbEntity
100
AcDbLine
  8
0
 62
256
370
-1
  6
ByLayer
 10
138.7264507936509688
 20
4.1301587301587404
 30
0.0
 11
138.7264507936509688
 21
3.241269841269852
 31
0.0
  0
LINE
  5
13B
100
AcDbEntity
100
AcDbLine
  8
0
 62
256
370
-1
  6
ByLayer
 10
140.5043174603176226
 20
3.241269841269852
 30
0.0
 11
140.5043174603176226
 21
4.1301587301587404
 31
0.0
  0
ARC
  5
13C
100
AcDbEntity
  8
0
 62
256
370
-1
  6
ByLayer
100
AcDbCircle
 10
139.6154730158731923
 20
3.241269841269852
 30
0.0
 40
0.8888888888888888
100
AcDbArc
 50
180.0
 51
0.0
  0
ARC
  5
13D
100
AcDbEntity
  8
0
 62
256
370
-1
  6
ByLayer
100
AcDbCircle
 10
139.6154730158731923
 20
4.1301587301587404
 30
0.0
 40
0.8888888888888888
100
AcDbArc
 50
0.0
 51
180.0
  0
LINE
  5
13E
100
AcDbEntity
100
AcDbLine
  8
0
 62
256
370
-1
  6
ByLayer
 10
141.8376956825398736
 20
2.352380952380936
 30
0.0
 11
141.8376952380954208
 21
2.5746027301587135
 31
0.0
  0
LINE
  5
13F
100
AcDbEntity
100
AcDbLine
  8
0
 62
256
370
-1
  6
ByLayer
 10
144.5043623492065308
 20
5.0190471746031875
 30
0.0
 11
143.8376956825398452
 21
5.0190471746031875
 31
0.0
  0
LINE
  5
140
100
AcDbEntity
100
AcDbLine
  8
0
 62
256
370
-1
  6
ByLayer
 10
143.171029015873188
 20
4.3523805079365205
 30
0.0
 11
143.171029015873188
 21
3.0190471746031875
 31
0.0
  0
LINE
  5
141
100
AcDbEntity
100
AcDbLine
  8
0
 62
256
370
-1
  6
ByLayer
 10
143.8376956825398452
 20
2.3523805080031206
 30
0.0
 11
144.5043623492065308
 21
2.3523805076701287
 31
0.0
  0
ARC
  5
142
100
AcDbEntity
  8
0
 62
256
370
-1
  6
ByLayer
100
AcDbCircle
 10
143.8376956825398452
 20
4.3523805079365205
 30
0.0
 40
0.6666666666666666
100
AcDbArc
 50
90.0
 51
180.0
  0
ARC
  5
143
100
AcDbEntity
  8
0
 62
256
370
-1
  6
ByLayer
100
AcDbCircle
 10
143.8376956825398452
 20
3.0190471746031875
 30
0.0
 40
0.6666666666666666
100
AcDbArc
 50
180.0
 51
270.0
  0
LINE
  5
144
100
AcDbEntity
100
AcDbLine
  8
0
 62
256
370
-1
  6
ByLayer
 10
145.8376067936509628
 20
4.1301587301587324
 30
0.0
 11
145.8376067936509628
 21
3.2412698412698435
 31
0.0
  0
LINE
  5
145
100
AcDbEntity
100
AcDbLine
  8
0
 62
256
370
-1
  6
ByLayer
 10
147.6154734603176166
 20
3.241269841269844
 30
0.0
 11
147.6154734603176166
 21
4.1301587301587324
 31
0.0
  0
ARC
  5
146
100
AcDbEntity
  8
0
 62
256
370
-1
  6
ByLayer
100
AcDbCircle
 10
146.7266290158731863
 20
3.2412698412698435
 30
0.0
 40
0.8888888888888888
100
AcDbArc
 50
180.0
 51
0.0
  0
ARC
  5
147
100
AcDbEntity
  8
0
 62
256
370
-1
  6
ByLayer
100
AcDbCircle
 10
146.7266290158731863
 20
4.1301587301587324
 30
0.0
 40
0.8888888888888888
100
AcDbArc
 50
0.0
 51
180.0
  0
LINE
  5
148
100
AcDbEntity
100
AcDbLine
  8
0
 62
256
370
-1
  6
ByLayer
 10
148.9488516825398676
 20
2.352380952380964
 30
0.0
 11
148.9488512380954148
 21
5.0190471746031866
 31
0.0
  0
LINE
  5
149
100
AcDbEntity
100
AcDbLine
  8
0
 62
256
370
-1
  6
ByLayer
 10
148.9488512380954148
 20
5.0190471746031866
 30
0.0
 11
150.9488512380954148
 21
5.0190471746031875
 31
0.0
  0
LINE
  5
14A
100
AcDbEntity
100
AcDbLine
  8
0
 62
256
370
-1
  6
ByLayer
 10
151.615517904762072
 20
4.3523805079365196
 30
0.0
 11
151.615517904762072
 21
2.3523805098948065
 31
0.0
  0
LINE
  5
14B
100
AcDbEntity
100
AcDbLine
  8
0
 62
256
370
-1
  6
ByLayer
 10
150.2821845714287576
 20
5.0190471746031875
 30
0.0
 11
150.2821845714287576
 21
2.3523805076701274
 31
0.0
  0
ARC
  5
14C
100
AcDbEntity
  8
0
 62
256
370
-1
  6
ByLayer
100
AcDbCircle
 10
150.9488512380954148
 20
4.3523805079365196
 30
0.0
 40
0.6666666666666666
100
AcDbArc
 50
0.0
 51
90.0
  0
ENDSEC
  0
SECTION
  2
OBJECTS
  0
DICTIONARY
  5
C
100
AcDbDictionary
280
0
281
1
  3
ACAD_GROUP
350
D
  3
ACAD_LAYOUT
350
1A
  3
ACAD_MLINESTYLE
350
17
  3
ACAD_PLOTSETTINGS
350
19
  3
ACAD_PLOTSTYLENAME
350
E
  3
AcDbVariableDictionary
350
14D
  0
DICTIONARY
  5
D
100
AcDbDictionary
280
0
281
1
  0
ACDBDICTIONARYWDFLT
  5
E
100
AcDbDictionary
281
1
  3
Normal
350
F
100
AcDbDictionaryWithDefault
340
F
  0
ACDBPLACEHOLDER
  5
F
  0
DICTIONARY
  5
17
100
AcDbDictionary
280
0
281
1
  3
Standard
350
18
  0
MLINESTYLE
  5
18
100
AcDbMlineStyle
  2
STANDARD
 70
0
  3

 62
256
 51
90.0
 52
90.0
 71
2
 49
0.5
 62
256
  6
BYLAYER
 49
-0.5
 62
256
  6
BYLAYER
  0
DICTIONARY
  5
19
100
AcDbDictionary
280
0
281
1
  0
DICTIONARY
  5
1A
100
AcDbDictionary
281
1
  3
Layout1
350
1E
  3
Layout2
350
26
  3
Model
350
22
  0
LAYOUT
  5
1E
100
AcDbPlotSettings
  1

  2
C:\Program Files\AutoCAD 2002\plotters\DWF ePlot (optimized for plotting).pc3
  4

  6

 40
0.0
 41
0.0
 42
0.0
 43
0.0
 44
0.0
 45
0.0
 46
0.0
 47
0.0
 48
0.0
 49
0.0
140
0.0
141
0.0
142
1.0
143
1.0
 70
688
 72
0
 73
0
 74
5
  7

 75
16
147
1.0
148
0.0
149
0.0
100
AcDbLayout
  1
Layout1
 70
1
 71
1
 10
0.0
 20
0.0
 11
420.0
 21
297.0
 12
0.0
 22
0.0
 32
0.0
 14
100000000000000000000.0
 24
100000000000000000000.0
 34
100000000000000000000.0
 15
-100000000000000000000.0
 25
-100000000000000000000.0
 35
-100000000000000000000.0
146
0.0
 13
0.0
 23
0.0
 33
0.0
 16
1.0
 26
0.0
 36
0.0
 17
0.0
 27
1.0
 37
0.0
 76
0
330
1B
  0
LAYOUT
  5
22
100
AcDbPlotSettings
  1

  2
C:\Program Files\AutoCAD 2002\plotters\DWF ePlot (optimized for plotting).pc3
  4

  6

 40
0.0
 41
0.0
 42
0.0
 43
0.0
 44
0.0
 45
0.0
 46
0.0
 47
0.0
 48
0.0
 49
0.0
140
0.0
141
0.0
142
1.0
143
1.0
 70
1712
 72
0
 73
0
 74
0
  7

 75
0
147
1.0
148
0.0
149
0.0
100
AcDbLayout
  1
Model
 70
1
 71
0
 10
0.0
 20
0.0
 11
12.0
 21
9.0
 12
0.0
 22
0.0
 32
0.0
 14
0.0
 24
0.0
 34
0.0
 15
0.0
 25
0.0
 35
0.0
146
0.0
 13
0.0
 23
0.0
 33
0.0
 16
1.0
 26
0.0
 36
0.0
 17
0.0
 27
1.0
 37
0.0
 76
0
330
1F
  0
LAYOUT
  5
26
100
AcDbPlotSettings
  1

  2
C:\Program Files\AutoCAD 2002\plotters\DWF ePlot (optimized for plotting).pc3
  4

  6

 40
0.0
 41
0.0
 42
0.0
 43
0.0
 44
0.0
 45
0.0
 46
0.0
 47
0.0
 48
0.0
 49
0.0
140
0.0
141
0.0
142
1.0
143
1.0
 70
688
 72
0
 73
0
 74
5
  7

 75
16
147
1.0
148
0.0
149
0.0
100
AcDbLayout
  1
Layout2
 70
1
 71
2
 10
0.0
 20
0.0
 11
12.0
 21
9.0
 12
0.0
 22
0.0
 32
0.0
 14
0.0
 24
0.0
 34
0.0
 15
0.0
 25
0.0
 35
0.0
146
0.0
 13
0.0
 23
0.0
 33
0.0
 16
1.0
 26
0.0
 36
0.0
 17
0.0
 27
1.0
 37
0.0
 76
0
330
23
  0
DICTIONARY
  5
14D
100
AcDbDictionary
281
1
  3
DIMASSOC
350
14F
  3
HIDETEXT
350
14E
  0
DICTIONARYVAR
  5
14E
100
DictionaryVariables
280
0
  1
2
  0
DICTIONARYVAR
  5
14F
100
DictionaryVariables
280
0
  1
1
  0
ENDSEC
  0
EOF
