  0
SECTION
  2
HEADER
  9
$ACADVER
  1
AC1015
  9
$ACADMAINTVER
 70
     6
  9
$DWGCODEPAGE
  3
ANSI_1252
  9
$INSBASE
 10
0.0
 20
0.0
 30
0.0
  9
$EXTMIN
 10
0.0
 20
0.0
 30
0.0
  9
$EXTMAX
 10
1189.0
 20
841.0
 30
0.0
  9
$LIMMIN
 10
0.0
 20
0.0
  9
$LIMMAX
 10
1189.0
 20
841.0
  9
$ORTHOMODE
 70
     0
  9
$REGENMODE
 70
     1
  9
$FILLMODE
 70
     1
  9
$QTEXTMODE
 70
     0
  9
$MIRRTEXT
 70
     1
  9
$LTSCALE
 40
1.0
  9
$ATTMODE
 70
     1
  9
$TEXTSIZE
 40
3.5
  9
$TRACEWID
 40
1.0
  9
$TEXTSTYLE
  7
Standard
  9
$CLAYER
  8
0
  9
$CELTYPE
  6
ByLayer
  9
$CECOLOR
 62
   256
  9
$CELTSCALE
 40
1.0
  9
$DISPSILH
 70
     0
  9
$DIMSCALE
 40
1.0
  9
$DIMASZ
 40
3.302
  9
$DIMEXO
 40
1.0
  9
$DIMDLI
 40
3.75
  9
$DIMRND
 40
0.0
  9
$DIMDLE
 40
0.0
  9
$DIMEXE
 40
1.0
  9
$DIMTP
 40
0.0
  9
$DIMTM
 40
0.0
  9
$DIMTXT
 40
3.5
  9
$DIMCEN
 40
2.5
  9
$DIMTSZ
 40
0.0
  9
$DIMTOL
 70
     0
  9
$DIMLIM
 70
     0
  9
$DIMTIH
 70
     1
  9
$DIMTOH
 70
     1
  9
$DIMSE1
 70
     0
  9
$DIMSE2
 70
     0
  9
$DIMTAD
 70
     1
  9
$DIMZIN
 70
     1
  9
$DIMBLK
  1

  9
$DIMASO
 70
     1
  9
$DIMSHO
 70
     1
  9
$DIMPOST
  1

  9
$DIMAPOST
  1

  9
$DIMALT
 70
     0
  9
$DIMALTD
 70
     3
  9
$DIMALTF
 40
0.0393700787
  9
$DIMLFAC
 40
1.0
  9
$DIMTOFL
 70
     1
  9
$DIMTVP
 40
0.0
  9
$DIMTIX
 70
     0
  9
$DIMSOXD
 70
     0
  9
$DIMSAH
 70
     0
  9
$DIMBLK1
  1

  9
$DIMBLK2
  1

  9
$DIMSTYLE
  2
ISO-25
  9
$DIMCLRD
 70
     0
  9
$DIMCLRE
 70
     0
  9
$DIMCLRT
 70
     0
  9
$DIMTFAC
 40
1.0
  9
$DIMGAP
 40
1.524
  9
$DIMJUST
 70
     0
  9
$DIMSD1
 70
     0
  9
$DIMSD2
 70
     0
  9
$DIMTOLJ
 70
     0
  9
$DIMTZIN
 70
     1
  9
$DIMALTZ
 70
     0
  9
$DIMALTTZ
 70
     0
  9
$DIMUPT
 70
     0
  9
$DIMDEC
 70
     4
  9
$DIMTDEC
 70
     4
  9
$DIMALTU
 70
     2
  9
$DIMALTTD
 70
     3
  9
$DIMTXSTY
  7
Standard
  9
$DIMAUNIT
 70
     0
  9
$DIMADEC
 70
     0
  9
$DIMALTRND
 40
0.0
  9
$DIMAZIN
 70
     0
  9
$DIMDSEP
 70
    44
  9
$DIMATFIT
 70
     3
  9
$DIMFRAC
 70
     0
  9
$DIMLDRBLK
  1

  9
$DIMLUNIT
 70
     2
  9
$DIMLWD
 70
    -2
  9
$DIMLWE
 70
    -2
  9
$DIMTMOVE
 70
     0
  9
$LUNITS
 70
     2
  9
$LUPREC
 70
     4
  9
$SKETCHINC
 40
1.0
  9
$FILLETRAD
 40
10.0
  9
$AUNITS
 70
     0
  9
$AUPREC
 70
     0
  9
$MENU
  1
.
  9
$ELEVATION
 40
0.0
  9
$PELEVATION
 40
0.0
  9
$THICKNESS
 40
0.0
  9
$LIMCHECK
 70
     0
  9
$CHAMFERA
 40
10.0
  9
$CHAMFERB
 40
10.0
  9
$CHAMFERC
 40
20.0
  9
$CHAMFERD
 40
0.0
  9
$SKPOLY
 70
     0
  9
$TDCREATE
 40
2456344.458817951
  9
$TDUCREATE
 40
2456344.458817951
  9
$TDUPDATE
 40
2456344.458818681
  9
$TDUUPDATE
 40
2456344.458818681
  9
$TDINDWG
 40
0.0000000116
  9
$TDUSRTIMER
 40
0.0000000116
  9
$USRTIMER
 70
     1
  9
$ANGBASE
 50
0.0
  9
$ANGDIR
 70
     0
  9
$PDMODE
 70
     0
  9
$PDSIZE
 40
-1.0
  9
$PLINEWID
 40
0.0
  9
$SPLFRAME
 70
     0
  9
$SPLINETYPE
 70
     6
  9
$SPLINESEGS
 70
     8
  9
$HANDSEED
  5
150
  9
$SURFTAB1
 70
     6
  9
$SURFTAB2
 70
     6
  9
$SURFTYPE
 70
     6
  9
$SURFU
 70
     6
  9
$SURFV
 70
     6
  9
$UCSBASE
  2

  9
$UCSNAME
  2

  9
$UCSORG
 10
0.0
 20
0.0
 30
0.0
  9
$UCSXDIR
 10
1.0
 20
0.0
 30
0.0
  9
$UCSYDIR
 10
0.0
 20
1.0
 30
0.0
  9
$UCSORTHOREF
  2

  9
$UCSORTHOVIEW
 70
     0
  9
$UCSORGTOP
 10
0.0
 20
0.0
 30
0.0
  9
$UCSORGBOTTOM
 10
0.0
 20
0.0
 30
0.0
  9
$UCSORGLEFT
 10
0.0
 20
0.0
 30
0.0
  9
$UCSORGRIGHT
 10
0.0
 20
0.0
 30
0.0
  9
$UCSORGFRONT
 10
0.0
 20
0.0
 30
0.0
  9
$UCSORGBACK
 10
0.0
 20
0.0
 30
0.0
  9
$PUCSBASE
  2

  9
$PUCSNAME
  2

  9
$PUCSORG
 10
0.0
 20
0.0
 30
0.0
  9
$PUCSXDIR
 10
1.0
 20
0.0
 30
0.0
  9
$PUCSYDIR
 10
0.0
 20
1.0
 30
0.0
  9
$PUCSORTHOREF
  2

  9
$PUCSORTHOVIEW
 70
     0
  9
$PUCSORGTOP
 10
0.0
 20
0.0
 30
0.0
  9
$PUCSORGBOTTOM
 10
0.0
 20
0.0
 30
0.0
  9
$PUCSORGLEFT
 10
0.0
 20
0.0
 30
0.0
  9
$PUCSORGRIGHT
 10
0.0
 20
0.0
 30
0.0
  9
$PUCSORGFRONT
 10
0.0
 20
0.0
 30
0.0
  9
$PUCSORGBACK
 10
0.0
 20
0.0
 30
0.0
  9
$USERI1
 70
     0
  9
$USERI2
 70
     0
  9
$USERI3
 70
     0
  9
$USERI4
 70
     0
  9
$USERI5
 70
     0
  9
$USERR1
 40
0.0
  9
$USERR2
 40
0.0
  9
$USERR3
 40
0.0
  9
$USERR4
 40
0.0
  9
$USERR5
 40
0.0
  9
$WORLDVIEW
 70
     1
  9
$SHADEDGE
 70
     3
  9
$SHADEDIF
 70
    70
  9
$TILEMODE
 70
     1
  9
$MAXACTVP
 70
    64
  9
$PINSBASE
 10
0.0
 20
0.0
 30
0.0
  9
$PLIMCHECK
 70
     0
  9
$PEXTMIN
 10
1.0000000000E+20
 20
1.0000000000E+20
 30
1.0000000000E+20
  9
$PEXTMAX
 10
-1.0000000000E+20
 20
-1.0000000000E+20
 30
-1.0000000000E+20
  9
$PLIMMIN
 10
0.0
 20
0.0
  9
$PLIMMAX
 10
420.0
 20
297.0
  9
$UNITMODE
 70
     0
  9
$VISRETAIN
 70
     1
  9
$PLINEGEN
 70
     0
  9
$PSLTSCALE
 70
     1
  9
$TREEDEPTH
 70
  3020
  9
$CMLSTYLE
  2
Standard
  9
$CMLJUST
 70
     0
  9
$CMLSCALE
 40
20.0
  9
$PROXYGRAPHICS
 70
     1
  9
$MEASUREMENT
 70
     1
  9
$CELWEIGHT
370
    -1
  9
$ENDCAPS
280
     0
  9
$JOINSTYLE
280
     0
  9
$LWDISPLAY
290
     1
  9
$INSUNITS
 70
     4
  9
$HYPERLINKBASE
  1

  9
$STYLESHEET
  1

  9
$XEDIT
290
     1
  9
$CEPSNTYPE
380
     0
  9
$PSTYLEMODE
290
     1
  9
$FINGERPRINTGUID
  2
{72CBD061-AEF4-4479-897C-EB8FC6B7FA91}
  9
$VERSIONGUID
  2
{FAEB1C32-E019-11D5-929B-00C0DF256EC4}
  9
$EXTNAMES
290
     1
  9
$PSVPSCALE
 40
0.0
  9
$OLESTARTUP
290
     0
  0
ENDSEC
  0
SECTION
  2
CLASSES
  0
CLASS
  1
ACDBDICTIONARYWDFLT
  2
AcDbDictionaryWithDefault
  3
ObjectDBX Classes
 90
        0
280
     0
281
     0
  0
CLASS
  1
VISUALSTYLE
  2
AcDbVisualStyle
  3
ObjectDBX Classes
 90
     4095
280
     0
281
     0
  0
CLASS
  1
MATERIAL
  2
AcDbMaterial
  3
ObjectDBX Classes
 90
     1153
280
     0
281
     0
  0
CLASS
  1
ACDBPLACEHOLDER
  2
AcDbPlaceHolder
  3
ObjectDBX Classes
 90
        0
280
     0
281
     0
  0
CLASS
  1
LAYOUT
  2
AcDbLayout
  3
ObjectDBX Classes
 90
        0
280
     0
281
     0
  0
ENDSEC
  0
SECTION
  2
TABLES
  0
TABLE
  2
VPORT
  5
8
330
0
100
AcDbSymbolTable
 70
     1
  0
VPORT
  5
29
330
8
100
AcDbSymbolTableRecord
100
AcDbViewportTableRecord
  2
*Active
 70
     0
 10
0.0
 20
0.0
 11
1.0
 21
1.0
 12
594.5
 22
420.5
 13
0.0
 23
0.0
 14
10.0
 24
10.0
 15
10.0
 25
10.0
 16
0.0
 26
0.0
 36
1.0
 17
0.0
 27
0.0
 37
0.0
 40
841.0
 41
1.4137931034
 42
50.0
 43
0.0
 44
0.0
 50
0.0
 51
0.0
 71
     0
 72
  2000
 73
     1
 74
     3
 75
     0
 76
     0
 77
     0
 78
     0
281
     0
 65
     1
110
0.0
120
0.0
130
0.0
111
1.0
121
0.0
131
0.0
112
0.0
122
1.0
132
0.0
 79
     0
146
0.0
  0
ENDTAB
  0
TABLE
  2
LTYPE
  5
5
330
0
100
AcDbSymbolTable
 70
     6
  0
LTYPE
  5
14
330
5
100
AcDbSymbolTableRecord
100
AcDbLinetypeTableRecord
  2
ByBlock
 70
     0
  3

 72
    65
 73
     0
 40
0.0
  0
LTYPE
  5
15
330
5
100
AcDbSymbolTableRecord
100
AcDbLinetypeTableRecord
  2
ByLayer
 70
     0
  3

 72
    65
 73
     0
 40
0.0
  0
LTYPE
  5
16
330
5
100
AcDbSymbolTableRecord
100
AcDbLinetypeTableRecord
  2
Continuous
 70
     0
  3
Solid line
 72
    65
 73
     0
 40
0.0
  0
LTYPE
  5
3F
330
5
100
AcDbSymbolTableRecord
100
AcDbLinetypeTableRecord
  2
HIDDEN
 70
     0
  3
Hidden __ __ __ __ __ __ __ __ __ __ __ __ __ __
 72
    65
 73
     2
 40
1.905
 49
1.27
 74
     0
 49
-0.635
 74
     0
  0
LTYPE
  5
40
330
5
100
AcDbSymbolTableRecord
100
AcDbLinetypeTableRecord
  2
PHANTOM
 70
     0
  3
Phantom ______  __  __  ______  __  __  ______
 72
    65
 73
     6
 40
12.7
 49
6.35
 74
     0
 49
-1.27
 74
     0
 49
1.27
 74
     0
 49
-1.27
 74
     0
 49
1.27
 74
     0
 49
-1.27
 74
     0
  0
LTYPE
  5
41
330
5
100
AcDbSymbolTableRecord
100
AcDbLinetypeTableRecord
  2
CENTER
 70
     0
  3
Center ____ _ ____ _ ____ _ ____ _ ____ _ ____
 72
    65
 73
     4
 40
10.16
 49
6.35
 74
     0
 49
-1.27
 74
     0
 49
1.27
 74
     0
 49
-1.27
 74
     0
  0
LTYPE
  5
42
330
5
100
AcDbSymbolTableRecord
100
AcDbLinetypeTableRecord
  2
CENTERX2
 70
     0
  3
Center (2x) ________  __  ________  __  _____
 72
    65
 73
     4
 40
20.32
 49
12.7
 74
     0
 49
-2.54
 74
     0
 49
2.54
 74
     0
 49
-2.54
 74
     0
  0
LTYPE
  5
43
330
5
100
AcDbSymbolTableRecord
100
AcDbLinetypeTableRecord
  2
DOT2
 70
     0
  3
Dot (.5x) ........................................
 72
    65
 73
     2
 40
0.635
 49
0.0
 74
     0
 49
-0.635
 74
     0
  0
ENDTAB
  0
TABLE
  2
LAYER
  5
2
330
0
100
AcDbSymbolTable
 70
     3
  0
LAYER
  5
10
330
2
100
AcDbSymbolTableRecord
100
AcDbLayerTableRecord
  2
0
 70
     0
 62
     7
  6
Continuous
370
    -3
390
F
  0
LAYER
  5
44
330
2
100
AcDbSymbolTableRecord
100
AcDbLayerTableRecord
  2
SLD-0_0
 70
     0
 62
   179
  6
Continuous
370
    -3
390
F
  0
LAYER
  5
45
330
2
100
AcDbSymbolTableRecord
100
AcDbLayerTableRecord
  2
SLD-0
 70
     0
 62
   179
  6
Continuous
370
    -3
390
F
  0
ENDTAB
  0
TABLE
  2
STYLE
  5
3
330
0
100
AcDbSymbolTable
 70
     1
  0
STYLE
  5
11
330
3
100
AcDbSymbolTableRecord
100
AcDbTextStyleTableRecord
  2
Standard
 70
     0
 40
0.0
 41
1.0
 50
0.0
 71
     0
 42
3.5
  3
txt
  4

  0
ENDTAB
  0
TABLE
  2
VIEW
  5
6
330
0
100
AcDbSymbolTable
 70
     0
  0
ENDTAB
  0
TABLE
  2
UCS
  5
7
330
0
100
AcDbSymbolTable
 70
     0
  0
ENDTAB
  0
TABLE
  2
APPID
  5
9
330
0
100
AcDbSymbolTable
 70
     1
  0
APPID
  5
12
330
9
100
AcDbSymbolTableRecord
100
AcDbRegAppTableRecord
  2
ACAD
 70
     0
  0
ENDTAB
  0
TABLE
  2
DIMSTYLE
  5
A
330
0
100
AcDbSymbolTable
 70
     1
100
AcDbDimStyleTable
  0
DIMSTYLE
105
27
330
A
100
AcDbSymbolTableRecord
100
AcDbDimStyleTableRecord
  2
ISO-25
 70
     0
 41
2.5
 42
0.625
 43
3.75
 44
1.25
 73
     0
 74
     0
 77
     1
 78
     8
140
2.5
141
2.5
143
0.0393700787
147
0.625
171
     3
172
     1
178
     0
271
     2
272
     2
274
     3
278
    44
283
     0
284
     8
340
11
  0
ENDTAB
  0
TABLE
  2
BLOCK_RECORD
  5
1
330
0
100
AcDbSymbolTable
 70
     1
  0
BLOCK_RECORD
  5
1F
330
1
100
AcDbSymbolTableRecord
100
AcDbBlockTableRecord
  2
*Model_Space
340
22
  0
BLOCK_RECORD
  5
1B
330
1
100
AcDbSymbolTableRecord
100
AcDbBlockTableRecord
  2
*Paper_Space
340
1E
  0
BLOCK_RECORD
  5
23
330
1
100
AcDbSymbolTableRecord
100
AcDbBlockTableRecord
  2
*Paper_Space0
340
26
  0
ENDTAB
  0
ENDSEC
  0
SECTION
  2
BLOCKS
  0
BLOCK
  5
20
330
1F
100
AcDbEntity
  8
0
100
AcDbBlockBegin
  2
*Model_Space
 70
     0
 10
0.0
 20
0.0
 30
0.0
  3
*Model_Space
  1

  0
ENDBLK
  5
21
330
1F
100
AcDbEntity
  8
0
100
AcDbBlockEnd
  0
BLOCK
  5
1C
330
1B
100
AcDbEntity
 67
     1
  8
0
100
AcDbBlockBegin
  2
*Paper_Space
 70
     0
 10
0.0
 20
0.0
 30
0.0
  3
*Paper_Space
  1

  0
ENDBLK
  5
1D
330
1B
100
AcDbEntity
 67
     1
  8
0
100
AcDbBlockEnd
  0
BLOCK
  5
24
330
23
100
AcDbEntity
  8
0
100
AcDbBlockBegin
  2
*Paper_Space0
 70
     0
 10
0.0
 20
0.0
 30
0.0
  3
*Paper_Space0
  1

  0
ENDBLK
  5
25
330
23
100
AcDbEntity
  8
0
100
AcDbBlockEnd
  0
ENDSEC
  0
SECTION
  2
ENTITIES
  0
LINE
  5
46
330
1F
100
AcDbEntity
  8
SLD-0
100
AcDbLine
 10
329.8229608092
 20
71.8001191742
 30
0.0
 11
329.8229608092
 21
93.8001191742
 31
0.0
  0
LINE
  5
47
330
1F
100
AcDbEntity
  8
SLD-0
100
AcDbLine
 10
39.8229608092
 20
93.8001191742
 30
0.0
 11
39.8229608092
 21
71.8001191742
 31
0.0
  0
LINE
  5
48
330
1F
100
AcDbEntity
  8
SLD-0
100
AcDbLine
 10
321.3229608092
 20
93.8001191742
 30
0.0
 11
321.3229608092
 21
108.8001191742
 31
0.0
  0
LINE
  5
49
330
1F
100
AcDbEntity
  8
SLD-0
100
AcDbLine
 10
48.3229608092
 20
108.8001191742
 30
0.0
 11
48.3229608092
 21
93.8001191742
 31
0.0
  0
LINE
  5
4A
330
1F
100
AcDbEntity
  8
SLD-0
100
AcDbLine
 10
48.3229608092
 20
93.8001191742
 30
0.0
 11
39.8229608092
 21
93.8001191742
 31
0.0
  0
LINE
  5
4B
330
1F
100
AcDbEntity
  8
SLD-0
100
AcDbLine
 10
39.8229608092
 20
71.8001191742
 30
0.0
 11
97.3229608092
 21
71.8001191742
 31
0.0
  0
LINE
  5
4C
330
1F
100
AcDbEntity
  8
SLD-0
100
AcDbLine
 10
321.3229608092
 20
93.8001191742
 30
0.0
 11
329.8229608092
 21
93.8001191742
 31
0.0
  0
LINE
  5
4D
330
1F
100
AcDbEntity
  8
SLD-0
100
AcDbLine
 10
329.8229608092
 20
71.8001191742
 30
0.0
 11
272.3229608092
 21
71.8001191742
 31
0.0
  0
LINE
  5
4E
330
1F
100
AcDbEntity
  8
SLD-0
100
AcDbLine
 10
70.3229608092
 20
108.8001191742
 30
0.0
 11
70.3229608092
 21
93.8001191742
 31
0.0
  0
LINE
  5
4F
330
1F
100
AcDbEntity
  8
SLD-0
100
AcDbLine
 10
299.3229608092
 20
93.8001191742
 30
0.0
 11
299.3229608092
 21
108.8001191742
 31
0.0
  0
LINE
  5
50
330
1F
100
AcDbEntity
  8
SLD-0
100
AcDbLine
 10
70.3229608092
 20
93.8001191742
 30
0.0
 11
299.3229608092
 21
93.8001191742
 31
0.0
  0
LINE
  5
51
330
1F
100
AcDbEntity
  8
SLD-0
100
AcDbLine
 10
70.3229608092
 20
108.8001191742
 30
0.0
 11
48.3229608092
 21
108.8001191742
 31
0.0
  0
LINE
  5
52
330
1F
100
AcDbEntity
  8
SLD-0
100
AcDbLine
 10
299.3229608092
 20
108.8001191742
 30
0.0
 11
321.3229608092
 21
108.8001191742
 31
0.0
  0
LINE
  5
53
330
1F
100
AcDbEntity
  8
SLD-0
100
AcDbLine
 10
97.3229608092
 20
56.8001191742
 30
0.0
 11
119.3229608092
 21
56.8001191742
 31
0.0
  0
LINE
  5
54
330
1F
100
AcDbEntity
  8
SLD-0
100
AcDbLine
 10
119.3229608092
 20
56.8001191742
 30
0.0
 11
119.3229608092
 21
71.8001191742
 31
0.0
  0
LINE
  5
55
330
1F
100
AcDbEntity
  8
SLD-0
100
AcDbLine
 10
97.3229608092
 20
71.8001191742
 30
0.0
 11
97.3229608092
 21
56.8001191742
 31
0.0
  0
LINE
  5
56
330
1F
100
AcDbEntity
  8
SLD-0
100
AcDbLine
 10
272.3229608092
 20
56.8001191742
 30
0.0
 11
250.3229608092
 21
56.8001191742
 31
0.0
  0
LINE
  5
57
330
1F
100
AcDbEntity
  8
SLD-0
100
AcDbLine
 10
250.3229608092
 20
56.8001191742
 30
0.0
 11
250.3229608092
 21
71.8001191742
 31
0.0
  0
LINE
  5
58
330
1F
100
AcDbEntity
  8
SLD-0
100
AcDbLine
 10
272.3229608092
 20
71.8001191742
 30
0.0
 11
272.3229608092
 21
56.8001191742
 31
0.0
  0
LINE
  5
59
330
1F
100
AcDbEntity
  8
SLD-0
100
AcDbLine
 10
119.3229608092
 20
71.8001191742
 30
0.0
 11
250.3229608092
 21
71.8001191742
 31
0.0
  0
LINE
  5
5A
330
1F
100
AcDbEntity
  8
SLD-0
100
AcDbLine
 10
51.4698602312
 20
99.1655298408
 30
0.0
 11
51.4698600092
 21
98.2766633964
 31
0.0
  0
LINE
  5
5B
330
1F
100
AcDbEntity
  8
SLD-0
100
AcDbLine
 10
51.4698600092
 20
98.2766633964
 30
0.0
 11
49.9928204536
 21
99.1354409519
 31
0.0
  0
LINE
  5
5C
330
1F
100
AcDbEntity
  8
SLD-0
100
AcDbLine
 10
49.4698600092
 20
99.8321965075
 30
0.0
 11
49.4698600092
 21
100.7210631742
 31
0.0
  0
LINE
  5
5D
330
1F
100
AcDbEntity
  8
SLD-0
100
AcDbLine
 10
49.4698600092
 20
100.7210631742
 30
0.0
 11
51.4698602314
 21
100.1655298408
 31
0.0
  0
LINE
  5
5E
330
1F
100
AcDbEntity
  8
SLD-0
100
AcDbLine
 10
50.3587491203
 20
100.2766187297
 30
0.0
 11
50.3587491203
 21
100.7210631742
 31
0.0
  0
LINE
  5
5F
330
1F
100
AcDbEntity
  8
SLD-0
100
AcDbLine
 10
49.4698600092
 20
101.3877298408
 30
0.0
 11
49.4698600092
 21
101.8321742853
 31
0.0
  0
LINE
  5
60
330
1F
100
AcDbEntity
  8
SLD-0
100
AcDbLine
 10
50.3587491203
 20
101.8321742853
 30
0.0
 11
50.3587491203
 21
101.609952063
 31
0.0
  0
LINE
  5
61
330
1F
100
AcDbEntity
  8
SLD-0
100
AcDbLine
 10
50.8031934536
 20
102.2766186186
 30
0.0
 11
51.0254156759
 21
102.2766186186
 31
0.0
  0
LINE
  5
62
330
1F
100
AcDbEntity
  8
SLD-0
100
AcDbLine
 10
51.4698602314
 20
101.8321738408
 30
0.0
 11
51.4698600092
 21
101.3877298408
 31
0.0
  0
LINE
  5
63
330
1F
100
AcDbEntity
  8
SLD-0
100
AcDbLine
 10
319.2629610312
 20
98.1289858408
 30
0.0
 11
319.2629608092
 21
97.2401193964
 31
0.0
  0
LINE
  5
64
330
1F
100
AcDbEntity
  8
SLD-0
100
AcDbLine
 10
319.2629608092
 20
97.2401193964
 30
0.0
 11
317.7859212536
 21
98.0988969519
 31
0.0
  0
LINE
  5
65
330
1F
100
AcDbEntity
  8
SLD-0
100
AcDbLine
 10
317.2629608092
 20
98.7956525075
 30
0.0
 11
317.2629608092
 21
99.6845191742
 31
0.0
  0
LINE
  5
66
330
1F
100
AcDbEntity
  8
SLD-0
100
AcDbLine
 10
317.2629608092
 20
99.6845191742
 30
0.0
 11
319.2629610314
 21
99.1289858408
 31
0.0
  0
LINE
  5
67
330
1F
100
AcDbEntity
  8
SLD-0
100
AcDbLine
 10
318.1518499203
 20
99.2400747297
 30
0.0
 11
318.1518499203
 21
99.6845191742
 31
0.0
  0
LINE
  5
68
330
1F
100
AcDbEntity
  8
SLD-0
100
AcDbLine
 10
317.2629608092
 20
100.3511858408
 30
0.0
 11
317.2629608092
 21
100.7956302853
 31
0.0
  0
LINE
  5
69
330
1F
100
AcDbEntity
  8
SLD-0
100
AcDbLine
 10
318.1518499203
 20
100.7956302853
 30
0.0
 11
318.1518499203
 21
100.573408063
 31
0.0
  0
LINE
  5
6A
330
1F
100
AcDbEntity
  8
SLD-0
100
AcDbLine
 10
318.5962942536
 20
101.2400746186
 30
0.0
 11
318.8185164759
 21
101.2400746186
 31
0.0
  0
LINE
  5
6B
330
1F
100
AcDbEntity
  8
SLD-0
100
AcDbLine
 10
319.2629610314
 20
100.7956298408
 30
0.0
 11
319.2629608092
 21
100.3511858408
 31
0.0
  0
LINE
  5
6C
330
1F
100
AcDbEntity
  8
SLD-0
100
AcDbLine
 10
318.9747050312
 20
104.9326978408
 30
0.0
 11
318.9747048092
 21
104.0438313964
 31
0.0
  0
LINE
  5
6D
330
1F
100
AcDbEntity
  8
SLD-0
100
AcDbLine
 10
318.9747048092
 20
104.0438313964
 30
0.0
 11
317.4976652536
 21
104.9026089519
 31
0.0
  0
LINE
  5
6E
330
1F
100
AcDbEntity
  8
SLD-0
100
AcDbLine
 10
318.9747050312
 20
106.4882311742
 30
0.0
 11
318.9747048092
 21
105.5993647297
 31
0.0
  0
LINE
  5
6F
330
1F
100
AcDbEntity
  8
SLD-0
100
AcDbLine
 10
318.9747048092
 20
105.5993647297
 30
0.0
 11
317.4976652536
 21
106.4581422853
 31
0.0
  0
LINE
  5
70
330
1F
100
AcDbEntity
  8
SLD-0
100
AcDbLine
 10
301.9353450312
 20
104.7360898408
 30
0.0
 11
301.9353448092
 21
103.8472233964
 31
0.0
  0
LINE
  5
71
330
1F
100
AcDbEntity
  8
SLD-0
100
AcDbLine
 10
301.9353448092
 20
103.8472233964
 30
0.0
 11
300.4583052536
 21
104.7060009519
 31
0.0
  0
LINE
  5
72
330
1F
100
AcDbEntity
  8
SLD-0
100
AcDbLine
 10
301.9353450312
 20
106.2916231742
 30
0.0
 11
301.9353448092
 21
105.4027567297
 31
0.0
  0
LINE
  5
73
330
1F
100
AcDbEntity
  8
SLD-0
100
AcDbLine
 10
301.9353448092
 20
105.4027567297
 30
0.0
 11
300.4583052536
 21
106.2615342853
 31
0.0
  0
LINE
  5
74
330
1F
100
AcDbEntity
  8
SLD-0
100
AcDbLine
 10
51.4229610312
 20
105.3289858408
 30
0.0
 11
51.4229608092
 21
104.4401193964
 31
0.0
  0
LINE
  5
75
330
1F
100
AcDbEntity
  8
SLD-0
100
AcDbLine
 10
51.4229608092
 20
104.4401193964
 30
0.0
 11
49.9459212536
 21
105.2988969519
 31
0.0
  0
LINE
  5
76
330
1F
100
AcDbEntity
  8
SLD-0
100
AcDbLine
 10
51.4229610312
 20
106.8845191742
 30
0.0
 11
51.4229608092
 21
105.9956527297
 31
0.0
  0
LINE
  5
77
330
1F
100
AcDbEntity
  8
SLD-0
100
AcDbLine
 10
51.4229608092
 20
105.9956527297
 30
0.0
 11
49.9459212536
 21
106.8544302853
 31
0.0
  0
LINE
  5
78
330
1F
100
AcDbEntity
  8
SLD-0
100
AcDbLine
 10
68.8309610312
 20
104.9449858408
 30
0.0
 11
68.8309608092
 21
104.0561193964
 31
0.0
  0
LINE
  5
79
330
1F
100
AcDbEntity
  8
SLD-0
100
AcDbLine
 10
68.8309608092
 20
104.0561193964
 30
0.0
 11
67.3539212536
 21
104.9148969519
 31
0.0
  0
LINE
  5
7A
330
1F
100
AcDbEntity
  8
SLD-0
100
AcDbLine
 10
68.8309610312
 20
106.5005191742
 30
0.0
 11
68.8309608092
 21
105.6116527297
 31
0.0
  0
LINE
  5
7B
330
1F
100
AcDbEntity
  8
SLD-0
100
AcDbLine
 10
68.8309608092
 20
105.6116527297
 30
0.0
 11
67.3539212536
 21
106.4704302853
 31
0.0
  0
LINE
  5
7C
330
1F
100
AcDbEntity
  8
SLD-0
100
AcDbLine
 10
100.2319210312
 20
58.6806658408
 30
0.0
 11
100.2319208092
 21
57.7917993964
 31
0.0
  0
LINE
  5
7D
330
1F
100
AcDbEntity
  8
SLD-0
100
AcDbLine
 10
100.2319208092
 20
57.7917993964
 30
0.0
 11
98.7548812536
 21
58.6505769519
 31
0.0
  0
LINE
  5
7E
330
1F
100
AcDbEntity
  8
SLD-0
100
AcDbLine
 10
100.2319210312
 20
60.2361991741
 30
0.0
 11
100.2319208092
 21
59.3473327297
 31
0.0
  0
LINE
  5
7F
330
1F
100
AcDbEntity
  8
SLD-0
100
AcDbLine
 10
100.2319208092
 20
59.3473327297
 30
0.0
 11
98.7548812536
 21
60.2061102853
 31
0.0
  0
LINE
  5
80
330
1F
100
AcDbEntity
  8
SLD-0
100
AcDbLine
 10
118.4181610312
 20
58.5987458408
 30
0.0
 11
118.4181608092
 21
57.7098793964
 31
0.0
  0
LINE
  5
81
330
1F
100
AcDbEntity
  8
SLD-0
100
AcDbLine
 10
118.4181608092
 20
57.7098793964
 30
0.0
 11
116.9411212536
 21
58.5686569519
 31
0.0
  0
LINE
  5
82
330
1F
100
AcDbEntity
  8
SLD-0
100
AcDbLine
 10
118.4181610312
 20
60.1542791741
 30
0.0
 11
118.4181608092
 21
59.2654127297
 31
0.0
  0
LINE
  5
83
330
1F
100
AcDbEntity
  8
SLD-0
100
AcDbLine
 10
118.4181608092
 20
59.2654127297
 30
0.0
 11
116.9411212536
 21
60.1241902853
 31
0.0
  0
LINE
  5
84
330
1F
100
AcDbEntity
  8
SLD-0
100
AcDbLine
 10
253.3404010312
 20
59.0083458408
 30
0.0
 11
253.3404008092
 21
58.1194793964
 31
0.0
  0
LINE
  5
85
330
1F
100
AcDbEntity
  8
SLD-0
100
AcDbLine
 10
253.3404008092
 20
58.1194793964
 30
0.0
 11
251.8633612536
 21
58.9782569519
 31
0.0
  0
LINE
  5
86
330
1F
100
AcDbEntity
  8
SLD-0
100
AcDbLine
 10
253.3404010312
 20
60.5638791741
 30
0.0
 11
253.3404008092
 21
59.6750127297
 31
0.0
  0
LINE
  5
87
330
1F
100
AcDbEntity
  8
SLD-0
100
AcDbLine
 10
253.3404008092
 20
59.6750127297
 30
0.0
 11
251.8633612536
 21
60.5337902853
 31
0.0
  0
LINE
  5
88
330
1F
100
AcDbEntity
  8
SLD-0
100
AcDbLine
 10
271.4447210312
 20
58.6806658408
 30
0.0
 11
271.4447208092
 21
57.7917993964
 31
0.0
  0
LINE
  5
89
330
1F
100
AcDbEntity
  8
SLD-0
100
AcDbLine
 10
271.4447208092
 20
57.7917993964
 30
0.0
 11
269.9676812536
 21
58.6505769519
 31
0.0
  0
LINE
  5
8A
330
1F
100
AcDbEntity
  8
SLD-0
100
AcDbLine
 10
271.4447210312
 20
60.2361991741
 30
0.0
 11
271.4447208092
 21
59.3473327297
 31
0.0
  0
LINE
  5
8B
330
1F
100
AcDbEntity
  8
SLD-0
100
AcDbLine
 10
271.4447208092
 20
59.3473327297
 30
0.0
 11
269.9676812536
 21
60.2061102853
 31
0.0
  0
LINE
  5
8C
330
1F
100
AcDbEntity
  8
SLD-0
100
AcDbLine
 10
42.2191554759
 20
91.0993189521
 30
0.0
 11
41.3302890314
 21
91.0993191742
 31
0.0
  0
LINE
  5
8D
330
1F
100
AcDbEntity
  8
SLD-0
100
AcDbLine
 10
41.3302890314
 20
91.0993191742
 30
0.0
 11
42.189066587
 21
92.5763587297
 31
0.0
  0
LINE
  5
8E
330
1F
100
AcDbEntity
  8
SLD-0
100
AcDbLine
 10
43.7746888092
 20
91.0993189521
 30
0.0
 11
42.8858223647
 21
91.0993191742
 31
0.0
  0
LINE
  5
8F
330
1F
100
AcDbEntity
  8
SLD-0
100
AcDbLine
 10
42.8858223647
 20
91.0993191742
 30
0.0
 11
43.7445999203
 21
92.5763587297
 31
0.0
  0
LINE
  5
90
330
1F
100
AcDbEntity
  8
SLD-0
100
AcDbLine
 10
41.6078274759
 20
73.0001189521
 30
0.0
 11
40.7189610314
 21
73.0001191742
 31
0.0
  0
LINE
  5
91
330
1F
100
AcDbEntity
  8
SLD-0
100
AcDbLine
 10
40.7189610314
 20
73.0001191742
 30
0.0
 11
41.577738587
 21
74.4771587297
 31
0.0
  0
LINE
  5
92
330
1F
100
AcDbEntity
  8
SLD-0
100
AcDbLine
 10
43.1633608092
 20
73.0001189521
 30
0.0
 11
42.2744943647
 21
73.0001191742
 31
0.0
  0
LINE
  5
93
330
1F
100
AcDbEntity
  8
SLD-0
100
AcDbLine
 10
42.2744943647
 20
73.0001191742
 30
0.0
 11
43.1332719203
 21
74.4771587297
 31
0.0
  0
LINE
  5
94
330
1F
100
AcDbEntity
  8
SLD-0
100
AcDbLine
 10
325.7934274759
 20
90.8945189521
 30
0.0
 11
324.9045610314
 21
90.8945191742
 31
0.0
  0
LINE
  5
95
330
1F
100
AcDbEntity
  8
SLD-0
100
AcDbLine
 10
324.9045610314
 20
90.8945191742
 30
0.0
 11
325.763338587
 21
92.3715587297
 31
0.0
  0
LINE
  5
96
330
1F
100
AcDbEntity
  8
SLD-0
100
AcDbLine
 10
327.3489608092
 20
90.8945189521
 30
0.0
 11
326.4600943648
 21
90.8945191742
 31
0.0
  0
LINE
  5
97
330
1F
100
AcDbEntity
  8
SLD-0
100
AcDbLine
 10
326.4600943648
 20
90.8945191742
 30
0.0
 11
327.3188719203
 21
92.3715587297
 31
0.0
  0
LINE
  5
98
330
1F
100
AcDbEntity
  8
SLD-0
100
AcDbLine
 10
325.6910274759
 20
73.5889189521
 30
0.0
 11
324.8021610314
 21
73.5889191742
 31
0.0
  0
LINE
  5
99
330
1F
100
AcDbEntity
  8
SLD-0
100
AcDbLine
 10
324.8021610314
 20
73.5889191742
 30
0.0
 11
325.660938587
 21
75.0659587297
 31
0.0
  0
LINE
  5
9A
330
1F
100
AcDbEntity
  8
SLD-0
100
AcDbLine
 10
327.2465608092
 20
73.5889189521
 30
0.0
 11
326.3576943648
 21
73.5889191742
 31
0.0
  0
LINE
  5
9B
330
1F
100
AcDbEntity
  8
SLD-0
100
AcDbLine
 10
326.3576943648
 20
73.5889191742
 30
0.0
 11
327.2164719203
 21
75.0659587297
 31
0.0
  0
LINE
  5
9C
330
1F
100
AcDbEntity
  8
SLD-0
100
AcDbLine
 10
328.6453610312
 20
82.3145858408
 30
0.0
 11
328.6453608092
 21
81.4257193964
 31
0.0
  0
LINE
  5
9D
330
1F
100
AcDbEntity
  8
SLD-0
100
AcDbLine
 10
328.6453608092
 20
81.4257193964
 30
0.0
 11
327.1683212536
 21
82.2844969519
 31
0.0
  0
LINE
  5
9E
330
1F
100
AcDbEntity
  8
SLD-0
100
AcDbLine
 10
327.4906608092
 20
83.8701413964
 30
0.0
 11
327.0898052536
 21
83.8701413964
 31
0.0
  0
LINE
  5
9F
330
1F
100
AcDbEntity
  8
SLD-0
100
AcDbLine
 10
327.0898052536
 20
82.9812302853
 30
0.0
 11
327.3120276981
 21
82.9812302853
 31
0.0
  0
LINE
  5
A0
330
1F
100
AcDbEntity
  8
SLD-0
100
AcDbLine
 10
327.7564719203
 20
83.4256969519
 30
0.0
 11
327.7564719203
 21
83.8433858408
 31
0.0
  0
LINE
  5
A1
330
1F
100
AcDbEntity
  8
SLD-0
100
AcDbLine
 10
43.4613610312
 20
82.1917058408
 30
0.0
 11
43.4613608092
 21
81.3028393964
 31
0.0
  0
LINE
  5
A2
330
1F
100
AcDbEntity
  8
SLD-0
100
AcDbLine
 10
43.4613608092
 20
81.3028393964
 30
0.0
 11
41.9843212536
 21
82.1616169519
 31
0.0
  0
LINE
  5
A3
330
1F
100
AcDbEntity
  8
SLD-0
100
AcDbLine
 10
42.3066608092
 20
83.7472613964
 30
0.0
 11
41.9058052536
 21
83.7472613964
 31
0.0
  0
LINE
  5
A4
330
1F
100
AcDbEntity
  8
SLD-0
100
AcDbLine
 10
41.9058052536
 20
82.8583502853
 30
0.0
 11
42.1280276981
 21
82.8583502853
 31
0.0
  0
LINE
  5
A5
330
1F
100
AcDbEntity
  8
SLD-0
100
AcDbLine
 10
42.5724719203
 20
83.3028169519
 30
0.0
 11
42.5724719203
 21
83.7205058408
 31
0.0
  0
LINE
  5
A6
330
1F
100
AcDbEntity
  8
SLD-0
100
AcDbLine
 10
98.5944452537
 20
64.3945289519
 30
0.0
 11
98.1500008092
 21
64.8389733964
 31
0.0
  0
LINE
  5
A7
330
1F
100
AcDbEntity
  8
SLD-0
100
AcDbLine
 10
98.1500008092
 20
64.8389733964
 30
0.0
 11
100.1500010314
 21
64.8389733964
 31
0.0
  0
LINE
  5
A8
330
1F
100
AcDbEntity
  8
SLD-0
100
AcDbLine
 10
98.1500008092
 20
65.505640063
 30
0.0
 11
98.1500008092
 21
66.3945067297
 31
0.0
  0
LINE
  5
A9
330
1F
100
AcDbEntity
  8
SLD-0
100
AcDbLine
 10
98.1500008092
 20
66.3945067297
 30
0.0
 11
100.1500010314
 21
65.8389733964
 31
0.0
  0
LINE
  5
AA
330
1F
100
AcDbEntity
  8
SLD-0
100
AcDbLine
 10
99.0388899203
 20
65.9500622853
 30
0.0
 11
99.0388899203
 21
66.3945067297
 31
0.0
  0
LINE
  5
AB
330
1F
100
AcDbEntity
  8
SLD-0
100
AcDbLine
 10
98.1500008092
 20
67.9500622853
 30
0.0
 11
98.1500008092
 21
67.0611511741
 31
0.0
  0
LINE
  5
AC
330
1F
100
AcDbEntity
  8
SLD-0
100
AcDbLine
 10
98.1500008092
 20
67.0611511741
 30
0.0
 11
99.0388899203
 21
67.0611511741
 31
0.0
  0
LINE
  5
AD
330
1F
100
AcDbEntity
  8
SLD-0
100
AcDbLine
 10
99.0388899203
 20
67.0611511741
 30
0.0
 11
99.0388899203
 21
67.5055956186
 31
0.0
  0
LINE
  5
AE
330
1F
100
AcDbEntity
  8
SLD-0
100
AcDbLine
 10
99.4833341425
 20
67.9500622853
 30
0.0
 11
99.7055563647
 21
67.9500622853
 31
0.0
  0
LINE
  5
AF
330
1F
100
AcDbEntity
  8
SLD-0
100
AcDbLine
 10
100.1500010314
 20
67.5055956186
 30
0.0
 11
100.1500010314
 21
67.0611511741
 31
0.0
  0
LINE
  5
B0
330
1F
100
AcDbEntity
  8
SLD-0
100
AcDbLine
 10
269.9139378617
 20
63.37793452
 30
0.0
 11
269.4694934172
 21
63.8223789644
 31
0.0
  0
LINE
  5
B1
330
1F
100
AcDbEntity
  8
SLD-0
100
AcDbLine
 10
269.4694934172
 20
63.8223789644
 30
0.0
 11
271.4694936394
 21
63.8223789644
 31
0.0
  0
LINE
  5
B2
330
1F
100
AcDbEntity
  8
SLD-0
100
AcDbLine
 10
269.4694934172
 20
64.489045631
 30
0.0
 11
269.4694934172
 21
65.3779122977
 31
0.0
  0
LINE
  5
B3
330
1F
100
AcDbEntity
  8
SLD-0
100
AcDbLine
 10
269.4694934172
 20
65.3779122977
 30
0.0
 11
271.4694936394
 21
64.8223789644
 31
0.0
  0
LINE
  5
B4
330
1F
100
AcDbEntity
  8
SLD-0
100
AcDbLine
 10
270.3583825283
 20
64.9334678533
 30
0.0
 11
270.3583825283
 21
65.3779122977
 31
0.0
  0
LINE
  5
B5
330
1F
100
AcDbEntity
  8
SLD-0
100
AcDbLine
 10
269.4694934172
 20
66.9334678533
 30
0.0
 11
269.4694934172
 21
66.0445567421
 31
0.0
  0
LINE
  5
B6
330
1F
100
AcDbEntity
  8
SLD-0
100
AcDbLine
 10
269.4694934172
 20
66.0445567421
 30
0.0
 11
270.3583825283
 21
66.0445567421
 31
0.0
  0
LINE
  5
B7
330
1F
100
AcDbEntity
  8
SLD-0
100
AcDbLine
 10
270.3583825283
 20
66.0445567421
 30
0.0
 11
270.3583825283
 21
66.4890011866
 31
0.0
  0
LINE
  5
B8
330
1F
100
AcDbEntity
  8
SLD-0
100
AcDbLine
 10
270.8028267505
 20
66.9334678533
 30
0.0
 11
271.0250489728
 21
66.9334678533
 31
0.0
  0
LINE
  5
B9
330
1F
100
AcDbEntity
  8
SLD-0
100
AcDbLine
 10
271.4694936394
 20
66.4890011866
 30
0.0
 11
271.4694936394
 21
66.0445567421
 31
0.0
  0
LINE
  5
BA
330
1F
100
AcDbEntity
  8
SLD-0
100
AcDbLine
 10
154.9943449362
 20
74.1524996821
 30
0.0
 11
154.9943449362
 21
76.8191663488
 31
0.0
  0
LINE
  5
BB
330
1F
100
AcDbEntity
  8
SLD-0
100
AcDbLine
 10
154.9943449362
 20
76.8191663488
 30
0.0
 11
155.8832338251
 21
76.8191663488
 31
0.0
  0
LINE
  5
BC
330
1F
100
AcDbEntity
  8
SLD-0
100
AcDbLine
 10
157.6610560473
 20
75.4858334599
 30
0.0
 11
159.4387893806
 21
75.4858334599
 31
0.0
  0
LINE
  5
BD
330
1F
100
AcDbEntity
  8
SLD-0
100
AcDbLine
 10
159.4387893806
 20
75.4858334599
 30
0.0
 11
159.4387893806
 21
75.9302779043
 31
0.0
  0
LINE
  5
BE
330
1F
100
AcDbEntity
  8
SLD-0
100
AcDbLine
 10
157.6610560473
 20
75.9302779043
 30
0.0
 11
157.6610560473
 21
74.8191663488
 31
0.0
  0
LINE
  5
BF
330
1F
100
AcDbEntity
  8
SLD-0
100
AcDbLine
 10
158.3276782695
 20
74.1524996822
 30
0.0
 11
159.4387893806
 21
74.1524996822
 31
0.0
  0
LINE
  5
C0
330
1F
100
AcDbEntity
  8
SLD-0
100
AcDbLine
 10
160.7720782695
 20
74.1524996821
 30
0.0
 11
161.8831449362
 21
74.1524996821
 31
0.0
  0
LINE
  5
C1
330
1F
100
AcDbEntity
  8
SLD-0
100
AcDbLine
 10
162.5498116029
 20
74.8191663487
 30
0.0
 11
162.5498116029
 21
76.152499682
 31
0.0
  0
LINE
  5
C2
330
1F
100
AcDbEntity
  8
SLD-0
100
AcDbLine
 10
161.8831449362
 20
76.8191663487
 30
0.0
 11
160.7720782695
 21
76.8191663487
 31
0.0
  0
LINE
  5
C3
330
1F
100
AcDbEntity
  8
SLD-0
100
AcDbLine
 10
160.7720782695
 20
76.8191663487
 30
0.0
 11
160.7720782695
 21
72.8191667931
 31
0.0
  0
LINE
  5
C4
330
1F
100
AcDbEntity
  8
SLD-0
100
AcDbLine
 10
163.8831004917
 20
74.1524996821
 30
0.0
 11
163.8831004917
 21
76.8191663488
 31
0.0
  0
LINE
  5
C5
330
1F
100
AcDbEntity
  8
SLD-0
100
AcDbLine
 10
163.8831004917
 20
76.8191663488
 30
0.0
 11
164.7719893806
 21
76.8191663488
 31
0.0
  0
LINE
  5
C6
330
1F
100
AcDbEntity
  8
SLD-0
100
AcDbLine
 10
166.7719893806
 20
76.8191663488
 30
0.0
 11
167.6608338251
 21
76.8191663488
 31
0.0
  0
LINE
  5
C7
330
1F
100
AcDbEntity
  8
SLD-0
100
AcDbLine
 10
168.3275004918
 20
76.1524996822
 30
0.0
 11
168.3275004918
 21
74.1524996826
 31
0.0
  0
LINE
  5
C8
330
1F
100
AcDbEntity
  8
SLD-0
100
AcDbLine
 10
168.3275004918
 20
74.1524996826
 30
0.0
 11
167.2163893807
 21
74.1524996826
 31
0.0
  0
LINE
  5
C9
330
1F
100
AcDbEntity
  8
SLD-0
100
AcDbLine
 10
167.2163893807
 20
75.4858334599
 30
0.0
 11
168.3275004918
 21
75.4858334599
 31
0.0
  0
LINE
  5
CA
330
1F
100
AcDbEntity
  8
SLD-0
100
AcDbLine
 10
169.6607893806
 20
74.1524996821
 30
0.0
 11
170.7718560473
 21
74.1524996821
 31
0.0
  0
LINE
  5
CB
330
1F
100
AcDbEntity
  8
SLD-0
100
AcDbLine
 10
171.438522714
 20
74.8191663488
 30
0.0
 11
171.438522714
 21
76.1524996821
 31
0.0
  0
LINE
  5
CC
330
1F
100
AcDbEntity
  8
SLD-0
100
AcDbLine
 10
170.7718560473
 20
76.8191663488
 30
0.0
 11
169.6607893806
 21
76.8191663488
 31
0.0
  0
LINE
  5
CD
330
1F
100
AcDbEntity
  8
SLD-0
100
AcDbLine
 10
169.6607893806
 20
76.8191663488
 30
0.0
 11
169.6607893806
 21
72.8191667932
 31
0.0
  0
LINE
  5
CE
330
1F
100
AcDbEntity
  8
SLD-0
100
AcDbLine
 10
172.7718116028
 20
74.1524996821
 30
0.0
 11
173.8828782695
 21
74.1524996821
 31
0.0
  0
LINE
  5
CF
330
1F
100
AcDbEntity
  8
SLD-0
100
AcDbLine
 10
174.5495449362
 20
74.8191663488
 30
0.0
 11
174.5495449362
 21
76.1524996821
 31
0.0
  0
LINE
  5
D0
330
1F
100
AcDbEntity
  8
SLD-0
100
AcDbLine
 10
173.8828782695
 20
76.8191663488
 30
0.0
 11
172.7718116028
 21
76.8191663488
 31
0.0
  0
LINE
  5
D1
330
1F
100
AcDbEntity
  8
SLD-0
100
AcDbLine
 10
172.7718116028
 20
76.8191663488
 30
0.0
 11
172.7718116028
 21
72.8191667932
 31
0.0
  0
LINE
  5
D2
330
1F
100
AcDbEntity
  8
SLD-0
100
AcDbLine
 10
175.8828338251
 20
74.1524996821
 30
0.0
 11
175.8828338251
 21
76.8191663488
 31
0.0
  0
LINE
  5
D3
330
1F
100
AcDbEntity
  8
SLD-0
100
AcDbLine
 10
175.8828338251
 20
76.8191663488
 30
0.0
 11
176.771722714
 21
76.8191663488
 31
0.0
  0
LINE
  5
D4
330
1F
100
AcDbEntity
  8
SLD-0
100
AcDbLine
 10
178.5494116028
 20
75.9302779043
 30
0.0
 11
178.5494116028
 21
75.0413890154
 31
0.0
  0
LINE
  5
D5
330
1F
100
AcDbEntity
  8
SLD-0
100
AcDbLine
 10
180.3272782695
 20
75.0413890154
 30
0.0
 11
180.3272782695
 21
75.9302779043
 31
0.0
  0
LINE
  5
D6
330
1F
100
AcDbEntity
  8
SLD-0
100
AcDbLine
 10
181.6606564917
 20
74.1525001265
 30
0.0
 11
181.6606560473
 21
74.3747219043
 31
0.0
  0
LINE
  5
D7
330
1F
100
AcDbEntity
  8
SLD-0
100
AcDbLine
 10
184.3273231584
 20
76.8191663488
 30
0.0
 11
183.6606564917
 21
76.8191663488
 31
0.0
  0
LINE
  5
D8
330
1F
100
AcDbEntity
  8
SLD-0
100
AcDbLine
 10
182.9939898251
 20
76.1524996821
 30
0.0
 11
182.9939898251
 21
74.8191663488
 31
0.0
  0
LINE
  5
D9
330
1F
100
AcDbEntity
  8
SLD-0
100
AcDbLine
 10
183.6606564917
 20
74.1524996821
 30
0.0
 11
184.3273231584
 21
74.1524996821
 31
0.0
  0
LINE
  5
DA
330
1F
100
AcDbEntity
  8
SLD-0
100
AcDbLine
 10
185.6605676028
 20
75.9302779043
 30
0.0
 11
185.6605676028
 21
75.0413890154
 31
0.0
  0
LINE
  5
DB
330
1F
100
AcDbEntity
  8
SLD-0
100
AcDbLine
 10
187.4384342695
 20
75.0413890154
 30
0.0
 11
187.4384342695
 21
75.9302779043
 31
0.0
  0
LINE
  5
DC
330
1F
100
AcDbEntity
  8
SLD-0
100
AcDbLine
 10
188.7718124917
 20
74.1525001265
 30
0.0
 11
188.7718120473
 21
76.8191663488
 31
0.0
  0
LINE
  5
DD
330
1F
100
AcDbEntity
  8
SLD-0
100
AcDbLine
 10
188.7718120473
 20
76.8191663488
 30
0.0
 11
190.7718120473
 21
76.8191663488
 31
0.0
  0
LINE
  5
DE
330
1F
100
AcDbEntity
  8
SLD-0
100
AcDbLine
 10
191.438478714
 20
76.1524996821
 30
0.0
 11
191.438478714
 21
74.152499684
 31
0.0
  0
LINE
  5
DF
330
1F
100
AcDbEntity
  8
SLD-0
100
AcDbLine
 10
190.1051453806
 20
76.8191663488
 30
0.0
 11
190.1051453806
 21
74.1524996818
 31
0.0
  0
ARC
  5
E0
330
1F
100
AcDbEntity
  8
SLD-0
100
AcDbCircle
 10
49.8811240092
 20
98.9433076186
 30
0.0
 40
0.2222222222222125
100
AcDbArc
 50
59.82546
 51
110.529098
  0
ARC
  5
E1
330
1F
100
AcDbEntity
  8
SLD-0
100
AcDbCircle
 10
49.9143044536
 20
98.7210853964
 30
0.0
 40
0.4444447149737318
100
AcDbArc
 50
104.4773561436
 51
255.52247
  0
ARC
  5
E2
330
1F
100
AcDbEntity
  8
SLD-0
100
AcDbCircle
 10
49.9143045648
 20
101.8321742853
 30
0.0
 40
0.4444445555500067
100
AcDbArc
 50
0.0
 51
180.0
  0
ARC
  5
E3
330
1F
100
AcDbEntity
  8
SLD-0
100
AcDbCircle
 10
50.8031934536
 20
101.8321742853
 30
0.0
 40
0.4444443333000123
100
AcDbArc
 50
90.0
 51
180.0
  0
ARC
  5
E4
330
1F
100
AcDbEntity
  8
SLD-0
100
AcDbCircle
 10
51.0254156759
 20
101.832174063
 30
0.0
 40
0.4444445555500351
100
AcDbArc
 50
359.999971355
 51
90.0
  0
ARC
  5
E5
330
1F
100
AcDbEntity
  8
SLD-0
100
AcDbCircle
 10
317.6742248092
 20
97.9067636186
 30
0.0
 40
0.2222222222222835
100
AcDbArc
 50
59.82546
 51
110.529098
  0
ARC
  5
E6
330
1F
100
AcDbEntity
  8
SLD-0
100
AcDbCircle
 10
317.7074052536
 20
97.6845413964
 30
0.0
 40
0.4444447149737284
100
AcDbArc
 50
104.4773561436
 51
255.52247
  0
ARC
  5
E7
330
1F
100
AcDbEntity
  8
SLD-0
100
AcDbCircle
 10
317.7074053648
 20
100.7956302853
 30
0.0
 40
0.4444445555499783
100
AcDbArc
 50
0.0
 51
180.0
  0
ARC
  5
E8
330
1F
100
AcDbEntity
  8
SLD-0
100
AcDbCircle
 10
318.5962942536
 20
100.7956302853
 30
0.0
 40
0.4444443332999981
100
AcDbArc
 50
90.0
 51
180.0
  0
ARC
  5
E9
330
1F
100
AcDbEntity
  8
SLD-0
100
AcDbCircle
 10
318.8185164759
 20
100.795630063
 30
0.0
 40
0.4444445555500209
100
AcDbArc
 50
359.999971355
 51
90.0
  0
ARC
  5
EA
330
1F
100
AcDbEntity
  8
SLD-0
100
AcDbCircle
 10
317.3859688092
 20
104.7104756186
 30
0.0
 40
0.2222222222222196
100
AcDbArc
 50
59.82546
 51
110.529098
  0
ARC
  5
EB
330
1F
100
AcDbEntity
  8
SLD-0
100
AcDbCircle
 10
317.4191492536
 20
104.4882533964
 30
0.0
 40
0.4444447149737372
100
AcDbArc
 50
104.4773561436
 51
255.52247
  0
ARC
  5
EC
330
1F
100
AcDbEntity
  8
SLD-0
100
AcDbCircle
 10
317.3859688092
 20
106.2660089519
 30
0.0
 40
0.2222222222222196
100
AcDbArc
 50
59.82546
 51
110.529098
  0
ARC
  5
ED
330
1F
100
AcDbEntity
  8
SLD-0
100
AcDbCircle
 10
317.4191492536
 20
106.0437867297
 30
0.0
 40
0.4444447149737372
100
AcDbArc
 50
104.4773561436
 51
255.52247
  0
ARC
  5
EE
330
1F
100
AcDbEntity
  8
SLD-0
100
AcDbCircle
 10
300.3466088092
 20
104.5138676186
 30
0.0
 40
0.2222222222222549
100
AcDbArc
 50
59.82546
 51
110.529098
  0
ARC
  5
EF
330
1F
100
AcDbEntity
  8
SLD-0
100
AcDbCircle
 10
300.3797892536
 20
104.2916453964
 30
0.0
 40
0.4444447149737418
100
AcDbArc
 50
104.4773561436
 51
255.52247
  0
ARC
  5
F0
330
1F
100
AcDbEntity
  8
SLD-0
100
AcDbCircle
 10
300.3466088092
 20
106.0694009519
 30
0.0
 40
0.2222222222222426
100
AcDbArc
 50
59.82546
 51
110.529098
  0
ARC
  5
F1
330
1F
100
AcDbEntity
  8
SLD-0
100
AcDbCircle
 10
300.3797892536
 20
105.8471787297
 30
0.0
 40
0.4444447149737422
100
AcDbArc
 50
104.4773561436
 51
255.52247
  0
ARC
  5
F2
330
1F
100
AcDbEntity
  8
SLD-0
100
AcDbCircle
 10
49.8342248092
 20
105.1067636186
 30
0.0
 40
0.2222222222222125
100
AcDbArc
 50
59.82546
 51
110.529098
  0
ARC
  5
F3
330
1F
100
AcDbEntity
  8
SLD-0
100
AcDbCircle
 10
49.8674052536
 20
104.8845413964
 30
0.0
 40
0.4444447149737147
100
AcDbArc
 50
104.4773561436
 51
255.52247
  0
ARC
  5
F4
330
1F
100
AcDbEntity
  8
SLD-0
100
AcDbCircle
 10
49.8342248092
 20
106.6622969519
 30
0.0
 40
0.2222222222222125
100
AcDbArc
 50
59.82546
 51
110.529098
  0
ARC
  5
F5
330
1F
100
AcDbEntity
  8
SLD-0
100
AcDbCircle
 10
49.8674052536
 20
106.4400747297
 30
0.0
 40
0.4444447149737147
100
AcDbArc
 50
104.4773561436
 51
255.52247
  0
ARC
  5
F6
330
1F
100
AcDbEntity
  8
SLD-0
100
AcDbCircle
 10
67.2422248092
 20
104.7227636186
 30
0.0
 40
0.2222222222222406
100
AcDbArc
 50
59.82546
 51
110.529098
  0
ARC
  5
F7
330
1F
100
AcDbEntity
  8
SLD-0
100
AcDbCircle
 10
67.2754052536
 20
104.5005413964
 30
0.0
 40
0.4444447149737284
100
AcDbArc
 50
104.4773561436
 51
255.52247
  0
ARC
  5
F8
330
1F
100
AcDbEntity
  8
SLD-0
100
AcDbCircle
 10
67.2422248092
 20
106.2782969519
 30
0.0
 40
0.2222222222222279
100
AcDbArc
 50
59.82546
 51
110.529098
  0
ARC
  5
F9
330
1F
100
AcDbEntity
  8
SLD-0
100
AcDbCircle
 10
67.2754052536
 20
106.0560747297
 30
0.0
 40
0.4444447149737336
100
AcDbArc
 50
104.4773561436
 51
255.52247
  0
ARC
  5
FA
330
1F
100
AcDbEntity
  8
SLD-0
100
AcDbCircle
 10
98.6431848092
 20
58.4584436186
 30
0.0
 40
0.2222222222222222
100
AcDbArc
 50
59.82546
 51
110.529098
  0
ARC
  5
FB
330
1F
100
AcDbEntity
  8
SLD-0
100
AcDbCircle
 10
98.6763652536
 20
58.2362213964
 30
0.0
 40
0.4444447149737251
100
AcDbArc
 50
104.4773561436
 51
255.52247
  0
ARC
  5
FC
330
1F
100
AcDbEntity
  8
SLD-0
100
AcDbCircle
 10
98.6431848092
 20
60.0139769519
 30
0.0
 40
0.222222222222216
100
AcDbArc
 50
59.82546
 51
110.529098
  0
ARC
  5
FD
330
1F
100
AcDbEntity
  8
SLD-0
100
AcDbCircle
 10
98.6763652536
 20
59.7917547297
 30
0.0
 40
0.4444447149737182
100
AcDbArc
 50
104.4773561436
 51
255.52247
  0
ARC
  5
FE
330
1F
100
AcDbEntity
  8
SLD-0
100
AcDbCircle
 10
116.8294248092
 20
58.3765236186
 30
0.0
 40
0.2222222222222222
100
AcDbArc
 50
59.82546
 51
110.529098
  0
ARC
  5
FF
330
1F
100
AcDbEntity
  8
SLD-0
100
AcDbCircle
 10
116.8626052536
 20
58.1543013964
 30
0.0
 40
0.4444447149737197
100
AcDbArc
 50
104.4773561436
 51
255.52247
  0
ARC
  5
100
330
1F
100
AcDbEntity
  8
SLD-0
100
AcDbCircle
 10
116.8294248092
 20
59.9320569519
 30
0.0
 40
0.2222222222222283
100
AcDbArc
 50
59.82546
 51
110.529098
  0
ARC
  5
101
330
1F
100
AcDbEntity
  8
SLD-0
100
AcDbCircle
 10
116.8626052536
 20
59.7098347297
 30
0.0
 40
0.4444447149737266
100
AcDbArc
 50
104.4773561436
 51
255.52247
  0
ARC
  5
102
330
1F
100
AcDbEntity
  8
SLD-0
100
AcDbCircle
 10
251.7516648092
 20
58.7861236186
 30
0.0
 40
0.2222222222222283
100
AcDbArc
 50
59.82546
 51
110.529098
  0
ARC
  5
103
330
1F
100
AcDbEntity
  8
SLD-0
100
AcDbCircle
 10
251.7848452536
 20
58.5639013964
 30
0.0
 40
0.4444447149737147
100
AcDbArc
 50
104.4773561436
 51
255.52247
  0
ARC
  5
104
330
1F
100
AcDbEntity
  8
SLD-0
100
AcDbCircle
 10
251.7516648092
 20
60.3416569519
 30
0.0
 40
0.2222222222222495
100
AcDbArc
 50
59.82546
 51
110.529098
  0
ARC
  5
105
330
1F
100
AcDbEntity
  8
SLD-0
100
AcDbCircle
 10
251.7848452536
 20
60.1194347297
 30
0.0
 40
0.4444447149737512
100
AcDbArc
 50
104.4773561436
 51
255.52247
  0
ARC
  5
106
330
1F
100
AcDbEntity
  8
SLD-0
100
AcDbCircle
 10
269.8559848092
 20
58.4584436186
 30
0.0
 40
0.2222222222222549
100
AcDbArc
 50
59.82546
 51
110.529098
  0
ARC
  5
107
330
1F
100
AcDbEntity
  8
SLD-0
100
AcDbCircle
 10
269.8891652536
 20
58.2362213964
 30
0.0
 40
0.4444447149737491
100
AcDbArc
 50
104.4773561436
 51
255.52247
  0
ARC
  5
108
330
1F
100
AcDbEntity
  8
SLD-0
100
AcDbCircle
 10
269.8559848092
 20
60.0139769519
 30
0.0
 40
0.2222222222222426
100
AcDbArc
 50
59.82546
 51
110.529098
  0
ARC
  5
109
330
1F
100
AcDbEntity
  8
SLD-0
100
AcDbCircle
 10
269.8891652536
 20
59.7917547297
 30
0.0
 40
0.4444447149737491
100
AcDbArc
 50
104.4773561436
 51
255.52247
  0
ARC
  5
10A
330
1F
100
AcDbEntity
  8
SLD-0
100
AcDbCircle
 10
41.9969332536
 20
92.6880551742
 30
0.0
 40
0.2222222222222222
100
AcDbArc
 50
329.82546
 51
20.529098
  0
ARC
  5
10B
330
1F
100
AcDbEntity
  8
SLD-0
100
AcDbCircle
 10
41.7747110314
 20
92.6548747297
 30
0.0
 40
0.4444447149862195
100
AcDbArc
 50
14.4773561561
 51
165.52247
  0
ARC
  5
10C
330
1F
100
AcDbEntity
  8
SLD-0
100
AcDbCircle
 10
43.552466587
 20
92.6880551742
 30
0.0
 40
0.2222222222222222
100
AcDbArc
 50
329.82546
 51
20.529098
  0
ARC
  5
10D
330
1F
100
AcDbEntity
  8
SLD-0
100
AcDbCircle
 10
43.3302443647
 20
92.6548747297
 30
0.0
 40
0.4444447150346324
100
AcDbArc
 50
14.4773561529
 51
165.52247
  0
ARC
  5
10E
330
1F
100
AcDbEntity
  8
SLD-0
100
AcDbCircle
 10
41.3856052536
 20
74.5888551742
 30
0.0
 40
0.222222222222216
100
AcDbArc
 50
329.82546
 51
20.529098
  0
ARC
  5
10F
330
1F
100
AcDbEntity
  8
SLD-0
100
AcDbCircle
 10
41.1633830314
 20
74.5556747297
 30
0.0
 40
0.4444447149862257
100
AcDbArc
 50
14.4773561561
 51
165.52247
  0
ARC
  5
110
330
1F
100
AcDbEntity
  8
SLD-0
100
AcDbCircle
 10
42.941138587
 20
74.5888551742
 30
0.0
 40
0.222222222222216
100
AcDbArc
 50
329.82546
 51
20.529098
  0
ARC
  5
111
330
1F
100
AcDbEntity
  8
SLD-0
100
AcDbCircle
 10
42.7189163647
 20
74.5556747297
 30
0.0
 40
0.4444447150346254
100
AcDbArc
 50
14.4773561529
 51
165.52247
  0
ARC
  5
112
330
1F
100
AcDbEntity
  8
SLD-0
100
AcDbCircle
 10
325.5712052536
 20
92.4832551742
 30
0.0
 40
0.2222222222221966
100
AcDbArc
 50
329.82546
 51
20.529098
  0
ARC
  5
113
330
1F
100
AcDbEntity
  8
SLD-0
100
AcDbCircle
 10
325.3489830314
 20
92.4500747297
 30
0.0
 40
0.4444447149862057
100
AcDbArc
 50
14.4773561561
 51
165.52247
  0
ARC
  5
114
330
1F
100
AcDbEntity
  8
SLD-0
100
AcDbCircle
 10
327.126738587
 20
92.4832551742
 30
0.0
 40
0.2222222222223092
100
AcDbArc
 50
329.82546
 51
20.529098
  0
ARC
  5
115
330
1F
100
AcDbEntity
  8
SLD-0
100
AcDbCircle
 10
326.9045163648
 20
92.4500747297
 30
0.0
 40
0.4444447149862978
100
AcDbArc
 50
14.4773561561
 51
165.52247
  0
ARC
  5
116
330
1F
100
AcDbEntity
  8
SLD-0
100
AcDbCircle
 10
325.4688052536
 20
75.1776551742
 30
0.0
 40
0.2222222222222363
100
AcDbArc
 50
329.82546
 51
20.529098
  0
ARC
  5
117
330
1F
100
AcDbEntity
  8
SLD-0
100
AcDbCircle
 10
325.2465830314
 20
75.1444747297
 30
0.0
 40
0.4444447149862392
100
AcDbArc
 50
14.4773561561
 51
165.52247
  0
ARC
  5
118
330
1F
100
AcDbEntity
  8
SLD-0
100
AcDbCircle
 10
327.024338587
 20
75.1776551742
 30
0.0
 40
0.2222222222221966
100
AcDbArc
 50
329.82546
 51
20.529098
  0
ARC
  5
119
330
1F
100
AcDbEntity
  8
SLD-0
100
AcDbCircle
 10
326.8021163648
 20
75.1444747297
 30
0.0
 40
0.4444447149862057
100
AcDbArc
 50
14.4773561561
 51
165.52247
  0
ARC
  5
11A
330
1F
100
AcDbEntity
  8
SLD-0
100
AcDbCircle
 10
327.0566248092
 20
82.0923636186
 30
0.0
 40
0.2222222222223081
100
AcDbArc
 50
59.82546
 51
110.529098
  0
ARC
  5
11B
330
1F
100
AcDbEntity
  8
SLD-0
100
AcDbCircle
 10
327.0898052536
 20
81.8701413964
 30
0.0
 40
0.4444447149737559
100
AcDbArc
 50
104.4773561436
 51
255.52247
  0
ARC
  5
11C
330
1F
100
AcDbEntity
  8
SLD-0
100
AcDbCircle
 10
327.4906608092
 20
82.5367858408
 30
0.0
 40
1.333333333333379
100
AcDbArc
 50
30.0
 51
90.0
  0
ARC
  5
11D
330
1F
100
AcDbEntity
  8
SLD-0
100
AcDbCircle
 10
327.0898052536
 20
83.4256969519
 30
0.0
 40
0.4444444444722393
100
AcDbArc
 50
90.0
 51
270.0
  0
ARC
  5
11E
330
1F
100
AcDbEntity
  8
SLD-0
100
AcDbCircle
 10
327.3120276981
 20
83.4256969519
 30
0.0
 40
0.444444222211132
100
AcDbArc
 50
270.0
 51
0.0
  0
ARC
  5
11F
330
1F
100
AcDbEntity
  8
SLD-0
100
AcDbCircle
 10
326.8874741425
 20
84.9812525075
 30
0.0
 40
0.2421133333333098
100
AcDbArc
 50
122.75695
 51
237.243042
  0
ARC
  5
120
330
1F
100
AcDbEntity
  8
SLD-0
100
AcDbCircle
 10
327.3956896981
 20
85.633108063
 30
0.0
 40
1.067905275739247
100
AcDbArc
 50
233.2323593239
 51
259.491135
  0
ARC
  5
121
330
1F
100
AcDbEntity
  8
SLD-0
100
AcDbCircle
 10
327.8950319203
 20
85.633108063
 30
0.0
 40
1.067908888888859
100
AcDbArc
 50
280.508865
 51
306.767532
  0
ARC
  5
122
330
1F
100
AcDbEntity
  8
SLD-0
100
AcDbCircle
 10
328.4032474759
 20
84.9812525075
 30
0.0
 40
0.2421170793095208
100
AcDbArc
 50
302.756539638
 51
57.243042
  0
ARC
  5
123
330
1F
100
AcDbEntity
  8
SLD-0
100
AcDbCircle
 10
327.8950319203
 20
84.3293969519
 30
0.0
 40
1.067909012570388
100
AcDbArc
 50
53.2323733841
 51
79.491119
  0
ARC
  5
124
330
1F
100
AcDbEntity
  8
SLD-0
100
AcDbCircle
 10
327.6522363648
 20
83.3357718408
 30
0.0
 40
2.089940000000007
100
AcDbArc
 50
77.913147
 51
90.18851
  0
ARC
  5
125
330
1F
100
AcDbEntity
  8
SLD-0
100
AcDbCircle
 10
327.6384852536
 20
83.3357718408
 30
0.0
 40
2.089939996145976
100
AcDbArc
 50
89.8115221165
 51
102.08686
  0
ARC
  5
126
330
1F
100
AcDbEntity
  8
SLD-0
100
AcDbCircle
 10
327.3956896981
 20
84.3293969519
 30
0.0
 40
1.067905273414864
100
AcDbArc
 50
100.50887
 51
126.7676388636
  0
ARC
  5
127
330
1F
100
AcDbEntity
  8
SLD-0
100
AcDbCircle
 10
327.6522363648
 20
86.6267331742
 30
0.0
 40
2.08993999999998
100
AcDbArc
 50
269.811493
 51
282.086868
  0
ARC
  5
128
330
1F
100
AcDbEntity
  8
SLD-0
100
AcDbCircle
 10
327.6384852536
 20
86.6267331742
 30
0.0
 40
2.089939996865951
100
AcDbArc
 50
257.913132
 51
270.1884808835
  0
ARC
  5
129
330
1F
100
AcDbEntity
  8
SLD-0
100
AcDbCircle
 10
41.8726248092
 20
81.9694836186
 30
0.0
 40
0.222222222222216
100
AcDbArc
 50
59.82546
 51
110.529098
  0
ARC
  5
12A
330
1F
100
AcDbEntity
  8
SLD-0
100
AcDbCircle
 10
41.9058052536
 20
81.7472613964
 30
0.0
 40
0.4444447149737129
100
AcDbArc
 50
104.4773561436
 51
255.52247
  0
ARC
  5
12B
330
1F
100
AcDbEntity
  8
SLD-0
100
AcDbCircle
 10
42.3066608092
 20
82.4139058408
 30
0.0
 40
1.333333333333343
100
AcDbArc
 50
30.0
 51
90.0
  0
ARC
  5
12C
330
1F
100
AcDbEntity
  8
SLD-0
100
AcDbCircle
 10
41.9058052536
 20
83.3028169519
 30
0.0
 40
0.4444444444722251
100
AcDbArc
 50
90.0
 51
270.0
  0
ARC
  5
12D
330
1F
100
AcDbEntity
  8
SLD-0
100
AcDbCircle
 10
42.1280276981
 20
83.3028169519
 30
0.0
 40
0.4444442222111107
100
AcDbArc
 50
270.0
 51
0.0
  0
ARC
  5
12E
330
1F
100
AcDbEntity
  8
SLD-0
100
AcDbCircle
 10
41.7034741425
 20
84.8583725075
 30
0.0
 40
0.2421133333333333
100
AcDbArc
 50
122.75695
 51
237.243042
  0
ARC
  5
12F
330
1F
100
AcDbEntity
  8
SLD-0
100
AcDbCircle
 10
42.2116896981
 20
85.510228063
 30
0.0
 40
1.067905275739262
100
AcDbArc
 50
233.2323593239
 51
259.491135
  0
ARC
  5
130
330
1F
100
AcDbEntity
  8
SLD-0
100
AcDbCircle
 10
42.7110319203
 20
85.510228063
 30
0.0
 40
1.067908888888897
100
AcDbArc
 50
280.508865
 51
306.767532
  0
ARC
  5
131
330
1F
100
AcDbEntity
  8
SLD-0
100
AcDbCircle
 10
43.2192474759
 20
84.8583725075
 30
0.0
 40
0.2421170793094589
100
AcDbArc
 50
302.756539638
 51
57.243042
  0
ARC
  5
132
330
1F
100
AcDbEntity
  8
SLD-0
100
AcDbCircle
 10
42.7110319203
 20
84.2065169519
 30
0.0
 40
1.067909012570362
100
AcDbArc
 50
53.2323733841
 51
79.491119
  0
ARC
  5
133
330
1F
100
AcDbEntity
  8
SLD-0
100
AcDbCircle
 10
42.4682363647
 20
83.2128918408
 30
0.0
 40
2.089940000000007
100
AcDbArc
 50
77.913147
 51
90.18851
  0
ARC
  5
134
330
1F
100
AcDbEntity
  8
SLD-0
100
AcDbCircle
 10
42.4544852536
 20
83.2128918408
 30
0.0
 40
2.08993999614569
100
AcDbArc
 50
89.8115221192
 51
102.08686
  0
ARC
  5
135
330
1F
100
AcDbEntity
  8
SLD-0
100
AcDbCircle
 10
42.2116896981
 20
84.2065169519
 30
0.0
 40
1.067905273414872
100
AcDbArc
 50
100.50887
 51
126.7676388636
  0
ARC
  5
136
330
1F
100
AcDbEntity
  8
SLD-0
100
AcDbCircle
 10
42.4682363647
 20
86.5038531742
 30
0.0
 40
2.089940000000008
100
AcDbArc
 50
269.811493
 51
282.086868
  0
ARC
  5
137
330
1F
100
AcDbEntity
  8
SLD-0
100
AcDbCircle
 10
42.4544852536
 20
86.5038531742
 30
0.0
 40
2.089939996865695
100
AcDbArc
 50
257.913132
 51
270.1884808807
  0
ARC
  5
138
330
1F
100
AcDbEntity
  8
SLD-0
100
AcDbCircle
 10
99.4833341425
 20
67.5055956186
 30
0.0
 40
0.444444222211132
100
AcDbArc
 50
90.0
 51
180.0
  0
ARC
  5
139
330
1F
100
AcDbEntity
  8
SLD-0
100
AcDbCircle
 10
99.7055563647
 20
67.5055956186
 30
0.0
 40
0.4444446666827133
100
AcDbArc
 50
0.0
 51
90.0
  0
ARC
  5
13A
330
1F
100
AcDbEntity
  8
SLD-0
100
AcDbCircle
 10
270.8028267505
 20
66.4890011866
 30
0.0
 40
0.4444442222111036
100
AcDbArc
 50
90.0
 51
180.0
  0
ARC
  5
13B
330
1F
100
AcDbEntity
  8
SLD-0
100
AcDbCircle
 10
271.0250489728
 20
66.4890011866
 30
0.0
 40
0.4444446666327622
100
AcDbArc
 50
0.0
 51
90.0
  0
ARC
  5
13C
330
1F
100
AcDbEntity
  8
SLD-0
100
AcDbCircle
 10
155.8832338251
 20
76.3747219043
 30
0.0
 40
0.4444444444722393
100
AcDbArc
 50
0.0
 51
90.0
  0
ARC
  5
13D
330
1F
100
AcDbEntity
  8
SLD-0
100
AcDbCircle
 10
158.5499004917
 20
75.9302779043
 30
0.0
 40
0.8888888888944848
100
AcDbArc
 50
0.0
 51
180.0
  0
ARC
  5
13E
330
1F
100
AcDbEntity
  8
SLD-0
100
AcDbCircle
 10
158.3276782695
 20
74.8191663488
 30
0.0
 40
0.6666666666000651
100
AcDbArc
 50
180.0
 51
270.0
  0
ARC
  5
13F
330
1F
100
AcDbEntity
  8
SLD-0
100
AcDbCircle
 10
161.8831449362
 20
74.8191663487
 30
0.0
 40
0.6666666666500021
100
AcDbArc
 50
270.0
 51
0.0
  0
ARC
  5
140
330
1F
100
AcDbEntity
  8
SLD-0
100
AcDbCircle
 10
161.8831449362
 20
76.152499682
 30
0.0
 40
0.6666666666500021
100
AcDbArc
 50
0.0
 51
90.0
  0
ARC
  5
141
330
1F
100
AcDbEntity
  8
SLD-0
100
AcDbCircle
 10
164.7719893806
 20
76.3747219043
 30
0.0
 40
0.4444444444722251
100
AcDbArc
 50
0.0
 51
90.0
  0
ARC
  5
142
330
1F
100
AcDbEntity
  8
SLD-0
100
AcDbCircle
 10
167.6608338251
 20
76.1524996822
 30
0.0
 40
0.6666666666500021
100
AcDbArc
 50
0.0
 51
90.0
  0
ARC
  5
143
330
1F
100
AcDbEntity
  8
SLD-0
100
AcDbCircle
 10
167.2163893807
 20
74.8191665712
 30
0.0
 40
0.6666668886999929
100
AcDbArc
 50
90.0
 51
270.0
  0
ARC
  5
144
330
1F
100
AcDbEntity
  8
SLD-0
100
AcDbCircle
 10
170.7718560473
 20
74.8191663488
 30
0.0
 40
0.6666666666999959
100
AcDbArc
 50
270.0
 51
0.0
  0
ARC
  5
145
330
1F
100
AcDbEntity
  8
SLD-0
100
AcDbCircle
 10
170.7718560473
 20
76.1524996821
 30
0.0
 40
0.6666666666999959
100
AcDbArc
 50
0.0
 51
90.0
  0
ARC
  5
146
330
1F
100
AcDbEntity
  8
SLD-0
100
AcDbCircle
 10
173.8828782695
 20
74.8191663488
 30
0.0
 40
0.6666666666999959
100
AcDbArc
 50
270.0
 51
0.0
  0
ARC
  5
147
330
1F
100
AcDbEntity
  8
SLD-0
100
AcDbCircle
 10
173.8828782695
 20
76.1524996821
 30
0.0
 40
0.6666666666999959
100
AcDbArc
 50
0.0
 51
90.0
  0
ARC
  5
148
330
1F
100
AcDbEntity
  8
SLD-0
100
AcDbCircle
 10
176.771722714
 20
76.3747219043
 30
0.0
 40
0.4444444444722393
100
AcDbArc
 50
0.0
 51
90.0
  0
ARC
  5
149
330
1F
100
AcDbEntity
  8
SLD-0
100
AcDbCircle
 10
179.4384338251
 20
75.0413890154
 30
0.0
 40
0.8888888888888857
100
AcDbArc
 50
180.0
 51
0.0
  0
ARC
  5
14A
330
1F
100
AcDbEntity
  8
SLD-0
100
AcDbCircle
 10
179.4384338251
 20
75.9302779043
 30
0.0
 40
0.8888888888889142
100
AcDbArc
 50
0.0
 51
180.0
  0
ARC
  5
14B
330
1F
100
AcDbEntity
  8
SLD-0
100
AcDbCircle
 10
183.6606564917
 20
76.1524996821
 30
0.0
 40
0.6666666666500021
100
AcDbArc
 50
90.0
 51
180.0
  0
ARC
  5
14C
330
1F
100
AcDbEntity
  8
SLD-0
100
AcDbCircle
 10
183.6606564917
 20
74.8191663488
 30
0.0
 40
0.6666666666500163
100
AcDbArc
 50
180.0
 51
270.0
  0
ARC
  5
14D
330
1F
100
AcDbEntity
  8
SLD-0
100
AcDbCircle
 10
186.5495898251
 20
75.0413890154
 30
0.0
 40
0.8888888888889142
100
AcDbArc
 50
180.0
 51
0.0
  0
ARC
  5
14E
330
1F
100
AcDbEntity
  8
SLD-0
100
AcDbCircle
 10
186.5495898251
 20
75.9302779043
 30
0.0
 40
0.8888888888889142
100
AcDbArc
 50
0.0
 51
180.0
  0
ARC
  5
14F
330
1F
100
AcDbEntity
  8
SLD-0
100
AcDbCircle
 10
190.7718120473
 20
76.1524996821
 30
0.0
 40
0.6666666667000243
100
AcDbArc
 50
0.0
 51
90.0
  0
ENDSEC
  0
SECTION
  2
OBJECTS
  0
DICTIONARY
  5
C
330
0
100
AcDbDictionary
281
     1
  3
ACAD_GROUP
350
D
  3
ACAD_LAYOUT
350
1A
  3
ACAD_MLINESTYLE
350
17
  3
ACAD_PLOTSETTINGS
350
19
  3
ACAD_PLOTSTYLENAME
350
E
  0
DICTIONARY
  5
D
102
{ACAD_REACTORS
330
C
102
}
330
C
100
AcDbDictionary
281
     1
  0
DICTIONARY
  5
1A
102
{ACAD_REACTORS
330
C
102
}
330
C
100
AcDbDictionary
281
     1
  3
Layout1
350
1E
  3
Layout2
350
26
  3
Model
350
22
  0
DICTIONARY
  5
17
102
{ACAD_REACTORS
330
C
102
}
330
C
100
AcDbDictionary
281
     1
  3
Standard
350
18
  0
DICTIONARY
  5
19
102
{ACAD_REACTORS
330
C
102
}
330
C
100
AcDbDictionary
281
     1
  0
ACDBDICTIONARYWDFLT
  5
E
102
{ACAD_REACTORS
330
C
102
}
330
C
100
AcDbDictionary
281
     1
  3
Normal
350
F
100
AcDbDictionaryWithDefault
340
F
  0
LAYOUT
  5
1E
102
{ACAD_REACTORS
330
1A
102
}
330
1A
100
AcDbPlotSettings
  1

  2
none_device
  4

  6

 40
0.0
 41
0.0
 42
0.0
 43
0.0
 44
0.0
 45
0.0
 46
0.0
 47
0.0
 48
0.0
 49
0.0
140
0.0
141
0.0
142
1.0
143
1.0
 70
   688
 72
     0
 73
     0
 74
     5
  7

 75
    16
147
1.0
148
0.0
149
0.0
100
AcDbLayout
  1
Layout1
 70
     1
 71
     1
 10
0.0
 20
0.0
 11
420.0
 21
297.0
 12
0.0
 22
0.0
 32
0.0
 14
1.0000000000E+20
 24
1.0000000000E+20
 34
1.0000000000E+20
 15
-1.0000000000E+20
 25
-1.0000000000E+20
 35
-1.0000000000E+20
146
0.0
 13
0.0
 23
0.0
 33
0.0
 16
1.0
 26
0.0
 36
0.0
 17
0.0
 27
1.0
 37
0.0
 76
     0
330
1B
  0
LAYOUT
  5
26
102
{ACAD_REACTORS
330
1A
102
}
330
1A
100
AcDbPlotSettings
  1

  2
none_device
  4

  6

 40
0.0
 41
0.0
 42
0.0
 43
0.0
 44
0.0
 45
0.0
 46
0.0
 47
0.0
 48
0.0
 49
0.0
140
0.0
141
0.0
142
1.0
143
1.0
 70
   688
 72
     0
 73
     0
 74
     5
  7

 75
    16
147
1.0
148
0.0
149
0.0
100
AcDbLayout
  1
Layout2
 70
     1
 71
     2
 10
0.0
 20
0.0
 11
0.0
 21
0.0
 12
0.0
 22
0.0
 32
0.0
 14
0.0
 24
0.0
 34
0.0
 15
0.0
 25
0.0
 35
0.0
146
0.0
 13
0.0
 23
0.0
 33
0.0
 16
1.0
 26
0.0
 36
0.0
 17
0.0
 27
1.0
 37
0.0
 76
     0
330
23
  0
LAYOUT
  5
22
102
{ACAD_REACTORS
330
1A
102
}
330
1A
100
AcDbPlotSettings
  1

  2
none_device
  4

  6

 40
0.0
 41
0.0
 42
0.0
 43
0.0
 44
0.0
 45
0.0
 46
0.0
 47
0.0
 48
0.0
 49
0.0
140
0.0
141
0.0
142
1.0
143
1.0
 70
  1712
 72
     0
 73
     0
 74
     0
  7

 75
     0
147
1.0
148
0.0
149
0.0
100
AcDbLayout
  1
Model
 70
     1
 71
     0
 10
0.0
 20
0.0
 11
1189.0
 21
841.0
 12
0.0
 22
0.0
 32
0.0
 14
0.0
 24
0.0
 34
0.0
 15
1189.0
 25
841.0
 35
0.0
146
0.0
 13
0.0
 23
0.0
 33
0.0
 16
1.0
 26
0.0
 36
0.0
 17
0.0
 27
1.0
 37
0.0
 76
     0
330
1F
331
29
  0
MLINESTYLE
  5
18
102
{ACAD_REACTORS
330
17
102
}
330
17
100
AcDbMlineStyle
  2
Standard
 70
     0
  3

 62
   256
 51
90.0
 52
90.0
 71
     2
 49
0.5
 62
   256
  6
BYLAYER
 49
-0.5
 62
   256
  6
BYLAYER
  0
ACDBPLACEHOLDER
  5
F
102
{ACAD_REACTORS
330
E
102
}
330
E
  0
ENDSEC
  0
EOF
