999
dxflib 2.2.0.0
  0
SECTION
  2
HEADER
  9
$ACADVER
  1
AC1015
  9
$HANDSEED
  5
FFFF
  9
$SPLINESEGS
 70
8
  9
$DIMEXE
 40
0.75
  9
$PSVPSCALE
 40
7.4520499999999998
  9
$DIMLUNIT
 70
2
  9
$GRIDMODE
 70
1
  9
$INSUNITS
 70
4
  9
$DIMADEC
 70
2
  9
$DIMASZ
 40
0.5
  9
$DIMGAP
 40
0.4
  9
$DIMTXT
 40
0.5
  9
$GRIDUNIT
 10
0.25
 20
0.25
  9
$DIMEXO
 40
0.4
  9
$LUPREC
 70
4
  9
$PINSBASE
 10
32.9932250000000096
 20
-4.1932325851366699
 30
0.0
  9
$DIMAUNIT
 70
0
  9
$AUPREC
 70
2
  9
$PLIMMIN
 10
0.0
 20
0.0
  9
$LUNITS
 70
2
  9
$PLIMMAX
 10
297.0
 20
210.0
  9
$DIMSTYLE
  2
Standard
  9
$AUNITS
 70
0
  0
ENDSEC
  0
SECTION
  2
TABLES
  0
TABLE
  2
VPORT
  5
8
100
AcDbSymbolTable
 70
1
  0
VPORT
  5
30
100
AcDbSymbolTableRecord
100
AcDbViewportTableRecord
  2
*Active
 70
0
 10
0.0
 20
0.0
 11
1.0
 21
1.0
 12
286.3055555555554861
 22
148.5
 13
0.0
 23
0.0
 14
10.0
 24
10.0
 15
10.0
 25
10.0
 16
0.0
 26
0.0
 36
1.0
 17
0.0
 27
0.0
 37
0.0
 40
297.0
 41
1.92798353909465
 42
50.0
 43
0.0
 44
0.0
 50
0.0
 51
0.0
 71
0
 72
100
 73
1
 74
3
 75
1
 76
1
 77
0
 78
0
281
0
 65
1
110
0.0
120
0.0
130
0.0
111
1.0
121
0.0
131
0.0
112
0.0
122
1.0
132
0.0
 79
0
146
0.0
  0
ENDTAB
  0
TABLE
  2
LTYPE
  5
5
100
AcDbSymbolTable
 70
21
  0
LTYPE
  5
14
100
AcDbSymbolTableRecord
100
AcDbLinetypeTableRecord
  2
ByBlock
 70
0
  3

 72
65
 73
0
 40
0.0
  0
LTYPE
  5
15
100
AcDbSymbolTableRecord
100
AcDbLinetypeTableRecord
  2
ByLayer
 70
0
  3

 72
65
 73
0
 40
0.0
  0
LTYPE
  5
16
100
AcDbSymbolTableRecord
100
AcDbLinetypeTableRecord
  2
CONTINUOUS
 70
0
  3
Solid line
 72
65
 73
0
 40
0.0
  0
LTYPE
  5
31
100
AcDbSymbolTableRecord
100
AcDbLinetypeTableRecord
  2
DOT
 70
0
  3
Dot . . . . . . . . . . . . . . . . . . . . . .
 72
65
 73
2
 40
6.3499999999999996
 49
0.0
 74
0
 49
-6.3499999999999996
 74
0
  0
LTYPE
  5
32
100
AcDbSymbolTableRecord
100
AcDbLinetypeTableRecord
  2
DOT2
 70
0
  3
Dot (.5x) .....................................
 72
65
 73
2
 40
3.1749999999999998
 49
0.0
 74
0
 49
-3.1749999999999998
 74
0
  0
LTYPE
  5
33
100
AcDbSymbolTableRecord
100
AcDbLinetypeTableRecord
  2
DOTX2
 70
0
  3
Dot (2x) .  .  .  .  .  .  .  .  .  .  .  .  .
 72
65
 73
2
 40
12.6999999999999993
 49
0.0
 74
0
 49
-12.6999999999999993
 74
0
  0
LTYPE
  5
34
100
AcDbSymbolTableRecord
100
AcDbLinetypeTableRecord
  2
DASHED
 70
0
  3
Dashed __ __ __ __ __ __ __ __ __ __ __ __ __ _
 72
65
 73
2
 40
19.0500000000000007
 49
12.6999999999999993
 74
0
 49
-6.3499999999999996
 74
0
  0
LTYPE
  5
35
100
AcDbSymbolTableRecord
100
AcDbLinetypeTableRecord
  2
DASHED2
 70
0
  3
Dashed (.5x) _ _ _ _ _ _ _ _ _ _ _ _ _ _ _ _ _
 72
65
 73
2
 40
9.5250000000000004
 49
6.3499999999999996
 74
0
 49
-3.1749999999999998
 74
0
  0
LTYPE
  5
36
100
AcDbSymbolTableRecord
100
AcDbLinetypeTableRecord
  2
DASHEDX2
 70
0
  3
Dashed (2x) ____  ____  ____  ____  ____  ___
 72
65
 73
2
 40
38.1000000000000014
 49
25.3999999999999986
 74
0
 49
-12.6999999999999993
 74
0
  0
LTYPE
  5
37
100
AcDbSymbolTableRecord
100
AcDbLinetypeTableRecord
  2
DASHDOT
 70
0
  3
Dash dot __ . __ . __ . __ . __ . __ . __ . __
 72
65
 73
4
 40
25.3999999999999986
 49
12.6999999999999993
 74
0
 49
-6.3499999999999996
 74
0
 49
0.0
 74
0
 49
-6.3499999999999996
 74
0
  0
LTYPE
  5
38
100
AcDbSymbolTableRecord
100
AcDbLinetypeTableRecord
  2
DASHDOT2
 70
0
  3
Dash dot (.5x) _._._._._._._._._._._._._._._.
 72
65
 73
4
 40
12.6999999999999993
 49
6.3499999999999996
 74
0
 49
-3.1749999999999998
 74
0
 49
0.0
 74
0
 49
-3.1749999999999998
 74
0
  0
LTYPE
  5
39
100
AcDbSymbolTableRecord
100
AcDbLinetypeTableRecord
  2
DASHDOTX2
 70
0
  3
Dash dot (2x) ____  .  ____  .  ____  .  ___
 72
65
 73
4
 40
50.7999999999999972
 49
25.3999999999999986
 74
0
 49
-12.6999999999999993
 74
0
 49
0.0
 74
0
 49
-12.6999999999999993
 74
0
  0
LTYPE
  5
3A
100
AcDbSymbolTableRecord
100
AcDbLinetypeTableRecord
  2
DIVIDE
 70
0
  3
Divide ____ . . ____ . . ____ . . ____ . . ____
 72
65
 73
6
 40
31.75
 49
12.6999999999999993
 74
0
 49
-6.3499999999999996
 74
0
 49
0.0
 74
0
 49
-6.3499999999999996
 74
0
 49
0.0
 74
0
 49
-6.3499999999999996
 74
0
  0
LTYPE
  5
3B
100
AcDbSymbolTableRecord
100
AcDbLinetypeTableRecord
  2
DIVIDE2
 70
0
  3
Divide (.5x) __..__..__..__..__..__..__..__.._
 72
65
 73
6
 40
15.875
 49
6.3499999999999996
 74
0
 49
-3.1749999999999998
 74
0
 49
0.0
 74
0
 49
-3.1749999999999998
 74
0
 49
0.0
 74
0
 49
-3.1749999999999998
 74
0
  0
LTYPE
  5
3C
100
AcDbSymbolTableRecord
100
AcDbLinetypeTableRecord
  2
DIVIDEX2
 70
0
  3
Divide (2x) ________  .  .  ________  .  .  _
 72
65
 73
6
 40
63.5
 49
25.3999999999999986
 74
0
 49
-12.6999999999999993
 74
0
 49
0.0
 74
0
 49
-12.6999999999999993
 74
0
 49
0.0
 74
0
 49
-12.6999999999999993
 74
0
  0
LTYPE
  5
3D
100
AcDbSymbolTableRecord
100
AcDbLinetypeTableRecord
  2
CENTER
 70
0
  3
Center ____ _ ____ _ ____ _ ____ _ ____ _ ____
 72
65
 73
4
 40
50.7999999999999972
 49
31.75
 74
0
 49
-6.3499999999999996
 74
0
 49
6.3499999999999996
 74
0
 49
-6.3499999999999996
 74
0
  0
LTYPE
  5
3E
100
AcDbSymbolTableRecord
100
AcDbLinetypeTableRecord
  2
CENTER2
 70
0
  3
Center (.5x) ___ _ ___ _ ___ _ ___ _ ___ _ ___
 72
65
 73
4
 40
28.5749999999999993
 49
19.0500000000000007
 74
0
 49
-3.1749999999999998
 74
0
 49
3.1749999999999998
 74
0
 49
-3.1749999999999998
 74
0
  0
LTYPE
  5
3F
100
AcDbSymbolTableRecord
100
AcDbLinetypeTableRecord
  2
CENTERX2
 70
0
  3
Center (2x) ________  __  ________  __  _____
 72
65
 73
4
 40
101.5999999999999943
 49
63.5
 74
0
 49
-12.6999999999999993
 74
0
 49
12.6999999999999993
 74
0
 49
-12.6999999999999993
 74
0
  0
LTYPE
  5
40
100
AcDbSymbolTableRecord
100
AcDbLinetypeTableRecord
  2
BORDER
 70
0
  3
Border __ __ . __ __ . __ __ . __ __ . __ __ .
 72
65
 73
6
 40
44.4500000000000028
 49
12.6999999999999993
 74
0
 49
-6.3499999999999996
 74
0
 49
12.6999999999999993
 74
0
 49
-6.3499999999999996
 74
0
 49
0.0
 74
0
 49
-6.3499999999999996
 74
0
  0
LTYPE
  5
41
100
AcDbSymbolTableRecord
100
AcDbLinetypeTableRecord
  2
BORDER2
 70
0
  3
Border (.5x) __.__.__.__.__.__.__.__.__.__.__.
 72
65
 73
6
 40
22.2250000000000014
 49
6.3499999999999996
 74
0
 49
-3.1749999999999998
 74
0
 49
6.3499999999999996
 74
0
 49
-3.1749999999999998
 74
0
 49
0.0
 74
0
 49
-3.1749999999999998
 74
0
  0
LTYPE
  5
42
100
AcDbSymbolTableRecord
100
AcDbLinetypeTableRecord
  2
BORDERX2
 70
0
  3
Border (2x) ____  ____  .  ____  ____  .  ___
 72
65
 73
6
 40
88.9000000000000057
 49
25.3999999999999986
 74
0
 49
-12.6999999999999993
 74
0
 49
25.3999999999999986
 74
0
 49
-12.6999999999999993
 74
0
 49
0.0
 74
0
 49
-12.6999999999999993
 74
0
  0
ENDTAB
  0
TABLE
  2
LAYER
  5
2
100
AcDbSymbolTable
 70
4
  0
LAYER
  5
10
100
AcDbSymbolTableRecord
100
AcDbLayerTableRecord
  2
0
 70
0
 62
7
  6
CONTINUOUS
370
0
390
F
  0
LAYER
  5
43
100
AcDbSymbolTableRecord
100
AcDbLayerTableRecord
  2
hatch
 70
0
 62
7
  6
CONTINUOUS
370
0
390
F
  0
LAYER
  5
44
100
AcDbSymbolTableRecord
100
AcDbLayerTableRecord
  2
hidden
 70
0
 62
7
  6
CONTINUOUS
370
0
390
F
  0
LAYER
  5
45
100
AcDbSymbolTableRecord
100
AcDbLayerTableRecord
  2
dimensions
 70
0
 62
7
  6
CONTINUOUS
370
0
390
F
  0
ENDTAB
  0
TABLE
  2
STYLE
  5
3
100
AcDbSymbolTable
 70
1
  0
STYLE
  5
11
100
AcDbSymbolTableRecord
100
AcDbTextStyleTableRecord
  2
Standard
 70
0
 40
0.0
 41
0.75
 50
0.0
 71
0
 42
2.5
  3
txt
  4

  0
ENDTAB
  0
TABLE
  2
VIEW
  5
6
100
AcDbSymbolTable
 70
0
  0
ENDTAB
  0
TABLE
  2
UCS
  5
7
100
AcDbSymbolTable
 70
0
  0
ENDTAB
  0
TABLE
  2
APPID
  5
9
100
AcDbSymbolTable
 70
1
  0
APPID
  5
12
100
AcDbSymbolTableRecord
100
AcDbRegAppTableRecord
  2
ACAD
 70
0
  0
ENDTAB
  0
TABLE
  2
DIMSTYLE
  5
A
100
AcDbSymbolTable
 70
1
100
AcDbDimStyleTable
 71
0
  0
DIMSTYLE
105
27
100
AcDbSymbolTableRecord
100
AcDbDimStyleTableRecord
  2
Standard
 41
0.5
 42
0.4
 43
3.75
 44
0.75
 70
0
 73
0
 74
0
 77
1
 78
8
140
0.5
141
2.5
143
0.03937007874016
147
0.4
171
3
172
1
271
2
272
2
274
3
278
44
283
0
284
8
340
11
  0
ENDTAB
  0
TABLE
  2
BLOCK_RECORD
  5
1
100
AcDbSymbolTable
 70
1
  0
BLOCK_RECORD
  5
1F
100
AcDbSymbolTableRecord
100
AcDbBlockTableRecord
  2
*Model_Space
340
22
  0
BLOCK_RECORD
  5
1B
100
AcDbSymbolTableRecord
100
AcDbBlockTableRecord
  2
*Paper_Space
340
1E
  0
BLOCK_RECORD
  5
23
100
AcDbSymbolTableRecord
100
AcDbBlockTableRecord
  2
*Paper_Space0
340
26
  0
ENDTAB
  0
ENDSEC
  0
SECTION
  2
BLOCKS
  0
BLOCK
  5
20
100
AcDbEntity
  8
0
100
AcDbBlockBegin
  2
*Model_Space
 70
0
 10
0.0
 20
0.0
 30
0.0
  3
*Model_Space
  1

  0
ENDBLK
  5
21
100
AcDbEntity
  8
0
100
AcDbBlockEnd
  0
BLOCK
  5
1C
100
AcDbEntity
 67
1
  8
0
100
AcDbBlockBegin
  2
*Paper_Space
 70
0
 10
0.0
 20
0.0
 30
0.0
  3
*Paper_Space
  1

  0
ENDBLK
  5
1D
100
AcDbEntity
 67
1
  8
0
100
AcDbBlockEnd
  0
BLOCK
  5
24
100
AcDbEntity
  8
0
100
AcDbBlockBegin
  2
*Paper_Space0
 70
0
 10
0.0
 20
0.0
 30
0.0
  3
*Paper_Space0
  1

  0
ENDBLK
  5
25
100
AcDbEntity
  8
0
100
AcDbBlockEnd
  0
ENDSEC
  0
SECTION
  2
ENTITIES
  0
HATCH
  5
46
  8
hatch
 62
256
370
-1
  6
ByLayer
100
AcDbEntity
100
AcDbHatch
 10
0.0
 20
0.0
 30
0.0
210
0.0
220
0.0
230
1.0
  2
ANSI31
 70
0
 71
0
 91
1
 92
1
 93
9
 72
1
 10
-1.5
 20
17.0
 11
-0.5
 21
15.0
 72
1
 10
-0.5
 20
15.0
 11
20.0
 21
15.0
 72
1
 10
20.0
 20
15.0
 11
20.0
 21
16.0
 72
1
 10
20.0
 20
16.0
 11
12.0
 21
16.0
 72
1
 10
12.0
 20
16.0
 11
11.75
 21
16.5
 72
1
 10
11.75
 20
16.5
 11
-0.25
 21
16.5
 72
1
 10
-0.25
 20
16.5
 11
-0.75
 21
17.25
 72
1
 10
-0.75
 20
17.25
 11
-1.5
 21
17.25
 72
1
 10
-1.5
 20
17.25
 11
-1.5
 21
17.0
 97
0
 75
0
 76
1
 52
0.0
 41
1.0
 77
0
 78
1
 53
45.0
 43
0.0
 44
0.0
 45
-0.0883883476483184
 46
0.0883883476483185
 79
0
 98
0
  0
CIRCLE
  5
47
100
AcDbEntity
100
AcDbCircle
  8
0
 62
256
370
-1
  6
ByLayer
 10
30.0
 20
17.5
 30
0.0
 40
2.5
  0
LINE
  5
48
100
AcDbEntity
100
AcDbLine
  8
0
 62
256
370
-1
  6
ByLayer
 10
-1.5
 20
17.0
 30
0.0
 11
-0.5
 21
15.0
 31
0.0
  0
LINE
  5
49
100
AcDbEntity
100
AcDbLine
  8
0
 62
256
370
-1
  6
ByLayer
 10
-1.5
 20
17.25
 30
0.0
 11
-1.5
 21
17.0
 31
0.0
  0
LINE
  5
4A
100
AcDbEntity
100
AcDbLine
  8
0
 62
256
370
-1
  6
ByLayer
 10
-1.5
 20
17.75
 30
0.0
 11
-1.5
 21
18.0
 31
0.0
  0
LINE
  5
4B
100
AcDbEntity
100
AcDbLine
  8
0
 62
256
370
-1
  6
ByLayer
 10
-1.5
 20
17.75
 30
0.0
 11
-1.5
 21
17.25
 31
0.0
  0
LINE
  5
4C
100
AcDbEntity
100
AcDbLine
  8
0
 62
256
370
-1
  6
ByLayer
 10
20.0
 20
20.0
 30
0.0
 11
-0.5
 21
20.0
 31
0.0
  0
LINE
  5
4D
100
AcDbEntity
100
AcDbLine
  8
0
 62
256
370
-1
  6
ByLayer
 10
-0.5
 20
15.0
 30
0.0
 11
20.0
 21
15.0
 31
0.0
  0
LINE
  5
4E
100
AcDbEntity
100
AcDbLine
  8
0
 62
256
370
-1
  6
ByLayer
 10
-1.5
 20
17.75
 30
0.0
 11
-0.75
 21
17.75
 31
0.0
  0
LINE
  5
4F
100
AcDbEntity
100
AcDbLine
  8
0
 62
256
370
-1
  6
ByLayer
 10
-0.25
 20
16.5
 30
0.0
 11
-0.75
 21
17.25
 31
0.0
  0
LINE
  5
50
100
AcDbEntity
100
AcDbLine
  8
0
 62
256
370
-1
  6
ByLayer
 10
-0.75
 20
17.25
 30
0.0
 11
-1.5
 21
17.25
 31
0.0
  0
LINE
  5
51
100
AcDbEntity
100
AcDbLine
  8
0
 62
256
370
-1
  6
ByLayer
 10
-0.75
 20
17.25
 30
0.0
 11
-0.75
 21
17.75
 31
0.0
  0
LINE
  5
52
100
AcDbEntity
100
AcDbLine
  8
0
 62
256
370
-1
  6
ByLayer
 10
12.0
 20
16.0
 30
0.0
 11
20.0
 21
16.0
 31
0.0
  0
LINE
  5
53
100
AcDbEntity
100
AcDbLine
  8
0
 62
256
370
-1
  6
ByLayer
 10
11.75
 20
16.5
 30
0.0
 11
-0.25
 21
16.5
 31
0.0
  0
LINE
  5
54
100
AcDbEntity
100
AcDbLine
  8
0
 62
256
370
-1
  6
ByLayer
 10
11.75
 20
16.5
 30
0.0
 11
12.0
 21
16.0
 31
0.0
  0
LINE
  5
55
100
AcDbEntity
100
AcDbLine
  8
0
 62
256
370
-1
  6
ByLayer
 10
20.0
 20
19.75
 30
0.0
 11
-0.625
 21
19.75
 31
0.0
  0
LINE
  5
56
100
AcDbEntity
100
AcDbLine
  8
0
 62
256
370
-1
  6
ByLayer
 10
20.0
 20
20.0
 30
0.0
 11
20.0
 21
16.0
 31
0.0
  0
LINE
  5
57
100
AcDbEntity
100
AcDbLine
  8
0
 62
256
370
-1
  6
ByLayer
 10
20.0
 20
16.0
 30
0.0
 11
20.0
 21
15.0
 31
0.0
  0
LINE
  5
58
100
AcDbEntity
100
AcDbLine
  8
hatch
 62
256
370
-1
  6
DASHDOTX2
 10
-2.75
 20
18.5
 30
0.0
 11
0.5
 21
17.75
 31
0.0
  0
LINE
  5
59
100
AcDbEntity
100
AcDbLine
  8
hatch
 62
256
370
-1
  6
DASHDOTX2
 10
0.5
 20
17.75
 30
0.0
 11
3.75
 21
18.0
 31
0.0
  0
LINE
  5
5A
100
AcDbEntity
100
AcDbLine
  8
hatch
 62
256
370
-1
  6
DASHDOTX2
 10
3.75
 20
18.0
 30
0.0
 11
7.0
 21
17.0
 31
0.0
  0
LINE
  5
5B
100
AcDbEntity
100
AcDbLine
  8
hatch
 62
256
370
-1
  6
DASHDOTX2
 10
7.0
 20
17.0
 30
0.0
 11
7.75
 21
17.75
 31
0.0
  0
LINE
  5
5C
100
AcDbEntity
100
AcDbLine
  8
hatch
 62
256
370
-1
  6
DASHDOTX2
 10
7.75
 20
17.75
 30
0.0
 11
10.75
 21
17.25
 31
0.0
  0
LINE
  5
5D
100
AcDbEntity
100
AcDbLine
  8
hatch
 62
256
370
-1
  6
DASHDOTX2
 10
10.75
 20
17.25
 30
0.0
 11
13.25
 21
17.5
 31
0.0
  0
LINE
  5
5E
100
AcDbEntity
100
AcDbLine
  8
hatch
 62
256
370
-1
  6
DASHDOTX2
 10
13.25
 20
17.5
 30
0.0
 11
17.0
 21
16.75
 31
0.0
  0
LINE
  5
5F
100
AcDbEntity
100
AcDbLine
  8
hatch
 62
256
370
-1
  6
DASHDOTX2
 10
17.0
 20
16.75
 30
0.0
 11
21.0
 21
17.75
 31
0.0
  0
LINE
  5
60
100
AcDbEntity
100
AcDbLine
  8
0
 62
256
370
-1
  6
ByLayer
 10
-1.5
 20
18.0
 30
0.0
 11
-1.4051724137931034
 21
18.1896551724137936
 31
0.0
  0
LINE
  5
61
100
AcDbEntity
100
AcDbLine
  8
0
 62
256
370
-1
  6
ByLayer
 10
-1.4051724137931034
 20
18.1896551724137936
 30
0.0
 11
-0.5
 21
20.0
 31
0.0
  0
LINE
  5
62
100
AcDbEntity
100
AcDbLine
  8
0
 62
256
370
-1
  6
ByLayer
 10
-0.75
 20
17.75
 30
0.0
 11
-0.5833333333333334
 21
18.0
 31
0.0
  0
LINE
  5
63
100
AcDbEntity
100
AcDbLine
  8
0
 62
256
370
-1
  6
ByLayer
 10
-0.25
 20
16.5
 30
0.0
 11
-0.25
 21
17.9230769230769234
 31
0.0
  0
LINE
  5
64
100
AcDbEntity
100
AcDbLine
  8
0
 62
256
370
-1
  6
ByLayer
 10
11.75
 20
17.3500000000000014
 30
0.0
 11
11.75
 21
16.5
 31
0.0
  0
LINE
  5
65
100
AcDbEntity
100
AcDbLine
  8
0
 62
256
370
-1
  6
ByLayer
 10
12.0
 20
17.375
 30
0.0
 11
12.0
 21
16.0
 31
0.0
  0
DIMENSION
  5
66
100
AcDbEntity
  8
dimensions
 62
256
370
-1
  6
CONTINUOUS
100
AcDbDimension
 10
20.0
 20
12.5
 30
0.0
 11
16.0
 21
13.5
 31
0.0
 70
0
 71
5
 72
1
 41
1.0
 42
0.0
  1

  3
Standard
100
AcDbAlignedDimension
 13
12.0
 23
16.0
 33
0.0
 14
20.0
 24
16.0
 34
0.0
 50
0.0
100
AcDbRotatedDimension
  0
LINE
  5
67
100
AcDbEntity
100
AcDbLine
  8
hidden
 62
256
370
-1
  6
DIVIDE
 10
20.0
 20
19.0
 30
0.0
 11
12.0
 21
19.0
 31
0.0
  0
LINE
  5
68
100
AcDbEntity
100
AcDbLine
  8
hidden
 62
256
370
-1
  6
DIVIDE
 10
-0.25
 20
18.5
 30
0.0
 11
11.75
 21
18.5
 31
0.0
  0
LINE
  5
69
100
AcDbEntity
100
AcDbLine
  8
hidden
 62
256
370
-1
  6
DIVIDE
 10
12.0
 20
19.0
 30
0.0
 11
11.75
 21
18.5
 31
0.0
  0
LINE
  5
6A
100
AcDbEntity
100
AcDbLine
  8
hidden
 62
256
370
-1
  6
DIVIDE
 10
-0.5833333333333334
 20
18.0
 30
0.0
 11
-0.25
 21
18.5
 31
0.0
  0
LINE
  5
6B
100
AcDbEntity
100
AcDbLine
  8
hidden
 62
256
370
-1
  6
DIVIDE
 10
-0.25
 20
17.9230769230769234
 30
0.0
 11
-0.25
 21
18.5
 31
0.0
  0
LINE
  5
6C
100
AcDbEntity
100
AcDbLine
  8
hidden
 62
256
370
-1
  6
DIVIDE
 10
11.75
 20
18.5
 30
0.0
 11
11.75
 21
17.3500000000000014
 31
0.0
  0
LINE
  5
6D
100
AcDbEntity
100
AcDbLine
  8
hidden
 62
256
370
-1
  6
DIVIDE
 10
12.0
 20
19.0
 30
0.0
 11
12.0
 21
17.375
 31
0.0
  0
DIMENSION
  5
6E
100
AcDbEntity
  8
dimensions
 62
256
370
-1
  6
CONTINUOUS
100
AcDbDimension
 10
-0.7500000000000004
 20
10.5
 30
0.0
 11
9.625
 21
11.5
 31
0.0
 70
0
 71
5
 72
1
 41
1.0
 42
0.0
  1

  3
Standard
100
AcDbAlignedDimension
 13
20.0
 23
15.0
 33
0.0
 14
-0.75
 24
17.25
 34
0.0
 50
0.0
100
AcDbRotatedDimension
  0
DIMENSION
  5
6F
100
AcDbEntity
  8
dimensions
 62
256
370
-1
  6
CONTINUOUS
100
AcDbDimension
 10
-1.5000000000000004
 20
8.5000000000000018
 30
0.0
 11
9.25
 21
9.5000000000000018
 31
0.0
 70
0
 71
5
 72
1
 41
1.0
 42
0.0
  1

  3
Standard
100
AcDbAlignedDimension
 13
20.0
 23
15.0
 33
0.0
 14
-1.5
 24
17.0
 34
0.0
 50
0.0
100
AcDbRotatedDimension
  0
LEADER
  5
70
  8
dimensions
 62
256
370
-1
  6
CONTINUOUS
100
AcDbEntity
100
AcDbLeader
  3
Standard
 71
1
 72
0
 73
3
 74
0
 75
0
 40
1.0
 41
10.0
 76
2
 10
19.0
 20
16.0
 10
21.0
 20
16.75
  0
LEADER
  5
71
  8
dimensions
 62
256
370
-1
  6
CONTINUOUS
100
AcDbEntity
100
AcDbLeader
  3
Standard
 71
1
 72
0
 73
3
 74
0
 75
0
 40
1.0
 41
10.0
 76
2
 10
7.25
 20
16.5
 10
5.0
 20
13.75
  0
MTEXT
  5
72
100
AcDbEntity
100
AcDbMText
  8
dimensions
 62
256
370
-1
  6
CONTINUOUS
 10
21.25
 20
17.0
 30
0.0
 40
0.5
 41
100.0
 71
1
 72
2
  1
3mm \U+00f8
  7
iso
 50
0.0
 73
1
 44
1.0
  0
MTEXT
  5
73
100
AcDbEntity
100
AcDbMText
  8
dimensions
 62
256
370
-1
  6
CONTINUOUS
 10
4.25
 20
13.75
 30
0.0
 40
0.5
 41
100.0
 71
1
 72
2
  1
2mm \U+00f8
  7
iso
 50
0.0
 73
1
 44
1.0
  0
CIRCLE
  5
74
100
AcDbEntity
100
AcDbCircle
  8
dimensions
 62
256
370
-1
  6
CONTINUOUS
 10
30.0
 20
17.5
 30
0.0
 40
1.5
  0
CIRCLE
  5
75
100
AcDbEntity
100
AcDbCircle
  8
dimensions
 62
256
370
-1
  6
CONTINUOUS
 10
30.0
 20
17.5
 30
0.0
 40
1.0
  0
CIRCLE
  5
76
100
AcDbEntity
100
AcDbCircle
  8
dimensions
 62
256
370
-1
  6
CONTINUOUS
 10
30.0
 20
17.5
 30
0.0
 40
0.25
  0
ARC
  5
77
100
AcDbEntity
  8
dimensions
 62
256
370
-1
  6
DASHED2
100
AcDbCircle
 10
30.0
 20
17.5
 30
0.0
 40
2.25
100
AcDbArc
 50
212.0053832080834866
 51
139.3987053549955135
  0
LINE
  5
78
100
AcDbEntity
100
AcDbLine
  8
dimensions
 62
256
370
0
  6
CONTINUOUS
 10
21.0
 20
13.0
 30
0.0
 11
33.75
 21
13.0
 31
0.0
  0
LINE
  5
79
100
AcDbEntity
100
AcDbLine
  8
dimensions
 62
256
370
0
  6
CONTINUOUS
 10
33.75
 20
13.0
 30
0.0
 11
33.75
 21
8.75
 31
0.0
  0
LINE
  5
7A
100
AcDbEntity
100
AcDbLine
  8
dimensions
 62
256
370
0
  6
CONTINUOUS
 10
33.75
 20
8.75
 30
0.0
 11
21.0
 21
8.75
 31
0.0
  0
LINE
  5
7B
100
AcDbEntity
100
AcDbLine
  8
dimensions
 62
256
370
0
  6
CONTINUOUS
 10
21.0
 20
8.75
 30
0.0
 11
21.0
 21
13.0
 31
0.0
  0
LINE
  5
7C
100
AcDbEntity
100
AcDbLine
  8
dimensions
 62
256
370
0
  6
CONTINUOUS
 10
21.0
 20
11.75
 30
0.0
 11
33.75
 21
11.75
 31
0.0
  0
MTEXT
  5
7D
100
AcDbEntity
100
AcDbMText
  8
dimensions
 62
256
370
0
  6
CONTINUOUS
 10
23.0
 20
21.25
 30
0.0
 40
0.5
 41
100.0
 71
1
 72
2
  1
M5
  7
iso
 50
0.0
 73
1
 44
1.0
  0
LEADER
  5
7E
  8
dimensions
 62
256
370
-1
  6
ByLayer
100
AcDbEntity
100
AcDbLeader
  3
Standard
 71
1
 72
0
 73
3
 74
0
 75
0
 40
1.0
 41
10.0
 76
2
 10
-0.9701712935617247
 20
19.0584760779681019
 10
11.8792085056113397
 20
20.7401063201417593
  0
LEADER
  5
7F
  8
dimensions
 62
256
370
-1
  6
ByLayer
100
AcDbEntity
100
AcDbLeader
  3
Standard
 71
1
 72
0
 73
3
 74
0
 75
0
 40
1.0
 41
10.0
 76
2
 10
19.0584760779681019
 20
19.7699350265800327
 10
22.8313644418192538
 20
21.0634967513290015
  0
MTEXT
  5
80
100
AcDbEntity
100
AcDbMText
  8
dimensions
 62
256
370
-1
  6
ByLayer
 10
12.0732427643236857
 20
21.9043118724158283
 30
0.0
 40
0.5
 41
100.0
 71
1
 72
2
  1
cone angle and small flat\Pat tip not critical
  7
iso
 50
0.0
 73
0
 44
1.0
  0
MTEXT
  5
81
100
AcDbEntity
100
AcDbMText
  8
dimensions
 62
256
370
-1
  6
CONTINUOUS
 10
21.25
 20
12.75
 30
0.0
 40
0.5
 41
100.0
 71
1
 72
2
  1
RepRapPro Ltd\P\POne-piece Nozzle\P\PMaterial: Stainless M5 threaded bar
  7
iso
 50
0.0
 73
1
 44
1.0
  0
LEADER
  5
82
  8
dimensions
 62
256
370
-1
  6
CONTINUOUS
100
AcDbEntity
100
AcDbLeader
  3
Standard
 71
1
 72
0
 73
3
 74
0
 75
0
 40
1.0
 41
10.0
 76
2
 10
26.5
 20
17.5
 10
30.0
 20
17.5
  0
LEADER
  5
83
  8
dimensions
 62
256
370
-1
  6
CONTINUOUS
100
AcDbEntity
100
AcDbLeader
  3
Standard
 71
1
 72
0
 73
3
 74
0
 75
0
 40
1.0
 41
10.0
 76
3
 10
28.5
 20
14.0
 10
30.0
 20
14.0
 10
30.0
 20
17.5
  0
MTEXT
  5
84
100
AcDbEntity
100
AcDbMText
  8
dimensions
 62
256
370
-1
  6
CONTINUOUS
 10
26.0
 20
17.75
 30
0.0
 40
0.5
 41
100.0
 71
1
 72
2
  1
A
  7
iso
 50
0.0
 73
1
 44
1.0
  0
MTEXT
  5
85
100
AcDbEntity
100
AcDbMText
  8
dimensions
 62
256
370
-1
  6
CONTINUOUS
 10
28.0
 20
14.25
 30
0.0
 40
0.5
 41
100.0
 71
1
 72
2
  1
A
  7
iso
 50
0.0
 73
1
 44
1.0
  0
MTEXT
  5
86
100
AcDbEntity
100
AcDbMText
  8
dimensions
 62
256
370
-1
  6
CONTINUOUS
 10
7.0
 20
7.75
 30
0.0
 40
0.5
 41
100.0
 71
1
 72
2
  1
section AA
  7
iso
 50
0.0
 73
1
 44
1.0
  0
MTEXT
  5
87
100
AcDbEntity
100
AcDbMText
  8
dimensions
 62
256
370
-1
  6
CONTINUOUS
 10
-2.0
 20
22.0
 30
0.0
 40
0.5
 41
100.0
 71
1
 72
2
  1
0.5 or 0.3 mm \U+00f8 (see order)
  7
iso
 50
0.0
 73
1
 44
1.0
  0
LEADER
  5
88
  8
dimensions
 62
256
370
-1
  6
ByLayer
100
AcDbEntity
100
AcDbLeader
  3
Standard
 71
1
 72
0
 73
3
 74
0
 75
0
 40
1.0
 41
10.0
 76
2
 10
-1.25
 20
17.75
 10
-1.75
 20
21.25
  0
ENDSEC
  0
SECTION
  2
OBJECTS
  0
DICTIONARY
  5
C
100
AcDbDictionary
280
0
281
1
  3
ACAD_GROUP
350
D
  3
ACAD_LAYOUT
350
1A
  3
ACAD_MLINESTYLE
350
17
  3
ACAD_PLOTSETTINGS
350
19
  3
ACAD_PLOTSTYLENAME
350
E
  3
AcDbVariableDictionary
350
89
  0
DICTIONARY
  5
D
100
AcDbDictionary
280
0
281
1
  0
ACDBDICTIONARYWDFLT
  5
E
100
AcDbDictionary
281
1
  3
Normal
350
F
100
AcDbDictionaryWithDefault
340
F
  0
ACDBPLACEHOLDER
  5
F
  0
DICTIONARY
  5
17
100
AcDbDictionary
280
0
281
1
  3
Standard
350
18
  0
MLINESTYLE
  5
18
100
AcDbMlineStyle
  2
STANDARD
 70
0
  3

 62
256
 51
90.0
 52
90.0
 71
2
 49
0.5
 62
256
  6
BYLAYER
 49
-0.5
 62
256
  6
BYLAYER
  0
DICTIONARY
  5
19
100
AcDbDictionary
280
0
281
1
  0
DICTIONARY
  5
1A
100
AcDbDictionary
281
1
  3
Layout1
350
1E
  3
Layout2
350
26
  3
Model
350
22
  0
LAYOUT
  5
1E
100
AcDbPlotSettings
  1

  2
C:\Program Files\AutoCAD 2002\plotters\DWF ePlot (optimized for plotting).pc3
  4

  6

 40
0.0
 41
0.0
 42
0.0
 43
0.0
 44
0.0
 45
0.0
 46
0.0
 47
0.0
 48
0.0
 49
0.0
140
0.0
141
0.0
142
1.0
143
1.0
 70
688
 72
0
 73
0
 74
5
  7

 75
16
147
1.0
148
0.0
149
0.0
100
AcDbLayout
  1
Layout1
 70
1
 71
1
 10
0.0
 20
0.0
 11
420.0
 21
297.0
 12
0.0
 22
0.0
 32
0.0
 14
100000000000000000000.0
 24
100000000000000000000.0
 34
100000000000000000000.0
 15
-100000000000000000000.0
 25
-100000000000000000000.0
 35
-100000000000000000000.0
146
0.0
 13
0.0
 23
0.0
 33
0.0
 16
1.0
 26
0.0
 36
0.0
 17
0.0
 27
1.0
 37
0.0
 76
0
330
1B
  0
LAYOUT
  5
22
100
AcDbPlotSettings
  1

  2
C:\Program Files\AutoCAD 2002\plotters\DWF ePlot (optimized for plotting).pc3
  4

  6

 40
0.0
 41
0.0
 42
0.0
 43
0.0
 44
0.0
 45
0.0
 46
0.0
 47
0.0
 48
0.0
 49
0.0
140
0.0
141
0.0
142
1.0
143
1.0
 70
1712
 72
0
 73
0
 74
0
  7

 75
0
147
1.0
148
0.0
149
0.0
100
AcDbLayout
  1
Model
 70
1
 71
0
 10
0.0
 20
0.0
 11
12.0
 21
9.0
 12
0.0
 22
0.0
 32
0.0
 14
0.0
 24
0.0
 34
0.0
 15
0.0
 25
0.0
 35
0.0
146
0.0
 13
0.0
 23
0.0
 33
0.0
 16
1.0
 26
0.0
 36
0.0
 17
0.0
 27
1.0
 37
0.0
 76
0
330
1F
  0
LAYOUT
  5
26
100
AcDbPlotSettings
  1

  2
C:\Program Files\AutoCAD 2002\plotters\DWF ePlot (optimized for plotting).pc3
  4

  6

 40
0.0
 41
0.0
 42
0.0
 43
0.0
 44
0.0
 45
0.0
 46
0.0
 47
0.0
 48
0.0
 49
0.0
140
0.0
141
0.0
142
1.0
143
1.0
 70
688
 72
0
 73
0
 74
5
  7

 75
16
147
1.0
148
0.0
149
0.0
100
AcDbLayout
  1
Layout2
 70
1
 71
2
 10
0.0
 20
0.0
 11
12.0
 21
9.0
 12
0.0
 22
0.0
 32
0.0
 14
0.0
 24
0.0
 34
0.0
 15
0.0
 25
0.0
 35
0.0
146
0.0
 13
0.0
 23
0.0
 33
0.0
 16
1.0
 26
0.0
 36
0.0
 17
0.0
 27
1.0
 37
0.0
 76
0
330
23
  0
DICTIONARY
  5
89
100
AcDbDictionary
281
1
  3
DIMASSOC
350
8B
  3
HIDETEXT
350
8A
  0
DICTIONARYVAR
  5
8A
100
DictionaryVariables
280
0
  1
2
  0
DICTIONARYVAR
  5
8B
100
DictionaryVariables
280
0
  1
1
  0
ENDSEC
  0
EOF
