999
dxflib 2.2.0.0
  0
SECTION
  2
HEADER
  9
$ACADVER
  1
AC1015
  9
$HANDSEED
  5
FFFF
  9
$DIMASZ
 40
2.5
  9
$PLIMMIN
 10
0.0
 20
0.0
  9
$DIMEXE
 40
1.25
  9
$DIMGAP
 40
0.625
  9
$PLIMMAX
 10
210.0
 20
297.0
  9
$INSUNITS
 70
4
  9
$DIMSTYLE
  2
Standard
  9
$MEASUREMENT
 70
1
  9
$DIMEXO
 40
0.625
  9
$DIMTXT
 40
2.5
  0
ENDSEC
  0
SECTION
  2
TABLES
  0
TABLE
  2
VPORT
  5
8
100
AcDbSymbolTable
 70
1
  0
VPORT
  5
30
100
AcDbSymbolTableRecord
100
AcDbViewportTableRecord
  2
*Active
 70
0
 10
0.0
 20
0.0
 11
1.0
 21
1.0
 12
286.3055555555554861
 22
148.5
 13
0.0
 23
0.0
 14
10.0
 24
10.0
 15
10.0
 25
10.0
 16
0.0
 26
0.0
 36
1.0
 17
0.0
 27
0.0
 37
0.0
 40
297.0
 41
1.92798353909465
 42
50.0
 43
0.0
 44
0.0
 50
0.0
 51
0.0
 71
0
 72
100
 73
1
 74
3
 75
1
 76
1
 77
0
 78
0
281
0
 65
1
110
0.0
120
0.0
130
0.0
111
1.0
121
0.0
131
0.0
112
0.0
122
1.0
132
0.0
 79
0
146
0.0
  0
ENDTAB
  0
TABLE
  2
LTYPE
  5
5
100
AcDbSymbolTable
 70
21
  0
LTYPE
  5
14
100
AcDbSymbolTableRecord
100
AcDbLinetypeTableRecord
  2
ByBlock
 70
0
  3

 72
65
 73
0
 40
0.0
  0
LTYPE
  5
15
100
AcDbSymbolTableRecord
100
AcDbLinetypeTableRecord
  2
ByLayer
 70
0
  3

 72
65
 73
0
 40
0.0
  0
LTYPE
  5
16
100
AcDbSymbolTableRecord
100
AcDbLinetypeTableRecord
  2
CONTINUOUS
 70
0
  3
Solid line
 72
65
 73
0
 40
0.0
  0
LTYPE
  5
31
100
AcDbSymbolTableRecord
100
AcDbLinetypeTableRecord
  2
DOT
 70
0
  3
Dot . . . . . . . . . . . . . . . . . . . . . .
 72
65
 73
2
 40
6.3499999999999996
 49
0.0
 74
0
 49
-6.3499999999999996
 74
0
  0
LTYPE
  5
32
100
AcDbSymbolTableRecord
100
AcDbLinetypeTableRecord
  2
DOT2
 70
0
  3
Dot (.5x) .....................................
 72
65
 73
2
 40
3.1749999999999998
 49
0.0
 74
0
 49
-3.1749999999999998
 74
0
  0
LTYPE
  5
33
100
AcDbSymbolTableRecord
100
AcDbLinetypeTableRecord
  2
DOTX2
 70
0
  3
Dot (2x) .  .  .  .  .  .  .  .  .  .  .  .  .
 72
65
 73
2
 40
12.6999999999999993
 49
0.0
 74
0
 49
-12.6999999999999993
 74
0
  0
LTYPE
  5
34
100
AcDbSymbolTableRecord
100
AcDbLinetypeTableRecord
  2
DASHED
 70
0
  3
Dashed __ __ __ __ __ __ __ __ __ __ __ __ __ _
 72
65
 73
2
 40
19.0500000000000007
 49
12.6999999999999993
 74
0
 49
-6.3499999999999996
 74
0
  0
LTYPE
  5
35
100
AcDbSymbolTableRecord
100
AcDbLinetypeTableRecord
  2
DASHED2
 70
0
  3
Dashed (.5x) _ _ _ _ _ _ _ _ _ _ _ _ _ _ _ _ _
 72
65
 73
2
 40
9.5250000000000004
 49
6.3499999999999996
 74
0
 49
-3.1749999999999998
 74
0
  0
LTYPE
  5
36
100
AcDbSymbolTableRecord
100
AcDbLinetypeTableRecord
  2
DASHEDX2
 70
0
  3
Dashed (2x) ____  ____  ____  ____  ____  ___
 72
65
 73
2
 40
38.1000000000000014
 49
25.3999999999999986
 74
0
 49
-12.6999999999999993
 74
0
  0
LTYPE
  5
37
100
AcDbSymbolTableRecord
100
AcDbLinetypeTableRecord
  2
DASHDOT
 70
0
  3
Dash dot __ . __ . __ . __ . __ . __ . __ . __
 72
65
 73
4
 40
25.3999999999999986
 49
12.6999999999999993
 74
0
 49
-6.3499999999999996
 74
0
 49
0.0
 74
0
 49
-6.3499999999999996
 74
0
  0
LTYPE
  5
38
100
AcDbSymbolTableRecord
100
AcDbLinetypeTableRecord
  2
DASHDOT2
 70
0
  3
Dash dot (.5x) _._._._._._._._._._._._._._._.
 72
65
 73
4
 40
12.6999999999999993
 49
6.3499999999999996
 74
0
 49
-3.1749999999999998
 74
0
 49
0.0
 74
0
 49
-3.1749999999999998
 74
0
  0
LTYPE
  5
39
100
AcDbSymbolTableRecord
100
AcDbLinetypeTableRecord
  2
DASHDOTX2
 70
0
  3
Dash dot (2x) ____  .  ____  .  ____  .  ___
 72
65
 73
4
 40
50.7999999999999972
 49
25.3999999999999986
 74
0
 49
-12.6999999999999993
 74
0
 49
0.0
 74
0
 49
-12.6999999999999993
 74
0
  0
LTYPE
  5
3A
100
AcDbSymbolTableRecord
100
AcDbLinetypeTableRecord
  2
DIVIDE
 70
0
  3
Divide ____ . . ____ . . ____ . . ____ . . ____
 72
65
 73
6
 40
31.75
 49
12.6999999999999993
 74
0
 49
-6.3499999999999996
 74
0
 49
0.0
 74
0
 49
-6.3499999999999996
 74
0
 49
0.0
 74
0
 49
-6.3499999999999996
 74
0
  0
LTYPE
  5
3B
100
AcDbSymbolTableRecord
100
AcDbLinetypeTableRecord
  2
DIVIDE2
 70
0
  3
Divide (.5x) __..__..__..__..__..__..__..__.._
 72
65
 73
6
 40
15.875
 49
6.3499999999999996
 74
0
 49
-3.1749999999999998
 74
0
 49
0.0
 74
0
 49
-3.1749999999999998
 74
0
 49
0.0
 74
0
 49
-3.1749999999999998
 74
0
  0
LTYPE
  5
3C
100
AcDbSymbolTableRecord
100
AcDbLinetypeTableRecord
  2
DIVIDEX2
 70
0
  3
Divide (2x) ________  .  .  ________  .  .  _
 72
65
 73
6
 40
63.5
 49
25.3999999999999986
 74
0
 49
-12.6999999999999993
 74
0
 49
0.0
 74
0
 49
-12.6999999999999993
 74
0
 49
0.0
 74
0
 49
-12.6999999999999993
 74
0
  0
LTYPE
  5
3D
100
AcDbSymbolTableRecord
100
AcDbLinetypeTableRecord
  2
CENTER
 70
0
  3
Center ____ _ ____ _ ____ _ ____ _ ____ _ ____
 72
65
 73
4
 40
50.7999999999999972
 49
31.75
 74
0
 49
-6.3499999999999996
 74
0
 49
6.3499999999999996
 74
0
 49
-6.3499999999999996
 74
0
  0
LTYPE
  5
3E
100
AcDbSymbolTableRecord
100
AcDbLinetypeTableRecord
  2
CENTER2
 70
0
  3
Center (.5x) ___ _ ___ _ ___ _ ___ _ ___ _ ___
 72
65
 73
4
 40
28.5749999999999993
 49
19.0500000000000007
 74
0
 49
-3.1749999999999998
 74
0
 49
3.1749999999999998
 74
0
 49
-3.1749999999999998
 74
0
  0
LTYPE
  5
3F
100
AcDbSymbolTableRecord
100
AcDbLinetypeTableRecord
  2
CENTERX2
 70
0
  3
Center (2x) ________  __  ________  __  _____
 72
65
 73
4
 40
101.5999999999999943
 49
63.5
 74
0
 49
-12.6999999999999993
 74
0
 49
12.6999999999999993
 74
0
 49
-12.6999999999999993
 74
0
  0
LTYPE
  5
40
100
AcDbSymbolTableRecord
100
AcDbLinetypeTableRecord
  2
BORDER
 70
0
  3
Border __ __ . __ __ . __ __ . __ __ . __ __ .
 72
65
 73
6
 40
44.4500000000000028
 49
12.6999999999999993
 74
0
 49
-6.3499999999999996
 74
0
 49
12.6999999999999993
 74
0
 49
-6.3499999999999996
 74
0
 49
0.0
 74
0
 49
-6.3499999999999996
 74
0
  0
LTYPE
  5
41
100
AcDbSymbolTableRecord
100
AcDbLinetypeTableRecord
  2
BORDER2
 70
0
  3
Border (.5x) __.__.__.__.__.__.__.__.__.__.__.
 72
65
 73
6
 40
22.2250000000000014
 49
6.3499999999999996
 74
0
 49
-3.1749999999999998
 74
0
 49
6.3499999999999996
 74
0
 49
-3.1749999999999998
 74
0
 49
0.0
 74
0
 49
-3.1749999999999998
 74
0
  0
LTYPE
  5
42
100
AcDbSymbolTableRecord
100
AcDbLinetypeTableRecord
  2
BORDERX2
 70
0
  3
Border (2x) ____  ____  .  ____  ____  .  ___
 72
65
 73
6
 40
88.9000000000000057
 49
25.3999999999999986
 74
0
 49
-12.6999999999999993
 74
0
 49
25.3999999999999986
 74
0
 49
-12.6999999999999993
 74
0
 49
0.0
 74
0
 49
-12.6999999999999993
 74
0
  0
ENDTAB
  0
TABLE
  2
LAYER
  5
2
100
AcDbSymbolTable
 70
1
  0
LAYER
  5
10
100
AcDbSymbolTableRecord
100
AcDbLayerTableRecord
  2
0
 70
0
 62
7
  6
CONTINUOUS
390
F
  0
ENDTAB
  0
TABLE
  2
STYLE
  5
3
100
AcDbSymbolTable
 70
1
  0
STYLE
  5
11
100
AcDbSymbolTableRecord
100
AcDbTextStyleTableRecord
  2
Standard
 70
0
 40
0.0
 41
0.75
 50
0.0
 71
0
 42
2.5
  3
txt
  4

  0
ENDTAB
  0
TABLE
  2
VIEW
  5
6
100
AcDbSymbolTable
 70
0
  0
ENDTAB
  0
TABLE
  2
UCS
  5
7
100
AcDbSymbolTable
 70
0
  0
ENDTAB
  0
TABLE
  2
APPID
  5
9
100
AcDbSymbolTable
 70
1
  0
APPID
  5
12
100
AcDbSymbolTableRecord
100
AcDbRegAppTableRecord
  2
ACAD
 70
0
  0
ENDTAB
  0
TABLE
  2
DIMSTYLE
  5
A
100
AcDbSymbolTable
 70
1
100
AcDbDimStyleTable
 71
0
  0
DIMSTYLE
105
27
100
AcDbSymbolTableRecord
100
AcDbDimStyleTableRecord
  2
Standard
 41
2.5
 42
0.625
 43
3.75
 44
1.25
 70
0
 73
0
 74
0
 77
1
 78
8
140
2.5
141
2.5
143
0.03937007874016
147
0.625
171
3
172
1
271
2
272
2
274
3
278
44
283
0
284
8
340
11
  0
ENDTAB
  0
TABLE
  2
BLOCK_RECORD
  5
1
100
AcDbSymbolTable
 70
1
  0
BLOCK_RECORD
  5
1F
100
AcDbSymbolTableRecord
100
AcDbBlockTableRecord
  2
*Model_Space
340
22
  0
BLOCK_RECORD
  5
1B
100
AcDbSymbolTableRecord
100
AcDbBlockTableRecord
  2
*Paper_Space
340
1E
  0
BLOCK_RECORD
  5
23
100
AcDbSymbolTableRecord
100
AcDbBlockTableRecord
  2
*Paper_Space0
340
26
  0
ENDTAB
  0
ENDSEC
  0
SECTION
  2
BLOCKS
  0
BLOCK
  5
20
100
AcDbEntity
  8
0
100
AcDbBlockBegin
  2
*Model_Space
 70
0
 10
0.0
 20
0.0
 30
0.0
  3
*Model_Space
  1

  0
ENDBLK
  5
21
100
AcDbEntity
  8
0
100
AcDbBlockEnd
  0
BLOCK
  5
1C
100
AcDbEntity
 67
1
  8
0
100
AcDbBlockBegin
  2
*Paper_Space
 70
0
 10
0.0
 20
0.0
 30
0.0
  3
*Paper_Space
  1

  0
ENDBLK
  5
1D
100
AcDbEntity
 67
1
  8
0
100
AcDbBlockEnd
  0
BLOCK
  5
24
100
AcDbEntity
  8
0
100
AcDbBlockBegin
  2
*Paper_Space0
 70
0
 10
0.0
 20
0.0
 30
0.0
  3
*Paper_Space0
  1

  0
ENDBLK
  5
25
100
AcDbEntity
  8
0
100
AcDbBlockEnd
  0
ENDSEC
  0
SECTION
  2
ENTITIES
  0
LWPOLYLINE
  5
43
  8
0
 62
7
370
-1
  6
ByLayer
100
AcDbEntity
100
AcDbPolyline
 90
33
 70
0
 10
-17.442714426166571
 20
-2.0254828087252683
 10
-18.0285184261665705
 20
-1.0670578087252665
 10
-18.6143224261665701
 20
-0.1086318087252671
 10
-19.2341644261665721
 20
-0.1086318087252671
 10
-19.8540054261665695
 20
-0.1086318087252671
 10
-19.8540054261665695
 20
-1.0670578087252665
 10
-19.8540054261665695
 20
-2.0254828087252683
 10
-20.3824834261665693
 20
-2.0254828087252683
 10
-20.9109614261665726
 20
-2.0254828087252683
 10
-20.9109614261665726
 20
0.4986691912747325
 10
-20.9109614261665726
 20
3.0228221912747344
 10
-19.6497804261665721
 20
3.0228221912747344
 10
-18.3885994261665715
 20
3.0228221912747344
 10
-17.9461144261665702
 20
2.9959461912747329
 10
-17.5645334261665695
 20
2.9153351912747318
 10
-17.2393884261665704
 20
2.7881381912747329
 10
-16.9733544261665728
 20
2.6143711912747314
 10
-16.7673414261665705
 20
2.3993941912747339
 10
-16.6222304261665705
 20
2.1414291912747316
 10
-16.5335574261665705
 20
1.8476281912747332
 10
-16.503994426166571
 20
1.5180041912747342
 10
-16.5254974261665701
 20
1.2465971912747342
 10
-16.5899854261665709
 20
0.9984841912747342
 10
-16.6894144261665716
 20
0.7781331912747333
 10
-16.822874426166571
 20
0.5828681912747342
 10
-16.9841084261665713
 20
0.4144691912747334
 10
-17.1739984261665697
 20
0.2747381912747322
 10
-17.3871834261665725
 20
0.1690411912747329
 10
-17.6182774261665713
 20
0.0955931912747339
 10
-16.9357354261665698
 20
-0.9649448087252672
 10
-16.2531934261665718
 20
-2.0254828087252683
 10
-16.8479544261665701
 20
-2.0254828087252683
 10
-17.4427164261665695
 20
-2.0254828087252683
  0
LWPOLYLINE
  5
44
  8
0
 62
7
370
-1
  6
ByLayer
100
AcDbEntity
100
AcDbPolyline
 90
19
 70
0
 10
-17.5681164261665721
 20
1.475009191274733
 10
-17.6290284261665704
 20
1.7965721912747341
 10
-17.8117534261665718
 20
2.0231931912747321
 10
-18.1037614261665709
 20
2.1575491912747324
 10
-18.4996694261665695
 20
2.202338191274734
 10
-19.1768374261665713
 20
2.202338191274734
 10
-19.8540054261665695
 20
2.202338191274734
 10
-19.8540054261665695
 20
1.4570951912747319
 10
-19.8540054261665695
 20
0.7118521912747333
 10
-19.1625054261665717
 20
0.7118521912747333
 10
-18.4710064261665714
 20
0.7118521912747333
 10
-18.2515564261665695
 20
0.7252861912747335
 10
-18.066138426166571
 20
0.7655951912747341
 10
-17.9102854261665705
 20
0.8336681912747324
 10
-17.7866724261665716
 20
0.9232421912747313
 10
-17.6899374261665727
 20
1.0361021912747326
 10
-17.6218594261665729
 20
1.166880191274732
 10
-17.5815544261665693
 20
1.3137761912747337
 10
-17.5681154261665711
 20
1.475009191274733
  0
LWPOLYLINE
  5
45
  8
0
 62
7
370
-1
  6
ByLayer
100
AcDbEntity
100
AcDbPolyline
 90
51
 70
0
 10
-13.9995484261665712
 20
-2.0971408087252676
 10
-14.398146426166571
 20
-2.0666868087252688
 10
-14.7555394261665711
 20
-1.9753228087252666
 10
-15.0645654261665705
 20
-1.8185708087252657
 10
-15.3252214261665713
 20
-1.5991178087252678
 10
-15.5339254261665705
 20
-1.3133818087252678
 10
-15.6870934261665695
 20
-0.9649448087252672
 10
-15.7811454261665709
 20
-0.5493298087252683
 10
-15.8124954261665707
 20
-0.0692198087252685
 10
-15.7757704261665701
 20
0.4422371912747316
 10
-15.6655964261665712
 20
0.8659161912747315
 10
-15.4900344261665701
 20
1.2089771912747338
 10
-15.2643114261665716
 20
1.478592191274732
 10
-14.9911164261665704
 20
1.6819191912747335
 10
-14.6802994261665702
 20
1.8189681912747346
 10
-14.3417164261665704
 20
1.8968931912747315
 10
-13.9852164261665717
 20
1.9228721912747346
 10
-13.5606444261665704
 20
1.882561191274732
 10
-13.2041444261665717
 20
1.7616411912747338
 10
-12.9076624261665707
 20
1.5717451912747329
 10
-12.6702924261665704
 20
1.3173621912747322
 10
-12.4902544261665707
 20
1.0020641912747337
 10
-12.3657464261665702
 20
0.6294451912747334
 10
-12.2931954261665712
 20
0.2102441912747324
 10
-12.2690084261665717
 20
-0.2519478087252658
 10
-12.2690084261665717
 20
-0.2662788087252679
 10
-12.2690084261665717
 20
-0.2806108087252674
 10
-13.5122744261665702
 20
-0.2806108087252674
 10
-14.7555414261665696
 20
-0.2806108087252674
 10
-14.7447944261665711
 20
-0.5161868087252657
 10
-14.7125474261665712
 20
-0.7356388087252661
 10
-14.6561174261665705
 20
-0.9300118087252685
 10
-14.5728144261665697
 20
-1.0975118087252689
 10
-14.461745426166571
 20
-1.2327668087252661
 10
-14.3220114261665721
 20
-1.337565808725266
 10
-14.151825426166571
 20
-1.4020588087252683
 10
-13.9493894261665705
 20
-1.4235548087252674
 10
-13.708441426166571
 20
-1.3957878087252666
 10
-13.5158594261665712
 20
-1.3124848087252659
 10
-13.3716494261665702
 20
-1.1673778087252664
 10
-13.2758044261665713
 20
-0.9613608087252672
 10
-12.8010704261665715
 20
-1.0025638087252666
 10
-12.32633642616657
 20
-1.0437678087252671
 10
-12.4042674261665713
 20
-1.2139558087252666
 10
-12.5090644261665709
 20
-1.3948918087252657
 10
-12.6434254261665711
 20
-1.5740368087252676
 10
-12.8171934261665701
 20
-1.7388498087252664
 10
-13.0348574261665711
 20
-1.8803748087252679
 10
-13.3008854261665714
 20
-1.9968188087252656
 10
-13.6188694261665706
 20
-2.0720598087252675
 10
-13.9995504261665715
 20
-2.0971408087252676
  0
LWPOLYLINE
  5
46
  8
0
 62
7
370
-1
  6
ByLayer
100
AcDbEntity
100
AcDbPolyline
 90
15
 70
0
 10
-13.9995504261665715
 20
1.2886991912747341
 10
-14.1491384261665711
 20
1.2752611912747334
 10
-14.2897654261665714
 20
1.2349561912747333
 10
-14.4142724261665709
 20
1.1686701912747317
 10
-14.5226534261665705
 20
1.0701421912747335
 10
-14.6104354261665712
 20
0.9420511912747322
 10
-14.6803014261665705
 20
0.7799271912747336
 10
-14.7277754261665699
 20
0.5828661912747322
 10
-14.7483774261665701
 20
0.3499791912747341
 10
-13.99596842616657
 20
0.3499791912747341
 10
-13.2435594261665717
 20
0.3499791912747341
 10
-13.3143244261665714
 20
0.7602191912747323
 10
-13.4692794261665707
 20
1.0522271912747314
 10
-13.7003774261665701
 20
1.229578191274733
 10
-13.9995484261665712
 20
1.2886991912747341
  0
LWPOLYLINE
  5
47
  8
0
 62
7
370
-1
  6
ByLayer
100
AcDbEntity
100
AcDbPolyline
 90
61
 70
0
 10
-7.8333784261665702
 20
-0.0692198087252685
 10
-7.85577542616657
 20
-0.4928988087252684
 10
-7.9229524261665709
 20
-0.8825378087252673
 10
-8.0331294261665711
 20
-1.2291848087252681
 10
-8.1916694261665715
 20
-1.5238768087252659
 10
-8.399480426166571
 20
-1.7639318087252676
 10
-8.6574464261665707
 20
-1.9466588087252674
 10
-8.9628914261665713
 20
-2.0595208087252672
 10
-9.3202824261665711
 20
-2.0971408087252676
 10
-9.4922634261665717
 20
-2.0881828087252678
 10
-9.664241426166571
 20
-2.0613128087252655
 10
-9.82905642616657
 20
-2.0147348087252688
 10
-9.9867024261665716
 20
-1.9466598087252684
 10
-10.135393426166571
 20
-1.8526088087252681
 10
-10.2733344261665707
 20
-1.7352688087252659
 10
-10.3933624261665702
 20
-1.5874748087252684
 10
-10.495473426166571
 20
-1.4092248087252663
 10
-10.5062204261665713
 20
-1.4092248087252663
 10
-10.5169704261665711
 20
-1.4092248087252663
 10
-10.5133834261665715
 20
-1.4405758087252671
 10
-10.5098054261665705
 20
-1.4987978087252678
 10
-10.506218426166571
 20
-1.5767258087252678
 10
-10.5026394261665708
 20
-1.6671938087252656
 10
-10.4999584261665717
 20
-1.7639328087252686
 10
-10.4990554261665707
 20
-1.8678368087252686
 10
-10.4963744261665717
 20
-1.968157808725266
 10
-10.4954714261665707
 20
-2.0613128087252655
 10
-10.4954714261665707
 20
-2.8047648087252668
 10
-10.4954714261665707
 20
-3.5482158087252671
 10
-10.9988684261665703
 20
-3.5482158087252671
 10
-11.50226542616657
 20
-3.5482158087252671
 10
-11.50226542616657
 20
-1.2945728087252668
 10
-11.50226542616657
 20
0.9590711912747345
 10
-11.5049474261665701
 20
1.2403261912747325
 10
-11.5130074261665705
 20
1.4893401912747315
 10
-11.5210704261665704
 20
1.6962501912747321
 10
-11.5309224261665708
 20
1.8512131912747343
 10
-11.0418574261665707
 20
1.8512131912747343
 10
-10.5527914261665714
 20
1.8512131912747343
 10
-10.5456254261665716
 20
1.8144851912747342
 10
-10.5384604261665711
 20
1.7544751912747323
 10
-10.5295054261665708
 20
1.6774401912747336
 10
-10.5241284261665715
 20
1.5896611912747325
 10
-10.5178604261665711
 20
1.4947121912747328
 10
-10.5133784261665717
 20
1.3961851912747321
 10
-10.5106974261665709
 20
1.3021311912747322
 10
-10.5097944261665717
 20
1.2206231912747327
 10
-10.5026294261665711
 20
1.2206231912747327
 10
-10.4954634261665714
 20
1.2206231912747327
 10
-10.2786994261665701
 20
1.5493511912747344
 10
-9.9938574261665707
 20
1.7688061912747344
 10
-9.6499004261665711
 20
1.8924131912747342
 10
-9.2557804261665702
 20
1.9336201912747342
 10
-8.9118244261665716
 20
1.8959961912747332
 10
-8.6180244261665706
 20
1.7831381912747339
 10
-8.3734944261665714
 20
1.6039901912747325
 10
-8.1773274261665705
 20
1.367522191274734
 10
-8.0250574261665708
 20
1.0764091912747311
 10
-7.9193584261665713
 20
0.7333481912747324
 10
-7.8548694261665712
 20
0.3499761912747346
 10
-7.8333694261665716
 20
-0.0692208087252659
  0
LWPOLYLINE
  5
48
  8
0
 62
7
370
-1
  6
ByLayer
100
AcDbEntity
100
AcDbPolyline
 90
29
 70
0
 10
-8.8831594261665714
 20
-0.0692208087252659
 10
-8.9333214261665717
 20
0.5076241912747328
 10
-9.0838004261665706
 20
0.9124931912747343
 10
-9.3337104261665704
 20
1.1543371912747311
 10
-9.6821454261665707
 20
1.2349541912747313
 10
-9.8326284261665702
 20
1.2188291912747324
 10
-9.9831084261665701
 20
1.1704621912747335
 10
-10.1228424261665708
 20
1.0862611912747333
 10
-10.2482434261665709
 20
0.9554881912747319
 10
-10.3530444261665711
 20
0.7781321912747323
 10
-10.4381364261665706
 20
0.5470381912747335
 10
-10.4918814261665716
 20
0.2586121912747323
 10
-10.5097934261665706
 20
-0.0978838087252676
 10
-10.4918814261665716
 20
-0.4463228087252666
 10
-10.4381364261665706
 20
-0.7320578087252656
 10
-10.3557314261665709
 20
-0.9577808087252677
 10
-10.2518254261665707
 20
-1.133341808725266
 10
-10.1264254261665716
 20
-1.2623268087252661
 10
-9.9866914261665709
 20
-1.3483158087252676
 10
-9.8388984261665708
 20
-1.3939978087252669
 10
-9.6893104261665712
 20
-1.4092238087252689
 10
-9.5065844261665706
 20
-1.3904138087252669
 10
-9.3453524261665706
 20
-1.333982808725267
 10
-9.2074124261665702
 20
-1.2345578087252669
 10
-9.0945494261665711
 20
-1.0939288087252663
 10
-9.003187426166571
 20
-0.9067228087252666
 10
-8.9369024261665704
 20
-0.6747288087252663
 10
-8.8965964261665711
 20
-0.3961598087252689
 10
-8.8831574261665711
 20
-0.0692188087252674
  0
LWPOLYLINE
  5
49
  8
0
 62
7
370
-1
  6
ByLayer
100
AcDbEntity
100
AcDbPolyline
 90
33
 70
0
 10
-3.56972842616657
 20
-2.0254828087252683
 10
-4.1555324261665696
 20
-1.0670578087252665
 10
-4.7413364261665691
 20
-0.1086318087252671
 10
-5.3611784261665711
 20
-0.1086318087252671
 10
-5.9810194261665721
 20
-0.1086318087252671
 10
-5.9810194261665721
 20
-1.0670578087252665
 10
-5.9810194261665721
 20
-2.0254828087252683
 10
-6.5094974261665701
 20
-2.0254828087252683
 10
-7.0379744261665707
 20
-2.0254828087252683
 10
-7.0379744261665707
 20
0.4986691912747325
 10
-7.0379744261665707
 20
3.0228221912747344
 10
-5.7767944261665711
 20
3.0228221912747344
 10
-4.5156134261665706
 20
3.0228221912747344
 10
-4.0731284261665692
 20
2.9959461912747329
 10
-3.6915464261665711
 20
2.9153351912747318
 10
-3.3664024261665695
 20
2.7881381912747329
 10
-3.1003684261665718
 20
2.6143711912747314
 10
-2.8943554261665696
 20
2.3993941912747339
 10
-2.7492444261665696
 20
2.1414291912747316
 10
-2.6605714261665696
 20
1.8476281912747332
 10
-2.63100842616657
 20
1.5180041912747342
 10
-2.6525114261665692
 20
1.2465971912747342
 10
-2.71699942616657
 20
0.9984841912747342
 10
-2.8164284261665706
 20
0.7781331912747333
 10
-2.9498884261665701
 20
0.5828681912747342
 10
-3.1111224261665704
 20
0.4144691912747334
 10
-3.3010124261665723
 20
0.2747381912747322
 10
-3.5141974261665716
 20
0.1690411912747329
 10
-3.7452914261665704
 20
0.0955931912747339
 10
-3.0627494261665724
 20
-0.9649448087252672
 10
-2.3802074261665709
 20
-2.0254828087252683
 10
-2.9749684261665692
 20
-2.0254828087252683
 10
-3.5697294261665711
 20
-2.0254828087252683
  0
LWPOLYLINE
  5
4A
  8
0
 62
7
370
-1
  6
ByLayer
100
AcDbEntity
100
AcDbPolyline
 90
19
 70
0
 10
-3.6951294261665701
 20
1.475009191274733
 10
-3.7560424261665695
 20
1.7965721912747341
 10
-3.9387674261665708
 20
2.0231931912747321
 10
-4.23077542616657
 20
2.1575491912747324
 10
-4.6266834261665721
 20
2.202338191274734
 10
-5.3038514261665703
 20
2.202338191274734
 10
-5.9810194261665721
 20
2.202338191274734
 10
-5.9810194261665721
 20
1.4570951912747319
 10
-5.9810194261665721
 20
0.7118521912747333
 10
-5.2895204261665718
 20
0.7118521912747333
 10
-4.5980204261665705
 20
0.7118521912747333
 10
-4.3785704261665721
 20
0.7252861912747335
 10
-4.19315242616657
 20
0.7655951912747341
 10
-4.0372994261665696
 20
0.8336681912747324
 10
-3.9136864261665707
 20
0.9232421912747313
 10
-3.8169514261665718
 20
1.0361021912747326
 10
-3.7488734261665719
 20
1.166880191274732
 10
-3.7085684261665719
 20
1.3137761912747337
 10
-3.6951294261665701
 20
1.475009191274733
  0
LWPOLYLINE
  5
4B
  8
0
 62
7
370
-1
  6
ByLayer
100
AcDbEntity
100
AcDbPolyline
 90
87
 70
0
 10
-0.8180614261665724
 20
-2.0971408087252676
 10
-1.0831974261665707
 20
-2.0783308087252657
 10
-1.3196674261665713
 20
-2.0218998087252658
 10
-1.5221014261665715
 20
-1.9260578087252682
 10
-1.6922894261665711
 20
-1.7961778087252682
 10
-1.8284394261665717
 20
-1.6286768087252668
 10
-1.9287604261665692
 20
-1.4271388087252674
 10
-1.9905654261665724
 20
-1.1933548087252674
 10
-2.0111674261665726
 20
-0.9291158087252676
 10
-1.9816094261665711
 20
-0.6129258087252687
 10
-1.8929314261665695
 20
-0.3522688087252668
 10
-1.7496164261665719
 20
-0.139087808725268
 10
-1.563305426166572
 20
0.0275181912747335
 10
-1.3375834261665709
 20
0.1538141912747335
 10
-1.0760304261665716
 20
0.2389091912747325
 10
-0.787608426166571
 20
0.2908601912747315
 10
-0.4812694261665698
 20
0.3105671912747319
 10
-0.0638614261665715
 20
0.3177331912747334
 10
0.3535455738334292
 20
0.324898191274734
 10
0.3535455738334292
 20
0.4234281912747342
 10
0.3535455738334292
 20
0.5219581912747344
 10
0.3436905738334275
 20
0.7154321912747328
 10
0.3141335738334305
 20
0.8730821912747331
 10
0.2693465738334275
 20
1.0029601912747346
 10
0.206646573833428
 20
1.1059701912747322
 10
0.1260295738334278
 20
1.1821051912747329
 10
0.0275015738334297
 20
1.2313721912747333
 10
-0.0844654261665703
 20
1.2609281912747328
 10
-0.212552426166571
 20
1.270784191274732
 10
-0.3316854261665725
 20
1.2645111912747318
 10
-0.4382754261665696
 20
1.2457041912747329
 10
-0.5287444261665719
 20
1.2107681912747346
 10
-0.6066714261665709
 20
1.1561311912747314
 10
-0.6720604261665706
 20
1.0835751912747327
 10
-0.7249074261665704
 20
0.9877351912747336
 10
-0.761632426166571
 20
0.869497191274732
 10
-0.7858164261665692
 20
0.7226001912747329
 10
-1.3107104261665725
 20
0.747681191274733
 10
-1.8356054261665697
 20
0.7727621912747331
 10
-1.774696426166571
 20
1.0155021912747344
 10
-1.6779584261665725
 20
1.2349571912747344
 10
-1.5418084261665719
 20
1.4320131912747343
 10
-1.3626624261665725
 20
1.6004121912747316
 10
-1.1360454261665716
 20
1.7365601912747337
 10
-0.8646404261665701
 20
1.8368841912747342
 10
-0.5421804261665706
 20
1.9013731912747325
 10
-0.1695574261665698
 20
1.9228731912747321
 10
0.1726075738334281
 20
1.9004771912747316
 10
0.4753645738334278
 20
1.8333011912747317
 10
0.73691357383343
 20
1.7213321912747332
 10
0.9554725738334291
 20
1.5645831912747319
 10
1.1292405738334281
 20
1.3684171912747338
 10
1.2564365738334295
 20
1.1310521912747333
 10
1.33436157383343
 20
0.8524801912747328
 10
1.3603405738334295
 20
0.5327081912747325
 10
1.3603405738334295
 20
-0.1731228087252674
 10
1.3603405738334295
 20
-0.8789538087252673
 10
1.3630215738334286
 20
-1.0079388087252674
 10
1.3710875738334281
 20
-1.122590808725267
 10
1.3898945738334305
 20
-1.2220168087252681
 10
1.4176655738334283
 20
-1.3053188087252678
 10
1.4597615738334291
 20
-1.3689158087252657
 10
1.5144035738334303
 20
-1.4163888087252658
 10
1.5878505738334283
 20
-1.4432618087252678
 10
1.6792175738334301
 20
-1.4522198087252676
 10
1.7920755738334293
 20
-1.4468458087252678
 10
1.9013575738334296
 20
-1.4307228087252675
 10
1.9013575738334296
 20
-1.7030238087252663
 10
1.9013575738334296
 20
-1.9753238087252676
 10
1.8162595738334275
 20
-1.9959258087252678
 10
1.7401265738334288
 20
-2.0147358087252663
 10
1.66846557383343
 20
-2.0308588087252666
 10
1.5968105738334302
 20
-2.0433988087252679
 10
1.5224625738334296
 20
-2.0532508087252666
 10
1.4427455738334274
 20
-2.0613138087252665
 10
1.35675357383343
 20
-2.0666868087252688
 10
1.2564345738334275
 20
-2.0684648087252668
 10
0.9259105738334306
 20
-2.0218878087252676
 10
0.6939195738334298
 20
-1.882154808725268
 10
0.5506015738334291
 20
-1.651952808725266
 10
0.4789455738334283
 20
-1.3339708087252689
 10
0.4681985738334298
 20
-1.3339708087252689
 10
0.4574515738334277
 20
-1.3339708087252689
 10
0.2281445738334291
 20
-1.655536808725266
 10
-0.0584854261665697
 20
-1.8964858087252665
 10
-0.4042374261665707
 20
-2.0469678087252667
 10
-0.8180604261665714
 20
-2.097128808725266
  0
LWPOLYLINE
  5
4C
  8
0
 62
7
370
-1
  6
ByLayer
100
AcDbEntity
100
AcDbPolyline
 90
25
 70
0
 10
0.3535475738334277
 20
-0.2304378087252665
 10
0.0955785738334285
 20
-0.234018808725267
 10
-0.1623894261665697
 20
-0.2376038087252681
 10
-0.3200384261665725
 20
-0.2483528087252687
 10
-0.4705194261665717
 20
-0.2662658087252687
 10
-0.60577542616657
 20
-0.2958258087252688
 10
-0.7249054261665719
 20
-0.3486728087252686
 10
-0.8216444261665714
 20
-0.423914808725268
 10
-0.8968844261665723
 20
-0.527817808725267
 10
-0.9452544261665707
 20
-0.6675518087252676
 10
-0.9613774261665711
 20
-0.8502788087252675
 10
-0.9300284261665723
 20
-1.0912298087252665
 10
-0.835976426166571
 20
-1.2623118087252685
 10
-0.6863914261665691
 20
-1.3617378087252661
 10
-0.4956004261665719
 20
-1.3948798087252676
 10
-0.3110824261665712
 20
-1.3742768087252664
 10
-0.1444764261665696
 20
-1.3124718087252667
 10
0.0006295738334288
 20
-1.2175268087252675
 10
0.1206575738334301
 20
-1.0974978087252687
 10
0.2191855738334283
 20
-0.9514958087252658
 10
0.2926365738334304
 20
-0.7857858087252687
 10
0.3383165738334277
 20
-0.6084328087252686
 10
0.3535455738334292
 20
-0.4274958087252685
 10
0.3535455738334292
 20
-0.3289658087252683
 10
0.3535455738334292
 20
-0.2304368087252655
  0
LWPOLYLINE
  5
4D
  8
0
 62
7
370
-1
  6
ByLayer
100
AcDbEntity
100
AcDbPolyline
 90
61
 70
0
 10
6.03960857383343
 20
-0.0692198087252685
 10
6.0172115738334284
 20
-0.4928988087252684
 10
5.9500355738334285
 20
-0.8825378087252673
 10
5.8398575738334308
 20
-1.2291848087252681
 10
5.6813175738334287
 20
-1.5238768087252659
 10
5.4735065738334292
 20
-1.7639318087252676
 10
5.2155405738334295
 20
-1.9466588087252674
 10
4.9100965738334281
 20
-2.0595208087252672
 10
4.5527045738334309
 20
-2.0971408087252676
 10
4.3807235738334285
 20
-2.0881828087252678
 10
4.2087465738334302
 20
-2.0613128087252655
 10
4.0439305738334284
 20
-2.0147348087252688
 10
3.8862855738334297
 20
-1.9466598087252684
 10
3.7375935738334292
 20
-1.8526088087252681
 10
3.5996535738334288
 20
-1.7352688087252659
 10
3.4796245738334299
 20
-1.5874748087252684
 10
3.3775135738334292
 20
-1.4092248087252663
 10
3.3667665738334307
 20
-1.4092248087252663
 10
3.3560195738334286
 20
-1.4092248087252663
 10
3.3596065738334282
 20
-1.4405758087252671
 10
3.3631845738334292
 20
-1.4987978087252678
 10
3.3667715738334287
 20
-1.5767258087252678
 10
3.3703505738334307
 20
-1.6671938087252656
 10
3.3730315738334298
 20
-1.7639328087252686
 10
3.3739345738334308
 20
-1.8678368087252686
 10
3.3766155738334298
 20
-1.968157808725266
 10
3.3775185738334308
 20
-2.0613128087252655
 10
3.3775185738334308
 20
-2.8047648087252668
 10
3.3775185738334308
 20
-3.5482158087252671
 10
2.8741215738334276
 20
-3.5482158087252671
 10
2.3707245738334279
 20
-3.5482158087252671
 10
2.3707245738334279
 20
-1.2945728087252668
 10
2.3707245738334279
 20
0.9590711912747345
 10
2.3680435738334289
 20
1.2403261912747325
 10
2.3599795738334279
 20
1.4893401912747315
 10
2.351916573833428
 20
1.6962501912747321
 10
2.3420645738334294
 20
1.8512131912747343
 10
2.8311305738334305
 20
1.8512131912747343
 10
3.3201955738334306
 20
1.8512131912747343
 10
3.3273615738334286
 20
1.8144851912747342
 10
3.3345275738334301
 20
1.7544751912747323
 10
3.3434825738334304
 20
1.6774401912747336
 10
3.3488585738334287
 20
1.5896611912747325
 10
3.3551265738334308
 20
1.4947121912747328
 10
3.3596085738334303
 20
1.3961851912747321
 10
3.3622895738334293
 20
1.3021311912747322
 10
3.3631925738334303
 20
1.2206231912747327
 10
3.3703585738334283
 20
1.2206231912747327
 10
3.3775235738334288
 20
1.2206231912747327
 10
3.5942875738334301
 20
1.5493511912747344
 10
3.8791295738334277
 20
1.7688061912747344
 10
4.2230865738334309
 20
1.8924131912747342
 10
4.6172065738334283
 20
1.9336201912747342
 10
4.9611625738334304
 20
1.8959961912747332
 10
5.2549635738334288
 20
1.7831381912747339
 10
5.4994935738334298
 20
1.6039901912747325
 10
5.6956595738334279
 20
1.367522191274734
 10
5.8479295738334294
 20
1.0764091912747311
 10
5.9536285738334307
 20
0.7333481912747324
 10
6.0181175738334289
 20
0.3499761912747346
 10
6.0396205738334281
 20
-0.0692208087252659
  0
LWPOLYLINE
  5
4E
  8
0
 62
7
370
-1
  6
ByLayer
100
AcDbEntity
100
AcDbPolyline
 90
29
 70
0
 10
4.9898295738334291
 20
-0.0692208087252659
 10
4.9396695738334309
 20
0.5076241912747328
 10
4.7891905738334302
 20
0.9124931912747343
 10
4.5392815738334278
 20
1.1543371912747311
 10
4.1908465738334293
 20
1.2349541912747313
 10
4.0403625738334306
 20
1.2188291912747324
 10
3.8898825738334288
 20
1.1704621912747335
 10
3.7501485738334281
 20
1.0862611912747333
 10
3.6247485738334291
 20
0.9554881912747319
 10
3.5199475738334307
 20
0.7781321912747323
 10
3.4348545738334302
 20
0.5470381912747335
 10
3.3811095738334274
 20
0.2586121912747323
 10
3.3631975738334283
 20
-0.0978838087252676
 10
3.3811095738334274
 20
-0.4463228087252666
 10
3.4348545738334302
 20
-0.7320578087252656
 10
3.517259573833428
 20
-0.9577808087252677
 10
3.6211655738334301
 20
-1.133341808725266
 10
3.7465655738334291
 20
-1.2623268087252661
 10
3.8862995738334298
 20
-1.3483158087252676
 10
4.0340925738334299
 20
-1.3939978087252669
 10
4.1836805738334277
 20
-1.4092238087252689
 10
4.3664065738334301
 20
-1.3904138087252669
 10
4.5276385738334284
 20
-1.333982808725267
 10
4.6655785738334288
 20
-1.2345578087252669
 10
4.7784415738334296
 20
-1.0939288087252663
 10
4.8698035738334298
 20
-0.9067228087252666
 10
4.9360895738334278
 20
-0.6747288087252663
 10
4.9763945738334279
 20
-0.3961598087252689
 10
4.9898335738334296
 20
-0.0692188087252674
  0
LWPOLYLINE
  5
4F
  8
0
 62
7
370
-1
  6
ByLayer
100
AcDbEntity
100
AcDbPolyline
 90
27
 70
0
 10
13.0226775738334304
 20
1.4248491912747312
 10
12.9949075738334265
 20
1.1041771912747329
 10
12.9116095738334273
 20
0.7942581912747322
 10
12.7745595738334323
 20
0.5103121912747319
 10
12.5783975738334313
 20
0.2604071912747337
 10
12.3222195738334257
 20
0.0508051912747334
 10
12.005134573833427
 20
-0.1122148087252661
 10
11.6253445738334271
 20
-0.2143288087252664
 10
11.1810675738334275
 20
-0.2483648087252668
 10
10.5540605738334285
 20
-0.2483648087252668
 10
9.9270525738334321
 20
-0.2483648087252668
 10
9.9270525738334321
 20
-1.1369238087252675
 10
9.9270525738334321
 20
-2.0254828087252683
 10
9.3985745738334288
 20
-2.0254828087252683
 10
8.870096573833429
 20
-2.0254828087252683
 10
8.870096573833429
 20
0.4986691912747325
 10
8.870096573833429
 20
3.0228221912747344
 10
10.0040855738334322
 20
3.0228221912747344
 10
11.1380745738334319
 20
3.0228221912747344
 10
11.589516573833432
 20
2.9932591912747313
 10
11.9764715738334324
 20
2.9045861912747313
 10
12.3007225738334292
 20
2.765745191274732
 10
12.5640665738334256
 20
2.5785421912747317
 10
12.7664995738334319
 20
2.346546191274733
 10
12.9080255738334309
 20
2.0733541912747313
 10
12.9940125738334267
 20
1.7643261912747334
 10
13.0226775738334304
 20
1.4248491912747312
  0
LWPOLYLINE
  5
50
  8
0
 62
7
370
-1
  6
ByLayer
100
AcDbEntity
100
AcDbPolyline
 90
19
 70
0
 10
11.9585565738334303
 20
1.4069341912747326
 10
11.8994365738334302
 20
1.7499941912747339
 10
11.7220845738334312
 20
1.998113191274733
 10
11.4300785738334305
 20
2.1512781912747343
 10
11.0198375738334313
 20
2.202338191274734
 10
10.4734435738334319
 20
2.202338191274734
 10
9.9270525738334321
 20
2.202338191274734
 10
9.9270525738334321
 20
1.3836451912747343
 10
9.9270525738334321
 20
0.5649531912747321
 10
10.4877745738334305
 20
0.5649531912747321
 10
11.0484995738334284
 20
0.5649531912747321
 10
11.2679495738334303
 20
0.5801791912747341
 10
11.4533675738334288
 20
0.6258631912747319
 10
11.6101165738334267
 20
0.6993101912747335
 10
11.7364165738334272
 20
0.7978421912747322
 10
11.8358405738334262
 20
0.9196581912747313
 10
11.9048125738334285
 20
1.062976191274732
 10
11.9451165738334275
 20
1.2277871912747322
 10
11.9585505738334312
 20
1.4069351912747337
  0
LWPOLYLINE
  5
51
  8
0
 62
7
370
-1
  6
ByLayer
100
AcDbEntity
100
AcDbPolyline
 90
49
 70
0
 10
13.793000573833428
 20
-2.0254828087252683
 10
13.793000573833428
 20
-0.5421628087252657
 10
13.793000573833428
 20
0.9411571912747334
 10
13.7921535738334278
 20
1.070139191274734
 10
13.7893315738334259
 20
1.2062921912747342
 10
13.7876385738334299
 20
1.3424401912747328
 10
13.7822195738334266
 20
1.471426191274734
 10
13.7786915738334308
 20
1.593242191274733
 10
13.7750515738334265
 20
1.7007321912747315
 10
13.7706205738334297
 20
1.7903021912747334
 10
13.7642985738334325
 20
1.8512141912747317
 10
14.2444065738334267
 20
1.8512141912747317
 10
14.724514573833428
 20
1.8512141912747317
 10
14.7316825738334281
 20
1.7920931912747342
 10
14.7388515738334256
 20
1.7007321912747315
 10
14.7460195738334257
 20
1.5914511912747322
 10
14.7531885738334303
 20
1.471426191274734
 10
14.7594535738334294
 20
1.3460231912747318
 10
14.7639405738334268
 20
1.2206241912747338
 10
14.7693035738334295
 20
1.1104471912747336
 10
14.7709965738334326
 20
1.0235641912747333
 10
14.7781645738334326
 20
1.0235641912747333
 10
14.7853335738334302
 20
1.0235641912747333
 10
14.860571573833429
 20
1.2233081912747323
 10
14.9358145738334294
 20
1.3997691912747321
 10
15.0173225738334288
 20
1.5547261912747317
 10
15.1113765738334287
 20
1.682818191274734
 10
15.2251315738334263
 20
1.7867191912747344
 10
15.3585975738334319
 20
1.8619631912747323
 10
15.5189275738334267
 20
1.9103291912747338
 10
15.7133025738334275
 20
1.9264551912747336
 10
15.8019765738334321
 20
1.9219731912747342
 10
15.8888645738334269
 20
1.9085401912747315
 10
15.9676865738334293
 20
1.8924141912747316
 10
16.0250145738334275
 20
1.8727111912747318
 10
16.0250145738334275
 20
1.4517201912747346
 10
16.0250145738334275
 20
1.0307301912747313
 10
15.9273795738334307
 20
1.0504331912747311
 10
15.8279555738334317
 20
1.0665591912747345
 10
15.7213625738334279
 20
1.0799921912747337
 10
15.5950685738334265
 20
1.0844731912747321
 10
15.2600655738334261
 20
1.0083341912747343
 10
15.0074705738334266
 20
0.7799271912747336
 10
14.8516135738334292
 20
0.401929191274732
 10
14.7996645738334287
 20
-0.1229638087252667
 10
14.7996645738334287
 20
-1.074222808725267
 10
14.7996645738334287
 20
-2.0254828087252683
 10
14.2962675738334291
 20
-2.0254828087252683
 10
13.7928675738334299
 20
-2.0254828087252683
  0
LWPOLYLINE
  5
52
  8
0
 62
7
370
-1
  6
ByLayer
100
AcDbEntity
100
AcDbPolyline
 90
37
 70
0
 10
17.6161045738334288
 20
1.8445751912747319
 10
17.3603405738334295
 20
1.5954261912747327
 10
17.1045765738334303
 20
1.3462761912747325
 10
16.8488125738334311
 20
1.0971271912747333
 10
16.5930485738334319
 20
0.8479781912747342
 10
16.5581635738334292
 20
0.8186691912747328
 10
16.5251235738334294
 20
0.7881951912747311
 10
16.49297557383343
 20
0.7567451912747316
 10
16.4607565738334323
 20
0.7245061912747346
 10
16.447520573833426
 20
0.711278191274733
 10
16.4342845738334269
 20
0.6980501912747314
 10
16.4210485738334278
 20
0.6848221912747334
 10
16.4078125738334286
 20
0.6715951912747329
 10
16.23427657383343
 20
0.441954191274732
 10
16.1038725738334314
 20
0.1823051912747324
 10
16.0218115738334284
 20
-0.101691808725267
 10
15.9932985738334317
 20
-0.4043778087252683
 10
16.1186645738334313
 20
-1.025974808725266
 10
16.4606385738334318
 20
-1.5333568087252658
 10
16.9680205738334315
 20
-1.8753298087252688
 10
17.5896175738334257
 20
-2.0006968087252659
 10
18.211214573833427
 20
-1.8753298087252688
 10
18.7185965738334268
 20
-1.5333568087252658
 10
19.0605715738334318
 20
-1.025974808725266
 10
19.1859375738334315
 20
-0.4043778087252683
 10
19.1449105738334318
 20
-0.0433048087252672
 10
19.0280225738334288
 20
0.2892041912747345
 10
18.8445725738334282
 20
0.583602191274732
 10
18.6038535738334296
 20
0.8303451912747342
 10
18.601595573833432
 20
0.8325461912747336
 10
18.5993385738334318
 20
0.8347471912747331
 10
18.5970805738334271
 20
0.8369491912747336
 10
18.5948225738334294
 20
0.839150191274733
 10
18.3503225738334272
 20
1.0905121912747333
 10
18.1055815738334296
 20
1.3418671912747335
 10
17.8608445738334289
 20
1.5932211912747327
 10
17.6161045738334288
 20
1.8445751912747319
  0
ENDSEC
  0
SECTION
  2
OBJECTS
  0
DICTIONARY
  5
C
100
AcDbDictionary
280
0
281
1
  3
ACAD_GROUP
350
D
  3
ACAD_LAYOUT
350
1A
  3
ACAD_MLINESTYLE
350
17
  3
ACAD_PLOTSETTINGS
350
19
  3
ACAD_PLOTSTYLENAME
350
E
  3
AcDbVariableDictionary
350
53
  0
DICTIONARY
  5
D
100
AcDbDictionary
280
0
281
1
  0
ACDBDICTIONARYWDFLT
  5
E
100
AcDbDictionary
281
1
  3
Normal
350
F
100
AcDbDictionaryWithDefault
340
F
  0
ACDBPLACEHOLDER
  5
F
  0
DICTIONARY
  5
17
100
AcDbDictionary
280
0
281
1
  3
Standard
350
18
  0
MLINESTYLE
  5
18
100
AcDbMlineStyle
  2
STANDARD
 70
0
  3

 62
256
 51
90.0
 52
90.0
 71
2
 49
0.5
 62
256
  6
BYLAYER
 49
-0.5
 62
256
  6
BYLAYER
  0
DICTIONARY
  5
19
100
AcDbDictionary
280
0
281
1
  0
DICTIONARY
  5
1A
100
AcDbDictionary
281
1
  3
Layout1
350
1E
  3
Layout2
350
26
  3
Model
350
22
  0
LAYOUT
  5
1E
100
AcDbPlotSettings
  1

  2
C:\Program Files\AutoCAD 2002\plotters\DWF ePlot (optimized for plotting).pc3
  4

  6

 40
0.0
 41
0.0
 42
0.0
 43
0.0
 44
0.0
 45
0.0
 46
0.0
 47
0.0
 48
0.0
 49
0.0
140
0.0
141
0.0
142
1.0
143
1.0
 70
688
 72
0
 73
0
 74
5
  7

 75
16
147
1.0
148
0.0
149
0.0
100
AcDbLayout
  1
Layout1
 70
1
 71
1
 10
0.0
 20
0.0
 11
420.0
 21
297.0
 12
0.0
 22
0.0
 32
0.0
 14
100000000000000000000.0
 24
100000000000000000000.0
 34
100000000000000000000.0
 15
-100000000000000000000.0
 25
-100000000000000000000.0
 35
-100000000000000000000.0
146
0.0
 13
0.0
 23
0.0
 33
0.0
 16
1.0
 26
0.0
 36
0.0
 17
0.0
 27
1.0
 37
0.0
 76
0
330
1B
  0
LAYOUT
  5
22
100
AcDbPlotSettings
  1

  2
C:\Program Files\AutoCAD 2002\plotters\DWF ePlot (optimized for plotting).pc3
  4

  6

 40
0.0
 41
0.0
 42
0.0
 43
0.0
 44
0.0
 45
0.0
 46
0.0
 47
0.0
 48
0.0
 49
0.0
140
0.0
141
0.0
142
1.0
143
1.0
 70
1712
 72
0
 73
0
 74
0
  7

 75
0
147
1.0
148
0.0
149
0.0
100
AcDbLayout
  1
Model
 70
1
 71
0
 10
0.0
 20
0.0
 11
12.0
 21
9.0
 12
0.0
 22
0.0
 32
0.0
 14
0.0
 24
0.0
 34
0.0
 15
0.0
 25
0.0
 35
0.0
146
0.0
 13
0.0
 23
0.0
 33
0.0
 16
1.0
 26
0.0
 36
0.0
 17
0.0
 27
1.0
 37
0.0
 76
0
330
1F
  0
LAYOUT
  5
26
100
AcDbPlotSettings
  1

  2
C:\Program Files\AutoCAD 2002\plotters\DWF ePlot (optimized for plotting).pc3
  4

  6

 40
0.0
 41
0.0
 42
0.0
 43
0.0
 44
0.0
 45
0.0
 46
0.0
 47
0.0
 48
0.0
 49
0.0
140
0.0
141
0.0
142
1.0
143
1.0
 70
688
 72
0
 73
0
 74
5
  7

 75
16
147
1.0
148
0.0
149
0.0
100
AcDbLayout
  1
Layout2
 70
1
 71
2
 10
0.0
 20
0.0
 11
12.0
 21
9.0
 12
0.0
 22
0.0
 32
0.0
 14
0.0
 24
0.0
 34
0.0
 15
0.0
 25
0.0
 35
0.0
146
0.0
 13
0.0
 23
0.0
 33
0.0
 16
1.0
 26
0.0
 36
0.0
 17
0.0
 27
1.0
 37
0.0
 76
0
330
23
  0
DICTIONARY
  5
53
100
AcDbDictionary
281
1
  3
DIMASSOC
350
55
  3
HIDETEXT
350
54
  0
DICTIONARYVAR
  5
54
100
DictionaryVariables
280
0
  1
2
  0
DICTIONARYVAR
  5
55
100
DictionaryVariables
280
0
  1
1
  0
ENDSEC
  0
EOF
