999
dxflib 2.2.0.0
  0
SECTION
  2
HEADER
  9
$ACADVER
  1
AC1015
  9
$HANDSEED
  5
FFFF
  9
$SPLINESEGS
 70
8
  9
$DIMEXE
 40
1.25
  9
<<<<<<< HEAD:dxf/heatbed-insulator.dxf
$PLIMMIN
 10
0.0
 20
0.0
  9
$DIMEXE
 40
1.25
  9
$DIMGAP
=======
$PSVPSCALE
>>>>>>> dev-v1.1:dxf/tapered-nut.dxf
 40
2.3974899999999999
  9
$DIMLUNIT
 70
2
  9
$GRIDMODE
 70
1
  9
$PLIMMAX
 10
210.0
 20
297.0
  9
$INSUNITS
 70
4
  9
<<<<<<< HEAD:dxf/heatbed-insulator.dxf
$DIMSTYLE
  2
Standard
  9
$DIMEXO
=======
$DIMADEC
 70
2
  9
$DIMASZ
 40
1.5
  9
$DIMGAP
>>>>>>> dev-v1.1:dxf/tapered-nut.dxf
 40
0.625
  9
$DIMTXT
 40
<<<<<<< HEAD:dxf/heatbed-insulator.dxf
2.5
=======
1.5
  9
$GRIDUNIT
 10
0.0
 20
0.0
  9
$DIMEXO
 40
0.625
  9
$LUPREC
 70
4
  9
$PINSBASE
 10
140.6507674765132947
 20
101.133602721510016
 30
0.0
  9
$DIMAUNIT
 70
0
  9
$AUPREC
 70
2
  9
$PLIMMIN
 10
0.0
 20
0.0
  9
$LUNITS
 70
2
  9
$PLIMMAX
 10
297.0
 20
210.0
  9
$AUNITS
 70
0
>>>>>>> dev-v1.1:dxf/tapered-nut.dxf
  0
ENDSEC
  0
SECTION
  2
TABLES
  0
TABLE
  2
VPORT
  5
8
100
AcDbSymbolTable
 70
1
  0
VPORT
  5
30
100
AcDbSymbolTableRecord
100
AcDbViewportTableRecord
  2
*Active
 70
0
 10
0.0
 20
0.0
 11
1.0
 21
1.0
 12
286.3055555555554861
 22
148.5
 13
0.0
 23
0.0
 14
10.0
 24
10.0
 15
10.0
 25
10.0
 16
0.0
 26
0.0
 36
1.0
 17
0.0
 27
0.0
 37
0.0
 40
297.0
 41
1.92798353909465
 42
50.0
 43
0.0
 44
0.0
 50
0.0
 51
0.0
 71
0
 72
100
 73
1
 74
3
 75
1
 76
1
 77
0
 78
0
281
0
 65
1
110
0.0
120
0.0
130
0.0
111
1.0
121
0.0
131
0.0
112
0.0
122
1.0
132
0.0
 79
0
146
0.0
  0
ENDTAB
  0
TABLE
  2
LTYPE
  5
5
100
AcDbSymbolTable
 70
21
  0
LTYPE
  5
14
100
AcDbSymbolTableRecord
100
AcDbLinetypeTableRecord
  2
ByBlock
 70
0
  3

 72
65
 73
0
 40
0.0
  0
LTYPE
  5
15
100
AcDbSymbolTableRecord
100
AcDbLinetypeTableRecord
  2
ByLayer
 70
0
  3

 72
65
 73
0
 40
0.0
  0
LTYPE
  5
16
100
AcDbSymbolTableRecord
100
AcDbLinetypeTableRecord
  2
CONTINUOUS
 70
0
  3
Solid line
 72
65
 73
0
 40
0.0
  0
LTYPE
  5
31
100
AcDbSymbolTableRecord
100
AcDbLinetypeTableRecord
  2
DOT
 70
0
  3
Dot . . . . . . . . . . . . . . . . . . . . . .
 72
65
 73
2
 40
6.3499999999999996
 49
0.0
 74
0
 49
-6.3499999999999996
 74
0
  0
LTYPE
  5
32
100
AcDbSymbolTableRecord
100
AcDbLinetypeTableRecord
  2
DOT2
 70
0
  3
Dot (.5x) .....................................
 72
65
 73
2
 40
3.1749999999999998
 49
0.0
 74
0
 49
-3.1749999999999998
 74
0
  0
LTYPE
  5
33
100
AcDbSymbolTableRecord
100
AcDbLinetypeTableRecord
  2
DOTX2
 70
0
  3
Dot (2x) .  .  .  .  .  .  .  .  .  .  .  .  .
 72
65
 73
2
 40
12.6999999999999993
 49
0.0
 74
0
 49
-12.6999999999999993
 74
0
  0
LTYPE
  5
34
100
AcDbSymbolTableRecord
100
AcDbLinetypeTableRecord
  2
DASHED
 70
0
  3
Dashed __ __ __ __ __ __ __ __ __ __ __ __ __ _
 72
65
 73
2
 40
19.0500000000000007
 49
12.6999999999999993
 74
0
 49
-6.3499999999999996
 74
0
  0
LTYPE
  5
35
100
AcDbSymbolTableRecord
100
AcDbLinetypeTableRecord
  2
DASHED2
 70
0
  3
Dashed (.5x) _ _ _ _ _ _ _ _ _ _ _ _ _ _ _ _ _
 72
65
 73
2
 40
9.5250000000000004
 49
6.3499999999999996
 74
0
 49
-3.1749999999999998
 74
0
  0
LTYPE
  5
36
100
AcDbSymbolTableRecord
100
AcDbLinetypeTableRecord
  2
DASHEDX2
 70
0
  3
Dashed (2x) ____  ____  ____  ____  ____  ___
 72
65
 73
2
 40
38.1000000000000014
 49
25.3999999999999986
 74
0
 49
-12.6999999999999993
 74
0
  0
LTYPE
  5
37
100
AcDbSymbolTableRecord
100
AcDbLinetypeTableRecord
  2
DASHDOT
 70
0
  3
Dash dot __ . __ . __ . __ . __ . __ . __ . __
 72
65
 73
4
 40
25.3999999999999986
 49
12.6999999999999993
 74
0
 49
-6.3499999999999996
 74
0
 49
0.0
 74
0
 49
-6.3499999999999996
 74
0
  0
LTYPE
  5
38
100
AcDbSymbolTableRecord
100
AcDbLinetypeTableRecord
  2
DASHDOT2
 70
0
  3
Dash dot (.5x) _._._._._._._._._._._._._._._.
 72
65
 73
4
 40
12.6999999999999993
 49
6.3499999999999996
 74
0
 49
-3.1749999999999998
 74
0
 49
0.0
 74
0
 49
-3.1749999999999998
 74
0
  0
LTYPE
  5
39
100
AcDbSymbolTableRecord
100
AcDbLinetypeTableRecord
  2
DASHDOTX2
 70
0
  3
Dash dot (2x) ____  .  ____  .  ____  .  ___
 72
65
 73
4
 40
50.7999999999999972
 49
25.3999999999999986
 74
0
 49
-12.6999999999999993
 74
0
 49
0.0
 74
0
 49
-12.6999999999999993
 74
0
  0
LTYPE
  5
3A
100
AcDbSymbolTableRecord
100
AcDbLinetypeTableRecord
  2
DIVIDE
 70
0
  3
Divide ____ . . ____ . . ____ . . ____ . . ____
 72
65
 73
6
 40
31.75
 49
12.6999999999999993
 74
0
 49
-6.3499999999999996
 74
0
 49
0.0
 74
0
 49
-6.3499999999999996
 74
0
 49
0.0
 74
0
 49
-6.3499999999999996
 74
0
  0
LTYPE
  5
3B
100
AcDbSymbolTableRecord
100
AcDbLinetypeTableRecord
  2
DIVIDE2
 70
0
  3
Divide (.5x) __..__..__..__..__..__..__..__.._
 72
65
 73
6
 40
15.875
 49
6.3499999999999996
 74
0
 49
-3.1749999999999998
 74
0
 49
0.0
 74
0
 49
-3.1749999999999998
 74
0
 49
0.0
 74
0
 49
-3.1749999999999998
 74
0
  0
LTYPE
  5
3C
100
AcDbSymbolTableRecord
100
AcDbLinetypeTableRecord
  2
DIVIDEX2
 70
0
  3
Divide (2x) ________  .  .  ________  .  .  _
 72
65
 73
6
 40
63.5
 49
25.3999999999999986
 74
0
 49
-12.6999999999999993
 74
0
 49
0.0
 74
0
 49
-12.6999999999999993
 74
0
 49
0.0
 74
0
 49
-12.6999999999999993
 74
0
  0
LTYPE
  5
3D
100
AcDbSymbolTableRecord
100
AcDbLinetypeTableRecord
  2
CENTER
 70
0
  3
Center ____ _ ____ _ ____ _ ____ _ ____ _ ____
 72
65
 73
4
 40
50.7999999999999972
 49
31.75
 74
0
 49
-6.3499999999999996
 74
0
 49
6.3499999999999996
 74
0
 49
-6.3499999999999996
 74
0
  0
LTYPE
  5
3E
100
AcDbSymbolTableRecord
100
AcDbLinetypeTableRecord
  2
CENTER2
 70
0
  3
Center (.5x) ___ _ ___ _ ___ _ ___ _ ___ _ ___
 72
65
 73
4
 40
28.5749999999999993
 49
19.0500000000000007
 74
0
 49
-3.1749999999999998
 74
0
 49
3.1749999999999998
 74
0
 49
-3.1749999999999998
 74
0
  0
LTYPE
  5
3F
100
AcDbSymbolTableRecord
100
AcDbLinetypeTableRecord
  2
CENTERX2
 70
0
  3
Center (2x) ________  __  ________  __  _____
 72
65
 73
4
 40
101.5999999999999943
 49
63.5
 74
0
 49
-12.6999999999999993
 74
0
 49
12.6999999999999993
 74
0
 49
-12.6999999999999993
 74
0
  0
LTYPE
  5
40
100
AcDbSymbolTableRecord
100
AcDbLinetypeTableRecord
  2
BORDER
 70
0
  3
Border __ __ . __ __ . __ __ . __ __ . __ __ .
 72
65
 73
6
 40
44.4500000000000028
 49
12.6999999999999993
 74
0
 49
-6.3499999999999996
 74
0
 49
12.6999999999999993
 74
0
 49
-6.3499999999999996
 74
0
 49
0.0
 74
0
 49
-6.3499999999999996
 74
0
  0
LTYPE
  5
41
100
AcDbSymbolTableRecord
100
AcDbLinetypeTableRecord
  2
BORDER2
 70
0
  3
Border (.5x) __.__.__.__.__.__.__.__.__.__.__.
 72
65
 73
6
 40
22.2250000000000014
 49
6.3499999999999996
 74
0
 49
-3.1749999999999998
 74
0
 49
6.3499999999999996
 74
0
 49
-3.1749999999999998
 74
0
 49
0.0
 74
0
 49
-3.1749999999999998
 74
0
  0
LTYPE
  5
42
100
AcDbSymbolTableRecord
100
AcDbLinetypeTableRecord
  2
BORDERX2
 70
0
  3
Border (2x) ____  ____  .  ____  ____  .  ___
 72
65
 73
6
 40
88.9000000000000057
 49
25.3999999999999986
 74
0
 49
-12.6999999999999993
 74
0
 49
25.3999999999999986
 74
0
 49
-12.6999999999999993
 74
0
 49
0.0
 74
0
 49
-12.6999999999999993
 74
0
  0
ENDTAB
  0
TABLE
  2
LAYER
  5
2
100
AcDbSymbolTable
 70
5
  0
LAYER
  5
10
100
AcDbSymbolTableRecord
100
AcDbLayerTableRecord
  2
0
 70
0
 62
7
  6
CONTINUOUS
370
0
390
F
  0
LAYER
  5
43
100
AcDbSymbolTableRecord
100
AcDbLayerTableRecord
  2
THICK
 70
0
 62
7
  6
CONTINUOUS
390
F
  0
LAYER
  5
44
100
AcDbSymbolTableRecord
100
AcDbLayerTableRecord
  2
HIDDEN
 70
0
 62
7
  6
CONTINUOUS
390
F
  0
LAYER
  5
45
100
AcDbSymbolTableRecord
100
AcDbLayerTableRecord
  2
dimensions
 70
0
 62
7
  6
CONTINUOUS
370
0
390
F
  0
LAYER
  5
46
100
AcDbSymbolTableRecord
100
AcDbLayerTableRecord
  2
centreline
 70
0
 62
7
  6
CENTERX2
370
0
390
F
  0
ENDTAB
  0
TABLE
  2
STYLE
  5
3
100
AcDbSymbolTable
 70
1
  0
STYLE
  5
11
100
AcDbSymbolTableRecord
100
AcDbTextStyleTableRecord
  2
Standard
 70
0
 40
0.0
 41
0.75
 50
0.0
 71
0
 42
2.5
  3
txt
  4

  0
ENDTAB
  0
TABLE
  2
VIEW
  5
6
100
AcDbSymbolTable
 70
0
  0
ENDTAB
  0
TABLE
  2
UCS
  5
7
100
AcDbSymbolTable
 70
0
  0
ENDTAB
  0
TABLE
  2
APPID
  5
9
100
AcDbSymbolTable
 70
1
  0
APPID
  5
12
100
AcDbSymbolTableRecord
100
AcDbRegAppTableRecord
  2
ACAD
 70
0
  0
ENDTAB
  0
TABLE
  2
DIMSTYLE
  5
A
100
AcDbSymbolTable
 70
1
100
AcDbDimStyleTable
 71
0
  0
DIMSTYLE
105
27
100
AcDbSymbolTableRecord
100
AcDbDimStyleTableRecord
  2
Standard
 41
1.5
 42
0.625
 43
3.75
 44
1.25
 70
0
 73
0
 74
0
 77
1
 78
8
140
1.5
141
2.5
143
0.03937007874016
147
0.625
171
3
172
1
271
2
272
2
274
3
278
44
283
0
284
8
340
11
  0
ENDTAB
  0
TABLE
  2
BLOCK_RECORD
  5
1
100
AcDbSymbolTable
 70
1
  0
BLOCK_RECORD
  5
1F
100
AcDbSymbolTableRecord
100
AcDbBlockTableRecord
  2
*Model_Space
340
22
  0
BLOCK_RECORD
  5
1B
100
AcDbSymbolTableRecord
100
AcDbBlockTableRecord
  2
*Paper_Space
340
1E
  0
BLOCK_RECORD
  5
23
100
AcDbSymbolTableRecord
100
AcDbBlockTableRecord
  2
*Paper_Space0
340
26
  0
ENDTAB
  0
ENDSEC
  0
SECTION
  2
BLOCKS
  0
BLOCK
  5
20
100
AcDbEntity
  8
0
100
AcDbBlockBegin
  2
*Model_Space
 70
0
 10
0.0
 20
0.0
 30
0.0
  3
*Model_Space
  1

  0
ENDBLK
  5
21
100
AcDbEntity
  8
0
100
AcDbBlockEnd
  0
BLOCK
  5
1C
100
AcDbEntity
 67
1
  8
0
100
AcDbBlockBegin
  2
*Paper_Space
 70
0
 10
0.0
 20
0.0
 30
0.0
  3
*Paper_Space
  1

  0
ENDBLK
  5
1D
100
AcDbEntity
 67
1
  8
0
100
AcDbBlockEnd
  0
BLOCK
  5
24
100
AcDbEntity
  8
0
100
AcDbBlockBegin
  2
*Paper_Space0
 70
0
 10
0.0
 20
0.0
 30
0.0
  3
*Paper_Space0
  1

  0
ENDBLK
  5
25
100
AcDbEntity
  8
0
100
AcDbBlockEnd
  0
ENDSEC
  0
SECTION
  2
ENTITIES
  0
ARC
  5
47
100
AcDbEntity
  8
THICK
 62
256
370
-1
  6
ByLayer
100
AcDbCircle
 10
0.0
 20
0.0000000000000003
 30
0.0
 40
5.0
100
AcDbArc
 50
209.9999930094276124
 51
270.0000187239684237
  0
LINE
  5
48
100
AcDbEntity
100
AcDbLine
  8
THICK
 62
256
370
-1
  6
ByLayer
 10
-2.8867513459481327
 20
-5.0
 30
0.0
 11
-2.5235290687880525
 21
-5.0
 31
0.0
  0
LINE
  5
49
100
AcDbEntity
100
AcDbLine
  8
THICK
 62
256
370
-1
  6
ByLayer
 10
-2.5235290687880525
 20
-5.0
 30
0.0
 11
-2.1573717036788511
 21
-5.0
 31
0.0
  0
LINE
  5
4A
100
AcDbEntity
100
AcDbLine
  8
THICK
 62
256
370
-1
  6
ByLayer
 10
-2.1573717036788511
 20
-5.0
 30
0.0
 11
-1.6273377730680385
 21
-5.0
 31
0.0
  0
LINE
  5
4B
100
AcDbEntity
100
AcDbLine
  8
THICK
 62
256
370
-1
  6
ByLayer
 10
-1.6273377730680385
 20
-5.0
 30
0.0
 11
-1.0925274973021954
 21
-5.0
 31
0.0
  0
LINE
  5
4C
100
AcDbEntity
100
AcDbLine
  8
THICK
 62
256
370
-1
  6
ByLayer
 10
-1.0925274973021954
 20
-5.0
 30
0.0
 11
-0.7294123534204645
 21
-5.0000000000000018
 31
0.0
  0
LINE
  5
4D
100
AcDbEntity
100
AcDbLine
  8
THICK
 62
256
370
-1
  6
ByLayer
 10
-0.7294123534204645
 20
-5.0000000000000018
 30
0.0
 11
-0.3649418417947998
 21
-5.0
 31
0.0
  0
LINE
  5
4E
100
AcDbEntity
100
AcDbLine
  8
THICK
 62
256
370
-1
  6
ByLayer
 10
-0.3649418417947998
 20
-5.0
 30
0.0
 11
-0.000000000000003
 21
-5.0
 31
0.0
  0
LINE
  5
4F
100
AcDbEntity
100
AcDbLine
  8
THICK
 62
256
370
-1
  6
ByLayer
 10
-4.3301270189221954
 20
-2.4999999999999982
 30
0.0
 11
-4.2274378740601026
 21
-2.6778628162869449
 31
0.0
  0
LINE
  5
50
100
AcDbEntity
100
AcDbLine
  8
THICK
 62
256
370
-1
  6
ByLayer
 10
-4.2274378740601026
 20
-2.6778628162869449
 30
0.0
 11
-4.0592450181892579
 21
-2.9691813881253548
 31
0.0
  0
LINE
  5
51
100
AcDbEntity
100
AcDbLine
  8
THICK
 62
256
370
-1
  6
ByLayer
 10
-4.0592450181892579
 20
-2.9691813881253548
 30
0.0
 11
-3.8914444327068947
 21
-3.2598205277206125
 31
0.0
  0
LINE
  5
52
100
AcDbEntity
100
AcDbLine
  8
THICK
 62
256
370
-1
  6
ByLayer
 10
-3.8914444327068947
 20
-3.2598205277206125
 30
0.0
 11
-3.7233458948364699
 21
-3.5509757359902299
 31
0.0
  0
LINE
  5
53
100
AcDbEntity
100
AcDbLine
  8
THICK
 62
256
370
-1
  6
ByLayer
 10
-3.7233458948364699
 20
-3.5509757359902299
 30
0.0
 11
-3.5560367209989572
 21
-3.8407637256491798
 31
0.0
  0
LINE
  5
54
100
AcDbEntity
100
AcDbLine
  8
THICK
 62
256
370
-1
  6
ByLayer
 10
-3.5560367209989572
 20
-3.8407637256491798
 30
0.0
 11
-3.3873855834292548
 21
-4.13287606467419
 31
0.0
  0
LINE
  5
55
100
AcDbEntity
100
AcDbLine
  8
THICK
 62
256
370
-1
  6
ByLayer
 10
-3.3873855834292548
 20
-4.13287606467419
 30
0.0
 11
-3.2197731861900953
 21
-4.4231892526708299
 31
0.0
  0
LINE
  5
56
100
AcDbEntity
100
AcDbLine
  8
THICK
 62
256
370
-1
  6
ByLayer
 10
-3.2197731861900953
 20
-4.4231892526708299
 30
0.0
 11
-3.0527091480014472
 21
-4.7125526549311951
 31
0.0
  0
LINE
  5
57
100
AcDbEntity
100
AcDbLine
  8
THICK
 62
256
370
-1
  6
ByLayer
 10
-3.0527091480014472
 20
-4.7125526549311951
 30
0.0
 11
-2.8867513459481327
 21
-5.0
 31
0.0
  0
ARC
  5
58
100
AcDbEntity
  8
THICK
 62
256
370
-1
  6
ByLayer
100
AcDbCircle
 10
0.0
 20
0.0000000000000003
 30
0.0
 40
5.0
100
AcDbArc
 50
270.0000187239684237
 51
329.9999871427295943
  0
LINE
  5
59
100
AcDbEntity
100
AcDbLine
  8
THICK
 62
256
370
-1
  6
ByLayer
 10
-0.000000000000003
 20
-5.0
 30
0.0
 11
0.3927619500126783
 21
-5.0
 31
0.0
  0
LINE
  5
5A
100
AcDbEntity
100
AcDbLine
  8
THICK
 62
256
370
-1
  6
ByLayer
 10
0.3927619500126783
 20
-5.0
 30
0.0
 11
0.7855239000253598
 21
-5.0
 31
0.0
  0
LINE
  5
5B
100
AcDbEntity
100
AcDbLine
  8
THICK
 62
256
370
-1
  6
ByLayer
 10
0.7855239000253598
 20
-5.0
 30
0.0
 11
1.3151849371612863
 21
-5.0000000000000018
 31
0.0
  0
LINE
  5
5C
100
AcDbEntity
100
AcDbLine
  8
THICK
 62
256
370
-1
  6
ByLayer
 10
1.3151849371612863
 20
-5.0000000000000018
 30
0.0
 11
1.8407594877819777
 21
-5.0000000000000018
 31
0.0
  0
LINE
  5
5D
100
AcDbEntity
100
AcDbLine
  8
THICK
 62
256
370
-1
  6
ByLayer
 10
1.8407594877819777
 20
-5.0000000000000018
 30
0.0
 11
2.36643650038949
 21
-5.0000000000000018
 31
0.0
  0
LINE
  5
5E
100
AcDbEntity
100
AcDbLine
  8
THICK
 62
256
370
-1
  6
ByLayer
 10
2.36643650038949
 20
-5.0000000000000018
 30
0.0
 11
2.8867513459481224
 21
-5.0000000000000018
 31
0.0
  0
LINE
  5
5F
100
AcDbEntity
100
AcDbLine
  8
THICK
 62
256
370
-1
  6
ByLayer
 10
2.8867513459481224
 20
-5.0000000000000018
 30
0.0
 11
3.0614233118599126
 21
-4.6974592803828479
 31
0.0
  0
LINE
  5
60
100
AcDbEntity
100
AcDbLine
  8
THICK
 62
256
370
-1
  6
ByLayer
 10
3.0614233118599126
 20
-4.6974592803828479
 30
0.0
 11
3.2373198726436527
 21
-4.3927975002287853
 31
0.0
  0
LINE
  5
61
100
AcDbEntity
100
AcDbLine
  8
THICK
 62
256
370
-1
  6
ByLayer
 10
3.2373198726436527
 20
-4.3927975002287853
 30
0.0
 11
3.4150351995796422
 21
-4.0849855246919375
 31
0.0
  0
LINE
  5
62
100
AcDbEntity
100
AcDbLine
  8
THICK
 62
256
370
-1
  6
ByLayer
 10
3.4150351995796422
 20
-4.0849855246919375
 30
0.0
 11
3.5939018783610797
 21
-3.7751793492613848
 31
0.0
  0
LINE
  5
63
100
AcDbEntity
100
AcDbLine
  8
THICK
 62
256
370
-1
  6
ByLayer
 10
3.5939018783610797
 20
-3.7751793492613848
 30
0.0
 11
3.7763085004806425
 21
-3.4592418121132802
 31
0.0
<<<<<<< HEAD:dxf/heatbed-insulator.dxf
 70
0
 71
5
 72
1
 41
1.0
 42
0.0
  1

  3
Standard
100
AcDbAlignedDimension
 13
-8.6000000000000014
 23
14.0
 33
0.0
 14
231.5999999999999943
 24
72.0
 34
0.0
 50
0.0
100
AcDbRotatedDimension
=======
>>>>>>> dev-v1.1:dxf/tapered-nut.dxf
  0
LINE
  5
64
100
AcDbEntity
100
AcDbLine
  8
THICK
 62
256
370
-1
  6
ByLayer
 10
3.7763085004806425
 20
-3.4592418121132802
 30
0.0
 11
3.9595882579262276
 21
-3.1417919602186299
 31
0.0
<<<<<<< HEAD:dxf/heatbed-insulator.dxf
 70
0
 71
5
 72
1
 41
1.0
 42
0.0
  1

  3
Standard
100
AcDbAlignedDimension
 13
117.0
 23
-37.5
 33
0.0
 14
-8.6000000000000014
 24
14.0
 34
0.0
 50
90.0
100
AcDbRotatedDimension
=======
>>>>>>> dev-v1.1:dxf/tapered-nut.dxf
  0
LINE
  5
65
100
AcDbEntity
100
AcDbLine
  8
THICK
 62
256
370
-1
  6
ByLayer
 10
3.9595882579262276
 20
-3.1417919602186299
 30
0.0
 11
4.1446924387893098
 21
-2.8211821142703553
 31
0.0
<<<<<<< HEAD:dxf/heatbed-insulator.dxf
 70
0
 71
5
 72
1
 41
1.0
 42
0.0
  1

  3
Standard
100
AcDbAlignedDimension
 13
117.0
 23
-37.5
 33
0.0
 14
-8.6000000000000014
 24
130.0
 34
0.0
 50
90.0
100
AcDbRotatedDimension
=======
>>>>>>> dev-v1.1:dxf/tapered-nut.dxf
  0
LINE
  5
66
100
AcDbEntity
100
AcDbLine
  8
THICK
 62
256
370
-1
  6
ByLayer
 10
4.1446924387893098
 20
-2.8211821142703553
 30
0.0
 11
4.3301270189221928
 21
-2.5
 31
0.0
  0
ARC
  5
67
100
AcDbEntity
  8
THICK
 62
256
370
-1
  6
ByLayer
100
AcDbCircle
 10
0.0
 20
0.0000000000000003
 30
0.0
 40
5.0
100
AcDbArc
 50
329.9999871427295943
 51
30.000012857270395
  0
LINE
  5
68
100
AcDbEntity
100
AcDbLine
  8
THICK
 62
256
370
-1
  6
ByLayer
 10
5.7735026918962573
 20
-0.0000000000000003
 30
0.0
 11
5.5988307259844703
 21
0.3025407196171552
 31
0.0
  0
LINE
  5
69
100
AcDbEntity
100
AcDbLine
  8
<<<<<<< HEAD:dxf/heatbed-insulator.dxf
bed
=======
THICK
 62
256
370
-1
  6
ByLayer
 10
5.5988307259844703
 20
0.3025407196171552
 30
0.0
 11
5.4229341652007301
 21
0.6072024997712175
 31
0.0
  0
LINE
  5
6A
100
AcDbEntity
100
AcDbLine
  8
THICK
 62
256
370
-1
  6
ByLayer
 10
5.4229341652007301
 20
0.6072024997712175
 30
0.0
 11
5.2452188382647424
 21
0.9150144753080646
 31
0.0
  0
LINE
  5
6B
100
AcDbEntity
100
AcDbLine
  8
THICK
 62
256
370
-1
  6
ByLayer
 10
5.2452188382647424
 20
0.9150144753080646
 30
0.0
 11
5.066352159483305
 21
1.2248206507386175
 31
0.0
  0
LINE
  5
6C
100
AcDbEntity
100
AcDbLine
  8
THICK
 62
256
370
-1
  6
ByLayer
 10
5.066352159483305
 20
1.2248206507386175
 30
0.0
 11
4.8839455373637399
 21
1.5407581878867198
 31
0.0
  0
LINE
  5
6D
100
AcDbEntity
100
AcDbLine
  8
THICK
>>>>>>> dev-v1.1:dxf/tapered-nut.dxf
 62
256
370
-1
  6
ByLayer
 10
4.8839455373637399
 20
1.5407581878867198
 30
0.0
 11
4.7006657799181575
 21
1.8582080397813696
 31
0.0
  0
LINE
  5
6A
100
AcDbEntity
100
AcDbLine
  8
THICK
 62
256
370
-1
  6
ByLayer
 10
4.7006657799181575
 20
1.8582080397813696
 30
0.0
 11
4.5155615990550775
 21
2.1788178857296443
 31
0.0
  0
LINE
  5
6B
100
AcDbEntity
100
AcDbLine
  8
THICK
 62
256
370
-1
  6
ByLayer
 10
4.5155615990550775
 20
2.1788178857296443
 30
0.0
 11
4.3301270189221954
 21
2.4999999999999991
 31
0.0
  0
LINE
  5
6C
100
AcDbEntity
100
AcDbLine
  8
THICK
 62
256
370
-1
  6
ByLayer
 10
4.3301270189221928
 20
-2.5
 30
0.0
 11
4.432816163784282
 21
-2.3221371837130564
 31
0.0
  0
LINE
  5
6D
100
AcDbEntity
100
AcDbLine
  8
THICK
 62
256
370
-1
  6
ByLayer
 10
4.432816163784282
 20
-2.3221371837130564
 30
0.0
 11
4.6010090196551277
 21
-2.0308186118746456
 31
0.0
  0
LINE
  5
6E
100
AcDbEntity
100
AcDbLine
  8
THICK
 62
256
370
-1
  6
ByLayer
 10
4.6010090196551277
 20
-2.0308186118746456
 30
0.0
 11
4.7688096051374904
 21
-1.7401794722793902
 31
0.0
  0
LINE
  5
6F
100
AcDbEntity
100
AcDbLine
  8
THICK
 62
256
370
-1
  6
ByLayer
 10
4.7688096051374904
 20
-1.7401794722793902
 30
0.0
 11
4.9369081430079174
 21
-1.4490242640097704
 31
0.0
  0
LINE
  5
70
100
AcDbEntity
100
AcDbLine
  8
THICK
 62
256
370
-1
  6
ByLayer
 10
4.9369081430079174
 20
-1.4490242640097704
 30
0.0
 11
5.1042173168454301
 21
-1.159236274350822
 31
0.0
  0
LINE
  5
71
100
AcDbEntity
100
AcDbLine
  8
THICK
 62
256
370
-1
  6
ByLayer
 10
5.1042173168454301
 20
-1.159236274350822
 30
0.0
 11
5.2728684544151347
 21
-0.86712393532581
 31
0.0
  0
LINE
  5
72
100
AcDbEntity
100
AcDbLine
  8
THICK
 62
256
370
-1
  6
ByLayer
 10
5.2728684544151347
 20
-0.86712393532581
 30
0.0
 11
5.4404808516542928
 21
-0.5768107473291695
 31
0.0
  0
LINE
  5
73
100
AcDbEntity
100
AcDbLine
  8
<<<<<<< HEAD:dxf/heatbed-insulator.dxf
0
 62
256
370
-1
  6
ByLayer
100
AcDbCircle
 10
221.5
 20
-32.5
 30
0.0
 40
5.0
100
AcDbArc
 50
270.0
 51
360.0
  0
LINE
  5
74
100
AcDbEntity
100
AcDbLine
  8
0
 62
256
370
-1
  6
ByLayer
 10
226.5
 20
-17.4289321881345565
 30
0.0
 11
226.5000000000000284
 21
-13.5294372515228964
 31
0.0
  0
LINE
  5
75
100
AcDbEntity
100
AcDbLine
  8
0
 62
256
370
-1
  6
ByLayer
 10
226.5
 20
-32.5
 30
0.0
 11
226.5
 21
-23.4289321881345813
 31
0.0
  0
LINE
  5
76
100
AcDbEntity
100
AcDbLine
  8
0
=======
THICK
>>>>>>> dev-v1.1:dxf/tapered-nut.dxf
 62
256
370
-1
  6
ByLayer
 10
5.4404808516542928
 20
-0.5768107473291695
 30
0.0
 11
5.6075448898429405
 21
-0.2874473450688043
 31
0.0
<<<<<<< HEAD:dxf/heatbed-insulator.dxf
  0
ARC
  5
77
100
AcDbEntity
  8
0
 62
256
370
-1
  6
ByLayer
100
AcDbCircle
 10
221.5
 20
176.4999999999999716
 30
0.0
 40
5.0
100
AcDbArc
 50
0.0
 51
90.0
  0
LINE
  5
78
100
AcDbEntity
100
AcDbLine
  8
0
 62
256
370
-1
  6
ByLayer
 10
206.4289321881345529
 20
181.4999999999999716
 30
0.0
 11
202.5294372515228929
 21
181.4999999999999716
 31
0.0
  0
LINE
  5
79
100
AcDbEntity
100
AcDbLine
  8
0
 62
256
370
-1
  6
ByLayer
 10
221.5
 20
181.4999999999999716
 30
0.0
 11
212.4289321881345813
 21
181.4999999999999716
 31
0.0
  0
LINE
  5
7A
100
AcDbEntity
100
AcDbLine
  8
0
 62
256
370
-1
  6
ByLayer
 10
226.642135623730951
 20
161.4289321881345245
 30
0.0
 11
226.642135623730951
 21
157.5294372515228929
 31
0.0
  0
CIRCLE
  5
7B
100
AcDbEntity
100
AcDbCircle
  8
0
 62
256
370
-1
  6
ByLayer
 10
-8.6000000000000014
 20
130.0
 30
0.0
 40
1.3999999999999999
  0
CIRCLE
  5
7C
100
AcDbEntity
100
AcDbCircle
  8
0
 62
256
370
-1
  6
ByLayer
 10
-8.6000000000000014
 20
14.0
 30
0.0
 40
1.3999999999999999
  0
CIRCLE
  5
7D
100
AcDbEntity
100
AcDbCircle
  8
0
 62
256
370
-1
  6
ByLayer
 10
231.5999999999999659
 20
72.0
 30
0.0
 40
1.3999999999999999
  0
CIRCLE
  5
7E
100
AcDbEntity
100
AcDbCircle
  8
0
 62
256
370
-1
  6
ByLayer
 10
12.4999999999999982
 20
176.5
 30
0.0
 40
1.3999999999999999
  0
CIRCLE
  5
7F
100
AcDbEntity
100
AcDbCircle
  8
0
 62
256
370
-1
  6
CONTINUOUS
 10
117.0000000000000142
 20
72.0
 30
0.0
 40
3.0
  0
CIRCLE
  5
80
100
AcDbEntity
100
AcDbCircle
  8
0
 62
256
370
-1
  6
CONTINUOUS
 10
-5.0
 20
96.0
 30
0.0
 40
1.5
  0
CIRCLE
  5
81
100
AcDbEntity
100
AcDbCircle
  8
0
 62
256
370
-1
  6
CONTINUOUS
 10
1.0
 20
101.0
 30
0.0
 40
1.5
  0
ARC
  5
82
100
AcDbEntity
  8
0
 62
7
370
0
  6
CONTINUOUS
100
AcDbCircle
 10
120.0
 20
67.0
 30
0.0
 40
25.0
100
AcDbArc
 50
148.2955399998915027
 51
204.2667390376974197
  0
ARC
  5
83
100
AcDbEntity
  8
0
 62
7
370
0
  6
CONTINUOUS
100
AcDbCircle
 10
123.0
 20
67.0
 30
0.0
 40
25.0
100
AcDbArc
 50
183.1088994748764378
 51
221.2077403010331977
  0
ARC
  5
84
100
AcDbEntity
  8
0
 62
7
370
0
  6
CONTINUOUS
100
AcDbCircle
 10
119.8301270189222123
 20
77.0980762113533018
 30
0.0
 40
25.0
100
AcDbArc
 50
268.2955399998915027
 51
324.2667390376974481
  0
ARC
  5
85
100
AcDbEntity
  8
0
 62
7
370
0
  6
CONTINUOUS
100
AcDbCircle
 10
118.3301270189222123
 20
79.6961524227066178
 30
0.0
 40
25.0
100
AcDbArc
 50
303.1088994748764094
 51
341.2077403010331409
  0
ARC
  5
86
100
AcDbEntity
  8
0
 62
7
370
0
  6
CONTINUOUS
100
AcDbCircle
 10
111.1698729810778303
 20
71.9019237886466982
 30
0.0
 40
25.0
100
AcDbArc
 50
28.2955399998914991
 51
84.2667390376974197
=======
>>>>>>> dev-v1.1:dxf/tapered-nut.dxf
  0
LINE
  5
<<<<<<< HEAD:dxf/heatbed-insulator.dxf
87
=======
78
>>>>>>> dev-v1.1:dxf/tapered-nut.dxf
100
AcDbEntity
100
AcDbLine
  8
THICK
 62
256
370
-1
  6
ByLayer
 10
5.6075448898429405
 20
-0.2874473450688043
 30
0.0
 11
5.7735026918962573
 21
-0.0000000000000003
 31
0.0
  0
ARC
  5
<<<<<<< HEAD:dxf/heatbed-insulator.dxf
88
=======
79
>>>>>>> dev-v1.1:dxf/tapered-nut.dxf
100
AcDbEntity
  8
THICK
 62
256
370
-1
  6
ByLayer
100
AcDbCircle
 10
0.0
 20
0.0000000000000003
 30
0.0
 40
5.0
100
AcDbArc
 50
30.000012857270395
 51
89.9999812760316473
  0
LINE
  5
<<<<<<< HEAD:dxf/heatbed-insulator.dxf
89
=======
7A
>>>>>>> dev-v1.1:dxf/tapered-nut.dxf
100
AcDbEntity
100
AcDbLine
  8
THICK
 62
256
370
-1
  6
ByLayer
 10
2.88675134594813
 20
5.0
 30
0.0
 11
2.3712424972179962
 21
5.0
 31
0.0
  0
LINE
  5
<<<<<<< HEAD:dxf/heatbed-insulator.dxf
8A
=======
7B
>>>>>>> dev-v1.1:dxf/tapered-nut.dxf
100
AcDbEntity
100
AcDbLine
  8
THICK
 62
256
370
-1
  6
ByLayer
 10
2.3712424972179962
 20
5.0
 30
0.0
 11
1.850467267471102
 21
5.0
 31
0.0
  0
LINE
  5
<<<<<<< HEAD:dxf/heatbed-insulator.dxf
8B
=======
7C
>>>>>>> dev-v1.1:dxf/tapered-nut.dxf
100
AcDbEntity
100
AcDbLine
  8
THICK
 62
256
370
-1
  6
ByLayer
 10
1.850467267471102
 20
5.0
 30
0.0
 11
1.4974348743994725
 21
5.0
 31
0.0
  0
LINE
  5
<<<<<<< HEAD:dxf/heatbed-insulator.dxf
8C
=======
7D
>>>>>>> dev-v1.1:dxf/tapered-nut.dxf
100
AcDbEntity
100
AcDbLine
  8
THICK
 62
256
370
-1
  6
ByLayer
 10
1.4974348743994725
 20
5.0
 30
0.0
 11
1.1422641299222454
 21
5.0
 31
0.0
  0
LINE
  5
<<<<<<< HEAD:dxf/heatbed-insulator.dxf
8D
=======
7E
>>>>>>> dev-v1.1:dxf/tapered-nut.dxf
100
AcDbEntity
100
AcDbLine
  8
THICK
 62
256
370
-1
  6
ByLayer
 10
1.1422641299222454
 20
5.0
 30
0.0
 11
0.7855239000253643
 21
5.0
 31
0.0
  0
LINE
  5
<<<<<<< HEAD:dxf/heatbed-insulator.dxf
8E
=======
7F
>>>>>>> dev-v1.1:dxf/tapered-nut.dxf
100
AcDbEntity
100
AcDbLine
  8
THICK
 62
256
370
-1
  6
ByLayer
 10
0.7855239000253643
 20
5.0
 30
0.0
 11
0.393548313553172
 21
5.0
 31
0.0
  0
LINE
  5
<<<<<<< HEAD:dxf/heatbed-insulator.dxf
8F
=======
80
>>>>>>> dev-v1.1:dxf/tapered-nut.dxf
100
AcDbEntity
100
AcDbLine
  8
THICK
 62
256
370
-1
  6
ByLayer
 10
0.393548313553172
 20
5.0
 30
0.0
 11
0.000000000000001
 21
5.0
 31
0.0
  0
LINE
  5
<<<<<<< HEAD:dxf/heatbed-insulator.dxf
90
=======
81
>>>>>>> dev-v1.1:dxf/tapered-nut.dxf
100
AcDbEntity
100
AcDbLine
  8
THICK
 62
256
370
-1
  6
ByLayer
 10
4.3301270189221954
 20
2.4999999999999991
 30
0.0
 11
4.2274378740601
 21
2.6778628162869471
 31
0.0
  0
LINE
  5
<<<<<<< HEAD:dxf/heatbed-insulator.dxf
91
=======
82
>>>>>>> dev-v1.1:dxf/tapered-nut.dxf
100
AcDbEntity
100
AcDbLine
  8
THICK
 62
256
370
-1
  6
ByLayer
 10
4.2274378740601
 20
2.6778628162869471
 30
0.0
 11
4.0592450181892552
 21
2.9691813881253575
 31
0.0
  0
LINE
  5
<<<<<<< HEAD:dxf/heatbed-insulator.dxf
92
=======
83
>>>>>>> dev-v1.1:dxf/tapered-nut.dxf
100
AcDbEntity
100
AcDbLine
  8
THICK
 62
256
370
-1
  6
ByLayer
 10
4.0592450181892552
 20
2.9691813881253575
 30
0.0
 11
3.8914444327068947
 21
3.2598205277206125
 31
0.0
  0
LINE
  5
<<<<<<< HEAD:dxf/heatbed-insulator.dxf
93
=======
84
>>>>>>> dev-v1.1:dxf/tapered-nut.dxf
100
AcDbEntity
100
AcDbLine
  8
THICK
 62
256
370
-1
  6
ByLayer
 10
3.8914444327068947
 20
3.2598205277206125
 30
0.0
 11
3.7233458948364699
 21
3.5509757359902325
 31
0.0
  0
LINE
  5
<<<<<<< HEAD:dxf/heatbed-insulator.dxf
94
=======
85
>>>>>>> dev-v1.1:dxf/tapered-nut.dxf
100
AcDbEntity
100
AcDbLine
  8
THICK
 62
256
370
-1
  6
ByLayer
 10
3.7233458948364699
 20
3.5509757359902325
 30
0.0
 11
3.5560367209989554
 21
3.8407637256491798
 31
0.0
  0
LINE
  5
<<<<<<< HEAD:dxf/heatbed-insulator.dxf
95
=======
86
>>>>>>> dev-v1.1:dxf/tapered-nut.dxf
100
AcDbEntity
100
AcDbLine
  8
THICK
 62
256
370
-1
  6
ByLayer
 10
3.5560367209989554
 20
3.8407637256491798
 30
0.0
 11
3.3873855834292526
 21
4.13287606467419
 31
0.0
  0
LINE
  5
<<<<<<< HEAD:dxf/heatbed-insulator.dxf
96
=======
87
>>>>>>> dev-v1.1:dxf/tapered-nut.dxf
100
AcDbEntity
100
AcDbLine
  8
THICK
 62
256
370
-1
  6
ByLayer
 10
3.3873855834292526
 20
4.13287606467419
 30
0.0
 11
3.2197731861900953
 21
4.4231892526708299
 31
0.0
  0
LINE
  5
<<<<<<< HEAD:dxf/heatbed-insulator.dxf
97
=======
88
>>>>>>> dev-v1.1:dxf/tapered-nut.dxf
100
AcDbEntity
100
AcDbLine
  8
THICK
 62
256
370
-1
  6
ByLayer
 10
3.2197731861900953
 20
4.4231892526708299
 30
0.0
 11
3.0527091480014472
 21
4.7125526549311951
 31
0.0
  0
LINE
  5
<<<<<<< HEAD:dxf/heatbed-insulator.dxf
98
=======
89
>>>>>>> dev-v1.1:dxf/tapered-nut.dxf
100
AcDbEntity
100
AcDbLine
  8
THICK
 62
256
370
-1
  6
ByLayer
 10
3.0527091480014472
 20
4.7125526549311951
 30
0.0
 11
2.88675134594813
 21
5.0
 31
0.0
  0
ARC
  5
<<<<<<< HEAD:dxf/heatbed-insulator.dxf
99
=======
8A
>>>>>>> dev-v1.1:dxf/tapered-nut.dxf
100
AcDbEntity
  8
THICK
 62
256
370
-1
  6
ByLayer
100
AcDbCircle
 10
0.0
 20
0.0000000000000003
 30
0.0
 40
5.0
100
AcDbArc
 50
89.9999812760316473
 51
150.0000069905723876
  0
LINE
  5
<<<<<<< HEAD:dxf/heatbed-insulator.dxf
9A
=======
8B
>>>>>>> dev-v1.1:dxf/tapered-nut.dxf
100
AcDbEntity
100
AcDbLine
  8
THICK
 62
256
370
-1
  6
ByLayer
 10
0.000000000000001
 20
5.0
 30
0.0
 11
-0.3603001079815427
 21
5.0
 31
0.0
  0
LINE
  5
<<<<<<< HEAD:dxf/heatbed-insulator.dxf
9B
=======
8C
>>>>>>> dev-v1.1:dxf/tapered-nut.dxf
100
AcDbEntity
100
AcDbLine
  8
THICK
 62
256
370
-1
  6
ByLayer
 10
-0.3603001079815427
 20
5.0
 30
0.0
 11
-0.7201462998803712
 21
5.0
 31
0.0
  0
LINE
  5
<<<<<<< HEAD:dxf/heatbed-insulator.dxf
9C
=======
8D
>>>>>>> dev-v1.1:dxf/tapered-nut.dxf
100
AcDbEntity
100
AcDbLine
  8
THICK
 62
256
370
-1
  6
ByLayer
 10
-0.7201462998803712
 20
5.0
 30
0.0
 11
-1.0786858518394229
 21
5.0
 31
0.0
  0
LINE
  5
<<<<<<< HEAD:dxf/heatbed-insulator.dxf
9D
=======
8E
>>>>>>> dev-v1.1:dxf/tapered-nut.dxf
100
AcDbEntity
100
AcDbLine
  8
THICK
 62
256
370
-1
  6
ByLayer
 10
-1.0786858518394229
 20
5.0
 30
0.0
 11
-1.6204721665039972
 21
5.0
 31
0.0
  0
LINE
  5
<<<<<<< HEAD:dxf/heatbed-insulator.dxf
9E
=======
8F
>>>>>>> dev-v1.1:dxf/tapered-nut.dxf
100
AcDbEntity
100
AcDbLine
  8
THICK
 62
256
370
-1
  6
ByLayer
 10
-1.6204721665039972
 20
5.0
 30
0.0
 11
-2.1573717036788471
 21
5.0
 31
0.0
  0
LINE
  5
<<<<<<< HEAD:dxf/heatbed-insulator.dxf
9F
=======
90
>>>>>>> dev-v1.1:dxf/tapered-nut.dxf
100
AcDbEntity
100
AcDbLine
  8
THICK
 62
256
370
-1
  6
ByLayer
 10
-2.1573717036788471
 20
5.0
 30
0.0
 11
-2.5232414322075227
 21
5.0
 31
0.0
  0
LINE
  5
<<<<<<< HEAD:dxf/heatbed-insulator.dxf
A0
=======
91
>>>>>>> dev-v1.1:dxf/tapered-nut.dxf
100
AcDbEntity
100
AcDbLine
  8
THICK
 62
256
370
-1
  6
ByLayer
 10
-2.5232414322075227
 20
5.0
 30
0.0
 11
-2.8867513459481273
 21
5.0
 31
0.0
  0
LINE
  5
<<<<<<< HEAD:dxf/heatbed-insulator.dxf
A1
=======
92
>>>>>>> dev-v1.1:dxf/tapered-nut.dxf
100
AcDbEntity
100
AcDbLine
  8
THICK
 62
256
370
-1
  6
ByLayer
 10
-2.8867513459481273
 20
5.0
 30
0.0
 11
-3.0614233118599148
 21
4.6974592803828452
 31
0.0
  0
LINE
  5
<<<<<<< HEAD:dxf/heatbed-insulator.dxf
A2
=======
93
>>>>>>> dev-v1.1:dxf/tapered-nut.dxf
100
AcDbEntity
100
AcDbLine
  8
THICK
 62
256
370
-1
  6
ByLayer
 10
-3.0614233118599148
 20
4.6974592803828452
 30
0.0
 11
-3.2373198726436527
 21
4.3927975002287827
 31
0.0
  0
LINE
  5
<<<<<<< HEAD:dxf/heatbed-insulator.dxf
A3
=======
94
>>>>>>> dev-v1.1:dxf/tapered-nut.dxf
100
AcDbEntity
100
AcDbLine
  8
THICK
 62
256
370
-1
  6
ByLayer
 10
-3.2373198726436527
 20
4.3927975002287827
 30
0.0
 11
-3.4150351995796422
 21
4.0849855246919349
 31
0.0
  0
LINE
  5
<<<<<<< HEAD:dxf/heatbed-insulator.dxf
A4
=======
95
>>>>>>> dev-v1.1:dxf/tapered-nut.dxf
100
AcDbEntity
100
AcDbLine
  8
THICK
 62
256
370
-1
  6
ByLayer
 10
-3.4150351995796422
 20
4.0849855246919349
 30
0.0
 11
-3.5939018783610797
 21
3.775179349261383
 31
0.0
  0
LINE
  5
<<<<<<< HEAD:dxf/heatbed-insulator.dxf
A5
=======
96
>>>>>>> dev-v1.1:dxf/tapered-nut.dxf
100
AcDbEntity
100
AcDbLine
  8
THICK
 62
256
370
-1
  6
ByLayer
 10
-3.5939018783610797
 20
3.775179349261383
 30
0.0
 11
-3.7763085004806474
 21
3.4592418121132802
 31
0.0
  0
LINE
  5
<<<<<<< HEAD:dxf/heatbed-insulator.dxf
A6
=======
97
>>>>>>> dev-v1.1:dxf/tapered-nut.dxf
100
AcDbEntity
100
AcDbLine
  8
THICK
 62
256
370
-1
  6
ByLayer
 10
-3.7763085004806474
 20
3.4592418121132802
 30
0.0
 11
-3.9595882579262276
 21
3.1417919602186299
 31
0.0
  0
LINE
  5
<<<<<<< HEAD:dxf/heatbed-insulator.dxf
A7
=======
98
>>>>>>> dev-v1.1:dxf/tapered-nut.dxf
100
AcDbEntity
100
AcDbLine
  8
THICK
 62
256
370
-1
  6
ByLayer
 10
-3.9595882579262276
 20
3.1417919602186299
 30
0.0
 11
-4.1446924387893098
 21
2.8211821142703553
 31
0.0
  0
LINE
  5
<<<<<<< HEAD:dxf/heatbed-insulator.dxf
A8
=======
99
>>>>>>> dev-v1.1:dxf/tapered-nut.dxf
100
AcDbEntity
100
AcDbLine
  8
THICK
 62
256
370
-1
  6
ByLayer
 10
-4.1446924387893098
 20
2.8211821142703553
 30
0.0
 11
-4.3301270189221928
 21
2.5
 31
0.0
  0
ARC
  5
<<<<<<< HEAD:dxf/heatbed-insulator.dxf
A9
=======
9A
>>>>>>> dev-v1.1:dxf/tapered-nut.dxf
100
AcDbEntity
  8
THICK
 62
256
370
-1
  6
ByLayer
100
AcDbCircle
 10
0.0
 20
0.0000000000000003
 30
0.0
 40
5.0
100
AcDbArc
 50
150.0000069905723876
 51
209.9999930094276124
  0
LINE
  5
<<<<<<< HEAD:dxf/heatbed-insulator.dxf
AA
=======
9B
>>>>>>> dev-v1.1:dxf/tapered-nut.dxf
100
AcDbEntity
100
AcDbLine
  8
THICK
 62
256
370
-1
  6
ByLayer
 10
-4.3301270189221928
 20
2.5
 30
0.0
 11
-4.4328161637842847
 21
2.3221371837130547
 31
0.0
  0
LINE
  5
<<<<<<< HEAD:dxf/heatbed-insulator.dxf
AB
=======
9C
>>>>>>> dev-v1.1:dxf/tapered-nut.dxf
100
AcDbEntity
100
AcDbLine
  8
THICK
 62
256
370
-1
  6
ByLayer
 10
-4.4328161637842847
 20
2.3221371837130547
 30
0.0
 11
-4.6010090196551303
 21
2.0308186118746447
 31
0.0
  0
LINE
  5
<<<<<<< HEAD:dxf/heatbed-insulator.dxf
AC
=======
9D
>>>>>>> dev-v1.1:dxf/tapered-nut.dxf
100
AcDbEntity
100
AcDbLine
  8
THICK
 62
256
370
-1
  6
ByLayer
 10
-4.6010090196551303
 20
2.0308186118746447
 30
0.0
 11
-4.7688096051374922
 21
1.7401794722793893
 31
0.0
  0
LINE
  5
<<<<<<< HEAD:dxf/heatbed-insulator.dxf
AD
=======
9E
>>>>>>> dev-v1.1:dxf/tapered-nut.dxf
100
AcDbEntity
100
AcDbLine
  8
THICK
 62
256
370
-1
  6
ByLayer
 10
-4.7688096051374922
 20
1.7401794722793893
 30
0.0
 11
-4.9369081430079174
 21
1.4490242640097692
 31
0.0
  0
LINE
  5
<<<<<<< HEAD:dxf/heatbed-insulator.dxf
AE
=======
9F
>>>>>>> dev-v1.1:dxf/tapered-nut.dxf
100
AcDbEntity
100
AcDbLine
  8
THICK
 62
256
370
-1
  6
ByLayer
 10
-4.9369081430079174
 20
1.4490242640097692
 30
0.0
 11
-5.1042173168454328
 21
1.1592362743508215
 31
0.0
  0
LINE
  5
<<<<<<< HEAD:dxf/heatbed-insulator.dxf
AF
=======
A0
>>>>>>> dev-v1.1:dxf/tapered-nut.dxf
100
AcDbEntity
100
AcDbLine
  8
THICK
 62
256
370
-1
  6
ByLayer
 10
-5.1042173168454328
 20
1.1592362743508215
 30
0.0
 11
-5.2728684544151347
 21
0.86712393532581
 31
0.0
  0
LINE
  5
<<<<<<< HEAD:dxf/heatbed-insulator.dxf
B0
=======
A1
>>>>>>> dev-v1.1:dxf/tapered-nut.dxf
100
AcDbEntity
100
AcDbLine
  8
THICK
 62
256
370
-1
  6
ByLayer
 10
-5.2728684544151347
 20
0.86712393532581
 30
0.0
 11
-5.4404808516542928
 21
0.5768107473291703
 31
0.0
  0
LINE
  5
<<<<<<< HEAD:dxf/heatbed-insulator.dxf
B1
=======
A2
>>>>>>> dev-v1.1:dxf/tapered-nut.dxf
100
AcDbEntity
100
AcDbLine
  8
THICK
 62
256
370
-1
  6
ByLayer
 10
-5.4404808516542928
 20
0.5768107473291703
 30
0.0
 11
-5.6075448898429405
 21
0.2874473450688055
 31
0.0
  0
LINE
  5
<<<<<<< HEAD:dxf/heatbed-insulator.dxf
B2
=======
A3
>>>>>>> dev-v1.1:dxf/tapered-nut.dxf
100
AcDbEntity
100
AcDbLine
  8
THICK
 62
256
370
-1
  6
ByLayer
 10
-5.6075448898429405
 20
0.2874473450688055
 30
0.0
 11
-5.7735026918962573
 21
0.0000000000000015
 31
0.0
  0
LINE
  5
<<<<<<< HEAD:dxf/heatbed-insulator.dxf
B3
=======
A4
>>>>>>> dev-v1.1:dxf/tapered-nut.dxf
100
AcDbEntity
100
AcDbLine
  8
THICK
 62
256
370
-1
  6
ByLayer
 10
-5.7735026918962573
 20
0.0000000000000015
 30
0.0
 11
-5.5988307259844703
 21
-0.302540719617154
 31
0.0
  0
LINE
  5
<<<<<<< HEAD:dxf/heatbed-insulator.dxf
B4
=======
A5
>>>>>>> dev-v1.1:dxf/tapered-nut.dxf
100
AcDbEntity
100
AcDbLine
  8
THICK
 62
256
370
-1
  6
ByLayer
 10
-5.5988307259844703
 20
-0.302540719617154
 30
0.0
 11
-5.4229341652007301
 21
-0.6072024997712165
 31
0.0
  0
LINE
  5
<<<<<<< HEAD:dxf/heatbed-insulator.dxf
B5
=======
A6
>>>>>>> dev-v1.1:dxf/tapered-nut.dxf
100
AcDbEntity
100
AcDbLine
  8
THICK
 62
256
370
-1
  6
ByLayer
 10
-5.4229341652007301
 20
-0.6072024997712165
 30
0.0
 11
-5.2452188382647424
 21
-0.9150144753080637
 31
0.0
  0
LINE
  5
<<<<<<< HEAD:dxf/heatbed-insulator.dxf
B6
=======
A7
>>>>>>> dev-v1.1:dxf/tapered-nut.dxf
100
AcDbEntity
100
AcDbLine
  8
THICK
 62
256
370
-1
  6
ByLayer
 10
-5.2452188382647424
 20
-0.9150144753080637
 30
0.0
 11
-5.066352159483305
 21
-1.224820650738617
 31
0.0
  0
LINE
  5
<<<<<<< HEAD:dxf/heatbed-insulator.dxf
B7
=======
A8
>>>>>>> dev-v1.1:dxf/tapered-nut.dxf
100
AcDbEntity
100
AcDbLine
  8
THICK
 62
256
370
-1
  6
ByLayer
 10
-5.066352159483305
 20
-1.224820650738617
 30
0.0
 11
-4.8839455373637399
 21
-1.5407581878867194
 31
0.0
  0
LINE
  5
<<<<<<< HEAD:dxf/heatbed-insulator.dxf
B8
=======
A9
>>>>>>> dev-v1.1:dxf/tapered-nut.dxf
100
AcDbEntity
100
AcDbLine
  8
THICK
 62
256
370
-1
  6
ByLayer
 10
-4.8839455373637399
 20
-1.5407581878867194
 30
0.0
 11
-4.7006657799181575
 21
-1.8582080397813694
 31
0.0
  0
LINE
  5
<<<<<<< HEAD:dxf/heatbed-insulator.dxf
B9
=======
AA
>>>>>>> dev-v1.1:dxf/tapered-nut.dxf
100
AcDbEntity
100
AcDbLine
  8
THICK
 62
256
370
-1
  6
ByLayer
 10
-4.7006657799181575
 20
-1.8582080397813694
 30
0.0
 11
-4.5155615990550775
 21
-2.1788178857296443
 31
0.0
  0
LINE
  5
<<<<<<< HEAD:dxf/heatbed-insulator.dxf
BA
=======
AB
>>>>>>> dev-v1.1:dxf/tapered-nut.dxf
100
AcDbEntity
100
AcDbLine
  8
THICK
 62
256
370
-1
  6
ByLayer
 10
-4.5155615990550775
 20
-2.1788178857296443
 30
0.0
 11
-4.3301270189221954
 21
-2.4999999999999982
 31
0.0
  0
CIRCLE
  5
<<<<<<< HEAD:dxf/heatbed-insulator.dxf
BB
=======
AC
>>>>>>> dev-v1.1:dxf/tapered-nut.dxf
100
AcDbEntity
100
AcDbCircle
  8
THICK
 62
256
370
-1
  6
ByLayer
 10
0.0
 20
0.0000000000000003
 30
0.0
 40
2.5
  0
CIRCLE
  5
<<<<<<< HEAD:dxf/heatbed-insulator.dxf
BC
=======
AD
>>>>>>> dev-v1.1:dxf/tapered-nut.dxf
100
AcDbEntity
100
AcDbCircle
  8
THICK
 62
256
370
-1
  6
ByLayer
 10
0.0
 20
0.0000000000000003
 30
0.0
 40
1.9587500000000002
  0
LINE
  5
<<<<<<< HEAD:dxf/heatbed-insulator.dxf
BD
=======
AE
>>>>>>> dev-v1.1:dxf/tapered-nut.dxf
100
AcDbEntity
100
AcDbLine
  8
THICK
 62
256
370
-1
  6
ByLayer
 10
-2.8867513459481327
 20
-11.4465819873852048
 30
0.0
 11
-2.5235290687880525
 21
-11.3468327832093951
 31
0.0
  0
LINE
  5
<<<<<<< HEAD:dxf/heatbed-insulator.dxf
BE
=======
AF
>>>>>>> dev-v1.1:dxf/tapered-nut.dxf
100
AcDbEntity
100
AcDbLine
  8
THICK
 62
256
370
-1
  6
ByLayer
 10
-2.5235290687880525
 20
-11.3468327832093951
 30
0.0
 11
-2.1573717036788511
 21
-11.2572510219387105
 31
0.0
  0
LINE
  5
<<<<<<< HEAD:dxf/heatbed-insulator.dxf
BF
=======
B0
>>>>>>> dev-v1.1:dxf/tapered-nut.dxf
100
AcDbEntity
100
AcDbLine
  8
THICK
 62
256
370
-1
  6
ByLayer
 10
-2.1573717036788511
 20
-11.2572510219387105
 30
0.0
 11
-1.8046210257659028
 21
-11.1822885884244947
 31
0.0
  0
LINE
  5
<<<<<<< HEAD:dxf/heatbed-insulator.dxf
C0
=======
B1
>>>>>>> dev-v1.1:dxf/tapered-nut.dxf
100
AcDbEntity
100
AcDbLine
  8
THICK
 62
256
370
-1
  6
ByLayer
 10
-1.8046210257659028
 20
-11.1822885884244947
 30
0.0
 11
-1.4495238153529493
 21
-11.1188826570804231
 31
0.0
  0
LINE
  5
<<<<<<< HEAD:dxf/heatbed-insulator.dxf
C1
=======
B2
>>>>>>> dev-v1.1:dxf/tapered-nut.dxf
100
AcDbEntity
100
AcDbLine
  8
THICK
 62
256
370
-1
  6
ByLayer
 10
-1.4495238153529493
 20
-11.1188826570804231
 30
0.0
 11
-1.0925274973021954
 21
-11.0681099780602352
 31
0.0
  0
LINE
  5
<<<<<<< HEAD:dxf/heatbed-insulator.dxf
C2
=======
B3
>>>>>>> dev-v1.1:dxf/tapered-nut.dxf
100
AcDbEntity
100
AcDbLine
  8
THICK
 62
256
370
-1
  6
ByLayer
 10
-1.0925274973021954
 20
-11.0681099780602352
 30
0.0
 11
-0.7294123534204645
 21
-11.0306150485111409
 31
0.0
  0
LINE
  5
<<<<<<< HEAD:dxf/heatbed-insulator.dxf
C3
=======
B4
>>>>>>> dev-v1.1:dxf/tapered-nut.dxf
100
AcDbEntity
100
AcDbLine
  8
THICK
 62
256
370
-1
  6
ByLayer
 10
-0.7294123534204645
 20
-11.0306150485111409
 30
0.0
 11
-0.3649418417947998
 21
-11.0077397489155437
 31
0.0
  0
LINE
  5
<<<<<<< HEAD:dxf/heatbed-insulator.dxf
C4
=======
B5
>>>>>>> dev-v1.1:dxf/tapered-nut.dxf
100
AcDbEntity
100
AcDbLine
  8
THICK
 62
256
370
-1
  6
ByLayer
 10
-0.3649418417947998
 20
-11.0077397489155437
 30
0.0
 11
-0.000000000000003
 21
-11.0
 31
0.0
  0
LINE
  5
<<<<<<< HEAD:dxf/heatbed-insulator.dxf
C5
=======
B6
>>>>>>> dev-v1.1:dxf/tapered-nut.dxf
100
AcDbEntity
100
AcDbLine
  8
THICK
 62
256
370
-1
  6
ByLayer
 10
-0.000000000000003
 20
-11.0
 30
0.0
 11
0.1964310915917315
 21
-11.0022282659776689
 31
0.0
  0
LINE
  5
<<<<<<< HEAD:dxf/heatbed-insulator.dxf
C6
=======
B7
>>>>>>> dev-v1.1:dxf/tapered-nut.dxf
100
AcDbEntity
100
AcDbLine
  8
THICK
 62
256
370
-1
  6
ByLayer
 10
0.1964310915917315
 20
-11.0022282659776689
 30
0.0
 11
0.3927619500126783
 21
-11.0088926209659537
 31
0.0
  0
LINE
  5
<<<<<<< HEAD:dxf/heatbed-insulator.dxf
C7
=======
B8
>>>>>>> dev-v1.1:dxf/tapered-nut.dxf
100
AcDbEntity
100
AcDbLine
  8
THICK
 62
256
370
-1
  6
ByLayer
 10
0.3927619500126783
 20
-11.0088926209659537
 30
0.0
 11
0.5892890702227468
 21
-11.0199812752503412
 31
0.0
  0
LINE
  5
<<<<<<< HEAD:dxf/heatbed-insulator.dxf
C8
=======
B9
>>>>>>> dev-v1.1:dxf/tapered-nut.dxf
100
AcDbEntity
100
AcDbLine
  8
THICK
 62
256
370
-1
  6
ByLayer
 10
0.5892890702227468
 20
-11.0199812752503412
 30
0.0
 11
0.7855239000253598
 21
-11.0354081179592889
 31
0.0
  0
LINE
  5
<<<<<<< HEAD:dxf/heatbed-insulator.dxf
C9
=======
BA
>>>>>>> dev-v1.1:dxf/tapered-nut.dxf
100
AcDbEntity
100
AcDbLine
  8
THICK
 62
256
370
-1
  6
ByLayer
 10
0.7855239000253598
 20
-11.0354081179592889
 30
0.0
 11
1.1389927577185335
 21
-11.0739837627136328
 31
0.0
  0
LINE
  5
<<<<<<< HEAD:dxf/heatbed-insulator.dxf
CA
=======
BB
>>>>>>> dev-v1.1:dxf/tapered-nut.dxf
100
AcDbEntity
100
AcDbLine
  8
THICK
 62
256
370
-1
  6
ByLayer
 10
1.1389927577185335
 20
-11.0739837627136328
 30
0.0
 11
1.4909230625467906
 21
-11.1256330822826612
 31
0.0
  0
LINE
  5
<<<<<<< HEAD:dxf/heatbed-insulator.dxf
CB
=======
BC
>>>>>>> dev-v1.1:dxf/tapered-nut.dxf
100
AcDbEntity
100
AcDbLine
  8
THICK
 62
256
370
-1
  6
ByLayer
 10
1.4909230625467906
 20
-11.1256330822826612
 30
0.0
 11
1.8407594877819777
 21
-11.189414855232565
 31
0.0
  0
LINE
  5
<<<<<<< HEAD:dxf/heatbed-insulator.dxf
CC
=======
BD
>>>>>>> dev-v1.1:dxf/tapered-nut.dxf
100
AcDbEntity
100
AcDbLine
  8
THICK
 62
256
370
-1
  6
ByLayer
 10
1.8407594877819777
 20
-11.189414855232565
 30
0.0
 11
2.1917782254771909
 21
-11.2651735074813164
 31
0.0
  0
LINE
  5
<<<<<<< HEAD:dxf/heatbed-insulator.dxf
CD
=======
BE
>>>>>>> dev-v1.1:dxf/tapered-nut.dxf
100
AcDbEntity
100
AcDbLine
  8
THICK
 62
256
370
-1
  6
ByLayer
 10
2.1917782254771909
 20
-11.2651735074813164
 30
0.0
 11
2.5404989789630248
 21
-11.3512579496372012
 31
0.0
  0
LINE
  5
<<<<<<< HEAD:dxf/heatbed-insulator.dxf
CE
=======
BF
>>>>>>> dev-v1.1:dxf/tapered-nut.dxf
100
AcDbEntity
100
AcDbLine
  8
THICK
 62
256
370
-1
  6
ByLayer
 10
2.5404989789630248
 20
-11.3512579496372012
 30
0.0
 11
2.8867513459481224
 21
-11.4465819873852048
 31
0.0
  0
LINE
  5
<<<<<<< HEAD:dxf/heatbed-insulator.dxf
CF
=======
C0
>>>>>>> dev-v1.1:dxf/tapered-nut.dxf
100
AcDbEntity
100
AcDbLine
  8
THICK
 62
256
370
-1
  6
ByLayer
 10
4.3301270189221928
 20
-11.0
 30
0.0
 11
-0.000000000000003
 21
-11.0
 31
0.0
  0
LINE
  5
<<<<<<< HEAD:dxf/heatbed-insulator.dxf
D0
=======
C1
>>>>>>> dev-v1.1:dxf/tapered-nut.dxf
100
AcDbEntity
100
AcDbLine
  8
THICK
 62
256
370
-1
  6
ByLayer
 10
2.8867513459481224
 20
-11.4465819873852048
 30
0.0
 11
3.0616976133269524
 21
-11.3503137087560937
 31
0.0
  0
LINE
  5
<<<<<<< HEAD:dxf/heatbed-insulator.dxf
D1
=======
C2
>>>>>>> dev-v1.1:dxf/tapered-nut.dxf
100
AcDbEntity
100
AcDbLine
  8
THICK
 62
256
370
-1
  6
ByLayer
 10
3.0616976133269524
 20
-11.3503137087560937
 30
0.0
 11
3.2379515939741701
 21
-11.2634705154356496
 31
0.0
  0
LINE
  5
<<<<<<< HEAD:dxf/heatbed-insulator.dxf
D2
=======
C3
>>>>>>> dev-v1.1:dxf/tapered-nut.dxf
100
AcDbEntity
100
AcDbLine
  8
THICK
 62
256
370
-1
  6
ByLayer
 10
3.2379515939741701
 20
-11.2634705154356496
 30
0.0
 11
3.4153930837116047
 21
-11.1871809604054491
 31
0.0
  0
LINE
  5
<<<<<<< HEAD:dxf/heatbed-insulator.dxf
D3
=======
C4
>>>>>>> dev-v1.1:dxf/tapered-nut.dxf
100
AcDbEntity
100
AcDbLine
  8
THICK
 62
256
370
-1
  6
ByLayer
 10
3.4153930837116047
 20
-11.1871809604054491
 30
0.0
 11
3.5939018783610797
 21
-11.122573596647074
 31
0.0
  0
LINE
  5
<<<<<<< HEAD:dxf/heatbed-insulator.dxf
D4
=======
C5
>>>>>>> dev-v1.1:dxf/tapered-nut.dxf
100
AcDbEntity
100
AcDbLine
  8
THICK
 62
256
370
-1
  6
ByLayer
 10
3.5939018783610797
 20
-11.122573596647074
 30
0.0
 11
3.7401581796231973
 21
-11.0793820905865346
 31
0.0
  0
LINE
  5
<<<<<<< HEAD:dxf/heatbed-insulator.dxf
D5
=======
C6
>>>>>>> dev-v1.1:dxf/tapered-nut.dxf
100
AcDbEntity
100
AcDbLine
  8
THICK
 62
256
370
-1
  6
ByLayer
 10
3.7401581796231973
 20
-11.0793820905865346
 30
0.0
 11
3.8871268271899853
 21
-11.0451783571169049
 31
0.0
  0
LINE
  5
<<<<<<< HEAD:dxf/heatbed-insulator.dxf
D6
=======
C7
>>>>>>> dev-v1.1:dxf/tapered-nut.dxf
100
AcDbEntity
100
AcDbLine
  8
THICK
 62
256
370
-1
  6
ByLayer
 10
3.8871268271899853
 20
-11.0451783571169049
 30
0.0
 11
4.0345898381818248
 21
-11.0203130170128372
 31
0.0
  0
LINE
  5
<<<<<<< HEAD:dxf/heatbed-insulator.dxf
D7
=======
C8
>>>>>>> dev-v1.1:dxf/tapered-nut.dxf
100
AcDbEntity
100
AcDbLine
  8
THICK
 62
256
370
-1
  6
ByLayer
 10
4.0345898381818248
 20
-11.0203130170128372
 30
0.0
 11
4.1823292297190999
 21
-11.0051366910489818
 31
0.0
  0
LINE
  5
<<<<<<< HEAD:dxf/heatbed-insulator.dxf
D8
=======
C9
>>>>>>> dev-v1.1:dxf/tapered-nut.dxf
100
AcDbEntity
100
AcDbLine
  8
THICK
 62
256
370
-1
  6
ByLayer
 10
4.1823292297190999
 20
-11.0051366910489818
 30
0.0
 11
4.3301270189221928
 21
-11.0
 31
0.0
  0
LINE
  5
<<<<<<< HEAD:dxf/heatbed-insulator.dxf
D9
=======
CA
>>>>>>> dev-v1.1:dxf/tapered-nut.dxf
100
AcDbEntity
100
AcDbLine
  8
THICK
 62
256
370
-1
  6
ByLayer
 10
4.3301270189221928
 20
-11.0
 30
0.0
 11
4.432816163784282
 21
-11.0024342510607127
 31
0.0
  0
LINE
  5
<<<<<<< HEAD:dxf/heatbed-insulator.dxf
DA
=======
CB
>>>>>>> dev-v1.1:dxf/tapered-nut.dxf
100
AcDbEntity
100
AcDbLine
  8
THICK
 62
256
370
-1
  6
ByLayer
 10
4.432816163784282
 20
-11.0024342510607127
 30
0.0
 11
4.6013981029857298
 21
-11.0170291741658488
 31
0.0
  0
LINE
  5
<<<<<<< HEAD:dxf/heatbed-insulator.dxf
DB
=======
CC
>>>>>>> dev-v1.1:dxf/tapered-nut.dxf
100
AcDbEntity
100
AcDbLine
  8
THICK
 62
256
370
-1
  6
ByLayer
 10
4.6013981029857298
 20
-11.0170291741658488
 30
0.0
 11
4.7696965087828405
 21
-11.0444282088486503
 31
0.0
  0
LINE
  5
<<<<<<< HEAD:dxf/heatbed-insulator.dxf
DC
=======
CD
>>>>>>> dev-v1.1:dxf/tapered-nut.dxf
100
AcDbEntity
100
AcDbLine
  8
THICK
 62
256
370
-1
  6
ByLayer
 10
4.7696965087828405
 20
-11.0444282088486503
 30
0.0
 11
4.9374050303459578
 21
-11.0840257465096883
 31
0.0
  0
LINE
  5
<<<<<<< HEAD:dxf/heatbed-insulator.dxf
DD
=======
CE
>>>>>>> dev-v1.1:dxf/tapered-nut.dxf
100
AcDbEntity
100
AcDbLine
  8
THICK
 62
256
370
-1
  6
ByLayer
 10
4.9374050303459578
 20
-11.0840257465096883
 30
0.0
 11
5.1042173168454301
 21
-11.1352161785495305
 31
0.0
  0
LINE
  5
<<<<<<< HEAD:dxf/heatbed-insulator.dxf
DE
=======
CF
>>>>>>> dev-v1.1:dxf/tapered-nut.dxf
100
AcDbEntity
100
AcDbLine
  8
THICK
 62
256
370
-1
  6
ByLayer
 10
5.1042173168454301
 20
-11.1352161785495305
 30
0.0
 11
5.2730985511018424
 21
-11.1985323303756488
 31
0.0
  0
LINE
  5
<<<<<<< HEAD:dxf/heatbed-insulator.dxf
DF
=======
D0
>>>>>>> dev-v1.1:dxf/tapered-nut.dxf
100
AcDbEntity
100
AcDbLine
  8
THICK
 62
256
370
-1
  6
ByLayer
 10
5.2730985511018424
 20
-11.1985323303756488
 30
0.0
 11
5.4410040356964471
 21
-11.2721711688531396
 31
0.0
  0
LINE
  5
<<<<<<< HEAD:dxf/heatbed-insulator.dxf
E0
=======
D1
>>>>>>> dev-v1.1:dxf/tapered-nut.dxf
100
AcDbEntity
100
AcDbLine
  8
THICK
 62
256
370
-1
  6
ByLayer
 10
5.4410040356964471
 20
-11.2721711688531396
 30
0.0
 11
5.607837504628252
 21
-11.355173964387749
 31
0.0
  0
LINE
  5
<<<<<<< HEAD:dxf/heatbed-insulator.dxf
E1
=======
D2
>>>>>>> dev-v1.1:dxf/tapered-nut.dxf
100
AcDbEntity
100
AcDbLine
  8
THICK
 62
256
370
-1
  6
ByLayer
 10
5.607837504628252
 20
-11.355173964387749
 30
0.0
 11
5.7735026918962573
 21
-11.4465819873852048
 31
0.0
  0
LINE
  5
<<<<<<< HEAD:dxf/heatbed-insulator.dxf
E2
=======
D3
>>>>>>> dev-v1.1:dxf/tapered-nut.dxf
100
AcDbEntity
100
AcDbLine
  8
THICK
 62
256
370
-1
  6
ByLayer
 10
-4.3301270189221954
 20
-11.0
 30
0.0
 11
-4.2274378740601026
 21
-11.0024342510607127
 31
0.0
  0
LINE
  5
<<<<<<< HEAD:dxf/heatbed-insulator.dxf
E3
=======
D4
>>>>>>> dev-v1.1:dxf/tapered-nut.dxf
100
AcDbEntity
100
AcDbLine
  8
THICK
 62
256
370
-1
  6
ByLayer
 10
-4.2274378740601026
 20
-11.0024342510607127
 30
0.0
 11
-4.0588559348586548
 21
-11.0170291741658524
 31
0.0
  0
LINE
  5
<<<<<<< HEAD:dxf/heatbed-insulator.dxf
E4
=======
D5
>>>>>>> dev-v1.1:dxf/tapered-nut.dxf
100
AcDbEntity
100
AcDbLine
  8
THICK
 62
256
370
-1
  6
ByLayer
 10
-4.0588559348586548
 20
-11.0170291741658524
 30
0.0
 11
-3.8905575290615473
 21
-11.0444282088486556
 31
0.0
  0
LINE
  5
<<<<<<< HEAD:dxf/heatbed-insulator.dxf
E5
=======
D6
>>>>>>> dev-v1.1:dxf/tapered-nut.dxf
100
AcDbEntity
100
AcDbLine
  8
THICK
 62
256
370
-1
  6
ByLayer
 10
-3.8905575290615473
 20
-11.0444282088486556
 30
0.0
 11
-3.72284900749843
 21
-11.0840257465096936
 31
0.0
  0
LINE
  5
<<<<<<< HEAD:dxf/heatbed-insulator.dxf
E6
=======
D7
>>>>>>> dev-v1.1:dxf/tapered-nut.dxf
100
AcDbEntity
100
AcDbLine
  8
THICK
 62
256
370
-1
  6
ByLayer
 10
-3.72284900749843
 20
-11.0840257465096936
 30
0.0
 11
-3.5560367209989572
 21
-11.1352161785495323
 31
0.0
  0
LINE
  5
<<<<<<< HEAD:dxf/heatbed-insulator.dxf
E7
=======
D8
>>>>>>> dev-v1.1:dxf/tapered-nut.dxf
100
AcDbEntity
100
AcDbLine
  8
THICK
 62
256
370
-1
  6
ByLayer
 10
-3.5560367209989572
 20
-11.1352161785495323
 30
0.0
 11
-3.3871554867425475
 21
-11.1985323303756488
 31
0.0
  0
LINE
  5
<<<<<<< HEAD:dxf/heatbed-insulator.dxf
E8
=======
D9
>>>>>>> dev-v1.1:dxf/tapered-nut.dxf
100
AcDbEntity
100
AcDbLine
  8
THICK
 62
256
370
-1
  6
ByLayer
 10
-3.3871554867425475
 20
-11.1985323303756488
 30
0.0
 11
-3.2192500021479398
 21
-11.2721711688531396
 31
0.0
  0
LINE
  5
<<<<<<< HEAD:dxf/heatbed-insulator.dxf
E9
=======
DA
>>>>>>> dev-v1.1:dxf/tapered-nut.dxf
100
AcDbEntity
100
AcDbLine
  8
THICK
 62
256
370
-1
  6
ByLayer
 10
-3.2192500021479398
 20
-11.2721711688531396
 30
0.0
 11
-3.0524165332161353
 21
-11.355173964387749
 31
0.0
  0
LINE
  5
<<<<<<< HEAD:dxf/heatbed-insulator.dxf
EA
=======
DB
>>>>>>> dev-v1.1:dxf/tapered-nut.dxf
100
AcDbEntity
100
AcDbLine
  8
THICK
 62
256
370
-1
  6
ByLayer
 10
-3.0524165332161353
 20
-11.355173964387749
 30
0.0
 11
-2.8867513459481327
 21
-11.4465819873852048
 31
0.0
  0
LINE
  5
<<<<<<< HEAD:dxf/heatbed-insulator.dxf
EB
=======
DC
>>>>>>> dev-v1.1:dxf/tapered-nut.dxf
100
AcDbEntity
100
AcDbLine
  8
THICK
 62
256
370
-1
  6
ByLayer
 10
-0.000000000000003
 20
-11.0
 30
0.0
 11
-4.3301270189221954
 21
-11.0
 31
0.0
  0
LINE
  5
<<<<<<< HEAD:dxf/heatbed-insulator.dxf
EC
=======
DD
>>>>>>> dev-v1.1:dxf/tapered-nut.dxf
100
AcDbEntity
100
AcDbLine
  8
THICK
 62
256
370
-1
  6
ByLayer
 10
-5.7735026918962573
 20
-11.4465819873852048
 30
0.0
 11
-5.5985564245174322
 21
-11.3503137087560937
 31
0.0
  0
LINE
  5
<<<<<<< HEAD:dxf/heatbed-insulator.dxf
ED
=======
DE
>>>>>>> dev-v1.1:dxf/tapered-nut.dxf
100
AcDbEntity
100
AcDbLine
  8
THICK
 62
256
370
-1
  6
ByLayer
 10
-5.5985564245174322
 20
-11.3503137087560937
 30
0.0
 11
-5.4223024438702128
 21
-11.2634705154356496
 31
0.0
  0
LINE
  5
<<<<<<< HEAD:dxf/heatbed-insulator.dxf
EE
=======
DF
>>>>>>> dev-v1.1:dxf/tapered-nut.dxf
100
AcDbEntity
100
AcDbLine
  8
THICK
 62
256
370
-1
  6
ByLayer
 10
-5.4223024438702128
 20
-11.2634705154356496
 30
0.0
 11
-5.2448609541327773
 21
-11.1871809604054491
 31
0.0
  0
LINE
  5
<<<<<<< HEAD:dxf/heatbed-insulator.dxf
EF
=======
E0
>>>>>>> dev-v1.1:dxf/tapered-nut.dxf
100
AcDbEntity
100
AcDbLine
  8
THICK
 62
256
370
-1
  6
ByLayer
 10
-5.2448609541327773
 20
-11.1871809604054491
 30
0.0
 11
-5.066352159483305
 21
-11.122573596647074
 31
0.0
  0
LINE
  5
<<<<<<< HEAD:dxf/heatbed-insulator.dxf
F0
=======
E1
>>>>>>> dev-v1.1:dxf/tapered-nut.dxf
100
AcDbEntity
100
AcDbLine
  8
THICK
 62
256
370
-1
  6
ByLayer
 10
-5.066352159483305
 20
-11.122573596647074
 30
0.0
 11
-4.9200958582211873
 21
-11.0793820905865346
 31
0.0
  0
LINE
  5
<<<<<<< HEAD:dxf/heatbed-insulator.dxf
F1
=======
E2
>>>>>>> dev-v1.1:dxf/tapered-nut.dxf
100
AcDbEntity
100
AcDbLine
  8
THICK
 62
256
370
-1
  6
ByLayer
 10
-4.9200958582211873
 20
-11.0793820905865346
 30
0.0
 11
-4.7731272106543976
 21
-11.0451783571169049
 31
0.0
  0
LINE
  5
<<<<<<< HEAD:dxf/heatbed-insulator.dxf
F2
=======
E3
>>>>>>> dev-v1.1:dxf/tapered-nut.dxf
100
AcDbEntity
100
AcDbLine
  8
THICK
 62
256
370
-1
  6
ByLayer
 10
-4.7731272106543976
 20
-11.0451783571169049
 30
0.0
 11
-4.6256641996625607
 21
-11.0203130170128372
 31
0.0
  0
LINE
  5
<<<<<<< HEAD:dxf/heatbed-insulator.dxf
F3
=======
E4
>>>>>>> dev-v1.1:dxf/tapered-nut.dxf
100
AcDbEntity
100
AcDbLine
  8
THICK
 62
256
370
-1
  6
ByLayer
 10
-4.6256641996625607
 20
-11.0203130170128372
 30
0.0
 11
-4.4779248081252847
 21
-11.0051366910489854
 31
0.0
  0
LINE
  5
<<<<<<< HEAD:dxf/heatbed-insulator.dxf
F4
=======
E5
>>>>>>> dev-v1.1:dxf/tapered-nut.dxf
100
AcDbEntity
100
AcDbLine
  8
THICK
 62
256
370
-1
  6
ByLayer
 10
-4.4779248081252847
 20
-11.0051366910489854
 30
0.0
 11
-4.3301270189221954
 21
-11.0
 31
0.0
  0
LINE
  5
<<<<<<< HEAD:dxf/heatbed-insulator.dxf
F5
=======
E6
>>>>>>> dev-v1.1:dxf/tapered-nut.dxf
100
AcDbEntity
100
AcDbLine
  8
THICK
 62
256
370
-1
  6
ByLayer
 10
5.0
 20
-11.0
 30
0.0
 11
4.3301270189221928
 21
-11.0
 31
0.0
  0
LINE
  5
<<<<<<< HEAD:dxf/heatbed-insulator.dxf
F6
=======
E7
>>>>>>> dev-v1.1:dxf/tapered-nut.dxf
100
AcDbEntity
100
AcDbLine
  8
THICK
 62
256
370
-1
  6
ByLayer
 10
5.7735026918962573
 20
-11.4465819873852048
 30
0.0
 11
5.0
 21
-11.0
 31
0.0
  0
LINE
  5
<<<<<<< HEAD:dxf/heatbed-insulator.dxf
F7
=======
E8
>>>>>>> dev-v1.1:dxf/tapered-nut.dxf
100
AcDbEntity
100
AcDbLine
  8
THICK
 62
256
370
-1
  6
ByLayer
 10
-5.0
 20
-11.0
 30
0.0
 11
-5.7735026918962573
 21
-11.4465819873852048
 31
0.0
  0
LINE
  5
<<<<<<< HEAD:dxf/heatbed-insulator.dxf
F8
=======
E9
>>>>>>> dev-v1.1:dxf/tapered-nut.dxf
100
AcDbEntity
100
AcDbLine
  8
THICK
 62
256
370
-1
  6
ByLayer
 10
-4.3301270189221954
 20
-11.0
 30
0.0
 11
-5.0
 21
-11.0
 31
0.0
  0
LINE
  5
<<<<<<< HEAD:dxf/heatbed-insulator.dxf
F9
=======
EA
>>>>>>> dev-v1.1:dxf/tapered-nut.dxf
100
AcDbEntity
100
AcDbLine
  8
0
 62
256
370
-1
  6
ByLayer
 10
-2.5
 20
-15.0
 30
0.0
 11
-5.7735026918962573
 21
-13.0330811461588283
 31
0.0
  0
LINE
  5
<<<<<<< HEAD:dxf/heatbed-insulator.dxf
FA
=======
EB
>>>>>>> dev-v1.1:dxf/tapered-nut.dxf
100
AcDbEntity
100
AcDbLine
  8
0
 62
256
370
-1
  6
ByLayer
 10
2.5
 20
-15.0
 30
0.0
 11
5.7735026918962573
 21
-13.0330811461588283
 31
0.0
  0
LINE
  5
<<<<<<< HEAD:dxf/heatbed-insulator.dxf
FB
=======
EC
>>>>>>> dev-v1.1:dxf/tapered-nut.dxf
100
AcDbEntity
100
AcDbLine
  8
THICK
 62
256
370
-1
  6
ByLayer
 10
5.7735026918962573
 20
-11.4465819873852048
 30
0.0
 11
5.7735026918962573
 21
-13.0330811461588283
 31
0.0
  0
LINE
  5
<<<<<<< HEAD:dxf/heatbed-insulator.dxf
FC
=======
ED
>>>>>>> dev-v1.1:dxf/tapered-nut.dxf
100
AcDbEntity
100
AcDbLine
  8
THICK
 62
256
370
-1
  6
ByLayer
 10
-5.7735026918962573
 20
-11.4465819873852048
 30
0.0
 11
-5.7735026918962573
 21
-13.0330811461588283
 31
0.0
  0
LEADER
  5
<<<<<<< HEAD:dxf/heatbed-insulator.dxf
FD
100
AcDbEntity
100
AcDbLine
=======
EE
>>>>>>> dev-v1.1:dxf/tapered-nut.dxf
  8
0
 62
256
370
-1
  6
ByLayer
100
AcDbEntity
100
AcDbLeader
  3
Standard
 71
1
 72
0
 73
3
 74
0
 75
0
 40
1.0
 41
10.0
 76
3
 10
-2.3300116788532406
 20
0.9061156528873688
 10
-7.0
 20
7.0
 10
-19.0
 20
7.0
  0
MTEXT
  5
<<<<<<< HEAD:dxf/heatbed-insulator.dxf
FE
=======
EF
>>>>>>> dev-v1.1:dxf/tapered-nut.dxf
100
AcDbEntity
100
AcDbMText
  8
0
 62
256
370
-1
  6
ByLayer
 10
-19.0
 20
9.0
 30
0.0
 40
1.0
 41
100.0
 71
1
 72
0
  1
M5 THRO'
  7
normallatin1
 50
0.0
 73
1
 44
1.0
  0
DIMENSION
  5
<<<<<<< HEAD:dxf/heatbed-insulator.dxf
FF
=======
F0
>>>>>>> dev-v1.1:dxf/tapered-nut.dxf
100
AcDbEntity
  8
0
 62
256
370
-1
  6
ByLayer
100
AcDbDimension
 10
11.7352061590675572
 20
10.3259733048002129
 30
0.0
 11
8.0
 21
14.0
 31
0.0
 70
1
 71
5
 72
1
 41
1.0
 42
0.0
  1

  3
Standard
100
AcDbAlignedDimension
 13
-2.8867513459481273
 23
5.0
 33
0.0
 14
5.7735026918962573
 24
-0.0000000000000003
 34
0.0
  0
DIMENSION
  5
<<<<<<< HEAD:dxf/heatbed-insulator.dxf
100
=======
F1
>>>>>>> dev-v1.1:dxf/tapered-nut.dxf
100
AcDbEntity
  8
0
 62
256
370
-1
  6
ByLayer
100
AcDbDimension
 10
-13.338607399208005
 20
-10.9999999999999982
 30
0.0
 11
-14.713607399208005
 21
-12.9999999999999982
 31
0.0
 70
1
 71
5
 72
1
 41
1.0
 42
0.0
  1

  3
Standard
100
AcDbAlignedDimension
 13
-2.5
 23
-15.0
 33
0.0
 14
-2.5
 24
-11.0
 34
0.0
  0
LINE
  5
<<<<<<< HEAD:dxf/heatbed-insulator.dxf
101
=======
F2
>>>>>>> dev-v1.1:dxf/tapered-nut.dxf
100
AcDbEntity
100
AcDbLine
  8
dimensions
 62
256
370
0
  6
CONTINUOUS
 10
34.5
 20
-13.7800378429524386
 30
0.0
 11
60.0
 21
-13.7800378429524386
 31
0.0
  0
LINE
  5
<<<<<<< HEAD:dxf/heatbed-insulator.dxf
102
=======
F3
>>>>>>> dev-v1.1:dxf/tapered-nut.dxf
100
AcDbEntity
100
AcDbLine
  8
dimensions
 62
256
370
0
  6
CONTINUOUS
 10
60.0
 20
-13.7800378429524386
 30
0.0
 11
60.0
 21
-22.2800378429524386
 31
0.0
  0
LINE
  5
<<<<<<< HEAD:dxf/heatbed-insulator.dxf
103
=======
F4
>>>>>>> dev-v1.1:dxf/tapered-nut.dxf
100
AcDbEntity
100
AcDbLine
  8
dimensions
 62
256
370
0
  6
CONTINUOUS
 10
60.0
 20
-22.2800378429524386
 30
0.0
 11
34.5
 21
-22.2800378429524386
 31
0.0
  0
LINE
  5
<<<<<<< HEAD:dxf/heatbed-insulator.dxf
104
=======
F5
>>>>>>> dev-v1.1:dxf/tapered-nut.dxf
100
AcDbEntity
100
AcDbLine
  8
dimensions
 62
256
370
0
  6
CONTINUOUS
 10
34.5
 20
-22.2800378429524386
 30
0.0
 11
34.5
 21
-13.7800378429524386
 31
0.0
  0
LINE
  5
<<<<<<< HEAD:dxf/heatbed-insulator.dxf
105
=======
F6
>>>>>>> dev-v1.1:dxf/tapered-nut.dxf
100
AcDbEntity
100
AcDbLine
  8
dimensions
 62
256
370
0
  6
CONTINUOUS
 10
34.5
 20
-16.2800378429524386
 30
0.0
 11
60.0
 21
-16.2800378429524386
 31
0.0
  0
LINE
  5
<<<<<<< HEAD:dxf/heatbed-insulator.dxf
106
=======
F7
>>>>>>> dev-v1.1:dxf/tapered-nut.dxf
100
AcDbEntity
100
AcDbLine
  8
centreline
 62
256
370
-1
  6
ByLayer
 10
34.5
 20
-22.2800378429524386
 30
0.0
 11
60.0
 21
-22.2800378429524386
 31
0.0
  0
LINE
  5
<<<<<<< HEAD:dxf/heatbed-insulator.dxf
107
=======
F8
>>>>>>> dev-v1.1:dxf/tapered-nut.dxf
100
AcDbEntity
100
AcDbLine
  8
0
 62
256
370
-1
  6
ByLayer
 10
60.0
 20
-22.2800378429524386
 30
0.0
 11
60.0
 21
-26.1400189214762264
 31
0.0
  0
LINE
  5
<<<<<<< HEAD:dxf/heatbed-insulator.dxf
108
=======
F9
>>>>>>> dev-v1.1:dxf/tapered-nut.dxf
100
AcDbEntity
100
AcDbLine
  8
0
 62
256
370
-1
  6
ByLayer
 10
60.0
 20
-26.1400189214762264
 30
0.0
 11
34.5
 21
-26.1400189214762264
 31
0.0
  0
LINE
  5
<<<<<<< HEAD:dxf/heatbed-insulator.dxf
109
=======
FA
>>>>>>> dev-v1.1:dxf/tapered-nut.dxf
100
AcDbEntity
100
AcDbLine
  8
0
 62
256
370
0
  6
CONTINUOUS
 10
60.0
 20
-26.1400189214762264
 30
0.0
 11
34.5
 21
-26.1400189214762264
 31
0.0
  0
LINE
  5
<<<<<<< HEAD:dxf/heatbed-insulator.dxf
10A
=======
FB
>>>>>>> dev-v1.1:dxf/tapered-nut.dxf
100
AcDbEntity
100
AcDbLine
  8
0
 62
256
370
-1
  6
ByLayer
 10
34.5
 20
-26.1400189214762264
 30
0.0
 11
60.0
 21
-26.1400189214762264
 31
0.0
  0
LINE
  5
<<<<<<< HEAD:dxf/heatbed-insulator.dxf
10B
=======
FC
>>>>>>> dev-v1.1:dxf/tapered-nut.dxf
100
AcDbEntity
100
AcDbLine
  8
0
 62
256
370
-1
  6
ByLayer
 10
60.0
 20
-26.1400189214762264
 30
0.0
 11
60.0
 21
-30.0
 31
0.0
  0
LINE
  5
<<<<<<< HEAD:dxf/heatbed-insulator.dxf
10C
=======
FD
>>>>>>> dev-v1.1:dxf/tapered-nut.dxf
100
AcDbEntity
100
AcDbLine
  8
0
 62
256
370
-1
  6
ByLayer
 10
60.0
 20
-30.0
 30
0.0
 11
34.5
 21
-30.0
 31
0.0
  0
LINE
  5
<<<<<<< HEAD:dxf/heatbed-insulator.dxf
10D
=======
FE
>>>>>>> dev-v1.1:dxf/tapered-nut.dxf
100
AcDbEntity
100
AcDbLine
  8
0
 62
256
370
-1
  6
ByLayer
 10
34.5
 20
-26.1400189214762264
 30
0.0
 11
34.5
 21
-22.2800378429524386
 31
0.0
  0
LINE
  5
<<<<<<< HEAD:dxf/heatbed-insulator.dxf
10E
=======
FF
>>>>>>> dev-v1.1:dxf/tapered-nut.dxf
100
AcDbEntity
100
AcDbLine
  8
0
 62
256
370
-1
  6
ByLayer
 10
34.5
 20
-30.0
 30
0.0
 11
34.5
 21
-26.1400189214762264
 31
0.0
  0
LINE
  5
<<<<<<< HEAD:dxf/heatbed-insulator.dxf
10F
=======
100
>>>>>>> dev-v1.1:dxf/tapered-nut.dxf
100
AcDbEntity
100
AcDbLine
  8
dimensions
 62
256
370
-1
  6
ByLayer
 10
60.0
 20
-30.0
 30
0.0
 11
-53.4521249110639189
 21
-30.0
 31
0.0
  0
LINE
  5
<<<<<<< HEAD:dxf/heatbed-insulator.dxf
110
=======
101
>>>>>>> dev-v1.1:dxf/tapered-nut.dxf
100
AcDbEntity
100
AcDbLine
  8
dimensions
 62
256
370
-1
  6
ByLayer
 10
-53.4521249110639189
 20
-30.0
 30
0.0
 11
-53.4521249110639189
 21
33.225370932508568
 31
0.0
  0
LINE
  5
<<<<<<< HEAD:dxf/heatbed-insulator.dxf
111
=======
102
>>>>>>> dev-v1.1:dxf/tapered-nut.dxf
100
AcDbEntity
100
AcDbLine
  8
dimensions
 62
256
370
-1
  6
ByLayer
 10
-53.4521249110639189
 20
33.225370932508568
 30
0.0
 11
60.0
 21
33.225370932508568
 31
0.0
  0
LINE
  5
<<<<<<< HEAD:dxf/heatbed-insulator.dxf
112
=======
103
>>>>>>> dev-v1.1:dxf/tapered-nut.dxf
100
AcDbEntity
100
AcDbLine
  8
dimensions
 62
256
370
-1
  6
ByLayer
 10
60.0
 20
33.225370932508568
 30
0.0
 11
60.0
 21
-30.0
 31
0.0
  0
MTEXT
  5
<<<<<<< HEAD:dxf/heatbed-insulator.dxf
113
=======
104
>>>>>>> dev-v1.1:dxf/tapered-nut.dxf
100
AcDbEntity
100
AcDbMText
  8
dimensions
 62
256
370
-1
  6
ByLayer
 10
52.417619664899135
 20
-14.3639232703878257
 30
0.0
 40
1.0
 41
100.0
 71
1
 72
2
  1
Rev 1.0
  7
iso
 50
0.0
 73
1
 44
1.0
  0
LINE
  5
<<<<<<< HEAD:dxf/heatbed-insulator.dxf
114
=======
105
>>>>>>> dev-v1.1:dxf/tapered-nut.dxf
100
AcDbEntity
100
AcDbLine
  8
dimensions
 62
256
370
-1
  6
ByLayer
 10
34.5
 20
-26.1400189214762264
 30
0.0
 11
4.9660010681298274
 21
-26.1400189214762264
 31
0.0
  0
LINE
  5
<<<<<<< HEAD:dxf/heatbed-insulator.dxf
115
=======
106
>>>>>>> dev-v1.1:dxf/tapered-nut.dxf
100
AcDbEntity
100
AcDbLine
  8
dimensions
 62
256
370
-1
  6
ByLayer
 10
4.9660010681298274
 20
-26.1400189214762264
 30
0.0
 11
4.9660010681298274
 21
-30.0
 31
0.0
  0
LINE
  5
<<<<<<< HEAD:dxf/heatbed-insulator.dxf
116
=======
107
>>>>>>> dev-v1.1:dxf/tapered-nut.dxf
100
AcDbEntity
100
AcDbLine
  8
dimensions
 62
256
370
-1
  6
ByLayer
 10
21.9651523456538058
 20
-26.1400189214762264
 30
0.0
 11
21.9651523456538058
 21
-30.0
 31
0.0
  0
MTEXT
  5
<<<<<<< HEAD:dxf/heatbed-insulator.dxf
117
=======
108
>>>>>>> dev-v1.1:dxf/tapered-nut.dxf
100
AcDbEntity
100
AcDbMText
  8
dimensions
 62
256
370
-1
  6
ByLayer
 10
6.7910633218517233
 20
-27.6608054046473626
 30
0.0
 40
1.0
 41
100.0
 71
1
 72
2
  1
Drawn:    Jan-13        Author JMG
  7
iso
 50
0.0
 73
1
 44
1.0
  0
DIMENSION
  5
<<<<<<< HEAD:dxf/heatbed-insulator.dxf
118
=======
109
>>>>>>> dev-v1.1:dxf/tapered-nut.dxf
100
AcDbEntity
  8
0
 62
256
370
-1
  6
ByLayer
100
AcDbDimension
 10
5.7735026918962573
 20
-13.0330811461588283
 30
0.0
 11
0.0
 21
0.0
 31
0.0
 70
2
 71
5
 72
1
 41
1.0
 42
0.0
  1

  3
Standard
100
AcDb2LineAngularDimension
 13
-2.5
 23
-15.0
 33
0.0
 14
-5.7735026918962573
 24
-13.0330811461588283
 34
0.0
 15
2.5
 25
-15.0
 35
0.0
 16
-3.0
 26
21.0
 36
0.0
  0
MTEXT
  5
<<<<<<< HEAD:dxf/heatbed-insulator.dxf
119
=======
10A
>>>>>>> dev-v1.1:dxf/tapered-nut.dxf
100
AcDbEntity
100
AcDbMText
  8
0
 62
256
370
-1
  6
ByLayer
 10
36.8660034777557684
 20
-14.3461940942088226
 30
0.0
 40
1.0
 41
200.0
 71
1
 72
2
  1
RepRapPro Ltd\P\PTapered nut\P\PMaterial: Brass\P\PAll Dimensions mm u.o.s.\P\PTolerance %%p0.25 u.o.s.
  7
iso
 50
0.0
 73
0
 44
1.0
  0
DIMENSION
  5
<<<<<<< HEAD:dxf/heatbed-insulator.dxf
11A
=======
10B
>>>>>>> dev-v1.1:dxf/tapered-nut.dxf
100
AcDbEntity
  8
0
 62
256
370
-1
  6
ByLayer
100
AcDbDimension
 10
2.4999999999999996
 20
-23.3874949011804816
 30
0.0
 11
-0.0000000000000012
 21
-22.0124949011804816
 31
0.0
 70
1
 71
5
 72
1
 41
1.0
 42
0.0
  1

  3
Standard
100
AcDbAlignedDimension
 13
-2.5
 23
-15.0
 33
0.0
 14
2.5
 24
-15.0
 34
0.0
  0
DIMENSION
  5
<<<<<<< HEAD:dxf/heatbed-insulator.dxf
11B
=======
10C
>>>>>>> dev-v1.1:dxf/tapered-nut.dxf
100
AcDbEntity
  8
0
 62
256
370
-1
  6
ByLayer
100
AcDbDimension
 10
4.3301270189221928
 20
-11.0
 30
0.0
 11
0.0
 21
0.0
 31
0.0
 70
2
 71
5
 72
1
 41
1.0
 42
0.0
  1

  3
Standard
100
AcDb2LineAngularDimension
 13
5.0
 23
-11.0
 33
0.0
 14
5.7735026918962573
 24
-11.4465819873852048
 34
0.0
 15
5.0
 25
-11.0
 35
0.0
 16
17.6874604703562994
 26
-11.9473789592218029
 36
0.0
  0
DIMENSION
  5
<<<<<<< HEAD:dxf/heatbed-insulator.dxf
11C
=======
10D
>>>>>>> dev-v1.1:dxf/tapered-nut.dxf
100
AcDbEntity
  8
0
 62
256
370
-1
  6
ByLayer
100
AcDbDimension
 10
5.7735026918962573
 20
-7.9026238478874813
 30
0.0
 11
5.3867513459481291
 21
-6.5276238478874813
 31
0.0
 70
0
 71
5
 72
1
 41
1.0
 42
0.0
  1
0.75
  3
Standard
100
AcDbAlignedDimension
 13
5.0
 23
-11.0
 33
0.0
 14
5.7735026918962573
 24
-11.4465819873852048
 34
0.0
 50
0.0
100
AcDbRotatedDimension
  0
LINE
  5
<<<<<<< HEAD:dxf/heatbed-insulator.dxf
11D
=======
10E
>>>>>>> dev-v1.1:dxf/tapered-nut.dxf
100
AcDbEntity
100
AcDbLine
  8
0
 62
256
370
-1
  6
ByLayer
 10
-2.5
 20
-15.0
 30
0.0
 11
2.5
 21
-15.0
 31
0.0
  0
LINE
  5
<<<<<<< HEAD:dxf/heatbed-insulator.dxf
11E
=======
10F
>>>>>>> dev-v1.1:dxf/tapered-nut.dxf
100
AcDbEntity
100
AcDbLine
  8
THICK
 62
256
370
-1
  6
ByLayer
 10
-2.8867513459481327
 20
-11.4465819873852048
 30
0.0
 11
-2.8867513459481327
 21
-14.7676163468638624
 31
0.0
  0
LINE
  5
<<<<<<< HEAD:dxf/heatbed-insulator.dxf
11F
=======
110
>>>>>>> dev-v1.1:dxf/tapered-nut.dxf
100
AcDbEntity
100
AcDbLine
  8
THICK
 62
256
370
-1
  6
ByLayer
 10
2.8867513459481224
 20
-11.4465819873852048
 30
0.0
<<<<<<< HEAD:dxf/heatbed-insulator.dxf
 40
1.5
  0
CIRCLE
  5
120
100
AcDbEntity
100
AcDbCircle
  8
0
 62
256
370
-1
  6
CONTINUOUS
 10
0.9999999999999974
 20
33.0
 30
=======
 11
2.8867513459481224
 21
-14.7676163468638677
 31
>>>>>>> dev-v1.1:dxf/tapered-nut.dxf
0.0
  0
ARC
  5
121
100
AcDbEntity
  8
0
 62
256
370
-1
  6
ByLayer
100
AcDbCircle
 10
12.4999999999999929
 20
82.5
 30
0.0
 40
7.4999999999999991
100
AcDbArc
 50
0.0
 51
180.0
  0
LINE
  5
122
100
AcDbEntity
100
AcDbLine
  8
0
 62
256
370
-1
  6
ByLayer
 10
20.0
 20
82.5
 30
0.0
 11
20.0
 21
51.5
 31
0.0
  0
ARC
  5
123
100
AcDbEntity
  8
0
 62
256
370
-1
  6
ByLayer
100
AcDbCircle
 10
12.4999999999999876
 20
51.5
 30
0.0
 40
7.5
100
AcDbArc
 50
180.0
 51
0.0
  0
LINE
  5
124
100
AcDbEntity
100
AcDbLine
  8
0
 62
256
370
-1
  6
CONTINUOUS
 10
4.9999999999999938
 20
82.5
 30
0.0
 11
4.9999999999999885
 21
51.5
 31
0.0
  0
ENDSEC
  0
SECTION
  2
OBJECTS
  0
DICTIONARY
  5
C
100
AcDbDictionary
280
0
281
1
  3
ACAD_GROUP
350
D
  3
ACAD_LAYOUT
350
1A
  3
ACAD_MLINESTYLE
350
17
  3
ACAD_PLOTSETTINGS
350
19
  3
ACAD_PLOTSTYLENAME
350
E
  3
AcDbVariableDictionary
350
111
  0
DICTIONARY
  5
D
100
AcDbDictionary
280
0
281
1
  0
ACDBDICTIONARYWDFLT
  5
E
100
AcDbDictionary
281
1
  3
Normal
350
F
100
AcDbDictionaryWithDefault
340
F
  0
ACDBPLACEHOLDER
  5
F
  0
DICTIONARY
  5
17
100
AcDbDictionary
280
0
281
1
  3
Standard
350
18
  0
MLINESTYLE
  5
18
100
AcDbMlineStyle
  2
STANDARD
 70
0
  3

 62
256
 51
90.0
 52
90.0
 71
2
 49
0.5
 62
256
  6
BYLAYER
 49
-0.5
 62
256
  6
BYLAYER
  0
DICTIONARY
  5
19
100
AcDbDictionary
280
0
281
1
  0
DICTIONARY
  5
1A
100
AcDbDictionary
281
1
  3
Layout1
350
1E
  3
Layout2
350
26
  3
Model
350
22
  0
LAYOUT
  5
1E
100
AcDbPlotSettings
  1

  2
C:\Program Files\AutoCAD 2002\plotters\DWF ePlot (optimized for plotting).pc3
  4

  6

 40
0.0
 41
0.0
 42
0.0
 43
0.0
 44
0.0
 45
0.0
 46
0.0
 47
0.0
 48
0.0
 49
0.0
140
0.0
141
0.0
142
1.0
143
1.0
 70
688
 72
0
 73
0
 74
5
  7

 75
16
147
1.0
148
0.0
149
0.0
100
AcDbLayout
  1
Layout1
 70
1
 71
1
 10
0.0
 20
0.0
 11
420.0
 21
297.0
 12
0.0
 22
0.0
 32
0.0
 14
100000000000000000000.0
 24
100000000000000000000.0
 34
100000000000000000000.0
 15
-100000000000000000000.0
 25
-100000000000000000000.0
 35
-100000000000000000000.0
146
0.0
 13
0.0
 23
0.0
 33
0.0
 16
1.0
 26
0.0
 36
0.0
 17
0.0
 27
1.0
 37
0.0
 76
0
330
1B
  0
LAYOUT
  5
22
100
AcDbPlotSettings
  1

  2
C:\Program Files\AutoCAD 2002\plotters\DWF ePlot (optimized for plotting).pc3
  4

  6

 40
0.0
 41
0.0
 42
0.0
 43
0.0
 44
0.0
 45
0.0
 46
0.0
 47
0.0
 48
0.0
 49
0.0
140
0.0
141
0.0
142
1.0
143
1.0
 70
1712
 72
0
 73
0
 74
0
  7

 75
0
147
1.0
148
0.0
149
0.0
100
AcDbLayout
  1
Model
 70
1
 71
0
 10
0.0
 20
0.0
 11
12.0
 21
9.0
 12
0.0
 22
0.0
 32
0.0
 14
0.0
 24
0.0
 34
0.0
 15
0.0
 25
0.0
 35
0.0
146
0.0
 13
0.0
 23
0.0
 33
0.0
 16
1.0
 26
0.0
 36
0.0
 17
0.0
 27
1.0
 37
0.0
 76
0
330
1F
  0
LAYOUT
  5
26
100
AcDbPlotSettings
  1

  2
C:\Program Files\AutoCAD 2002\plotters\DWF ePlot (optimized for plotting).pc3
  4

  6

 40
0.0
 41
0.0
 42
0.0
 43
0.0
 44
0.0
 45
0.0
 46
0.0
 47
0.0
 48
0.0
 49
0.0
140
0.0
141
0.0
142
1.0
143
1.0
 70
688
 72
0
 73
0
 74
5
  7

 75
16
147
1.0
148
0.0
149
0.0
100
AcDbLayout
  1
Layout2
 70
1
 71
2
 10
0.0
 20
0.0
 11
12.0
 21
9.0
 12
0.0
 22
0.0
 32
0.0
 14
0.0
 24
0.0
 34
0.0
 15
0.0
 25
0.0
 35
0.0
146
0.0
 13
0.0
 23
0.0
 33
0.0
 16
1.0
 26
0.0
 36
0.0
 17
0.0
 27
1.0
 37
0.0
 76
0
330
23
  0
DICTIONARY
  5
111
100
AcDbDictionary
281
1
  3
DIMASSOC
350
113
  3
HIDETEXT
350
112
  0
DICTIONARYVAR
  5
112
100
DictionaryVariables
280
0
  1
2
  0
DICTIONARYVAR
  5
113
100
DictionaryVariables
280
0
  1
1
  0
ENDSEC
  0
EOF
