solid OpenSCAD_Model
  facet normal -1 0 0
    outer loop
      vertex 0 0 6
      vertex 0 20 6
      vertex 0 0 3
    endloop
  endfacet
  facet normal -1 -0 0
    outer loop
      vertex 0 0 3
      vertex 0 20 6
      vertex 0 20 3
    endloop
  endfacet
  facet normal 0 0 1
    outer loop
      vertex 0 0 6
      vertex 20 0 6
      vertex 20 20 6
    endloop
  endfacet
  facet normal 0 -0 1
    outer loop
      vertex 0 20 6
      vertex 0 0 6
      vertex 20 20 6
    endloop
  endfacet
  facet normal -0 -1 0
    outer loop
      vertex 0 0 3
      vertex 20 0 3
      vertex 20 0 6
    endloop
  endfacet
  facet normal 0 -1 0
    outer loop
      vertex 0 0 6
      vertex 0 0 3
      vertex 20 0 6
    endloop
  endfacet
  facet normal 0 0 -1
    outer loop
      vertex 0 20 3
      vertex 20 20 3
      vertex 0 0 3
    endloop
  endfacet
  facet normal -0 0 -1
    outer loop
      vertex 0 0 3
      vertex 20 20 3
      vertex 20 0 3
    endloop
  endfacet
  facet normal 0 1 -0
    outer loop
      vertex 0 20 6
      vertex 20 20 6
      vertex 0 20 3
    endloop
  endfacet
  facet normal 0 1 0
    outer loop
      vertex 0 20 3
      vertex 20 20 6
      vertex 20 20 3
    endloop
  endfacet
  facet normal 1 0 0
    outer loop
      vertex 20 0 3
      vertex 20 20 3
      vertex 20 20 6
    endloop
  endfacet
  facet normal 1 0 -0
    outer loop
      vertex 20 0 6
      vertex 20 0 3
      vertex 20 20 6
    endloop
  endfacet
endsolid OpenSCAD_Model
