solid OpenSCAD_Model
  facet normal -1 -0 -0
    outer loop
      vertex -15 -15 0
      vertex -15 -15 2
      vertex -15 -2.5 0
    endloop
  endfacet
  facet normal -1 0 0
    outer loop
      vertex -15 -2.5 0
      vertex -15 -15 2
      vertex -15 -2.5 2
    endloop
  endfacet
  facet normal 0 -1 0
    outer loop
      vertex -15 -15 2
      vertex -15 -15 0
      vertex -2.5 -15 0
    endloop
  endfacet
  facet normal 0 -1 0
    outer loop
      vertex -2.5 -15 2
      vertex -15 -15 2
      vertex -2.5 -15 0
    endloop
  endfacet
  facet normal -0 -0 -1
    outer loop
      vertex -15 -15 0
      vertex -15 -2.5 0
      vertex -2.5 -15 0
    endloop
  endfacet
  facet normal 0 0 -1
    outer loop
      vertex -9.13546 -4.06737 0
      vertex -15 -2.5 0
      vertex -9.64472 -2.5 0
    endloop
  endfacet
  facet normal 0 0 -1
    outer loop
      vertex -8.09017 -5.87785 0
      vertex -15 -2.5 0
      vertex -9.13546 -4.06737 0
    endloop
  endfacet
  facet normal 0 0 -1
    outer loop
      vertex -2.5 -15 0
      vertex -15 -2.5 0
      vertex -8.09017 -5.87785 0
    endloop
  endfacet
  facet normal 0 0 -1
    outer loop
      vertex -2.5 -15 0
      vertex -6.69131 -7.43145 0
      vertex -5 -8.66025 0
    endloop
  endfacet
  facet normal 0 0 -1
    outer loop
      vertex -5 -8.66025 0
      vertex -3.09017 -9.51056 0
      vertex -2.5 -15 0
    endloop
  endfacet
  facet normal 0 0 -1
    outer loop
      vertex -3.09017 -9.51056 0
      vertex -2.5 -9.63601 0
      vertex -2.5 -15 0
    endloop
  endfacet
  facet normal 0 0 -1
    outer loop
      vertex -6.69131 -7.43145 0
      vertex -2.5 -15 0
      vertex -8.09017 -5.87785 0
    endloop
  endfacet
  facet normal 0 1 0
    outer loop
      vertex -15 -2.5 0
      vertex -15 -2.5 2
      vertex -9.64472 -2.5 0
    endloop
  endfacet
  facet normal 0 1 0
    outer loop
      vertex -9.64472 -2.5 0
      vertex -15 -2.5 2
      vertex -9.64472 -2.5 2
    endloop
  endfacet
  facet normal 0 -0 1
    outer loop
      vertex -15 -2.5 2
      vertex -15 -15 2
      vertex -2.5 -15 2
    endloop
  endfacet
  facet normal -0 -0 1
    outer loop
      vertex -5 -8.66025 2
      vertex -15 -2.5 2
      vertex -2.5 -15 2
    endloop
  endfacet
  facet normal -0 0 1
    outer loop
      vertex -2.5 -9.63601 2
      vertex -3.09017 -9.51056 2
      vertex -2.5 -15 2
    endloop
  endfacet
  facet normal -0 -0 1
    outer loop
      vertex -3.09017 -9.51056 2
      vertex -5 -8.66025 2
      vertex -2.5 -15 2
    endloop
  endfacet
  facet normal -0 -0 1
    outer loop
      vertex -6.69131 -7.43145 2
      vertex -15 -2.5 2
      vertex -5 -8.66025 2
    endloop
  endfacet
  facet normal -0 -0 1
    outer loop
      vertex -9.13546 -4.06737 2
      vertex -15 -2.5 2
      vertex -8.09017 -5.87785 2
    endloop
  endfacet
  facet normal 0 -0 1
    outer loop
      vertex -9.64472 -2.5 2
      vertex -15 -2.5 2
      vertex -9.13546 -4.06737 2
    endloop
  endfacet
  facet normal 0 0 1
    outer loop
      vertex -6.69131 -7.43145 2
      vertex -8.09017 -5.87785 2
      vertex -15 -2.5 2
    endloop
  endfacet
  facet normal 1 0 -0
    outer loop
      vertex -2.5 -15 2
      vertex -2.5 -15 0
      vertex -2.5 -9.63601 0
    endloop
  endfacet
  facet normal 1 0 0
    outer loop
      vertex -2.5 -9.63601 2
      vertex -2.5 -15 2
      vertex -2.5 -9.63601 0
    endloop
  endfacet
  facet normal 0.207912 0.978148 -0
    outer loop
      vertex -2.5 -9.63601 2
      vertex -2.5 -9.63601 0
      vertex -3.09017 -9.51056 2
    endloop
  endfacet
  facet normal 0.207912 0.978148 -0
    outer loop
      vertex -3.09017 -9.51056 2
      vertex -2.5 -9.63601 0
      vertex -3.09017 -9.51056 0
    endloop
  endfacet
  facet normal 0.406737 0.913545 -0
    outer loop
      vertex -3.09017 -9.51056 2
      vertex -3.09017 -9.51056 0
      vertex -5 -8.66025 2
    endloop
  endfacet
  facet normal 0.406737 0.913545 -0
    outer loop
      vertex -5 -8.66025 2
      vertex -3.09017 -9.51056 0
      vertex -5 -8.66025 0
    endloop
  endfacet
  facet normal 0.587785 0.809017 -0
    outer loop
      vertex -5 -8.66025 2
      vertex -5 -8.66025 0
      vertex -6.69131 -7.43145 2
    endloop
  endfacet
  facet normal 0.587785 0.809017 -0
    outer loop
      vertex -6.69131 -7.43145 2
      vertex -5 -8.66025 0
      vertex -6.69131 -7.43145 0
    endloop
  endfacet
  facet normal 0.743145 0.669131 0
    outer loop
      vertex -8.09017 -5.87785 2
      vertex -6.69131 -7.43145 2
      vertex -6.69131 -7.43145 0
    endloop
  endfacet
  facet normal 0.743145 0.669131 0
    outer loop
      vertex -8.09017 -5.87785 0
      vertex -8.09017 -5.87785 2
      vertex -6.69131 -7.43145 0
    endloop
  endfacet
  facet normal 0.866025 0.5 0
    outer loop
      vertex -9.13546 -4.06737 2
      vertex -8.09017 -5.87785 2
      vertex -8.09017 -5.87785 0
    endloop
  endfacet
  facet normal 0.866025 0.5 0
    outer loop
      vertex -9.13546 -4.06737 0
      vertex -9.13546 -4.06737 2
      vertex -8.09017 -5.87785 0
    endloop
  endfacet
  facet normal 0.951057 0.309017 0
    outer loop
      vertex -9.64472 -2.5 2
      vertex -9.13546 -4.06737 2
      vertex -9.13546 -4.06737 0
    endloop
  endfacet
  facet normal 0.951057 0.309017 0
    outer loop
      vertex -9.64472 -2.5 0
      vertex -9.64472 -2.5 2
      vertex -9.13546 -4.06737 0
    endloop
  endfacet
  facet normal -1 -0 -0
    outer loop
      vertex 2.5 -15 0
      vertex 2.5 -15 2
      vertex 2.5 -9.63601 0
    endloop
  endfacet
  facet normal -1 0 0
    outer loop
      vertex 2.5 -9.63601 0
      vertex 2.5 -15 2
      vertex 2.5 -9.63601 2
    endloop
  endfacet
  facet normal 0 -1 0
    outer loop
      vertex 2.5 -15 2
      vertex 2.5 -15 0
      vertex 15 -15 0
    endloop
  endfacet
  facet normal 0 -1 0
    outer loop
      vertex 15 -15 2
      vertex 2.5 -15 2
      vertex 15 -15 0
    endloop
  endfacet
  facet normal -0 -0 -1
    outer loop
      vertex 2.5 -15 0
      vertex 2.5 -9.63601 0
      vertex 15 -15 0
    endloop
  endfacet
  facet normal 0 0 -1
    outer loop
      vertex 15 -15 0
      vertex 2.5 -9.63601 0
      vertex 3.09017 -9.51056 0
    endloop
  endfacet
  facet normal 0 0 -1
    outer loop
      vertex 15 -15 0
      vertex 3.09017 -9.51056 0
      vertex 5 -8.66025 0
    endloop
  endfacet
  facet normal -0 0 -1
    outer loop
      vertex 5 -8.66025 0
      vertex 6.69131 -7.43145 0
      vertex 15 -15 0
    endloop
  endfacet
  facet normal -0 0 -1
    outer loop
      vertex 6.69131 -7.43145 0
      vertex 8.09017 -5.87785 0
      vertex 15 -15 0
    endloop
  endfacet
  facet normal -0 0 -1
    outer loop
      vertex 8.09017 -5.87785 0
      vertex 9.13546 -4.06737 0
      vertex 15 -15 0
    endloop
  endfacet
  facet normal -0 0 -1
    outer loop
      vertex 9.13546 -4.06737 0
      vertex 9.64472 -2.5 0
      vertex 15 -15 0
    endloop
  endfacet
  facet normal 0 0 -1
    outer loop
      vertex 15 -15 0
      vertex 9.64472 -2.5 0
      vertex 15 -2.5 0
    endloop
  endfacet
  facet normal -0.207912 0.978148 0
    outer loop
      vertex 3.09017 -9.51056 2
      vertex 3.09017 -9.51056 0
      vertex 2.5 -9.63601 2
    endloop
  endfacet
  facet normal -0.207912 0.978148 0
    outer loop
      vertex 2.5 -9.63601 2
      vertex 3.09017 -9.51056 0
      vertex 2.5 -9.63601 0
    endloop
  endfacet
  facet normal 0 -0 1
    outer loop
      vertex 2.5 -9.63601 2
      vertex 2.5 -15 2
      vertex 15 -15 2
    endloop
  endfacet
  facet normal 0 -0 1
    outer loop
      vertex 3.09017 -9.51056 2
      vertex 2.5 -9.63601 2
      vertex 15 -15 2
    endloop
  endfacet
  facet normal 0 -0 1
    outer loop
      vertex 9.64472 -2.5 2
      vertex 9.13546 -4.06737 2
      vertex 15 -2.5 2
    endloop
  endfacet
  facet normal 0 -0 1
    outer loop
      vertex 9.13546 -4.06737 2
      vertex 8.09017 -5.87785 2
      vertex 15 -2.5 2
    endloop
  endfacet
  facet normal 0 0 1
    outer loop
      vertex 15 -2.5 2
      vertex 6.69131 -7.43145 2
      vertex 15 -15 2
    endloop
  endfacet
  facet normal 0 -0 1
    outer loop
      vertex 6.69131 -7.43145 2
      vertex 5 -8.66025 2
      vertex 15 -15 2
    endloop
  endfacet
  facet normal 0 -0 1
    outer loop
      vertex 5 -8.66025 2
      vertex 3.09017 -9.51056 2
      vertex 15 -15 2
    endloop
  endfacet
  facet normal 0 -0 1
    outer loop
      vertex 8.09017 -5.87785 2
      vertex 6.69131 -7.43145 2
      vertex 15 -2.5 2
    endloop
  endfacet
  facet normal 1 0 -0
    outer loop
      vertex 15 -15 2
      vertex 15 -15 0
      vertex 15 -2.5 0
    endloop
  endfacet
  facet normal 1 0 0
    outer loop
      vertex 15 -2.5 2
      vertex 15 -15 2
      vertex 15 -2.5 0
    endloop
  endfacet
  facet normal 0 1 0
    outer loop
      vertex 9.64472 -2.5 0
      vertex 9.64472 -2.5 2
      vertex 15 -2.5 0
    endloop
  endfacet
  facet normal 0 1 0
    outer loop
      vertex 15 -2.5 0
      vertex 9.64472 -2.5 2
      vertex 15 -2.5 2
    endloop
  endfacet
  facet normal -0.951057 0.309017 0
    outer loop
      vertex 9.64472 -2.5 2
      vertex 9.64472 -2.5 0
      vertex 9.13546 -4.06737 2
    endloop
  endfacet
  facet normal -0.951057 0.309017 0
    outer loop
      vertex 9.13546 -4.06737 2
      vertex 9.64472 -2.5 0
      vertex 9.13546 -4.06737 0
    endloop
  endfacet
  facet normal -0.866025 0.5 0
    outer loop
      vertex 9.13546 -4.06737 2
      vertex 9.13546 -4.06737 0
      vertex 8.09017 -5.87785 2
    endloop
  endfacet
  facet normal -0.866025 0.5 0
    outer loop
      vertex 8.09017 -5.87785 2
      vertex 9.13546 -4.06737 0
      vertex 8.09017 -5.87785 0
    endloop
  endfacet
  facet normal -0.743145 0.669131 0
    outer loop
      vertex 8.09017 -5.87785 2
      vertex 8.09017 -5.87785 0
      vertex 6.69131 -7.43145 2
    endloop
  endfacet
  facet normal -0.743145 0.669131 0
    outer loop
      vertex 6.69131 -7.43145 2
      vertex 8.09017 -5.87785 0
      vertex 6.69131 -7.43145 0
    endloop
  endfacet
  facet normal -0.587785 0.809017 0
    outer loop
      vertex 6.69131 -7.43145 2
      vertex 6.69131 -7.43145 0
      vertex 5 -8.66025 2
    endloop
  endfacet
  facet normal -0.587785 0.809017 0
    outer loop
      vertex 5 -8.66025 2
      vertex 6.69131 -7.43145 0
      vertex 5 -8.66025 0
    endloop
  endfacet
  facet normal -0.406737 0.913545 0
    outer loop
      vertex 5 -8.66025 2
      vertex 5 -8.66025 0
      vertex 3.09017 -9.51056 2
    endloop
  endfacet
  facet normal -0.406737 0.913545 0
    outer loop
      vertex 3.09017 -9.51056 2
      vertex 5 -8.66025 0
      vertex 3.09017 -9.51056 0
    endloop
  endfacet
  facet normal -1 -0 -0
    outer loop
      vertex 2.5 9.63601 0
      vertex 2.5 9.63601 2
      vertex 2.5 15 0
    endloop
  endfacet
  facet normal -1 0 0
    outer loop
      vertex 2.5 15 0
      vertex 2.5 9.63601 2
      vertex 2.5 15 2
    endloop
  endfacet
  facet normal -0.207912 -0.978148 -0
    outer loop
      vertex 3.09017 9.51056 0
      vertex 3.09017 9.51056 2
      vertex 2.5 9.63601 2
    endloop
  endfacet
  facet normal -0.207912 -0.978148 -0
    outer loop
      vertex 2.5 9.63601 0
      vertex 3.09017 9.51056 0
      vertex 2.5 9.63601 2
    endloop
  endfacet
  facet normal -0 -0 -1
    outer loop
      vertex 2.5 9.63601 0
      vertex 2.5 15 0
      vertex 3.09017 9.51056 0
    endloop
  endfacet
  facet normal 0 -0 -1
    outer loop
      vertex 3.09017 9.51056 0
      vertex 2.5 15 0
      vertex 15 15 0
    endloop
  endfacet
  facet normal -0 0 -1
    outer loop
      vertex 6.69131 7.43145 0
      vertex 15 15 0
      vertex 15 2.5 0
    endloop
  endfacet
  facet normal 0 0 -1
    outer loop
      vertex 15 2.5 0
      vertex 9.64472 2.5 0
      vertex 9.13546 4.06737 0
    endloop
  endfacet
  facet normal 0 0 -1
    outer loop
      vertex 15 2.5 0
      vertex 9.13546 4.06737 0
      vertex 8.09017 5.87785 0
    endloop
  endfacet
  facet normal -0 0 -1
    outer loop
      vertex 5 8.66025 0
      vertex 15 15 0
      vertex 6.69131 7.43145 0
    endloop
  endfacet
  facet normal -0 0 -1
    outer loop
      vertex 3.09017 9.51056 0
      vertex 15 15 0
      vertex 5 8.66025 0
    endloop
  endfacet
  facet normal 0 0 -1
    outer loop
      vertex 6.69131 7.43145 0
      vertex 15 2.5 0
      vertex 8.09017 5.87785 0
    endloop
  endfacet
  facet normal 0 1 0
    outer loop
      vertex 2.5 15 0
      vertex 2.5 15 2
      vertex 15 15 0
    endloop
  endfacet
  facet normal 0 1 0
    outer loop
      vertex 15 15 0
      vertex 2.5 15 2
      vertex 15 15 2
    endloop
  endfacet
  facet normal 0 0 1
    outer loop
      vertex 6.69131 7.43145 2
      vertex 8.09017 5.87785 2
      vertex 2.5 15 2
    endloop
  endfacet
  facet normal 0 -0 1
    outer loop
      vertex 2.5 15 2
      vertex 2.5 9.63601 2
      vertex 3.09017 9.51056 2
    endloop
  endfacet
  facet normal 0 0 1
    outer loop
      vertex 8.09017 5.87785 2
      vertex 15 2.5 2
      vertex 2.5 15 2
    endloop
  endfacet
  facet normal 0 0 1
    outer loop
      vertex 5 8.66025 2
      vertex 2.5 15 2
      vertex 3.09017 9.51056 2
    endloop
  endfacet
  facet normal 0 0 1
    outer loop
      vertex 5 8.66025 2
      vertex 6.69131 7.43145 2
      vertex 2.5 15 2
    endloop
  endfacet
  facet normal 0 0 1
    outer loop
      vertex 9.13546 4.06737 2
      vertex 15 2.5 2
      vertex 8.09017 5.87785 2
    endloop
  endfacet
  facet normal 0 0 1
    outer loop
      vertex 9.64472 2.5 2
      vertex 15 2.5 2
      vertex 9.13546 4.06737 2
    endloop
  endfacet
  facet normal 0 0 1
    outer loop
      vertex 15 2.5 2
      vertex 15 15 2
      vertex 2.5 15 2
    endloop
  endfacet
  facet normal -0.406737 -0.913545 -0
    outer loop
      vertex 5 8.66025 0
      vertex 5 8.66025 2
      vertex 3.09017 9.51056 2
    endloop
  endfacet
  facet normal -0.406737 -0.913545 -0
    outer loop
      vertex 3.09017 9.51056 0
      vertex 5 8.66025 0
      vertex 3.09017 9.51056 2
    endloop
  endfacet
  facet normal -0.587785 -0.809017 -0
    outer loop
      vertex 6.69131 7.43145 0
      vertex 6.69131 7.43145 2
      vertex 5 8.66025 2
    endloop
  endfacet
  facet normal -0.587785 -0.809017 -0
    outer loop
      vertex 5 8.66025 0
      vertex 6.69131 7.43145 0
      vertex 5 8.66025 2
    endloop
  endfacet
  facet normal -0.743145 -0.669131 0
    outer loop
      vertex 8.09017 5.87785 2
      vertex 6.69131 7.43145 2
      vertex 8.09017 5.87785 0
    endloop
  endfacet
  facet normal -0.743145 -0.669131 0
    outer loop
      vertex 8.09017 5.87785 0
      vertex 6.69131 7.43145 2
      vertex 6.69131 7.43145 0
    endloop
  endfacet
  facet normal -0.866025 -0.5 0
    outer loop
      vertex 9.13546 4.06737 2
      vertex 8.09017 5.87785 2
      vertex 9.13546 4.06737 0
    endloop
  endfacet
  facet normal -0.866025 -0.5 0
    outer loop
      vertex 9.13546 4.06737 0
      vertex 8.09017 5.87785 2
      vertex 8.09017 5.87785 0
    endloop
  endfacet
  facet normal -0.951057 -0.309017 0
    outer loop
      vertex 9.64472 2.5 2
      vertex 9.13546 4.06737 2
      vertex 9.64472 2.5 0
    endloop
  endfacet
  facet normal -0.951057 -0.309017 0
    outer loop
      vertex 9.64472 2.5 0
      vertex 9.13546 4.06737 2
      vertex 9.13546 4.06737 0
    endloop
  endfacet
  facet normal 0 -1 0
    outer loop
      vertex 9.64472 2.5 2
      vertex 9.64472 2.5 0
      vertex 15 2.5 0
    endloop
  endfacet
  facet normal 0 -1 0
    outer loop
      vertex 15 2.5 2
      vertex 9.64472 2.5 2
      vertex 15 2.5 0
    endloop
  endfacet
  facet normal 1 0 -0
    outer loop
      vertex 15 2.5 2
      vertex 15 2.5 0
      vertex 15 15 0
    endloop
  endfacet
  facet normal 1 0 0
    outer loop
      vertex 15 15 2
      vertex 15 2.5 2
      vertex 15 15 0
    endloop
  endfacet
  facet normal -1 -0 -0
    outer loop
      vertex -15 2.5 0
      vertex -15 2.5 2
      vertex -15 15 0
    endloop
  endfacet
  facet normal -1 0 0
    outer loop
      vertex -15 15 0
      vertex -15 2.5 2
      vertex -15 15 2
    endloop
  endfacet
  facet normal 0 -1 0
    outer loop
      vertex -15 2.5 2
      vertex -15 2.5 0
      vertex -9.64472 2.5 0
    endloop
  endfacet
  facet normal 0 -1 0
    outer loop
      vertex -9.64472 2.5 2
      vertex -15 2.5 2
      vertex -9.64472 2.5 0
    endloop
  endfacet
  facet normal -0 -0 -1
    outer loop
      vertex -15 2.5 0
      vertex -15 15 0
      vertex -9.64472 2.5 0
    endloop
  endfacet
  facet normal 0 -0 -1
    outer loop
      vertex -8.09017 5.87785 0
      vertex -15 15 0
      vertex -2.5 15 0
    endloop
  endfacet
  facet normal 0 0 -1
    outer loop
      vertex -3.09017 9.51056 0
      vertex -2.5 15 0
      vertex -2.5 9.63601 0
    endloop
  endfacet
  facet normal 0 0 -1
    outer loop
      vertex -5 8.66025 0
      vertex -2.5 15 0
      vertex -3.09017 9.51056 0
    endloop
  endfacet
  facet normal 0 0 -1
    outer loop
      vertex -6.69131 7.43145 0
      vertex -2.5 15 0
      vertex -5 8.66025 0
    endloop
  endfacet
  facet normal 0 -0 -1
    outer loop
      vertex -9.13546 4.06737 0
      vertex -15 15 0
      vertex -8.09017 5.87785 0
    endloop
  endfacet
  facet normal 0 -0 -1
    outer loop
      vertex -9.64472 2.5 0
      vertex -15 15 0
      vertex -9.13546 4.06737 0
    endloop
  endfacet
  facet normal 0 0 -1
    outer loop
      vertex -8.09017 5.87785 0
      vertex -2.5 15 0
      vertex -6.69131 7.43145 0
    endloop
  endfacet
  facet normal 0 1 0
    outer loop
      vertex -15 15 0
      vertex -15 15 2
      vertex -2.5 15 0
    endloop
  endfacet
  facet normal 0 1 0
    outer loop
      vertex -2.5 15 0
      vertex -15 15 2
      vertex -2.5 15 2
    endloop
  endfacet
  facet normal 0 -0 1
    outer loop
      vertex -15 15 2
      vertex -15 2.5 2
      vertex -9.64472 2.5 2
    endloop
  endfacet
  facet normal -0 0 1
    outer loop
      vertex -8.09017 5.87785 2
      vertex -15 15 2
      vertex -9.13546 4.06737 2
    endloop
  endfacet
  facet normal -0 0 1
    outer loop
      vertex -9.13546 4.06737 2
      vertex -15 15 2
      vertex -9.64472 2.5 2
    endloop
  endfacet
  facet normal -0 0 1
    outer loop
      vertex -6.69131 7.43145 2
      vertex -15 15 2
      vertex -8.09017 5.87785 2
    endloop
  endfacet
  facet normal -0 0 1
    outer loop
      vertex -5 8.66025 2
      vertex -15 15 2
      vertex -6.69131 7.43145 2
    endloop
  endfacet
  facet normal -0 0 1
    outer loop
      vertex -3.09017 9.51056 2
      vertex -15 15 2
      vertex -5 8.66025 2
    endloop
  endfacet
  facet normal -0 0 1
    outer loop
      vertex -2.5 9.63601 2
      vertex -15 15 2
      vertex -3.09017 9.51056 2
    endloop
  endfacet
  facet normal 0 0 1
    outer loop
      vertex -2.5 15 2
      vertex -15 15 2
      vertex -2.5 9.63601 2
    endloop
  endfacet
  facet normal 0.951057 -0.309017 0
    outer loop
      vertex -9.13546 4.06737 0
      vertex -9.13546 4.06737 2
      vertex -9.64472 2.5 2
    endloop
  endfacet
  facet normal 0.951057 -0.309017 0
    outer loop
      vertex -9.64472 2.5 0
      vertex -9.13546 4.06737 0
      vertex -9.64472 2.5 2
    endloop
  endfacet
  facet normal 0.866025 -0.5 0
    outer loop
      vertex -8.09017 5.87785 0
      vertex -8.09017 5.87785 2
      vertex -9.13546 4.06737 2
    endloop
  endfacet
  facet normal 0.866025 -0.5 0
    outer loop
      vertex -9.13546 4.06737 0
      vertex -8.09017 5.87785 0
      vertex -9.13546 4.06737 2
    endloop
  endfacet
  facet normal 0.743145 -0.669131 0
    outer loop
      vertex -6.69131 7.43145 0
      vertex -6.69131 7.43145 2
      vertex -8.09017 5.87785 2
    endloop
  endfacet
  facet normal 0.743145 -0.669131 0
    outer loop
      vertex -8.09017 5.87785 0
      vertex -6.69131 7.43145 0
      vertex -8.09017 5.87785 2
    endloop
  endfacet
  facet normal 0.587785 -0.809017 0
    outer loop
      vertex -5 8.66025 0
      vertex -5 8.66025 2
      vertex -6.69131 7.43145 2
    endloop
  endfacet
  facet normal 0.587785 -0.809017 0
    outer loop
      vertex -6.69131 7.43145 0
      vertex -5 8.66025 0
      vertex -6.69131 7.43145 2
    endloop
  endfacet
  facet normal 0.406737 -0.913545 0
    outer loop
      vertex -3.09017 9.51056 0
      vertex -3.09017 9.51056 2
      vertex -5 8.66025 2
    endloop
  endfacet
  facet normal 0.406737 -0.913545 0
    outer loop
      vertex -5 8.66025 0
      vertex -3.09017 9.51056 0
      vertex -5 8.66025 2
    endloop
  endfacet
  facet normal 0.207912 -0.978148 0
    outer loop
      vertex -2.5 9.63601 0
      vertex -2.5 9.63601 2
      vertex -3.09017 9.51056 2
    endloop
  endfacet
  facet normal 0.207912 -0.978148 0
    outer loop
      vertex -3.09017 9.51056 0
      vertex -2.5 9.63601 0
      vertex -3.09017 9.51056 2
    endloop
  endfacet
  facet normal 1 0 -0
    outer loop
      vertex -2.5 9.63601 2
      vertex -2.5 9.63601 0
      vertex -2.5 15 0
    endloop
  endfacet
  facet normal 1 0 0
    outer loop
      vertex -2.5 15 2
      vertex -2.5 9.63601 2
      vertex -2.5 15 0
    endloop
  endfacet
endsolid OpenSCAD_Model
