solid OpenSCAD_Model
  facet normal -1 -0 -0
    outer loop
      vertex -17.5 -2.5 0
      vertex -17.5 -2.5 3
      vertex -17.5 2.5 0
    endloop
  endfacet
  facet normal -1 0 0
    outer loop
      vertex -17.5 2.5 0
      vertex -17.5 -2.5 3
      vertex -17.5 2.5 3
    endloop
  endfacet
  facet normal 0 -1 0
    outer loop
      vertex -9.64472 -2.5 0
      vertex -9.64472 -2.5 3
      vertex -17.5 -2.5 3
    endloop
  endfacet
  facet normal -0 -1 -0
    outer loop
      vertex -17.5 -2.5 0
      vertex -9.64472 -2.5 0
      vertex -17.5 -2.5 3
    endloop
  endfacet
  facet normal -0 -0 -1
    outer loop
      vertex -17.5 -2.5 0
      vertex -17.5 2.5 0
      vertex -9.64472 -2.5 0
    endloop
  endfacet
  facet normal 0 -0 -1
    outer loop
      vertex -9.78148 2.07912 0
      vertex -17.5 2.5 0
      vertex -9.64472 2.5 0
    endloop
  endfacet
  facet normal 0 -0 -1
    outer loop
      vertex -10 0 0
      vertex -17.5 2.5 0
      vertex -9.78148 2.07912 0
    endloop
  endfacet
  facet normal 0 0 -1
    outer loop
      vertex -9.78148 -2.07912 0
      vertex -17.5 2.5 0
      vertex -10 0 0
    endloop
  endfacet
  facet normal 0 0 -1
    outer loop
      vertex -9.64472 -2.5 0
      vertex -17.5 2.5 0
      vertex -9.78148 -2.07912 0
    endloop
  endfacet
  facet normal 0 1 0
    outer loop
      vertex -9.64472 2.5 3
      vertex -9.64472 2.5 0
      vertex -17.5 2.5 3
    endloop
  endfacet
  facet normal 0 1 -0
    outer loop
      vertex -17.5 2.5 3
      vertex -9.64472 2.5 0
      vertex -17.5 2.5 0
    endloop
  endfacet
  facet normal 0 -0 1
    outer loop
      vertex -17.5 2.5 3
      vertex -17.5 -2.5 3
      vertex -9.64472 -2.5 3
    endloop
  endfacet
  facet normal -0 -0 1
    outer loop
      vertex -10 0 3
      vertex -17.5 2.5 3
      vertex -9.78148 -2.07912 3
    endloop
  endfacet
  facet normal -0 -0 1
    outer loop
      vertex -9.78148 -2.07912 3
      vertex -17.5 2.5 3
      vertex -9.64472 -2.5 3
    endloop
  endfacet
  facet normal -0 0 1
    outer loop
      vertex -9.78148 2.07912 3
      vertex -17.5 2.5 3
      vertex -10 0 3
    endloop
  endfacet
  facet normal 0 0 1
    outer loop
      vertex -9.64472 2.5 3
      vertex -17.5 2.5 3
      vertex -9.78148 2.07912 3
    endloop
  endfacet
  facet normal 0.951057 0.309017 0
    outer loop
      vertex -9.78148 -2.07912 3
      vertex -9.64472 -2.5 3
      vertex -9.64472 -2.5 0
    endloop
  endfacet
  facet normal 0.951057 0.309017 0
    outer loop
      vertex -9.78148 -2.07912 0
      vertex -9.78148 -2.07912 3
      vertex -9.64472 -2.5 0
    endloop
  endfacet
  facet normal 0.994522 0.104528 0
    outer loop
      vertex -10 0 3
      vertex -9.78148 -2.07912 3
      vertex -9.78148 -2.07912 0
    endloop
  endfacet
  facet normal 0.994522 0.104528 0
    outer loop
      vertex -10 0 0
      vertex -10 0 3
      vertex -9.78148 -2.07912 0
    endloop
  endfacet
  facet normal 0.994522 -0.104528 0
    outer loop
      vertex -9.78148 2.07912 0
      vertex -9.78148 2.07912 3
      vertex -10 0 3
    endloop
  endfacet
  facet normal 0.994522 -0.104528 0
    outer loop
      vertex -10 0 0
      vertex -9.78148 2.07912 0
      vertex -10 0 3
    endloop
  endfacet
  facet normal 0.951057 -0.309017 0
    outer loop
      vertex -9.64472 2.5 0
      vertex -9.64472 2.5 3
      vertex -9.78148 2.07912 3
    endloop
  endfacet
  facet normal 0.951057 -0.309017 0
    outer loop
      vertex -9.78148 2.07912 0
      vertex -9.64472 2.5 0
      vertex -9.78148 2.07912 3
    endloop
  endfacet
  facet normal -0 -0 -1
    outer loop
      vertex -2.5 -17.5 0
      vertex -2.5 -9.63601 0
      vertex 2.5 -17.5 0
    endloop
  endfacet
  facet normal 0 0 -1
    outer loop
      vertex 2.5 -17.5 0
      vertex -2.5 -9.63601 0
      vertex -1.04529 -9.94522 0
    endloop
  endfacet
  facet normal 0 0 -1
    outer loop
      vertex 2.5 -17.5 0
      vertex -1.04529 -9.94522 0
      vertex 1.04529 -9.94522 0
    endloop
  endfacet
  facet normal -0 0 -1
    outer loop
      vertex 1.04529 -9.94522 0
      vertex 2.5 -9.63601 0
      vertex 2.5 -17.5 0
    endloop
  endfacet
  facet normal -1 0 0
    outer loop
      vertex -2.5 -9.63601 3
      vertex -2.5 -9.63601 0
      vertex -2.5 -17.5 3
    endloop
  endfacet
  facet normal -1 0 0
    outer loop
      vertex -2.5 -17.5 3
      vertex -2.5 -9.63601 0
      vertex -2.5 -17.5 0
    endloop
  endfacet
  facet normal 0 -1 0
    outer loop
      vertex -2.5 -17.5 3
      vertex -2.5 -17.5 0
      vertex 2.5 -17.5 0
    endloop
  endfacet
  facet normal 0 -1 0
    outer loop
      vertex 2.5 -17.5 3
      vertex -2.5 -17.5 3
      vertex 2.5 -17.5 0
    endloop
  endfacet
  facet normal 1 0 0
    outer loop
      vertex 2.5 -9.63601 0
      vertex 2.5 -9.63601 3
      vertex 2.5 -17.5 3
    endloop
  endfacet
  facet normal 1 0 0
    outer loop
      vertex 2.5 -17.5 0
      vertex 2.5 -9.63601 0
      vertex 2.5 -17.5 3
    endloop
  endfacet
  facet normal -0.207912 0.978148 0
    outer loop
      vertex 2.5 -9.63601 3
      vertex 2.5 -9.63601 0
      vertex 1.04529 -9.94522 3
    endloop
  endfacet
  facet normal -0.207912 0.978148 0
    outer loop
      vertex 1.04529 -9.94522 3
      vertex 2.5 -9.63601 0
      vertex 1.04529 -9.94522 0
    endloop
  endfacet
  facet normal 0 1 0
    outer loop
      vertex 1.04529 -9.94522 3
      vertex 1.04529 -9.94522 0
      vertex -1.04529 -9.94522 3
    endloop
  endfacet
  facet normal 0 1 -0
    outer loop
      vertex -1.04529 -9.94522 3
      vertex 1.04529 -9.94522 0
      vertex -1.04529 -9.94522 0
    endloop
  endfacet
  facet normal 0.207912 0.978148 -0
    outer loop
      vertex -1.04529 -9.94522 3
      vertex -1.04529 -9.94522 0
      vertex -2.5 -9.63601 3
    endloop
  endfacet
  facet normal 0.207912 0.978148 -0
    outer loop
      vertex -2.5 -9.63601 3
      vertex -1.04529 -9.94522 0
      vertex -2.5 -9.63601 0
    endloop
  endfacet
  facet normal 0 -0 1
    outer loop
      vertex -2.5 -9.63601 3
      vertex -2.5 -17.5 3
      vertex 2.5 -17.5 3
    endloop
  endfacet
  facet normal -0 -0 1
    outer loop
      vertex -1.04529 -9.94522 3
      vertex -2.5 -9.63601 3
      vertex 2.5 -17.5 3
    endloop
  endfacet
  facet normal 0 0 1
    outer loop
      vertex 2.5 -9.63601 3
      vertex 1.04529 -9.94522 3
      vertex 2.5 -17.5 3
    endloop
  endfacet
  facet normal 0 -0 1
    outer loop
      vertex 1.04529 -9.94522 3
      vertex -1.04529 -9.94522 3
      vertex 2.5 -17.5 3
    endloop
  endfacet
  facet normal -1 0 0
    outer loop
      vertex -2.5 17.5 3
      vertex -2.5 17.5 0
      vertex -2.5 9.63601 3
    endloop
  endfacet
  facet normal -1 0 0
    outer loop
      vertex -2.5 9.63601 3
      vertex -2.5 17.5 0
      vertex -2.5 9.63601 0
    endloop
  endfacet
  facet normal 0.207912 -0.978148 0
    outer loop
      vertex -1.04529 9.94522 0
      vertex -1.04529 9.94522 3
      vertex -2.5 9.63601 3
    endloop
  endfacet
  facet normal 0.207912 -0.978148 0
    outer loop
      vertex -2.5 9.63601 0
      vertex -1.04529 9.94522 0
      vertex -2.5 9.63601 3
    endloop
  endfacet
  facet normal 0 -0 -1
    outer loop
      vertex -2.5 9.63601 0
      vertex -2.5 17.5 0
      vertex -1.04529 9.94522 0
    endloop
  endfacet
  facet normal 0 -0 -1
    outer loop
      vertex -1.04529 9.94522 0
      vertex -2.5 17.5 0
      vertex 2.5 17.5 0
    endloop
  endfacet
  facet normal -0 0 -1
    outer loop
      vertex 1.04529 9.94522 0
      vertex 2.5 17.5 0
      vertex 2.5 9.63601 0
    endloop
  endfacet
  facet normal -0 0 -1
    outer loop
      vertex -1.04529 9.94522 0
      vertex 2.5 17.5 0
      vertex 1.04529 9.94522 0
    endloop
  endfacet
  facet normal 0 -0 1
    outer loop
      vertex -2.5 17.5 3
      vertex -2.5 9.63601 3
      vertex -1.04529 9.94522 3
    endloop
  endfacet
  facet normal -0 0 1
    outer loop
      vertex 1.04529 9.94522 3
      vertex -2.5 17.5 3
      vertex -1.04529 9.94522 3
    endloop
  endfacet
  facet normal 0 0 1
    outer loop
      vertex 1.04529 9.94522 3
      vertex 2.5 9.63601 3
      vertex -2.5 17.5 3
    endloop
  endfacet
  facet normal 0 0 1
    outer loop
      vertex 2.5 9.63601 3
      vertex 2.5 17.5 3
      vertex -2.5 17.5 3
    endloop
  endfacet
  facet normal 0 1 0
    outer loop
      vertex -2.5 17.5 0
      vertex -2.5 17.5 3
      vertex 2.5 17.5 0
    endloop
  endfacet
  facet normal 0 1 0
    outer loop
      vertex 2.5 17.5 0
      vertex -2.5 17.5 3
      vertex 2.5 17.5 3
    endloop
  endfacet
  facet normal 0 -1 0
    outer loop
      vertex 1.04529 9.94522 0
      vertex 1.04529 9.94522 3
      vertex -1.04529 9.94522 3
    endloop
  endfacet
  facet normal -0 -1 -0
    outer loop
      vertex -1.04529 9.94522 0
      vertex 1.04529 9.94522 0
      vertex -1.04529 9.94522 3
    endloop
  endfacet
  facet normal -0.207912 -0.978148 -0
    outer loop
      vertex 2.5 9.63601 0
      vertex 2.5 9.63601 3
      vertex 1.04529 9.94522 3
    endloop
  endfacet
  facet normal -0.207912 -0.978148 -0
    outer loop
      vertex 1.04529 9.94522 0
      vertex 2.5 9.63601 0
      vertex 1.04529 9.94522 3
    endloop
  endfacet
  facet normal 1 0 0
    outer loop
      vertex 2.5 17.5 0
      vertex 2.5 17.5 3
      vertex 2.5 9.63601 3
    endloop
  endfacet
  facet normal 1 0 0
    outer loop
      vertex 2.5 9.63601 0
      vertex 2.5 17.5 0
      vertex 2.5 9.63601 3
    endloop
  endfacet
  facet normal -0.951057 0.309017 0
    outer loop
      vertex 9.78148 -2.07912 3
      vertex 9.78148 -2.07912 0
      vertex 9.64472 -2.5 3
    endloop
  endfacet
  facet normal -0.951057 0.309017 0
    outer loop
      vertex 9.64472 -2.5 3
      vertex 9.78148 -2.07912 0
      vertex 9.64472 -2.5 0
    endloop
  endfacet
  facet normal 0 -1 0
    outer loop
      vertex 17.5 -2.5 0
      vertex 17.5 -2.5 3
      vertex 9.64472 -2.5 3
    endloop
  endfacet
  facet normal -0 -1 -0
    outer loop
      vertex 9.64472 -2.5 0
      vertex 17.5 -2.5 0
      vertex 9.64472 -2.5 3
    endloop
  endfacet
  facet normal -0 0 -1
    outer loop
      vertex 9.64472 -2.5 0
      vertex 9.78148 -2.07912 0
      vertex 17.5 -2.5 0
    endloop
  endfacet
  facet normal 0 0 -1
    outer loop
      vertex 17.5 -2.5 0
      vertex 9.78148 -2.07912 0
      vertex 10 0 0
    endloop
  endfacet
  facet normal -0 -0 -1
    outer loop
      vertex 10 0 0
      vertex 9.78148 2.07912 0
      vertex 17.5 -2.5 0
    endloop
  endfacet
  facet normal -0 -0 -1
    outer loop
      vertex 9.78148 2.07912 0
      vertex 9.64472 2.5 0
      vertex 17.5 -2.5 0
    endloop
  endfacet
  facet normal 0 0 -1
    outer loop
      vertex 17.5 -2.5 0
      vertex 9.64472 2.5 0
      vertex 17.5 2.5 0
    endloop
  endfacet
  facet normal 0 -0 1
    outer loop
      vertex 9.78148 -2.07912 3
      vertex 9.64472 -2.5 3
      vertex 17.5 -2.5 3
    endloop
  endfacet
  facet normal 0 -0 1
    outer loop
      vertex 10 0 3
      vertex 9.78148 -2.07912 3
      vertex 17.5 2.5 3
    endloop
  endfacet
  facet normal 0 0 1
    outer loop
      vertex 17.5 2.5 3
      vertex 9.78148 -2.07912 3
      vertex 17.5 -2.5 3
    endloop
  endfacet
  facet normal 0 0 1
    outer loop
      vertex 9.64472 2.5 3
      vertex 9.78148 2.07912 3
      vertex 17.5 2.5 3
    endloop
  endfacet
  facet normal 0 0 1
    outer loop
      vertex 9.78148 2.07912 3
      vertex 10 0 3
      vertex 17.5 2.5 3
    endloop
  endfacet
  facet normal -0.994522 0.104528 0
    outer loop
      vertex 10 0 3
      vertex 10 0 0
      vertex 9.78148 -2.07912 3
    endloop
  endfacet
  facet normal -0.994522 0.104528 0
    outer loop
      vertex 9.78148 -2.07912 3
      vertex 10 0 0
      vertex 9.78148 -2.07912 0
    endloop
  endfacet
  facet normal 1 0 -0
    outer loop
      vertex 17.5 -2.5 3
      vertex 17.5 -2.5 0
      vertex 17.5 2.5 0
    endloop
  endfacet
  facet normal 1 0 0
    outer loop
      vertex 17.5 2.5 3
      vertex 17.5 -2.5 3
      vertex 17.5 2.5 0
    endloop
  endfacet
  facet normal 0 1 0
    outer loop
      vertex 17.5 2.5 3
      vertex 17.5 2.5 0
      vertex 9.64472 2.5 3
    endloop
  endfacet
  facet normal 0 1 -0
    outer loop
      vertex 9.64472 2.5 3
      vertex 17.5 2.5 0
      vertex 9.64472 2.5 0
    endloop
  endfacet
  facet normal -0.951057 -0.309017 0
    outer loop
      vertex 9.78148 2.07912 3
      vertex 9.64472 2.5 3
      vertex 9.78148 2.07912 0
    endloop
  endfacet
  facet normal -0.951057 -0.309017 0
    outer loop
      vertex 9.78148 2.07912 0
      vertex 9.64472 2.5 3
      vertex 9.64472 2.5 0
    endloop
  endfacet
  facet normal -0.994522 -0.104528 0
    outer loop
      vertex 10 0 3
      vertex 9.78148 2.07912 3
      vertex 10 0 0
    endloop
  endfacet
  facet normal -0.994522 -0.104528 0
    outer loop
      vertex 10 0 0
      vertex 9.78148 2.07912 3
      vertex 9.78148 2.07912 0
    endloop
  endfacet
endsolid OpenSCAD_Model
