solid OpenSCAD_Model
  facet normal 0 0 -1
    outer loop
      vertex 8.88178e-16 7.2 0
      vertex 0.352393 9.42492 0
      vertex 0.352393 4.97508 0
    endloop
  endfacet
  facet normal 0 0 -1
    outer loop
      vertex 0.352393 4.97508 0
      vertex 0.352393 9.42492 0
      vertex 1.37508 11.4321 0
    endloop
  endfacet
  facet normal 0 0 -1
    outer loop
      vertex 0.352393 4.97508 0
      vertex 1.37508 11.4321 0
      vertex 2.96795 13.0249 0
    endloop
  endfacet
  facet normal 0 0 -1
    outer loop
      vertex 0.352393 4.97508 0
      vertex 2.96795 13.0249 0
      vertex 4.97508 14.0476 0
    endloop
  endfacet
  facet normal 0 0 -1
    outer loop
      vertex 0.352393 4.97508 0
      vertex 4.97508 14.0476 0
      vertex 7.2 14.4 0
    endloop
  endfacet
  facet normal 0 0 -1
    outer loop
      vertex 9.3 10.8373 0
      vertex 7.2 14.4 0
      vertex 15.9 14.4 0
    endloop
  endfacet
  facet normal 0 0 -1
    outer loop
      vertex 10.5327 9.7 0
      vertex 15.9 14.4 0
      vertex 15.9 9.7 0
    endloop
  endfacet
  facet normal 0 0 -1
    outer loop
      vertex 10.4174 9.89971 0
      vertex 15.9 14.4 0
      vertex 10.5327 9.7 0
    endloop
  endfacet
  facet normal 0 0 -1
    outer loop
      vertex 7.92932 11.3362 0
      vertex 7.2 14.4 0
      vertex 9.3 10.8373 0
    endloop
  endfacet
  facet normal 0 0 -1
    outer loop
      vertex 3 7.2 0
      vertex 0.352393 4.97508 0
      vertex 3.25329 8.63648 0
    endloop
  endfacet
  facet normal 0 0 -1
    outer loop
      vertex 6.47068 11.3362 0
      vertex 7.2 14.4 0
      vertex 7.92932 11.3362 0
    endloop
  endfacet
  facet normal 0 0 -1
    outer loop
      vertex 5.1 10.8373 0
      vertex 7.2 14.4 0
      vertex 6.47068 11.3362 0
    endloop
  endfacet
  facet normal 0 0 -1
    outer loop
      vertex 3.98261 9.89971 0
      vertex 7.2 14.4 0
      vertex 5.1 10.8373 0
    endloop
  endfacet
  facet normal 0 0 -1
    outer loop
      vertex 0.352393 4.97508 0
      vertex 7.2 14.4 0
      vertex 3.98261 9.89971 0
    endloop
  endfacet
  facet normal 0 0 -1
    outer loop
      vertex 0.352393 4.97508 0
      vertex 3.98261 9.89971 0
      vertex 3.25329 8.63648 0
    endloop
  endfacet
  facet normal 0 0 -1
    outer loop
      vertex 3.25329 5.76351 0
      vertex 0.352393 4.97508 0
      vertex 3 7.2 0
    endloop
  endfacet
  facet normal 0 0 -1
    outer loop
      vertex 15.9 4.7 0
      vertex 10.4174 4.50029 0
      vertex 10.5327 4.7 0
    endloop
  endfacet
  facet normal 0 0 -1
    outer loop
      vertex 0.352393 4.97508 0
      vertex 3.25329 5.76351 0
      vertex 3.98261 4.50029 0
    endloop
  endfacet
  facet normal 0 0 -1
    outer loop
      vertex 3.98261 4.50029 0
      vertex 5.1 3.56269 0
      vertex 0.352393 4.97508 0
    endloop
  endfacet
  facet normal 0 0 -1
    outer loop
      vertex 5.1 3.56269 0
      vertex 6.47068 3.06381 0
      vertex 0.352393 4.97508 0
    endloop
  endfacet
  facet normal 0 0 -1
    outer loop
      vertex 6.47068 3.06381 0
      vertex 15.9 0 0
      vertex 0.352393 4.97508 0
    endloop
  endfacet
  facet normal 0 0 -1
    outer loop
      vertex 9.3 3.56269 0
      vertex 15.9 4.7 0
      vertex 7.92932 3.06381 0
    endloop
  endfacet
  facet normal 0 0 -1
    outer loop
      vertex 4.97508 0.352393 0
      vertex 0.352393 4.97508 0
      vertex 7.2 8.88178e-16 0
    endloop
  endfacet
  facet normal 0 0 -1
    outer loop
      vertex 10.4174 4.50029 0
      vertex 15.9 4.7 0
      vertex 9.3 3.56269 0
    endloop
  endfacet
  facet normal 0 0 -1
    outer loop
      vertex 7.92932 3.06381 0
      vertex 15.9 4.7 0
      vertex 15.9 0 0
    endloop
  endfacet
  facet normal 0 0 -1
    outer loop
      vertex 7.92932 3.06381 0
      vertex 15.9 0 0
      vertex 6.47068 3.06381 0
    endloop
  endfacet
  facet normal 0 0 -1
    outer loop
      vertex 7.2 8.88178e-16 0
      vertex 15.9 0 0
      vertex 7.2 0 0
    endloop
  endfacet
  facet normal 0 0 -1
    outer loop
      vertex 0.352393 4.97508 0
      vertex 15.9 0 0
      vertex 7.2 8.88178e-16 0
    endloop
  endfacet
  facet normal 0 0 -1
    outer loop
      vertex 0.352393 4.97508 0
      vertex 4.97508 0.352393 0
      vertex 2.96795 1.37508 0
    endloop
  endfacet
  facet normal 0 0 -1
    outer loop
      vertex 0.352393 4.97508 0
      vertex 2.96795 1.37508 0
      vertex 1.37508 2.96795 0
    endloop
  endfacet
  facet normal 0 0 -1
    outer loop
      vertex 9.3 10.8373 0
      vertex 15.9 14.4 0
      vertex 10.4174 9.89971 0
    endloop
  endfacet
  facet normal -0.987688 0.156434 0
    outer loop
      vertex 8.88178e-16 7.2 0
      vertex 8.88178e-16 7.2 16.4
      vertex 0.352393 9.42492 0
    endloop
  endfacet
  facet normal -0.987688 0.156434 0
    outer loop
      vertex 0.352393 9.42492 0
      vertex 8.88178e-16 7.2 16.4
      vertex 0.352393 9.42492 16.4
    endloop
  endfacet
  facet normal -0.987688 -0.156434 0
    outer loop
      vertex 8.88178e-16 7.2 0
      vertex 0.352393 4.97508 0
      vertex 8.88178e-16 7.2 16.4
    endloop
  endfacet
  facet normal -0.987688 -0.156434 0
    outer loop
      vertex 8.88178e-16 7.2 16.4
      vertex 0.352393 4.97508 0
      vertex 0.352393 4.97508 16.4
    endloop
  endfacet
  facet normal -0.891006 -0.453991 0
    outer loop
      vertex 0.352393 4.97508 0
      vertex 1.37508 2.96795 0
      vertex 0.352393 4.97508 16.4
    endloop
  endfacet
  facet normal -0.891006 -0.453991 0
    outer loop
      vertex 0.352393 4.97508 16.4
      vertex 1.37508 2.96795 0
      vertex 1.37508 2.96795 16.4
    endloop
  endfacet
  facet normal -0.707107 -0.707107 0
    outer loop
      vertex 1.37508 2.96795 16.4
      vertex 1.37508 2.96795 0
      vertex 2.96795 1.37508 0
    endloop
  endfacet
  facet normal -0.707107 -0.707107 0
    outer loop
      vertex 2.96795 1.37508 16.4
      vertex 1.37508 2.96795 16.4
      vertex 2.96795 1.37508 0
    endloop
  endfacet
  facet normal -0.453991 -0.891006 0
    outer loop
      vertex 2.96795 1.37508 16.4
      vertex 2.96795 1.37508 0
      vertex 4.97508 0.352393 0
    endloop
  endfacet
  facet normal -0.453991 -0.891006 0
    outer loop
      vertex 4.97508 0.352393 16.4
      vertex 2.96795 1.37508 16.4
      vertex 4.97508 0.352393 0
    endloop
  endfacet
  facet normal -0.156434 -0.987688 0
    outer loop
      vertex 4.97508 0.352393 16.4
      vertex 4.97508 0.352393 0
      vertex 7.2 8.88178e-16 0
    endloop
  endfacet
  facet normal -0.156434 -0.987688 0
    outer loop
      vertex 7.2 8.88178e-16 16.4
      vertex 4.97508 0.352393 16.4
      vertex 7.2 8.88178e-16 0
    endloop
  endfacet
  facet normal -1 0 0
    outer loop
      vertex 7.2 0 0
      vertex 7.2 0 16.4
      vertex 7.2 8.88178e-16 0
    endloop
  endfacet
  facet normal -1 0 0
    outer loop
      vertex 7.2 8.88178e-16 0
      vertex 7.2 0 16.4
      vertex 7.2 8.88178e-16 16.4
    endloop
  endfacet
  facet normal 0 -1 0
    outer loop
      vertex 13.2657 0 3.19744e-15
      vertex 7.2 0 0
      vertex 15.9 0 0
    endloop
  endfacet
  facet normal 0 -1 0
    outer loop
      vertex 13.1503 0 0.2
      vertex 7.2 0 0
      vertex 13.2657 0 3.19744e-15
    endloop
  endfacet
  facet normal 0 -1 0
    outer loop
      vertex 12.8 0 8.2
      vertex 13.0056 0 9.49787
      vertex 7.2 0 16.4
    endloop
  endfacet
  facet normal 0 -1 0
    outer loop
      vertex 7.2 0 16.4
      vertex 7.2 0 0
      vertex 13.1503 0 0.2
    endloop
  endfacet
  facet normal 0 -1 0
    outer loop
      vertex 13.6021 0 5.7313
      vertex 7.2 0 16.4
      vertex 15.9 0 0.2
    endloop
  endfacet
  facet normal 0 -1 0
    outer loop
      vertex 15.9 0 4.17422
      vertex 15.7021 0 4.20556
      vertex 15.9 0 0.2
    endloop
  endfacet
  facet normal 0 -1 0
    outer loop
      vertex 15.7021 0 4.20556
      vertex 14.5313 0 4.80213
      vertex 15.9 0 0.2
    endloop
  endfacet
  facet normal 0 -1 0
    outer loop
      vertex 14.5313 0 4.80213
      vertex 13.6021 0 5.7313
      vertex 15.9 0 0.2
    endloop
  endfacet
  facet normal 0 -1 0
    outer loop
      vertex 13.0056 0 6.90213
      vertex 7.2 0 16.4
      vertex 13.6021 0 5.7313
    endloop
  endfacet
  facet normal 0 -1 0
    outer loop
      vertex 13.6021 0 10.6687
      vertex 7.2 0 16.4
      vertex 13.0056 0 9.49787
    endloop
  endfacet
  facet normal 0 -1 0
    outer loop
      vertex 14.5313 0 11.5979
      vertex 7.2 0 16.4
      vertex 13.6021 0 10.6687
    endloop
  endfacet
  facet normal 0 -1 0
    outer loop
      vertex 15.7021 0 12.1944
      vertex 7.2 0 16.4
      vertex 14.5313 0 11.5979
    endloop
  endfacet
  facet normal 0 -1 0
    outer loop
      vertex 15.9 0 12.2258
      vertex 7.2 0 16.4
      vertex 15.7021 0 12.1944
    endloop
  endfacet
  facet normal 0 -1 0
    outer loop
      vertex 15.9 0 16.4
      vertex 7.2 0 16.4
      vertex 15.9 0 12.2258
    endloop
  endfacet
  facet normal 0 -1 0
    outer loop
      vertex 13.0056 0 6.90213
      vertex 12.8 0 8.2
      vertex 7.2 0 16.4
    endloop
  endfacet
  facet normal 0 -1 0
    outer loop
      vertex 15.9 0 3.19744e-15
      vertex 13.2657 0 3.19744e-15
      vertex 15.9 0 0
    endloop
  endfacet
  facet normal 0 -1 0
    outer loop
      vertex 13.1503 0 0.2
      vertex 15.9 0 0.2
      vertex 7.2 0 16.4
    endloop
  endfacet
  facet normal 1 0 0
    outer loop
      vertex 15.9 0 3.19744e-15
      vertex 15.9 0 0
      vertex 15.9 4.7 0
    endloop
  endfacet
  facet normal 1 0 0
    outer loop
      vertex 15.9 4.7 2.15383e-15
      vertex 15.9 0 3.19744e-15
      vertex 15.9 4.7 0
    endloop
  endfacet
  facet normal 0 1 0
    outer loop
      vertex 13.2657 4.7 16.4
      vertex 22.7343 4.7 16.4
      vertex 27.4685 4.7 8.2
    endloop
  endfacet
  facet normal 0 1 0
    outer loop
      vertex 13.2657 4.7 16.4
      vertex 27.4685 4.7 8.2
      vertex 10.5327 4.7 16.4
    endloop
  endfacet
  facet normal 0 1 0
    outer loop
      vertex 17 4.7 12.4
      vertex 10.5327 4.7 16.4
      vertex 18.2979 4.7 12.1944
    endloop
  endfacet
  facet normal 0 1 0
    outer loop
      vertex 19.4687 4.7 4.80213
      vertex 22.7343 4.7 2.15383e-15
      vertex 18.2979 4.7 4.20556
    endloop
  endfacet
  facet normal 0 1 0
    outer loop
      vertex 13.0056 4.7 6.90213
      vertex 10.5327 4.7 0
      vertex 10.5327 4.7 16.4
    endloop
  endfacet
  facet normal 0 1 0
    outer loop
      vertex 15.9 4.7 0
      vertex 10.5327 4.7 0
      vertex 13.0056 4.7 6.90213
    endloop
  endfacet
  facet normal 0 1 0
    outer loop
      vertex 12.8 4.7 8.2
      vertex 13.0056 4.7 6.90213
      vertex 10.5327 4.7 16.4
    endloop
  endfacet
  facet normal 0 1 0
    outer loop
      vertex 15.9 4.7 0
      vertex 13.0056 4.7 6.90213
      vertex 13.6021 4.7 5.7313
    endloop
  endfacet
  facet normal 0 1 0
    outer loop
      vertex 22.7343 4.7 2.15383e-15
      vertex 15.9 4.7 2.15383e-15
      vertex 14.5313 4.7 4.80213
    endloop
  endfacet
  facet normal 0 1 0
    outer loop
      vertex 22.7343 4.7 2.15383e-15
      vertex 14.5313 4.7 4.80213
      vertex 15.7021 4.7 4.20556
    endloop
  endfacet
  facet normal 0 1 0
    outer loop
      vertex 22.7343 4.7 2.15383e-15
      vertex 15.7021 4.7 4.20556
      vertex 17 4.7 4
    endloop
  endfacet
  facet normal 0 1 0
    outer loop
      vertex 22.7343 4.7 2.15383e-15
      vertex 17 4.7 4
      vertex 18.2979 4.7 4.20556
    endloop
  endfacet
  facet normal 0 1 0
    outer loop
      vertex 27.4685 4.7 8.2
      vertex 22.7343 4.7 2.15383e-15
      vertex 19.4687 4.7 4.80213
    endloop
  endfacet
  facet normal 0 1 0
    outer loop
      vertex 27.4685 4.7 8.2
      vertex 19.4687 4.7 4.80213
      vertex 20.3979 4.7 5.7313
    endloop
  endfacet
  facet normal 0 1 0
    outer loop
      vertex 27.4685 4.7 8.2
      vertex 20.3979 4.7 5.7313
      vertex 20.9944 4.7 6.90213
    endloop
  endfacet
  facet normal 0 1 0
    outer loop
      vertex 27.4685 4.7 8.2
      vertex 20.9944 4.7 6.90213
      vertex 21.2 4.7 8.2
    endloop
  endfacet
  facet normal 0 1 0
    outer loop
      vertex 27.4685 4.7 8.2
      vertex 21.2 4.7 8.2
      vertex 20.9944 4.7 9.49787
    endloop
  endfacet
  facet normal 0 1 0
    outer loop
      vertex 27.4685 4.7 8.2
      vertex 20.9944 4.7 9.49787
      vertex 20.3979 4.7 10.6687
    endloop
  endfacet
  facet normal 0 1 0
    outer loop
      vertex 27.4685 4.7 8.2
      vertex 20.3979 4.7 10.6687
      vertex 19.4687 4.7 11.5979
    endloop
  endfacet
  facet normal 0 1 0
    outer loop
      vertex 27.4685 4.7 8.2
      vertex 19.4687 4.7 11.5979
      vertex 10.5327 4.7 16.4
    endloop
  endfacet
  facet normal 0 1 0
    outer loop
      vertex 19.4687 4.7 11.5979
      vertex 18.2979 4.7 12.1944
      vertex 10.5327 4.7 16.4
    endloop
  endfacet
  facet normal 0 1 0
    outer loop
      vertex 15.7021 4.7 12.1944
      vertex 10.5327 4.7 16.4
      vertex 17 4.7 12.4
    endloop
  endfacet
  facet normal 0 1 0
    outer loop
      vertex 14.5313 4.7 11.5979
      vertex 10.5327 4.7 16.4
      vertex 15.7021 4.7 12.1944
    endloop
  endfacet
  facet normal 0 1 0
    outer loop
      vertex 13.6021 4.7 10.6687
      vertex 10.5327 4.7 16.4
      vertex 14.5313 4.7 11.5979
    endloop
  endfacet
  facet normal 0 1 0
    outer loop
      vertex 13.0056 4.7 9.49787
      vertex 10.5327 4.7 16.4
      vertex 13.6021 4.7 10.6687
    endloop
  endfacet
  facet normal 0 1 0
    outer loop
      vertex 12.8 4.7 8.2
      vertex 10.5327 4.7 16.4
      vertex 13.0056 4.7 9.49787
    endloop
  endfacet
  facet normal 0 1 0
    outer loop
      vertex 14.5313 4.7 4.80213
      vertex 15.9 4.7 2.15383e-15
      vertex 15.9 4.7 0
    endloop
  endfacet
  facet normal 0 1 0
    outer loop
      vertex 14.5313 4.7 4.80213
      vertex 15.9 4.7 0
      vertex 13.6021 4.7 5.7313
    endloop
  endfacet
  facet normal -0.866025 0.5 0
    outer loop
      vertex 10.5327 4.7 16.4
      vertex 10.5327 4.7 0
      vertex 10.4174 4.50029 16.4
    endloop
  endfacet
  facet normal -0.866025 0.5 0
    outer loop
      vertex 10.4174 4.50029 16.4
      vertex 10.5327 4.7 0
      vertex 10.4174 4.50029 0
    endloop
  endfacet
  facet normal -0.642788 0.766044 0
    outer loop
      vertex 10.4174 4.50029 16.4
      vertex 10.4174 4.50029 0
      vertex 9.3 3.56269 16.4
    endloop
  endfacet
  facet normal -0.642788 0.766044 0
    outer loop
      vertex 9.3 3.56269 16.4
      vertex 10.4174 4.50029 0
      vertex 9.3 3.56269 0
    endloop
  endfacet
  facet normal -0.34202 0.939693 0
    outer loop
      vertex 9.3 3.56269 16.4
      vertex 9.3 3.56269 0
      vertex 7.92932 3.06381 16.4
    endloop
  endfacet
  facet normal -0.34202 0.939693 0
    outer loop
      vertex 7.92932 3.06381 16.4
      vertex 9.3 3.56269 0
      vertex 7.92932 3.06381 0
    endloop
  endfacet
  facet normal 0 1 0
    outer loop
      vertex 7.92932 3.06381 16.4
      vertex 7.92932 3.06381 0
      vertex 6.47068 3.06381 16.4
    endloop
  endfacet
  facet normal 0 1 0
    outer loop
      vertex 6.47068 3.06381 16.4
      vertex 7.92932 3.06381 0
      vertex 6.47068 3.06381 0
    endloop
  endfacet
  facet normal 0.34202 0.939693 0
    outer loop
      vertex 6.47068 3.06381 16.4
      vertex 6.47068 3.06381 0
      vertex 5.1 3.56269 16.4
    endloop
  endfacet
  facet normal 0.34202 0.939693 0
    outer loop
      vertex 5.1 3.56269 16.4
      vertex 6.47068 3.06381 0
      vertex 5.1 3.56269 0
    endloop
  endfacet
  facet normal 0.642788 0.766044 0
    outer loop
      vertex 5.1 3.56269 16.4
      vertex 5.1 3.56269 0
      vertex 3.98261 4.50029 16.4
    endloop
  endfacet
  facet normal 0.642788 0.766044 0
    outer loop
      vertex 3.98261 4.50029 16.4
      vertex 5.1 3.56269 0
      vertex 3.98261 4.50029 0
    endloop
  endfacet
  facet normal 0.866025 0.5 0
    outer loop
      vertex 3.25329 5.76351 16.4
      vertex 3.98261 4.50029 16.4
      vertex 3.98261 4.50029 0
    endloop
  endfacet
  facet normal 0.866025 0.5 0
    outer loop
      vertex 3.25329 5.76351 0
      vertex 3.25329 5.76351 16.4
      vertex 3.98261 4.50029 0
    endloop
  endfacet
  facet normal 0.984808 0.173648 0
    outer loop
      vertex 3 7.2 16.4
      vertex 3.25329 5.76351 16.4
      vertex 3.25329 5.76351 0
    endloop
  endfacet
  facet normal 0.984808 0.173648 0
    outer loop
      vertex 3 7.2 0
      vertex 3 7.2 16.4
      vertex 3.25329 5.76351 0
    endloop
  endfacet
  facet normal 0.984808 -0.173648 0
    outer loop
      vertex 3.25329 8.63648 0
      vertex 3.25329 8.63648 16.4
      vertex 3 7.2 16.4
    endloop
  endfacet
  facet normal 0.984808 -0.173648 0
    outer loop
      vertex 3 7.2 0
      vertex 3.25329 8.63648 0
      vertex 3 7.2 16.4
    endloop
  endfacet
  facet normal 0.866025 -0.5 0
    outer loop
      vertex 3.98261 9.89971 0
      vertex 3.98261 9.89971 16.4
      vertex 3.25329 8.63648 16.4
    endloop
  endfacet
  facet normal 0.866025 -0.5 0
    outer loop
      vertex 3.25329 8.63648 0
      vertex 3.98261 9.89971 0
      vertex 3.25329 8.63648 16.4
    endloop
  endfacet
  facet normal 0.642788 -0.766044 0
    outer loop
      vertex 5.1 10.8373 0
      vertex 5.1 10.8373 16.4
      vertex 3.98261 9.89971 16.4
    endloop
  endfacet
  facet normal 0.642788 -0.766044 0
    outer loop
      vertex 3.98261 9.89971 0
      vertex 5.1 10.8373 0
      vertex 3.98261 9.89971 16.4
    endloop
  endfacet
  facet normal 0.34202 -0.939693 0
    outer loop
      vertex 6.47068 11.3362 0
      vertex 6.47068 11.3362 16.4
      vertex 5.1 10.8373 16.4
    endloop
  endfacet
  facet normal 0.34202 -0.939693 0
    outer loop
      vertex 5.1 10.8373 0
      vertex 6.47068 11.3362 0
      vertex 5.1 10.8373 16.4
    endloop
  endfacet
  facet normal 0 -1 0
    outer loop
      vertex 7.92932 11.3362 0
      vertex 7.92932 11.3362 16.4
      vertex 6.47068 11.3362 16.4
    endloop
  endfacet
  facet normal 0 -1 0
    outer loop
      vertex 6.47068 11.3362 0
      vertex 7.92932 11.3362 0
      vertex 6.47068 11.3362 16.4
    endloop
  endfacet
  facet normal -0.34202 -0.939693 0
    outer loop
      vertex 9.3 10.8373 0
      vertex 9.3 10.8373 16.4
      vertex 7.92932 11.3362 16.4
    endloop
  endfacet
  facet normal -0.34202 -0.939693 0
    outer loop
      vertex 7.92932 11.3362 0
      vertex 9.3 10.8373 0
      vertex 7.92932 11.3362 16.4
    endloop
  endfacet
  facet normal -0.642788 -0.766044 0
    outer loop
      vertex 10.4174 9.89971 0
      vertex 10.4174 9.89971 16.4
      vertex 9.3 10.8373 16.4
    endloop
  endfacet
  facet normal -0.642788 -0.766044 0
    outer loop
      vertex 9.3 10.8373 0
      vertex 10.4174 9.89971 0
      vertex 9.3 10.8373 16.4
    endloop
  endfacet
  facet normal -0.866025 -0.5 0
    outer loop
      vertex 10.5327 9.7 16.4
      vertex 10.4174 9.89971 16.4
      vertex 10.5327 9.7 0
    endloop
  endfacet
  facet normal -0.866025 -0.5 0
    outer loop
      vertex 10.5327 9.7 0
      vertex 10.4174 9.89971 16.4
      vertex 10.4174 9.89971 0
    endloop
  endfacet
  facet normal 0 -1 0
    outer loop
      vertex 27.4685 9.7 8.2
      vertex 15.9 9.7 1.04361e-15
      vertex 22.7343 9.7 1.04361e-15
    endloop
  endfacet
  facet normal 0 -1 0
    outer loop
      vertex 20.3979 9.7 5.7313
      vertex 15.9 9.7 1.04361e-15
      vertex 27.4685 9.7 8.2
    endloop
  endfacet
  facet normal 0 -1 0
    outer loop
      vertex 19.4687 9.7 11.5979
      vertex 20.3979 9.7 10.6687
      vertex 22.7343 9.7 16.4
    endloop
  endfacet
  facet normal 0 -1 0
    outer loop
      vertex 19.4687 9.7 4.80213
      vertex 18.2979 9.7 4.20556
      vertex 15.9 9.7 1.04361e-15
    endloop
  endfacet
  facet normal 0 -1 0
    outer loop
      vertex 18.2979 9.7 4.20556
      vertex 17 9.7 4
      vertex 15.9 9.7 1.04361e-15
    endloop
  endfacet
  facet normal 0 -1 0
    outer loop
      vertex 10.5327 9.7 0
      vertex 12.8 9.7 8.2
      vertex 10.5327 9.7 16.4
    endloop
  endfacet
  facet normal 0 -1 0
    outer loop
      vertex 10.5327 9.7 16.4
      vertex 13.0056 9.7 9.49787
      vertex 13.2657 9.7 16.4
    endloop
  endfacet
  facet normal 0 -1 0
    outer loop
      vertex 14.5313 9.7 4.80213
      vertex 13.6021 9.7 5.7313
      vertex 15.9 9.7 0
    endloop
  endfacet
  facet normal 0 -1 0
    outer loop
      vertex 13.0056 9.7 9.49787
      vertex 13.6021 9.7 10.6687
      vertex 13.2657 9.7 16.4
    endloop
  endfacet
  facet normal 0 -1 0
    outer loop
      vertex 13.2657 9.7 16.4
      vertex 14.5313 9.7 11.5979
      vertex 22.7343 9.7 16.4
    endloop
  endfacet
  facet normal 0 -1 0
    outer loop
      vertex 14.5313 9.7 11.5979
      vertex 15.7021 9.7 12.1944
      vertex 22.7343 9.7 16.4
    endloop
  endfacet
  facet normal 0 -1 0
    outer loop
      vertex 15.7021 9.7 12.1944
      vertex 17 9.7 12.4
      vertex 22.7343 9.7 16.4
    endloop
  endfacet
  facet normal 0 -1 0
    outer loop
      vertex 17 9.7 12.4
      vertex 18.2979 9.7 12.1944
      vertex 22.7343 9.7 16.4
    endloop
  endfacet
  facet normal 0 -1 0
    outer loop
      vertex 15.7021 9.7 4.20556
      vertex 15.9 9.7 0
      vertex 15.9 9.7 1.04361e-15
    endloop
  endfacet
  facet normal 0 -1 0
    outer loop
      vertex 18.2979 9.7 12.1944
      vertex 19.4687 9.7 11.5979
      vertex 22.7343 9.7 16.4
    endloop
  endfacet
  facet normal 0 -1 0
    outer loop
      vertex 22.7343 9.7 16.4
      vertex 20.3979 9.7 10.6687
      vertex 27.4685 9.7 8.2
    endloop
  endfacet
  facet normal 0 -1 0
    outer loop
      vertex 20.3979 9.7 10.6687
      vertex 20.9944 9.7 9.49787
      vertex 27.4685 9.7 8.2
    endloop
  endfacet
  facet normal 0 -1 0
    outer loop
      vertex 20.9944 9.7 9.49787
      vertex 21.2 9.7 8.2
      vertex 27.4685 9.7 8.2
    endloop
  endfacet
  facet normal 0 -1 0
    outer loop
      vertex 21.2 9.7 8.2
      vertex 20.9944 9.7 6.90213
      vertex 27.4685 9.7 8.2
    endloop
  endfacet
  facet normal 0 -1 0
    outer loop
      vertex 20.9944 9.7 6.90213
      vertex 20.3979 9.7 5.7313
      vertex 27.4685 9.7 8.2
    endloop
  endfacet
  facet normal 0 -1 0
    outer loop
      vertex 19.4687 9.7 4.80213
      vertex 15.9 9.7 1.04361e-15
      vertex 20.3979 9.7 5.7313
    endloop
  endfacet
  facet normal 0 -1 0
    outer loop
      vertex 17 9.7 4
      vertex 15.7021 9.7 4.20556
      vertex 15.9 9.7 1.04361e-15
    endloop
  endfacet
  facet normal 0 -1 0
    outer loop
      vertex 15.7021 9.7 4.20556
      vertex 14.5313 9.7 4.80213
      vertex 15.9 9.7 0
    endloop
  endfacet
  facet normal 0 -1 0
    outer loop
      vertex 10.5327 9.7 0
      vertex 15.9 9.7 0
      vertex 13.6021 9.7 5.7313
    endloop
  endfacet
  facet normal 0 -1 0
    outer loop
      vertex 10.5327 9.7 0
      vertex 13.0056 9.7 6.90213
      vertex 12.8 9.7 8.2
    endloop
  endfacet
  facet normal 0 -1 0
    outer loop
      vertex 10.5327 9.7 0
      vertex 13.6021 9.7 5.7313
      vertex 13.0056 9.7 6.90213
    endloop
  endfacet
  facet normal 0 -1 0
    outer loop
      vertex 12.8 9.7 8.2
      vertex 13.0056 9.7 9.49787
      vertex 10.5327 9.7 16.4
    endloop
  endfacet
  facet normal 0 -1 0
    outer loop
      vertex 13.6021 9.7 10.6687
      vertex 14.5313 9.7 11.5979
      vertex 13.2657 9.7 16.4
    endloop
  endfacet
  facet normal 1 0 0
    outer loop
      vertex 15.9 9.7 1.04361e-15
      vertex 15.9 9.7 0
      vertex 15.9 14.4 0
    endloop
  endfacet
  facet normal 0 -2.22045e-16 -1
    outer loop
      vertex 15.9 9.7 1.04361e-15
      vertex 15.9 14.4 0
      vertex 22.7343 9.7 1.04361e-15
    endloop
  endfacet
  facet normal 0 -2.22045e-16 -1
    outer loop
      vertex 22.7343 9.7 1.04361e-15
      vertex 15.9 14.4 0
      vertex 22.7343 14.4 0
    endloop
  endfacet
  facet normal 0 1 -2.22045e-16
    outer loop
      vertex 18.2979 14.4 12.1944
      vertex 22.7343 14.4 16.4
      vertex 19.4687 14.4 11.5979
    endloop
  endfacet
  facet normal 0 1 -2.22045e-16
    outer loop
      vertex 18.2979 14.4 12.1944
      vertex 13.2657 14.4 16.4
      vertex 22.7343 14.4 16.4
    endloop
  endfacet
  facet normal 0 1 -2.22045e-16
    outer loop
      vertex 20.9944 14.4 6.90213
      vertex 22.7343 14.4 16.4
      vertex 27.4685 14.4 8.2
    endloop
  endfacet
  facet normal 0 1 -2.22045e-16
    outer loop
      vertex 15.9 14.4 0.2
      vertex 27.4685 14.4 8.2
      vertex 22.7343 14.4 0
    endloop
  endfacet
  facet normal 0 1 -2.22045e-16
    outer loop
      vertex 13.1503 14.4 0.2
      vertex 27.4685 14.4 8.2
      vertex 15.9 14.4 0.2
    endloop
  endfacet
  facet normal 0 1 -2.22045e-16
    outer loop
      vertex 13.6021 14.4 5.7313
      vertex 13.1503 14.4 0.2
      vertex 13.0056 14.4 6.90213
    endloop
  endfacet
  facet normal 0 1 -2.22045e-16
    outer loop
      vertex 8.53146 14.4 8.2
      vertex 13.2657 14.4 16.4
      vertex 12.8 14.4 8.2
    endloop
  endfacet
  facet normal 0 1 -2.22045e-16
    outer loop
      vertex 8.53146 14.4 8.2
      vertex 12.8 14.4 8.2
      vertex 13.1503 14.4 0.2
    endloop
  endfacet
  facet normal 0 1 -2.22045e-16
    outer loop
      vertex 12.8 14.4 8.2
      vertex 13.0056 14.4 6.90213
      vertex 13.1503 14.4 0.2
    endloop
  endfacet
  facet normal 0 1 -2.22045e-16
    outer loop
      vertex 15.7021 14.4 4.20556
      vertex 13.1503 14.4 0.2
      vertex 14.5313 14.4 4.80213
    endloop
  endfacet
  facet normal 0 1 -2.22045e-16
    outer loop
      vertex 13.1503 14.4 0.2
      vertex 13.6021 14.4 5.7313
      vertex 14.5313 14.4 4.80213
    endloop
  endfacet
  facet normal 0 1 -2.22045e-16
    outer loop
      vertex 20.3979 14.4 5.7313
      vertex 27.4685 14.4 8.2
      vertex 19.4687 14.4 4.80213
    endloop
  endfacet
  facet normal 0 1 -2.22045e-16
    outer loop
      vertex 13.1503 14.4 0.2
      vertex 15.7021 14.4 4.20556
      vertex 17 14.4 4
    endloop
  endfacet
  facet normal 0 1 -2.22045e-16
    outer loop
      vertex 13.1503 14.4 0.2
      vertex 17 14.4 4
      vertex 18.2979 14.4 4.20556
    endloop
  endfacet
  facet normal 0 1 -2.22045e-16
    outer loop
      vertex 13.1503 14.4 0.2
      vertex 18.2979 14.4 4.20556
      vertex 27.4685 14.4 8.2
    endloop
  endfacet
  facet normal 0 1 -2.22045e-16
    outer loop
      vertex 18.2979 14.4 4.20556
      vertex 19.4687 14.4 4.80213
      vertex 27.4685 14.4 8.2
    endloop
  endfacet
  facet normal 0 1 -2.22045e-16
    outer loop
      vertex 20.9944 14.4 6.90213
      vertex 27.4685 14.4 8.2
      vertex 20.3979 14.4 5.7313
    endloop
  endfacet
  facet normal 0 1 -2.22045e-16
    outer loop
      vertex 21.2 14.4 8.2
      vertex 22.7343 14.4 16.4
      vertex 20.9944 14.4 6.90213
    endloop
  endfacet
  facet normal 0 1 -2.22045e-16
    outer loop
      vertex 19.4687 14.4 11.5979
      vertex 22.7343 14.4 16.4
      vertex 20.3979 14.4 10.6687
    endloop
  endfacet
  facet normal 0 1 -2.22045e-16
    outer loop
      vertex 20.9944 14.4 9.49787
      vertex 22.7343 14.4 16.4
      vertex 21.2 14.4 8.2
    endloop
  endfacet
  facet normal 0 1 -2.22045e-16
    outer loop
      vertex 20.3979 14.4 10.6687
      vertex 22.7343 14.4 16.4
      vertex 20.9944 14.4 9.49787
    endloop
  endfacet
  facet normal 0 1 -2.22045e-16
    outer loop
      vertex 17 14.4 12.4
      vertex 13.2657 14.4 16.4
      vertex 18.2979 14.4 12.1944
    endloop
  endfacet
  facet normal 0 1 -2.22045e-16
    outer loop
      vertex 13.0056 14.4 9.49787
      vertex 13.2657 14.4 16.4
      vertex 13.6021 14.4 10.6687
    endloop
  endfacet
  facet normal 0 1 -2.22045e-16
    outer loop
      vertex 15.7021 14.4 12.1944
      vertex 13.2657 14.4 16.4
      vertex 17 14.4 12.4
    endloop
  endfacet
  facet normal 0 1 -2.22045e-16
    outer loop
      vertex 14.5313 14.4 11.5979
      vertex 13.2657 14.4 16.4
      vertex 15.7021 14.4 12.1944
    endloop
  endfacet
  facet normal 0 1 -2.22045e-16
    outer loop
      vertex 13.6021 14.4 10.6687
      vertex 13.2657 14.4 16.4
      vertex 14.5313 14.4 11.5979
    endloop
  endfacet
  facet normal 0 1 -2.22045e-16
    outer loop
      vertex 12.8 14.4 8.2
      vertex 13.2657 14.4 16.4
      vertex 13.0056 14.4 9.49787
    endloop
  endfacet
  facet normal 0 1 -2.22045e-16
    outer loop
      vertex 15.9 14.4 0.2
      vertex 22.7343 14.4 0
      vertex 15.9 14.4 0
    endloop
  endfacet
  facet normal 0 1 0
    outer loop
      vertex 15.9 14.4 0.2
      vertex 15.9 14.4 0
      vertex 13.1503 14.4 0.2
    endloop
  endfacet
  facet normal 0 1 0
    outer loop
      vertex 7.2 14.4 0
      vertex 7.2 14.4 16.4
      vertex 8.53146 14.4 8.2
    endloop
  endfacet
  facet normal 0 1 0
    outer loop
      vertex 7.2 14.4 0
      vertex 8.53146 14.4 8.2
      vertex 13.1503 14.4 0.2
    endloop
  endfacet
  facet normal 0 1 0
    outer loop
      vertex 7.2 14.4 0
      vertex 13.1503 14.4 0.2
      vertex 15.9 14.4 0
    endloop
  endfacet
  facet normal 0 1 0
    outer loop
      vertex 8.53146 14.4 8.2
      vertex 7.2 14.4 16.4
      vertex 13.2657 14.4 16.4
    endloop
  endfacet
  facet normal -0.156434 0.987688 0
    outer loop
      vertex 4.97508 14.0476 0
      vertex 4.97508 14.0476 16.4
      vertex 7.2 14.4 0
    endloop
  endfacet
  facet normal -0.156434 0.987688 0
    outer loop
      vertex 7.2 14.4 0
      vertex 4.97508 14.0476 16.4
      vertex 7.2 14.4 16.4
    endloop
  endfacet
  facet normal -0.453991 0.891006 0
    outer loop
      vertex 2.96795 13.0249 0
      vertex 2.96795 13.0249 16.4
      vertex 4.97508 14.0476 0
    endloop
  endfacet
  facet normal -0.453991 0.891006 0
    outer loop
      vertex 4.97508 14.0476 0
      vertex 2.96795 13.0249 16.4
      vertex 4.97508 14.0476 16.4
    endloop
  endfacet
  facet normal -0.707107 0.707107 0
    outer loop
      vertex 1.37508 11.4321 0
      vertex 1.37508 11.4321 16.4
      vertex 2.96795 13.0249 0
    endloop
  endfacet
  facet normal -0.707107 0.707107 0
    outer loop
      vertex 2.96795 13.0249 0
      vertex 1.37508 11.4321 16.4
      vertex 2.96795 13.0249 16.4
    endloop
  endfacet
  facet normal -0.891006 0.453991 0
    outer loop
      vertex 0.352393 9.42492 0
      vertex 0.352393 9.42492 16.4
      vertex 1.37508 11.4321 0
    endloop
  endfacet
  facet normal -0.891006 0.453991 0
    outer loop
      vertex 1.37508 11.4321 0
      vertex 0.352393 9.42492 16.4
      vertex 1.37508 11.4321 16.4
    endloop
  endfacet
  facet normal 0 0 1
    outer loop
      vertex 0.352393 9.42492 16.4
      vertex 8.88178e-16 7.2 16.4
      vertex 0.352393 4.97508 16.4
    endloop
  endfacet
  facet normal 0 0 1
    outer loop
      vertex 2.96795 1.37508 16.4
      vertex 0.352393 9.42492 16.4
      vertex 1.37508 2.96795 16.4
    endloop
  endfacet
  facet normal 0 0 1
    outer loop
      vertex 1.37508 2.96795 16.4
      vertex 0.352393 9.42492 16.4
      vertex 0.352393 4.97508 16.4
    endloop
  endfacet
  facet normal 0 0 1
    outer loop
      vertex 4.97508 0.352393 16.4
      vertex 0.352393 9.42492 16.4
      vertex 2.96795 1.37508 16.4
    endloop
  endfacet
  facet normal 0 0 1
    outer loop
      vertex 7.2 8.88178e-16 16.4
      vertex 0.352393 9.42492 16.4
      vertex 4.97508 0.352393 16.4
    endloop
  endfacet
  facet normal 0 0 1
    outer loop
      vertex 3.98261 4.50029 16.4
      vertex 0.352393 9.42492 16.4
      vertex 7.2 8.88178e-16 16.4
    endloop
  endfacet
  facet normal 0 0 1
    outer loop
      vertex 15.9 0 16.4
      vertex 7.2 8.88178e-16 16.4
      vertex 7.2 0 16.4
    endloop
  endfacet
  facet normal 0 0 1
    outer loop
      vertex 13.2657 3.59712e-15 16.4
      vertex 10.4174 4.50029 16.4
      vertex 9.3 3.56269 16.4
    endloop
  endfacet
  facet normal 0 0 1
    outer loop
      vertex 3.25329 5.76351 16.4
      vertex 3 7.2 16.4
      vertex 0.352393 9.42492 16.4
    endloop
  endfacet
  facet normal 0 0 1
    outer loop
      vertex 15.9 0 16.4
      vertex 13.2657 3.59712e-15 16.4
      vertex 7.2 8.88178e-16 16.4
    endloop
  endfacet
  facet normal 0 0 1
    outer loop
      vertex 9.3 3.56269 16.4
      vertex 7.92932 3.06381 16.4
      vertex 13.2657 3.59712e-15 16.4
    endloop
  endfacet
  facet normal 0 0 1
    outer loop
      vertex 13.2657 3.59712e-15 16.4
      vertex 7.92932 3.06381 16.4
      vertex 7.2 8.88178e-16 16.4
    endloop
  endfacet
  facet normal 0 0 1
    outer loop
      vertex 7.92932 3.06381 16.4
      vertex 6.47068 3.06381 16.4
      vertex 7.2 8.88178e-16 16.4
    endloop
  endfacet
  facet normal 0 0 1
    outer loop
      vertex 6.47068 3.06381 16.4
      vertex 5.1 3.56269 16.4
      vertex 7.2 8.88178e-16 16.4
    endloop
  endfacet
  facet normal 0 0 1
    outer loop
      vertex 5.1 3.56269 16.4
      vertex 3.98261 4.50029 16.4
      vertex 7.2 8.88178e-16 16.4
    endloop
  endfacet
  facet normal 0 0 1
    outer loop
      vertex 3.25329 5.76351 16.4
      vertex 0.352393 9.42492 16.4
      vertex 3.98261 4.50029 16.4
    endloop
  endfacet
  facet normal 0 0 1
    outer loop
      vertex 3.98261 9.89971 16.4
      vertex 0.352393 9.42492 16.4
      vertex 3.25329 8.63648 16.4
    endloop
  endfacet
  facet normal 0 0 1
    outer loop
      vertex 5.1 10.8373 16.4
      vertex 0.352393 9.42492 16.4
      vertex 3.98261 9.89971 16.4
    endloop
  endfacet
  facet normal 0 0 1
    outer loop
      vertex 6.47068 11.3362 16.4
      vertex 0.352393 9.42492 16.4
      vertex 5.1 10.8373 16.4
    endloop
  endfacet
  facet normal 0 0 1
    outer loop
      vertex 13.2657 14.4 16.4
      vertex 0.352393 9.42492 16.4
      vertex 6.47068 11.3362 16.4
    endloop
  endfacet
  facet normal 0 0 1
    outer loop
      vertex 13.2657 14.4 16.4
      vertex 6.47068 11.3362 16.4
      vertex 7.92932 11.3362 16.4
    endloop
  endfacet
  facet normal 0 0 1
    outer loop
      vertex 13.2657 9.7 16.4
      vertex 7.92932 11.3362 16.4
      vertex 9.3 10.8373 16.4
    endloop
  endfacet
  facet normal 0 0 1
    outer loop
      vertex 13.2657 9.7 16.4
      vertex 9.3 10.8373 16.4
      vertex 10.4174 9.89971 16.4
    endloop
  endfacet
  facet normal 0 0 1
    outer loop
      vertex 13.2657 9.7 16.4
      vertex 10.4174 9.89971 16.4
      vertex 10.5327 9.7 16.4
    endloop
  endfacet
  facet normal 0 0 1
    outer loop
      vertex 13.2657 14.4 16.4
      vertex 7.92932 11.3362 16.4
      vertex 13.2657 9.7 16.4
    endloop
  endfacet
  facet normal 0 0 1
    outer loop
      vertex 7.2 14.4 16.4
      vertex 0.352393 9.42492 16.4
      vertex 13.2657 14.4 16.4
    endloop
  endfacet
  facet normal 0 0 1
    outer loop
      vertex 4.97508 14.0476 16.4
      vertex 0.352393 9.42492 16.4
      vertex 7.2 14.4 16.4
    endloop
  endfacet
  facet normal 0 0 1
    outer loop
      vertex 2.96795 13.0249 16.4
      vertex 0.352393 9.42492 16.4
      vertex 4.97508 14.0476 16.4
    endloop
  endfacet
  facet normal 0 0 1
    outer loop
      vertex 1.37508 11.4321 16.4
      vertex 0.352393 9.42492 16.4
      vertex 2.96795 13.0249 16.4
    endloop
  endfacet
  facet normal 0 0 1
    outer loop
      vertex 15.9 3.59712e-15 16.4
      vertex 13.2657 3.59712e-15 16.4
      vertex 15.9 0 16.4
    endloop
  endfacet
  facet normal 0 0 1
    outer loop
      vertex 13.2657 3.59712e-15 16.4
      vertex 10.5327 4.7 16.4
      vertex 10.4174 4.50029 16.4
    endloop
  endfacet
  facet normal 0 0 1
    outer loop
      vertex 13.2657 3.59712e-15 16.4
      vertex 13.2657 4.7 16.4
      vertex 10.5327 4.7 16.4
    endloop
  endfacet
  facet normal 0 0 1
    outer loop
      vertex 3 7.2 16.4
      vertex 3.25329 8.63648 16.4
      vertex 0.352393 9.42492 16.4
    endloop
  endfacet
  facet normal 1 0 0
    outer loop
      vertex 15.9 0 16.4
      vertex 15.9 0 12.2258
      vertex 15.9 2.67026e-15 12.2258
    endloop
  endfacet
  facet normal 1 0 0
    outer loop
      vertex 15.9 3.59712e-15 16.4
      vertex 15.9 0 16.4
      vertex 15.9 2.67026e-15 12.2258
    endloop
  endfacet
  facet normal 0.156435 -2.19311e-16 -0.987688
    outer loop
      vertex 17 4.7 12.4
      vertex 17 2.70894e-15 12.4
      vertex 15.7021 4.7 12.1944
    endloop
  endfacet
  facet normal 0.156435 -2.19311e-16 -0.987688
    outer loop
      vertex 15.7021 4.7 12.1944
      vertex 17 2.70894e-15 12.4
      vertex 15.9 2.67026e-15 12.2258
    endloop
  endfacet
  facet normal 0.156435 -2.19311e-16 -0.987688
    outer loop
      vertex 15.7021 4.7 12.1944
      vertex 15.9 2.67026e-15 12.2258
      vertex 15.9 0 12.2258
    endloop
  endfacet
  facet normal 0.156435 -2.19311e-16 -0.987688
    outer loop
      vertex 15.7021 4.7 12.1944
      vertex 15.9 0 12.2258
      vertex 15.7021 0 12.1944
    endloop
  endfacet
  facet normal 0.45399 -1.97843e-16 -0.891007
    outer loop
      vertex 15.7021 4.7 12.1944
      vertex 15.7021 0 12.1944
      vertex 14.5313 4.7 11.5979
    endloop
  endfacet
  facet normal 0.45399 -1.97843e-16 -0.891007
    outer loop
      vertex 14.5313 4.7 11.5979
      vertex 15.7021 0 12.1944
      vertex 14.5313 0 11.5979
    endloop
  endfacet
  facet normal 0.707107 -1.57009e-16 -0.707107
    outer loop
      vertex 13.6021 4.7 10.6687
      vertex 14.5313 4.7 11.5979
      vertex 14.5313 0 11.5979
    endloop
  endfacet
  facet normal 0.707107 -1.57009e-16 -0.707107
    outer loop
      vertex 13.6021 0 10.6687
      vertex 13.6021 4.7 10.6687
      vertex 14.5313 0 11.5979
    endloop
  endfacet
  facet normal 0.891007 -1.00806e-16 -0.45399
    outer loop
      vertex 13.0056 4.7 9.49787
      vertex 13.6021 4.7 10.6687
      vertex 13.6021 0 10.6687
    endloop
  endfacet
  facet normal 0.891007 -1.00806e-16 -0.45399
    outer loop
      vertex 13.0056 0 9.49787
      vertex 13.0056 4.7 9.49787
      vertex 13.6021 0 10.6687
    endloop
  endfacet
  facet normal 0.987688 -3.47355e-17 -0.156435
    outer loop
      vertex 12.8 4.7 8.2
      vertex 13.0056 4.7 9.49787
      vertex 13.0056 0 9.49787
    endloop
  endfacet
  facet normal 0.987688 -3.47355e-17 -0.156435
    outer loop
      vertex 12.8 0 8.2
      vertex 12.8 4.7 8.2
      vertex 13.0056 0 9.49787
    endloop
  endfacet
  facet normal 0.987688 3.47355e-17 0.156435
    outer loop
      vertex 13.0056 0 6.90213
      vertex 13.0056 4.7 6.90213
      vertex 12.8 4.7 8.2
    endloop
  endfacet
  facet normal 0.987688 3.47355e-17 0.156435
    outer loop
      vertex 12.8 0 8.2
      vertex 13.0056 0 6.90213
      vertex 12.8 4.7 8.2
    endloop
  endfacet
  facet normal 0.891007 1.00806e-16 0.45399
    outer loop
      vertex 13.6021 0 5.7313
      vertex 13.6021 4.7 5.7313
      vertex 13.0056 4.7 6.90213
    endloop
  endfacet
  facet normal 0.891007 1.00806e-16 0.45399
    outer loop
      vertex 13.0056 0 6.90213
      vertex 13.6021 0 5.7313
      vertex 13.0056 4.7 6.90213
    endloop
  endfacet
  facet normal 0.707107 1.57009e-16 0.707107
    outer loop
      vertex 14.5313 0 4.80213
      vertex 14.5313 4.7 4.80213
      vertex 13.6021 4.7 5.7313
    endloop
  endfacet
  facet normal 0.707107 1.57009e-16 0.707107
    outer loop
      vertex 13.6021 0 5.7313
      vertex 14.5313 0 4.80213
      vertex 13.6021 4.7 5.7313
    endloop
  endfacet
  facet normal 0.45399 1.97843e-16 0.891007
    outer loop
      vertex 15.7021 0 4.20556
      vertex 15.7021 4.7 4.20556
      vertex 14.5313 4.7 4.80213
    endloop
  endfacet
  facet normal 0.45399 1.97843e-16 0.891007
    outer loop
      vertex 14.5313 0 4.80213
      vertex 15.7021 0 4.20556
      vertex 14.5313 4.7 4.80213
    endloop
  endfacet
  facet normal 0.156435 2.19311e-16 0.987688
    outer loop
      vertex 17 4.7 4
      vertex 15.9 8.82455e-16 4.17422
      vertex 17 8.43769e-16 4
    endloop
  endfacet
  facet normal 0.156435 2.19311e-16 0.987688
    outer loop
      vertex 15.7021 4.7 4.20556
      vertex 15.9 8.82455e-16 4.17422
      vertex 17 4.7 4
    endloop
  endfacet
  facet normal 0.156435 2.19311e-16 0.987688
    outer loop
      vertex 15.9 0 4.17422
      vertex 15.9 8.82455e-16 4.17422
      vertex 15.7021 4.7 4.20556
    endloop
  endfacet
  facet normal 0.156435 2.19311e-16 0.987688
    outer loop
      vertex 15.7021 0 4.20556
      vertex 15.9 0 4.17422
      vertex 15.7021 4.7 4.20556
    endloop
  endfacet
  facet normal 1 0 0
    outer loop
      vertex 15.9 0 4.17422
      vertex 15.9 0 0.2
      vertex 15.9 8.82455e-16 4.17422
    endloop
  endfacet
  facet normal 0 -1 2.22045e-16
    outer loop
      vertex 15.9 0 0.2
      vertex 13.1503 0 0.2
      vertex 13.2657 -4.44089e-17 3.19744e-15
    endloop
  endfacet
  facet normal 0 -1 2.22045e-16
    outer loop
      vertex 27.4685 1.77636e-15 8.2
      vertex 15.9 0 0.2
      vertex 22.7343 -4.44089e-17 3.19744e-15
    endloop
  endfacet
  facet normal 0 -1 2.22045e-16
    outer loop
      vertex 22.7343 -4.44089e-17 3.19744e-15
      vertex 15.9 0 0.2
      vertex 13.2657 -4.44089e-17 3.19744e-15
    endloop
  endfacet
  facet normal 0 -1 2.22045e-16
    outer loop
      vertex 13.2657 3.59712e-15 16.4
      vertex 15.9 3.59712e-15 16.4
      vertex 22.7343 3.59712e-15 16.4
    endloop
  endfacet
  facet normal 0 -1 2.22045e-16
    outer loop
      vertex 15.9 3.59712e-15 16.4
      vertex 15.9 2.67026e-15 12.2258
      vertex 22.7343 3.59712e-15 16.4
    endloop
  endfacet
  facet normal 0 -1 2.22045e-16
    outer loop
      vertex 15.9 2.67026e-15 12.2258
      vertex 17 2.70894e-15 12.4
      vertex 22.7343 3.59712e-15 16.4
    endloop
  endfacet
  facet normal 0 -1 2.22045e-16
    outer loop
      vertex 17 2.70894e-15 12.4
      vertex 18.2979 2.6633e-15 12.1944
      vertex 22.7343 3.59712e-15 16.4
    endloop
  endfacet
  facet normal 0 -1 2.22045e-16
    outer loop
      vertex 18.2979 2.6633e-15 12.1944
      vertex 19.4687 2.53084e-15 11.5979
      vertex 22.7343 3.59712e-15 16.4
    endloop
  endfacet
  facet normal 0 -1 2.22045e-16
    outer loop
      vertex 22.7343 3.59712e-15 16.4
      vertex 20.3979 2.32452e-15 10.6687
      vertex 27.4685 1.77636e-15 8.2
    endloop
  endfacet
  facet normal 0 -1 2.22045e-16
    outer loop
      vertex 20.3979 2.32452e-15 10.6687
      vertex 20.9944 2.06454e-15 9.49787
      vertex 27.4685 1.77636e-15 8.2
    endloop
  endfacet
  facet normal 0 -1 2.22045e-16
    outer loop
      vertex 20.9944 2.06454e-15 9.49787
      vertex 21.2 1.77636e-15 8.2
      vertex 27.4685 1.77636e-15 8.2
    endloop
  endfacet
  facet normal 0 -1 2.22045e-16
    outer loop
      vertex 21.2 1.77636e-15 8.2
      vertex 20.9944 1.48817e-15 6.90213
      vertex 27.4685 1.77636e-15 8.2
    endloop
  endfacet
  facet normal 0 -1 2.22045e-16
    outer loop
      vertex 20.9944 1.48817e-15 6.90213
      vertex 20.3979 1.2282e-15 5.7313
      vertex 27.4685 1.77636e-15 8.2
    endloop
  endfacet
  facet normal 0 -1 2.22045e-16
    outer loop
      vertex 20.3979 1.2282e-15 5.7313
      vertex 19.4687 1.02188e-15 4.80213
      vertex 27.4685 1.77636e-15 8.2
    endloop
  endfacet
  facet normal 0 -1 2.22045e-16
    outer loop
      vertex 19.4687 2.53084e-15 11.5979
      vertex 20.3979 2.32452e-15 10.6687
      vertex 22.7343 3.59712e-15 16.4
    endloop
  endfacet
  facet normal 0 -1 2.22045e-16
    outer loop
      vertex 18.2979 8.89414e-16 4.20556
      vertex 27.4685 1.77636e-15 8.2
      vertex 19.4687 1.02188e-15 4.80213
    endloop
  endfacet
  facet normal 0 -1 2.22045e-16
    outer loop
      vertex 18.2979 8.89414e-16 4.20556
      vertex 15.9 0 0.2
      vertex 27.4685 1.77636e-15 8.2
    endloop
  endfacet
  facet normal 0 -1 2.22045e-16
    outer loop
      vertex 17 8.43769e-16 4
      vertex 15.9 0 0.2
      vertex 18.2979 8.89414e-16 4.20556
    endloop
  endfacet
  facet normal 0 -1 2.22045e-16
    outer loop
      vertex 15.9 8.82455e-16 4.17422
      vertex 15.9 0 0.2
      vertex 17 8.43769e-16 4
    endloop
  endfacet
  facet normal -0.866025 -1.11022e-16 -0.5
    outer loop
      vertex 13.2657 -4.44089e-17 3.19744e-15
      vertex 13.1503 0 0.2
      vertex 13.2657 0 3.19744e-15
    endloop
  endfacet
  facet normal 0 -2.22045e-16 -1
    outer loop
      vertex 13.2657 -4.44089e-17 3.19744e-15
      vertex 13.2657 0 3.19744e-15
      vertex 22.7343 -4.44089e-17 3.19744e-15
    endloop
  endfacet
  facet normal 0 -2.22045e-16 -1
    outer loop
      vertex 22.7343 -4.44089e-17 3.19744e-15
      vertex 13.2657 0 3.19744e-15
      vertex 15.9 0 3.19744e-15
    endloop
  endfacet
  facet normal 0 -2.22045e-16 -1
    outer loop
      vertex 22.7343 -4.44089e-17 3.19744e-15
      vertex 15.9 0 3.19744e-15
      vertex 15.9 4.7 2.15383e-15
    endloop
  endfacet
  facet normal 0 -2.22045e-16 -1
    outer loop
      vertex 22.7343 -4.44089e-17 3.19744e-15
      vertex 15.9 4.7 2.15383e-15
      vertex 22.7343 4.7 2.15383e-15
    endloop
  endfacet
  facet normal 0.866025 -1.11022e-16 -0.5
    outer loop
      vertex 27.4685 1.77636e-15 8.2
      vertex 22.7343 -4.44089e-17 3.19744e-15
      vertex 22.7343 4.7 2.15383e-15
    endloop
  endfacet
  facet normal 0.866025 -1.11022e-16 -0.5
    outer loop
      vertex 27.4685 4.7 8.2
      vertex 27.4685 1.77636e-15 8.2
      vertex 22.7343 4.7 2.15383e-15
    endloop
  endfacet
  facet normal 0.866025 1.11022e-16 0.5
    outer loop
      vertex 22.7343 4.7 16.4
      vertex 22.7343 3.59712e-15 16.4
      vertex 27.4685 1.77636e-15 8.2
    endloop
  endfacet
  facet normal 0.866025 1.11022e-16 0.5
    outer loop
      vertex 27.4685 4.7 8.2
      vertex 22.7343 4.7 16.4
      vertex 27.4685 1.77636e-15 8.2
    endloop
  endfacet
  facet normal 0 2.22045e-16 1
    outer loop
      vertex 13.2657 4.7 16.4
      vertex 13.2657 3.59712e-15 16.4
      vertex 22.7343 3.59712e-15 16.4
    endloop
  endfacet
  facet normal 0 2.22045e-16 1
    outer loop
      vertex 22.7343 4.7 16.4
      vertex 13.2657 4.7 16.4
      vertex 22.7343 3.59712e-15 16.4
    endloop
  endfacet
  facet normal -0.156435 -2.19311e-16 -0.987688
    outer loop
      vertex 18.2979 4.7 12.1944
      vertex 18.2979 2.6633e-15 12.1944
      vertex 17 4.7 12.4
    endloop
  endfacet
  facet normal -0.156435 -2.19311e-16 -0.987688
    outer loop
      vertex 17 4.7 12.4
      vertex 18.2979 2.6633e-15 12.1944
      vertex 17 2.70894e-15 12.4
    endloop
  endfacet
  facet normal -0.45399 -1.97843e-16 -0.891007
    outer loop
      vertex 19.4687 4.7 11.5979
      vertex 19.4687 2.53084e-15 11.5979
      vertex 18.2979 4.7 12.1944
    endloop
  endfacet
  facet normal -0.45399 -1.97843e-16 -0.891007
    outer loop
      vertex 18.2979 4.7 12.1944
      vertex 19.4687 2.53084e-15 11.5979
      vertex 18.2979 2.6633e-15 12.1944
    endloop
  endfacet
  facet normal -0.707107 -1.57009e-16 -0.707107
    outer loop
      vertex 20.3979 4.7 10.6687
      vertex 20.3979 2.32452e-15 10.6687
      vertex 19.4687 4.7 11.5979
    endloop
  endfacet
  facet normal -0.707107 -1.57009e-16 -0.707107
    outer loop
      vertex 19.4687 4.7 11.5979
      vertex 20.3979 2.32452e-15 10.6687
      vertex 19.4687 2.53084e-15 11.5979
    endloop
  endfacet
  facet normal -0.891007 -1.00806e-16 -0.45399
    outer loop
      vertex 20.9944 4.7 9.49787
      vertex 20.9944 2.06454e-15 9.49787
      vertex 20.3979 4.7 10.6687
    endloop
  endfacet
  facet normal -0.891007 -1.00806e-16 -0.45399
    outer loop
      vertex 20.3979 4.7 10.6687
      vertex 20.9944 2.06454e-15 9.49787
      vertex 20.3979 2.32452e-15 10.6687
    endloop
  endfacet
  facet normal -0.987688 -3.47355e-17 -0.156435
    outer loop
      vertex 21.2 4.7 8.2
      vertex 21.2 1.77636e-15 8.2
      vertex 20.9944 4.7 9.49787
    endloop
  endfacet
  facet normal -0.987688 -3.47355e-17 -0.156435
    outer loop
      vertex 20.9944 4.7 9.49787
      vertex 21.2 1.77636e-15 8.2
      vertex 20.9944 2.06454e-15 9.49787
    endloop
  endfacet
  facet normal -0.987688 3.47355e-17 0.156435
    outer loop
      vertex 21.2 4.7 8.2
      vertex 20.9944 4.7 6.90213
      vertex 21.2 1.77636e-15 8.2
    endloop
  endfacet
  facet normal -0.987688 3.47355e-17 0.156435
    outer loop
      vertex 21.2 1.77636e-15 8.2
      vertex 20.9944 4.7 6.90213
      vertex 20.9944 1.48817e-15 6.90213
    endloop
  endfacet
  facet normal -0.891007 1.00806e-16 0.45399
    outer loop
      vertex 20.9944 4.7 6.90213
      vertex 20.3979 4.7 5.7313
      vertex 20.9944 1.48817e-15 6.90213
    endloop
  endfacet
  facet normal -0.891007 1.00806e-16 0.45399
    outer loop
      vertex 20.9944 1.48817e-15 6.90213
      vertex 20.3979 4.7 5.7313
      vertex 20.3979 1.2282e-15 5.7313
    endloop
  endfacet
  facet normal -0.707107 1.57009e-16 0.707107
    outer loop
      vertex 20.3979 4.7 5.7313
      vertex 19.4687 4.7 4.80213
      vertex 20.3979 1.2282e-15 5.7313
    endloop
  endfacet
  facet normal -0.707107 1.57009e-16 0.707107
    outer loop
      vertex 20.3979 1.2282e-15 5.7313
      vertex 19.4687 4.7 4.80213
      vertex 19.4687 1.02188e-15 4.80213
    endloop
  endfacet
  facet normal -0.45399 1.97843e-16 0.891007
    outer loop
      vertex 19.4687 1.02188e-15 4.80213
      vertex 19.4687 4.7 4.80213
      vertex 18.2979 4.7 4.20556
    endloop
  endfacet
  facet normal -0.45399 1.97843e-16 0.891007
    outer loop
      vertex 18.2979 8.89414e-16 4.20556
      vertex 19.4687 1.02188e-15 4.80213
      vertex 18.2979 4.7 4.20556
    endloop
  endfacet
  facet normal -0.156435 2.19311e-16 0.987688
    outer loop
      vertex 18.2979 8.89414e-16 4.20556
      vertex 18.2979 4.7 4.20556
      vertex 17 4.7 4
    endloop
  endfacet
  facet normal -0.156435 2.19311e-16 0.987688
    outer loop
      vertex 17 8.43769e-16 4
      vertex 18.2979 8.89414e-16 4.20556
      vertex 17 4.7 4
    endloop
  endfacet
  facet normal 0 2.22045e-16 1
    outer loop
      vertex 13.2657 14.4 16.4
      vertex 13.2657 9.7 16.4
      vertex 22.7343 9.7 16.4
    endloop
  endfacet
  facet normal 0 2.22045e-16 1
    outer loop
      vertex 22.7343 14.4 16.4
      vertex 13.2657 14.4 16.4
      vertex 22.7343 9.7 16.4
    endloop
  endfacet
  facet normal 0.866025 1.11022e-16 0.5
    outer loop
      vertex 22.7343 14.4 16.4
      vertex 22.7343 9.7 16.4
      vertex 27.4685 9.7 8.2
    endloop
  endfacet
  facet normal 0.866025 1.11022e-16 0.5
    outer loop
      vertex 27.4685 14.4 8.2
      vertex 22.7343 14.4 16.4
      vertex 27.4685 9.7 8.2
    endloop
  endfacet
  facet normal 0.866025 -1.11022e-16 -0.5
    outer loop
      vertex 27.4685 9.7 8.2
      vertex 22.7343 9.7 1.04361e-15
      vertex 22.7343 14.4 0
    endloop
  endfacet
  facet normal 0.866025 -1.11022e-16 -0.5
    outer loop
      vertex 27.4685 14.4 8.2
      vertex 27.4685 9.7 8.2
      vertex 22.7343 14.4 0
    endloop
  endfacet
  facet normal 0.987688 -3.47355e-17 -0.156435
    outer loop
      vertex 12.8 14.4 8.2
      vertex 13.0056 14.4 9.49787
      vertex 13.0056 9.7 9.49787
    endloop
  endfacet
  facet normal 0.987688 -3.47355e-17 -0.156435
    outer loop
      vertex 12.8 9.7 8.2
      vertex 12.8 14.4 8.2
      vertex 13.0056 9.7 9.49787
    endloop
  endfacet
  facet normal 0.987688 3.47355e-17 0.156435
    outer loop
      vertex 13.0056 9.7 6.90213
      vertex 13.0056 14.4 6.90213
      vertex 12.8 14.4 8.2
    endloop
  endfacet
  facet normal 0.987688 3.47355e-17 0.156435
    outer loop
      vertex 12.8 9.7 8.2
      vertex 13.0056 9.7 6.90213
      vertex 12.8 14.4 8.2
    endloop
  endfacet
  facet normal 0.891007 1.00806e-16 0.45399
    outer loop
      vertex 13.6021 9.7 5.7313
      vertex 13.6021 14.4 5.7313
      vertex 13.0056 14.4 6.90213
    endloop
  endfacet
  facet normal 0.891007 1.00806e-16 0.45399
    outer loop
      vertex 13.0056 9.7 6.90213
      vertex 13.6021 9.7 5.7313
      vertex 13.0056 14.4 6.90213
    endloop
  endfacet
  facet normal 0.707107 1.57009e-16 0.707107
    outer loop
      vertex 14.5313 9.7 4.80213
      vertex 14.5313 14.4 4.80213
      vertex 13.6021 14.4 5.7313
    endloop
  endfacet
  facet normal 0.707107 1.57009e-16 0.707107
    outer loop
      vertex 13.6021 9.7 5.7313
      vertex 14.5313 9.7 4.80213
      vertex 13.6021 14.4 5.7313
    endloop
  endfacet
  facet normal 0.45399 1.97843e-16 0.891007
    outer loop
      vertex 15.7021 9.7 4.20556
      vertex 15.7021 14.4 4.20556
      vertex 14.5313 14.4 4.80213
    endloop
  endfacet
  facet normal 0.45399 1.97843e-16 0.891007
    outer loop
      vertex 14.5313 9.7 4.80213
      vertex 15.7021 9.7 4.20556
      vertex 14.5313 14.4 4.80213
    endloop
  endfacet
  facet normal 0.156435 2.19311e-16 0.987688
    outer loop
      vertex 17 9.7 4
      vertex 17 14.4 4
      vertex 15.7021 14.4 4.20556
    endloop
  endfacet
  facet normal 0.156435 2.19311e-16 0.987688
    outer loop
      vertex 15.7021 9.7 4.20556
      vertex 17 9.7 4
      vertex 15.7021 14.4 4.20556
    endloop
  endfacet
  facet normal -0.156435 2.19311e-16 0.987688
    outer loop
      vertex 18.2979 9.7 4.20556
      vertex 18.2979 14.4 4.20556
      vertex 17 14.4 4
    endloop
  endfacet
  facet normal -0.156435 2.19311e-16 0.987688
    outer loop
      vertex 17 9.7 4
      vertex 18.2979 9.7 4.20556
      vertex 17 14.4 4
    endloop
  endfacet
  facet normal -0.45399 1.97843e-16 0.891007
    outer loop
      vertex 19.4687 9.7 4.80213
      vertex 19.4687 14.4 4.80213
      vertex 18.2979 14.4 4.20556
    endloop
  endfacet
  facet normal -0.45399 1.97843e-16 0.891007
    outer loop
      vertex 18.2979 9.7 4.20556
      vertex 19.4687 9.7 4.80213
      vertex 18.2979 14.4 4.20556
    endloop
  endfacet
  facet normal -0.707107 1.57009e-16 0.707107
    outer loop
      vertex 20.3979 14.4 5.7313
      vertex 19.4687 14.4 4.80213
      vertex 20.3979 9.7 5.7313
    endloop
  endfacet
  facet normal -0.707107 1.57009e-16 0.707107
    outer loop
      vertex 20.3979 9.7 5.7313
      vertex 19.4687 14.4 4.80213
      vertex 19.4687 9.7 4.80213
    endloop
  endfacet
  facet normal -0.891007 1.00806e-16 0.45399
    outer loop
      vertex 20.9944 14.4 6.90213
      vertex 20.3979 14.4 5.7313
      vertex 20.9944 9.7 6.90213
    endloop
  endfacet
  facet normal -0.891007 1.00806e-16 0.45399
    outer loop
      vertex 20.9944 9.7 6.90213
      vertex 20.3979 14.4 5.7313
      vertex 20.3979 9.7 5.7313
    endloop
  endfacet
  facet normal -0.987688 3.47355e-17 0.156435
    outer loop
      vertex 21.2 14.4 8.2
      vertex 20.9944 14.4 6.90213
      vertex 21.2 9.7 8.2
    endloop
  endfacet
  facet normal -0.987688 3.47355e-17 0.156435
    outer loop
      vertex 21.2 9.7 8.2
      vertex 20.9944 14.4 6.90213
      vertex 20.9944 9.7 6.90213
    endloop
  endfacet
  facet normal -0.987688 -3.47355e-17 -0.156435
    outer loop
      vertex 21.2 14.4 8.2
      vertex 21.2 9.7 8.2
      vertex 20.9944 14.4 9.49787
    endloop
  endfacet
  facet normal -0.987688 -3.47355e-17 -0.156435
    outer loop
      vertex 20.9944 14.4 9.49787
      vertex 21.2 9.7 8.2
      vertex 20.9944 9.7 9.49787
    endloop
  endfacet
  facet normal -0.891007 -1.00806e-16 -0.45399
    outer loop
      vertex 20.9944 14.4 9.49787
      vertex 20.9944 9.7 9.49787
      vertex 20.3979 14.4 10.6687
    endloop
  endfacet
  facet normal -0.891007 -1.00806e-16 -0.45399
    outer loop
      vertex 20.3979 14.4 10.6687
      vertex 20.9944 9.7 9.49787
      vertex 20.3979 9.7 10.6687
    endloop
  endfacet
  facet normal -0.707107 -1.57009e-16 -0.707107
    outer loop
      vertex 20.3979 14.4 10.6687
      vertex 20.3979 9.7 10.6687
      vertex 19.4687 14.4 11.5979
    endloop
  endfacet
  facet normal -0.707107 -1.57009e-16 -0.707107
    outer loop
      vertex 19.4687 14.4 11.5979
      vertex 20.3979 9.7 10.6687
      vertex 19.4687 9.7 11.5979
    endloop
  endfacet
  facet normal -0.45399 -1.97843e-16 -0.891007
    outer loop
      vertex 19.4687 14.4 11.5979
      vertex 19.4687 9.7 11.5979
      vertex 18.2979 14.4 12.1944
    endloop
  endfacet
  facet normal -0.45399 -1.97843e-16 -0.891007
    outer loop
      vertex 18.2979 14.4 12.1944
      vertex 19.4687 9.7 11.5979
      vertex 18.2979 9.7 12.1944
    endloop
  endfacet
  facet normal -0.156435 -2.19311e-16 -0.987688
    outer loop
      vertex 18.2979 14.4 12.1944
      vertex 18.2979 9.7 12.1944
      vertex 17 14.4 12.4
    endloop
  endfacet
  facet normal -0.156435 -2.19311e-16 -0.987688
    outer loop
      vertex 17 14.4 12.4
      vertex 18.2979 9.7 12.1944
      vertex 17 9.7 12.4
    endloop
  endfacet
  facet normal 0.156435 -2.19311e-16 -0.987688
    outer loop
      vertex 17 14.4 12.4
      vertex 17 9.7 12.4
      vertex 15.7021 14.4 12.1944
    endloop
  endfacet
  facet normal 0.156435 -2.19311e-16 -0.987688
    outer loop
      vertex 15.7021 14.4 12.1944
      vertex 17 9.7 12.4
      vertex 15.7021 9.7 12.1944
    endloop
  endfacet
  facet normal 0.45399 -1.97843e-16 -0.891007
    outer loop
      vertex 15.7021 14.4 12.1944
      vertex 15.7021 9.7 12.1944
      vertex 14.5313 14.4 11.5979
    endloop
  endfacet
  facet normal 0.45399 -1.97843e-16 -0.891007
    outer loop
      vertex 14.5313 14.4 11.5979
      vertex 15.7021 9.7 12.1944
      vertex 14.5313 9.7 11.5979
    endloop
  endfacet
  facet normal 0.707107 -1.57009e-16 -0.707107
    outer loop
      vertex 13.6021 14.4 10.6687
      vertex 14.5313 14.4 11.5979
      vertex 14.5313 9.7 11.5979
    endloop
  endfacet
  facet normal 0.707107 -1.57009e-16 -0.707107
    outer loop
      vertex 13.6021 9.7 10.6687
      vertex 13.6021 14.4 10.6687
      vertex 14.5313 9.7 11.5979
    endloop
  endfacet
  facet normal 0.891007 -1.00806e-16 -0.45399
    outer loop
      vertex 13.0056 14.4 9.49787
      vertex 13.6021 14.4 10.6687
      vertex 13.6021 9.7 10.6687
    endloop
  endfacet
  facet normal 0.891007 -1.00806e-16 -0.45399
    outer loop
      vertex 13.0056 9.7 9.49787
      vertex 13.0056 14.4 9.49787
      vertex 13.6021 9.7 10.6687
    endloop
  endfacet
endsolid OpenSCAD_Model
