solid OpenSCAD_Model
  facet normal -0.000000 0.000000 -1.000000
    outer loop
      vertex 0.000000 6.900000 0.000000
      vertex 0.337710 9.032217 0.000000
      vertex 0.337710 4.767783 0.000000
    endloop
  endfacet
  facet normal 0.000000 -0.000000 -1.000000
    outer loop
      vertex 0.337710 4.767783 0.000000
      vertex 0.337710 9.032217 0.000000
      vertex 1.317783 10.955718 0.000000
    endloop
  endfacet
  facet normal 0.000000 0.000000 -1.000000
    outer loop
      vertex 0.337710 4.767783 0.000000
      vertex 1.317783 10.955718 0.000000
      vertex 2.844282 12.482217 0.000000
    endloop
  endfacet
  facet normal 0.000000 0.000000 -1.000000
    outer loop
      vertex 0.337710 4.767783 0.000000
      vertex 2.844282 12.482217 0.000000
      vertex 4.767783 13.462290 0.000000
    endloop
  endfacet
  facet normal 0.000000 0.000000 -1.000000
    outer loop
      vertex 3.759218 9.535429 0.000000
      vertex 4.767783 13.462290 0.000000
      vertex 6.900000 13.800000 0.000000
    endloop
  endfacet
  facet normal 0.000000 -0.000000 -1.000000
    outer loop
      vertex 8.950000 10.450704 0.000000
      vertex 6.900000 13.800000 0.000000
      vertex 15.300000 13.800000 0.000000
    endloop
  endfacet
  facet normal -0.000000 0.000000 -1.000000
    outer loop
      vertex 10.118972 9.400000 0.000000
      vertex 15.300000 13.800000 0.000000
      vertex 15.300000 9.400000 0.000000
    endloop
  endfacet
  facet normal -0.000000 0.000000 -1.000000
    outer loop
      vertex 10.040782 9.535429 0.000000
      vertex 15.300000 13.800000 0.000000
      vertex 10.118972 9.400000 0.000000
    endloop
  endfacet
  facet normal 0.000000 0.000000 -1.000000
    outer loop
      vertex 3.759218 9.535429 0.000000
      vertex 6.900000 13.800000 0.000000
      vertex 4.850000 10.450704 0.000000
    endloop
  endfacet
  facet normal -0.000000 -0.000000 -1.000000
    outer loop
      vertex 7.611958 10.937712 0.000000
      vertex 6.900000 13.800000 0.000000
      vertex 8.950000 10.450704 0.000000
    endloop
  endfacet
  facet normal -0.000000 0.000000 -1.000000
    outer loop
      vertex 6.188042 10.937712 0.000000
      vertex 6.900000 13.800000 0.000000
      vertex 7.611958 10.937712 0.000000
    endloop
  endfacet
  facet normal 0.000000 0.000000 -1.000000
    outer loop
      vertex 4.850000 10.450704 0.000000
      vertex 6.900000 13.800000 0.000000
      vertex 6.188042 10.937712 0.000000
    endloop
  endfacet
  facet normal 0.000000 0.000000 -1.000000
    outer loop
      vertex 0.337710 4.767783 0.000000
      vertex 4.767783 13.462290 0.000000
      vertex 3.759218 9.535429 0.000000
    endloop
  endfacet
  facet normal 0.000000 -0.000000 -1.000000
    outer loop
      vertex 2.800000 6.900000 0.000000
      vertex 0.337710 4.767783 0.000000
      vertex 3.047260 8.302283 0.000000
    endloop
  endfacet
  facet normal 0.000000 0.000000 -1.000000
    outer loop
      vertex 3.047260 5.497717 0.000000
      vertex 0.337710 4.767783 0.000000
      vertex 2.800000 6.900000 0.000000
    endloop
  endfacet
  facet normal 0.000000 0.000000 -1.000000
    outer loop
      vertex 15.300000 4.400000 0.000000
      vertex 10.040782 4.264571 0.000000
      vertex 10.118972 4.400000 0.000000
    endloop
  endfacet
  facet normal -0.000000 0.000000 -1.000000
    outer loop
      vertex 0.337710 4.767783 0.000000
      vertex 3.047260 5.497717 0.000000
      vertex 3.759218 4.264571 0.000000
    endloop
  endfacet
  facet normal 0.000000 0.000000 -1.000000
    outer loop
      vertex 3.759218 4.264571 0.000000
      vertex 4.850000 3.349296 0.000000
      vertex 0.337710 4.767783 0.000000
    endloop
  endfacet
  facet normal 0.000000 0.000000 -1.000000
    outer loop
      vertex 4.850000 3.349296 0.000000
      vertex 6.188042 2.862288 0.000000
      vertex 0.337710 4.767783 0.000000
    endloop
  endfacet
  facet normal -0.000000 0.000000 -1.000000
    outer loop
      vertex 4.767783 0.337710 0.000000
      vertex 6.188042 2.862288 0.000000
      vertex 6.900000 0.000000 0.000000
    endloop
  endfacet
  facet normal -0.000000 0.000000 -1.000000
    outer loop
      vertex 8.950000 3.349296 0.000000
      vertex 15.300000 4.400000 0.000000
      vertex 7.611958 2.862288 0.000000
    endloop
  endfacet
  facet normal 0.000000 -0.000000 -1.000000
    outer loop
      vertex 4.767783 0.337710 0.000000
      vertex 0.337710 4.767783 0.000000
      vertex 6.188042 2.862288 0.000000
    endloop
  endfacet
  facet normal -0.000000 0.000000 -1.000000
    outer loop
      vertex 10.040782 4.264571 0.000000
      vertex 15.300000 4.400000 0.000000
      vertex 8.950000 3.349296 0.000000
    endloop
  endfacet
  facet normal -0.000000 0.000000 -1.000000
    outer loop
      vertex 7.611958 2.862288 0.000000
      vertex 15.300000 4.400000 0.000000
      vertex 15.300000 0.000000 0.000000
    endloop
  endfacet
  facet normal 0.000000 0.000000 -1.000000
    outer loop
      vertex 7.611958 2.862288 0.000000
      vertex 15.300000 0.000000 0.000000
      vertex 6.188042 2.862288 0.000000
    endloop
  endfacet
  facet normal 0.000000 0.000000 -1.000000
    outer loop
      vertex 6.188042 2.862288 0.000000
      vertex 15.300000 0.000000 0.000000
      vertex 6.900000 0.000000 0.000000
    endloop
  endfacet
  facet normal 0.000000 0.000000 -1.000000
    outer loop
      vertex 0.337710 4.767783 0.000000
      vertex 4.767783 0.337710 0.000000
      vertex 2.844282 1.317783 0.000000
    endloop
  endfacet
  facet normal 0.000000 0.000000 -1.000000
    outer loop
      vertex 0.337710 4.767783 0.000000
      vertex 2.844282 1.317783 0.000000
      vertex 1.317783 2.844282 0.000000
    endloop
  endfacet
  facet normal -0.000000 0.000000 -1.000000
    outer loop
      vertex 8.950000 10.450704 0.000000
      vertex 15.300000 13.800000 0.000000
      vertex 10.040782 9.535429 0.000000
    endloop
  endfacet
  facet normal 0.000000 -0.000000 -1.000000
    outer loop
      vertex 3.047260 8.302283 0.000000
      vertex 0.337710 4.767783 0.000000
      vertex 3.759218 9.535429 0.000000
    endloop
  endfacet
  facet normal -0.987688 0.156434 0.000000
    outer loop
      vertex 0.000000 6.900000 0.000000
      vertex 0.000000 6.900000 15.800000
      vertex 0.337710 9.032217 0.000000
    endloop
  endfacet
  facet normal -0.987688 0.156434 0.000000
    outer loop
      vertex 0.337710 9.032217 0.000000
      vertex 0.000000 6.900000 15.800000
      vertex 0.337710 9.032217 15.800000
    endloop
  endfacet
  facet normal -0.987688 -0.156434 -0.000000
    outer loop
      vertex 0.000000 6.900000 0.000000
      vertex 0.337710 4.767783 0.000000
      vertex 0.000000 6.900000 15.800000
    endloop
  endfacet
  facet normal -0.987688 -0.156434 0.000000
    outer loop
      vertex 0.000000 6.900000 15.800000
      vertex 0.337710 4.767783 0.000000
      vertex 0.337710 4.767783 15.800000
    endloop
  endfacet
  facet normal -0.891006 -0.453991 -0.000000
    outer loop
      vertex 0.337710 4.767783 0.000000
      vertex 1.317783 2.844282 0.000000
      vertex 0.337710 4.767783 15.800000
    endloop
  endfacet
  facet normal -0.891006 -0.453991 0.000000
    outer loop
      vertex 0.337710 4.767783 15.800000
      vertex 1.317783 2.844282 0.000000
      vertex 1.317783 2.844282 15.800000
    endloop
  endfacet
  facet normal -0.707107 -0.707107 0.000000
    outer loop
      vertex 1.317783 2.844282 15.800000
      vertex 1.317783 2.844282 0.000000
      vertex 2.844282 1.317783 0.000000
    endloop
  endfacet
  facet normal -0.707107 -0.707107 0.000000
    outer loop
      vertex 2.844282 1.317783 15.800000
      vertex 1.317783 2.844282 15.800000
      vertex 2.844282 1.317783 0.000000
    endloop
  endfacet
  facet normal -0.453991 -0.891006 0.000000
    outer loop
      vertex 2.844282 1.317783 15.800000
      vertex 2.844282 1.317783 0.000000
      vertex 4.767783 0.337710 0.000000
    endloop
  endfacet
  facet normal -0.453991 -0.891006 0.000000
    outer loop
      vertex 4.767783 0.337710 15.800000
      vertex 2.844282 1.317783 15.800000
      vertex 4.767783 0.337710 0.000000
    endloop
  endfacet
  facet normal -0.156434 -0.987688 0.000000
    outer loop
      vertex 4.767783 0.337710 15.800000
      vertex 4.767783 0.337710 0.000000
      vertex 6.900000 0.000000 0.000000
    endloop
  endfacet
  facet normal -0.156434 -0.987688 0.000000
    outer loop
      vertex 6.900000 0.000000 15.800000
      vertex 4.767783 0.337710 15.800000
      vertex 6.900000 0.000000 0.000000
    endloop
  endfacet
  facet normal 0.000000 -1.000000 0.000000
    outer loop
      vertex 6.900000 0.000000 15.800000
      vertex 6.900000 0.000000 0.000000
      vertex 15.300000 0.000000 0.000000
    endloop
  endfacet
  facet normal 0.000000 -1.000000 0.000000
    outer loop
      vertex 13.359424 0.000000 5.254966
      vertex 6.900000 0.000000 15.800000
      vertex 15.300000 0.000000 0.000000
    endloop
  endfacet
  facet normal 0.000000 -1.000000 0.000000
    outer loop
      vertex 15.300000 0.000000 3.777905
      vertex 14.354966 0.000000 4.259424
      vertex 15.300000 0.000000 0.000000
    endloop
  endfacet
  facet normal 0.000000 -1.000000 0.000000
    outer loop
      vertex 14.354966 0.000000 4.259424
      vertex 13.359424 0.000000 5.254966
      vertex 15.300000 0.000000 0.000000
    endloop
  endfacet
  facet normal 0.000000 -1.000000 0.000000
    outer loop
      vertex 12.720246 0.000000 6.509424
      vertex 6.900000 0.000000 15.800000
      vertex 13.359424 0.000000 5.254966
    endloop
  endfacet
  facet normal 0.000000 -1.000000 0.000000
    outer loop
      vertex 12.720246 0.000000 9.290576
      vertex 6.900000 0.000000 15.800000
      vertex 12.500000 0.000000 7.900000
    endloop
  endfacet
  facet normal 0.000000 -1.000000 0.000000
    outer loop
      vertex 13.359424 0.000000 10.545034
      vertex 6.900000 0.000000 15.800000
      vertex 12.720246 0.000000 9.290576
    endloop
  endfacet
  facet normal 0.000000 -1.000000 0.000000
    outer loop
      vertex 14.354966 0.000000 11.540576
      vertex 6.900000 0.000000 15.800000
      vertex 13.359424 0.000000 10.545034
    endloop
  endfacet
  facet normal 0.000000 -1.000000 0.000000
    outer loop
      vertex 15.300000 0.000000 12.022095
      vertex 6.900000 0.000000 15.800000
      vertex 14.354966 0.000000 11.540576
    endloop
  endfacet
  facet normal 0.000000 -1.000000 0.000000
    outer loop
      vertex 15.300000 0.000000 15.800000
      vertex 6.900000 0.000000 15.800000
      vertex 15.300000 0.000000 12.022095
    endloop
  endfacet
  facet normal 0.000000 -1.000000 0.000000
    outer loop
      vertex 12.720246 0.000000 6.509424
      vertex 12.500000 0.000000 7.900000
      vertex 6.900000 0.000000 15.800000
    endloop
  endfacet
  facet normal 0.000000 1.000000 0.000000
    outer loop
      vertex 13.438933 4.400000 15.800000
      vertex 22.561067 4.400000 15.800000
      vertex 27.122134 4.400000 7.900000
    endloop
  endfacet
  facet normal 0.000000 1.000000 0.000000
    outer loop
      vertex 17.000000 4.400000 12.400000
      vertex 10.118972 4.400000 15.800000
      vertex 18.390576 4.400000 12.179754
    endloop
  endfacet
  facet normal 0.000000 1.000000 0.000000
    outer loop
      vertex 19.645034 4.400000 11.540576
      vertex 27.122134 4.400000 7.900000
      vertex 20.640576 4.400000 10.545034
    endloop
  endfacet
  facet normal 0.000000 1.000000 -0.000000
    outer loop
      vertex 19.645034 4.400000 4.259424
      vertex 22.561067 4.400000 0.000000
      vertex 18.390576 4.400000 3.620246
    endloop
  endfacet
  facet normal -0.000000 1.000000 0.000000
    outer loop
      vertex 12.720246 4.400000 6.509424
      vertex 10.118972 4.400000 0.000000
      vertex 10.118972 4.400000 15.800000
    endloop
  endfacet
  facet normal -0.000000 1.000000 0.000000
    outer loop
      vertex 15.300000 4.400000 0.000000
      vertex 10.118972 4.400000 0.000000
      vertex 12.720246 4.400000 6.509424
    endloop
  endfacet
  facet normal -0.000000 1.000000 -0.000000
    outer loop
      vertex 12.500000 4.400000 7.900000
      vertex 12.720246 4.400000 6.509424
      vertex 10.118972 4.400000 15.800000
    endloop
  endfacet
  facet normal 0.000000 1.000000 0.000000
    outer loop
      vertex 15.300000 4.400000 0.000000
      vertex 12.720246 4.400000 6.509424
      vertex 13.359424 4.400000 5.254966
    endloop
  endfacet
  facet normal -0.000000 1.000000 0.000000
    outer loop
      vertex 22.561067 4.400000 0.000000
      vertex 15.300000 4.400000 0.000000
      vertex 14.354966 4.400000 4.259424
    endloop
  endfacet
  facet normal 0.000000 1.000000 0.000000
    outer loop
      vertex 22.561067 4.400000 0.000000
      vertex 14.354966 4.400000 4.259424
      vertex 15.609424 4.400000 3.620246
    endloop
  endfacet
  facet normal 0.000000 1.000000 0.000000
    outer loop
      vertex 22.561067 4.400000 0.000000
      vertex 15.609424 4.400000 3.620246
      vertex 17.000000 4.400000 3.400000
    endloop
  endfacet
  facet normal 0.000000 1.000000 0.000000
    outer loop
      vertex 22.561067 4.400000 0.000000
      vertex 17.000000 4.400000 3.400000
      vertex 18.390576 4.400000 3.620246
    endloop
  endfacet
  facet normal 0.000000 1.000000 0.000000
    outer loop
      vertex 15.609424 4.400000 12.179754
      vertex 10.118972 4.400000 15.800000
      vertex 17.000000 4.400000 12.400000
    endloop
  endfacet
  facet normal 0.000000 1.000000 0.000000
    outer loop
      vertex 27.122134 4.400000 7.900000
      vertex 22.561067 4.400000 0.000000
      vertex 19.645034 4.400000 4.259424
    endloop
  endfacet
  facet normal 0.000000 1.000000 0.000000
    outer loop
      vertex 27.122134 4.400000 7.900000
      vertex 19.645034 4.400000 4.259424
      vertex 20.640576 4.400000 5.254966
    endloop
  endfacet
  facet normal 0.000000 1.000000 0.000000
    outer loop
      vertex 27.122134 4.400000 7.900000
      vertex 20.640576 4.400000 5.254966
      vertex 21.279754 4.400000 6.509424
    endloop
  endfacet
  facet normal 0.000000 1.000000 0.000000
    outer loop
      vertex 27.122134 4.400000 7.900000
      vertex 21.279754 4.400000 6.509424
      vertex 21.500000 4.400000 7.900000
    endloop
  endfacet
  facet normal -0.000000 1.000000 0.000000
    outer loop
      vertex 27.122134 4.400000 7.900000
      vertex 21.500000 4.400000 7.900000
      vertex 21.279754 4.400000 9.290576
    endloop
  endfacet
  facet normal 0.000000 1.000000 0.000000
    outer loop
      vertex 27.122134 4.400000 7.900000
      vertex 21.279754 4.400000 9.290576
      vertex 20.640576 4.400000 10.545034
    endloop
  endfacet
  facet normal 0.000000 1.000000 0.000000
    outer loop
      vertex 13.438933 4.400000 15.800000
      vertex 27.122134 4.400000 7.900000
      vertex 19.645034 4.400000 11.540576
    endloop
  endfacet
  facet normal 0.000000 1.000000 0.000000
    outer loop
      vertex 13.438933 4.400000 15.800000
      vertex 19.645034 4.400000 11.540576
      vertex 18.390576 4.400000 12.179754
    endloop
  endfacet
  facet normal 0.000000 1.000000 -0.000000
    outer loop
      vertex 13.438933 4.400000 15.800000
      vertex 18.390576 4.400000 12.179754
      vertex 10.118972 4.400000 15.800000
    endloop
  endfacet
  facet normal 0.000000 1.000000 0.000000
    outer loop
      vertex 14.354966 4.400000 11.540576
      vertex 10.118972 4.400000 15.800000
      vertex 15.609424 4.400000 12.179754
    endloop
  endfacet
  facet normal 0.000000 1.000000 0.000000
    outer loop
      vertex 13.359424 4.400000 10.545034
      vertex 10.118972 4.400000 15.800000
      vertex 14.354966 4.400000 11.540576
    endloop
  endfacet
  facet normal 0.000000 1.000000 0.000000
    outer loop
      vertex 12.720246 4.400000 9.290576
      vertex 10.118972 4.400000 15.800000
      vertex 13.359424 4.400000 10.545034
    endloop
  endfacet
  facet normal 0.000000 1.000000 0.000000
    outer loop
      vertex 12.500000 4.400000 7.900000
      vertex 10.118972 4.400000 15.800000
      vertex 12.720246 4.400000 9.290576
    endloop
  endfacet
  facet normal -0.000000 1.000000 -0.000000
    outer loop
      vertex 14.354966 4.400000 4.259424
      vertex 15.300000 4.400000 0.000000
      vertex 13.359424 4.400000 5.254966
    endloop
  endfacet
  facet normal -0.866025 0.500000 0.000000
    outer loop
      vertex 10.118972 4.400000 15.800000
      vertex 10.118972 4.400000 0.000000
      vertex 10.040782 4.264571 15.800000
    endloop
  endfacet
  facet normal -0.866025 0.500000 0.000000
    outer loop
      vertex 10.040782 4.264571 15.800000
      vertex 10.118972 4.400000 0.000000
      vertex 10.040782 4.264571 0.000000
    endloop
  endfacet
  facet normal -0.642788 0.766044 0.000000
    outer loop
      vertex 10.040782 4.264571 15.800000
      vertex 10.040782 4.264571 0.000000
      vertex 8.950000 3.349296 15.800000
    endloop
  endfacet
  facet normal -0.642788 0.766044 0.000000
    outer loop
      vertex 8.950000 3.349296 15.800000
      vertex 10.040782 4.264571 0.000000
      vertex 8.950000 3.349296 0.000000
    endloop
  endfacet
  facet normal -0.342020 0.939692 0.000000
    outer loop
      vertex 8.950000 3.349296 15.800000
      vertex 8.950000 3.349296 0.000000
      vertex 7.611958 2.862288 15.800000
    endloop
  endfacet
  facet normal -0.342020 0.939692 0.000000
    outer loop
      vertex 7.611958 2.862288 15.800000
      vertex 8.950000 3.349296 0.000000
      vertex 7.611958 2.862288 0.000000
    endloop
  endfacet
  facet normal 0.000000 1.000000 0.000000
    outer loop
      vertex 7.611958 2.862288 15.800000
      vertex 7.611958 2.862288 0.000000
      vertex 6.188042 2.862288 15.800000
    endloop
  endfacet
  facet normal 0.000000 1.000000 -0.000000
    outer loop
      vertex 6.188042 2.862288 15.800000
      vertex 7.611958 2.862288 0.000000
      vertex 6.188042 2.862288 0.000000
    endloop
  endfacet
  facet normal 0.342020 0.939692 -0.000000
    outer loop
      vertex 6.188042 2.862288 15.800000
      vertex 6.188042 2.862288 0.000000
      vertex 4.850000 3.349296 15.800000
    endloop
  endfacet
  facet normal 0.342020 0.939692 -0.000000
    outer loop
      vertex 4.850000 3.349296 15.800000
      vertex 6.188042 2.862288 0.000000
      vertex 4.850000 3.349296 0.000000
    endloop
  endfacet
  facet normal 0.642788 0.766044 -0.000000
    outer loop
      vertex 4.850000 3.349296 15.800000
      vertex 4.850000 3.349296 0.000000
      vertex 3.759218 4.264571 15.800000
    endloop
  endfacet
  facet normal 0.642788 0.766044 -0.000000
    outer loop
      vertex 3.759218 4.264571 15.800000
      vertex 4.850000 3.349296 0.000000
      vertex 3.759218 4.264571 0.000000
    endloop
  endfacet
  facet normal 0.866025 0.500000 0.000000
    outer loop
      vertex 3.047260 5.497717 15.800000
      vertex 3.759218 4.264571 15.800000
      vertex 3.759218 4.264571 0.000000
    endloop
  endfacet
  facet normal 0.866025 0.500000 0.000000
    outer loop
      vertex 3.047260 5.497717 0.000000
      vertex 3.047260 5.497717 15.800000
      vertex 3.759218 4.264571 0.000000
    endloop
  endfacet
  facet normal 0.984808 0.173648 0.000000
    outer loop
      vertex 2.800000 6.900000 15.800000
      vertex 3.047260 5.497717 15.800000
      vertex 3.047260 5.497717 0.000000
    endloop
  endfacet
  facet normal 0.984808 0.173648 0.000000
    outer loop
      vertex 2.800000 6.900000 0.000000
      vertex 2.800000 6.900000 15.800000
      vertex 3.047260 5.497717 0.000000
    endloop
  endfacet
  facet normal 0.984808 -0.173648 0.000000
    outer loop
      vertex 3.047260 8.302283 0.000000
      vertex 3.047260 8.302283 15.800000
      vertex 2.800000 6.900000 15.800000
    endloop
  endfacet
  facet normal 0.984808 -0.173648 0.000000
    outer loop
      vertex 2.800000 6.900000 0.000000
      vertex 3.047260 8.302283 0.000000
      vertex 2.800000 6.900000 15.800000
    endloop
  endfacet
  facet normal 0.866025 -0.500000 0.000000
    outer loop
      vertex 3.759218 9.535429 0.000000
      vertex 3.759218 9.535429 15.800000
      vertex 3.047260 8.302283 15.800000
    endloop
  endfacet
  facet normal 0.866025 -0.500000 0.000000
    outer loop
      vertex 3.047260 8.302283 0.000000
      vertex 3.759218 9.535429 0.000000
      vertex 3.047260 8.302283 15.800000
    endloop
  endfacet
  facet normal 0.642788 -0.766044 0.000000
    outer loop
      vertex 4.850000 10.450704 0.000000
      vertex 4.850000 10.450704 15.800000
      vertex 3.759218 9.535429 15.800000
    endloop
  endfacet
  facet normal 0.642788 -0.766044 0.000000
    outer loop
      vertex 3.759218 9.535429 0.000000
      vertex 4.850000 10.450704 0.000000
      vertex 3.759218 9.535429 15.800000
    endloop
  endfacet
  facet normal 0.342020 -0.939692 0.000000
    outer loop
      vertex 6.188042 10.937712 0.000000
      vertex 6.188042 10.937712 15.800000
      vertex 4.850000 10.450704 15.800000
    endloop
  endfacet
  facet normal 0.342020 -0.939692 0.000000
    outer loop
      vertex 4.850000 10.450704 0.000000
      vertex 6.188042 10.937712 0.000000
      vertex 4.850000 10.450704 15.800000
    endloop
  endfacet
  facet normal 0.000000 -1.000000 0.000000
    outer loop
      vertex 7.611958 10.937712 0.000000
      vertex 7.611958 10.937712 15.800000
      vertex 6.188042 10.937712 15.800000
    endloop
  endfacet
  facet normal -0.000000 -1.000000 -0.000000
    outer loop
      vertex 6.188042 10.937712 0.000000
      vertex 7.611958 10.937712 0.000000
      vertex 6.188042 10.937712 15.800000
    endloop
  endfacet
  facet normal -0.342020 -0.939692 -0.000000
    outer loop
      vertex 8.950000 10.450704 0.000000
      vertex 8.950000 10.450704 15.800000
      vertex 7.611958 10.937712 15.800000
    endloop
  endfacet
  facet normal -0.342020 -0.939692 -0.000000
    outer loop
      vertex 7.611958 10.937712 0.000000
      vertex 8.950000 10.450704 0.000000
      vertex 7.611958 10.937712 15.800000
    endloop
  endfacet
  facet normal -0.642788 -0.766044 -0.000000
    outer loop
      vertex 10.040782 9.535429 0.000000
      vertex 10.040782 9.535429 15.800000
      vertex 8.950000 10.450704 15.800000
    endloop
  endfacet
  facet normal -0.642788 -0.766044 -0.000000
    outer loop
      vertex 8.950000 10.450704 0.000000
      vertex 10.040782 9.535429 0.000000
      vertex 8.950000 10.450704 15.800000
    endloop
  endfacet
  facet normal -0.866025 -0.500000 0.000000
    outer loop
      vertex 10.118972 9.400000 15.800000
      vertex 10.040782 9.535429 15.800000
      vertex 10.118972 9.400000 0.000000
    endloop
  endfacet
  facet normal -0.866025 -0.500000 0.000000
    outer loop
      vertex 10.118972 9.400000 0.000000
      vertex 10.040782 9.535429 15.800000
      vertex 10.040782 9.535429 0.000000
    endloop
  endfacet
  facet normal 0.000000 -1.000000 0.000000
    outer loop
      vertex 27.122134 9.400000 7.900000
      vertex 15.300000 9.400000 0.000000
      vertex 22.561067 9.400000 0.000000
    endloop
  endfacet
  facet normal -0.000000 -1.000000 0.000000
    outer loop
      vertex 19.645034 9.400000 4.259424
      vertex 15.300000 9.400000 0.000000
      vertex 27.122134 9.400000 7.900000
    endloop
  endfacet
  facet normal 0.000000 -1.000000 0.000000
    outer loop
      vertex 19.645034 9.400000 4.259424
      vertex 18.390576 9.400000 3.620246
      vertex 15.300000 9.400000 0.000000
    endloop
  endfacet
  facet normal -0.000000 -1.000000 0.000000
    outer loop
      vertex 19.645034 9.400000 11.540576
      vertex 20.640576 9.400000 10.545034
      vertex 22.561067 9.400000 15.800000
    endloop
  endfacet
  facet normal 0.000000 -1.000000 0.000000
    outer loop
      vertex 18.390576 9.400000 3.620246
      vertex 17.000000 9.400000 3.400000
      vertex 15.300000 9.400000 0.000000
    endloop
  endfacet
  facet normal 0.000000 -1.000000 -0.000000
    outer loop
      vertex 10.118972 9.400000 0.000000
      vertex 12.500000 9.400000 7.900000
      vertex 10.118972 9.400000 15.800000
    endloop
  endfacet
  facet normal 0.000000 -1.000000 0.000000
    outer loop
      vertex 10.118972 9.400000 15.800000
      vertex 12.720246 9.400000 9.290576
      vertex 13.438933 9.400000 15.800000
    endloop
  endfacet
  facet normal 0.000000 -1.000000 0.000000
    outer loop
      vertex 14.354966 9.400000 4.259424
      vertex 13.359424 9.400000 5.254966
      vertex 15.300000 9.400000 0.000000
    endloop
  endfacet
  facet normal 0.000000 -1.000000 0.000000
    outer loop
      vertex 12.720246 9.400000 9.290576
      vertex 13.359424 9.400000 10.545034
      vertex 13.438933 9.400000 15.800000
    endloop
  endfacet
  facet normal 0.000000 -1.000000 0.000000
    outer loop
      vertex 13.438933 9.400000 15.800000
      vertex 14.354966 9.400000 11.540576
      vertex 22.561067 9.400000 15.800000
    endloop
  endfacet
  facet normal 0.000000 -1.000000 0.000000
    outer loop
      vertex 14.354966 9.400000 11.540576
      vertex 15.609424 9.400000 12.179754
      vertex 22.561067 9.400000 15.800000
    endloop
  endfacet
  facet normal 0.000000 -1.000000 0.000000
    outer loop
      vertex 15.609424 9.400000 12.179754
      vertex 17.000000 9.400000 12.400000
      vertex 22.561067 9.400000 15.800000
    endloop
  endfacet
  facet normal -0.000000 -1.000000 0.000000
    outer loop
      vertex 17.000000 9.400000 12.400000
      vertex 18.390576 9.400000 12.179754
      vertex 22.561067 9.400000 15.800000
    endloop
  endfacet
  facet normal -0.000000 -1.000000 0.000000
    outer loop
      vertex 18.390576 9.400000 12.179754
      vertex 19.645034 9.400000 11.540576
      vertex 22.561067 9.400000 15.800000
    endloop
  endfacet
  facet normal 0.000000 -1.000000 0.000000
    outer loop
      vertex 22.561067 9.400000 15.800000
      vertex 20.640576 9.400000 10.545034
      vertex 27.122134 9.400000 7.900000
    endloop
  endfacet
  facet normal 0.000000 -1.000000 0.000000
    outer loop
      vertex 20.640576 9.400000 10.545034
      vertex 21.279754 9.400000 9.290576
      vertex 27.122134 9.400000 7.900000
    endloop
  endfacet
  facet normal 0.000000 -1.000000 0.000000
    outer loop
      vertex 21.279754 9.400000 9.290576
      vertex 21.500000 9.400000 7.900000
      vertex 27.122134 9.400000 7.900000
    endloop
  endfacet
  facet normal 0.000000 -1.000000 0.000000
    outer loop
      vertex 21.500000 9.400000 7.900000
      vertex 21.279754 9.400000 6.509424
      vertex 27.122134 9.400000 7.900000
    endloop
  endfacet
  facet normal -0.000000 -1.000000 0.000000
    outer loop
      vertex 21.279754 9.400000 6.509424
      vertex 20.640576 9.400000 5.254966
      vertex 27.122134 9.400000 7.900000
    endloop
  endfacet
  facet normal -0.000000 -1.000000 0.000000
    outer loop
      vertex 20.640576 9.400000 5.254966
      vertex 19.645034 9.400000 4.259424
      vertex 27.122134 9.400000 7.900000
    endloop
  endfacet
  facet normal 0.000000 -1.000000 0.000000
    outer loop
      vertex 17.000000 9.400000 3.400000
      vertex 15.609424 9.400000 3.620246
      vertex 15.300000 9.400000 0.000000
    endloop
  endfacet
  facet normal -0.000000 -1.000000 0.000000
    outer loop
      vertex 10.118972 9.400000 0.000000
      vertex 15.300000 9.400000 0.000000
      vertex 13.359424 9.400000 5.254966
    endloop
  endfacet
  facet normal 0.000000 -1.000000 0.000000
    outer loop
      vertex 10.118972 9.400000 0.000000
      vertex 12.720246 9.400000 6.509424
      vertex 12.500000 9.400000 7.900000
    endloop
  endfacet
  facet normal 0.000000 -1.000000 0.000000
    outer loop
      vertex 10.118972 9.400000 0.000000
      vertex 13.359424 9.400000 5.254966
      vertex 12.720246 9.400000 6.509424
    endloop
  endfacet
  facet normal 0.000000 -1.000000 -0.000000
    outer loop
      vertex 12.500000 9.400000 7.900000
      vertex 12.720246 9.400000 9.290576
      vertex 10.118972 9.400000 15.800000
    endloop
  endfacet
  facet normal 0.000000 -1.000000 0.000000
    outer loop
      vertex 13.359424 9.400000 10.545034
      vertex 14.354966 9.400000 11.540576
      vertex 13.438933 9.400000 15.800000
    endloop
  endfacet
  facet normal 0.000000 -1.000000 0.000000
    outer loop
      vertex 15.609424 9.400000 3.620246
      vertex 14.354966 9.400000 4.259424
      vertex 15.300000 9.400000 0.000000
    endloop
  endfacet
  facet normal 0.000000 1.000000 0.000000
    outer loop
      vertex 6.900000 13.800000 0.000000
      vertex 6.900000 13.800000 15.800000
      vertex 8.877866 13.800000 7.900000
    endloop
  endfacet
  facet normal 0.000000 1.000000 0.000000
    outer loop
      vertex 6.900000 13.800000 0.000000
      vertex 8.877866 13.800000 7.900000
      vertex 13.438933 13.800000 0.000000
    endloop
  endfacet
  facet normal 0.000000 0.000000 0.000000
    outer loop
      vertex 6.900000 13.800000 0.000000
      vertex 13.438933 13.800000 0.000000
      vertex 15.300000 13.800000 0.000000
    endloop
  endfacet
  facet normal 0.000000 1.000000 0.000000
    outer loop
      vertex 8.877866 13.800000 7.900000
      vertex 6.900000 13.800000 15.800000
      vertex 13.438933 13.800000 15.800000
    endloop
  endfacet
  facet normal -0.156434 0.987688 0.000000
    outer loop
      vertex 4.767783 13.462290 0.000000
      vertex 4.767783 13.462290 15.800000
      vertex 6.900000 13.800000 0.000000
    endloop
  endfacet
  facet normal -0.156434 0.987688 0.000000
    outer loop
      vertex 6.900000 13.800000 0.000000
      vertex 4.767783 13.462290 15.800000
      vertex 6.900000 13.800000 15.800000
    endloop
  endfacet
  facet normal -0.453991 0.891006 0.000000
    outer loop
      vertex 2.844282 12.482217 0.000000
      vertex 2.844282 12.482217 15.800000
      vertex 4.767783 13.462290 0.000000
    endloop
  endfacet
  facet normal -0.453991 0.891006 0.000000
    outer loop
      vertex 4.767783 13.462290 0.000000
      vertex 2.844282 12.482217 15.800000
      vertex 4.767783 13.462290 15.800000
    endloop
  endfacet
  facet normal -0.707107 0.707107 0.000000
    outer loop
      vertex 1.317783 10.955718 0.000000
      vertex 1.317783 10.955718 15.800000
      vertex 2.844282 12.482217 0.000000
    endloop
  endfacet
  facet normal -0.707107 0.707107 0.000000
    outer loop
      vertex 2.844282 12.482217 0.000000
      vertex 1.317783 10.955718 15.800000
      vertex 2.844282 12.482217 15.800000
    endloop
  endfacet
  facet normal -0.891006 0.453991 0.000000
    outer loop
      vertex 0.337710 9.032217 0.000000
      vertex 0.337710 9.032217 15.800000
      vertex 1.317783 10.955718 0.000000
    endloop
  endfacet
  facet normal -0.891006 0.453991 0.000000
    outer loop
      vertex 1.317783 10.955718 0.000000
      vertex 0.337710 9.032217 15.800000
      vertex 1.317783 10.955718 15.800000
    endloop
  endfacet
  facet normal 0.000000 0.000000 1.000000
    outer loop
      vertex 0.337710 9.032217 15.800000
      vertex 0.000000 6.900000 15.800000
      vertex 0.337710 4.767783 15.800000
    endloop
  endfacet
  facet normal 0.000000 0.000000 1.000000
    outer loop
      vertex 2.844282 1.317783 15.800000
      vertex 0.337710 9.032217 15.800000
      vertex 1.317783 2.844282 15.800000
    endloop
  endfacet
  facet normal 0.000000 0.000000 1.000000
    outer loop
      vertex 1.317783 2.844282 15.800000
      vertex 0.337710 9.032217 15.800000
      vertex 0.337710 4.767783 15.800000
    endloop
  endfacet
  facet normal 0.000000 0.000000 1.000000
    outer loop
      vertex 4.767783 0.337710 15.800000
      vertex 0.337710 9.032217 15.800000
      vertex 2.844282 1.317783 15.800000
    endloop
  endfacet
  facet normal -0.000000 -0.000000 1.000000
    outer loop
      vertex 3.759218 4.264571 15.800000
      vertex 0.337710 9.032217 15.800000
      vertex 4.767783 0.337710 15.800000
    endloop
  endfacet
  facet normal 0.000000 0.000000 1.000000
    outer loop
      vertex 13.438933 0.000000 15.800000
      vertex 10.040782 4.264571 15.800000
      vertex 8.950000 3.349296 15.800000
    endloop
  endfacet
  facet normal -0.000000 -0.000000 1.000000
    outer loop
      vertex 4.850000 3.349296 15.800000
      vertex 3.759218 4.264571 15.800000
      vertex 6.900000 0.000000 15.800000
    endloop
  endfacet
  facet normal 0.000000 0.000000 0.000000
    outer loop
      vertex 15.300000 0.000000 15.800000
      vertex 13.438933 0.000000 15.800000
      vertex 6.900000 0.000000 15.800000
    endloop
  endfacet
  facet normal 0.000000 0.000000 1.000000
    outer loop
      vertex 10.118972 9.400000 15.800000
      vertex 13.438933 9.400000 15.800000
      vertex 10.040782 9.535429 15.800000
    endloop
  endfacet
  facet normal 0.000000 -0.000000 1.000000
    outer loop
      vertex 8.950000 3.349296 15.800000
      vertex 7.611958 2.862288 15.800000
      vertex 13.438933 0.000000 15.800000
    endloop
  endfacet
  facet normal -0.000000 0.000000 1.000000
    outer loop
      vertex 13.438933 0.000000 15.800000
      vertex 7.611958 2.862288 15.800000
      vertex 6.900000 0.000000 15.800000
    endloop
  endfacet
  facet normal 0.000000 0.000000 1.000000
    outer loop
      vertex 3.759218 4.264571 15.800000
      vertex 3.047260 5.497717 15.800000
      vertex 0.337710 9.032217 15.800000
    endloop
  endfacet
  facet normal 0.000000 0.000000 1.000000
    outer loop
      vertex 7.611958 2.862288 15.800000
      vertex 6.188042 2.862288 15.800000
      vertex 6.900000 0.000000 15.800000
    endloop
  endfacet
  facet normal -0.000000 -0.000000 1.000000
    outer loop
      vertex 6.188042 2.862288 15.800000
      vertex 4.850000 3.349296 15.800000
      vertex 6.900000 0.000000 15.800000
    endloop
  endfacet
  facet normal 0.000000 0.000000 1.000000
    outer loop
      vertex 6.900000 0.000000 15.800000
      vertex 3.759218 4.264571 15.800000
      vertex 4.767783 0.337710 15.800000
    endloop
  endfacet
  facet normal 0.000000 0.000000 1.000000
    outer loop
      vertex 3.047260 5.497717 15.800000
      vertex 2.800000 6.900000 15.800000
      vertex 0.337710 9.032217 15.800000
    endloop
  endfacet
  facet normal 0.000000 0.000000 1.000000
    outer loop
      vertex 3.759218 9.535429 15.800000
      vertex 0.337710 9.032217 15.800000
      vertex 3.047260 8.302283 15.800000
    endloop
  endfacet
  facet normal 0.000000 0.000000 1.000000
    outer loop
      vertex 4.850000 10.450704 15.800000
      vertex 0.337710 9.032217 15.800000
      vertex 3.759218 9.535429 15.800000
    endloop
  endfacet
  facet normal 0.000000 0.000000 1.000000
    outer loop
      vertex 6.188042 10.937712 15.800000
      vertex 0.337710 9.032217 15.800000
      vertex 4.850000 10.450704 15.800000
    endloop
  endfacet
  facet normal 0.000000 0.000000 1.000000
    outer loop
      vertex 13.438933 13.800000 15.800000
      vertex 0.337710 9.032217 15.800000
      vertex 6.188042 10.937712 15.800000
    endloop
  endfacet
  facet normal 0.000000 0.000000 1.000000
    outer loop
      vertex 13.438933 13.800000 15.800000
      vertex 6.188042 10.937712 15.800000
      vertex 7.611958 10.937712 15.800000
    endloop
  endfacet
  facet normal 0.000000 0.000000 1.000000
    outer loop
      vertex 13.438933 9.400000 15.800000
      vertex 7.611958 10.937712 15.800000
      vertex 8.950000 10.450704 15.800000
    endloop
  endfacet
  facet normal 0.000000 0.000000 1.000000
    outer loop
      vertex 13.438933 9.400000 15.800000
      vertex 8.950000 10.450704 15.800000
      vertex 10.040782 9.535429 15.800000
    endloop
  endfacet
  facet normal 0.000000 0.000000 1.000000
    outer loop
      vertex 13.438933 13.800000 15.800000
      vertex 7.611958 10.937712 15.800000
      vertex 13.438933 9.400000 15.800000
    endloop
  endfacet
  facet normal 0.000000 -0.000000 1.000000
    outer loop
      vertex 6.900000 13.800000 15.800000
      vertex 0.337710 9.032217 15.800000
      vertex 13.438933 13.800000 15.800000
    endloop
  endfacet
  facet normal 0.000000 -0.000000 1.000000
    outer loop
      vertex 4.767783 13.462290 15.800000
      vertex 0.337710 9.032217 15.800000
      vertex 6.900000 13.800000 15.800000
    endloop
  endfacet
  facet normal 0.000000 -0.000000 1.000000
    outer loop
      vertex 2.844282 12.482217 15.800000
      vertex 0.337710 9.032217 15.800000
      vertex 4.767783 13.462290 15.800000
    endloop
  endfacet
  facet normal 0.000000 -0.000000 1.000000
    outer loop
      vertex 1.317783 10.955718 15.800000
      vertex 0.337710 9.032217 15.800000
      vertex 2.844282 12.482217 15.800000
    endloop
  endfacet
  facet normal 0.000000 0.000000 1.000000
    outer loop
      vertex 13.438933 0.000000 15.800000
      vertex 10.118972 4.400000 15.800000
      vertex 10.040782 4.264571 15.800000
    endloop
  endfacet
  facet normal 0.000000 0.000000 1.000000
    outer loop
      vertex 13.438933 0.000000 15.800000
      vertex 13.438933 4.400000 15.800000
      vertex 10.118972 4.400000 15.800000
    endloop
  endfacet
  facet normal 0.000000 0.000000 1.000000
    outer loop
      vertex 2.800000 6.900000 15.800000
      vertex 3.047260 8.302283 15.800000
      vertex 0.337710 9.032217 15.800000
    endloop
  endfacet
  facet normal 0.453990 -0.000000 -0.891007
    outer loop
      vertex 15.609424 4.400000 12.179754
      vertex 15.609424 0.000000 12.179754
      vertex 14.354966 4.400000 11.540576
    endloop
  endfacet
  facet normal 0.453990 0.000000 -0.891007
    outer loop
      vertex 14.354966 4.400000 11.540576
      vertex 15.609424 0.000000 12.179754
      vertex 15.300000 0.000000 12.022095
    endloop
  endfacet
  facet normal 0.453990 0.000000 -0.891007
    outer loop
      vertex 14.354966 4.400000 11.540576
      vertex 15.300000 0.000000 12.022095
      vertex 14.354966 0.000000 11.540576
    endloop
  endfacet
  facet normal 0.707107 0.000000 -0.707107
    outer loop
      vertex 13.359424 4.400000 10.545034
      vertex 14.354966 4.400000 11.540576
      vertex 14.354966 0.000000 11.540576
    endloop
  endfacet
  facet normal 0.707107 -0.000000 -0.707107
    outer loop
      vertex 13.359424 0.000000 10.545034
      vertex 13.359424 4.400000 10.545034
      vertex 14.354966 0.000000 11.540576
    endloop
  endfacet
  facet normal 0.891007 -0.000000 -0.453990
    outer loop
      vertex 12.720246 4.400000 9.290576
      vertex 13.359424 4.400000 10.545034
      vertex 13.359424 0.000000 10.545034
    endloop
  endfacet
  facet normal 0.891007 0.000000 -0.453990
    outer loop
      vertex 12.720246 0.000000 9.290576
      vertex 12.720246 4.400000 9.290576
      vertex 13.359424 0.000000 10.545034
    endloop
  endfacet
  facet normal 0.987688 0.000000 -0.156435
    outer loop
      vertex 12.500000 4.400000 7.900000
      vertex 12.720246 4.400000 9.290576
      vertex 12.720246 0.000000 9.290576
    endloop
  endfacet
  facet normal 0.987688 -0.000000 -0.156435
    outer loop
      vertex 12.500000 0.000000 7.900000
      vertex 12.500000 4.400000 7.900000
      vertex 12.720246 0.000000 9.290576
    endloop
  endfacet
  facet normal 0.987688 0.000000 0.156435
    outer loop
      vertex 12.720246 0.000000 6.509424
      vertex 12.720246 4.400000 6.509424
      vertex 12.500000 4.400000 7.900000
    endloop
  endfacet
  facet normal 0.987688 0.000000 0.156435
    outer loop
      vertex 12.500000 0.000000 7.900000
      vertex 12.720246 0.000000 6.509424
      vertex 12.500000 4.400000 7.900000
    endloop
  endfacet
  facet normal 0.891007 0.000000 0.453990
    outer loop
      vertex 13.359424 0.000000 5.254966
      vertex 13.359424 4.400000 5.254966
      vertex 12.720246 4.400000 6.509424
    endloop
  endfacet
  facet normal 0.891007 0.000000 0.453990
    outer loop
      vertex 12.720246 0.000000 6.509424
      vertex 13.359424 0.000000 5.254966
      vertex 12.720246 4.400000 6.509424
    endloop
  endfacet
  facet normal 0.707107 0.000000 0.707107
    outer loop
      vertex 14.354966 0.000000 4.259424
      vertex 14.354966 4.400000 4.259424
      vertex 13.359424 4.400000 5.254966
    endloop
  endfacet
  facet normal 0.707107 0.000000 0.707107
    outer loop
      vertex 13.359424 0.000000 5.254966
      vertex 14.354966 0.000000 4.259424
      vertex 13.359424 4.400000 5.254966
    endloop
  endfacet
  facet normal 0.453990 0.000000 0.891007
    outer loop
      vertex 15.609424 4.400000 3.620246
      vertex 15.300000 0.000000 3.777905
      vertex 15.609424 0.000000 3.620246
    endloop
  endfacet
  facet normal 0.453990 0.000000 0.891007
    outer loop
      vertex 14.354966 4.400000 4.259424
      vertex 15.300000 0.000000 3.777905
      vertex 15.609424 4.400000 3.620246
    endloop
  endfacet
  facet normal 0.453990 0.000000 0.891007
    outer loop
      vertex 14.354966 0.000000 4.259424
      vertex 15.300000 0.000000 3.777905
      vertex 14.354966 4.400000 4.259424
    endloop
  endfacet
  facet normal 0.000000 -1.000000 0.000000
    outer loop
      vertex 15.609424 0.000000 12.179754
      vertex 17.000000 0.000000 12.400000
      vertex 15.300000 0.000000 15.800000
    endloop
  endfacet
  facet normal -0.000000 -1.000000 0.000000
    outer loop
      vertex 17.000000 0.000000 3.400000
      vertex 15.300000 0.000000 0.000000
      vertex 18.390576 0.000000 3.620246
    endloop
  endfacet
  facet normal 0.000000 0.000000 0.000000
    outer loop
      vertex 22.561067 0.000000 15.800000
      vertex 13.438933 0.000000 15.800000
      vertex 15.300000 0.000000 15.800000
    endloop
  endfacet
  facet normal -0.000000 -1.000000 0.000000
    outer loop
      vertex 15.300000 0.000000 12.022095
      vertex 15.609424 0.000000 12.179754
      vertex 15.300000 0.000000 15.800000
    endloop
  endfacet
  facet normal -0.000000 -1.000000 0.000000
    outer loop
      vertex 17.000000 0.000000 12.400000
      vertex 18.390576 0.000000 12.179754
      vertex 15.300000 0.000000 15.800000
    endloop
  endfacet
  facet normal 0.000000 -1.000000 0.000000
    outer loop
      vertex 18.390576 0.000000 12.179754
      vertex 19.645034 0.000000 11.540576
      vertex 15.300000 0.000000 15.800000
    endloop
  endfacet
  facet normal 0.000000 -1.000000 0.000000
    outer loop
      vertex 19.645034 0.000000 11.540576
      vertex 27.122134 0.000000 7.900000
      vertex 15.300000 0.000000 15.800000
    endloop
  endfacet
  facet normal 0.000000 -1.000000 0.000000
    outer loop
      vertex 20.640576 0.000000 10.545034
      vertex 27.122134 0.000000 7.900000
      vertex 19.645034 0.000000 11.540576
    endloop
  endfacet
  facet normal 0.000000 -1.000000 0.000000
    outer loop
      vertex 21.279754 0.000000 9.290576
      vertex 27.122134 0.000000 7.900000
      vertex 20.640576 0.000000 10.545034
    endloop
  endfacet
  facet normal 0.000000 -1.000000 0.000000
    outer loop
      vertex 21.500000 0.000000 7.900000
      vertex 27.122134 0.000000 7.900000
      vertex 21.279754 0.000000 9.290576
    endloop
  endfacet
  facet normal 0.000000 -1.000000 0.000000
    outer loop
      vertex 21.279754 0.000000 6.509424
      vertex 22.561067 0.000000 0.000000
      vertex 21.500000 0.000000 7.900000
    endloop
  endfacet
  facet normal -0.000000 -1.000000 0.000000
    outer loop
      vertex 20.640576 0.000000 5.254966
      vertex 22.561067 0.000000 0.000000
      vertex 21.279754 0.000000 6.509424
    endloop
  endfacet
  facet normal -0.000000 -1.000000 0.000000
    outer loop
      vertex 19.645034 0.000000 4.259424
      vertex 22.561067 0.000000 0.000000
      vertex 20.640576 0.000000 5.254966
    endloop
  endfacet
  facet normal -0.000000 -1.000000 0.000000
    outer loop
      vertex 18.390576 0.000000 3.620246
      vertex 15.300000 0.000000 0.000000
      vertex 19.645034 0.000000 4.259424
    endloop
  endfacet
  facet normal 0.000000 -1.000000 0.000000
    outer loop
      vertex 15.609424 0.000000 3.620246
      vertex 15.300000 0.000000 0.000000
      vertex 17.000000 0.000000 3.400000
    endloop
  endfacet
  facet normal -0.000000 -1.000000 0.000000
    outer loop
      vertex 15.300000 0.000000 3.777905
      vertex 15.300000 0.000000 0.000000
      vertex 15.609424 0.000000 3.620246
    endloop
  endfacet
  facet normal 0.000000 -1.000000 0.000000
    outer loop
      vertex 15.300000 0.000000 0.000000
      vertex 22.561067 0.000000 0.000000
      vertex 19.645034 0.000000 4.259424
    endloop
  endfacet
  facet normal 0.000000 -1.000000 0.000000
    outer loop
      vertex 22.561067 0.000000 0.000000
      vertex 27.122134 0.000000 7.900000
      vertex 21.500000 0.000000 7.900000
    endloop
  endfacet
  facet normal 0.000000 -1.000000 0.000000
    outer loop
      vertex 27.122134 0.000000 7.900000
      vertex 22.561067 0.000000 15.800000
      vertex 15.300000 0.000000 15.800000
    endloop
  endfacet
  facet normal -0.000000 -0.000000 -1.000000
    outer loop
      vertex 15.300000 0.000000 0.000000
      vertex 15.300000 4.400000 0.000000
      vertex 22.561067 0.000000 0.000000
    endloop
  endfacet
  facet normal 0.000000 -0.000000 -1.000000
    outer loop
      vertex 22.561067 0.000000 0.000000
      vertex 15.300000 4.400000 0.000000
      vertex 22.561067 4.400000 0.000000
    endloop
  endfacet
  facet normal 0.866025 -0.000000 -0.500000
    outer loop
      vertex 27.122134 0.000000 7.900000
      vertex 22.561067 0.000000 0.000000
      vertex 22.561067 4.400000 0.000000
    endloop
  endfacet
  facet normal 0.866025 0.000000 -0.500000
    outer loop
      vertex 27.122134 4.400000 7.900000
      vertex 27.122134 0.000000 7.900000
      vertex 22.561067 4.400000 0.000000
    endloop
  endfacet
  facet normal 0.866025 -0.000000 0.500000
    outer loop
      vertex 22.561067 4.400000 15.800000
      vertex 22.561067 0.000000 15.800000
      vertex 27.122134 0.000000 7.900000
    endloop
  endfacet
  facet normal 0.866025 -0.000000 0.500000
    outer loop
      vertex 27.122134 4.400000 7.900000
      vertex 22.561067 4.400000 15.800000
      vertex 27.122134 0.000000 7.900000
    endloop
  endfacet
  facet normal 0.000000 -0.000000 1.000000
    outer loop
      vertex 13.438933 4.400000 15.800000
      vertex 13.438933 0.000000 15.800000
      vertex 22.561067 0.000000 15.800000
    endloop
  endfacet
  facet normal 0.000000 0.000000 1.000000
    outer loop
      vertex 22.561067 4.400000 15.800000
      vertex 13.438933 4.400000 15.800000
      vertex 22.561067 0.000000 15.800000
    endloop
  endfacet
  facet normal 0.156435 0.000000 -0.987688
    outer loop
      vertex 17.000000 4.400000 12.400000
      vertex 17.000000 0.000000 12.400000
      vertex 15.609424 4.400000 12.179754
    endloop
  endfacet
  facet normal 0.156435 -0.000000 -0.987688
    outer loop
      vertex 15.609424 4.400000 12.179754
      vertex 17.000000 0.000000 12.400000
      vertex 15.609424 0.000000 12.179754
    endloop
  endfacet
  facet normal -0.156435 -0.000000 -0.987688
    outer loop
      vertex 18.390576 4.400000 12.179754
      vertex 18.390576 0.000000 12.179754
      vertex 17.000000 4.400000 12.400000
    endloop
  endfacet
  facet normal -0.156435 0.000000 -0.987688
    outer loop
      vertex 17.000000 4.400000 12.400000
      vertex 18.390576 0.000000 12.179754
      vertex 17.000000 0.000000 12.400000
    endloop
  endfacet
  facet normal -0.453990 0.000000 -0.891007
    outer loop
      vertex 19.645034 4.400000 11.540576
      vertex 19.645034 0.000000 11.540576
      vertex 18.390576 4.400000 12.179754
    endloop
  endfacet
  facet normal -0.453990 -0.000000 -0.891007
    outer loop
      vertex 18.390576 4.400000 12.179754
      vertex 19.645034 0.000000 11.540576
      vertex 18.390576 0.000000 12.179754
    endloop
  endfacet
  facet normal -0.707107 -0.000000 -0.707107
    outer loop
      vertex 20.640576 4.400000 10.545034
      vertex 20.640576 0.000000 10.545034
      vertex 19.645034 4.400000 11.540576
    endloop
  endfacet
  facet normal -0.707107 0.000000 -0.707107
    outer loop
      vertex 19.645034 4.400000 11.540576
      vertex 20.640576 0.000000 10.545034
      vertex 19.645034 0.000000 11.540576
    endloop
  endfacet
  facet normal -0.891007 0.000000 -0.453990
    outer loop
      vertex 21.279754 4.400000 9.290576
      vertex 21.279754 0.000000 9.290576
      vertex 20.640576 4.400000 10.545034
    endloop
  endfacet
  facet normal -0.891007 -0.000000 -0.453990
    outer loop
      vertex 20.640576 4.400000 10.545034
      vertex 21.279754 0.000000 9.290576
      vertex 20.640576 0.000000 10.545034
    endloop
  endfacet
  facet normal -0.987688 -0.000000 -0.156435
    outer loop
      vertex 21.500000 4.400000 7.900000
      vertex 21.500000 0.000000 7.900000
      vertex 21.279754 4.400000 9.290576
    endloop
  endfacet
  facet normal -0.987688 0.000000 -0.156435
    outer loop
      vertex 21.279754 4.400000 9.290576
      vertex 21.500000 0.000000 7.900000
      vertex 21.279754 0.000000 9.290576
    endloop
  endfacet
  facet normal -0.987688 0.000000 0.156435
    outer loop
      vertex 21.500000 4.400000 7.900000
      vertex 21.279754 4.400000 6.509424
      vertex 21.500000 0.000000 7.900000
    endloop
  endfacet
  facet normal -0.987688 0.000000 0.156435
    outer loop
      vertex 21.500000 0.000000 7.900000
      vertex 21.279754 4.400000 6.509424
      vertex 21.279754 0.000000 6.509424
    endloop
  endfacet
  facet normal -0.891007 0.000000 0.453990
    outer loop
      vertex 21.279754 4.400000 6.509424
      vertex 20.640576 4.400000 5.254966
      vertex 21.279754 0.000000 6.509424
    endloop
  endfacet
  facet normal -0.891007 0.000000 0.453990
    outer loop
      vertex 21.279754 0.000000 6.509424
      vertex 20.640576 4.400000 5.254966
      vertex 20.640576 0.000000 5.254966
    endloop
  endfacet
  facet normal -0.707107 0.000000 0.707107
    outer loop
      vertex 20.640576 4.400000 5.254966
      vertex 19.645034 4.400000 4.259424
      vertex 20.640576 0.000000 5.254966
    endloop
  endfacet
  facet normal -0.707107 0.000000 0.707107
    outer loop
      vertex 20.640576 0.000000 5.254966
      vertex 19.645034 4.400000 4.259424
      vertex 19.645034 0.000000 4.259424
    endloop
  endfacet
  facet normal -0.453990 0.000000 0.891007
    outer loop
      vertex 19.645034 0.000000 4.259424
      vertex 19.645034 4.400000 4.259424
      vertex 18.390576 4.400000 3.620246
    endloop
  endfacet
  facet normal -0.453990 0.000000 0.891007
    outer loop
      vertex 18.390576 0.000000 3.620246
      vertex 19.645034 0.000000 4.259424
      vertex 18.390576 4.400000 3.620246
    endloop
  endfacet
  facet normal -0.156435 0.000000 0.987688
    outer loop
      vertex 18.390576 0.000000 3.620246
      vertex 18.390576 4.400000 3.620246
      vertex 17.000000 4.400000 3.400000
    endloop
  endfacet
  facet normal -0.156435 0.000000 0.987688
    outer loop
      vertex 17.000000 0.000000 3.400000
      vertex 18.390576 0.000000 3.620246
      vertex 17.000000 4.400000 3.400000
    endloop
  endfacet
  facet normal 0.156435 0.000000 0.987688
    outer loop
      vertex 17.000000 0.000000 3.400000
      vertex 17.000000 4.400000 3.400000
      vertex 15.609424 4.400000 3.620246
    endloop
  endfacet
  facet normal 0.156435 0.000000 0.987688
    outer loop
      vertex 15.609424 0.000000 3.620246
      vertex 17.000000 0.000000 3.400000
      vertex 15.609424 4.400000 3.620246
    endloop
  endfacet
  facet normal 0.000000 -0.000000 1.000000
    outer loop
      vertex 13.438933 13.800000 15.800000
      vertex 13.438933 9.400000 15.800000
      vertex 22.561067 9.400000 15.800000
    endloop
  endfacet
  facet normal 0.000000 0.000000 1.000000
    outer loop
      vertex 22.561067 13.800000 15.800000
      vertex 13.438933 13.800000 15.800000
      vertex 22.561067 9.400000 15.800000
    endloop
  endfacet
  facet normal 0.866025 -0.000000 0.500000
    outer loop
      vertex 22.561067 13.800000 15.800000
      vertex 22.561067 9.400000 15.800000
      vertex 27.122134 9.400000 7.900000
    endloop
  endfacet
  facet normal 0.866025 -0.000000 0.500000
    outer loop
      vertex 27.122134 13.800000 7.900000
      vertex 22.561067 13.800000 15.800000
      vertex 27.122134 9.400000 7.900000
    endloop
  endfacet
  facet normal 0.866025 -0.000000 -0.500000
    outer loop
      vertex 27.122134 9.400000 7.900000
      vertex 22.561067 9.400000 0.000000
      vertex 22.561067 13.800000 0.000000
    endloop
  endfacet
  facet normal 0.866025 0.000000 -0.500000
    outer loop
      vertex 27.122134 13.800000 7.900000
      vertex 27.122134 9.400000 7.900000
      vertex 22.561067 13.800000 0.000000
    endloop
  endfacet
  facet normal 0.000000 -0.000000 0.000000
    outer loop
      vertex 15.300000 13.800000 0.000000
      vertex 13.438933 13.800000 0.000000
      vertex 22.561067 13.800000 0.000000
    endloop
  endfacet
  facet normal -0.000000 -0.000000 -1.000000
    outer loop
      vertex 15.300000 13.800000 0.000000
      vertex 22.561067 13.800000 0.000000
      vertex 22.561067 9.400000 0.000000
    endloop
  endfacet
  facet normal 0.000000 -0.000000 -1.000000
    outer loop
      vertex 15.300000 13.800000 0.000000
      vertex 22.561067 9.400000 0.000000
      vertex 15.300000 9.400000 0.000000
    endloop
  endfacet
  facet normal 0.987688 0.000000 -0.156435
    outer loop
      vertex 12.500000 13.800000 7.900000
      vertex 12.720246 13.800000 9.290576
      vertex 12.720246 9.400000 9.290576
    endloop
  endfacet
  facet normal 0.987688 0.000000 -0.156435
    outer loop
      vertex 12.500000 9.400000 7.900000
      vertex 12.500000 13.800000 7.900000
      vertex 12.720246 9.400000 9.290576
    endloop
  endfacet
  facet normal 0.987688 0.000000 0.156435
    outer loop
      vertex 12.720246 9.400000 6.509424
      vertex 12.720246 13.800000 6.509424
      vertex 12.500000 13.800000 7.900000
    endloop
  endfacet
  facet normal 0.987688 0.000000 0.156435
    outer loop
      vertex 12.500000 9.400000 7.900000
      vertex 12.720246 9.400000 6.509424
      vertex 12.500000 13.800000 7.900000
    endloop
  endfacet
  facet normal 0.891007 0.000000 0.453990
    outer loop
      vertex 13.359424 9.400000 5.254966
      vertex 13.359424 13.800000 5.254966
      vertex 12.720246 13.800000 6.509424
    endloop
  endfacet
  facet normal 0.891007 0.000000 0.453990
    outer loop
      vertex 12.720246 9.400000 6.509424
      vertex 13.359424 9.400000 5.254966
      vertex 12.720246 13.800000 6.509424
    endloop
  endfacet
  facet normal 0.707107 0.000000 0.707107
    outer loop
      vertex 14.354966 9.400000 4.259424
      vertex 14.354966 13.800000 4.259424
      vertex 13.359424 13.800000 5.254966
    endloop
  endfacet
  facet normal 0.707107 0.000000 0.707107
    outer loop
      vertex 13.359424 9.400000 5.254966
      vertex 14.354966 9.400000 4.259424
      vertex 13.359424 13.800000 5.254966
    endloop
  endfacet
  facet normal 0.453990 0.000000 0.891007
    outer loop
      vertex 15.609424 9.400000 3.620246
      vertex 15.609424 13.800000 3.620246
      vertex 14.354966 13.800000 4.259424
    endloop
  endfacet
  facet normal 0.453990 0.000000 0.891007
    outer loop
      vertex 14.354966 9.400000 4.259424
      vertex 15.609424 9.400000 3.620246
      vertex 14.354966 13.800000 4.259424
    endloop
  endfacet
  facet normal 0.156435 0.000000 0.987688
    outer loop
      vertex 17.000000 9.400000 3.400000
      vertex 17.000000 13.800000 3.400000
      vertex 15.609424 13.800000 3.620246
    endloop
  endfacet
  facet normal 0.156435 0.000000 0.987688
    outer loop
      vertex 15.609424 9.400000 3.620246
      vertex 17.000000 9.400000 3.400000
      vertex 15.609424 13.800000 3.620246
    endloop
  endfacet
  facet normal -0.156435 0.000000 0.987688
    outer loop
      vertex 18.390576 9.400000 3.620246
      vertex 18.390576 13.800000 3.620246
      vertex 17.000000 13.800000 3.400000
    endloop
  endfacet
  facet normal -0.156435 0.000000 0.987688
    outer loop
      vertex 17.000000 9.400000 3.400000
      vertex 18.390576 9.400000 3.620246
      vertex 17.000000 13.800000 3.400000
    endloop
  endfacet
  facet normal -0.453990 0.000000 0.891007
    outer loop
      vertex 19.645034 9.400000 4.259424
      vertex 19.645034 13.800000 4.259424
      vertex 18.390576 13.800000 3.620246
    endloop
  endfacet
  facet normal -0.453990 0.000000 0.891007
    outer loop
      vertex 18.390576 9.400000 3.620246
      vertex 19.645034 9.400000 4.259424
      vertex 18.390576 13.800000 3.620246
    endloop
  endfacet
  facet normal -0.707107 0.000000 0.707107
    outer loop
      vertex 20.640576 13.800000 5.254966
      vertex 19.645034 13.800000 4.259424
      vertex 20.640576 9.400000 5.254966
    endloop
  endfacet
  facet normal -0.707107 0.000000 0.707107
    outer loop
      vertex 20.640576 9.400000 5.254966
      vertex 19.645034 13.800000 4.259424
      vertex 19.645034 9.400000 4.259424
    endloop
  endfacet
  facet normal -0.891007 0.000000 0.453990
    outer loop
      vertex 21.279754 13.800000 6.509424
      vertex 20.640576 13.800000 5.254966
      vertex 21.279754 9.400000 6.509424
    endloop
  endfacet
  facet normal -0.891007 0.000000 0.453990
    outer loop
      vertex 21.279754 9.400000 6.509424
      vertex 20.640576 13.800000 5.254966
      vertex 20.640576 9.400000 5.254966
    endloop
  endfacet
  facet normal -0.987688 0.000000 0.156435
    outer loop
      vertex 21.500000 13.800000 7.900000
      vertex 21.279754 13.800000 6.509424
      vertex 21.500000 9.400000 7.900000
    endloop
  endfacet
  facet normal -0.987688 0.000000 0.156435
    outer loop
      vertex 21.500000 9.400000 7.900000
      vertex 21.279754 13.800000 6.509424
      vertex 21.279754 9.400000 6.509424
    endloop
  endfacet
  facet normal -0.987688 0.000000 -0.156435
    outer loop
      vertex 21.500000 13.800000 7.900000
      vertex 21.500000 9.400000 7.900000
      vertex 21.279754 13.800000 9.290576
    endloop
  endfacet
  facet normal -0.987688 0.000000 -0.156435
    outer loop
      vertex 21.279754 13.800000 9.290576
      vertex 21.500000 9.400000 7.900000
      vertex 21.279754 9.400000 9.290576
    endloop
  endfacet
  facet normal -0.891007 0.000000 -0.453990
    outer loop
      vertex 21.279754 13.800000 9.290576
      vertex 21.279754 9.400000 9.290576
      vertex 20.640576 13.800000 10.545034
    endloop
  endfacet
  facet normal -0.891007 0.000000 -0.453990
    outer loop
      vertex 20.640576 13.800000 10.545034
      vertex 21.279754 9.400000 9.290576
      vertex 20.640576 9.400000 10.545034
    endloop
  endfacet
  facet normal -0.707107 0.000000 -0.707107
    outer loop
      vertex 20.640576 13.800000 10.545034
      vertex 20.640576 9.400000 10.545034
      vertex 19.645034 13.800000 11.540576
    endloop
  endfacet
  facet normal -0.707107 0.000000 -0.707107
    outer loop
      vertex 19.645034 13.800000 11.540576
      vertex 20.640576 9.400000 10.545034
      vertex 19.645034 9.400000 11.540576
    endloop
  endfacet
  facet normal -0.453990 0.000000 -0.891007
    outer loop
      vertex 19.645034 13.800000 11.540576
      vertex 19.645034 9.400000 11.540576
      vertex 18.390576 13.800000 12.179754
    endloop
  endfacet
  facet normal -0.453990 0.000000 -0.891007
    outer loop
      vertex 18.390576 13.800000 12.179754
      vertex 19.645034 9.400000 11.540576
      vertex 18.390576 9.400000 12.179754
    endloop
  endfacet
  facet normal -0.156435 0.000000 -0.987688
    outer loop
      vertex 18.390576 13.800000 12.179754
      vertex 18.390576 9.400000 12.179754
      vertex 17.000000 13.800000 12.400000
    endloop
  endfacet
  facet normal -0.156435 0.000000 -0.987688
    outer loop
      vertex 17.000000 13.800000 12.400000
      vertex 18.390576 9.400000 12.179754
      vertex 17.000000 9.400000 12.400000
    endloop
  endfacet
  facet normal 0.156435 0.000000 -0.987688
    outer loop
      vertex 17.000000 13.800000 12.400000
      vertex 17.000000 9.400000 12.400000
      vertex 15.609424 13.800000 12.179754
    endloop
  endfacet
  facet normal 0.156435 0.000000 -0.987688
    outer loop
      vertex 15.609424 13.800000 12.179754
      vertex 17.000000 9.400000 12.400000
      vertex 15.609424 9.400000 12.179754
    endloop
  endfacet
  facet normal 0.453990 0.000000 -0.891007
    outer loop
      vertex 15.609424 13.800000 12.179754
      vertex 15.609424 9.400000 12.179754
      vertex 14.354966 13.800000 11.540576
    endloop
  endfacet
  facet normal 0.453990 0.000000 -0.891007
    outer loop
      vertex 14.354966 13.800000 11.540576
      vertex 15.609424 9.400000 12.179754
      vertex 14.354966 9.400000 11.540576
    endloop
  endfacet
  facet normal 0.707107 0.000000 -0.707107
    outer loop
      vertex 13.359424 13.800000 10.545034
      vertex 14.354966 13.800000 11.540576
      vertex 14.354966 9.400000 11.540576
    endloop
  endfacet
  facet normal 0.707107 0.000000 -0.707107
    outer loop
      vertex 13.359424 9.400000 10.545034
      vertex 13.359424 13.800000 10.545034
      vertex 14.354966 9.400000 11.540576
    endloop
  endfacet
  facet normal 0.891007 0.000000 -0.453990
    outer loop
      vertex 12.720246 13.800000 9.290576
      vertex 13.359424 13.800000 10.545034
      vertex 13.359424 9.400000 10.545034
    endloop
  endfacet
  facet normal 0.891007 0.000000 -0.453990
    outer loop
      vertex 12.720246 9.400000 9.290576
      vertex 12.720246 13.800000 9.290576
      vertex 13.359424 9.400000 10.545034
    endloop
  endfacet
  facet normal 0.000000 1.000000 0.000000
    outer loop
      vertex 18.390576 13.800000 12.179754
      vertex 22.561067 13.800000 15.800000
      vertex 19.645034 13.800000 11.540576
    endloop
  endfacet
  facet normal 0.000000 1.000000 0.000000
    outer loop
      vertex 18.390576 13.800000 12.179754
      vertex 13.438933 13.800000 15.800000
      vertex 22.561067 13.800000 15.800000
    endloop
  endfacet
  facet normal 0.000000 1.000000 0.000000
    outer loop
      vertex 21.500000 13.800000 7.900000
      vertex 22.561067 13.800000 15.800000
      vertex 27.122134 13.800000 7.900000
    endloop
  endfacet
  facet normal 0.000000 1.000000 -0.000000
    outer loop
      vertex 13.438933 13.800000 0.000000
      vertex 27.122134 13.800000 7.900000
      vertex 22.561067 13.800000 0.000000
    endloop
  endfacet
  facet normal 0.000000 1.000000 0.000000
    outer loop
      vertex 8.877866 13.800000 7.900000
      vertex 13.438933 13.800000 15.800000
      vertex 12.500000 13.800000 7.900000
    endloop
  endfacet
  facet normal 0.000000 1.000000 -0.000000
    outer loop
      vertex 8.877866 13.800000 7.900000
      vertex 12.500000 13.800000 7.900000
      vertex 13.438933 13.800000 0.000000
    endloop
  endfacet
  facet normal 0.000000 1.000000 0.000000
    outer loop
      vertex 12.500000 13.800000 7.900000
      vertex 12.720246 13.800000 6.509424
      vertex 13.438933 13.800000 0.000000
    endloop
  endfacet
  facet normal 0.000000 1.000000 0.000000
    outer loop
      vertex 12.720246 13.800000 9.290576
      vertex 13.438933 13.800000 15.800000
      vertex 13.359424 13.800000 10.545034
    endloop
  endfacet
  facet normal 0.000000 1.000000 0.000000
    outer loop
      vertex 12.720246 13.800000 6.509424
      vertex 13.359424 13.800000 5.254966
      vertex 13.438933 13.800000 0.000000
    endloop
  endfacet
  facet normal -0.000000 1.000000 0.000000
    outer loop
      vertex 15.609424 13.800000 3.620246
      vertex 13.438933 13.800000 0.000000
      vertex 14.354966 13.800000 4.259424
    endloop
  endfacet
  facet normal -0.000000 1.000000 0.000000
    outer loop
      vertex 20.640576 13.800000 5.254966
      vertex 27.122134 13.800000 7.900000
      vertex 19.645034 13.800000 4.259424
    endloop
  endfacet
  facet normal 0.000000 1.000000 0.000000
    outer loop
      vertex 13.438933 13.800000 0.000000
      vertex 15.609424 13.800000 3.620246
      vertex 17.000000 13.800000 3.400000
    endloop
  endfacet
  facet normal 0.000000 1.000000 0.000000
    outer loop
      vertex 13.438933 13.800000 0.000000
      vertex 17.000000 13.800000 3.400000
      vertex 18.390576 13.800000 3.620246
    endloop
  endfacet
  facet normal -0.000000 1.000000 0.000000
    outer loop
      vertex 13.438933 13.800000 0.000000
      vertex 18.390576 13.800000 3.620246
      vertex 27.122134 13.800000 7.900000
    endloop
  endfacet
  facet normal -0.000000 1.000000 0.000000
    outer loop
      vertex 18.390576 13.800000 3.620246
      vertex 19.645034 13.800000 4.259424
      vertex 27.122134 13.800000 7.900000
    endloop
  endfacet
  facet normal -0.000000 1.000000 0.000000
    outer loop
      vertex 21.279754 13.800000 6.509424
      vertex 27.122134 13.800000 7.900000
      vertex 20.640576 13.800000 5.254966
    endloop
  endfacet
  facet normal 0.000000 1.000000 0.000000
    outer loop
      vertex 19.645034 13.800000 11.540576
      vertex 22.561067 13.800000 15.800000
      vertex 20.640576 13.800000 10.545034
    endloop
  endfacet
  facet normal 0.000000 1.000000 0.000000
    outer loop
      vertex 21.279754 13.800000 9.290576
      vertex 22.561067 13.800000 15.800000
      vertex 21.500000 13.800000 7.900000
    endloop
  endfacet
  facet normal 0.000000 1.000000 -0.000000
    outer loop
      vertex 21.279754 13.800000 6.509424
      vertex 21.500000 13.800000 7.900000
      vertex 27.122134 13.800000 7.900000
    endloop
  endfacet
  facet normal 0.000000 1.000000 0.000000
    outer loop
      vertex 20.640576 13.800000 10.545034
      vertex 22.561067 13.800000 15.800000
      vertex 21.279754 13.800000 9.290576
    endloop
  endfacet
  facet normal 0.000000 1.000000 0.000000
    outer loop
      vertex 17.000000 13.800000 12.400000
      vertex 13.438933 13.800000 15.800000
      vertex 18.390576 13.800000 12.179754
    endloop
  endfacet
  facet normal 0.000000 1.000000 0.000000
    outer loop
      vertex 13.359424 13.800000 10.545034
      vertex 13.438933 13.800000 15.800000
      vertex 14.354966 13.800000 11.540576
    endloop
  endfacet
  facet normal 0.000000 1.000000 0.000000
    outer loop
      vertex 15.609424 13.800000 12.179754
      vertex 13.438933 13.800000 15.800000
      vertex 17.000000 13.800000 12.400000
    endloop
  endfacet
  facet normal 0.000000 1.000000 0.000000
    outer loop
      vertex 14.354966 13.800000 11.540576
      vertex 13.438933 13.800000 15.800000
      vertex 15.609424 13.800000 12.179754
    endloop
  endfacet
  facet normal 0.000000 1.000000 0.000000
    outer loop
      vertex 12.500000 13.800000 7.900000
      vertex 13.438933 13.800000 15.800000
      vertex 12.720246 13.800000 9.290576
    endloop
  endfacet
  facet normal -0.000000 1.000000 0.000000
    outer loop
      vertex 14.354966 13.800000 4.259424
      vertex 13.438933 13.800000 0.000000
      vertex 13.359424 13.800000 5.254966
    endloop
  endfacet
endsolid OpenSCAD_Model
