solid OpenSCAD_Model
  facet normal -1 0 0
    outer loop
      vertex -4.2 -6.5 2
      vertex -4.2 -6.5 0
      vertex -4.2 -11 2
    endloop
  endfacet
  facet normal -1 0 0
    outer loop
      vertex -4.2 -13 0
      vertex -4.2 -13 3
      vertex -4.2 -11 2
    endloop
  endfacet
  facet normal -1 0 0
    outer loop
      vertex -4.2 -13 0
      vertex -4.2 -11 2
      vertex -4.2 -6.5 0
    endloop
  endfacet
  facet normal -1 0 0
    outer loop
      vertex -4.2 -11 2
      vertex -4.2 -13 3
      vertex -4.2 -11 3
    endloop
  endfacet
  facet normal 0 -1 0
    outer loop
      vertex -4.2 -13 3
      vertex -4.2 -13 0
      vertex 0.2 -13 0
    endloop
  endfacet
  facet normal 0 -1 0
    outer loop
      vertex 0 -13 2
      vertex -4.2 -13 3
      vertex 0.2 -13 0
    endloop
  endfacet
  facet normal 0 -1 0
    outer loop
      vertex 0.2 -13 2
      vertex 0 -13 2
      vertex 0.2 -13 0
    endloop
  endfacet
  facet normal 0 -1 0
    outer loop
      vertex 0 -13 2
      vertex 0 -13 3
      vertex -4.2 -13 3
    endloop
  endfacet
  facet normal 0 0 -1
    outer loop
      vertex -4.2 -13 0
      vertex -4.2 -6.5 0
      vertex 0.2 -13 0
    endloop
  endfacet
  facet normal 0 0 -1
    outer loop
      vertex 0.2 -13 0
      vertex -4.2 -6.5 0
      vertex -4.2 -4.2 0
    endloop
  endfacet
  facet normal 0 0 -1
    outer loop
      vertex 0.2 -13 0
      vertex -4.2 -4.2 0
      vertex 0 -4.2 0
    endloop
  endfacet
  facet normal 0 0 -1
    outer loop
      vertex 0.2 -13 0
      vertex 0 -4.2 0
      vertex 0.411672 -4.17978 0
    endloop
  endfacet
  facet normal 0 0 -1
    outer loop
      vertex 0.411672 -4.17978 0
      vertex 0.819379 -4.1193 0
      vertex 0.2 -13 0
    endloop
  endfacet
  facet normal 0 0 -1
    outer loop
      vertex 0.819379 -4.1193 0
      vertex 1.2192 -4.01915 0
      vertex 0.2 -13 0
    endloop
  endfacet
  facet normal 0 0 -1
    outer loop
      vertex 1.2192 -4.01915 0
      vertex 1.60727 -3.88029 0
      vertex 0.2 -13 0
    endloop
  endfacet
  facet normal 0 0 -1
    outer loop
      vertex 1.60727 -3.88029 0
      vertex 1.97987 -3.70407 0
      vertex 0.2 -13 0
    endloop
  endfacet
  facet normal 0 0 -1
    outer loop
      vertex 1.97987 -3.70407 0
      vertex 2.33339 -3.49217 0
      vertex 0.2 -13 0
    endloop
  endfacet
  facet normal 0 0 -1
    outer loop
      vertex 2.33339 -3.49217 0
      vertex 2.66445 -3.24664 0
      vertex 0.2 -13 0
    endloop
  endfacet
  facet normal 0 0 -1
    outer loop
      vertex 2.66445 -3.24664 0
      vertex 2.96985 -2.96985 0
      vertex 0.2 -13 0
    endloop
  endfacet
  facet normal 0 0 -1
    outer loop
      vertex 2.96985 -2.96985 0
      vertex 3.24664 -2.66445 0
      vertex 0.2 -13 0
    endloop
  endfacet
  facet normal 0 0 -1
    outer loop
      vertex 3.24664 -2.66445 0
      vertex 3.49217 -2.33339 0
      vertex 0.2 -13 0
    endloop
  endfacet
  facet normal 0 0 -1
    outer loop
      vertex 3.49217 -2.33339 0
      vertex 3.70407 -1.97987 0
      vertex 0.2 -13 0
    endloop
  endfacet
  facet normal 0 0 -1
    outer loop
      vertex 3.70407 -1.97987 0
      vertex 3.88029 -1.60727 0
      vertex 0.2 -13 0
    endloop
  endfacet
  facet normal 0 0 -1
    outer loop
      vertex 3.88029 -1.60727 0
      vertex 4.01915 -1.2192 0
      vertex 0.2 -13 0
    endloop
  endfacet
  facet normal 0 0 -1
    outer loop
      vertex 3.88029 1.60727 0
      vertex 0.2 13 0
      vertex 4.01915 1.2192 0
    endloop
  endfacet
  facet normal 0 0 -1
    outer loop
      vertex 3.70407 1.97987 0
      vertex 0.2 13 0
      vertex 3.88029 1.60727 0
    endloop
  endfacet
  facet normal 0 0 -1
    outer loop
      vertex 3.24664 2.66445 0
      vertex -4.2 13 0
      vertex 3.49217 2.33339 0
    endloop
  endfacet
  facet normal 0 0 -1
    outer loop
      vertex 2.96985 2.96985 0
      vertex -4.2 13 0
      vertex 3.24664 2.66445 0
    endloop
  endfacet
  facet normal 0 0 -1
    outer loop
      vertex 2.66445 3.24664 0
      vertex -4.2 13 0
      vertex 2.96985 2.96985 0
    endloop
  endfacet
  facet normal 0 0 -1
    outer loop
      vertex 2.33339 3.49217 0
      vertex -4.2 13 0
      vertex 2.66445 3.24664 0
    endloop
  endfacet
  facet normal 0 0 -1
    outer loop
      vertex 1.97987 3.70407 0
      vertex -4.2 13 0
      vertex 2.33339 3.49217 0
    endloop
  endfacet
  facet normal 0 0 -1
    outer loop
      vertex 1.2192 4.01915 0
      vertex -4.2 6.5 0
      vertex 1.60727 3.88029 0
    endloop
  endfacet
  facet normal 0 0 -1
    outer loop
      vertex 0.819379 4.1193 0
      vertex -4.2 6.5 0
      vertex 1.2192 4.01915 0
    endloop
  endfacet
  facet normal 0 0 -1
    outer loop
      vertex 0.411672 4.17978 0
      vertex -4.2 6.5 0
      vertex 0.819379 4.1193 0
    endloop
  endfacet
  facet normal 0 0 -1
    outer loop
      vertex 0 4.2 0
      vertex -4.2 4.2 0
      vertex -4.2 6.5 0
    endloop
  endfacet
  facet normal 0 0 -1
    outer loop
      vertex 0 4.2 0
      vertex -4.2 6.5 0
      vertex 0.411672 4.17978 0
    endloop
  endfacet
  facet normal 0 0 -1
    outer loop
      vertex 1.60727 3.88029 0
      vertex -4.2 6.5 0
      vertex -4.2 13 0
    endloop
  endfacet
  facet normal 0 0 -1
    outer loop
      vertex 1.60727 3.88029 0
      vertex -4.2 13 0
      vertex 1.97987 3.70407 0
    endloop
  endfacet
  facet normal 0 0 -1
    outer loop
      vertex 3.49217 2.33339 0
      vertex -4.2 13 0
      vertex 0.2 13 0
    endloop
  endfacet
  facet normal 0 0 -1
    outer loop
      vertex 3.49217 2.33339 0
      vertex 0.2 13 0
      vertex 3.70407 1.97987 0
    endloop
  endfacet
  facet normal 0 0 -1
    outer loop
      vertex 4.01915 1.2192 0
      vertex 0.2 13 0
      vertex 0.788103 12.9711 0
    endloop
  endfacet
  facet normal 0 0 -1
    outer loop
      vertex 4.01915 1.2192 0
      vertex 0.788103 12.9711 0
      vertex 1.37054 12.8847 0
    endloop
  endfacet
  facet normal 0 0 -1
    outer loop
      vertex 4.01915 1.2192 0
      vertex 1.37054 12.8847 0
      vertex 4.1193 0.819379 0
    endloop
  endfacet
  facet normal 0 0 -1
    outer loop
      vertex 4.1193 0.819379 0
      vertex 1.37054 12.8847 0
      vertex 1.94171 12.7416 0
    endloop
  endfacet
  facet normal 0 0 -1
    outer loop
      vertex 4.1193 0.819379 0
      vertex 1.94171 12.7416 0
      vertex 2.4961 12.5433 0
    endloop
  endfacet
  facet normal 0 0 -1
    outer loop
      vertex 4.1193 0.819379 0
      vertex 2.4961 12.5433 0
      vertex 4.17978 0.411672 0
    endloop
  endfacet
  facet normal 0 0 -1
    outer loop
      vertex 4.17978 0.411672 0
      vertex 2.4961 12.5433 0
      vertex 3.02838 12.2915 0
    endloop
  endfacet
  facet normal 0 0 -1
    outer loop
      vertex 4.17978 0.411672 0
      vertex 3.02838 12.2915 0
      vertex 3.53342 11.9888 0
    endloop
  endfacet
  facet normal 0 0 -1
    outer loop
      vertex 4.17978 0.411672 0
      vertex 3.53342 11.9888 0
      vertex 4.00636 11.6381 0
    endloop
  endfacet
  facet normal 0 0 -1
    outer loop
      vertex 4.17978 0.411672 0
      vertex 4.00636 11.6381 0
      vertex 4.2 0 0
    endloop
  endfacet
  facet normal 0 0 -1
    outer loop
      vertex 4.2 0 0
      vertex 4.00636 11.6381 0
      vertex 4.44264 11.2426 0
    endloop
  endfacet
  facet normal 0 0 -1
    outer loop
      vertex 4.2 0 0
      vertex 4.44264 11.2426 0
      vertex 4.83806 10.8064 0
    endloop
  endfacet
  facet normal 0 0 -1
    outer loop
      vertex 4.2 0 0
      vertex 4.83806 10.8064 0
      vertex 4.17978 -0.411672 0
    endloop
  endfacet
  facet normal 0 0 -1
    outer loop
      vertex 4.17978 -0.411672 0
      vertex 4.83806 10.8064 0
      vertex 5.18882 10.3334 0
    endloop
  endfacet
  facet normal 0 0 -1
    outer loop
      vertex 4.17978 -0.411672 0
      vertex 5.18882 10.3334 0
      vertex 5.49153 9.82838 0
    endloop
  endfacet
  facet normal 0 0 -1
    outer loop
      vertex 4.17978 -0.411672 0
      vertex 5.49153 9.82838 0
      vertex 5.74328 9.2961 0
    endloop
  endfacet
  facet normal 0 0 -1
    outer loop
      vertex 4.17978 -0.411672 0
      vertex 5.74328 9.2961 0
      vertex 4.1193 -0.819379 0
    endloop
  endfacet
  facet normal 0 0 -1
    outer loop
      vertex 4.1193 -0.819379 0
      vertex 5.74328 9.2961 0
      vertex 5.94164 8.74171 0
    endloop
  endfacet
  facet normal 0 0 -1
    outer loop
      vertex 4.1193 -0.819379 0
      vertex 5.94164 8.74171 0
      vertex 6.08471 8.17054 0
    endloop
  endfacet
  facet normal 0 0 -1
    outer loop
      vertex 4.1193 -0.819379 0
      vertex 6.08471 8.17054 0
      vertex 6.17111 7.5881 0
    endloop
  endfacet
  facet normal 0 0 -1
    outer loop
      vertex 4.1193 -0.819379 0
      vertex 6.17111 7.5881 0
      vertex 6.2 7 0
    endloop
  endfacet
  facet normal 0 0 -1
    outer loop
      vertex 4.1193 -0.819379 0
      vertex 6.2 7 0
      vertex 4.01915 -1.2192 0
    endloop
  endfacet
  facet normal 0 0 -1
    outer loop
      vertex 4.01915 -1.2192 0
      vertex 6.2 7 0
      vertex 6.2 -7 0
    endloop
  endfacet
  facet normal 0 0 -1
    outer loop
      vertex 4.01915 -1.2192 0
      vertex 6.2 -7 0
      vertex 0.2 -13 0
    endloop
  endfacet
  facet normal 0 0 -1
    outer loop
      vertex 0.2 -13 0
      vertex 6.2 -7 0
      vertex 6.17111 -7.5881 0
    endloop
  endfacet
  facet normal 0 0 -1
    outer loop
      vertex 0.2 -13 0
      vertex 6.17111 -7.5881 0
      vertex 6.08471 -8.17054 0
    endloop
  endfacet
  facet normal 0 0 -1
    outer loop
      vertex 0.2 -13 0
      vertex 6.08471 -8.17054 0
      vertex 5.94164 -8.74171 0
    endloop
  endfacet
  facet normal 0 0 -1
    outer loop
      vertex 0.2 -13 0
      vertex 5.94164 -8.74171 0
      vertex 5.74328 -9.2961 0
    endloop
  endfacet
  facet normal 0 0 -1
    outer loop
      vertex 0.2 -13 0
      vertex 5.74328 -9.2961 0
      vertex 5.49153 -9.82838 0
    endloop
  endfacet
  facet normal 0 0 -1
    outer loop
      vertex 0.2 -13 0
      vertex 5.49153 -9.82838 0
      vertex 5.18882 -10.3334 0
    endloop
  endfacet
  facet normal 0 0 -1
    outer loop
      vertex 0.2 -13 0
      vertex 5.18882 -10.3334 0
      vertex 4.83806 -10.8064 0
    endloop
  endfacet
  facet normal 0 0 -1
    outer loop
      vertex 0.2 -13 0
      vertex 4.83806 -10.8064 0
      vertex 4.44264 -11.2426 0
    endloop
  endfacet
  facet normal 0 0 -1
    outer loop
      vertex 0.2 -13 0
      vertex 4.44264 -11.2426 0
      vertex 4.00636 -11.6381 0
    endloop
  endfacet
  facet normal 0 0 -1
    outer loop
      vertex 0.2 -13 0
      vertex 4.00636 -11.6381 0
      vertex 3.53342 -11.9888 0
    endloop
  endfacet
  facet normal 0 0 -1
    outer loop
      vertex 0.2 -13 0
      vertex 3.53342 -11.9888 0
      vertex 3.02838 -12.2915 0
    endloop
  endfacet
  facet normal 0 0 -1
    outer loop
      vertex 0.2 -13 0
      vertex 3.02838 -12.2915 0
      vertex 2.4961 -12.5433 0
    endloop
  endfacet
  facet normal 0 0 -1
    outer loop
      vertex 0.2 -13 0
      vertex 2.4961 -12.5433 0
      vertex 1.94171 -12.7416 0
    endloop
  endfacet
  facet normal 0 0 -1
    outer loop
      vertex 0.2 -13 0
      vertex 1.94171 -12.7416 0
      vertex 1.37054 -12.8847 0
    endloop
  endfacet
  facet normal 0 0 -1
    outer loop
      vertex 0.2 -13 0
      vertex 1.37054 -12.8847 0
      vertex 0.788103 -12.9711 0
    endloop
  endfacet
  facet normal -1 0 0
    outer loop
      vertex -4.2 -6.5 0
      vertex -4.2 -6.5 2
      vertex -4.2 -4.2 0
    endloop
  endfacet
  facet normal -1 0 0
    outer loop
      vertex -4.2 -4.2 0
      vertex -4.2 -6.5 2
      vertex -4.2 -4.55089 2
    endloop
  endfacet
  facet normal -1 0 0
    outer loop
      vertex -4.2 -4.2 0
      vertex -4.2 -4.55089 2
      vertex -4.2 -4.55089 3
    endloop
  endfacet
  facet normal -1 0 0
    outer loop
      vertex -4.2 -4.2 0
      vertex -4.2 -4.55089 3
      vertex -4.2 -4.2 3
    endloop
  endfacet
  facet normal 0 0 1
    outer loop
      vertex -4.2 -6.5 2
      vertex -4.2 -11 2
      vertex 0 -11 2
    endloop
  endfacet
  facet normal 0 0 1
    outer loop
      vertex 1.94171 -12.7416 2
      vertex -4.2 -6.5 2
      vertex 0 -11 2
    endloop
  endfacet
  facet normal 0 0 1
    outer loop
      vertex 0 -13 2
      vertex 0.2 -13 2
      vertex 0 -11 2
    endloop
  endfacet
  facet normal 0 0 1
    outer loop
      vertex 0.2 -13 2
      vertex 0.788103 -12.9711 2
      vertex 0 -11 2
    endloop
  endfacet
  facet normal 0 0 1
    outer loop
      vertex 0.788103 -12.9711 2
      vertex 1.37054 -12.8847 2
      vertex 0 -11 2
    endloop
  endfacet
  facet normal 0 0 1
    outer loop
      vertex 1.37054 -12.8847 2
      vertex 1.94171 -12.7416 2
      vertex 0 -11 2
    endloop
  endfacet
  facet normal 0 0 1
    outer loop
      vertex 1.94171 -12.7416 2
      vertex 2.4961 -12.5433 2
      vertex -4.2 -6.5 2
    endloop
  endfacet
  facet normal 0 0 1
    outer loop
      vertex 2.4961 -12.5433 2
      vertex 3.02838 -12.2915 2
      vertex -4.2 -6.5 2
    endloop
  endfacet
  facet normal 0 0 1
    outer loop
      vertex 3.02838 -12.2915 2
      vertex 3.53342 -11.9888 2
      vertex -4.2 -6.5 2
    endloop
  endfacet
  facet normal 0 0 1
    outer loop
      vertex 3.53342 -11.9888 2
      vertex 4.00636 -11.6381 2
      vertex -4.2 -6.5 2
    endloop
  endfacet
  facet normal 0 0 1
    outer loop
      vertex 4.00636 -11.6381 2
      vertex 4.44264 -11.2426 2
      vertex -4.2 -6.5 2
    endloop
  endfacet
  facet normal 0 0 1
    outer loop
      vertex 4.44264 -11.2426 2
      vertex 4.83806 -10.8064 2
      vertex -4.2 -6.5 2
    endloop
  endfacet
  facet normal 0 0 1
    outer loop
      vertex 4.83806 -10.8064 2
      vertex 5.18882 -10.3334 2
      vertex -4.2 -6.5 2
    endloop
  endfacet
  facet normal 0 0 1
    outer loop
      vertex 5.18882 -10.3334 2
      vertex 5.49153 -9.82838 2
      vertex -4.2 -6.5 2
    endloop
  endfacet
  facet normal 0 0 1
    outer loop
      vertex 5.49153 -9.82838 2
      vertex 5.74328 -9.2961 2
      vertex -4.2 -6.5 2
    endloop
  endfacet
  facet normal 0 0 1
    outer loop
      vertex 5.74328 -9.2961 2
      vertex 5.94164 -8.74171 2
      vertex -4.2 -6.5 2
    endloop
  endfacet
  facet normal 0 0 1
    outer loop
      vertex 5.94164 -8.74171 2
      vertex 6.08471 -8.17054 2
      vertex -4.2 -6.5 2
    endloop
  endfacet
  facet normal 0 0 1
    outer loop
      vertex 6.08471 -8.17054 2
      vertex 6.17111 -7.5881 2
      vertex -4.2 -6.5 2
    endloop
  endfacet
  facet normal 0 0 1
    outer loop
      vertex 6.17111 -7.5881 2
      vertex 6.2 -7 2
      vertex -4.2 -6.5 2
    endloop
  endfacet
  facet normal 0 0 1
    outer loop
      vertex 6.2 0 2
      vertex 6.17014 -0.607706 2
      vertex 6.2 -7 2
    endloop
  endfacet
  facet normal 0 0 1
    outer loop
      vertex 3.93324 4.79266 2
      vertex 6.2 7 2
      vertex 6.17111 7.5881 2
    endloop
  endfacet
  facet normal 0 0 1
    outer loop
      vertex -1.20956 -6.08087 2
      vertex -1.79976 -5.93303 2
      vertex -4.2 -6.5 2
    endloop
  endfacet
  facet normal 0 0 1
    outer loop
      vertex 1.20956 6.08087 2
      vertex 1.79976 5.93303 2
      vertex 4.00636 11.6381 2
    endloop
  endfacet
  facet normal 0 0 1
    outer loop
      vertex -3.93324 -4.79266 2
      vertex -4.2 -4.55089 2
      vertex -4.2 -6.5 2
    endloop
  endfacet
  facet normal 0 0 1
    outer loop
      vertex 0 6.2 2
      vertex 0.607706 6.17014 2
      vertex 2.4961 12.5433 2
    endloop
  endfacet
  facet normal 0 0 1
    outer loop
      vertex 0 11 2
      vertex -1.79976 5.93303 2
      vertex -1.20956 6.08087 2
    endloop
  endfacet
  facet normal 0 0 1
    outer loop
      vertex -0.607706 6.17014 2
      vertex 1.94171 12.7416 2
      vertex 1.37054 12.8847 2
    endloop
  endfacet
  facet normal 0 0 1
    outer loop
      vertex 0.788103 12.9711 2
      vertex 0.2 13 2
      vertex 0 11 2
    endloop
  endfacet
  facet normal 0 0 1
    outer loop
      vertex -1.20956 6.08087 2
      vertex 0.788103 12.9711 2
      vertex 0 11 2
    endloop
  endfacet
  facet normal 0 0 1
    outer loop
      vertex -1.20956 6.08087 2
      vertex -0.607706 6.17014 2
      vertex 0.788103 12.9711 2
    endloop
  endfacet
  facet normal 0 0 1
    outer loop
      vertex 2.37264 5.72805 2
      vertex 5.49153 9.82838 2
      vertex 5.18882 10.3334 2
    endloop
  endfacet
  facet normal 0 0 1
    outer loop
      vertex 2.37264 5.72805 2
      vertex 2.92266 5.46791 2
      vertex 5.49153 9.82838 2
    endloop
  endfacet
  facet normal 0 0 1
    outer loop
      vertex -0.607706 6.17014 2
      vertex 0 6.2 2
      vertex 1.94171 12.7416 2
    endloop
  endfacet
  facet normal 0 0 1
    outer loop
      vertex 0.607706 6.17014 2
      vertex 1.20956 6.08087 2
      vertex 3.53342 11.9888 2
    endloop
  endfacet
  facet normal 0 0 1
    outer loop
      vertex 1.37054 12.8847 2
      vertex 0.788103 12.9711 2
      vertex -0.607706 6.17014 2
    endloop
  endfacet
  facet normal 0 0 1
    outer loop
      vertex 0.607706 6.17014 2
      vertex 3.53342 11.9888 2
      vertex 3.02838 12.2915 2
    endloop
  endfacet
  facet normal 0 0 1
    outer loop
      vertex 2.4961 12.5433 2
      vertex 1.94171 12.7416 2
      vertex 0 6.2 2
    endloop
  endfacet
  facet normal 0 0 1
    outer loop
      vertex 1.79976 5.93303 2
      vertex 2.37264 5.72805 2
      vertex 4.83806 10.8064 2
    endloop
  endfacet
  facet normal 0 0 1
    outer loop
      vertex 3.02838 12.2915 2
      vertex 2.4961 12.5433 2
      vertex 0.607706 6.17014 2
    endloop
  endfacet
  facet normal 0 0 1
    outer loop
      vertex 1.79976 5.93303 2
      vertex 4.83806 10.8064 2
      vertex 4.44264 11.2426 2
    endloop
  endfacet
  facet normal 0 0 1
    outer loop
      vertex 4.00636 11.6381 2
      vertex 3.53342 11.9888 2
      vertex 1.20956 6.08087 2
    endloop
  endfacet
  facet normal 0 0 1
    outer loop
      vertex 4.44264 11.2426 2
      vertex 4.00636 11.6381 2
      vertex 1.79976 5.93303 2
    endloop
  endfacet
  facet normal 0 0 1
    outer loop
      vertex -1.79976 -5.93303 2
      vertex -2.37264 -5.72805 2
      vertex -4.2 -6.5 2
    endloop
  endfacet
  facet normal 0 0 1
    outer loop
      vertex 5.18882 10.3334 2
      vertex 4.83806 10.8064 2
      vertex 2.37264 5.72805 2
    endloop
  endfacet
  facet normal 0 0 1
    outer loop
      vertex 3.44453 5.15511 2
      vertex 6.08471 8.17054 2
      vertex 5.94164 8.74171 2
    endloop
  endfacet
  facet normal 0 0 1
    outer loop
      vertex 5.74328 9.2961 2
      vertex 5.49153 9.82838 2
      vertex 2.92266 5.46791 2
    endloop
  endfacet
  facet normal 0 0 1
    outer loop
      vertex 3.93324 4.79266 2
      vertex 4.38406 4.38406 2
      vertex 6.2 7 2
    endloop
  endfacet
  facet normal 0 0 1
    outer loop
      vertex 5.94164 8.74171 2
      vertex 5.74328 9.2961 2
      vertex 3.44453 5.15511 2
    endloop
  endfacet
  facet normal 0 0 1
    outer loop
      vertex 6.08087 -1.20956 2
      vertex 5.93303 -1.79976 2
      vertex 6.2 -7 2
    endloop
  endfacet
  facet normal 0 0 1
    outer loop
      vertex 6.17111 7.5881 2
      vertex 6.08471 8.17054 2
      vertex 3.93324 4.79266 2
    endloop
  endfacet
  facet normal 0 0 1
    outer loop
      vertex 4.79266 3.93324 2
      vertex 6.2 7 2
      vertex 4.38406 4.38406 2
    endloop
  endfacet
  facet normal 0 0 1
    outer loop
      vertex 0 -6.2 2
      vertex -0.607706 -6.17014 2
      vertex -4.2 -6.5 2
    endloop
  endfacet
  facet normal 0 0 1
    outer loop
      vertex 5.15511 3.44453 2
      vertex 6.2 7 2
      vertex 4.79266 3.93324 2
    endloop
  endfacet
  facet normal 0 0 1
    outer loop
      vertex 5.46791 2.92266 2
      vertex 6.2 7 2
      vertex 5.15511 3.44453 2
    endloop
  endfacet
  facet normal 0 0 1
    outer loop
      vertex 5.72805 2.37264 2
      vertex 6.2 7 2
      vertex 5.46791 2.92266 2
    endloop
  endfacet
  facet normal 0 0 1
    outer loop
      vertex 5.93303 1.79976 2
      vertex 6.2 7 2
      vertex 5.72805 2.37264 2
    endloop
  endfacet
  facet normal 0 0 1
    outer loop
      vertex 6.08087 1.20956 2
      vertex 6.2 7 2
      vertex 5.93303 1.79976 2
    endloop
  endfacet
  facet normal 0 0 1
    outer loop
      vertex 6.17014 0.607706 2
      vertex 6.2 7 2
      vertex 6.08087 1.20956 2
    endloop
  endfacet
  facet normal 0 0 1
    outer loop
      vertex 6.2 0 2
      vertex 6.2 7 2
      vertex 6.17014 0.607706 2
    endloop
  endfacet
  facet normal 0 0 1
    outer loop
      vertex 6.17014 -0.607706 2
      vertex 6.08087 -1.20956 2
      vertex 6.2 -7 2
    endloop
  endfacet
  facet normal 0 0 1
    outer loop
      vertex 6.2 -7 2
      vertex 6.2 7 2
      vertex 6.2 0 2
    endloop
  endfacet
  facet normal 0 0 1
    outer loop
      vertex 5.93303 -1.79976 2
      vertex 5.72805 -2.37264 2
      vertex 6.2 -7 2
    endloop
  endfacet
  facet normal 0 0 1
    outer loop
      vertex 5.72805 -2.37264 2
      vertex 5.46791 -2.92266 2
      vertex 6.2 -7 2
    endloop
  endfacet
  facet normal 0 0 1
    outer loop
      vertex -0.607706 -6.17014 2
      vertex -1.20956 -6.08087 2
      vertex -4.2 -6.5 2
    endloop
  endfacet
  facet normal 0 0 1
    outer loop
      vertex 6.2 -7 2
      vertex 5.46791 -2.92266 2
      vertex 5.15511 -3.44453 2
    endloop
  endfacet
  facet normal 0 0 1
    outer loop
      vertex 6.2 -7 2
      vertex 5.15511 -3.44453 2
      vertex 4.79266 -3.93324 2
    endloop
  endfacet
  facet normal 0 0 1
    outer loop
      vertex -2.92266 -5.46791 2
      vertex -3.44453 -5.15511 2
      vertex -4.2 -6.5 2
    endloop
  endfacet
  facet normal 0 0 1
    outer loop
      vertex 6.2 -7 2
      vertex 4.79266 -3.93324 2
      vertex 4.38406 -4.38406 2
    endloop
  endfacet
  facet normal 0 0 1
    outer loop
      vertex 6.2 -7 2
      vertex 4.38406 -4.38406 2
      vertex 3.93324 -4.79266 2
    endloop
  endfacet
  facet normal 0 0 1
    outer loop
      vertex 6.2 -7 2
      vertex 3.93324 -4.79266 2
      vertex 3.44453 -5.15511 2
    endloop
  endfacet
  facet normal 0 0 1
    outer loop
      vertex 6.2 -7 2
      vertex 3.44453 -5.15511 2
      vertex 2.92266 -5.46791 2
    endloop
  endfacet
  facet normal 0 0 1
    outer loop
      vertex 6.2 -7 2
      vertex 2.92266 -5.46791 2
      vertex 2.37264 -5.72805 2
    endloop
  endfacet
  facet normal 0 0 1
    outer loop
      vertex 6.2 -7 2
      vertex 2.37264 -5.72805 2
      vertex 1.79976 -5.93303 2
    endloop
  endfacet
  facet normal 0 0 1
    outer loop
      vertex 6.2 -7 2
      vertex 1.79976 -5.93303 2
      vertex 1.20956 -6.08087 2
    endloop
  endfacet
  facet normal 0 0 1
    outer loop
      vertex 6.2 -7 2
      vertex 0.607706 -6.17014 2
      vertex -4.2 -6.5 2
    endloop
  endfacet
  facet normal 0 0 1
    outer loop
      vertex 6.2 -7 2
      vertex 1.20956 -6.08087 2
      vertex 0.607706 -6.17014 2
    endloop
  endfacet
  facet normal 0 0 1
    outer loop
      vertex 0.607706 -6.17014 2
      vertex 0 -6.2 2
      vertex -4.2 -6.5 2
    endloop
  endfacet
  facet normal 0 0 1
    outer loop
      vertex -2.37264 -5.72805 2
      vertex -2.92266 -5.46791 2
      vertex -4.2 -6.5 2
    endloop
  endfacet
  facet normal 0 0 1
    outer loop
      vertex 2.92266 5.46791 2
      vertex 3.44453 5.15511 2
      vertex 5.74328 9.2961 2
    endloop
  endfacet
  facet normal 0 0 1
    outer loop
      vertex 3.44453 5.15511 2
      vertex 3.93324 4.79266 2
      vertex 6.08471 8.17054 2
    endloop
  endfacet
  facet normal 0 0 1
    outer loop
      vertex -3.44453 -5.15511 2
      vertex -3.93324 -4.79266 2
      vertex -4.2 -6.5 2
    endloop
  endfacet
  facet normal 0 0 1
    outer loop
      vertex 0 13 2
      vertex 0 11 2
      vertex 0.2 13 2
    endloop
  endfacet
  facet normal 0 0 1
    outer loop
      vertex 0 11 2
      vertex -2.37264 5.72805 2
      vertex -1.79976 5.93303 2
    endloop
  endfacet
  facet normal 0 0 1
    outer loop
      vertex 0 11 2
      vertex -2.92266 5.46791 2
      vertex -2.37264 5.72805 2
    endloop
  endfacet
  facet normal 0 0 1
    outer loop
      vertex 0 11 2
      vertex -3.44453 5.15511 2
      vertex -2.92266 5.46791 2
    endloop
  endfacet
  facet normal 0 0 1
    outer loop
      vertex 0 11 2
      vertex -3.93324 4.79266 2
      vertex -3.44453 5.15511 2
    endloop
  endfacet
  facet normal 0 0 1
    outer loop
      vertex 0 11 2
      vertex -4.2 4.55089 2
      vertex -3.93324 4.79266 2
    endloop
  endfacet
  facet normal 0 0 1
    outer loop
      vertex 0 11 2
      vertex -4.2 6.5 2
      vertex -4.2 4.55089 2
    endloop
  endfacet
  facet normal 0 0 1
    outer loop
      vertex 0 11 2
      vertex -4.2 11 2
      vertex -4.2 6.5 2
    endloop
  endfacet
  facet normal 0 1 0
    outer loop
      vertex 0 -11 3
      vertex 0 -11 2
      vertex -4.2 -11 3
    endloop
  endfacet
  facet normal 0 1 0
    outer loop
      vertex -4.2 -11 3
      vertex 0 -11 2
      vertex -4.2 -11 2
    endloop
  endfacet
  facet normal 0 0 1
    outer loop
      vertex 0 -13 3
      vertex 0 -11 3
      vertex -4.2 -11 3
    endloop
  endfacet
  facet normal 0 0 1
    outer loop
      vertex -4.2 -13 3
      vertex 0 -13 3
      vertex -4.2 -11 3
    endloop
  endfacet
  facet normal 1 0 0
    outer loop
      vertex 0 -11 2
      vertex 0 -11 3
      vertex 0 -13 3
    endloop
  endfacet
  facet normal 1 0 0
    outer loop
      vertex 0 -13 2
      vertex 0 -11 2
      vertex 0 -13 3
    endloop
  endfacet
  facet normal 0.0490683 -0.998795 0
    outer loop
      vertex 0.788103 -12.9711 0
      vertex 0.788103 -12.9711 2
      vertex 0.2 -13 2
    endloop
  endfacet
  facet normal 0.0490683 -0.998795 0
    outer loop
      vertex 0.2 -13 0
      vertex 0.788103 -12.9711 0
      vertex 0.2 -13 2
    endloop
  endfacet
  facet normal 0.146729 -0.989177 0
    outer loop
      vertex 1.37054 -12.8847 0
      vertex 1.37054 -12.8847 2
      vertex 0.788103 -12.9711 2
    endloop
  endfacet
  facet normal 0.146729 -0.989177 0
    outer loop
      vertex 0.788103 -12.9711 0
      vertex 1.37054 -12.8847 0
      vertex 0.788103 -12.9711 2
    endloop
  endfacet
  facet normal 0.242981 -0.970031 0
    outer loop
      vertex 1.94171 -12.7416 0
      vertex 1.94171 -12.7416 2
      vertex 1.37054 -12.8847 2
    endloop
  endfacet
  facet normal 0.242981 -0.970031 0
    outer loop
      vertex 1.37054 -12.8847 0
      vertex 1.94171 -12.7416 0
      vertex 1.37054 -12.8847 2
    endloop
  endfacet
  facet normal 0.33689 -0.941544 0
    outer loop
      vertex 2.4961 -12.5433 0
      vertex 2.4961 -12.5433 2
      vertex 1.94171 -12.7416 2
    endloop
  endfacet
  facet normal 0.33689 -0.941544 0
    outer loop
      vertex 1.94171 -12.7416 0
      vertex 2.4961 -12.5433 0
      vertex 1.94171 -12.7416 2
    endloop
  endfacet
  facet normal 0.427555 -0.903989 0
    outer loop
      vertex 3.02838 -12.2915 0
      vertex 3.02838 -12.2915 2
      vertex 2.4961 -12.5433 2
    endloop
  endfacet
  facet normal 0.427555 -0.903989 0
    outer loop
      vertex 2.4961 -12.5433 0
      vertex 3.02838 -12.2915 0
      vertex 2.4961 -12.5433 2
    endloop
  endfacet
  facet normal 0.514103 -0.857729 0
    outer loop
      vertex 3.53342 -11.9888 0
      vertex 3.53342 -11.9888 2
      vertex 3.02838 -12.2915 2
    endloop
  endfacet
  facet normal 0.514103 -0.857729 0
    outer loop
      vertex 3.02838 -12.2915 0
      vertex 3.53342 -11.9888 0
      vertex 3.02838 -12.2915 2
    endloop
  endfacet
  facet normal 0.595699 -0.803208 0
    outer loop
      vertex 4.00636 -11.6381 0
      vertex 4.00636 -11.6381 2
      vertex 3.53342 -11.9888 2
    endloop
  endfacet
  facet normal 0.595699 -0.803208 0
    outer loop
      vertex 3.53342 -11.9888 0
      vertex 4.00636 -11.6381 0
      vertex 3.53342 -11.9888 2
    endloop
  endfacet
  facet normal 0.671559 -0.740951 0
    outer loop
      vertex 4.44264 -11.2426 0
      vertex 4.44264 -11.2426 2
      vertex 4.00636 -11.6381 2
    endloop
  endfacet
  facet normal 0.671559 -0.740951 0
    outer loop
      vertex 4.00636 -11.6381 0
      vertex 4.44264 -11.2426 0
      vertex 4.00636 -11.6381 2
    endloop
  endfacet
  facet normal 0.740951 -0.671559 0
    outer loop
      vertex 4.83806 -10.8064 0
      vertex 4.83806 -10.8064 2
      vertex 4.44264 -11.2426 2
    endloop
  endfacet
  facet normal 0.740951 -0.671559 0
    outer loop
      vertex 4.44264 -11.2426 0
      vertex 4.83806 -10.8064 0
      vertex 4.44264 -11.2426 2
    endloop
  endfacet
  facet normal 0.803208 -0.595699 0
    outer loop
      vertex 5.18882 -10.3334 0
      vertex 5.18882 -10.3334 2
      vertex 4.83806 -10.8064 2
    endloop
  endfacet
  facet normal 0.803208 -0.595699 0
    outer loop
      vertex 4.83806 -10.8064 0
      vertex 5.18882 -10.3334 0
      vertex 4.83806 -10.8064 2
    endloop
  endfacet
  facet normal 0.857729 -0.514103 0
    outer loop
      vertex 5.49153 -9.82838 0
      vertex 5.49153 -9.82838 2
      vertex 5.18882 -10.3334 2
    endloop
  endfacet
  facet normal 0.857729 -0.514103 0
    outer loop
      vertex 5.18882 -10.3334 0
      vertex 5.49153 -9.82838 0
      vertex 5.18882 -10.3334 2
    endloop
  endfacet
  facet normal 0.903989 -0.427555 0
    outer loop
      vertex 5.74328 -9.2961 0
      vertex 5.74328 -9.2961 2
      vertex 5.49153 -9.82838 2
    endloop
  endfacet
  facet normal 0.903989 -0.427555 0
    outer loop
      vertex 5.49153 -9.82838 0
      vertex 5.74328 -9.2961 0
      vertex 5.49153 -9.82838 2
    endloop
  endfacet
  facet normal 0.941544 -0.33689 0
    outer loop
      vertex 5.94164 -8.74171 0
      vertex 5.94164 -8.74171 2
      vertex 5.74328 -9.2961 2
    endloop
  endfacet
  facet normal 0.941544 -0.33689 0
    outer loop
      vertex 5.74328 -9.2961 0
      vertex 5.94164 -8.74171 0
      vertex 5.74328 -9.2961 2
    endloop
  endfacet
  facet normal 0.970031 -0.242981 0
    outer loop
      vertex 6.08471 -8.17054 0
      vertex 6.08471 -8.17054 2
      vertex 5.94164 -8.74171 2
    endloop
  endfacet
  facet normal 0.970031 -0.242981 0
    outer loop
      vertex 5.94164 -8.74171 0
      vertex 6.08471 -8.17054 0
      vertex 5.94164 -8.74171 2
    endloop
  endfacet
  facet normal 0.989177 -0.146729 0
    outer loop
      vertex 6.17111 -7.5881 0
      vertex 6.17111 -7.5881 2
      vertex 6.08471 -8.17054 2
    endloop
  endfacet
  facet normal 0.989177 -0.146729 0
    outer loop
      vertex 6.08471 -8.17054 0
      vertex 6.17111 -7.5881 0
      vertex 6.08471 -8.17054 2
    endloop
  endfacet
  facet normal 0.998795 -0.0490683 0
    outer loop
      vertex 6.2 -7 0
      vertex 6.2 -7 2
      vertex 6.17111 -7.5881 2
    endloop
  endfacet
  facet normal 0.998795 -0.0490683 0
    outer loop
      vertex 6.17111 -7.5881 0
      vertex 6.2 -7 0
      vertex 6.17111 -7.5881 2
    endloop
  endfacet
  facet normal 1 0 0
    outer loop
      vertex 6.2 -7 2
      vertex 6.2 -7 0
      vertex 6.2 7 0
    endloop
  endfacet
  facet normal 1 0 0
    outer loop
      vertex 6.2 7 2
      vertex 6.2 -7 2
      vertex 6.2 7 0
    endloop
  endfacet
  facet normal 0.998795 0.0490683 0
    outer loop
      vertex 6.2 7 0
      vertex 6.17111 7.5881 0
      vertex 6.17111 7.5881 2
    endloop
  endfacet
  facet normal 0.998795 0.0490683 0
    outer loop
      vertex 6.2 7 2
      vertex 6.2 7 0
      vertex 6.17111 7.5881 2
    endloop
  endfacet
  facet normal 0.989177 0.146729 0
    outer loop
      vertex 6.17111 7.5881 0
      vertex 6.08471 8.17054 0
      vertex 6.08471 8.17054 2
    endloop
  endfacet
  facet normal 0.989177 0.146729 0
    outer loop
      vertex 6.17111 7.5881 2
      vertex 6.17111 7.5881 0
      vertex 6.08471 8.17054 2
    endloop
  endfacet
  facet normal 0.970031 0.242981 0
    outer loop
      vertex 6.08471 8.17054 0
      vertex 5.94164 8.74171 0
      vertex 5.94164 8.74171 2
    endloop
  endfacet
  facet normal 0.970031 0.242981 0
    outer loop
      vertex 6.08471 8.17054 2
      vertex 6.08471 8.17054 0
      vertex 5.94164 8.74171 2
    endloop
  endfacet
  facet normal 0.941544 0.33689 0
    outer loop
      vertex 5.94164 8.74171 0
      vertex 5.74328 9.2961 0
      vertex 5.74328 9.2961 2
    endloop
  endfacet
  facet normal 0.941544 0.33689 0
    outer loop
      vertex 5.94164 8.74171 2
      vertex 5.94164 8.74171 0
      vertex 5.74328 9.2961 2
    endloop
  endfacet
  facet normal 0.903989 0.427555 0
    outer loop
      vertex 5.74328 9.2961 0
      vertex 5.49153 9.82838 0
      vertex 5.49153 9.82838 2
    endloop
  endfacet
  facet normal 0.903989 0.427555 0
    outer loop
      vertex 5.74328 9.2961 2
      vertex 5.74328 9.2961 0
      vertex 5.49153 9.82838 2
    endloop
  endfacet
  facet normal 0.857729 0.514103 0
    outer loop
      vertex 5.49153 9.82838 0
      vertex 5.18882 10.3334 0
      vertex 5.18882 10.3334 2
    endloop
  endfacet
  facet normal 0.857729 0.514103 0
    outer loop
      vertex 5.49153 9.82838 2
      vertex 5.49153 9.82838 0
      vertex 5.18882 10.3334 2
    endloop
  endfacet
  facet normal 0.803208 0.595699 0
    outer loop
      vertex 5.18882 10.3334 0
      vertex 4.83806 10.8064 0
      vertex 4.83806 10.8064 2
    endloop
  endfacet
  facet normal 0.803208 0.595699 0
    outer loop
      vertex 5.18882 10.3334 2
      vertex 5.18882 10.3334 0
      vertex 4.83806 10.8064 2
    endloop
  endfacet
  facet normal 0.740951 0.671559 0
    outer loop
      vertex 4.83806 10.8064 0
      vertex 4.44264 11.2426 0
      vertex 4.44264 11.2426 2
    endloop
  endfacet
  facet normal 0.740951 0.671559 0
    outer loop
      vertex 4.83806 10.8064 2
      vertex 4.83806 10.8064 0
      vertex 4.44264 11.2426 2
    endloop
  endfacet
  facet normal 0.671559 0.740951 0
    outer loop
      vertex 4.00636 11.6381 0
      vertex 4.00636 11.6381 2
      vertex 4.44264 11.2426 0
    endloop
  endfacet
  facet normal 0.671559 0.740951 0
    outer loop
      vertex 4.44264 11.2426 0
      vertex 4.00636 11.6381 2
      vertex 4.44264 11.2426 2
    endloop
  endfacet
  facet normal 0.595699 0.803208 0
    outer loop
      vertex 3.53342 11.9888 0
      vertex 3.53342 11.9888 2
      vertex 4.00636 11.6381 0
    endloop
  endfacet
  facet normal 0.595699 0.803208 0
    outer loop
      vertex 4.00636 11.6381 0
      vertex 3.53342 11.9888 2
      vertex 4.00636 11.6381 2
    endloop
  endfacet
  facet normal 0.514103 0.857729 0
    outer loop
      vertex 3.02838 12.2915 0
      vertex 3.02838 12.2915 2
      vertex 3.53342 11.9888 0
    endloop
  endfacet
  facet normal 0.514103 0.857729 0
    outer loop
      vertex 3.53342 11.9888 0
      vertex 3.02838 12.2915 2
      vertex 3.53342 11.9888 2
    endloop
  endfacet
  facet normal 0.427555 0.903989 0
    outer loop
      vertex 2.4961 12.5433 0
      vertex 2.4961 12.5433 2
      vertex 3.02838 12.2915 0
    endloop
  endfacet
  facet normal 0.427555 0.903989 0
    outer loop
      vertex 3.02838 12.2915 0
      vertex 2.4961 12.5433 2
      vertex 3.02838 12.2915 2
    endloop
  endfacet
  facet normal 0.33689 0.941544 0
    outer loop
      vertex 1.94171 12.7416 0
      vertex 1.94171 12.7416 2
      vertex 2.4961 12.5433 0
    endloop
  endfacet
  facet normal 0.33689 0.941544 0
    outer loop
      vertex 2.4961 12.5433 0
      vertex 1.94171 12.7416 2
      vertex 2.4961 12.5433 2
    endloop
  endfacet
  facet normal 0.242981 0.970031 0
    outer loop
      vertex 1.37054 12.8847 0
      vertex 1.37054 12.8847 2
      vertex 1.94171 12.7416 0
    endloop
  endfacet
  facet normal 0.242981 0.970031 0
    outer loop
      vertex 1.94171 12.7416 0
      vertex 1.37054 12.8847 2
      vertex 1.94171 12.7416 2
    endloop
  endfacet
  facet normal 0.146729 0.989177 0
    outer loop
      vertex 0.788103 12.9711 0
      vertex 0.788103 12.9711 2
      vertex 1.37054 12.8847 0
    endloop
  endfacet
  facet normal 0.146729 0.989177 0
    outer loop
      vertex 1.37054 12.8847 0
      vertex 0.788103 12.9711 2
      vertex 1.37054 12.8847 2
    endloop
  endfacet
  facet normal 0.0490683 0.998795 0
    outer loop
      vertex 0.2 13 0
      vertex 0.2 13 2
      vertex 0.788103 12.9711 0
    endloop
  endfacet
  facet normal 0.0490683 0.998795 0
    outer loop
      vertex 0.788103 12.9711 0
      vertex 0.2 13 2
      vertex 0.788103 12.9711 2
    endloop
  endfacet
  facet normal 0 1 0
    outer loop
      vertex -4.2 13 0
      vertex -4.2 13 3
      vertex 0.2 13 0
    endloop
  endfacet
  facet normal 0 1 0
    outer loop
      vertex 0 13 2
      vertex -4.2 13 3
      vertex 0 13 3
    endloop
  endfacet
  facet normal 0 1 0
    outer loop
      vertex 0.2 13 0
      vertex -4.2 13 3
      vertex 0 13 2
    endloop
  endfacet
  facet normal 0 1 0
    outer loop
      vertex 0.2 13 2
      vertex 0.2 13 0
      vertex 0 13 2
    endloop
  endfacet
  facet normal -1 0 0
    outer loop
      vertex -4.2 6.5 0
      vertex -4.2 6.5 2
      vertex -4.2 13 0
    endloop
  endfacet
  facet normal -1 0 0
    outer loop
      vertex -4.2 13 0
      vertex -4.2 6.5 2
      vertex -4.2 11 2
    endloop
  endfacet
  facet normal -1 0 0
    outer loop
      vertex -4.2 13 0
      vertex -4.2 11 2
      vertex -4.2 11 3
    endloop
  endfacet
  facet normal -1 0 0
    outer loop
      vertex -4.2 13 0
      vertex -4.2 11 3
      vertex -4.2 13 3
    endloop
  endfacet
  facet normal -1 0 0
    outer loop
      vertex -4.2 6.5 2
      vertex -4.2 6.5 0
      vertex -4.2 4.55089 2
    endloop
  endfacet
  facet normal -1 0 0
    outer loop
      vertex -4.2 4.2 0
      vertex -4.2 4.2 3
      vertex -4.2 4.55089 2
    endloop
  endfacet
  facet normal -1 0 0
    outer loop
      vertex -4.2 4.2 0
      vertex -4.2 4.55089 2
      vertex -4.2 6.5 0
    endloop
  endfacet
  facet normal -1 0 0
    outer loop
      vertex -4.2 4.55089 2
      vertex -4.2 4.2 3
      vertex -4.2 4.55089 3
    endloop
  endfacet
  facet normal 0 -1 0
    outer loop
      vertex 0 4.2 0
      vertex 0 4.2 3
      vertex -4.2 4.2 3
    endloop
  endfacet
  facet normal 0 -1 0
    outer loop
      vertex -4.2 4.2 0
      vertex 0 4.2 0
      vertex -4.2 4.2 3
    endloop
  endfacet
  facet normal -0.0490673 -0.998795 0
    outer loop
      vertex 0.411672 4.17978 0
      vertex 0.411672 4.17978 3
      vertex 0 4.2 3
    endloop
  endfacet
  facet normal -0.0490673 -0.998795 0
    outer loop
      vertex 0 4.2 0
      vertex 0.411672 4.17978 0
      vertex 0 4.2 3
    endloop
  endfacet
  facet normal -0.146731 -0.989176 0
    outer loop
      vertex 0.819379 4.1193 0
      vertex 0.819379 4.1193 3
      vertex 0.411672 4.17978 3
    endloop
  endfacet
  facet normal -0.146731 -0.989176 0
    outer loop
      vertex 0.411672 4.17978 0
      vertex 0.819379 4.1193 0
      vertex 0.411672 4.17978 3
    endloop
  endfacet
  facet normal -0.24298 -0.970031 0
    outer loop
      vertex 1.2192 4.01915 0
      vertex 1.2192 4.01915 3
      vertex 0.819379 4.1193 3
    endloop
  endfacet
  facet normal -0.24298 -0.970031 0
    outer loop
      vertex 0.819379 4.1193 0
      vertex 1.2192 4.01915 0
      vertex 0.819379 4.1193 3
    endloop
  endfacet
  facet normal -0.33689 -0.941544 0
    outer loop
      vertex 1.60727 3.88029 0
      vertex 1.60727 3.88029 3
      vertex 1.2192 4.01915 3
    endloop
  endfacet
  facet normal -0.33689 -0.941544 0
    outer loop
      vertex 1.2192 4.01915 0
      vertex 1.60727 3.88029 0
      vertex 1.2192 4.01915 3
    endloop
  endfacet
  facet normal -0.427556 -0.903989 0
    outer loop
      vertex 1.97987 3.70407 0
      vertex 1.97987 3.70407 3
      vertex 1.60727 3.88029 3
    endloop
  endfacet
  facet normal -0.427556 -0.903989 0
    outer loop
      vertex 1.60727 3.88029 0
      vertex 1.97987 3.70407 0
      vertex 1.60727 3.88029 3
    endloop
  endfacet
  facet normal -0.514103 -0.857729 0
    outer loop
      vertex 2.33339 3.49217 0
      vertex 2.33339 3.49217 3
      vertex 1.97987 3.70407 3
    endloop
  endfacet
  facet normal -0.514103 -0.857729 0
    outer loop
      vertex 1.97987 3.70407 0
      vertex 2.33339 3.49217 0
      vertex 1.97987 3.70407 3
    endloop
  endfacet
  facet normal -0.595698 -0.803208 0
    outer loop
      vertex 2.66445 3.24664 0
      vertex 2.66445 3.24664 3
      vertex 2.33339 3.49217 3
    endloop
  endfacet
  facet normal -0.595698 -0.803208 0
    outer loop
      vertex 2.33339 3.49217 0
      vertex 2.66445 3.24664 0
      vertex 2.33339 3.49217 3
    endloop
  endfacet
  facet normal -0.671561 -0.74095 0
    outer loop
      vertex 2.96985 2.96985 0
      vertex 2.96985 2.96985 3
      vertex 2.66445 3.24664 3
    endloop
  endfacet
  facet normal -0.671561 -0.74095 0
    outer loop
      vertex 2.66445 3.24664 0
      vertex 2.96985 2.96985 0
      vertex 2.66445 3.24664 3
    endloop
  endfacet
  facet normal -0.74095 -0.671561 0
    outer loop
      vertex 3.24664 2.66445 3
      vertex 2.96985 2.96985 3
      vertex 3.24664 2.66445 0
    endloop
  endfacet
  facet normal -0.74095 -0.671561 0
    outer loop
      vertex 3.24664 2.66445 0
      vertex 2.96985 2.96985 3
      vertex 2.96985 2.96985 0
    endloop
  endfacet
  facet normal -0.803208 -0.595698 0
    outer loop
      vertex 3.49217 2.33339 3
      vertex 3.24664 2.66445 3
      vertex 3.49217 2.33339 0
    endloop
  endfacet
  facet normal -0.803208 -0.595698 0
    outer loop
      vertex 3.49217 2.33339 0
      vertex 3.24664 2.66445 3
      vertex 3.24664 2.66445 0
    endloop
  endfacet
  facet normal -0.857729 -0.514103 0
    outer loop
      vertex 3.70407 1.97987 3
      vertex 3.49217 2.33339 3
      vertex 3.70407 1.97987 0
    endloop
  endfacet
  facet normal -0.857729 -0.514103 0
    outer loop
      vertex 3.70407 1.97987 0
      vertex 3.49217 2.33339 3
      vertex 3.49217 2.33339 0
    endloop
  endfacet
  facet normal -0.903989 -0.427556 0
    outer loop
      vertex 3.88029 1.60727 3
      vertex 3.70407 1.97987 3
      vertex 3.88029 1.60727 0
    endloop
  endfacet
  facet normal -0.903989 -0.427556 0
    outer loop
      vertex 3.88029 1.60727 0
      vertex 3.70407 1.97987 3
      vertex 3.70407 1.97987 0
    endloop
  endfacet
  facet normal -0.941544 -0.33689 0
    outer loop
      vertex 4.01915 1.2192 3
      vertex 3.88029 1.60727 3
      vertex 4.01915 1.2192 0
    endloop
  endfacet
  facet normal -0.941544 -0.33689 0
    outer loop
      vertex 4.01915 1.2192 0
      vertex 3.88029 1.60727 3
      vertex 3.88029 1.60727 0
    endloop
  endfacet
  facet normal -0.970031 -0.24298 0
    outer loop
      vertex 4.1193 0.819379 3
      vertex 4.01915 1.2192 3
      vertex 4.1193 0.819379 0
    endloop
  endfacet
  facet normal -0.970031 -0.24298 0
    outer loop
      vertex 4.1193 0.819379 0
      vertex 4.01915 1.2192 3
      vertex 4.01915 1.2192 0
    endloop
  endfacet
  facet normal -0.989176 -0.146731 0
    outer loop
      vertex 4.17978 0.411672 3
      vertex 4.1193 0.819379 3
      vertex 4.17978 0.411672 0
    endloop
  endfacet
  facet normal -0.989176 -0.146731 0
    outer loop
      vertex 4.17978 0.411672 0
      vertex 4.1193 0.819379 3
      vertex 4.1193 0.819379 0
    endloop
  endfacet
  facet normal -0.998795 -0.0490673 0
    outer loop
      vertex 4.2 0 3
      vertex 4.17978 0.411672 3
      vertex 4.2 0 0
    endloop
  endfacet
  facet normal -0.998795 -0.0490673 0
    outer loop
      vertex 4.2 0 0
      vertex 4.17978 0.411672 3
      vertex 4.17978 0.411672 0
    endloop
  endfacet
  facet normal -0.998795 0.0490673 0
    outer loop
      vertex 4.2 0 3
      vertex 4.2 0 0
      vertex 4.17978 -0.411672 3
    endloop
  endfacet
  facet normal -0.998795 0.0490673 0
    outer loop
      vertex 4.17978 -0.411672 3
      vertex 4.2 0 0
      vertex 4.17978 -0.411672 0
    endloop
  endfacet
  facet normal -0.989176 0.146731 0
    outer loop
      vertex 4.17978 -0.411672 3
      vertex 4.17978 -0.411672 0
      vertex 4.1193 -0.819379 3
    endloop
  endfacet
  facet normal -0.989176 0.146731 0
    outer loop
      vertex 4.1193 -0.819379 3
      vertex 4.17978 -0.411672 0
      vertex 4.1193 -0.819379 0
    endloop
  endfacet
  facet normal -0.970031 0.24298 0
    outer loop
      vertex 4.1193 -0.819379 3
      vertex 4.1193 -0.819379 0
      vertex 4.01915 -1.2192 3
    endloop
  endfacet
  facet normal -0.970031 0.24298 0
    outer loop
      vertex 4.01915 -1.2192 3
      vertex 4.1193 -0.819379 0
      vertex 4.01915 -1.2192 0
    endloop
  endfacet
  facet normal -0.941544 0.33689 0
    outer loop
      vertex 4.01915 -1.2192 3
      vertex 4.01915 -1.2192 0
      vertex 3.88029 -1.60727 3
    endloop
  endfacet
  facet normal -0.941544 0.33689 0
    outer loop
      vertex 3.88029 -1.60727 3
      vertex 4.01915 -1.2192 0
      vertex 3.88029 -1.60727 0
    endloop
  endfacet
  facet normal -0.903989 0.427556 0
    outer loop
      vertex 3.88029 -1.60727 3
      vertex 3.88029 -1.60727 0
      vertex 3.70407 -1.97987 3
    endloop
  endfacet
  facet normal -0.903989 0.427556 0
    outer loop
      vertex 3.70407 -1.97987 3
      vertex 3.88029 -1.60727 0
      vertex 3.70407 -1.97987 0
    endloop
  endfacet
  facet normal -0.857729 0.514103 0
    outer loop
      vertex 3.70407 -1.97987 3
      vertex 3.70407 -1.97987 0
      vertex 3.49217 -2.33339 3
    endloop
  endfacet
  facet normal -0.857729 0.514103 0
    outer loop
      vertex 3.49217 -2.33339 3
      vertex 3.70407 -1.97987 0
      vertex 3.49217 -2.33339 0
    endloop
  endfacet
  facet normal -0.803208 0.595698 0
    outer loop
      vertex 3.49217 -2.33339 3
      vertex 3.49217 -2.33339 0
      vertex 3.24664 -2.66445 3
    endloop
  endfacet
  facet normal -0.803208 0.595698 0
    outer loop
      vertex 3.24664 -2.66445 3
      vertex 3.49217 -2.33339 0
      vertex 3.24664 -2.66445 0
    endloop
  endfacet
  facet normal -0.74095 0.671561 0
    outer loop
      vertex 3.24664 -2.66445 3
      vertex 3.24664 -2.66445 0
      vertex 2.96985 -2.96985 3
    endloop
  endfacet
  facet normal -0.74095 0.671561 0
    outer loop
      vertex 2.96985 -2.96985 3
      vertex 3.24664 -2.66445 0
      vertex 2.96985 -2.96985 0
    endloop
  endfacet
  facet normal -0.671561 0.74095 0
    outer loop
      vertex 2.96985 -2.96985 3
      vertex 2.96985 -2.96985 0
      vertex 2.66445 -3.24664 3
    endloop
  endfacet
  facet normal -0.671561 0.74095 0
    outer loop
      vertex 2.66445 -3.24664 3
      vertex 2.96985 -2.96985 0
      vertex 2.66445 -3.24664 0
    endloop
  endfacet
  facet normal -0.595698 0.803208 0
    outer loop
      vertex 2.66445 -3.24664 3
      vertex 2.66445 -3.24664 0
      vertex 2.33339 -3.49217 3
    endloop
  endfacet
  facet normal -0.595698 0.803208 0
    outer loop
      vertex 2.33339 -3.49217 3
      vertex 2.66445 -3.24664 0
      vertex 2.33339 -3.49217 0
    endloop
  endfacet
  facet normal -0.514103 0.857729 0
    outer loop
      vertex 2.33339 -3.49217 3
      vertex 2.33339 -3.49217 0
      vertex 1.97987 -3.70407 3
    endloop
  endfacet
  facet normal -0.514103 0.857729 0
    outer loop
      vertex 1.97987 -3.70407 3
      vertex 2.33339 -3.49217 0
      vertex 1.97987 -3.70407 0
    endloop
  endfacet
  facet normal -0.427556 0.903989 0
    outer loop
      vertex 1.97987 -3.70407 3
      vertex 1.97987 -3.70407 0
      vertex 1.60727 -3.88029 3
    endloop
  endfacet
  facet normal -0.427556 0.903989 0
    outer loop
      vertex 1.60727 -3.88029 3
      vertex 1.97987 -3.70407 0
      vertex 1.60727 -3.88029 0
    endloop
  endfacet
  facet normal -0.33689 0.941544 0
    outer loop
      vertex 1.60727 -3.88029 3
      vertex 1.60727 -3.88029 0
      vertex 1.2192 -4.01915 3
    endloop
  endfacet
  facet normal -0.33689 0.941544 0
    outer loop
      vertex 1.2192 -4.01915 3
      vertex 1.60727 -3.88029 0
      vertex 1.2192 -4.01915 0
    endloop
  endfacet
  facet normal -0.24298 0.970031 0
    outer loop
      vertex 1.2192 -4.01915 3
      vertex 1.2192 -4.01915 0
      vertex 0.819379 -4.1193 3
    endloop
  endfacet
  facet normal -0.24298 0.970031 0
    outer loop
      vertex 0.819379 -4.1193 3
      vertex 1.2192 -4.01915 0
      vertex 0.819379 -4.1193 0
    endloop
  endfacet
  facet normal -0.146731 0.989176 0
    outer loop
      vertex 0.819379 -4.1193 3
      vertex 0.819379 -4.1193 0
      vertex 0.411672 -4.17978 3
    endloop
  endfacet
  facet normal -0.146731 0.989176 0
    outer loop
      vertex 0.411672 -4.17978 3
      vertex 0.819379 -4.1193 0
      vertex 0.411672 -4.17978 0
    endloop
  endfacet
  facet normal -0.0490673 0.998795 0
    outer loop
      vertex 0.411672 -4.17978 3
      vertex 0.411672 -4.17978 0
      vertex 0 -4.2 3
    endloop
  endfacet
  facet normal -0.0490673 0.998795 0
    outer loop
      vertex 0 -4.2 3
      vertex 0.411672 -4.17978 0
      vertex 0 -4.2 0
    endloop
  endfacet
  facet normal 0 1 0
    outer loop
      vertex 0 -4.2 3
      vertex 0 -4.2 0
      vertex -4.2 -4.2 3
    endloop
  endfacet
  facet normal 0 1 0
    outer loop
      vertex -4.2 -4.2 3
      vertex 0 -4.2 0
      vertex -4.2 -4.2 0
    endloop
  endfacet
  facet normal 0 0 1
    outer loop
      vertex -4.2 -4.2 3
      vertex -4.2 -4.55089 3
      vertex -3.93324 -4.79266 3
    endloop
  endfacet
  facet normal 0 0 1
    outer loop
      vertex -2.92266 -5.46791 3
      vertex -4.2 -4.2 3
      vertex -3.44453 -5.15511 3
    endloop
  endfacet
  facet normal 0 0 1
    outer loop
      vertex -3.44453 -5.15511 3
      vertex -4.2 -4.2 3
      vertex -3.93324 -4.79266 3
    endloop
  endfacet
  facet normal 0 0 1
    outer loop
      vertex -2.37264 -5.72805 3
      vertex -4.2 -4.2 3
      vertex -2.92266 -5.46791 3
    endloop
  endfacet
  facet normal 0 0 1
    outer loop
      vertex -1.79976 -5.93303 3
      vertex -4.2 -4.2 3
      vertex -2.37264 -5.72805 3
    endloop
  endfacet
  facet normal 0 0 1
    outer loop
      vertex -1.20956 -6.08087 3
      vertex -4.2 -4.2 3
      vertex -1.79976 -5.93303 3
    endloop
  endfacet
  facet normal 0 0 1
    outer loop
      vertex -0.607706 -6.17014 3
      vertex -4.2 -4.2 3
      vertex -1.20956 -6.08087 3
    endloop
  endfacet
  facet normal 0 0 1
    outer loop
      vertex 0 -6.2 3
      vertex -4.2 -4.2 3
      vertex -0.607706 -6.17014 3
    endloop
  endfacet
  facet normal 0 0 1
    outer loop
      vertex 0.607706 -6.17014 3
      vertex -4.2 -4.2 3
      vertex 0 -6.2 3
    endloop
  endfacet
  facet normal 0 0 1
    outer loop
      vertex 1.20956 -6.08087 3
      vertex -4.2 -4.2 3
      vertex 0.607706 -6.17014 3
    endloop
  endfacet
  facet normal 0 0 1
    outer loop
      vertex 1.79976 -5.93303 3
      vertex -4.2 -4.2 3
      vertex 1.20956 -6.08087 3
    endloop
  endfacet
  facet normal 0 0 1
    outer loop
      vertex 2.37264 -5.72805 3
      vertex -4.2 -4.2 3
      vertex 1.79976 -5.93303 3
    endloop
  endfacet
  facet normal 0 0 1
    outer loop
      vertex 2.92266 -5.46791 3
      vertex -4.2 -4.2 3
      vertex 2.37264 -5.72805 3
    endloop
  endfacet
  facet normal 0 0 1
    outer loop
      vertex 3.44453 -5.15511 3
      vertex -4.2 -4.2 3
      vertex 2.92266 -5.46791 3
    endloop
  endfacet
  facet normal 0 0 1
    outer loop
      vertex 3.93324 -4.79266 3
      vertex -4.2 -4.2 3
      vertex 3.44453 -5.15511 3
    endloop
  endfacet
  facet normal 0 0 1
    outer loop
      vertex 4.38406 -4.38406 3
      vertex -4.2 -4.2 3
      vertex 3.93324 -4.79266 3
    endloop
  endfacet
  facet normal 0 0 1
    outer loop
      vertex 0 -4.2 3
      vertex -4.2 -4.2 3
      vertex 4.38406 -4.38406 3
    endloop
  endfacet
  facet normal 0 0 1
    outer loop
      vertex 1.2192 -4.01915 3
      vertex 0.819379 -4.1193 3
      vertex 4.79266 -3.93324 3
    endloop
  endfacet
  facet normal 0 0 1
    outer loop
      vertex 2.33339 -3.49217 3
      vertex 1.97987 -3.70407 3
      vertex 5.15511 -3.44453 3
    endloop
  endfacet
  facet normal 0 0 1
    outer loop
      vertex 2.66445 -3.24664 3
      vertex 2.33339 -3.49217 3
      vertex 5.46791 -2.92266 3
    endloop
  endfacet
  facet normal 0 0 1
    outer loop
      vertex 3.24664 -2.66445 3
      vertex 2.96985 -2.96985 3
      vertex 5.72805 -2.37264 3
    endloop
  endfacet
  facet normal 0 0 1
    outer loop
      vertex 3.49217 -2.33339 3
      vertex 3.24664 -2.66445 3
      vertex 5.93303 -1.79976 3
    endloop
  endfacet
  facet normal 0 0 1
    outer loop
      vertex 3.88029 -1.60727 3
      vertex 3.70407 -1.97987 3
      vertex 6.08087 -1.20956 3
    endloop
  endfacet
  facet normal 0 0 1
    outer loop
      vertex 4.01915 -1.2192 3
      vertex 3.88029 -1.60727 3
      vertex 6.17014 -0.607706 3
    endloop
  endfacet
  facet normal 0 0 1
    outer loop
      vertex 4.1193 -0.819379 3
      vertex 4.01915 -1.2192 3
      vertex 6.2 0 3
    endloop
  endfacet
  facet normal 0 0 1
    outer loop
      vertex 4.2 0 3
      vertex 4.17978 -0.411672 3
      vertex 6.17014 0.607706 3
    endloop
  endfacet
  facet normal 0 0 1
    outer loop
      vertex 4.17978 0.411672 3
      vertex 4.2 0 3
      vertex 6.08087 1.20956 3
    endloop
  endfacet
  facet normal 0 0 1
    outer loop
      vertex 4.1193 0.819379 3
      vertex 4.17978 0.411672 3
      vertex 5.93303 1.79976 3
    endloop
  endfacet
  facet normal 0 0 1
    outer loop
      vertex 3.88029 1.60727 3
      vertex 4.01915 1.2192 3
      vertex 5.72805 2.37264 3
    endloop
  endfacet
  facet normal 0 0 1
    outer loop
      vertex 3.70407 1.97987 3
      vertex 3.88029 1.60727 3
      vertex 5.46791 2.92266 3
    endloop
  endfacet
  facet normal 0 0 1
    outer loop
      vertex 4.38406 4.38406 3
      vertex 2.96985 2.96985 3
      vertex 4.79266 3.93324 3
    endloop
  endfacet
  facet normal 0 0 1
    outer loop
      vertex 3.49217 2.33339 3
      vertex 3.70407 1.97987 3
      vertex 5.15511 3.44453 3
    endloop
  endfacet
  facet normal 0 0 1
    outer loop
      vertex 3.24664 2.66445 3
      vertex 3.49217 2.33339 3
      vertex 4.79266 3.93324 3
    endloop
  endfacet
  facet normal 0 0 1
    outer loop
      vertex 2.33339 3.49217 3
      vertex 2.66445 3.24664 3
      vertex 3.93324 4.79266 3
    endloop
  endfacet
  facet normal 0 0 1
    outer loop
      vertex 1.97987 3.70407 3
      vertex 2.33339 3.49217 3
      vertex 3.44453 5.15511 3
    endloop
  endfacet
  facet normal 0 0 1
    outer loop
      vertex 1.60727 3.88029 3
      vertex 1.97987 3.70407 3
      vertex 2.92266 5.46791 3
    endloop
  endfacet
  facet normal 0 0 1
    outer loop
      vertex 1.2192 4.01915 3
      vertex 1.60727 3.88029 3
      vertex 2.37264 5.72805 3
    endloop
  endfacet
  facet normal 0 0 1
    outer loop
      vertex 0.411672 4.17978 3
      vertex 0.819379 4.1193 3
      vertex 1.79976 5.93303 3
    endloop
  endfacet
  facet normal 0 0 1
    outer loop
      vertex 0 4.2 3
      vertex 0.411672 4.17978 3
      vertex 1.20956 6.08087 3
    endloop
  endfacet
  facet normal 0 0 1
    outer loop
      vertex -4.2 4.55089 3
      vertex -4.2 4.2 3
      vertex -3.93324 4.79266 3
    endloop
  endfacet
  facet normal 0 0 1
    outer loop
      vertex 0.607706 6.17014 3
      vertex 0 4.2 3
      vertex 1.20956 6.08087 3
    endloop
  endfacet
  facet normal 0 0 1
    outer loop
      vertex 1.20956 6.08087 3
      vertex 0.411672 4.17978 3
      vertex 1.79976 5.93303 3
    endloop
  endfacet
  facet normal 0 0 1
    outer loop
      vertex 1.79976 5.93303 3
      vertex 0.819379 4.1193 3
      vertex 2.37264 5.72805 3
    endloop
  endfacet
  facet normal 0 0 1
    outer loop
      vertex 0.819379 4.1193 3
      vertex 1.2192 4.01915 3
      vertex 2.37264 5.72805 3
    endloop
  endfacet
  facet normal 0 0 1
    outer loop
      vertex 2.37264 5.72805 3
      vertex 1.60727 3.88029 3
      vertex 2.92266 5.46791 3
    endloop
  endfacet
  facet normal 0 0 1
    outer loop
      vertex 2.92266 5.46791 3
      vertex 1.97987 3.70407 3
      vertex 3.44453 5.15511 3
    endloop
  endfacet
  facet normal 0 0 1
    outer loop
      vertex 3.44453 5.15511 3
      vertex 2.33339 3.49217 3
      vertex 3.93324 4.79266 3
    endloop
  endfacet
  facet normal 0 0 1
    outer loop
      vertex 3.93324 4.79266 3
      vertex 2.66445 3.24664 3
      vertex 4.38406 4.38406 3
    endloop
  endfacet
  facet normal 0 0 1
    outer loop
      vertex 2.66445 3.24664 3
      vertex 2.96985 2.96985 3
      vertex 4.38406 4.38406 3
    endloop
  endfacet
  facet normal 0 0 1
    outer loop
      vertex 2.96985 2.96985 3
      vertex 3.24664 2.66445 3
      vertex 4.79266 3.93324 3
    endloop
  endfacet
  facet normal 0 0 1
    outer loop
      vertex 4.79266 3.93324 3
      vertex 3.49217 2.33339 3
      vertex 5.15511 3.44453 3
    endloop
  endfacet
  facet normal 0 0 1
    outer loop
      vertex 5.15511 3.44453 3
      vertex 3.70407 1.97987 3
      vertex 5.46791 2.92266 3
    endloop
  endfacet
  facet normal 0 0 1
    outer loop
      vertex 5.46791 2.92266 3
      vertex 3.88029 1.60727 3
      vertex 5.72805 2.37264 3
    endloop
  endfacet
  facet normal 0 0 1
    outer loop
      vertex 5.72805 2.37264 3
      vertex 4.01915 1.2192 3
      vertex 5.93303 1.79976 3
    endloop
  endfacet
  facet normal 0 0 1
    outer loop
      vertex 4.01915 1.2192 3
      vertex 4.1193 0.819379 3
      vertex 5.93303 1.79976 3
    endloop
  endfacet
  facet normal 0 0 1
    outer loop
      vertex 5.93303 1.79976 3
      vertex 4.17978 0.411672 3
      vertex 6.08087 1.20956 3
    endloop
  endfacet
  facet normal 0 0 1
    outer loop
      vertex 6.08087 1.20956 3
      vertex 4.2 0 3
      vertex 6.17014 0.607706 3
    endloop
  endfacet
  facet normal 0 0 1
    outer loop
      vertex 6.17014 0.607706 3
      vertex 4.17978 -0.411672 3
      vertex 6.2 0 3
    endloop
  endfacet
  facet normal 0 0 1
    outer loop
      vertex 4.17978 -0.411672 3
      vertex 4.1193 -0.819379 3
      vertex 6.2 0 3
    endloop
  endfacet
  facet normal 0 0 1
    outer loop
      vertex 6.2 0 3
      vertex 4.01915 -1.2192 3
      vertex 6.17014 -0.607706 3
    endloop
  endfacet
  facet normal 0 0 1
    outer loop
      vertex 6.17014 -0.607706 3
      vertex 3.88029 -1.60727 3
      vertex 6.08087 -1.20956 3
    endloop
  endfacet
  facet normal 0 0 1
    outer loop
      vertex 6.08087 -1.20956 3
      vertex 3.70407 -1.97987 3
      vertex 5.93303 -1.79976 3
    endloop
  endfacet
  facet normal 0 0 1
    outer loop
      vertex 3.70407 -1.97987 3
      vertex 3.49217 -2.33339 3
      vertex 5.93303 -1.79976 3
    endloop
  endfacet
  facet normal 0 0 1
    outer loop
      vertex 5.93303 -1.79976 3
      vertex 3.24664 -2.66445 3
      vertex 5.72805 -2.37264 3
    endloop
  endfacet
  facet normal 0 0 1
    outer loop
      vertex 5.72805 -2.37264 3
      vertex 2.96985 -2.96985 3
      vertex 5.46791 -2.92266 3
    endloop
  endfacet
  facet normal 0 0 1
    outer loop
      vertex 2.96985 -2.96985 3
      vertex 2.66445 -3.24664 3
      vertex 5.46791 -2.92266 3
    endloop
  endfacet
  facet normal 0 0 1
    outer loop
      vertex 5.46791 -2.92266 3
      vertex 2.33339 -3.49217 3
      vertex 5.15511 -3.44453 3
    endloop
  endfacet
  facet normal 0 0 1
    outer loop
      vertex 5.15511 -3.44453 3
      vertex 1.97987 -3.70407 3
      vertex 4.79266 -3.93324 3
    endloop
  endfacet
  facet normal 0 0 1
    outer loop
      vertex 1.97987 -3.70407 3
      vertex 1.60727 -3.88029 3
      vertex 4.79266 -3.93324 3
    endloop
  endfacet
  facet normal 0 0 1
    outer loop
      vertex 1.60727 -3.88029 3
      vertex 1.2192 -4.01915 3
      vertex 4.79266 -3.93324 3
    endloop
  endfacet
  facet normal 0 0 1
    outer loop
      vertex 4.79266 -3.93324 3
      vertex 0.819379 -4.1193 3
      vertex 4.38406 -4.38406 3
    endloop
  endfacet
  facet normal 0 0 1
    outer loop
      vertex 0.819379 -4.1193 3
      vertex 0.411672 -4.17978 3
      vertex 4.38406 -4.38406 3
    endloop
  endfacet
  facet normal 0 0 1
    outer loop
      vertex 0.411672 -4.17978 3
      vertex 0 -4.2 3
      vertex 4.38406 -4.38406 3
    endloop
  endfacet
  facet normal 0 0 1
    outer loop
      vertex -4.2 4.2 3
      vertex -3.44453 5.15511 3
      vertex -3.93324 4.79266 3
    endloop
  endfacet
  facet normal 0 0 1
    outer loop
      vertex -4.2 4.2 3
      vertex -2.92266 5.46791 3
      vertex -3.44453 5.15511 3
    endloop
  endfacet
  facet normal 0 0 1
    outer loop
      vertex -4.2 4.2 3
      vertex -2.37264 5.72805 3
      vertex -2.92266 5.46791 3
    endloop
  endfacet
  facet normal 0 0 1
    outer loop
      vertex -4.2 4.2 3
      vertex -1.79976 5.93303 3
      vertex -2.37264 5.72805 3
    endloop
  endfacet
  facet normal 0 0 1
    outer loop
      vertex -4.2 4.2 3
      vertex -1.20956 6.08087 3
      vertex -1.79976 5.93303 3
    endloop
  endfacet
  facet normal 0 0 1
    outer loop
      vertex -4.2 4.2 3
      vertex -0.607706 6.17014 3
      vertex -1.20956 6.08087 3
    endloop
  endfacet
  facet normal 0 0 1
    outer loop
      vertex -4.2 4.2 3
      vertex 0 6.2 3
      vertex -0.607706 6.17014 3
    endloop
  endfacet
  facet normal 0 0 1
    outer loop
      vertex -4.2 4.2 3
      vertex 0.607706 6.17014 3
      vertex 0 6.2 3
    endloop
  endfacet
  facet normal 0 0 1
    outer loop
      vertex -4.2 4.2 3
      vertex 0 4.2 3
      vertex 0.607706 6.17014 3
    endloop
  endfacet
  facet normal -0.671559 -0.740951 0
    outer loop
      vertex -4.2 -4.55089 3
      vertex -4.2 -4.55089 2
      vertex -3.93324 -4.79266 2
    endloop
  endfacet
  facet normal -0.671559 -0.740951 0
    outer loop
      vertex -3.93324 -4.79266 3
      vertex -4.2 -4.55089 3
      vertex -3.93324 -4.79266 2
    endloop
  endfacet
  facet normal -0.595699 -0.803207 0
    outer loop
      vertex -3.93324 -4.79266 3
      vertex -3.93324 -4.79266 2
      vertex -3.44453 -5.15511 2
    endloop
  endfacet
  facet normal -0.595699 -0.803207 0
    outer loop
      vertex -3.44453 -5.15511 3
      vertex -3.93324 -4.79266 3
      vertex -3.44453 -5.15511 2
    endloop
  endfacet
  facet normal -0.514103 -0.857728 0
    outer loop
      vertex -3.44453 -5.15511 3
      vertex -3.44453 -5.15511 2
      vertex -2.92266 -5.46791 2
    endloop
  endfacet
  facet normal -0.514103 -0.857728 0
    outer loop
      vertex -2.92266 -5.46791 3
      vertex -3.44453 -5.15511 3
      vertex -2.92266 -5.46791 2
    endloop
  endfacet
  facet normal -0.427554 -0.90399 0
    outer loop
      vertex -2.92266 -5.46791 3
      vertex -2.92266 -5.46791 2
      vertex -2.37264 -5.72805 2
    endloop
  endfacet
  facet normal -0.427554 -0.90399 0
    outer loop
      vertex -2.37264 -5.72805 3
      vertex -2.92266 -5.46791 3
      vertex -2.37264 -5.72805 2
    endloop
  endfacet
  facet normal -0.33689 -0.941544 0
    outer loop
      vertex -2.37264 -5.72805 3
      vertex -2.37264 -5.72805 2
      vertex -1.79976 -5.93303 2
    endloop
  endfacet
  facet normal -0.33689 -0.941544 0
    outer loop
      vertex -1.79976 -5.93303 3
      vertex -2.37264 -5.72805 3
      vertex -1.79976 -5.93303 2
    endloop
  endfacet
  facet normal -0.242981 -0.970031 0
    outer loop
      vertex -1.79976 -5.93303 3
      vertex -1.79976 -5.93303 2
      vertex -1.20956 -6.08087 2
    endloop
  endfacet
  facet normal -0.242981 -0.970031 0
    outer loop
      vertex -1.20956 -6.08087 3
      vertex -1.79976 -5.93303 3
      vertex -1.20956 -6.08087 2
    endloop
  endfacet
  facet normal -0.146729 -0.989177 0
    outer loop
      vertex -1.20956 -6.08087 3
      vertex -1.20956 -6.08087 2
      vertex -0.607706 -6.17014 2
    endloop
  endfacet
  facet normal -0.146729 -0.989177 0
    outer loop
      vertex -0.607706 -6.17014 3
      vertex -1.20956 -6.08087 3
      vertex -0.607706 -6.17014 2
    endloop
  endfacet
  facet normal -0.0490682 -0.998795 0
    outer loop
      vertex -0.607706 -6.17014 3
      vertex -0.607706 -6.17014 2
      vertex 0 -6.2 2
    endloop
  endfacet
  facet normal -0.0490682 -0.998795 0
    outer loop
      vertex 0 -6.2 3
      vertex -0.607706 -6.17014 3
      vertex 0 -6.2 2
    endloop
  endfacet
  facet normal 0.0490682 -0.998795 0
    outer loop
      vertex 0 -6.2 3
      vertex 0 -6.2 2
      vertex 0.607706 -6.17014 2
    endloop
  endfacet
  facet normal 0.0490682 -0.998795 0
    outer loop
      vertex 0.607706 -6.17014 3
      vertex 0 -6.2 3
      vertex 0.607706 -6.17014 2
    endloop
  endfacet
  facet normal 0.146729 -0.989177 0
    outer loop
      vertex 0.607706 -6.17014 3
      vertex 0.607706 -6.17014 2
      vertex 1.20956 -6.08087 2
    endloop
  endfacet
  facet normal 0.146729 -0.989177 0
    outer loop
      vertex 1.20956 -6.08087 3
      vertex 0.607706 -6.17014 3
      vertex 1.20956 -6.08087 2
    endloop
  endfacet
  facet normal 0.242981 -0.970031 0
    outer loop
      vertex 1.20956 -6.08087 3
      vertex 1.20956 -6.08087 2
      vertex 1.79976 -5.93303 2
    endloop
  endfacet
  facet normal 0.242981 -0.970031 0
    outer loop
      vertex 1.79976 -5.93303 3
      vertex 1.20956 -6.08087 3
      vertex 1.79976 -5.93303 2
    endloop
  endfacet
  facet normal 0.33689 -0.941544 0
    outer loop
      vertex 1.79976 -5.93303 3
      vertex 1.79976 -5.93303 2
      vertex 2.37264 -5.72805 2
    endloop
  endfacet
  facet normal 0.33689 -0.941544 0
    outer loop
      vertex 2.37264 -5.72805 3
      vertex 1.79976 -5.93303 3
      vertex 2.37264 -5.72805 2
    endloop
  endfacet
  facet normal 0.427554 -0.90399 0
    outer loop
      vertex 2.37264 -5.72805 3
      vertex 2.37264 -5.72805 2
      vertex 2.92266 -5.46791 2
    endloop
  endfacet
  facet normal 0.427554 -0.90399 0
    outer loop
      vertex 2.92266 -5.46791 3
      vertex 2.37264 -5.72805 3
      vertex 2.92266 -5.46791 2
    endloop
  endfacet
  facet normal 0.514103 -0.857728 0
    outer loop
      vertex 2.92266 -5.46791 3
      vertex 2.92266 -5.46791 2
      vertex 3.44453 -5.15511 2
    endloop
  endfacet
  facet normal 0.514103 -0.857728 0
    outer loop
      vertex 3.44453 -5.15511 3
      vertex 2.92266 -5.46791 3
      vertex 3.44453 -5.15511 2
    endloop
  endfacet
  facet normal 0.595699 -0.803207 0
    outer loop
      vertex 3.44453 -5.15511 3
      vertex 3.44453 -5.15511 2
      vertex 3.93324 -4.79266 2
    endloop
  endfacet
  facet normal 0.595699 -0.803207 0
    outer loop
      vertex 3.93324 -4.79266 3
      vertex 3.44453 -5.15511 3
      vertex 3.93324 -4.79266 2
    endloop
  endfacet
  facet normal 0.671559 -0.740951 0
    outer loop
      vertex 3.93324 -4.79266 3
      vertex 3.93324 -4.79266 2
      vertex 4.38406 -4.38406 2
    endloop
  endfacet
  facet normal 0.671559 -0.740951 0
    outer loop
      vertex 4.38406 -4.38406 3
      vertex 3.93324 -4.79266 3
      vertex 4.38406 -4.38406 2
    endloop
  endfacet
  facet normal 0.740951 -0.671559 0
    outer loop
      vertex 4.38406 -4.38406 3
      vertex 4.38406 -4.38406 2
      vertex 4.79266 -3.93324 2
    endloop
  endfacet
  facet normal 0.740951 -0.671559 0
    outer loop
      vertex 4.79266 -3.93324 3
      vertex 4.38406 -4.38406 3
      vertex 4.79266 -3.93324 2
    endloop
  endfacet
  facet normal 0.803207 -0.595699 0
    outer loop
      vertex 4.79266 -3.93324 3
      vertex 4.79266 -3.93324 2
      vertex 5.15511 -3.44453 2
    endloop
  endfacet
  facet normal 0.803207 -0.595699 0
    outer loop
      vertex 5.15511 -3.44453 3
      vertex 4.79266 -3.93324 3
      vertex 5.15511 -3.44453 2
    endloop
  endfacet
  facet normal 0.857728 -0.514103 0
    outer loop
      vertex 5.15511 -3.44453 3
      vertex 5.15511 -3.44453 2
      vertex 5.46791 -2.92266 2
    endloop
  endfacet
  facet normal 0.857728 -0.514103 0
    outer loop
      vertex 5.46791 -2.92266 3
      vertex 5.15511 -3.44453 3
      vertex 5.46791 -2.92266 2
    endloop
  endfacet
  facet normal 0.90399 -0.427554 0
    outer loop
      vertex 5.46791 -2.92266 3
      vertex 5.46791 -2.92266 2
      vertex 5.72805 -2.37264 2
    endloop
  endfacet
  facet normal 0.90399 -0.427554 0
    outer loop
      vertex 5.72805 -2.37264 3
      vertex 5.46791 -2.92266 3
      vertex 5.72805 -2.37264 2
    endloop
  endfacet
  facet normal 0.941544 -0.33689 0
    outer loop
      vertex 5.72805 -2.37264 3
      vertex 5.72805 -2.37264 2
      vertex 5.93303 -1.79976 2
    endloop
  endfacet
  facet normal 0.941544 -0.33689 0
    outer loop
      vertex 5.93303 -1.79976 3
      vertex 5.72805 -2.37264 3
      vertex 5.93303 -1.79976 2
    endloop
  endfacet
  facet normal 0.970031 -0.242981 0
    outer loop
      vertex 5.93303 -1.79976 3
      vertex 5.93303 -1.79976 2
      vertex 6.08087 -1.20956 2
    endloop
  endfacet
  facet normal 0.970031 -0.242981 0
    outer loop
      vertex 6.08087 -1.20956 3
      vertex 5.93303 -1.79976 3
      vertex 6.08087 -1.20956 2
    endloop
  endfacet
  facet normal 0.989177 -0.146729 0
    outer loop
      vertex 6.08087 -1.20956 3
      vertex 6.08087 -1.20956 2
      vertex 6.17014 -0.607706 2
    endloop
  endfacet
  facet normal 0.989177 -0.146729 0
    outer loop
      vertex 6.17014 -0.607706 3
      vertex 6.08087 -1.20956 3
      vertex 6.17014 -0.607706 2
    endloop
  endfacet
  facet normal 0.998795 -0.0490682 0
    outer loop
      vertex 6.17014 -0.607706 3
      vertex 6.17014 -0.607706 2
      vertex 6.2 0 2
    endloop
  endfacet
  facet normal 0.998795 -0.0490682 0
    outer loop
      vertex 6.2 0 3
      vertex 6.17014 -0.607706 3
      vertex 6.2 0 2
    endloop
  endfacet
  facet normal 0.998795 0.0490682 0
    outer loop
      vertex 6.2 0 2
      vertex 6.17014 0.607706 2
      vertex 6.17014 0.607706 3
    endloop
  endfacet
  facet normal 0.998795 0.0490682 0
    outer loop
      vertex 6.2 0 3
      vertex 6.2 0 2
      vertex 6.17014 0.607706 3
    endloop
  endfacet
  facet normal 0.989177 0.146729 0
    outer loop
      vertex 6.17014 0.607706 2
      vertex 6.08087 1.20956 2
      vertex 6.08087 1.20956 3
    endloop
  endfacet
  facet normal 0.989177 0.146729 0
    outer loop
      vertex 6.17014 0.607706 3
      vertex 6.17014 0.607706 2
      vertex 6.08087 1.20956 3
    endloop
  endfacet
  facet normal 0.970031 0.242981 0
    outer loop
      vertex 6.08087 1.20956 2
      vertex 5.93303 1.79976 2
      vertex 5.93303 1.79976 3
    endloop
  endfacet
  facet normal 0.970031 0.242981 0
    outer loop
      vertex 6.08087 1.20956 3
      vertex 6.08087 1.20956 2
      vertex 5.93303 1.79976 3
    endloop
  endfacet
  facet normal 0.941544 0.33689 0
    outer loop
      vertex 5.93303 1.79976 2
      vertex 5.72805 2.37264 2
      vertex 5.72805 2.37264 3
    endloop
  endfacet
  facet normal 0.941544 0.33689 0
    outer loop
      vertex 5.93303 1.79976 3
      vertex 5.93303 1.79976 2
      vertex 5.72805 2.37264 3
    endloop
  endfacet
  facet normal 0.90399 0.427554 0
    outer loop
      vertex 5.72805 2.37264 2
      vertex 5.46791 2.92266 2
      vertex 5.46791 2.92266 3
    endloop
  endfacet
  facet normal 0.90399 0.427554 0
    outer loop
      vertex 5.72805 2.37264 3
      vertex 5.72805 2.37264 2
      vertex 5.46791 2.92266 3
    endloop
  endfacet
  facet normal 0.857728 0.514103 0
    outer loop
      vertex 5.46791 2.92266 2
      vertex 5.15511 3.44453 2
      vertex 5.15511 3.44453 3
    endloop
  endfacet
  facet normal 0.857728 0.514103 0
    outer loop
      vertex 5.46791 2.92266 3
      vertex 5.46791 2.92266 2
      vertex 5.15511 3.44453 3
    endloop
  endfacet
  facet normal 0.803207 0.595699 0
    outer loop
      vertex 5.15511 3.44453 2
      vertex 4.79266 3.93324 2
      vertex 4.79266 3.93324 3
    endloop
  endfacet
  facet normal 0.803207 0.595699 0
    outer loop
      vertex 5.15511 3.44453 3
      vertex 5.15511 3.44453 2
      vertex 4.79266 3.93324 3
    endloop
  endfacet
  facet normal 0.740951 0.671559 0
    outer loop
      vertex 4.79266 3.93324 2
      vertex 4.38406 4.38406 2
      vertex 4.38406 4.38406 3
    endloop
  endfacet
  facet normal 0.740951 0.671559 0
    outer loop
      vertex 4.79266 3.93324 3
      vertex 4.79266 3.93324 2
      vertex 4.38406 4.38406 3
    endloop
  endfacet
  facet normal 0.671559 0.740951 0
    outer loop
      vertex 3.93324 4.79266 2
      vertex 3.93324 4.79266 3
      vertex 4.38406 4.38406 2
    endloop
  endfacet
  facet normal 0.671559 0.740951 0
    outer loop
      vertex 4.38406 4.38406 2
      vertex 3.93324 4.79266 3
      vertex 4.38406 4.38406 3
    endloop
  endfacet
  facet normal 0.595699 0.803207 0
    outer loop
      vertex 3.44453 5.15511 2
      vertex 3.44453 5.15511 3
      vertex 3.93324 4.79266 2
    endloop
  endfacet
  facet normal 0.595699 0.803207 0
    outer loop
      vertex 3.93324 4.79266 2
      vertex 3.44453 5.15511 3
      vertex 3.93324 4.79266 3
    endloop
  endfacet
  facet normal 0.514103 0.857728 0
    outer loop
      vertex 2.92266 5.46791 2
      vertex 2.92266 5.46791 3
      vertex 3.44453 5.15511 2
    endloop
  endfacet
  facet normal 0.514103 0.857728 0
    outer loop
      vertex 3.44453 5.15511 2
      vertex 2.92266 5.46791 3
      vertex 3.44453 5.15511 3
    endloop
  endfacet
  facet normal 0.427554 0.90399 0
    outer loop
      vertex 2.37264 5.72805 2
      vertex 2.37264 5.72805 3
      vertex 2.92266 5.46791 2
    endloop
  endfacet
  facet normal 0.427554 0.90399 0
    outer loop
      vertex 2.92266 5.46791 2
      vertex 2.37264 5.72805 3
      vertex 2.92266 5.46791 3
    endloop
  endfacet
  facet normal 0.33689 0.941544 0
    outer loop
      vertex 1.79976 5.93303 2
      vertex 1.79976 5.93303 3
      vertex 2.37264 5.72805 2
    endloop
  endfacet
  facet normal 0.33689 0.941544 0
    outer loop
      vertex 2.37264 5.72805 2
      vertex 1.79976 5.93303 3
      vertex 2.37264 5.72805 3
    endloop
  endfacet
  facet normal 0.242981 0.970031 0
    outer loop
      vertex 1.20956 6.08087 2
      vertex 1.20956 6.08087 3
      vertex 1.79976 5.93303 2
    endloop
  endfacet
  facet normal 0.242981 0.970031 0
    outer loop
      vertex 1.79976 5.93303 2
      vertex 1.20956 6.08087 3
      vertex 1.79976 5.93303 3
    endloop
  endfacet
  facet normal 0.146729 0.989177 0
    outer loop
      vertex 0.607706 6.17014 2
      vertex 0.607706 6.17014 3
      vertex 1.20956 6.08087 2
    endloop
  endfacet
  facet normal 0.146729 0.989177 0
    outer loop
      vertex 1.20956 6.08087 2
      vertex 0.607706 6.17014 3
      vertex 1.20956 6.08087 3
    endloop
  endfacet
  facet normal 0.0490682 0.998795 0
    outer loop
      vertex 0 6.2 2
      vertex 0 6.2 3
      vertex 0.607706 6.17014 2
    endloop
  endfacet
  facet normal 0.0490682 0.998795 0
    outer loop
      vertex 0.607706 6.17014 2
      vertex 0 6.2 3
      vertex 0.607706 6.17014 3
    endloop
  endfacet
  facet normal -0.0490682 0.998795 0
    outer loop
      vertex -0.607706 6.17014 2
      vertex -0.607706 6.17014 3
      vertex 0 6.2 2
    endloop
  endfacet
  facet normal -0.0490682 0.998795 0
    outer loop
      vertex 0 6.2 2
      vertex -0.607706 6.17014 3
      vertex 0 6.2 3
    endloop
  endfacet
  facet normal -0.146729 0.989177 0
    outer loop
      vertex -1.20956 6.08087 2
      vertex -1.20956 6.08087 3
      vertex -0.607706 6.17014 2
    endloop
  endfacet
  facet normal -0.146729 0.989177 0
    outer loop
      vertex -0.607706 6.17014 2
      vertex -1.20956 6.08087 3
      vertex -0.607706 6.17014 3
    endloop
  endfacet
  facet normal -0.242981 0.970031 0
    outer loop
      vertex -1.79976 5.93303 2
      vertex -1.79976 5.93303 3
      vertex -1.20956 6.08087 2
    endloop
  endfacet
  facet normal -0.242981 0.970031 0
    outer loop
      vertex -1.20956 6.08087 2
      vertex -1.79976 5.93303 3
      vertex -1.20956 6.08087 3
    endloop
  endfacet
  facet normal -0.33689 0.941544 0
    outer loop
      vertex -2.37264 5.72805 2
      vertex -2.37264 5.72805 3
      vertex -1.79976 5.93303 2
    endloop
  endfacet
  facet normal -0.33689 0.941544 0
    outer loop
      vertex -1.79976 5.93303 2
      vertex -2.37264 5.72805 3
      vertex -1.79976 5.93303 3
    endloop
  endfacet
  facet normal -0.427554 0.90399 0
    outer loop
      vertex -2.92266 5.46791 2
      vertex -2.92266 5.46791 3
      vertex -2.37264 5.72805 2
    endloop
  endfacet
  facet normal -0.427554 0.90399 0
    outer loop
      vertex -2.37264 5.72805 2
      vertex -2.92266 5.46791 3
      vertex -2.37264 5.72805 3
    endloop
  endfacet
  facet normal -0.514103 0.857728 0
    outer loop
      vertex -3.44453 5.15511 2
      vertex -3.44453 5.15511 3
      vertex -2.92266 5.46791 2
    endloop
  endfacet
  facet normal -0.514103 0.857728 0
    outer loop
      vertex -2.92266 5.46791 2
      vertex -3.44453 5.15511 3
      vertex -2.92266 5.46791 3
    endloop
  endfacet
  facet normal -0.595699 0.803207 0
    outer loop
      vertex -3.93324 4.79266 2
      vertex -3.93324 4.79266 3
      vertex -3.44453 5.15511 2
    endloop
  endfacet
  facet normal -0.595699 0.803207 0
    outer loop
      vertex -3.44453 5.15511 2
      vertex -3.93324 4.79266 3
      vertex -3.44453 5.15511 3
    endloop
  endfacet
  facet normal -0.671559 0.740951 0
    outer loop
      vertex -4.2 4.55089 2
      vertex -4.2 4.55089 3
      vertex -3.93324 4.79266 2
    endloop
  endfacet
  facet normal -0.671559 0.740951 0
    outer loop
      vertex -3.93324 4.79266 2
      vertex -4.2 4.55089 3
      vertex -3.93324 4.79266 3
    endloop
  endfacet
  facet normal 0 -1 0
    outer loop
      vertex -4.2 11 3
      vertex -4.2 11 2
      vertex 0 11 2
    endloop
  endfacet
  facet normal 0 -1 0
    outer loop
      vertex 0 11 3
      vertex -4.2 11 3
      vertex 0 11 2
    endloop
  endfacet
  facet normal 1 0 0
    outer loop
      vertex 0 11 3
      vertex 0 11 2
      vertex 0 13 2
    endloop
  endfacet
  facet normal 1 0 0
    outer loop
      vertex 0 13 3
      vertex 0 11 3
      vertex 0 13 2
    endloop
  endfacet
  facet normal 0 0 1
    outer loop
      vertex -4.2 13 3
      vertex -4.2 11 3
      vertex 0 11 3
    endloop
  endfacet
  facet normal 0 0 1
    outer loop
      vertex 0 13 3
      vertex -4.2 13 3
      vertex 0 11 3
    endloop
  endfacet
endsolid OpenSCAD_Model
