solid OpenSCAD_Model
  facet normal -1.000000 0.000000 0.000000
    outer loop
      vertex -8.000000 9.900000 2.325684
      vertex -8.000000 12.000000 0.000000
      vertex -8.000000 7.000000 0.651368
    endloop
  endfacet
  facet normal -1.000000 0.000000 -0.000000
    outer loop
      vertex -8.000000 7.000000 7.348632
      vertex -8.000000 0.000000 8.000000
      vertex -8.000000 12.000000 8.000000
    endloop
  endfacet
  facet normal -1.000000 0.000000 -0.000000
    outer loop
      vertex -8.000000 0.000000 0.000000
      vertex -8.000000 0.000000 8.000000
      vertex -8.000000 4.100000 2.325684
    endloop
  endfacet
  facet normal -1.000000 0.000000 0.000000
    outer loop
      vertex -8.000000 0.000000 0.000000
      vertex -8.000000 4.100000 2.325684
      vertex -8.000000 7.000000 0.651368
    endloop
  endfacet
  facet normal -1.000000 -0.000000 0.000000
    outer loop
      vertex -8.000000 0.000000 0.000000
      vertex -8.000000 7.000000 0.651368
      vertex -8.000000 12.000000 0.000000
    endloop
  endfacet
  facet normal -1.000000 -0.000000 0.000000
    outer loop
      vertex -8.000000 7.000000 7.348632
      vertex -8.000000 12.000000 8.000000
      vertex -8.000000 9.900000 5.674316
    endloop
  endfacet
  facet normal -1.000000 0.000000 0.000000
    outer loop
      vertex -8.000000 12.000000 0.000000
      vertex -8.000000 9.900000 2.325684
      vertex -8.000000 12.000000 8.000000
    endloop
  endfacet
  facet normal -1.000000 0.000000 -0.000000
    outer loop
      vertex -8.000000 9.900000 2.325684
      vertex -8.000000 9.900000 5.674316
      vertex -8.000000 12.000000 8.000000
    endloop
  endfacet
  facet normal -1.000000 0.000000 -0.000000
    outer loop
      vertex -8.000000 4.100000 5.674316
      vertex -8.000000 0.000000 8.000000
      vertex -8.000000 7.000000 7.348632
    endloop
  endfacet
  facet normal -1.000000 0.000000 0.000000
    outer loop
      vertex -8.000000 4.100000 2.325684
      vertex -8.000000 0.000000 8.000000
      vertex -8.000000 4.100000 5.674316
    endloop
  endfacet
  facet normal -0.992709 -0.120536 -0.000000
    outer loop
      vertex -8.000000 0.000000 0.000000
      vertex -7.767535 -1.914525 0.000000
      vertex -8.000000 0.000000 8.000000
    endloop
  endfacet
  facet normal -0.992709 -0.120536 0.000000
    outer loop
      vertex -8.000000 0.000000 8.000000
      vertex -7.767535 -1.914525 0.000000
      vertex -7.767535 -1.914525 8.000000
    endloop
  endfacet
  facet normal -0.000000 -0.000000 -1.000000
    outer loop
      vertex -8.000000 0.000000 0.000000
      vertex -8.000000 12.000000 0.000000
      vertex -7.767535 -1.914525 0.000000
    endloop
  endfacet
  facet normal 0.000000 -0.000000 -1.000000
    outer loop
      vertex -7.767535 -1.914525 0.000000
      vertex -8.000000 12.000000 0.000000
      vertex -2.500000 12.000000 0.000000
    endloop
  endfacet
  facet normal 0.000000 0.000000 -1.000000
    outer loop
      vertex -2.994043 2.652491 0.000000
      vertex -2.500000 12.000000 0.000000
      vertex -2.500000 2.993504 0.000000
    endloop
  endfacet
  facet normal 0.000000 0.000000 -1.000000
    outer loop
      vertex -7.767535 -1.914525 0.000000
      vertex -2.500000 12.000000 0.000000
      vertex -2.994043 2.652491 0.000000
    endloop
  endfacet
  facet normal 0.000000 0.000000 -1.000000
    outer loop
      vertex 2.500000 12.000000 0.000000
      vertex 3.541824 1.858893 0.000000
      vertex 2.500000 3.034869 0.000000
    endloop
  endfacet
  facet normal 0.000000 0.000000 -1.000000
    outer loop
      vertex -7.767535 -1.914525 0.000000
      vertex -3.883767 0.957263 0.000000
      vertex -3.883767 -0.957263 0.000000
    endloop
  endfacet
  facet normal 0.000000 0.000000 -1.000000
    outer loop
      vertex -3.883767 -0.957263 0.000000
      vertex -2.994043 -2.652491 0.000000
      vertex -7.767535 -1.914525 0.000000
    endloop
  endfacet
  facet normal 0.000000 0.000000 -1.000000
    outer loop
      vertex -2.994043 -2.652491 0.000000
      vertex -1.418420 -3.740065 0.000000
      vertex -7.767535 -1.914525 0.000000
    endloop
  endfacet
  facet normal -0.000000 -0.000000 -1.000000
    outer loop
      vertex 3.541824 1.858893 0.000000
      vertex 2.500000 12.000000 0.000000
      vertex 4.000000 0.000000 0.000000
    endloop
  endfacet
  facet normal 0.000000 -0.000000 -1.000000
    outer loop
      vertex 4.000000 0.000000 0.000000
      vertex 2.500000 12.000000 0.000000
      vertex 8.000000 12.000000 0.000000
    endloop
  endfacet
  facet normal -0.000000 0.000000 -1.000000
    outer loop
      vertex 4.000000 0.000000 0.000000
      vertex 8.000000 12.000000 0.000000
      vertex 3.541824 -1.858893 0.000000
    endloop
  endfacet
  facet normal 0.000000 0.000000 -1.000000
    outer loop
      vertex 3.541824 -1.858893 0.000000
      vertex 8.000000 12.000000 0.000000
      vertex 8.000000 0.000000 0.000000
    endloop
  endfacet
  facet normal -0.000000 0.000000 -1.000000
    outer loop
      vertex 3.541824 -1.858893 0.000000
      vertex 8.000000 0.000000 0.000000
      vertex 2.272259 -3.291935 0.000000
    endloop
  endfacet
  facet normal 0.000000 0.000000 -1.000000
    outer loop
      vertex 2.272259 -3.291935 0.000000
      vertex 8.000000 0.000000 0.000000
      vertex 7.767535 -1.914525 0.000000
    endloop
  endfacet
  facet normal -0.000000 0.000000 -1.000000
    outer loop
      vertex 2.272259 -3.291935 0.000000
      vertex 7.767535 -1.914525 0.000000
      vertex 0.482147 -3.970835 0.000000
    endloop
  endfacet
  facet normal 0.000000 0.000000 -1.000000
    outer loop
      vertex 0.482147 -3.970835 0.000000
      vertex 7.767535 -1.914525 0.000000
      vertex 7.083648 -3.717785 0.000000
    endloop
  endfacet
  facet normal -0.000000 0.000000 -1.000000
    outer loop
      vertex 0.482147 -3.970835 0.000000
      vertex 7.083648 -3.717785 0.000000
      vertex 5.988086 -5.304981 0.000000
    endloop
  endfacet
  facet normal 0.000000 0.000000 -1.000000
    outer loop
      vertex 0.482147 -3.970835 0.000000
      vertex 5.988086 -5.304981 0.000000
      vertex -1.418420 -3.740065 0.000000
    endloop
  endfacet
  facet normal 0.000000 0.000000 -1.000000
    outer loop
      vertex -1.418420 -3.740065 0.000000
      vertex 5.988086 -5.304981 0.000000
      vertex 4.544518 -6.583871 0.000000
    endloop
  endfacet
  facet normal 0.000000 0.000000 -1.000000
    outer loop
      vertex -1.418420 -3.740065 0.000000
      vertex 4.544518 -6.583871 0.000000
      vertex -7.767535 -1.914525 0.000000
    endloop
  endfacet
  facet normal 0.000000 0.000000 -1.000000
    outer loop
      vertex -7.767535 -1.914525 0.000000
      vertex 4.544518 -6.583871 0.000000
      vertex 2.836839 -7.480130 0.000000
    endloop
  endfacet
  facet normal 0.000000 0.000000 -1.000000
    outer loop
      vertex -7.767535 -1.914525 0.000000
      vertex 2.836839 -7.480130 0.000000
      vertex 0.964293 -7.941671 0.000000
    endloop
  endfacet
  facet normal 0.000000 0.000000 -1.000000
    outer loop
      vertex -7.767535 -1.914525 0.000000
      vertex 0.964293 -7.941671 0.000000
      vertex -0.964293 -7.941671 0.000000
    endloop
  endfacet
  facet normal 0.000000 0.000000 -1.000000
    outer loop
      vertex -7.767535 -1.914525 0.000000
      vertex -0.964293 -7.941671 0.000000
      vertex -2.836839 -7.480130 0.000000
    endloop
  endfacet
  facet normal 0.000000 0.000000 -1.000000
    outer loop
      vertex -7.767535 -1.914525 0.000000
      vertex -2.836839 -7.480130 0.000000
      vertex -4.544518 -6.583871 0.000000
    endloop
  endfacet
  facet normal 0.000000 0.000000 -1.000000
    outer loop
      vertex -7.767535 -1.914525 0.000000
      vertex -4.544518 -6.583871 0.000000
      vertex -5.988086 -5.304981 0.000000
    endloop
  endfacet
  facet normal 0.000000 0.000000 -1.000000
    outer loop
      vertex -7.767535 -1.914525 0.000000
      vertex -5.988086 -5.304981 0.000000
      vertex -7.083648 -3.717785 0.000000
    endloop
  endfacet
  facet normal 0.000000 -0.000000 -1.000000
    outer loop
      vertex -3.883767 0.957263 0.000000
      vertex -7.767535 -1.914525 0.000000
      vertex -2.994043 2.652491 0.000000
    endloop
  endfacet
  facet normal 0.000000 1.000000 0.000000
    outer loop
      vertex -8.000000 12.000000 0.000000
      vertex -8.000000 12.000000 8.000000
      vertex -2.500000 12.000000 0.000000
    endloop
  endfacet
  facet normal 0.000000 1.000000 0.000000
    outer loop
      vertex -2.500000 12.000000 0.000000
      vertex -8.000000 12.000000 8.000000
      vertex -2.500000 12.000000 8.000000
    endloop
  endfacet
  facet normal 0.000000 -0.000000 1.000000
    outer loop
      vertex -8.000000 12.000000 8.000000
      vertex -8.000000 0.000000 8.000000
      vertex -7.767535 -1.914525 8.000000
    endloop
  endfacet
  facet normal 0.000000 0.000000 1.000000
    outer loop
      vertex -5.988086 -5.304981 8.000000
      vertex -8.000000 12.000000 8.000000
      vertex -7.083648 -3.717785 8.000000
    endloop
  endfacet
  facet normal 0.000000 0.000000 1.000000
    outer loop
      vertex -7.083648 -3.717785 8.000000
      vertex -8.000000 12.000000 8.000000
      vertex -7.767535 -1.914525 8.000000
    endloop
  endfacet
  facet normal 0.000000 0.000000 1.000000
    outer loop
      vertex -4.544518 -6.583871 8.000000
      vertex -8.000000 12.000000 8.000000
      vertex -5.988086 -5.304981 8.000000
    endloop
  endfacet
  facet normal 0.000000 0.000000 1.000000
    outer loop
      vertex -2.836839 -7.480130 8.000000
      vertex -8.000000 12.000000 8.000000
      vertex -4.544518 -6.583871 8.000000
    endloop
  endfacet
  facet normal -0.000000 -0.000000 1.000000
    outer loop
      vertex -3.883767 -0.957263 8.000000
      vertex -8.000000 12.000000 8.000000
      vertex -2.836839 -7.480130 8.000000
    endloop
  endfacet
  facet normal 0.000000 0.000000 1.000000
    outer loop
      vertex -3.883767 -0.957263 8.000000
      vertex -3.883767 0.957263 8.000000
      vertex -8.000000 12.000000 8.000000
    endloop
  endfacet
  facet normal -0.000000 -0.000000 1.000000
    outer loop
      vertex -1.418420 -3.740065 8.000000
      vertex -2.994043 -2.652491 8.000000
      vertex -0.964293 -7.941671 8.000000
    endloop
  endfacet
  facet normal 0.000000 0.000000 1.000000
    outer loop
      vertex 3.541824 -1.858893 8.000000
      vertex 4.544518 -6.583871 8.000000
      vertex 5.988086 -5.304981 8.000000
    endloop
  endfacet
  facet normal 0.000000 -0.000000 1.000000
    outer loop
      vertex 4.000000 0.000000 8.000000
      vertex 3.541824 -1.858893 8.000000
      vertex 7.083648 -3.717785 8.000000
    endloop
  endfacet
  facet normal 0.000000 0.000000 1.000000
    outer loop
      vertex 3.541824 1.858893 8.000000
      vertex 4.000000 0.000000 8.000000
      vertex 7.767535 -1.914525 8.000000
    endloop
  endfacet
  facet normal 0.000000 0.000000 1.000000
    outer loop
      vertex 8.000000 12.000000 8.000000
      vertex 2.500000 12.000000 8.000000
      vertex 8.000000 0.000000 8.000000
    endloop
  endfacet
  facet normal -0.000000 0.000000 1.000000
    outer loop
      vertex 8.000000 0.000000 8.000000
      vertex 2.500000 3.034869 8.000000
      vertex 7.767535 -1.914525 8.000000
    endloop
  endfacet
  facet normal 0.000000 0.000000 1.000000
    outer loop
      vertex 2.500000 3.034869 8.000000
      vertex 3.541824 1.858893 8.000000
      vertex 7.767535 -1.914525 8.000000
    endloop
  endfacet
  facet normal -0.000000 0.000000 1.000000
    outer loop
      vertex 7.767535 -1.914525 8.000000
      vertex 4.000000 0.000000 8.000000
      vertex 7.083648 -3.717785 8.000000
    endloop
  endfacet
  facet normal -0.000000 0.000000 1.000000
    outer loop
      vertex 7.083648 -3.717785 8.000000
      vertex 3.541824 -1.858893 8.000000
      vertex 5.988086 -5.304981 8.000000
    endloop
  endfacet
  facet normal -0.000000 0.000000 1.000000
    outer loop
      vertex 4.544518 -6.583871 8.000000
      vertex 2.272259 -3.291935 8.000000
      vertex 2.836839 -7.480130 8.000000
    endloop
  endfacet
  facet normal 0.000000 0.000000 1.000000
    outer loop
      vertex -2.994043 2.652491 8.000000
      vertex -2.500000 2.993504 8.000000
      vertex -8.000000 12.000000 8.000000
    endloop
  endfacet
  facet normal -0.000000 0.000000 1.000000
    outer loop
      vertex 2.836839 -7.480130 8.000000
      vertex 0.482147 -3.970835 8.000000
      vertex 0.964293 -7.941671 8.000000
    endloop
  endfacet
  facet normal -0.000000 0.000000 1.000000
    outer loop
      vertex 0.964293 -7.941671 8.000000
      vertex -1.418420 -3.740065 8.000000
      vertex -0.964293 -7.941671 8.000000
    endloop
  endfacet
  facet normal 0.000000 0.000000 1.000000
    outer loop
      vertex -0.964293 -7.941671 8.000000
      vertex -2.994043 -2.652491 8.000000
      vertex -2.836839 -7.480130 8.000000
    endloop
  endfacet
  facet normal -0.000000 -0.000000 1.000000
    outer loop
      vertex -2.994043 -2.652491 8.000000
      vertex -3.883767 -0.957263 8.000000
      vertex -2.836839 -7.480130 8.000000
    endloop
  endfacet
  facet normal 0.000000 0.000000 1.000000
    outer loop
      vertex -3.883767 0.957263 8.000000
      vertex -2.994043 2.652491 8.000000
      vertex -8.000000 12.000000 8.000000
    endloop
  endfacet
  facet normal -0.000000 -0.000000 1.000000
    outer loop
      vertex 0.482147 -3.970835 8.000000
      vertex -1.418420 -3.740065 8.000000
      vertex 0.964293 -7.941671 8.000000
    endloop
  endfacet
  facet normal 0.000000 -0.000000 1.000000
    outer loop
      vertex 3.541824 -1.858893 8.000000
      vertex 2.272259 -3.291935 8.000000
      vertex 4.544518 -6.583871 8.000000
    endloop
  endfacet
  facet normal 0.000000 -0.000000 1.000000
    outer loop
      vertex 2.500000 12.000000 8.000000
      vertex 2.500000 3.034869 8.000000
      vertex 8.000000 0.000000 8.000000
    endloop
  endfacet
  facet normal 0.000000 -0.000000 1.000000
    outer loop
      vertex 2.272259 -3.291935 8.000000
      vertex 0.482147 -3.970835 8.000000
      vertex 2.836839 -7.480130 8.000000
    endloop
  endfacet
  facet normal 0.000000 0.000000 1.000000
    outer loop
      vertex -2.500000 2.993504 8.000000
      vertex -2.500000 12.000000 8.000000
      vertex -8.000000 12.000000 8.000000
    endloop
  endfacet
  facet normal 0.000000 0.500000 -0.866025
    outer loop
      vertex -6.010000 7.000000 7.348632
      vertex -6.010000 4.100000 5.674316
      vertex -8.000000 7.000000 7.348632
    endloop
  endfacet
  facet normal 0.000000 0.500000 -0.866025
    outer loop
      vertex -8.000000 7.000000 7.348632
      vertex -6.010000 4.100000 5.674316
      vertex -8.000000 4.100000 5.674316
    endloop
  endfacet
  facet normal 0.000000 1.000000 -0.000000
    outer loop
      vertex -6.010000 4.100000 5.674316
      vertex -6.010000 4.100000 2.325684
      vertex -8.000000 4.100000 5.674316
    endloop
  endfacet
  facet normal 0.000000 1.000000 -0.000000
    outer loop
      vertex -8.000000 4.100000 5.674316
      vertex -6.010000 4.100000 2.325684
      vertex -8.000000 4.100000 2.325684
    endloop
  endfacet
  facet normal 0.000000 -0.500000 -0.866025
    outer loop
      vertex -6.010000 9.900000 5.674316
      vertex -6.010000 7.000000 7.348632
      vertex -8.000000 9.900000 5.674316
    endloop
  endfacet
  facet normal 0.000000 -0.500000 -0.866025
    outer loop
      vertex -8.000000 9.900000 5.674316
      vertex -6.010000 7.000000 7.348632
      vertex -8.000000 7.000000 7.348632
    endloop
  endfacet
  facet normal 0.000000 -1.000000 0.000000
    outer loop
      vertex -6.010000 9.900000 2.325684
      vertex -6.010000 9.900000 5.674316
      vertex -8.000000 9.900000 5.674316
    endloop
  endfacet
  facet normal -0.000000 -1.000000 -0.000000
    outer loop
      vertex -8.000000 9.900000 2.325684
      vertex -6.010000 9.900000 2.325684
      vertex -8.000000 9.900000 5.674316
    endloop
  endfacet
  facet normal 0.000000 -0.500000 0.866025
    outer loop
      vertex -6.010000 7.000000 0.651368
      vertex -6.010000 9.900000 2.325684
      vertex -8.000000 9.900000 2.325684
    endloop
  endfacet
  facet normal -0.000000 -0.500000 0.866025
    outer loop
      vertex -8.000000 7.000000 0.651368
      vertex -6.010000 7.000000 0.651368
      vertex -8.000000 9.900000 2.325684
    endloop
  endfacet
  facet normal 0.000000 0.500000 0.866025
    outer loop
      vertex -6.010000 4.100000 2.325684
      vertex -6.010000 7.000000 0.651368
      vertex -8.000000 7.000000 0.651368
    endloop
  endfacet
  facet normal 0.000000 0.500000 0.866025
    outer loop
      vertex -8.000000 4.100000 2.325684
      vertex -6.010000 4.100000 2.325684
      vertex -8.000000 7.000000 0.651368
    endloop
  endfacet
  facet normal -0.935016 -0.354605 -0.000000
    outer loop
      vertex -7.767535 -1.914525 0.000000
      vertex -7.083648 -3.717785 0.000000
      vertex -7.767535 -1.914525 8.000000
    endloop
  endfacet
  facet normal -0.935016 -0.354605 0.000000
    outer loop
      vertex -7.767535 -1.914525 8.000000
      vertex -7.083648 -3.717785 0.000000
      vertex -7.083648 -3.717785 8.000000
    endloop
  endfacet
  facet normal -0.822984 -0.568065 -0.000000
    outer loop
      vertex -7.083648 -3.717785 0.000000
      vertex -5.988086 -5.304981 0.000000
      vertex -7.083648 -3.717785 8.000000
    endloop
  endfacet
  facet normal -0.822984 -0.568065 0.000000
    outer loop
      vertex -7.083648 -3.717785 8.000000
      vertex -5.988086 -5.304981 0.000000
      vertex -5.988086 -5.304981 8.000000
    endloop
  endfacet
  facet normal -0.663123 -0.748511 0.000000
    outer loop
      vertex -5.988086 -5.304981 8.000000
      vertex -5.988086 -5.304981 0.000000
      vertex -4.544518 -6.583871 0.000000
    endloop
  endfacet
  facet normal -0.663123 -0.748511 0.000000
    outer loop
      vertex -4.544518 -6.583871 8.000000
      vertex -5.988086 -5.304981 8.000000
      vertex -4.544518 -6.583871 0.000000
    endloop
  endfacet
  facet normal -0.464723 -0.885456 0.000000
    outer loop
      vertex -4.544518 -6.583871 8.000000
      vertex -4.544518 -6.583871 0.000000
      vertex -2.836839 -7.480130 0.000000
    endloop
  endfacet
  facet normal -0.464723 -0.885456 0.000000
    outer loop
      vertex -2.836839 -7.480130 8.000000
      vertex -4.544518 -6.583871 8.000000
      vertex -2.836839 -7.480130 0.000000
    endloop
  endfacet
  facet normal -0.239316 -0.970942 0.000000
    outer loop
      vertex -2.836839 -7.480130 8.000000
      vertex -2.836839 -7.480130 0.000000
      vertex -0.964293 -7.941671 0.000000
    endloop
  endfacet
  facet normal -0.239316 -0.970942 0.000000
    outer loop
      vertex -0.964293 -7.941671 8.000000
      vertex -2.836839 -7.480130 8.000000
      vertex -0.964293 -7.941671 0.000000
    endloop
  endfacet
  facet normal 0.000000 -1.000000 0.000000
    outer loop
      vertex -0.964293 -7.941671 8.000000
      vertex -0.964293 -7.941671 0.000000
      vertex 0.964293 -7.941671 0.000000
    endloop
  endfacet
  facet normal 0.000000 -1.000000 0.000000
    outer loop
      vertex 0.964293 -7.941671 8.000000
      vertex -0.964293 -7.941671 8.000000
      vertex 0.964293 -7.941671 0.000000
    endloop
  endfacet
  facet normal 0.239316 -0.970942 0.000000
    outer loop
      vertex 0.964293 -7.941671 8.000000
      vertex 0.964293 -7.941671 0.000000
      vertex 2.836839 -7.480130 0.000000
    endloop
  endfacet
  facet normal 0.239316 -0.970942 0.000000
    outer loop
      vertex 2.836839 -7.480130 8.000000
      vertex 0.964293 -7.941671 8.000000
      vertex 2.836839 -7.480130 0.000000
    endloop
  endfacet
  facet normal 0.464723 -0.885456 0.000000
    outer loop
      vertex 2.836839 -7.480130 8.000000
      vertex 2.836839 -7.480130 0.000000
      vertex 4.544518 -6.583871 0.000000
    endloop
  endfacet
  facet normal 0.464723 -0.885456 0.000000
    outer loop
      vertex 4.544518 -6.583871 8.000000
      vertex 2.836839 -7.480130 8.000000
      vertex 4.544518 -6.583871 0.000000
    endloop
  endfacet
  facet normal 0.663123 -0.748511 0.000000
    outer loop
      vertex 4.544518 -6.583871 8.000000
      vertex 4.544518 -6.583871 0.000000
      vertex 5.988086 -5.304981 0.000000
    endloop
  endfacet
  facet normal 0.663123 -0.748511 0.000000
    outer loop
      vertex 5.988086 -5.304981 8.000000
      vertex 4.544518 -6.583871 8.000000
      vertex 5.988086 -5.304981 0.000000
    endloop
  endfacet
  facet normal 0.822984 -0.568065 0.000000
    outer loop
      vertex 5.988086 -5.304981 8.000000
      vertex 5.988086 -5.304981 0.000000
      vertex 7.083648 -3.717785 0.000000
    endloop
  endfacet
  facet normal 0.822984 -0.568065 0.000000
    outer loop
      vertex 7.083648 -3.717785 8.000000
      vertex 5.988086 -5.304981 8.000000
      vertex 7.083648 -3.717785 0.000000
    endloop
  endfacet
  facet normal 0.935016 -0.354605 0.000000
    outer loop
      vertex 7.083648 -3.717785 8.000000
      vertex 7.083648 -3.717785 0.000000
      vertex 7.767535 -1.914525 0.000000
    endloop
  endfacet
  facet normal 0.935016 -0.354605 0.000000
    outer loop
      vertex 7.767535 -1.914525 8.000000
      vertex 7.083648 -3.717785 8.000000
      vertex 7.767535 -1.914525 0.000000
    endloop
  endfacet
  facet normal 0.992709 -0.120536 0.000000
    outer loop
      vertex 7.767535 -1.914525 8.000000
      vertex 7.767535 -1.914525 0.000000
      vertex 8.000000 0.000000 0.000000
    endloop
  endfacet
  facet normal 0.992709 -0.120536 0.000000
    outer loop
      vertex 8.000000 0.000000 8.000000
      vertex 7.767535 -1.914525 8.000000
      vertex 8.000000 0.000000 0.000000
    endloop
  endfacet
  facet normal 1.000000 0.000000 -0.000000
    outer loop
      vertex 8.000000 7.312145 2.430744
      vertex 8.000000 0.000000 0.000000
      vertex 8.000000 12.000000 0.000000
    endloop
  endfacet
  facet normal 1.000000 0.000000 -0.000000
    outer loop
      vertex 8.000000 0.000000 8.000000
      vertex 8.000000 0.000000 0.000000
      vertex 8.000000 5.430744 3.687855
    endloop
  endfacet
  facet normal 1.000000 0.000000 -0.000000
    outer loop
      vertex 8.000000 7.612293 2.521793
      vertex 8.000000 7.312145 2.430744
      vertex 8.000000 12.000000 0.000000
    endloop
  endfacet
  facet normal 1.000000 0.000000 0.000000
    outer loop
      vertex 8.000000 0.000000 8.000000
      vertex 8.000000 5.430744 3.687855
      vertex 8.000000 5.400000 4.000000
    endloop
  endfacet
  facet normal 1.000000 0.000000 0.000000
    outer loop
      vertex 8.000000 6.387707 5.478207
      vertex 8.000000 6.687855 5.569256
      vertex 8.000000 12.000000 8.000000
    endloop
  endfacet
  facet normal 1.000000 0.000000 0.000000
    outer loop
      vertex 8.000000 0.000000 8.000000
      vertex 8.000000 5.400000 4.000000
      vertex 8.000000 5.430744 4.312145
    endloop
  endfacet
  facet normal 1.000000 -0.000000 0.000000
    outer loop
      vertex 8.000000 5.669649 4.888912
      vertex 8.000000 0.000000 8.000000
      vertex 8.000000 5.521793 4.612293
    endloop
  endfacet
  facet normal 1.000000 -0.000000 0.000000
    outer loop
      vertex 8.000000 5.868629 5.131371
      vertex 8.000000 0.000000 8.000000
      vertex 8.000000 5.669649 4.888912
    endloop
  endfacet
  facet normal 1.000000 -0.000000 0.000000
    outer loop
      vertex 8.000000 6.111088 5.330351
      vertex 8.000000 0.000000 8.000000
      vertex 8.000000 5.868629 5.131371
    endloop
  endfacet
  facet normal 1.000000 -0.000000 0.000000
    outer loop
      vertex 8.000000 6.387707 5.478207
      vertex 8.000000 0.000000 8.000000
      vertex 8.000000 6.111088 5.330351
    endloop
  endfacet
  facet normal 1.000000 0.000000 0.000000
    outer loop
      vertex 8.000000 6.687855 5.569256
      vertex 8.000000 7.000000 5.600000
      vertex 8.000000 12.000000 8.000000
    endloop
  endfacet
  facet normal 1.000000 0.000000 0.000000
    outer loop
      vertex 8.000000 12.000000 8.000000
      vertex 8.000000 0.000000 8.000000
      vertex 8.000000 6.387707 5.478207
    endloop
  endfacet
  facet normal 1.000000 0.000000 0.000000
    outer loop
      vertex 8.000000 7.000000 5.600000
      vertex 8.000000 7.312145 5.569256
      vertex 8.000000 12.000000 8.000000
    endloop
  endfacet
  facet normal 1.000000 0.000000 0.000000
    outer loop
      vertex 8.000000 7.312145 5.569256
      vertex 8.000000 7.612293 5.478207
      vertex 8.000000 12.000000 8.000000
    endloop
  endfacet
  facet normal 1.000000 0.000000 0.000000
    outer loop
      vertex 8.000000 8.330351 4.888912
      vertex 8.000000 8.478207 4.612293
      vertex 8.000000 12.000000 0.000000
    endloop
  endfacet
  facet normal 1.000000 0.000000 0.000000
    outer loop
      vertex 8.000000 8.569256 4.312145
      vertex 8.000000 8.600000 4.000000
      vertex 8.000000 12.000000 0.000000
    endloop
  endfacet
  facet normal 1.000000 0.000000 0.000000
    outer loop
      vertex 8.000000 12.000000 8.000000
      vertex 8.000000 7.612293 5.478207
      vertex 8.000000 7.888912 5.330351
    endloop
  endfacet
  facet normal 1.000000 0.000000 0.000000
    outer loop
      vertex 8.000000 8.478207 4.612293
      vertex 8.000000 8.569256 4.312145
      vertex 8.000000 12.000000 0.000000
    endloop
  endfacet
  facet normal 1.000000 0.000000 0.000000
    outer loop
      vertex 8.000000 12.000000 8.000000
      vertex 8.000000 7.888912 5.330351
      vertex 8.000000 8.131371 5.131371
    endloop
  endfacet
  facet normal 1.000000 0.000000 0.000000
    outer loop
      vertex 8.000000 12.000000 8.000000
      vertex 8.000000 8.330351 4.888912
      vertex 8.000000 12.000000 0.000000
    endloop
  endfacet
  facet normal 1.000000 0.000000 0.000000
    outer loop
      vertex 8.000000 12.000000 8.000000
      vertex 8.000000 8.131371 5.131371
      vertex 8.000000 8.330351 4.888912
    endloop
  endfacet
  facet normal 1.000000 0.000000 -0.000000
    outer loop
      vertex 8.000000 8.600000 4.000000
      vertex 8.000000 8.569256 3.687855
      vertex 8.000000 12.000000 0.000000
    endloop
  endfacet
  facet normal 1.000000 0.000000 -0.000000
    outer loop
      vertex 8.000000 8.569256 3.687855
      vertex 8.000000 8.478207 3.387707
      vertex 8.000000 12.000000 0.000000
    endloop
  endfacet
  facet normal 1.000000 0.000000 -0.000000
    outer loop
      vertex 8.000000 8.478207 3.387707
      vertex 8.000000 8.330351 3.111088
      vertex 8.000000 12.000000 0.000000
    endloop
  endfacet
  facet normal 1.000000 0.000000 -0.000000
    outer loop
      vertex 8.000000 8.330351 3.111088
      vertex 8.000000 8.131371 2.868629
      vertex 8.000000 12.000000 0.000000
    endloop
  endfacet
  facet normal 1.000000 0.000000 -0.000000
    outer loop
      vertex 8.000000 7.000000 2.400000
      vertex 8.000000 0.000000 0.000000
      vertex 8.000000 7.312145 2.430744
    endloop
  endfacet
  facet normal 1.000000 0.000000 -0.000000
    outer loop
      vertex 8.000000 6.687855 2.430744
      vertex 8.000000 0.000000 0.000000
      vertex 8.000000 7.000000 2.400000
    endloop
  endfacet
  facet normal 1.000000 0.000000 -0.000000
    outer loop
      vertex 8.000000 6.387707 2.521793
      vertex 8.000000 0.000000 0.000000
      vertex 8.000000 6.687855 2.430744
    endloop
  endfacet
  facet normal 1.000000 0.000000 -0.000000
    outer loop
      vertex 8.000000 6.111088 2.669649
      vertex 8.000000 0.000000 0.000000
      vertex 8.000000 6.387707 2.521793
    endloop
  endfacet
  facet normal 1.000000 0.000000 -0.000000
    outer loop
      vertex 8.000000 5.868629 2.868629
      vertex 8.000000 0.000000 0.000000
      vertex 8.000000 6.111088 2.669649
    endloop
  endfacet
  facet normal 1.000000 0.000000 -0.000000
    outer loop
      vertex 8.000000 5.669649 3.111088
      vertex 8.000000 0.000000 0.000000
      vertex 8.000000 5.868629 2.868629
    endloop
  endfacet
  facet normal 1.000000 0.000000 -0.000000
    outer loop
      vertex 8.000000 5.521793 3.387707
      vertex 8.000000 0.000000 0.000000
      vertex 8.000000 5.669649 3.111088
    endloop
  endfacet
  facet normal 1.000000 0.000000 -0.000000
    outer loop
      vertex 8.000000 5.430744 3.687855
      vertex 8.000000 0.000000 0.000000
      vertex 8.000000 5.521793 3.387707
    endloop
  endfacet
  facet normal 1.000000 0.000000 -0.000000
    outer loop
      vertex 8.000000 7.888912 2.669649
      vertex 8.000000 7.612293 2.521793
      vertex 8.000000 12.000000 0.000000
    endloop
  endfacet
  facet normal 1.000000 0.000000 0.000000
    outer loop
      vertex 8.000000 5.430744 4.312145
      vertex 8.000000 5.521793 4.612293
      vertex 8.000000 0.000000 8.000000
    endloop
  endfacet
  facet normal 1.000000 0.000000 -0.000000
    outer loop
      vertex 8.000000 8.131371 2.868629
      vertex 8.000000 7.888912 2.669649
      vertex 8.000000 12.000000 0.000000
    endloop
  endfacet
  facet normal 0.000000 1.000000 0.000000
    outer loop
      vertex 2.500000 12.000000 0.000000
      vertex 2.500000 12.000000 8.000000
      vertex 8.000000 12.000000 0.000000
    endloop
  endfacet
  facet normal 0.000000 1.000000 0.000000
    outer loop
      vertex 8.000000 12.000000 0.000000
      vertex 2.500000 12.000000 8.000000
      vertex 8.000000 12.000000 8.000000
    endloop
  endfacet
  facet normal -1.000000 0.000000 0.000000
    outer loop
      vertex 2.500000 6.387707 2.521793
      vertex 2.500000 12.000000 0.000000
      vertex 2.500000 3.034869 0.000000
    endloop
  endfacet
  facet normal -1.000000 0.000000 0.000000
    outer loop
      vertex 2.500000 8.478207 3.387707
      vertex 2.500000 12.000000 0.000000
      vertex 2.500000 8.330351 3.111088
    endloop
  endfacet
  facet normal -1.000000 0.000000 0.000000
    outer loop
      vertex 2.500000 3.034869 8.000000
      vertex 2.500000 5.430744 3.687855
      vertex 2.500000 3.034869 0.000000
    endloop
  endfacet
  facet normal -1.000000 0.000000 0.000000
    outer loop
      vertex 2.500000 5.430744 3.687855
      vertex 2.500000 5.521793 3.387707
      vertex 2.500000 3.034869 0.000000
    endloop
  endfacet
  facet normal -1.000000 0.000000 0.000000
    outer loop
      vertex 2.500000 7.612293 2.521793
      vertex 2.500000 12.000000 0.000000
      vertex 2.500000 7.312145 2.430744
    endloop
  endfacet
  facet normal -1.000000 0.000000 0.000000
    outer loop
      vertex 2.500000 5.521793 3.387707
      vertex 2.500000 5.669649 3.111088
      vertex 2.500000 3.034869 0.000000
    endloop
  endfacet
  facet normal -1.000000 0.000000 0.000000
    outer loop
      vertex 2.500000 7.312145 2.430744
      vertex 2.500000 12.000000 0.000000
      vertex 2.500000 7.000000 2.400000
    endloop
  endfacet
  facet normal -1.000000 0.000000 0.000000
    outer loop
      vertex 2.500000 5.669649 3.111088
      vertex 2.500000 5.868629 2.868629
      vertex 2.500000 3.034869 0.000000
    endloop
  endfacet
  facet normal -1.000000 0.000000 0.000000
    outer loop
      vertex 2.500000 7.000000 2.400000
      vertex 2.500000 12.000000 0.000000
      vertex 2.500000 6.687855 2.430744
    endloop
  endfacet
  facet normal -1.000000 0.000000 0.000000
    outer loop
      vertex 2.500000 5.868629 2.868629
      vertex 2.500000 6.111088 2.669649
      vertex 2.500000 3.034869 0.000000
    endloop
  endfacet
  facet normal -1.000000 0.000000 0.000000
    outer loop
      vertex 2.500000 6.111088 2.669649
      vertex 2.500000 6.387707 2.521793
      vertex 2.500000 3.034869 0.000000
    endloop
  endfacet
  facet normal -1.000000 0.000000 0.000000
    outer loop
      vertex 2.500000 7.888912 2.669649
      vertex 2.500000 12.000000 0.000000
      vertex 2.500000 7.612293 2.521793
    endloop
  endfacet
  facet normal -1.000000 0.000000 0.000000
    outer loop
      vertex 2.500000 8.131371 2.868629
      vertex 2.500000 12.000000 0.000000
      vertex 2.500000 7.888912 2.669649
    endloop
  endfacet
  facet normal -1.000000 0.000000 0.000000
    outer loop
      vertex 2.500000 8.330351 3.111088
      vertex 2.500000 12.000000 0.000000
      vertex 2.500000 8.131371 2.868629
    endloop
  endfacet
  facet normal -1.000000 0.000000 0.000000
    outer loop
      vertex 2.500000 12.000000 8.000000
      vertex 2.500000 12.000000 0.000000
      vertex 2.500000 8.478207 3.387707
    endloop
  endfacet
  facet normal -1.000000 0.000000 0.000000
    outer loop
      vertex 2.500000 12.000000 8.000000
      vertex 2.500000 8.478207 3.387707
      vertex 2.500000 8.569256 3.687855
    endloop
  endfacet
  facet normal -1.000000 0.000000 0.000000
    outer loop
      vertex 2.500000 12.000000 8.000000
      vertex 2.500000 8.569256 3.687855
      vertex 2.500000 8.600000 4.000000
    endloop
  endfacet
  facet normal -1.000000 0.000000 0.000000
    outer loop
      vertex 2.500000 12.000000 8.000000
      vertex 2.500000 8.600000 4.000000
      vertex 2.500000 8.569256 4.312145
    endloop
  endfacet
  facet normal -1.000000 0.000000 0.000000
    outer loop
      vertex 2.500000 12.000000 8.000000
      vertex 2.500000 8.569256 4.312145
      vertex 2.500000 8.478207 4.612293
    endloop
  endfacet
  facet normal -1.000000 0.000000 0.000000
    outer loop
      vertex 2.500000 12.000000 8.000000
      vertex 2.500000 8.478207 4.612293
      vertex 2.500000 8.330351 4.888912
    endloop
  endfacet
  facet normal -1.000000 0.000000 0.000000
    outer loop
      vertex 2.500000 12.000000 8.000000
      vertex 2.500000 8.330351 4.888912
      vertex 2.500000 8.131371 5.131371
    endloop
  endfacet
  facet normal -1.000000 0.000000 0.000000
    outer loop
      vertex 2.500000 12.000000 8.000000
      vertex 2.500000 8.131371 5.131371
      vertex 2.500000 7.888912 5.330351
    endloop
  endfacet
  facet normal -1.000000 0.000000 0.000000
    outer loop
      vertex 2.500000 12.000000 8.000000
      vertex 2.500000 7.888912 5.330351
      vertex 2.500000 3.034869 8.000000
    endloop
  endfacet
  facet normal -1.000000 0.000000 0.000000
    outer loop
      vertex 2.500000 7.888912 5.330351
      vertex 2.500000 7.612293 5.478207
      vertex 2.500000 3.034869 8.000000
    endloop
  endfacet
  facet normal -1.000000 -0.000000 -0.000000
    outer loop
      vertex 2.500000 7.000000 5.600000
      vertex 2.500000 3.034869 8.000000
      vertex 2.500000 7.312145 5.569256
    endloop
  endfacet
  facet normal -1.000000 0.000000 -0.000000
    outer loop
      vertex 2.500000 6.687855 5.569256
      vertex 2.500000 3.034869 8.000000
      vertex 2.500000 7.000000 5.600000
    endloop
  endfacet
  facet normal -1.000000 0.000000 -0.000000
    outer loop
      vertex 2.500000 6.387707 5.478207
      vertex 2.500000 3.034869 8.000000
      vertex 2.500000 6.687855 5.569256
    endloop
  endfacet
  facet normal -1.000000 0.000000 -0.000000
    outer loop
      vertex 2.500000 6.111088 5.330351
      vertex 2.500000 3.034869 8.000000
      vertex 2.500000 6.387707 5.478207
    endloop
  endfacet
  facet normal -1.000000 -0.000000 -0.000000
    outer loop
      vertex 2.500000 7.312145 5.569256
      vertex 2.500000 3.034869 8.000000
      vertex 2.500000 7.612293 5.478207
    endloop
  endfacet
  facet normal -1.000000 0.000000 -0.000000
    outer loop
      vertex 2.500000 5.868629 5.131371
      vertex 2.500000 3.034869 8.000000
      vertex 2.500000 6.111088 5.330351
    endloop
  endfacet
  facet normal -1.000000 0.000000 -0.000000
    outer loop
      vertex 2.500000 5.669649 4.888912
      vertex 2.500000 3.034869 8.000000
      vertex 2.500000 5.868629 5.131371
    endloop
  endfacet
  facet normal -1.000000 0.000000 -0.000000
    outer loop
      vertex 2.500000 5.521793 4.612293
      vertex 2.500000 3.034869 8.000000
      vertex 2.500000 5.669649 4.888912
    endloop
  endfacet
  facet normal -1.000000 0.000000 0.000000
    outer loop
      vertex 2.500000 3.034869 8.000000
      vertex 2.500000 5.521793 4.612293
      vertex 2.500000 5.430744 4.312145
    endloop
  endfacet
  facet normal -1.000000 0.000000 0.000000
    outer loop
      vertex 2.500000 3.034869 8.000000
      vertex 2.500000 5.430744 4.312145
      vertex 2.500000 5.400000 4.000000
    endloop
  endfacet
  facet normal -1.000000 0.000000 0.000000
    outer loop
      vertex 2.500000 3.034869 8.000000
      vertex 2.500000 5.400000 4.000000
      vertex 2.500000 5.430744 3.687855
    endloop
  endfacet
  facet normal -1.000000 0.000000 0.000000
    outer loop
      vertex 2.500000 6.687855 2.430744
      vertex 2.500000 12.000000 0.000000
      vertex 2.500000 6.387707 2.521793
    endloop
  endfacet
  facet normal -0.748511 -0.663123 0.000000
    outer loop
      vertex 3.541824 1.858893 8.000000
      vertex 2.500000 3.034869 8.000000
      vertex 3.541824 1.858893 0.000000
    endloop
  endfacet
  facet normal -0.748511 -0.663123 0.000000
    outer loop
      vertex 3.541824 1.858893 0.000000
      vertex 2.500000 3.034869 8.000000
      vertex 2.500000 3.034869 0.000000
    endloop
  endfacet
  facet normal -0.970942 -0.239316 0.000000
    outer loop
      vertex 4.000000 0.000000 8.000000
      vertex 3.541824 1.858893 8.000000
      vertex 4.000000 0.000000 0.000000
    endloop
  endfacet
  facet normal -0.970942 -0.239316 0.000000
    outer loop
      vertex 4.000000 0.000000 0.000000
      vertex 3.541824 1.858893 8.000000
      vertex 3.541824 1.858893 0.000000
    endloop
  endfacet
  facet normal -0.970942 0.239316 0.000000
    outer loop
      vertex 4.000000 0.000000 8.000000
      vertex 4.000000 0.000000 0.000000
      vertex 3.541824 -1.858893 8.000000
    endloop
  endfacet
  facet normal -0.970942 0.239316 0.000000
    outer loop
      vertex 3.541824 -1.858893 8.000000
      vertex 4.000000 0.000000 0.000000
      vertex 3.541824 -1.858893 0.000000
    endloop
  endfacet
  facet normal -0.748511 0.663123 0.000000
    outer loop
      vertex 3.541824 -1.858893 8.000000
      vertex 3.541824 -1.858893 0.000000
      vertex 2.272259 -3.291935 8.000000
    endloop
  endfacet
  facet normal -0.748511 0.663123 0.000000
    outer loop
      vertex 2.272259 -3.291935 8.000000
      vertex 3.541824 -1.858893 0.000000
      vertex 2.272259 -3.291935 0.000000
    endloop
  endfacet
  facet normal -0.354605 0.935016 0.000000
    outer loop
      vertex 2.272259 -3.291935 8.000000
      vertex 2.272259 -3.291935 0.000000
      vertex 0.482147 -3.970835 8.000000
    endloop
  endfacet
  facet normal -0.354605 0.935016 0.000000
    outer loop
      vertex 0.482147 -3.970835 8.000000
      vertex 2.272259 -3.291935 0.000000
      vertex 0.482147 -3.970835 0.000000
    endloop
  endfacet
  facet normal 0.120536 0.992709 -0.000000
    outer loop
      vertex 0.482147 -3.970835 8.000000
      vertex 0.482147 -3.970835 0.000000
      vertex -1.418420 -3.740065 8.000000
    endloop
  endfacet
  facet normal 0.120536 0.992709 -0.000000
    outer loop
      vertex -1.418420 -3.740065 8.000000
      vertex 0.482147 -3.970835 0.000000
      vertex -1.418420 -3.740065 0.000000
    endloop
  endfacet
  facet normal 0.568065 0.822984 -0.000000
    outer loop
      vertex -1.418420 -3.740065 8.000000
      vertex -1.418420 -3.740065 0.000000
      vertex -2.994043 -2.652491 8.000000
    endloop
  endfacet
  facet normal 0.568065 0.822984 -0.000000
    outer loop
      vertex -2.994043 -2.652491 8.000000
      vertex -1.418420 -3.740065 0.000000
      vertex -2.994043 -2.652491 0.000000
    endloop
  endfacet
  facet normal 0.885456 0.464723 0.000000
    outer loop
      vertex -3.883767 -0.957263 8.000000
      vertex -2.994043 -2.652491 8.000000
      vertex -2.994043 -2.652491 0.000000
    endloop
  endfacet
  facet normal 0.885456 0.464723 0.000000
    outer loop
      vertex -3.883767 -0.957263 0.000000
      vertex -3.883767 -0.957263 8.000000
      vertex -2.994043 -2.652491 0.000000
    endloop
  endfacet
  facet normal 1.000000 0.000000 0.000000
    outer loop
      vertex -3.883767 0.957263 0.000000
      vertex -3.883767 0.957263 8.000000
      vertex -3.883767 -0.957263 8.000000
    endloop
  endfacet
  facet normal 1.000000 0.000000 0.000000
    outer loop
      vertex -3.883767 -0.957263 0.000000
      vertex -3.883767 0.957263 0.000000
      vertex -3.883767 -0.957263 8.000000
    endloop
  endfacet
  facet normal 0.885456 -0.464723 0.000000
    outer loop
      vertex -2.994043 2.652491 0.000000
      vertex -2.994043 2.652491 8.000000
      vertex -3.883767 0.957263 8.000000
    endloop
  endfacet
  facet normal 0.885456 -0.464723 0.000000
    outer loop
      vertex -3.883767 0.957263 0.000000
      vertex -2.994043 2.652491 0.000000
      vertex -3.883767 0.957263 8.000000
    endloop
  endfacet
  facet normal 0.568065 -0.822984 0.000000
    outer loop
      vertex -2.500000 2.993504 0.000000
      vertex -2.500000 2.993504 8.000000
      vertex -2.994043 2.652491 8.000000
    endloop
  endfacet
  facet normal 0.568065 -0.822984 0.000000
    outer loop
      vertex -2.994043 2.652491 0.000000
      vertex -2.500000 2.993504 0.000000
      vertex -2.994043 2.652491 8.000000
    endloop
  endfacet
  facet normal 1.000000 0.000000 0.000000
    outer loop
      vertex -2.500000 6.387707 5.478207
      vertex -2.500000 12.000000 8.000000
      vertex -2.500000 2.993504 8.000000
    endloop
  endfacet
  facet normal 1.000000 0.000000 0.000000
    outer loop
      vertex -2.500000 6.387707 5.478207
      vertex -2.500000 6.687855 5.569256
      vertex -2.500000 12.000000 8.000000
    endloop
  endfacet
  facet normal 1.000000 0.000000 0.000000
    outer loop
      vertex -2.500000 2.993504 0.000000
      vertex -2.500000 5.400000 4.000000
      vertex -2.500000 2.993504 8.000000
    endloop
  endfacet
  facet normal 1.000000 0.000000 0.000000
    outer loop
      vertex -2.500000 5.400000 4.000000
      vertex -2.500000 5.430744 4.312145
      vertex -2.500000 2.993504 8.000000
    endloop
  endfacet
  facet normal 1.000000 0.000000 0.000000
    outer loop
      vertex -2.500000 5.430744 4.312145
      vertex -2.500000 5.521793 4.612293
      vertex -2.500000 2.993504 8.000000
    endloop
  endfacet
  facet normal 1.000000 0.000000 -0.000000
    outer loop
      vertex -2.500000 7.888912 2.669649
      vertex -2.500000 7.612293 2.521793
      vertex -2.500000 12.000000 0.000000
    endloop
  endfacet
  facet normal 1.000000 0.000000 0.000000
    outer loop
      vertex -2.500000 5.521793 4.612293
      vertex -2.500000 5.669649 4.888912
      vertex -2.500000 2.993504 8.000000
    endloop
  endfacet
  facet normal 1.000000 0.000000 0.000000
    outer loop
      vertex -2.500000 5.669649 4.888912
      vertex -2.500000 5.868629 5.131371
      vertex -2.500000 2.993504 8.000000
    endloop
  endfacet
  facet normal 1.000000 0.000000 0.000000
    outer loop
      vertex -2.500000 6.111088 5.330351
      vertex -2.500000 6.387707 5.478207
      vertex -2.500000 2.993504 8.000000
    endloop
  endfacet
  facet normal 1.000000 0.000000 0.000000
    outer loop
      vertex -2.500000 8.330351 4.888912
      vertex -2.500000 8.478207 4.612293
      vertex -2.500000 12.000000 0.000000
    endloop
  endfacet
  facet normal 1.000000 -0.000000 0.000000
    outer loop
      vertex -2.500000 7.000000 5.600000
      vertex -2.500000 12.000000 8.000000
      vertex -2.500000 6.687855 5.569256
    endloop
  endfacet
  facet normal 1.000000 0.000000 0.000000
    outer loop
      vertex -2.500000 7.312145 5.569256
      vertex -2.500000 12.000000 8.000000
      vertex -2.500000 7.000000 5.600000
    endloop
  endfacet
  facet normal 1.000000 0.000000 0.000000
    outer loop
      vertex -2.500000 7.612293 5.478207
      vertex -2.500000 12.000000 8.000000
      vertex -2.500000 7.312145 5.569256
    endloop
  endfacet
  facet normal 1.000000 0.000000 -0.000000
    outer loop
      vertex -2.500000 8.600000 4.000000
      vertex -2.500000 8.569256 3.687855
      vertex -2.500000 12.000000 0.000000
    endloop
  endfacet
  facet normal 1.000000 0.000000 0.000000
    outer loop
      vertex -2.500000 7.888912 5.330351
      vertex -2.500000 12.000000 8.000000
      vertex -2.500000 7.612293 5.478207
    endloop
  endfacet
  facet normal 1.000000 0.000000 0.000000
    outer loop
      vertex -2.500000 8.131371 5.131371
      vertex -2.500000 12.000000 8.000000
      vertex -2.500000 7.888912 5.330351
    endloop
  endfacet
  facet normal 1.000000 0.000000 0.000000
    outer loop
      vertex -2.500000 8.330351 4.888912
      vertex -2.500000 12.000000 8.000000
      vertex -2.500000 8.131371 5.131371
    endloop
  endfacet
  facet normal 1.000000 0.000000 0.000000
    outer loop
      vertex -2.500000 8.478207 4.612293
      vertex -2.500000 8.569256 4.312145
      vertex -2.500000 12.000000 0.000000
    endloop
  endfacet
  facet normal 1.000000 0.000000 0.000000
    outer loop
      vertex -2.500000 12.000000 0.000000
      vertex -2.500000 12.000000 8.000000
      vertex -2.500000 8.330351 4.888912
    endloop
  endfacet
  facet normal 1.000000 0.000000 -0.000000
    outer loop
      vertex -2.500000 8.330351 3.111088
      vertex -2.500000 8.131371 2.868629
      vertex -2.500000 12.000000 0.000000
    endloop
  endfacet
  facet normal 1.000000 0.000000 -0.000000
    outer loop
      vertex -2.500000 8.569256 3.687855
      vertex -2.500000 8.478207 3.387707
      vertex -2.500000 12.000000 0.000000
    endloop
  endfacet
  facet normal 1.000000 0.000000 -0.000000
    outer loop
      vertex -2.500000 8.478207 3.387707
      vertex -2.500000 8.330351 3.111088
      vertex -2.500000 12.000000 0.000000
    endloop
  endfacet
  facet normal 1.000000 0.000000 0.000000
    outer loop
      vertex -2.500000 8.569256 4.312145
      vertex -2.500000 8.600000 4.000000
      vertex -2.500000 12.000000 0.000000
    endloop
  endfacet
  facet normal 1.000000 0.000000 -0.000000
    outer loop
      vertex -2.500000 8.131371 2.868629
      vertex -2.500000 7.888912 2.669649
      vertex -2.500000 12.000000 0.000000
    endloop
  endfacet
  facet normal 1.000000 0.000000 0.000000
    outer loop
      vertex -2.500000 2.993504 0.000000
      vertex -2.500000 12.000000 0.000000
      vertex -2.500000 7.612293 2.521793
    endloop
  endfacet
  facet normal 1.000000 0.000000 0.000000
    outer loop
      vertex -2.500000 2.993504 0.000000
      vertex -2.500000 7.612293 2.521793
      vertex -2.500000 7.312145 2.430744
    endloop
  endfacet
  facet normal 1.000000 0.000000 0.000000
    outer loop
      vertex -2.500000 2.993504 0.000000
      vertex -2.500000 7.312145 2.430744
      vertex -2.500000 7.000000 2.400000
    endloop
  endfacet
  facet normal 1.000000 0.000000 0.000000
    outer loop
      vertex -2.500000 2.993504 0.000000
      vertex -2.500000 7.000000 2.400000
      vertex -2.500000 6.687855 2.430744
    endloop
  endfacet
  facet normal 1.000000 0.000000 0.000000
    outer loop
      vertex -2.500000 2.993504 0.000000
      vertex -2.500000 6.687855 2.430744
      vertex -2.500000 6.387707 2.521793
    endloop
  endfacet
  facet normal 1.000000 0.000000 0.000000
    outer loop
      vertex -2.500000 2.993504 0.000000
      vertex -2.500000 6.387707 2.521793
      vertex -2.500000 6.111088 2.669649
    endloop
  endfacet
  facet normal 1.000000 0.000000 0.000000
    outer loop
      vertex -2.500000 2.993504 0.000000
      vertex -2.500000 6.111088 2.669649
      vertex -2.500000 5.868629 2.868629
    endloop
  endfacet
  facet normal 1.000000 0.000000 0.000000
    outer loop
      vertex -2.500000 2.993504 0.000000
      vertex -2.500000 5.868629 2.868629
      vertex -2.500000 5.669649 3.111088
    endloop
  endfacet
  facet normal 1.000000 0.000000 0.000000
    outer loop
      vertex -2.500000 2.993504 0.000000
      vertex -2.500000 5.669649 3.111088
      vertex -2.500000 5.521793 3.387707
    endloop
  endfacet
  facet normal 1.000000 0.000000 0.000000
    outer loop
      vertex -2.500000 2.993504 0.000000
      vertex -2.500000 5.430744 3.687855
      vertex -2.500000 5.400000 4.000000
    endloop
  endfacet
  facet normal 1.000000 0.000000 0.000000
    outer loop
      vertex -2.500000 2.993504 0.000000
      vertex -2.500000 5.521793 3.387707
      vertex -2.500000 5.430744 3.687855
    endloop
  endfacet
  facet normal 1.000000 0.000000 0.000000
    outer loop
      vertex -2.500000 5.868629 5.131371
      vertex -2.500000 6.111088 5.330351
      vertex -2.500000 2.993504 8.000000
    endloop
  endfacet
  facet normal -1.000000 0.000000 -0.000000
    outer loop
      vertex -6.010000 9.900000 2.325684
      vertex -6.010000 7.000000 0.651368
      vertex -6.010000 9.900000 5.674316
    endloop
  endfacet
  facet normal -1.000000 0.000000 0.000000
    outer loop
      vertex -6.010000 5.669649 3.111088
      vertex -6.010000 7.000000 0.651368
      vertex -6.010000 4.100000 2.325684
    endloop
  endfacet
  facet normal -1.000000 -0.000000 -0.000000
    outer loop
      vertex -6.010000 5.669649 4.888912
      vertex -6.010000 4.100000 2.325684
      vertex -6.010000 4.100000 5.674316
    endloop
  endfacet
  facet normal -1.000000 0.000000 0.000000
    outer loop
      vertex -6.010000 9.900000 5.674316
      vertex -6.010000 4.100000 5.674316
      vertex -6.010000 7.000000 7.348632
    endloop
  endfacet
  facet normal -1.000000 0.000000 0.000000
    outer loop
      vertex -6.010000 5.669649 3.111088
      vertex -6.010000 4.100000 2.325684
      vertex -6.010000 5.521793 3.387707
    endloop
  endfacet
  facet normal -1.000000 0.000000 0.000000
    outer loop
      vertex -6.010000 7.000000 5.600000
      vertex -6.010000 6.687855 5.569256
      vertex -6.010000 4.100000 5.674316
    endloop
  endfacet
  facet normal -1.000000 0.000000 0.000000
    outer loop
      vertex -6.010000 5.430744 3.687855
      vertex -6.010000 4.100000 2.325684
      vertex -6.010000 5.400000 4.000000
    endloop
  endfacet
  facet normal -1.000000 0.000000 0.000000
    outer loop
      vertex -6.010000 6.687855 5.569256
      vertex -6.010000 6.387707 5.478207
      vertex -6.010000 4.100000 5.674316
    endloop
  endfacet
  facet normal -1.000000 0.000000 -0.000000
    outer loop
      vertex -6.010000 5.400000 4.000000
      vertex -6.010000 4.100000 2.325684
      vertex -6.010000 5.430744 4.312145
    endloop
  endfacet
  facet normal -1.000000 0.000000 0.000000
    outer loop
      vertex -6.010000 6.387707 5.478207
      vertex -6.010000 6.111088 5.330351
      vertex -6.010000 4.100000 5.674316
    endloop
  endfacet
  facet normal -1.000000 0.000000 0.000000
    outer loop
      vertex -6.010000 6.111088 5.330351
      vertex -6.010000 5.868629 5.131371
      vertex -6.010000 4.100000 5.674316
    endloop
  endfacet
  facet normal -1.000000 -0.000000 0.000000
    outer loop
      vertex -6.010000 5.521793 4.612293
      vertex -6.010000 4.100000 2.325684
      vertex -6.010000 5.669649 4.888912
    endloop
  endfacet
  facet normal -1.000000 0.000000 0.000000
    outer loop
      vertex -6.010000 5.868629 5.131371
      vertex -6.010000 5.669649 4.888912
      vertex -6.010000 4.100000 5.674316
    endloop
  endfacet
  facet normal -1.000000 0.000000 0.000000
    outer loop
      vertex -6.010000 5.521793 3.387707
      vertex -6.010000 4.100000 2.325684
      vertex -6.010000 5.430744 3.687855
    endloop
  endfacet
  facet normal -1.000000 0.000000 0.000000
    outer loop
      vertex -6.010000 5.868629 2.868629
      vertex -6.010000 7.000000 0.651368
      vertex -6.010000 5.669649 3.111088
    endloop
  endfacet
  facet normal -1.000000 -0.000000 0.000000
    outer loop
      vertex -6.010000 8.569256 3.687855
      vertex -6.010000 9.900000 5.674316
      vertex -6.010000 8.478207 3.387707
    endloop
  endfacet
  facet normal -1.000000 0.000000 0.000000
    outer loop
      vertex -6.010000 6.111088 2.669649
      vertex -6.010000 7.000000 0.651368
      vertex -6.010000 5.868629 2.868629
    endloop
  endfacet
  facet normal -1.000000 0.000000 0.000000
    outer loop
      vertex -6.010000 6.387707 2.521793
      vertex -6.010000 7.000000 0.651368
      vertex -6.010000 6.111088 2.669649
    endloop
  endfacet
  facet normal -1.000000 0.000000 0.000000
    outer loop
      vertex -6.010000 6.687855 2.430744
      vertex -6.010000 7.000000 0.651368
      vertex -6.010000 6.387707 2.521793
    endloop
  endfacet
  facet normal -1.000000 0.000000 0.000000
    outer loop
      vertex -6.010000 7.000000 2.400000
      vertex -6.010000 7.000000 0.651368
      vertex -6.010000 6.687855 2.430744
    endloop
  endfacet
  facet normal -1.000000 0.000000 0.000000
    outer loop
      vertex -6.010000 7.312145 2.430744
      vertex -6.010000 7.000000 0.651368
      vertex -6.010000 7.000000 2.400000
    endloop
  endfacet
  facet normal -1.000000 0.000000 0.000000
    outer loop
      vertex -6.010000 7.612293 2.521793
      vertex -6.010000 7.000000 0.651368
      vertex -6.010000 7.312145 2.430744
    endloop
  endfacet
  facet normal -1.000000 0.000000 0.000000
    outer loop
      vertex -6.010000 7.888912 2.669649
      vertex -6.010000 7.000000 0.651368
      vertex -6.010000 7.612293 2.521793
    endloop
  endfacet
  facet normal -1.000000 0.000000 0.000000
    outer loop
      vertex -6.010000 8.131371 2.868629
      vertex -6.010000 7.000000 0.651368
      vertex -6.010000 7.888912 2.669649
    endloop
  endfacet
  facet normal -1.000000 0.000000 0.000000
    outer loop
      vertex -6.010000 8.330351 3.111088
      vertex -6.010000 7.000000 0.651368
      vertex -6.010000 8.131371 2.868629
    endloop
  endfacet
  facet normal -1.000000 -0.000000 0.000000
    outer loop
      vertex -6.010000 9.900000 5.674316
      vertex -6.010000 7.000000 0.651368
      vertex -6.010000 8.330351 3.111088
    endloop
  endfacet
  facet normal -1.000000 -0.000000 0.000000
    outer loop
      vertex -6.010000 9.900000 5.674316
      vertex -6.010000 8.330351 3.111088
      vertex -6.010000 8.478207 3.387707
    endloop
  endfacet
  facet normal -1.000000 -0.000000 0.000000
    outer loop
      vertex -6.010000 8.600000 4.000000
      vertex -6.010000 9.900000 5.674316
      vertex -6.010000 8.569256 3.687855
    endloop
  endfacet
  facet normal -1.000000 0.000000 -0.000000
    outer loop
      vertex -6.010000 8.569256 4.312145
      vertex -6.010000 9.900000 5.674316
      vertex -6.010000 8.600000 4.000000
    endloop
  endfacet
  facet normal -1.000000 -0.000000 0.000000
    outer loop
      vertex -6.010000 8.478207 4.612293
      vertex -6.010000 9.900000 5.674316
      vertex -6.010000 8.569256 4.312145
    endloop
  endfacet
  facet normal -1.000000 -0.000000 0.000000
    outer loop
      vertex -6.010000 8.330351 4.888912
      vertex -6.010000 9.900000 5.674316
      vertex -6.010000 8.478207 4.612293
    endloop
  endfacet
  facet normal -1.000000 -0.000000 0.000000
    outer loop
      vertex -6.010000 8.131371 5.131371
      vertex -6.010000 9.900000 5.674316
      vertex -6.010000 8.330351 4.888912
    endloop
  endfacet
  facet normal -1.000000 -0.000000 0.000000
    outer loop
      vertex -6.010000 7.000000 5.600000
      vertex -6.010000 9.900000 5.674316
      vertex -6.010000 7.312145 5.569256
    endloop
  endfacet
  facet normal -1.000000 0.000000 0.000000
    outer loop
      vertex -6.010000 9.900000 5.674316
      vertex -6.010000 8.131371 5.131371
      vertex -6.010000 7.888912 5.330351
    endloop
  endfacet
  facet normal -1.000000 0.000000 0.000000
    outer loop
      vertex -6.010000 9.900000 5.674316
      vertex -6.010000 7.888912 5.330351
      vertex -6.010000 7.612293 5.478207
    endloop
  endfacet
  facet normal -1.000000 0.000000 0.000000
    outer loop
      vertex -6.010000 9.900000 5.674316
      vertex -6.010000 7.612293 5.478207
      vertex -6.010000 7.312145 5.569256
    endloop
  endfacet
  facet normal -1.000000 0.000000 0.000000
    outer loop
      vertex -6.010000 9.900000 5.674316
      vertex -6.010000 7.000000 5.600000
      vertex -6.010000 4.100000 5.674316
    endloop
  endfacet
  facet normal -1.000000 -0.000000 0.000000
    outer loop
      vertex -6.010000 5.430744 4.312145
      vertex -6.010000 4.100000 2.325684
      vertex -6.010000 5.521793 4.612293
    endloop
  endfacet
  facet normal -0.000000 0.995185 0.098018
    outer loop
      vertex 8.000000 5.430744 3.687855
      vertex 2.500000 5.430744 3.687855
      vertex 8.000000 5.400000 4.000000
    endloop
  endfacet
  facet normal -0.000000 0.995185 0.098018
    outer loop
      vertex 8.000000 5.400000 4.000000
      vertex 2.500000 5.430744 3.687855
      vertex 2.500000 5.400000 4.000000
    endloop
  endfacet
  facet normal -0.000000 0.956940 0.290285
    outer loop
      vertex 8.000000 5.521793 3.387707
      vertex 2.500000 5.521793 3.387707
      vertex 8.000000 5.430744 3.687855
    endloop
  endfacet
  facet normal -0.000000 0.956940 0.290285
    outer loop
      vertex 8.000000 5.430744 3.687855
      vertex 2.500000 5.521793 3.387707
      vertex 2.500000 5.430744 3.687855
    endloop
  endfacet
  facet normal -0.000000 0.881921 0.471397
    outer loop
      vertex 8.000000 5.669649 3.111088
      vertex 2.500000 5.669649 3.111088
      vertex 8.000000 5.521793 3.387707
    endloop
  endfacet
  facet normal -0.000000 0.881921 0.471397
    outer loop
      vertex 8.000000 5.521793 3.387707
      vertex 2.500000 5.669649 3.111088
      vertex 2.500000 5.521793 3.387707
    endloop
  endfacet
  facet normal -0.000000 0.773012 0.634391
    outer loop
      vertex 8.000000 5.868629 2.868629
      vertex 2.500000 5.868629 2.868629
      vertex 8.000000 5.669649 3.111088
    endloop
  endfacet
  facet normal -0.000000 0.773012 0.634391
    outer loop
      vertex 8.000000 5.669649 3.111088
      vertex 2.500000 5.868629 2.868629
      vertex 2.500000 5.669649 3.111088
    endloop
  endfacet
  facet normal -0.000000 0.634391 0.773012
    outer loop
      vertex 8.000000 5.868629 2.868629
      vertex 8.000000 6.111088 2.669649
      vertex 2.500000 6.111088 2.669649
    endloop
  endfacet
  facet normal -0.000000 0.634391 0.773012
    outer loop
      vertex 2.500000 5.868629 2.868629
      vertex 8.000000 5.868629 2.868629
      vertex 2.500000 6.111088 2.669649
    endloop
  endfacet
  facet normal -0.000000 0.471397 0.881921
    outer loop
      vertex 8.000000 6.111088 2.669649
      vertex 8.000000 6.387707 2.521793
      vertex 2.500000 6.387707 2.521793
    endloop
  endfacet
  facet normal -0.000000 0.471397 0.881921
    outer loop
      vertex 2.500000 6.111088 2.669649
      vertex 8.000000 6.111088 2.669649
      vertex 2.500000 6.387707 2.521793
    endloop
  endfacet
  facet normal -0.000000 0.290285 0.956940
    outer loop
      vertex 8.000000 6.387707 2.521793
      vertex 8.000000 6.687855 2.430744
      vertex 2.500000 6.687855 2.430744
    endloop
  endfacet
  facet normal -0.000000 0.290285 0.956940
    outer loop
      vertex 2.500000 6.387707 2.521793
      vertex 8.000000 6.387707 2.521793
      vertex 2.500000 6.687855 2.430744
    endloop
  endfacet
  facet normal -0.000000 0.098018 0.995185
    outer loop
      vertex 8.000000 6.687855 2.430744
      vertex 8.000000 7.000000 2.400000
      vertex 2.500000 7.000000 2.400000
    endloop
  endfacet
  facet normal -0.000000 0.098018 0.995185
    outer loop
      vertex 2.500000 6.687855 2.430744
      vertex 8.000000 6.687855 2.430744
      vertex 2.500000 7.000000 2.400000
    endloop
  endfacet
  facet normal -0.000000 -0.098018 0.995185
    outer loop
      vertex 8.000000 7.000000 2.400000
      vertex 8.000000 7.312145 2.430744
      vertex 2.500000 7.312145 2.430744
    endloop
  endfacet
  facet normal -0.000000 -0.098018 0.995185
    outer loop
      vertex 2.500000 7.000000 2.400000
      vertex 8.000000 7.000000 2.400000
      vertex 2.500000 7.312145 2.430744
    endloop
  endfacet
  facet normal -0.000000 -0.290285 0.956940
    outer loop
      vertex 8.000000 7.312145 2.430744
      vertex 8.000000 7.612293 2.521793
      vertex 2.500000 7.612293 2.521793
    endloop
  endfacet
  facet normal -0.000000 -0.290285 0.956940
    outer loop
      vertex 2.500000 7.312145 2.430744
      vertex 8.000000 7.312145 2.430744
      vertex 2.500000 7.612293 2.521793
    endloop
  endfacet
  facet normal -0.000000 -0.471397 0.881921
    outer loop
      vertex 8.000000 7.612293 2.521793
      vertex 8.000000 7.888912 2.669649
      vertex 2.500000 7.888912 2.669649
    endloop
  endfacet
  facet normal -0.000000 -0.471397 0.881921
    outer loop
      vertex 2.500000 7.612293 2.521793
      vertex 8.000000 7.612293 2.521793
      vertex 2.500000 7.888912 2.669649
    endloop
  endfacet
  facet normal -0.000000 -0.634391 0.773012
    outer loop
      vertex 8.000000 7.888912 2.669649
      vertex 8.000000 8.131371 2.868629
      vertex 2.500000 8.131371 2.868629
    endloop
  endfacet
  facet normal -0.000000 -0.634391 0.773012
    outer loop
      vertex 2.500000 7.888912 2.669649
      vertex 8.000000 7.888912 2.669649
      vertex 2.500000 8.131371 2.868629
    endloop
  endfacet
  facet normal -0.000000 -0.773012 0.634391
    outer loop
      vertex 8.000000 8.131371 2.868629
      vertex 8.000000 8.330351 3.111088
      vertex 2.500000 8.330351 3.111088
    endloop
  endfacet
  facet normal -0.000000 -0.773012 0.634391
    outer loop
      vertex 2.500000 8.131371 2.868629
      vertex 8.000000 8.131371 2.868629
      vertex 2.500000 8.330351 3.111088
    endloop
  endfacet
  facet normal -0.000000 -0.881921 0.471397
    outer loop
      vertex 8.000000 8.330351 3.111088
      vertex 8.000000 8.478207 3.387707
      vertex 2.500000 8.478207 3.387707
    endloop
  endfacet
  facet normal -0.000000 -0.881921 0.471397
    outer loop
      vertex 2.500000 8.330351 3.111088
      vertex 8.000000 8.330351 3.111088
      vertex 2.500000 8.478207 3.387707
    endloop
  endfacet
  facet normal -0.000000 -0.956940 0.290285
    outer loop
      vertex 8.000000 8.478207 3.387707
      vertex 8.000000 8.569256 3.687855
      vertex 2.500000 8.569256 3.687855
    endloop
  endfacet
  facet normal -0.000000 -0.956940 0.290285
    outer loop
      vertex 2.500000 8.478207 3.387707
      vertex 8.000000 8.478207 3.387707
      vertex 2.500000 8.569256 3.687855
    endloop
  endfacet
  facet normal 0.000000 -0.995185 0.098018
    outer loop
      vertex 8.000000 8.569256 3.687855
      vertex 8.000000 8.600000 4.000000
      vertex 2.500000 8.600000 4.000000
    endloop
  endfacet
  facet normal -0.000000 -0.995185 0.098018
    outer loop
      vertex 2.500000 8.569256 3.687855
      vertex 8.000000 8.569256 3.687855
      vertex 2.500000 8.600000 4.000000
    endloop
  endfacet
  facet normal -0.000000 -0.995185 -0.098018
    outer loop
      vertex 2.500000 8.600000 4.000000
      vertex 8.000000 8.600000 4.000000
      vertex 8.000000 8.569256 4.312145
    endloop
  endfacet
  facet normal -0.000000 -0.995185 -0.098018
    outer loop
      vertex 2.500000 8.569256 4.312145
      vertex 2.500000 8.600000 4.000000
      vertex 8.000000 8.569256 4.312145
    endloop
  endfacet
  facet normal -0.000000 -0.956940 -0.290285
    outer loop
      vertex 2.500000 8.569256 4.312145
      vertex 8.000000 8.569256 4.312145
      vertex 8.000000 8.478207 4.612293
    endloop
  endfacet
  facet normal 0.000000 -0.956940 -0.290285
    outer loop
      vertex 2.500000 8.478207 4.612293
      vertex 2.500000 8.569256 4.312145
      vertex 8.000000 8.478207 4.612293
    endloop
  endfacet
  facet normal 0.000000 -0.881921 -0.471397
    outer loop
      vertex 2.500000 8.478207 4.612293
      vertex 8.000000 8.478207 4.612293
      vertex 8.000000 8.330351 4.888912
    endloop
  endfacet
  facet normal 0.000000 -0.881921 -0.471397
    outer loop
      vertex 2.500000 8.330351 4.888912
      vertex 2.500000 8.478207 4.612293
      vertex 8.000000 8.330351 4.888912
    endloop
  endfacet
  facet normal 0.000000 -0.773012 -0.634391
    outer loop
      vertex 2.500000 8.330351 4.888912
      vertex 8.000000 8.330351 4.888912
      vertex 8.000000 8.131371 5.131371
    endloop
  endfacet
  facet normal -0.000000 -0.773012 -0.634391
    outer loop
      vertex 2.500000 8.131371 5.131371
      vertex 2.500000 8.330351 4.888912
      vertex 8.000000 8.131371 5.131371
    endloop
  endfacet
  facet normal 0.000000 -0.634391 -0.773012
    outer loop
      vertex 8.000000 8.131371 5.131371
      vertex 8.000000 7.888912 5.330351
      vertex 2.500000 8.131371 5.131371
    endloop
  endfacet
  facet normal 0.000000 -0.634391 -0.773012
    outer loop
      vertex 2.500000 8.131371 5.131371
      vertex 8.000000 7.888912 5.330351
      vertex 2.500000 7.888912 5.330351
    endloop
  endfacet
  facet normal 0.000000 -0.471397 -0.881921
    outer loop
      vertex 8.000000 7.888912 5.330351
      vertex 8.000000 7.612293 5.478207
      vertex 2.500000 7.888912 5.330351
    endloop
  endfacet
  facet normal 0.000000 -0.471397 -0.881921
    outer loop
      vertex 2.500000 7.888912 5.330351
      vertex 8.000000 7.612293 5.478207
      vertex 2.500000 7.612293 5.478207
    endloop
  endfacet
  facet normal 0.000000 -0.290285 -0.956940
    outer loop
      vertex 8.000000 7.612293 5.478207
      vertex 8.000000 7.312145 5.569256
      vertex 2.500000 7.612293 5.478207
    endloop
  endfacet
  facet normal 0.000000 -0.290285 -0.956940
    outer loop
      vertex 2.500000 7.612293 5.478207
      vertex 8.000000 7.312145 5.569256
      vertex 2.500000 7.312145 5.569256
    endloop
  endfacet
  facet normal 0.000000 -0.098018 -0.995185
    outer loop
      vertex 8.000000 7.312145 5.569256
      vertex 8.000000 7.000000 5.600000
      vertex 2.500000 7.312145 5.569256
    endloop
  endfacet
  facet normal 0.000000 -0.098018 -0.995185
    outer loop
      vertex 2.500000 7.312145 5.569256
      vertex 8.000000 7.000000 5.600000
      vertex 2.500000 7.000000 5.600000
    endloop
  endfacet
  facet normal 0.000000 0.098018 -0.995185
    outer loop
      vertex 8.000000 7.000000 5.600000
      vertex 8.000000 6.687855 5.569256
      vertex 2.500000 7.000000 5.600000
    endloop
  endfacet
  facet normal 0.000000 0.098018 -0.995185
    outer loop
      vertex 2.500000 7.000000 5.600000
      vertex 8.000000 6.687855 5.569256
      vertex 2.500000 6.687855 5.569256
    endloop
  endfacet
  facet normal 0.000000 0.290285 -0.956940
    outer loop
      vertex 8.000000 6.687855 5.569256
      vertex 8.000000 6.387707 5.478207
      vertex 2.500000 6.687855 5.569256
    endloop
  endfacet
  facet normal 0.000000 0.290285 -0.956940
    outer loop
      vertex 2.500000 6.687855 5.569256
      vertex 8.000000 6.387707 5.478207
      vertex 2.500000 6.387707 5.478207
    endloop
  endfacet
  facet normal 0.000000 0.471397 -0.881921
    outer loop
      vertex 8.000000 6.387707 5.478207
      vertex 8.000000 6.111088 5.330351
      vertex 2.500000 6.387707 5.478207
    endloop
  endfacet
  facet normal 0.000000 0.471397 -0.881921
    outer loop
      vertex 2.500000 6.387707 5.478207
      vertex 8.000000 6.111088 5.330351
      vertex 2.500000 6.111088 5.330351
    endloop
  endfacet
  facet normal 0.000000 0.634391 -0.773012
    outer loop
      vertex 8.000000 6.111088 5.330351
      vertex 8.000000 5.868629 5.131371
      vertex 2.500000 6.111088 5.330351
    endloop
  endfacet
  facet normal 0.000000 0.634391 -0.773012
    outer loop
      vertex 2.500000 6.111088 5.330351
      vertex 8.000000 5.868629 5.131371
      vertex 2.500000 5.868629 5.131371
    endloop
  endfacet
  facet normal 0.000000 0.773012 -0.634391
    outer loop
      vertex 8.000000 5.868629 5.131371
      vertex 8.000000 5.669649 4.888912
      vertex 2.500000 5.868629 5.131371
    endloop
  endfacet
  facet normal 0.000000 0.773012 -0.634391
    outer loop
      vertex 2.500000 5.868629 5.131371
      vertex 8.000000 5.669649 4.888912
      vertex 2.500000 5.669649 4.888912
    endloop
  endfacet
  facet normal 0.000000 0.881921 -0.471397
    outer loop
      vertex 8.000000 5.669649 4.888912
      vertex 8.000000 5.521793 4.612293
      vertex 2.500000 5.669649 4.888912
    endloop
  endfacet
  facet normal 0.000000 0.881921 -0.471397
    outer loop
      vertex 2.500000 5.669649 4.888912
      vertex 8.000000 5.521793 4.612293
      vertex 2.500000 5.521793 4.612293
    endloop
  endfacet
  facet normal 0.000000 0.956940 -0.290285
    outer loop
      vertex 8.000000 5.521793 4.612293
      vertex 8.000000 5.430744 4.312145
      vertex 2.500000 5.521793 4.612293
    endloop
  endfacet
  facet normal 0.000000 0.956940 -0.290285
    outer loop
      vertex 2.500000 5.521793 4.612293
      vertex 8.000000 5.430744 4.312145
      vertex 2.500000 5.430744 4.312145
    endloop
  endfacet
  facet normal 0.000000 0.995185 -0.098018
    outer loop
      vertex 8.000000 5.430744 4.312145
      vertex 8.000000 5.400000 4.000000
      vertex 2.500000 5.430744 4.312145
    endloop
  endfacet
  facet normal 0.000000 0.995185 -0.098018
    outer loop
      vertex 2.500000 5.430744 4.312145
      vertex 8.000000 5.400000 4.000000
      vertex 2.500000 5.400000 4.000000
    endloop
  endfacet
  facet normal 0.000000 0.995185 -0.098018
    outer loop
      vertex -2.500000 5.400000 4.000000
      vertex -6.010000 5.400000 4.000000
      vertex -2.500000 5.430744 4.312145
    endloop
  endfacet
  facet normal 0.000000 0.995185 -0.098018
    outer loop
      vertex -2.500000 5.430744 4.312145
      vertex -6.010000 5.400000 4.000000
      vertex -6.010000 5.430744 4.312145
    endloop
  endfacet
  facet normal -0.000000 0.995185 0.098018
    outer loop
      vertex -2.500000 5.430744 3.687855
      vertex -6.010000 5.430744 3.687855
      vertex -2.500000 5.400000 4.000000
    endloop
  endfacet
  facet normal -0.000000 0.995185 0.098018
    outer loop
      vertex -2.500000 5.400000 4.000000
      vertex -6.010000 5.430744 3.687855
      vertex -6.010000 5.400000 4.000000
    endloop
  endfacet
  facet normal -0.000000 0.956940 0.290285
    outer loop
      vertex -2.500000 5.521793 3.387707
      vertex -6.010000 5.521793 3.387707
      vertex -2.500000 5.430744 3.687855
    endloop
  endfacet
  facet normal -0.000000 0.956940 0.290285
    outer loop
      vertex -2.500000 5.430744 3.687855
      vertex -6.010000 5.521793 3.387707
      vertex -6.010000 5.430744 3.687855
    endloop
  endfacet
  facet normal -0.000000 0.881921 0.471397
    outer loop
      vertex -2.500000 5.669649 3.111088
      vertex -6.010000 5.669649 3.111088
      vertex -2.500000 5.521793 3.387707
    endloop
  endfacet
  facet normal -0.000000 0.881921 0.471397
    outer loop
      vertex -2.500000 5.521793 3.387707
      vertex -6.010000 5.669649 3.111088
      vertex -6.010000 5.521793 3.387707
    endloop
  endfacet
  facet normal -0.000000 0.773012 0.634391
    outer loop
      vertex -2.500000 5.868629 2.868629
      vertex -6.010000 5.868629 2.868629
      vertex -2.500000 5.669649 3.111088
    endloop
  endfacet
  facet normal -0.000000 0.773012 0.634391
    outer loop
      vertex -2.500000 5.669649 3.111088
      vertex -6.010000 5.868629 2.868629
      vertex -6.010000 5.669649 3.111088
    endloop
  endfacet
  facet normal 0.000000 0.634391 0.773012
    outer loop
      vertex -2.500000 5.868629 2.868629
      vertex -2.500000 6.111088 2.669649
      vertex -6.010000 6.111088 2.669649
    endloop
  endfacet
  facet normal -0.000000 0.634391 0.773012
    outer loop
      vertex -6.010000 5.868629 2.868629
      vertex -2.500000 5.868629 2.868629
      vertex -6.010000 6.111088 2.669649
    endloop
  endfacet
  facet normal 0.000000 0.471397 0.881921
    outer loop
      vertex -2.500000 6.111088 2.669649
      vertex -2.500000 6.387707 2.521793
      vertex -6.010000 6.387707 2.521793
    endloop
  endfacet
  facet normal 0.000000 0.471397 0.881921
    outer loop
      vertex -6.010000 6.111088 2.669649
      vertex -2.500000 6.111088 2.669649
      vertex -6.010000 6.387707 2.521793
    endloop
  endfacet
  facet normal -0.000000 0.290285 0.956940
    outer loop
      vertex -2.500000 6.387707 2.521793
      vertex -2.500000 6.687855 2.430744
      vertex -6.010000 6.687855 2.430744
    endloop
  endfacet
  facet normal 0.000000 0.290285 0.956940
    outer loop
      vertex -6.010000 6.387707 2.521793
      vertex -2.500000 6.387707 2.521793
      vertex -6.010000 6.687855 2.430744
    endloop
  endfacet
  facet normal -0.000000 0.098018 0.995185
    outer loop
      vertex -2.500000 6.687855 2.430744
      vertex -2.500000 7.000000 2.400000
      vertex -6.010000 7.000000 2.400000
    endloop
  endfacet
  facet normal -0.000000 0.098018 0.995185
    outer loop
      vertex -6.010000 6.687855 2.430744
      vertex -2.500000 6.687855 2.430744
      vertex -6.010000 7.000000 2.400000
    endloop
  endfacet
  facet normal -0.000000 -0.098018 0.995185
    outer loop
      vertex -6.010000 7.000000 2.400000
      vertex -2.500000 7.000000 2.400000
      vertex -2.500000 7.312145 2.430744
    endloop
  endfacet
  facet normal -0.000000 -0.098018 0.995185
    outer loop
      vertex -6.010000 7.312145 2.430744
      vertex -6.010000 7.000000 2.400000
      vertex -2.500000 7.312145 2.430744
    endloop
  endfacet
  facet normal -0.000000 -0.290285 0.956940
    outer loop
      vertex -6.010000 7.312145 2.430744
      vertex -2.500000 7.312145 2.430744
      vertex -2.500000 7.612293 2.521793
    endloop
  endfacet
  facet normal 0.000000 -0.290285 0.956940
    outer loop
      vertex -6.010000 7.612293 2.521793
      vertex -6.010000 7.312145 2.430744
      vertex -2.500000 7.612293 2.521793
    endloop
  endfacet
  facet normal 0.000000 -0.471397 0.881921
    outer loop
      vertex -6.010000 7.612293 2.521793
      vertex -2.500000 7.612293 2.521793
      vertex -2.500000 7.888912 2.669649
    endloop
  endfacet
  facet normal 0.000000 -0.471397 0.881921
    outer loop
      vertex -6.010000 7.888912 2.669649
      vertex -6.010000 7.612293 2.521793
      vertex -2.500000 7.888912 2.669649
    endloop
  endfacet
  facet normal 0.000000 -0.634391 0.773012
    outer loop
      vertex -6.010000 7.888912 2.669649
      vertex -2.500000 7.888912 2.669649
      vertex -2.500000 8.131371 2.868629
    endloop
  endfacet
  facet normal -0.000000 -0.634391 0.773012
    outer loop
      vertex -6.010000 8.131371 2.868629
      vertex -6.010000 7.888912 2.669649
      vertex -2.500000 8.131371 2.868629
    endloop
  endfacet
  facet normal -0.000000 -0.773012 0.634391
    outer loop
      vertex -6.010000 8.131371 2.868629
      vertex -2.500000 8.131371 2.868629
      vertex -2.500000 8.330351 3.111088
    endloop
  endfacet
  facet normal 0.000000 -0.773012 0.634391
    outer loop
      vertex -6.010000 8.330351 3.111088
      vertex -6.010000 8.131371 2.868629
      vertex -2.500000 8.330351 3.111088
    endloop
  endfacet
  facet normal 0.000000 -0.881921 0.471397
    outer loop
      vertex -6.010000 8.330351 3.111088
      vertex -2.500000 8.330351 3.111088
      vertex -2.500000 8.478207 3.387707
    endloop
  endfacet
  facet normal -0.000000 -0.881921 0.471397
    outer loop
      vertex -6.010000 8.478207 3.387707
      vertex -6.010000 8.330351 3.111088
      vertex -2.500000 8.478207 3.387707
    endloop
  endfacet
  facet normal -0.000000 -0.956940 0.290285
    outer loop
      vertex -6.010000 8.478207 3.387707
      vertex -2.500000 8.478207 3.387707
      vertex -2.500000 8.569256 3.687855
    endloop
  endfacet
  facet normal 0.000000 -0.956940 0.290285
    outer loop
      vertex -6.010000 8.569256 3.687855
      vertex -6.010000 8.478207 3.387707
      vertex -2.500000 8.569256 3.687855
    endloop
  endfacet
  facet normal 0.000000 -0.995185 0.098018
    outer loop
      vertex -6.010000 8.569256 3.687855
      vertex -2.500000 8.569256 3.687855
      vertex -2.500000 8.600000 4.000000
    endloop
  endfacet
  facet normal 0.000000 -0.995185 0.098018
    outer loop
      vertex -6.010000 8.600000 4.000000
      vertex -6.010000 8.569256 3.687855
      vertex -2.500000 8.600000 4.000000
    endloop
  endfacet
  facet normal -0.000000 -0.995185 -0.098018
    outer loop
      vertex -6.010000 8.600000 4.000000
      vertex -2.500000 8.600000 4.000000
      vertex -2.500000 8.569256 4.312145
    endloop
  endfacet
  facet normal -0.000000 -0.995185 -0.098018
    outer loop
      vertex -6.010000 8.569256 4.312145
      vertex -6.010000 8.600000 4.000000
      vertex -2.500000 8.569256 4.312145
    endloop
  endfacet
  facet normal -0.000000 -0.956940 -0.290285
    outer loop
      vertex -6.010000 8.569256 4.312145
      vertex -2.500000 8.569256 4.312145
      vertex -2.500000 8.478207 4.612293
    endloop
  endfacet
  facet normal -0.000000 -0.956940 -0.290285
    outer loop
      vertex -6.010000 8.478207 4.612293
      vertex -6.010000 8.569256 4.312145
      vertex -2.500000 8.478207 4.612293
    endloop
  endfacet
  facet normal -0.000000 -0.881921 -0.471397
    outer loop
      vertex -6.010000 8.478207 4.612293
      vertex -2.500000 8.478207 4.612293
      vertex -2.500000 8.330351 4.888912
    endloop
  endfacet
  facet normal -0.000000 -0.881921 -0.471397
    outer loop
      vertex -6.010000 8.330351 4.888912
      vertex -6.010000 8.478207 4.612293
      vertex -2.500000 8.330351 4.888912
    endloop
  endfacet
  facet normal -0.000000 -0.773012 -0.634391
    outer loop
      vertex -6.010000 8.330351 4.888912
      vertex -2.500000 8.330351 4.888912
      vertex -2.500000 8.131371 5.131371
    endloop
  endfacet
  facet normal 0.000000 -0.773012 -0.634391
    outer loop
      vertex -6.010000 8.131371 5.131371
      vertex -6.010000 8.330351 4.888912
      vertex -2.500000 8.131371 5.131371
    endloop
  endfacet
  facet normal 0.000000 -0.634391 -0.773012
    outer loop
      vertex -2.500000 8.131371 5.131371
      vertex -2.500000 7.888912 5.330351
      vertex -6.010000 8.131371 5.131371
    endloop
  endfacet
  facet normal 0.000000 -0.634391 -0.773012
    outer loop
      vertex -6.010000 8.131371 5.131371
      vertex -2.500000 7.888912 5.330351
      vertex -6.010000 7.888912 5.330351
    endloop
  endfacet
  facet normal 0.000000 -0.471397 -0.881921
    outer loop
      vertex -2.500000 7.888912 5.330351
      vertex -2.500000 7.612293 5.478207
      vertex -6.010000 7.888912 5.330351
    endloop
  endfacet
  facet normal 0.000000 -0.471397 -0.881921
    outer loop
      vertex -6.010000 7.888912 5.330351
      vertex -2.500000 7.612293 5.478207
      vertex -6.010000 7.612293 5.478207
    endloop
  endfacet
  facet normal 0.000000 -0.290285 -0.956940
    outer loop
      vertex -2.500000 7.612293 5.478207
      vertex -2.500000 7.312145 5.569256
      vertex -6.010000 7.612293 5.478207
    endloop
  endfacet
  facet normal 0.000000 -0.290285 -0.956940
    outer loop
      vertex -6.010000 7.612293 5.478207
      vertex -2.500000 7.312145 5.569256
      vertex -6.010000 7.312145 5.569256
    endloop
  endfacet
  facet normal 0.000000 -0.098018 -0.995185
    outer loop
      vertex -2.500000 7.312145 5.569256
      vertex -2.500000 7.000000 5.600000
      vertex -6.010000 7.312145 5.569256
    endloop
  endfacet
  facet normal 0.000000 -0.098018 -0.995185
    outer loop
      vertex -6.010000 7.312145 5.569256
      vertex -2.500000 7.000000 5.600000
      vertex -6.010000 7.000000 5.600000
    endloop
  endfacet
  facet normal 0.000000 0.098018 -0.995185
    outer loop
      vertex -2.500000 6.687855 5.569256
      vertex -6.010000 6.687855 5.569256
      vertex -2.500000 7.000000 5.600000
    endloop
  endfacet
  facet normal 0.000000 0.098018 -0.995185
    outer loop
      vertex -2.500000 7.000000 5.600000
      vertex -6.010000 6.687855 5.569256
      vertex -6.010000 7.000000 5.600000
    endloop
  endfacet
  facet normal 0.000000 0.290285 -0.956940
    outer loop
      vertex -2.500000 6.387707 5.478207
      vertex -6.010000 6.387707 5.478207
      vertex -2.500000 6.687855 5.569256
    endloop
  endfacet
  facet normal 0.000000 0.290285 -0.956940
    outer loop
      vertex -2.500000 6.687855 5.569256
      vertex -6.010000 6.387707 5.478207
      vertex -6.010000 6.687855 5.569256
    endloop
  endfacet
  facet normal 0.000000 0.471397 -0.881921
    outer loop
      vertex -2.500000 6.111088 5.330351
      vertex -6.010000 6.111088 5.330351
      vertex -2.500000 6.387707 5.478207
    endloop
  endfacet
  facet normal 0.000000 0.471397 -0.881921
    outer loop
      vertex -2.500000 6.387707 5.478207
      vertex -6.010000 6.111088 5.330351
      vertex -6.010000 6.387707 5.478207
    endloop
  endfacet
  facet normal 0.000000 0.634391 -0.773012
    outer loop
      vertex -2.500000 5.868629 5.131371
      vertex -6.010000 5.868629 5.131371
      vertex -2.500000 6.111088 5.330351
    endloop
  endfacet
  facet normal 0.000000 0.634391 -0.773012
    outer loop
      vertex -2.500000 6.111088 5.330351
      vertex -6.010000 5.868629 5.131371
      vertex -6.010000 6.111088 5.330351
    endloop
  endfacet
  facet normal 0.000000 0.773012 -0.634391
    outer loop
      vertex -2.500000 5.669649 4.888912
      vertex -6.010000 5.669649 4.888912
      vertex -2.500000 5.868629 5.131371
    endloop
  endfacet
  facet normal 0.000000 0.773012 -0.634391
    outer loop
      vertex -2.500000 5.868629 5.131371
      vertex -6.010000 5.669649 4.888912
      vertex -6.010000 5.868629 5.131371
    endloop
  endfacet
  facet normal 0.000000 0.881921 -0.471397
    outer loop
      vertex -2.500000 5.521793 4.612293
      vertex -6.010000 5.521793 4.612293
      vertex -2.500000 5.669649 4.888912
    endloop
  endfacet
  facet normal 0.000000 0.881921 -0.471397
    outer loop
      vertex -2.500000 5.669649 4.888912
      vertex -6.010000 5.521793 4.612293
      vertex -6.010000 5.669649 4.888912
    endloop
  endfacet
  facet normal 0.000000 0.956940 -0.290285
    outer loop
      vertex -2.500000 5.430744 4.312145
      vertex -6.010000 5.430744 4.312145
      vertex -2.500000 5.521793 4.612293
    endloop
  endfacet
  facet normal 0.000000 0.956940 -0.290285
    outer loop
      vertex -2.500000 5.521793 4.612293
      vertex -6.010000 5.430744 4.312145
      vertex -6.010000 5.521793 4.612293
    endloop
  endfacet
endsolid OpenSCAD_Model
