solid OpenSCAD_Model
  facet normal -1.000000 -0.000000 -0.000000
    outer loop
      vertex -13.000000 -10.000000 -3.000000
      vertex -13.000000 -10.000000 3.000000
      vertex -13.000000 10.000000 -3.000000
    endloop
  endfacet
  facet normal -1.000000 0.000000 0.000000
    outer loop
      vertex -13.000000 10.000000 -3.000000
      vertex -13.000000 -10.000000 3.000000
      vertex -13.000000 10.000000 3.000000
    endloop
  endfacet
  facet normal 0.000000 -1.000000 0.000000
    outer loop
      vertex -13.000000 -10.000000 3.000000
      vertex -13.000000 -10.000000 -3.000000
      vertex -4.200000 -10.000000 -3.000000
    endloop
  endfacet
  facet normal 0.000000 -1.000000 0.000000
    outer loop
      vertex -4.200000 -10.000000 3.000000
      vertex -13.000000 -10.000000 3.000000
      vertex -4.200000 -10.000000 -3.000000
    endloop
  endfacet
  facet normal -0.000000 -0.000000 -1.000000
    outer loop
      vertex -13.000000 -10.000000 -3.000000
      vertex -13.000000 10.000000 -3.000000
      vertex -4.200000 -10.000000 -3.000000
    endloop
  endfacet
  facet normal 0.000000 -0.000000 -1.000000
    outer loop
      vertex 0.934588 4.094697 -3.000000
      vertex -13.000000 10.000000 -3.000000
      vertex 54.305946 10.000000 -3.000000
    endloop
  endfacet
  facet normal -0.000000 0.000000 -1.000000
    outer loop
      vertex 61.124603 -3.283692 -3.000000
      vertex 94.000000 10.000000 -3.000000
      vertex 59.440534 -4.094697 -3.000000
    endloop
  endfacet
  facet normal -0.000000 0.000000 -1.000000
    outer loop
      vertex 62.290015 -1.822312 -3.000000
      vertex 94.000000 10.000000 -3.000000
      vertex 61.124603 -3.283692 -3.000000
    endloop
  endfacet
  facet normal 0.000000 -0.000000 -1.000000
    outer loop
      vertex 62.705946 0.000000 -3.000000
      vertex 62.705946 10.000000 -3.000000
      vertex 94.000000 10.000000 -3.000000
    endloop
  endfacet
  facet normal -0.000000 0.000000 -1.000000
    outer loop
      vertex 62.705946 0.000000 -3.000000
      vertex 94.000000 10.000000 -3.000000
      vertex 62.290015 -1.822312 -3.000000
    endloop
  endfacet
  facet normal -0.000000 0.000000 -1.000000
    outer loop
      vertex 88.334878 -0.969846 -3.000000
      vertex 94.000000 10.000000 -3.000000
      vertex 94.000000 -10.000000 -3.000000
    endloop
  endfacet
  facet normal 0.000000 0.000000 -1.000000
    outer loop
      vertex 59.440534 -4.094697 -3.000000
      vertex 94.000000 -10.000000 -3.000000
      vertex 4.200000 -10.000000 -3.000000
    endloop
  endfacet
  facet normal 0.000000 0.000000 -1.000000
    outer loop
      vertex 86.490122 -1.569243 -3.000000
      vertex 94.000000 -10.000000 -3.000000
      vertex 86.030154 -1.334878 -3.000000
    endloop
  endfacet
  facet normal -0.000000 -0.000000 -1.000000
    outer loop
      vertex -0.934588 4.094697 -3.000000
      vertex -13.000000 10.000000 -3.000000
      vertex 0.934588 4.094697 -3.000000
    endloop
  endfacet
  facet normal 0.000000 -0.000000 -1.000000
    outer loop
      vertex -2.618657 3.283692 -3.000000
      vertex -13.000000 10.000000 -3.000000
      vertex -0.934588 4.094697 -3.000000
    endloop
  endfacet
  facet normal 0.000000 -0.000000 -1.000000
    outer loop
      vertex 4.200000 -0.000000 -3.000000
      vertex 3.784069 1.822312 -3.000000
      vertex 54.305946 10.000000 -3.000000
    endloop
  endfacet
  facet normal 0.000000 -0.000000 -1.000000
    outer loop
      vertex 3.784069 1.822312 -3.000000
      vertex 2.618657 3.283692 -3.000000
      vertex 54.305946 10.000000 -3.000000
    endloop
  endfacet
  facet normal 0.000000 -0.000000 -1.000000
    outer loop
      vertex 2.618657 3.283692 -3.000000
      vertex 0.934588 4.094697 -3.000000
      vertex 54.305946 10.000000 -3.000000
    endloop
  endfacet
  facet normal 0.000000 -0.000000 -1.000000
    outer loop
      vertex -3.784069 1.822312 -3.000000
      vertex -13.000000 10.000000 -3.000000
      vertex -2.618657 3.283692 -3.000000
    endloop
  endfacet
  facet normal 0.000000 -0.000000 -1.000000
    outer loop
      vertex -4.200000 0.000000 -3.000000
      vertex -13.000000 10.000000 -3.000000
      vertex -3.784069 1.822312 -3.000000
    endloop
  endfacet
  facet normal 0.000000 -0.000000 -1.000000
    outer loop
      vertex -4.200000 -10.000000 -3.000000
      vertex -13.000000 10.000000 -3.000000
      vertex -4.200000 0.000000 -3.000000
    endloop
  endfacet
  facet normal 0.000000 0.000000 -1.000000
    outer loop
      vertex 59.440534 -4.094697 -3.000000
      vertex 85.350000 0.000000 -3.000000
      vertex 85.430757 -0.509878 -3.000000
    endloop
  endfacet
  facet normal 0.000000 0.000000 -1.000000
    outer loop
      vertex 59.440534 -4.094697 -3.000000
      vertex 85.430757 -0.509878 -3.000000
      vertex 85.665122 -0.969846 -3.000000
    endloop
  endfacet
  facet normal -0.000000 0.000000 -1.000000
    outer loop
      vertex 59.440534 -4.094697 -3.000000
      vertex 85.665122 -0.969846 -3.000000
      vertex 94.000000 -10.000000 -3.000000
    endloop
  endfacet
  facet normal 0.000000 0.000000 -1.000000
    outer loop
      vertex 85.665122 -0.969846 -3.000000
      vertex 86.030154 -1.334878 -3.000000
      vertex 94.000000 -10.000000 -3.000000
    endloop
  endfacet
  facet normal 0.000000 0.000000 -1.000000
    outer loop
      vertex 87.000000 -1.650000 -3.000000
      vertex 94.000000 -10.000000 -3.000000
      vertex 86.490122 -1.569243 -3.000000
    endloop
  endfacet
  facet normal 0.000000 0.000000 -1.000000
    outer loop
      vertex 86.490122 1.569243 -3.000000
      vertex 94.000000 10.000000 -3.000000
      vertex 87.000000 1.650000 -3.000000
    endloop
  endfacet
  facet normal -0.000000 0.000000 -1.000000
    outer loop
      vertex 88.650000 0.000000 -3.000000
      vertex 94.000000 10.000000 -3.000000
      vertex 88.569243 -0.509878 -3.000000
    endloop
  endfacet
  facet normal -0.000000 0.000000 -1.000000
    outer loop
      vertex 88.334878 0.969846 -3.000000
      vertex 94.000000 10.000000 -3.000000
      vertex 88.569243 0.509878 -3.000000
    endloop
  endfacet
  facet normal -0.000000 0.000000 -1.000000
    outer loop
      vertex 87.000000 -1.650000 -3.000000
      vertex 87.509878 -1.569243 -3.000000
      vertex 94.000000 -10.000000 -3.000000
    endloop
  endfacet
  facet normal -0.000000 0.000000 -1.000000
    outer loop
      vertex 88.569243 0.509878 -3.000000
      vertex 94.000000 10.000000 -3.000000
      vertex 88.650000 0.000000 -3.000000
    endloop
  endfacet
  facet normal -0.000000 0.000000 -1.000000
    outer loop
      vertex 87.509878 -1.569243 -3.000000
      vertex 87.969846 -1.334878 -3.000000
      vertex 94.000000 -10.000000 -3.000000
    endloop
  endfacet
  facet normal -0.000000 0.000000 -1.000000
    outer loop
      vertex 88.569243 -0.509878 -3.000000
      vertex 94.000000 10.000000 -3.000000
      vertex 88.334878 -0.969846 -3.000000
    endloop
  endfacet
  facet normal -0.000000 0.000000 -1.000000
    outer loop
      vertex 87.969846 -1.334878 -3.000000
      vertex 88.334878 -0.969846 -3.000000
      vertex 94.000000 -10.000000 -3.000000
    endloop
  endfacet
  facet normal -0.000000 0.000000 -1.000000
    outer loop
      vertex 87.969846 1.334878 -3.000000
      vertex 94.000000 10.000000 -3.000000
      vertex 88.334878 0.969846 -3.000000
    endloop
  endfacet
  facet normal -0.000000 0.000000 -1.000000
    outer loop
      vertex 87.509878 1.569243 -3.000000
      vertex 94.000000 10.000000 -3.000000
      vertex 87.969846 1.334878 -3.000000
    endloop
  endfacet
  facet normal -0.000000 0.000000 -1.000000
    outer loop
      vertex 87.000000 1.650000 -3.000000
      vertex 94.000000 10.000000 -3.000000
      vertex 87.509878 1.569243 -3.000000
    endloop
  endfacet
  facet normal 0.000000 0.000000 -1.000000
    outer loop
      vertex 59.440534 -4.094697 -3.000000
      vertex 94.000000 10.000000 -3.000000
      vertex 86.490122 1.569243 -3.000000
    endloop
  endfacet
  facet normal 0.000000 0.000000 -1.000000
    outer loop
      vertex 59.440534 -4.094697 -3.000000
      vertex 86.490122 1.569243 -3.000000
      vertex 86.030154 1.334878 -3.000000
    endloop
  endfacet
  facet normal 0.000000 0.000000 -1.000000
    outer loop
      vertex 59.440534 -4.094697 -3.000000
      vertex 86.030154 1.334878 -3.000000
      vertex 85.665122 0.969846 -3.000000
    endloop
  endfacet
  facet normal 0.000000 0.000000 -1.000000
    outer loop
      vertex 59.440534 -4.094697 -3.000000
      vertex 85.665122 0.969846 -3.000000
      vertex 85.430757 0.509878 -3.000000
    endloop
  endfacet
  facet normal 0.000000 0.000000 -1.000000
    outer loop
      vertex 59.440534 -4.094697 -3.000000
      vertex 85.430757 0.509878 -3.000000
      vertex 85.350000 0.000000 -3.000000
    endloop
  endfacet
  facet normal 0.000000 0.000000 -1.000000
    outer loop
      vertex 4.200000 -0.000000 -3.000000
      vertex 54.305946 10.000000 -3.000000
      vertex 54.305946 0.000000 -3.000000
    endloop
  endfacet
  facet normal -0.000000 0.000000 -1.000000
    outer loop
      vertex 4.200000 -0.000000 -3.000000
      vertex 54.305946 0.000000 -3.000000
      vertex 54.721877 -1.822312 -3.000000
    endloop
  endfacet
  facet normal 0.000000 0.000000 -1.000000
    outer loop
      vertex 4.200000 -0.000000 -3.000000
      vertex 54.721877 -1.822312 -3.000000
      vertex 55.887289 -3.283692 -3.000000
    endloop
  endfacet
  facet normal 0.000000 0.000000 -1.000000
    outer loop
      vertex 4.200000 -0.000000 -3.000000
      vertex 55.887289 -3.283692 -3.000000
      vertex 57.571358 -4.094697 -3.000000
    endloop
  endfacet
  facet normal 0.000000 0.000000 -1.000000
    outer loop
      vertex 57.571358 -4.094697 -3.000000
      vertex 59.440534 -4.094697 -3.000000
      vertex 4.200000 -10.000000 -3.000000
    endloop
  endfacet
  facet normal 0.000000 0.000000 -1.000000
    outer loop
      vertex 4.200000 -0.000000 -3.000000
      vertex 57.571358 -4.094697 -3.000000
      vertex 4.200000 -10.000000 -3.000000
    endloop
  endfacet
  facet normal 0.000000 1.000000 0.000000
    outer loop
      vertex -13.000000 10.000000 -3.000000
      vertex -13.000000 10.000000 3.000000
      vertex 54.305946 10.000000 -3.000000
    endloop
  endfacet
  facet normal 0.000000 1.000000 0.000000
    outer loop
      vertex 54.305946 10.000000 -3.000000
      vertex -13.000000 10.000000 3.000000
      vertex 54.305946 10.000000 3.000000
    endloop
  endfacet
  facet normal 0.000000 -0.000000 1.000000
    outer loop
      vertex -13.000000 10.000000 3.000000
      vertex -13.000000 -10.000000 3.000000
      vertex -4.200000 -10.000000 3.000000
    endloop
  endfacet
  facet normal -0.000000 0.000000 1.000000
    outer loop
      vertex -3.784069 1.822312 3.000000
      vertex -13.000000 10.000000 3.000000
      vertex -4.200000 0.000000 3.000000
    endloop
  endfacet
  facet normal -0.000000 0.000000 1.000000
    outer loop
      vertex -4.200000 0.000000 3.000000
      vertex -13.000000 10.000000 3.000000
      vertex -4.200000 -10.000000 3.000000
    endloop
  endfacet
  facet normal -0.000000 0.000000 1.000000
    outer loop
      vertex -2.618657 3.283692 3.000000
      vertex -13.000000 10.000000 3.000000
      vertex -3.784069 1.822312 3.000000
    endloop
  endfacet
  facet normal -0.000000 0.000000 1.000000
    outer loop
      vertex -0.934588 4.094697 3.000000
      vertex -13.000000 10.000000 3.000000
      vertex -2.618657 3.283692 3.000000
    endloop
  endfacet
  facet normal 0.000000 0.000000 1.000000
    outer loop
      vertex 0.934588 4.094697 3.000000
      vertex -13.000000 10.000000 3.000000
      vertex -0.934588 4.094697 3.000000
    endloop
  endfacet
  facet normal 0.000000 0.000000 1.000000
    outer loop
      vertex 55.887289 -3.283692 3.000000
      vertex 54.721877 -1.822312 3.000000
      vertex -13.000000 10.000000 3.000000
    endloop
  endfacet
  facet normal 0.000000 0.000000 1.000000
    outer loop
      vertex 94.000000 -10.000000 3.000000
      vertex 0.934588 4.094697 3.000000
      vertex 2.618657 3.283692 3.000000
    endloop
  endfacet
  facet normal 0.000000 0.000000 1.000000
    outer loop
      vertex 94.000000 -10.000000 3.000000
      vertex 2.618657 3.283692 3.000000
      vertex 3.784069 1.822312 3.000000
    endloop
  endfacet
  facet normal 0.000000 0.000000 1.000000
    outer loop
      vertex 94.000000 -10.000000 3.000000
      vertex 3.784069 1.822312 3.000000
      vertex 4.200000 -0.000000 3.000000
    endloop
  endfacet
  facet normal -0.000000 0.000000 1.000000
    outer loop
      vertex 94.000000 -10.000000 3.000000
      vertex 4.200000 -0.000000 3.000000
      vertex 4.200000 -10.000000 3.000000
    endloop
  endfacet
  facet normal 0.000000 0.000000 1.000000
    outer loop
      vertex 57.571358 -4.094697 3.000000
      vertex 55.887289 -3.283692 3.000000
      vertex -13.000000 10.000000 3.000000
    endloop
  endfacet
  facet normal -0.000000 -0.000000 1.000000
    outer loop
      vertex 85.145898 -5.706339 3.000000
      vertex 62.705946 0.000000 3.000000
      vertex 94.000000 -10.000000 3.000000
    endloop
  endfacet
  facet normal 0.000000 -0.000000 1.000000
    outer loop
      vertex 62.705946 0.000000 3.000000
      vertex 62.290015 -1.822312 3.000000
      vertex 94.000000 -10.000000 3.000000
    endloop
  endfacet
  facet normal 0.000000 -0.000000 1.000000
    outer loop
      vertex 62.290015 -1.822312 3.000000
      vertex 61.124603 -3.283692 3.000000
      vertex 94.000000 -10.000000 3.000000
    endloop
  endfacet
  facet normal 0.000000 0.000000 1.000000
    outer loop
      vertex 81.518727 -2.440420 3.000000
      vertex 81.131114 -1.247470 3.000000
      vertex 62.705946 10.000000 3.000000
    endloop
  endfacet
  facet normal 0.000000 0.000000 1.000000
    outer loop
      vertex 94.000000 -10.000000 3.000000
      vertex 57.571358 -4.094697 3.000000
      vertex 0.934588 4.094697 3.000000
    endloop
  endfacet
  facet normal 0.000000 0.000000 1.000000
    outer loop
      vertex 94.000000 -10.000000 3.000000
      vertex 59.440534 -4.094697 3.000000
      vertex 57.571358 -4.094697 3.000000
    endloop
  endfacet
  facet normal 0.000000 0.000000 1.000000
    outer loop
      vertex 57.571358 -4.094697 3.000000
      vertex -13.000000 10.000000 3.000000
      vertex 0.934588 4.094697 3.000000
    endloop
  endfacet
  facet normal 0.000000 0.000000 1.000000
    outer loop
      vertex 54.305946 0.000000 3.000000
      vertex 54.305946 10.000000 3.000000
      vertex -13.000000 10.000000 3.000000
    endloop
  endfacet
  facet normal 0.000000 0.000000 1.000000
    outer loop
      vertex 85.145898 -5.706339 3.000000
      vertex 84.000000 -5.196152 3.000000
      vertex 62.705946 0.000000 3.000000
    endloop
  endfacet
  facet normal -0.000000 -0.000000 1.000000
    outer loop
      vertex 81.000000 0.000000 3.000000
      vertex 62.705946 10.000000 3.000000
      vertex 81.131114 -1.247470 3.000000
    endloop
  endfacet
  facet normal -0.000000 0.000000 1.000000
    outer loop
      vertex 81.131114 1.247470 3.000000
      vertex 62.705946 10.000000 3.000000
      vertex 81.000000 0.000000 3.000000
    endloop
  endfacet
  facet normal 0.000000 0.000000 1.000000
    outer loop
      vertex 88.854102 5.706339 3.000000
      vertex 90.000000 5.196152 3.000000
      vertex 94.000000 10.000000 3.000000
    endloop
  endfacet
  facet normal -0.000000 0.000000 1.000000
    outer loop
      vertex 81.518727 2.440420 3.000000
      vertex 62.705946 10.000000 3.000000
      vertex 81.131114 1.247470 3.000000
    endloop
  endfacet
  facet normal -0.000000 0.000000 1.000000
    outer loop
      vertex 82.145898 3.526712 3.000000
      vertex 62.705946 10.000000 3.000000
      vertex 81.518727 2.440420 3.000000
    endloop
  endfacet
  facet normal -0.000000 0.000000 1.000000
    outer loop
      vertex 82.985216 4.458869 3.000000
      vertex 62.705946 10.000000 3.000000
      vertex 82.145898 3.526712 3.000000
    endloop
  endfacet
  facet normal -0.000000 0.000000 1.000000
    outer loop
      vertex 84.000000 5.196152 3.000000
      vertex 62.705946 10.000000 3.000000
      vertex 82.985216 4.458869 3.000000
    endloop
  endfacet
  facet normal 0.000000 0.000000 1.000000
    outer loop
      vertex 94.000000 10.000000 3.000000
      vertex 62.705946 10.000000 3.000000
      vertex 84.000000 5.196152 3.000000
    endloop
  endfacet
  facet normal 0.000000 0.000000 1.000000
    outer loop
      vertex 94.000000 10.000000 3.000000
      vertex 84.000000 5.196152 3.000000
      vertex 85.145898 5.706339 3.000000
    endloop
  endfacet
  facet normal 0.000000 0.000000 1.000000
    outer loop
      vertex 87.627171 5.967131 3.000000
      vertex 88.854102 5.706339 3.000000
      vertex 94.000000 10.000000 3.000000
    endloop
  endfacet
  facet normal 0.000000 -0.000000 1.000000
    outer loop
      vertex 93.000000 0.000000 3.000000
      vertex 92.868886 -1.247470 3.000000
      vertex 94.000000 -10.000000 3.000000
    endloop
  endfacet
  facet normal 0.000000 -0.000000 1.000000
    outer loop
      vertex 88.854102 -5.706339 3.000000
      vertex 87.627171 -5.967131 3.000000
      vertex 94.000000 -10.000000 3.000000
    endloop
  endfacet
  facet normal 0.000000 0.000000 1.000000
    outer loop
      vertex 94.000000 10.000000 3.000000
      vertex 90.000000 5.196152 3.000000
      vertex 91.014784 4.458869 3.000000
    endloop
  endfacet
  facet normal 0.000000 0.000000 1.000000
    outer loop
      vertex 94.000000 10.000000 3.000000
      vertex 91.014784 4.458869 3.000000
      vertex 91.854102 3.526712 3.000000
    endloop
  endfacet
  facet normal 0.000000 -0.000000 1.000000
    outer loop
      vertex 92.868886 -1.247470 3.000000
      vertex 92.481273 -2.440420 3.000000
      vertex 94.000000 -10.000000 3.000000
    endloop
  endfacet
  facet normal 0.000000 0.000000 1.000000
    outer loop
      vertex 94.000000 10.000000 3.000000
      vertex 91.854102 3.526712 3.000000
      vertex 92.481273 2.440420 3.000000
    endloop
  endfacet
  facet normal 0.000000 -0.000000 1.000000
    outer loop
      vertex 92.481273 -2.440420 3.000000
      vertex 91.854102 -3.526712 3.000000
      vertex 94.000000 -10.000000 3.000000
    endloop
  endfacet
  facet normal 0.000000 0.000000 1.000000
    outer loop
      vertex 94.000000 10.000000 3.000000
      vertex 92.481273 2.440420 3.000000
      vertex 92.868886 1.247470 3.000000
    endloop
  endfacet
  facet normal 0.000000 0.000000 1.000000
    outer loop
      vertex 94.000000 10.000000 3.000000
      vertex 93.000000 0.000000 3.000000
      vertex 94.000000 -10.000000 3.000000
    endloop
  endfacet
  facet normal 0.000000 0.000000 1.000000
    outer loop
      vertex 94.000000 10.000000 3.000000
      vertex 92.868886 1.247470 3.000000
      vertex 93.000000 0.000000 3.000000
    endloop
  endfacet
  facet normal 0.000000 -0.000000 1.000000
    outer loop
      vertex 91.854102 -3.526712 3.000000
      vertex 91.014784 -4.458869 3.000000
      vertex 94.000000 -10.000000 3.000000
    endloop
  endfacet
  facet normal 0.000000 -0.000000 1.000000
    outer loop
      vertex 91.014784 -4.458869 3.000000
      vertex 90.000000 -5.196152 3.000000
      vertex 94.000000 -10.000000 3.000000
    endloop
  endfacet
  facet normal 0.000000 -0.000000 1.000000
    outer loop
      vertex 90.000000 -5.196152 3.000000
      vertex 88.854102 -5.706339 3.000000
      vertex 94.000000 -10.000000 3.000000
    endloop
  endfacet
  facet normal 0.000000 0.000000 1.000000
    outer loop
      vertex 85.145898 5.706339 3.000000
      vertex 86.372829 5.967131 3.000000
      vertex 94.000000 10.000000 3.000000
    endloop
  endfacet
  facet normal 0.000000 -0.000000 1.000000
    outer loop
      vertex 87.627171 -5.967131 3.000000
      vertex 86.372829 -5.967131 3.000000
      vertex 94.000000 -10.000000 3.000000
    endloop
  endfacet
  facet normal -0.000000 -0.000000 1.000000
    outer loop
      vertex 86.372829 -5.967131 3.000000
      vertex 85.145898 -5.706339 3.000000
      vertex 94.000000 -10.000000 3.000000
    endloop
  endfacet
  facet normal 0.000000 0.000000 1.000000
    outer loop
      vertex 84.000000 -5.196152 3.000000
      vertex 82.985216 -4.458869 3.000000
      vertex 62.705946 0.000000 3.000000
    endloop
  endfacet
  facet normal 0.000000 -0.000000 1.000000
    outer loop
      vertex 62.705946 10.000000 3.000000
      vertex 62.705946 0.000000 3.000000
      vertex 82.985216 -4.458869 3.000000
    endloop
  endfacet
  facet normal 0.000000 0.000000 1.000000
    outer loop
      vertex 62.705946 10.000000 3.000000
      vertex 82.985216 -4.458869 3.000000
      vertex 82.145898 -3.526712 3.000000
    endloop
  endfacet
  facet normal 0.000000 0.000000 1.000000
    outer loop
      vertex 86.372829 5.967131 3.000000
      vertex 87.627171 5.967131 3.000000
      vertex 94.000000 10.000000 3.000000
    endloop
  endfacet
  facet normal 0.000000 0.000000 1.000000
    outer loop
      vertex 62.705946 10.000000 3.000000
      vertex 82.145898 -3.526712 3.000000
      vertex 81.518727 -2.440420 3.000000
    endloop
  endfacet
  facet normal 0.000000 0.000000 1.000000
    outer loop
      vertex 54.721877 -1.822312 3.000000
      vertex 54.305946 0.000000 3.000000
      vertex -13.000000 10.000000 3.000000
    endloop
  endfacet
  facet normal 0.000000 -0.000000 1.000000
    outer loop
      vertex 61.124603 -3.283692 3.000000
      vertex 59.440534 -4.094697 3.000000
      vertex 94.000000 -10.000000 3.000000
    endloop
  endfacet
  facet normal 1.000000 -0.000000 0.000000
    outer loop
      vertex -4.200000 0.000000 -3.000000
      vertex -4.200000 0.000000 3.000000
      vertex -4.200000 -10.000000 3.000000
    endloop
  endfacet
  facet normal 1.000000 -0.000000 0.000000
    outer loop
      vertex -4.200000 -10.000000 -3.000000
      vertex -4.200000 0.000000 -3.000000
      vertex -4.200000 -10.000000 3.000000
    endloop
  endfacet
  facet normal 0.974928 -0.222521 0.000000
    outer loop
      vertex -3.784069 1.822312 -3.000000
      vertex -3.784069 1.822312 3.000000
      vertex -4.200000 0.000000 3.000000
    endloop
  endfacet
  facet normal 0.974928 -0.222521 0.000000
    outer loop
      vertex -4.200000 0.000000 -3.000000
      vertex -3.784069 1.822312 -3.000000
      vertex -4.200000 0.000000 3.000000
    endloop
  endfacet
  facet normal 0.781831 -0.623490 0.000000
    outer loop
      vertex -2.618657 3.283692 -3.000000
      vertex -2.618657 3.283692 3.000000
      vertex -3.784069 1.822312 3.000000
    endloop
  endfacet
  facet normal 0.781831 -0.623490 0.000000
    outer loop
      vertex -3.784069 1.822312 -3.000000
      vertex -2.618657 3.283692 -3.000000
      vertex -3.784069 1.822312 3.000000
    endloop
  endfacet
  facet normal 0.433884 -0.900969 0.000000
    outer loop
      vertex -0.934588 4.094697 -3.000000
      vertex -0.934588 4.094697 3.000000
      vertex -2.618657 3.283692 3.000000
    endloop
  endfacet
  facet normal 0.433884 -0.900969 0.000000
    outer loop
      vertex -2.618657 3.283692 -3.000000
      vertex -0.934588 4.094697 -3.000000
      vertex -2.618657 3.283692 3.000000
    endloop
  endfacet
  facet normal -0.000000 -1.000000 -0.000000
    outer loop
      vertex 0.934588 4.094697 -3.000000
      vertex 0.934588 4.094697 3.000000
      vertex -0.934588 4.094697 3.000000
    endloop
  endfacet
  facet normal -0.000000 -1.000000 -0.000000
    outer loop
      vertex -0.934588 4.094697 -3.000000
      vertex 0.934588 4.094697 -3.000000
      vertex -0.934588 4.094697 3.000000
    endloop
  endfacet
  facet normal -0.433884 -0.900969 -0.000000
    outer loop
      vertex 2.618657 3.283692 -3.000000
      vertex 2.618657 3.283692 3.000000
      vertex 0.934588 4.094697 3.000000
    endloop
  endfacet
  facet normal -0.433884 -0.900969 -0.000000
    outer loop
      vertex 0.934588 4.094697 -3.000000
      vertex 2.618657 3.283692 -3.000000
      vertex 0.934588 4.094697 3.000000
    endloop
  endfacet
  facet normal -0.781831 -0.623490 0.000000
    outer loop
      vertex 3.784069 1.822312 3.000000
      vertex 2.618657 3.283692 3.000000
      vertex 3.784069 1.822312 -3.000000
    endloop
  endfacet
  facet normal -0.781831 -0.623490 0.000000
    outer loop
      vertex 3.784069 1.822312 -3.000000
      vertex 2.618657 3.283692 3.000000
      vertex 2.618657 3.283692 -3.000000
    endloop
  endfacet
  facet normal -0.974928 -0.222521 0.000000
    outer loop
      vertex 4.200000 -0.000000 3.000000
      vertex 3.784069 1.822312 3.000000
      vertex 4.200000 -0.000000 -3.000000
    endloop
  endfacet
  facet normal -0.974928 -0.222521 0.000000
    outer loop
      vertex 4.200000 -0.000000 -3.000000
      vertex 3.784069 1.822312 3.000000
      vertex 3.784069 1.822312 -3.000000
    endloop
  endfacet
  facet normal -1.000000 0.000000 0.000000
    outer loop
      vertex 4.200000 -0.000000 3.000000
      vertex 4.200000 -0.000000 -3.000000
      vertex 4.200000 -10.000000 3.000000
    endloop
  endfacet
  facet normal -1.000000 0.000000 0.000000
    outer loop
      vertex 4.200000 -10.000000 3.000000
      vertex 4.200000 -0.000000 -3.000000
      vertex 4.200000 -10.000000 -3.000000
    endloop
  endfacet
  facet normal 0.000000 -1.000000 0.000000
    outer loop
      vertex 4.200000 -10.000000 3.000000
      vertex 4.200000 -10.000000 -3.000000
      vertex 94.000000 -10.000000 -3.000000
    endloop
  endfacet
  facet normal 0.000000 -1.000000 0.000000
    outer loop
      vertex 94.000000 -10.000000 3.000000
      vertex 4.200000 -10.000000 3.000000
      vertex 94.000000 -10.000000 -3.000000
    endloop
  endfacet
  facet normal 1.000000 0.000000 -0.000000
    outer loop
      vertex 94.000000 -10.000000 3.000000
      vertex 94.000000 -10.000000 -3.000000
      vertex 94.000000 10.000000 -3.000000
    endloop
  endfacet
  facet normal 1.000000 0.000000 0.000000
    outer loop
      vertex 94.000000 10.000000 3.000000
      vertex 94.000000 -10.000000 3.000000
      vertex 94.000000 10.000000 -3.000000
    endloop
  endfacet
  facet normal 0.000000 1.000000 0.000000
    outer loop
      vertex 62.705946 10.000000 -3.000000
      vertex 62.705946 10.000000 3.000000
      vertex 94.000000 10.000000 -3.000000
    endloop
  endfacet
  facet normal 0.000000 1.000000 0.000000
    outer loop
      vertex 94.000000 10.000000 -3.000000
      vertex 62.705946 10.000000 3.000000
      vertex 94.000000 10.000000 3.000000
    endloop
  endfacet
  facet normal -1.000000 0.000000 0.000000
    outer loop
      vertex 62.705946 10.000000 3.000000
      vertex 62.705946 10.000000 -3.000000
      vertex 62.705946 0.000000 3.000000
    endloop
  endfacet
  facet normal -1.000000 0.000000 0.000000
    outer loop
      vertex 62.705946 0.000000 3.000000
      vertex 62.705946 10.000000 -3.000000
      vertex 62.705946 0.000000 -3.000000
    endloop
  endfacet
  facet normal -0.974928 0.222521 0.000000
    outer loop
      vertex 62.705946 0.000000 3.000000
      vertex 62.705946 0.000000 -3.000000
      vertex 62.290015 -1.822312 3.000000
    endloop
  endfacet
  facet normal -0.974928 0.222521 0.000000
    outer loop
      vertex 62.290015 -1.822312 3.000000
      vertex 62.705946 0.000000 -3.000000
      vertex 62.290015 -1.822312 -3.000000
    endloop
  endfacet
  facet normal -0.781831 0.623490 0.000000
    outer loop
      vertex 62.290015 -1.822312 3.000000
      vertex 62.290015 -1.822312 -3.000000
      vertex 61.124603 -3.283692 3.000000
    endloop
  endfacet
  facet normal -0.781831 0.623490 0.000000
    outer loop
      vertex 61.124603 -3.283692 3.000000
      vertex 62.290015 -1.822312 -3.000000
      vertex 61.124603 -3.283692 -3.000000
    endloop
  endfacet
  facet normal -0.433884 0.900969 0.000000
    outer loop
      vertex 61.124603 -3.283692 3.000000
      vertex 61.124603 -3.283692 -3.000000
      vertex 59.440534 -4.094697 3.000000
    endloop
  endfacet
  facet normal -0.433884 0.900969 0.000000
    outer loop
      vertex 59.440534 -4.094697 3.000000
      vertex 61.124603 -3.283692 -3.000000
      vertex 59.440534 -4.094697 -3.000000
    endloop
  endfacet
  facet normal 0.000000 1.000000 0.000000
    outer loop
      vertex 59.440534 -4.094697 3.000000
      vertex 59.440534 -4.094697 -3.000000
      vertex 57.571358 -4.094697 3.000000
    endloop
  endfacet
  facet normal 0.000000 1.000000 -0.000000
    outer loop
      vertex 57.571358 -4.094697 3.000000
      vertex 59.440534 -4.094697 -3.000000
      vertex 57.571358 -4.094697 -3.000000
    endloop
  endfacet
  facet normal 0.433884 0.900969 -0.000000
    outer loop
      vertex 57.571358 -4.094697 3.000000
      vertex 57.571358 -4.094697 -3.000000
      vertex 55.887289 -3.283692 3.000000
    endloop
  endfacet
  facet normal 0.433884 0.900969 -0.000000
    outer loop
      vertex 55.887289 -3.283692 3.000000
      vertex 57.571358 -4.094697 -3.000000
      vertex 55.887289 -3.283692 -3.000000
    endloop
  endfacet
  facet normal 0.781831 0.623490 0.000000
    outer loop
      vertex 54.721877 -1.822312 3.000000
      vertex 55.887289 -3.283692 3.000000
      vertex 55.887289 -3.283692 -3.000000
    endloop
  endfacet
  facet normal 0.781831 0.623490 0.000000
    outer loop
      vertex 54.721877 -1.822312 -3.000000
      vertex 54.721877 -1.822312 3.000000
      vertex 55.887289 -3.283692 -3.000000
    endloop
  endfacet
  facet normal 0.974928 0.222521 0.000000
    outer loop
      vertex 54.305946 0.000000 3.000000
      vertex 54.721877 -1.822312 3.000000
      vertex 54.721877 -1.822312 -3.000000
    endloop
  endfacet
  facet normal 0.974928 0.222521 0.000000
    outer loop
      vertex 54.305946 0.000000 -3.000000
      vertex 54.305946 0.000000 3.000000
      vertex 54.721877 -1.822312 -3.000000
    endloop
  endfacet
  facet normal 1.000000 0.000000 0.000000
    outer loop
      vertex 54.305946 10.000000 -3.000000
      vertex 54.305946 10.000000 3.000000
      vertex 54.305946 0.000000 3.000000
    endloop
  endfacet
  facet normal 1.000000 0.000000 0.000000
    outer loop
      vertex 54.305946 0.000000 -3.000000
      vertex 54.305946 10.000000 -3.000000
      vertex 54.305946 0.000000 3.000000
    endloop
  endfacet
  facet normal 0.987688 -0.156435 0.000000
    outer loop
      vertex 85.430757 0.509878 -3.000000
      vertex 85.430757 0.509878 24.000000
      vertex 85.350000 0.000000 24.000000
    endloop
  endfacet
  facet normal 0.987688 -0.156435 0.000000
    outer loop
      vertex 85.350000 0.000000 -3.000000
      vertex 85.430757 0.509878 -3.000000
      vertex 85.350000 0.000000 24.000000
    endloop
  endfacet
  facet normal 0.987688 0.156435 0.000000
    outer loop
      vertex 85.350000 0.000000 24.000000
      vertex 85.430757 -0.509878 24.000000
      vertex 85.430757 -0.509878 -3.000000
    endloop
  endfacet
  facet normal 0.987688 0.156435 0.000000
    outer loop
      vertex 85.350000 0.000000 -3.000000
      vertex 85.350000 0.000000 24.000000
      vertex 85.430757 -0.509878 -3.000000
    endloop
  endfacet
  facet normal 0.891007 -0.453990 0.000000
    outer loop
      vertex 85.665122 0.969846 -3.000000
      vertex 85.665122 0.969846 24.000000
      vertex 85.430757 0.509878 24.000000
    endloop
  endfacet
  facet normal 0.891007 -0.453990 0.000000
    outer loop
      vertex 85.430757 0.509878 -3.000000
      vertex 85.665122 0.969846 -3.000000
      vertex 85.430757 0.509878 24.000000
    endloop
  endfacet
  facet normal 0.707107 -0.707107 0.000000
    outer loop
      vertex 86.030154 1.334878 -3.000000
      vertex 86.030154 1.334878 24.000000
      vertex 85.665122 0.969846 24.000000
    endloop
  endfacet
  facet normal 0.707107 -0.707107 0.000000
    outer loop
      vertex 85.665122 0.969846 -3.000000
      vertex 86.030154 1.334878 -3.000000
      vertex 85.665122 0.969846 24.000000
    endloop
  endfacet
  facet normal 0.453990 -0.891007 0.000000
    outer loop
      vertex 86.490122 1.569243 -3.000000
      vertex 86.490122 1.569243 24.000000
      vertex 86.030154 1.334878 24.000000
    endloop
  endfacet
  facet normal 0.453990 -0.891007 0.000000
    outer loop
      vertex 86.030154 1.334878 -3.000000
      vertex 86.490122 1.569243 -3.000000
      vertex 86.030154 1.334878 24.000000
    endloop
  endfacet
  facet normal 0.156435 -0.987688 0.000000
    outer loop
      vertex 87.000000 1.650000 -3.000000
      vertex 87.000000 1.650000 24.000000
      vertex 86.490122 1.569243 24.000000
    endloop
  endfacet
  facet normal 0.156435 -0.987688 0.000000
    outer loop
      vertex 86.490122 1.569243 -3.000000
      vertex 87.000000 1.650000 -3.000000
      vertex 86.490122 1.569243 24.000000
    endloop
  endfacet
  facet normal -0.156435 -0.987688 -0.000000
    outer loop
      vertex 87.509878 1.569243 -3.000000
      vertex 87.509878 1.569243 24.000000
      vertex 87.000000 1.650000 24.000000
    endloop
  endfacet
  facet normal -0.156435 -0.987688 -0.000000
    outer loop
      vertex 87.000000 1.650000 -3.000000
      vertex 87.509878 1.569243 -3.000000
      vertex 87.000000 1.650000 24.000000
    endloop
  endfacet
  facet normal -0.453990 -0.891007 -0.000000
    outer loop
      vertex 87.969846 1.334878 -3.000000
      vertex 87.969846 1.334878 24.000000
      vertex 87.509878 1.569243 24.000000
    endloop
  endfacet
  facet normal -0.453990 -0.891007 -0.000000
    outer loop
      vertex 87.509878 1.569243 -3.000000
      vertex 87.969846 1.334878 -3.000000
      vertex 87.509878 1.569243 24.000000
    endloop
  endfacet
  facet normal -0.707107 -0.707107 -0.000000
    outer loop
      vertex 88.334878 0.969846 -3.000000
      vertex 88.334878 0.969846 24.000000
      vertex 87.969846 1.334878 24.000000
    endloop
  endfacet
  facet normal -0.707107 -0.707107 -0.000000
    outer loop
      vertex 87.969846 1.334878 -3.000000
      vertex 88.334878 0.969846 -3.000000
      vertex 87.969846 1.334878 24.000000
    endloop
  endfacet
  facet normal -0.891007 -0.453990 0.000000
    outer loop
      vertex 88.569243 0.509878 24.000000
      vertex 88.334878 0.969846 24.000000
      vertex 88.569243 0.509878 -3.000000
    endloop
  endfacet
  facet normal -0.891007 -0.453990 0.000000
    outer loop
      vertex 88.569243 0.509878 -3.000000
      vertex 88.334878 0.969846 24.000000
      vertex 88.334878 0.969846 -3.000000
    endloop
  endfacet
  facet normal -0.987688 -0.156435 0.000000
    outer loop
      vertex 88.650000 0.000000 24.000000
      vertex 88.569243 0.509878 24.000000
      vertex 88.650000 0.000000 -3.000000
    endloop
  endfacet
  facet normal -0.987688 -0.156435 0.000000
    outer loop
      vertex 88.650000 0.000000 -3.000000
      vertex 88.569243 0.509878 24.000000
      vertex 88.569243 0.509878 -3.000000
    endloop
  endfacet
  facet normal -0.987688 0.156435 0.000000
    outer loop
      vertex 88.650000 0.000000 24.000000
      vertex 88.650000 0.000000 -3.000000
      vertex 88.569243 -0.509878 24.000000
    endloop
  endfacet
  facet normal -0.987688 0.156435 0.000000
    outer loop
      vertex 88.569243 -0.509878 24.000000
      vertex 88.650000 0.000000 -3.000000
      vertex 88.569243 -0.509878 -3.000000
    endloop
  endfacet
  facet normal -0.891007 0.453990 0.000000
    outer loop
      vertex 88.569243 -0.509878 24.000000
      vertex 88.569243 -0.509878 -3.000000
      vertex 88.334878 -0.969846 24.000000
    endloop
  endfacet
  facet normal -0.891007 0.453990 0.000000
    outer loop
      vertex 88.334878 -0.969846 24.000000
      vertex 88.569243 -0.509878 -3.000000
      vertex 88.334878 -0.969846 -3.000000
    endloop
  endfacet
  facet normal -0.707107 0.707107 0.000000
    outer loop
      vertex 88.334878 -0.969846 24.000000
      vertex 88.334878 -0.969846 -3.000000
      vertex 87.969846 -1.334878 24.000000
    endloop
  endfacet
  facet normal -0.707107 0.707107 0.000000
    outer loop
      vertex 87.969846 -1.334878 24.000000
      vertex 88.334878 -0.969846 -3.000000
      vertex 87.969846 -1.334878 -3.000000
    endloop
  endfacet
  facet normal -0.453990 0.891007 0.000000
    outer loop
      vertex 87.969846 -1.334878 24.000000
      vertex 87.969846 -1.334878 -3.000000
      vertex 87.509878 -1.569243 24.000000
    endloop
  endfacet
  facet normal -0.453990 0.891007 0.000000
    outer loop
      vertex 87.509878 -1.569243 24.000000
      vertex 87.969846 -1.334878 -3.000000
      vertex 87.509878 -1.569243 -3.000000
    endloop
  endfacet
  facet normal -0.156435 0.987688 0.000000
    outer loop
      vertex 87.509878 -1.569243 24.000000
      vertex 87.509878 -1.569243 -3.000000
      vertex 87.000000 -1.650000 24.000000
    endloop
  endfacet
  facet normal -0.156435 0.987688 0.000000
    outer loop
      vertex 87.000000 -1.650000 24.000000
      vertex 87.509878 -1.569243 -3.000000
      vertex 87.000000 -1.650000 -3.000000
    endloop
  endfacet
  facet normal 0.156435 0.987688 -0.000000
    outer loop
      vertex 87.000000 -1.650000 24.000000
      vertex 87.000000 -1.650000 -3.000000
      vertex 86.490122 -1.569243 24.000000
    endloop
  endfacet
  facet normal 0.156435 0.987688 -0.000000
    outer loop
      vertex 86.490122 -1.569243 24.000000
      vertex 87.000000 -1.650000 -3.000000
      vertex 86.490122 -1.569243 -3.000000
    endloop
  endfacet
  facet normal 0.453990 0.891007 -0.000000
    outer loop
      vertex 86.490122 -1.569243 24.000000
      vertex 86.490122 -1.569243 -3.000000
      vertex 86.030154 -1.334878 24.000000
    endloop
  endfacet
  facet normal 0.453990 0.891007 -0.000000
    outer loop
      vertex 86.030154 -1.334878 24.000000
      vertex 86.490122 -1.569243 -3.000000
      vertex 86.030154 -1.334878 -3.000000
    endloop
  endfacet
  facet normal 0.707107 0.707107 -0.000000
    outer loop
      vertex 86.030154 -1.334878 24.000000
      vertex 86.030154 -1.334878 -3.000000
      vertex 85.665122 -0.969846 24.000000
    endloop
  endfacet
  facet normal 0.707107 0.707107 -0.000000
    outer loop
      vertex 85.665122 -0.969846 24.000000
      vertex 86.030154 -1.334878 -3.000000
      vertex 85.665122 -0.969846 -3.000000
    endloop
  endfacet
  facet normal 0.891007 0.453990 0.000000
    outer loop
      vertex 85.430757 -0.509878 24.000000
      vertex 85.665122 -0.969846 24.000000
      vertex 85.665122 -0.969846 -3.000000
    endloop
  endfacet
  facet normal 0.891007 0.453990 0.000000
    outer loop
      vertex 85.430757 -0.509878 -3.000000
      vertex 85.430757 -0.509878 24.000000
      vertex 85.665122 -0.969846 -3.000000
    endloop
  endfacet
  facet normal -0.994522 -0.104528 -0.000000
    outer loop
      vertex 81.000000 0.000000 3.000000
      vertex 81.131114 -1.247470 3.000000
      vertex 81.000000 0.000000 24.000000
    endloop
  endfacet
  facet normal -0.994522 -0.104528 0.000000
    outer loop
      vertex 81.000000 0.000000 24.000000
      vertex 81.131114 -1.247470 3.000000
      vertex 81.131114 -1.247470 24.000000
    endloop
  endfacet
  facet normal -0.951057 -0.309017 -0.000000
    outer loop
      vertex 81.131114 -1.247470 3.000000
      vertex 81.518727 -2.440420 3.000000
      vertex 81.131114 -1.247470 24.000000
    endloop
  endfacet
  facet normal -0.951057 -0.309017 0.000000
    outer loop
      vertex 81.131114 -1.247470 24.000000
      vertex 81.518727 -2.440420 3.000000
      vertex 81.518727 -2.440420 24.000000
    endloop
  endfacet
  facet normal -0.866025 -0.500000 -0.000000
    outer loop
      vertex 81.518727 -2.440420 3.000000
      vertex 82.145898 -3.526712 3.000000
      vertex 81.518727 -2.440420 24.000000
    endloop
  endfacet
  facet normal -0.866025 -0.500000 0.000000
    outer loop
      vertex 81.518727 -2.440420 24.000000
      vertex 82.145898 -3.526712 3.000000
      vertex 82.145898 -3.526712 24.000000
    endloop
  endfacet
  facet normal -0.743145 -0.669131 -0.000000
    outer loop
      vertex 82.145898 -3.526712 3.000000
      vertex 82.985216 -4.458869 3.000000
      vertex 82.145898 -3.526712 24.000000
    endloop
  endfacet
  facet normal -0.743145 -0.669131 0.000000
    outer loop
      vertex 82.145898 -3.526712 24.000000
      vertex 82.985216 -4.458869 3.000000
      vertex 82.985216 -4.458869 24.000000
    endloop
  endfacet
  facet normal -0.587785 -0.809017 0.000000
    outer loop
      vertex 82.985216 -4.458869 24.000000
      vertex 82.985216 -4.458869 3.000000
      vertex 84.000000 -5.196152 3.000000
    endloop
  endfacet
  facet normal -0.587785 -0.809017 0.000000
    outer loop
      vertex 84.000000 -5.196152 24.000000
      vertex 82.985216 -4.458869 24.000000
      vertex 84.000000 -5.196152 3.000000
    endloop
  endfacet
  facet normal -0.406737 -0.913545 0.000000
    outer loop
      vertex 84.000000 -5.196152 24.000000
      vertex 84.000000 -5.196152 3.000000
      vertex 85.145898 -5.706339 3.000000
    endloop
  endfacet
  facet normal -0.406737 -0.913545 0.000000
    outer loop
      vertex 85.145898 -5.706339 24.000000
      vertex 84.000000 -5.196152 24.000000
      vertex 85.145898 -5.706339 3.000000
    endloop
  endfacet
  facet normal -0.207912 -0.978148 0.000000
    outer loop
      vertex 85.145898 -5.706339 24.000000
      vertex 85.145898 -5.706339 3.000000
      vertex 86.372829 -5.967131 3.000000
    endloop
  endfacet
  facet normal -0.207912 -0.978148 0.000000
    outer loop
      vertex 86.372829 -5.967131 24.000000
      vertex 85.145898 -5.706339 24.000000
      vertex 86.372829 -5.967131 3.000000
    endloop
  endfacet
  facet normal 0.000000 -1.000000 0.000000
    outer loop
      vertex 86.372829 -5.967131 24.000000
      vertex 86.372829 -5.967131 3.000000
      vertex 87.627171 -5.967131 3.000000
    endloop
  endfacet
  facet normal 0.000000 -1.000000 0.000000
    outer loop
      vertex 87.627171 -5.967131 24.000000
      vertex 86.372829 -5.967131 24.000000
      vertex 87.627171 -5.967131 3.000000
    endloop
  endfacet
  facet normal 0.207912 -0.978148 0.000000
    outer loop
      vertex 87.627171 -5.967131 24.000000
      vertex 87.627171 -5.967131 3.000000
      vertex 88.854102 -5.706339 3.000000
    endloop
  endfacet
  facet normal 0.207912 -0.978148 0.000000
    outer loop
      vertex 88.854102 -5.706339 24.000000
      vertex 87.627171 -5.967131 24.000000
      vertex 88.854102 -5.706339 3.000000
    endloop
  endfacet
  facet normal 0.406737 -0.913545 0.000000
    outer loop
      vertex 88.854102 -5.706339 24.000000
      vertex 88.854102 -5.706339 3.000000
      vertex 90.000000 -5.196152 3.000000
    endloop
  endfacet
  facet normal 0.406737 -0.913545 0.000000
    outer loop
      vertex 90.000000 -5.196152 24.000000
      vertex 88.854102 -5.706339 24.000000
      vertex 90.000000 -5.196152 3.000000
    endloop
  endfacet
  facet normal 0.587785 -0.809017 0.000000
    outer loop
      vertex 90.000000 -5.196152 24.000000
      vertex 90.000000 -5.196152 3.000000
      vertex 91.014784 -4.458869 3.000000
    endloop
  endfacet
  facet normal 0.587785 -0.809017 0.000000
    outer loop
      vertex 91.014784 -4.458869 24.000000
      vertex 90.000000 -5.196152 24.000000
      vertex 91.014784 -4.458869 3.000000
    endloop
  endfacet
  facet normal 0.743145 -0.669131 0.000000
    outer loop
      vertex 91.014784 -4.458869 24.000000
      vertex 91.014784 -4.458869 3.000000
      vertex 91.854102 -3.526712 3.000000
    endloop
  endfacet
  facet normal 0.743145 -0.669131 0.000000
    outer loop
      vertex 91.854102 -3.526712 24.000000
      vertex 91.014784 -4.458869 24.000000
      vertex 91.854102 -3.526712 3.000000
    endloop
  endfacet
  facet normal 0.866025 -0.500000 0.000000
    outer loop
      vertex 91.854102 -3.526712 24.000000
      vertex 91.854102 -3.526712 3.000000
      vertex 92.481273 -2.440420 3.000000
    endloop
  endfacet
  facet normal 0.866025 -0.500000 0.000000
    outer loop
      vertex 92.481273 -2.440420 24.000000
      vertex 91.854102 -3.526712 24.000000
      vertex 92.481273 -2.440420 3.000000
    endloop
  endfacet
  facet normal 0.951057 -0.309017 0.000000
    outer loop
      vertex 92.481273 -2.440420 24.000000
      vertex 92.481273 -2.440420 3.000000
      vertex 92.868886 -1.247470 3.000000
    endloop
  endfacet
  facet normal 0.951057 -0.309017 0.000000
    outer loop
      vertex 92.868886 -1.247470 24.000000
      vertex 92.481273 -2.440420 24.000000
      vertex 92.868886 -1.247470 3.000000
    endloop
  endfacet
  facet normal 0.994522 -0.104528 0.000000
    outer loop
      vertex 92.868886 -1.247470 24.000000
      vertex 92.868886 -1.247470 3.000000
      vertex 93.000000 0.000000 3.000000
    endloop
  endfacet
  facet normal 0.994522 -0.104528 0.000000
    outer loop
      vertex 93.000000 0.000000 24.000000
      vertex 92.868886 -1.247470 24.000000
      vertex 93.000000 0.000000 3.000000
    endloop
  endfacet
  facet normal 0.994522 0.104528 0.000000
    outer loop
      vertex 93.000000 0.000000 3.000000
      vertex 92.868886 1.247470 3.000000
      vertex 92.868886 1.247470 24.000000
    endloop
  endfacet
  facet normal 0.994522 0.104528 -0.000000
    outer loop
      vertex 93.000000 0.000000 24.000000
      vertex 93.000000 0.000000 3.000000
      vertex 92.868886 1.247470 24.000000
    endloop
  endfacet
  facet normal 0.951057 0.309017 0.000000
    outer loop
      vertex 92.868886 1.247470 3.000000
      vertex 92.481273 2.440420 3.000000
      vertex 92.481273 2.440420 24.000000
    endloop
  endfacet
  facet normal 0.951057 0.309017 -0.000000
    outer loop
      vertex 92.868886 1.247470 24.000000
      vertex 92.868886 1.247470 3.000000
      vertex 92.481273 2.440420 24.000000
    endloop
  endfacet
  facet normal 0.866025 0.500000 0.000000
    outer loop
      vertex 92.481273 2.440420 3.000000
      vertex 91.854102 3.526712 3.000000
      vertex 91.854102 3.526712 24.000000
    endloop
  endfacet
  facet normal 0.866025 0.500000 -0.000000
    outer loop
      vertex 92.481273 2.440420 24.000000
      vertex 92.481273 2.440420 3.000000
      vertex 91.854102 3.526712 24.000000
    endloop
  endfacet
  facet normal 0.743145 0.669131 0.000000
    outer loop
      vertex 91.854102 3.526712 3.000000
      vertex 91.014784 4.458869 3.000000
      vertex 91.014784 4.458869 24.000000
    endloop
  endfacet
  facet normal 0.743145 0.669131 -0.000000
    outer loop
      vertex 91.854102 3.526712 24.000000
      vertex 91.854102 3.526712 3.000000
      vertex 91.014784 4.458869 24.000000
    endloop
  endfacet
  facet normal 0.587785 0.809017 0.000000
    outer loop
      vertex 90.000000 5.196152 3.000000
      vertex 90.000000 5.196152 24.000000
      vertex 91.014784 4.458869 3.000000
    endloop
  endfacet
  facet normal 0.587785 0.809017 0.000000
    outer loop
      vertex 91.014784 4.458869 3.000000
      vertex 90.000000 5.196152 24.000000
      vertex 91.014784 4.458869 24.000000
    endloop
  endfacet
  facet normal 0.406737 0.913545 0.000000
    outer loop
      vertex 88.854102 5.706339 3.000000
      vertex 88.854102 5.706339 24.000000
      vertex 90.000000 5.196152 3.000000
    endloop
  endfacet
  facet normal 0.406737 0.913545 0.000000
    outer loop
      vertex 90.000000 5.196152 3.000000
      vertex 88.854102 5.706339 24.000000
      vertex 90.000000 5.196152 24.000000
    endloop
  endfacet
  facet normal 0.207912 0.978148 0.000000
    outer loop
      vertex 87.627171 5.967131 3.000000
      vertex 87.627171 5.967131 24.000000
      vertex 88.854102 5.706339 3.000000
    endloop
  endfacet
  facet normal 0.207912 0.978148 0.000000
    outer loop
      vertex 88.854102 5.706339 3.000000
      vertex 87.627171 5.967131 24.000000
      vertex 88.854102 5.706339 24.000000
    endloop
  endfacet
  facet normal 0.000000 1.000000 0.000000
    outer loop
      vertex 86.372829 5.967131 3.000000
      vertex 86.372829 5.967131 24.000000
      vertex 87.627171 5.967131 3.000000
    endloop
  endfacet
  facet normal 0.000000 1.000000 0.000000
    outer loop
      vertex 87.627171 5.967131 3.000000
      vertex 86.372829 5.967131 24.000000
      vertex 87.627171 5.967131 24.000000
    endloop
  endfacet
  facet normal -0.207912 0.978148 0.000000
    outer loop
      vertex 85.145898 5.706339 3.000000
      vertex 85.145898 5.706339 24.000000
      vertex 86.372829 5.967131 3.000000
    endloop
  endfacet
  facet normal -0.207912 0.978148 0.000000
    outer loop
      vertex 86.372829 5.967131 3.000000
      vertex 85.145898 5.706339 24.000000
      vertex 86.372829 5.967131 24.000000
    endloop
  endfacet
  facet normal -0.406737 0.913545 0.000000
    outer loop
      vertex 84.000000 5.196152 3.000000
      vertex 84.000000 5.196152 24.000000
      vertex 85.145898 5.706339 3.000000
    endloop
  endfacet
  facet normal -0.406737 0.913545 0.000000
    outer loop
      vertex 85.145898 5.706339 3.000000
      vertex 84.000000 5.196152 24.000000
      vertex 85.145898 5.706339 24.000000
    endloop
  endfacet
  facet normal -0.587785 0.809017 0.000000
    outer loop
      vertex 82.985216 4.458869 3.000000
      vertex 82.985216 4.458869 24.000000
      vertex 84.000000 5.196152 3.000000
    endloop
  endfacet
  facet normal -0.587785 0.809017 0.000000
    outer loop
      vertex 84.000000 5.196152 3.000000
      vertex 82.985216 4.458869 24.000000
      vertex 84.000000 5.196152 24.000000
    endloop
  endfacet
  facet normal -0.743145 0.669131 0.000000
    outer loop
      vertex 82.145898 3.526712 3.000000
      vertex 82.145898 3.526712 24.000000
      vertex 82.985216 4.458869 3.000000
    endloop
  endfacet
  facet normal -0.743145 0.669131 0.000000
    outer loop
      vertex 82.985216 4.458869 3.000000
      vertex 82.145898 3.526712 24.000000
      vertex 82.985216 4.458869 24.000000
    endloop
  endfacet
  facet normal -0.866025 0.500000 0.000000
    outer loop
      vertex 81.518727 2.440420 3.000000
      vertex 81.518727 2.440420 24.000000
      vertex 82.145898 3.526712 3.000000
    endloop
  endfacet
  facet normal -0.866025 0.500000 0.000000
    outer loop
      vertex 82.145898 3.526712 3.000000
      vertex 81.518727 2.440420 24.000000
      vertex 82.145898 3.526712 24.000000
    endloop
  endfacet
  facet normal -0.951057 0.309017 0.000000
    outer loop
      vertex 81.131114 1.247470 3.000000
      vertex 81.131114 1.247470 24.000000
      vertex 81.518727 2.440420 3.000000
    endloop
  endfacet
  facet normal -0.951057 0.309017 0.000000
    outer loop
      vertex 81.518727 2.440420 3.000000
      vertex 81.131114 1.247470 24.000000
      vertex 81.518727 2.440420 24.000000
    endloop
  endfacet
  facet normal -0.994522 0.104528 0.000000
    outer loop
      vertex 81.000000 0.000000 3.000000
      vertex 81.000000 0.000000 24.000000
      vertex 81.131114 1.247470 3.000000
    endloop
  endfacet
  facet normal -0.994522 0.104528 0.000000
    outer loop
      vertex 81.131114 1.247470 3.000000
      vertex 81.000000 0.000000 24.000000
      vertex 81.131114 1.247470 24.000000
    endloop
  endfacet
  facet normal 0.000000 0.000000 1.000000
    outer loop
      vertex 81.131114 1.247470 24.000000
      vertex 81.000000 0.000000 24.000000
      vertex 81.131114 -1.247470 24.000000
    endloop
  endfacet
  facet normal 0.000000 0.000000 1.000000
    outer loop
      vertex 82.145898 -3.526712 24.000000
      vertex 81.131114 1.247470 24.000000
      vertex 81.518727 -2.440420 24.000000
    endloop
  endfacet
  facet normal 0.000000 0.000000 1.000000
    outer loop
      vertex 81.518727 -2.440420 24.000000
      vertex 81.131114 1.247470 24.000000
      vertex 81.131114 -1.247470 24.000000
    endloop
  endfacet
  facet normal 0.000000 0.000000 1.000000
    outer loop
      vertex 82.985216 -4.458869 24.000000
      vertex 81.131114 1.247470 24.000000
      vertex 82.145898 -3.526712 24.000000
    endloop
  endfacet
  facet normal 0.000000 0.000000 1.000000
    outer loop
      vertex 84.000000 -5.196152 24.000000
      vertex 81.131114 1.247470 24.000000
      vertex 82.985216 -4.458869 24.000000
    endloop
  endfacet
  facet normal 0.000000 0.000000 1.000000
    outer loop
      vertex 85.145898 -5.706339 24.000000
      vertex 81.131114 1.247470 24.000000
      vertex 84.000000 -5.196152 24.000000
    endloop
  endfacet
  facet normal 0.000000 0.000000 1.000000
    outer loop
      vertex 86.372829 -5.967131 24.000000
      vertex 81.131114 1.247470 24.000000
      vertex 85.145898 -5.706339 24.000000
    endloop
  endfacet
  facet normal -0.000000 0.000000 1.000000
    outer loop
      vertex 87.627171 -5.967131 24.000000
      vertex 81.131114 1.247470 24.000000
      vertex 86.372829 -5.967131 24.000000
    endloop
  endfacet
  facet normal -0.000000 0.000000 1.000000
    outer loop
      vertex 88.854102 -5.706339 24.000000
      vertex 81.131114 1.247470 24.000000
      vertex 87.627171 -5.967131 24.000000
    endloop
  endfacet
  facet normal -0.000000 0.000000 1.000000
    outer loop
      vertex 90.000000 -5.196152 24.000000
      vertex 81.131114 1.247470 24.000000
      vertex 88.854102 -5.706339 24.000000
    endloop
  endfacet
  facet normal -0.000000 0.000000 1.000000
    outer loop
      vertex 91.014784 -4.458869 24.000000
      vertex 81.131114 1.247470 24.000000
      vertex 90.000000 -5.196152 24.000000
    endloop
  endfacet
  facet normal -0.000000 -0.000000 1.000000
    outer loop
      vertex 86.030154 -1.334878 24.000000
      vertex 81.131114 1.247470 24.000000
      vertex 91.014784 -4.458869 24.000000
    endloop
  endfacet
  facet normal 0.000000 0.000000 1.000000
    outer loop
      vertex 85.430757 -0.509878 24.000000
      vertex 85.350000 0.000000 24.000000
      vertex 81.131114 1.247470 24.000000
    endloop
  endfacet
  facet normal 0.000000 -0.000000 1.000000
    outer loop
      vertex 88.650000 0.000000 24.000000
      vertex 88.569243 -0.509878 24.000000
      vertex 92.868886 -1.247470 24.000000
    endloop
  endfacet
  facet normal 0.000000 0.000000 1.000000
    outer loop
      vertex 85.665122 0.969846 24.000000
      vertex 86.030154 1.334878 24.000000
      vertex 81.131114 1.247470 24.000000
    endloop
  endfacet
  facet normal 0.000000 -0.000000 1.000000
    outer loop
      vertex 91.854102 3.526712 24.000000
      vertex 81.131114 1.247470 24.000000
      vertex 92.481273 2.440420 24.000000
    endloop
  endfacet
  facet normal 0.000000 -0.000000 1.000000
    outer loop
      vertex 91.014784 4.458869 24.000000
      vertex 81.131114 1.247470 24.000000
      vertex 91.854102 3.526712 24.000000
    endloop
  endfacet
  facet normal 0.000000 -0.000000 1.000000
    outer loop
      vertex 90.000000 5.196152 24.000000
      vertex 81.131114 1.247470 24.000000
      vertex 91.014784 4.458869 24.000000
    endloop
  endfacet
  facet normal 0.000000 -0.000000 1.000000
    outer loop
      vertex 88.854102 5.706339 24.000000
      vertex 81.131114 1.247470 24.000000
      vertex 90.000000 5.196152 24.000000
    endloop
  endfacet
  facet normal 0.000000 -0.000000 1.000000
    outer loop
      vertex 87.627171 5.967131 24.000000
      vertex 81.131114 1.247470 24.000000
      vertex 88.854102 5.706339 24.000000
    endloop
  endfacet
  facet normal 0.000000 -0.000000 1.000000
    outer loop
      vertex 86.372829 5.967131 24.000000
      vertex 81.131114 1.247470 24.000000
      vertex 87.627171 5.967131 24.000000
    endloop
  endfacet
  facet normal 0.000000 -0.000000 1.000000
    outer loop
      vertex 85.145898 5.706339 24.000000
      vertex 81.131114 1.247470 24.000000
      vertex 86.372829 5.967131 24.000000
    endloop
  endfacet
  facet normal 0.000000 -0.000000 1.000000
    outer loop
      vertex 84.000000 5.196152 24.000000
      vertex 81.131114 1.247470 24.000000
      vertex 85.145898 5.706339 24.000000
    endloop
  endfacet
  facet normal 0.000000 -0.000000 1.000000
    outer loop
      vertex 82.985216 4.458869 24.000000
      vertex 81.131114 1.247470 24.000000
      vertex 84.000000 5.196152 24.000000
    endloop
  endfacet
  facet normal 0.000000 -0.000000 1.000000
    outer loop
      vertex 82.145898 3.526712 24.000000
      vertex 81.131114 1.247470 24.000000
      vertex 82.985216 4.458869 24.000000
    endloop
  endfacet
  facet normal 0.000000 -0.000000 1.000000
    outer loop
      vertex 81.518727 2.440420 24.000000
      vertex 81.131114 1.247470 24.000000
      vertex 82.145898 3.526712 24.000000
    endloop
  endfacet
  facet normal 0.000000 -0.000000 1.000000
    outer loop
      vertex 87.509878 -1.569243 24.000000
      vertex 87.000000 -1.650000 24.000000
      vertex 91.854102 -3.526712 24.000000
    endloop
  endfacet
  facet normal 0.000000 0.000000 1.000000
    outer loop
      vertex 86.030154 -1.334878 24.000000
      vertex 85.665122 -0.969846 24.000000
      vertex 81.131114 1.247470 24.000000
    endloop
  endfacet
  facet normal 0.000000 0.000000 1.000000
    outer loop
      vertex 85.430757 0.509878 24.000000
      vertex 85.665122 0.969846 24.000000
      vertex 81.131114 1.247470 24.000000
    endloop
  endfacet
  facet normal 0.000000 -0.000000 1.000000
    outer loop
      vertex 88.569243 -0.509878 24.000000
      vertex 88.334878 -0.969846 24.000000
      vertex 92.868886 -1.247470 24.000000
    endloop
  endfacet
  facet normal 0.000000 0.000000 1.000000
    outer loop
      vertex 87.000000 1.650000 24.000000
      vertex 87.509878 1.569243 24.000000
      vertex 92.481273 2.440420 24.000000
    endloop
  endfacet
  facet normal 0.000000 0.000000 1.000000
    outer loop
      vertex 88.569243 0.509878 24.000000
      vertex 88.650000 0.000000 24.000000
      vertex 93.000000 0.000000 24.000000
    endloop
  endfacet
  facet normal 0.000000 -0.000000 1.000000
    outer loop
      vertex 88.334878 -0.969846 24.000000
      vertex 87.969846 -1.334878 24.000000
      vertex 92.481273 -2.440420 24.000000
    endloop
  endfacet
  facet normal 0.000000 0.000000 1.000000
    outer loop
      vertex 86.490122 1.569243 24.000000
      vertex 81.131114 1.247470 24.000000
      vertex 86.030154 1.334878 24.000000
    endloop
  endfacet
  facet normal 0.000000 0.000000 1.000000
    outer loop
      vertex 87.000000 1.650000 24.000000
      vertex 81.131114 1.247470 24.000000
      vertex 86.490122 1.569243 24.000000
    endloop
  endfacet
  facet normal 0.000000 0.000000 1.000000
    outer loop
      vertex 87.969846 1.334878 24.000000
      vertex 88.334878 0.969846 24.000000
      vertex 92.868886 1.247470 24.000000
    endloop
  endfacet
  facet normal 0.000000 0.000000 1.000000
    outer loop
      vertex 92.481273 2.440420 24.000000
      vertex 81.131114 1.247470 24.000000
      vertex 87.000000 1.650000 24.000000
    endloop
  endfacet
  facet normal 0.000000 -0.000000 1.000000
    outer loop
      vertex 92.481273 2.440420 24.000000
      vertex 87.509878 1.569243 24.000000
      vertex 92.868886 1.247470 24.000000
    endloop
  endfacet
  facet normal 0.000000 0.000000 1.000000
    outer loop
      vertex 87.509878 1.569243 24.000000
      vertex 87.969846 1.334878 24.000000
      vertex 92.868886 1.247470 24.000000
    endloop
  endfacet
  facet normal 0.000000 -0.000000 1.000000
    outer loop
      vertex 92.868886 1.247470 24.000000
      vertex 88.334878 0.969846 24.000000
      vertex 93.000000 0.000000 24.000000
    endloop
  endfacet
  facet normal 0.000000 0.000000 1.000000
    outer loop
      vertex 88.334878 0.969846 24.000000
      vertex 88.569243 0.509878 24.000000
      vertex 93.000000 0.000000 24.000000
    endloop
  endfacet
  facet normal 0.000000 0.000000 1.000000
    outer loop
      vertex 93.000000 0.000000 24.000000
      vertex 88.650000 0.000000 24.000000
      vertex 92.868886 -1.247470 24.000000
    endloop
  endfacet
  facet normal -0.000000 0.000000 1.000000
    outer loop
      vertex 92.868886 -1.247470 24.000000
      vertex 88.334878 -0.969846 24.000000
      vertex 92.481273 -2.440420 24.000000
    endloop
  endfacet
  facet normal -0.000000 0.000000 1.000000
    outer loop
      vertex 92.481273 -2.440420 24.000000
      vertex 87.969846 -1.334878 24.000000
      vertex 91.854102 -3.526712 24.000000
    endloop
  endfacet
  facet normal 0.000000 -0.000000 1.000000
    outer loop
      vertex 87.969846 -1.334878 24.000000
      vertex 87.509878 -1.569243 24.000000
      vertex 91.854102 -3.526712 24.000000
    endloop
  endfacet
  facet normal -0.000000 0.000000 1.000000
    outer loop
      vertex 91.854102 -3.526712 24.000000
      vertex 87.000000 -1.650000 24.000000
      vertex 91.014784 -4.458869 24.000000
    endloop
  endfacet
  facet normal -0.000000 -0.000000 1.000000
    outer loop
      vertex 87.000000 -1.650000 24.000000
      vertex 86.490122 -1.569243 24.000000
      vertex 91.014784 -4.458869 24.000000
    endloop
  endfacet
  facet normal -0.000000 -0.000000 1.000000
    outer loop
      vertex 86.490122 -1.569243 24.000000
      vertex 86.030154 -1.334878 24.000000
      vertex 91.014784 -4.458869 24.000000
    endloop
  endfacet
  facet normal 0.000000 0.000000 1.000000
    outer loop
      vertex 85.350000 0.000000 24.000000
      vertex 85.430757 0.509878 24.000000
      vertex 81.131114 1.247470 24.000000
    endloop
  endfacet
  facet normal 0.000000 0.000000 1.000000
    outer loop
      vertex 85.665122 -0.969846 24.000000
      vertex 85.430757 -0.509878 24.000000
      vertex 81.131114 1.247470 24.000000
    endloop
  endfacet
endsolid OpenSCAD_Model
