solid OpenSCAD_Model
  facet normal -1.000000 -0.000000 -0.000000
    outer loop
      vertex -13.000000 -10.000000 -3.000000
      vertex -13.000000 -10.000000 3.000000
      vertex -13.000000 10.000000 -3.000000
    endloop
  endfacet
  facet normal -1.000000 0.000000 0.000000
    outer loop
      vertex -13.000000 10.000000 -3.000000
      vertex -13.000000 -10.000000 3.000000
      vertex -13.000000 10.000000 3.000000
    endloop
  endfacet
  facet normal 0.000000 -1.000000 0.000000
    outer loop
      vertex -13.000000 -10.000000 3.000000
      vertex -13.000000 -10.000000 -3.000000
      vertex 54.005946 -10.000000 -3.000000
    endloop
  endfacet
  facet normal 0.000000 -1.000000 0.000000
    outer loop
      vertex 54.005946 -10.000000 3.000000
      vertex -13.000000 -10.000000 3.000000
      vertex 54.005946 -10.000000 -3.000000
    endloop
  endfacet
  facet normal 0.000000 -0.000000 -1.000000
    outer loop
      vertex -13.000000 -10.000000 -3.000000
      vertex -13.000000 10.000000 -3.000000
      vertex -4.500000 0.000000 -3.000000
    endloop
  endfacet
  facet normal 0.000000 0.000000 -1.000000
    outer loop
      vertex -4.401664 -0.935603 -3.000000
      vertex -4.500000 0.000000 -3.000000
      vertex -4.401664 0.000000 -3.000000
    endloop
  endfacet
  facet normal 0.000000 0.000000 -1.000000
    outer loop
      vertex -13.000000 -10.000000 -3.000000
      vertex -4.500000 0.000000 -3.000000
      vertex -4.401664 -0.935603 -3.000000
    endloop
  endfacet
  facet normal 0.000000 0.000000 -1.000000
    outer loop
      vertex -13.000000 -10.000000 -3.000000
      vertex -4.401664 -0.935603 -3.000000
      vertex -3.640576 -2.645034 -3.000000
    endloop
  endfacet
  facet normal 0.000000 0.000000 -1.000000
    outer loop
      vertex -13.000000 -10.000000 -3.000000
      vertex -3.640576 -2.645034 -3.000000
      vertex -2.250000 -3.897114 -3.000000
    endloop
  endfacet
  facet normal 0.000000 0.000000 -1.000000
    outer loop
      vertex -13.000000 -10.000000 -3.000000
      vertex -2.250000 -3.897114 -3.000000
      vertex -0.470378 -4.475349 -3.000000
    endloop
  endfacet
  facet normal -0.000000 0.000000 -1.000000
    outer loop
      vertex -13.000000 -10.000000 -3.000000
      vertex -0.470378 -4.475349 -3.000000
      vertex 54.005946 -10.000000 -3.000000
    endloop
  endfacet
  facet normal 0.000000 0.000000 -1.000000
    outer loop
      vertex 3.011088 -3.344152 -3.000000
      vertex 54.005946 -10.000000 -3.000000
      vertex 1.390576 -4.279754 -3.000000
    endloop
  endfacet
  facet normal 0.000000 0.000000 -1.000000
    outer loop
      vertex 4.110955 -1.830315 -3.000000
      vertex 54.005946 -10.000000 -3.000000
      vertex 3.011088 -3.344152 -3.000000
    endloop
  endfacet
  facet normal 0.000000 0.000000 -1.000000
    outer loop
      vertex 1.390576 -4.279754 -3.000000
      vertex 54.005946 -10.000000 -3.000000
      vertex -0.470378 -4.475349 -3.000000
    endloop
  endfacet
  facet normal 0.000000 0.000000 -1.000000
    outer loop
      vertex 4.500000 0.000000 -3.000000
      vertex 54.005946 -10.000000 -3.000000
      vertex 4.110955 -1.830315 -3.000000
    endloop
  endfacet
  facet normal 0.000000 0.000000 -1.000000
    outer loop
      vertex 4.500000 10.000000 -3.000000
      vertex 54.005946 -10.000000 -3.000000
      vertex 4.500000 0.000000 -3.000000
    endloop
  endfacet
  facet normal -0.000000 0.000000 -1.000000
    outer loop
      vertex 63.005946 -0.000000 -3.000000
      vertex 94.000000 10.000000 -3.000000
      vertex 63.005946 -10.000000 -3.000000
    endloop
  endfacet
  facet normal 0.000000 -0.000000 -1.000000
    outer loop
      vertex 58.976324 4.475349 -3.000000
      vertex 4.500000 10.000000 -3.000000
      vertex 94.000000 10.000000 -3.000000
    endloop
  endfacet
  facet normal -0.000000 0.000000 -1.000000
    outer loop
      vertex 88.375329 -0.999235 -3.000000
      vertex 94.000000 10.000000 -3.000000
      vertex 94.000000 -10.000000 -3.000000
    endloop
  endfacet
  facet normal 0.000000 0.000000 -1.000000
    outer loop
      vertex 62.907610 0.935603 -3.000000
      vertex 63.005946 -0.000000 -3.000000
      vertex 62.907610 -0.000000 -3.000000
    endloop
  endfacet
  facet normal 0.000000 0.000000 -1.000000
    outer loop
      vertex 86.474671 -1.616796 -3.000000
      vertex 94.000000 -10.000000 -3.000000
      vertex 86.000765 -1.375329 -3.000000
    endloop
  endfacet
  facet normal 0.000000 -0.000000 -1.000000
    outer loop
      vertex 54.005946 0.000000 -3.000000
      vertex 4.500000 10.000000 -3.000000
      vertex 54.394991 1.830315 -3.000000
    endloop
  endfacet
  facet normal 0.000000 -0.000000 -1.000000
    outer loop
      vertex 63.005946 -0.000000 -3.000000
      vertex 62.907610 0.935603 -3.000000
      vertex 94.000000 10.000000 -3.000000
    endloop
  endfacet
  facet normal 0.000000 -0.000000 -1.000000
    outer loop
      vertex 54.394991 1.830315 -3.000000
      vertex 4.500000 10.000000 -3.000000
      vertex 55.494858 3.344152 -3.000000
    endloop
  endfacet
  facet normal 0.000000 -0.000000 -1.000000
    outer loop
      vertex 62.907610 0.935603 -3.000000
      vertex 62.146522 2.645034 -3.000000
      vertex 94.000000 10.000000 -3.000000
    endloop
  endfacet
  facet normal 0.000000 -0.000000 -1.000000
    outer loop
      vertex 55.494858 3.344152 -3.000000
      vertex 4.500000 10.000000 -3.000000
      vertex 57.115370 4.279754 -3.000000
    endloop
  endfacet
  facet normal 0.000000 -0.000000 -1.000000
    outer loop
      vertex 62.146522 2.645034 -3.000000
      vertex 60.755946 3.897114 -3.000000
      vertex 94.000000 10.000000 -3.000000
    endloop
  endfacet
  facet normal 0.000000 -0.000000 -1.000000
    outer loop
      vertex 60.755946 3.897114 -3.000000
      vertex 58.976324 4.475349 -3.000000
      vertex 94.000000 10.000000 -3.000000
    endloop
  endfacet
  facet normal 0.000000 -0.000000 -1.000000
    outer loop
      vertex 57.115370 4.279754 -3.000000
      vertex 4.500000 10.000000 -3.000000
      vertex 58.976324 4.475349 -3.000000
    endloop
  endfacet
  facet normal 0.000000 -0.000000 -1.000000
    outer loop
      vertex 54.005946 -10.000000 -3.000000
      vertex 4.500000 10.000000 -3.000000
      vertex 54.005946 0.000000 -3.000000
    endloop
  endfacet
  facet normal 0.000000 0.000000 -1.000000
    outer loop
      vertex 63.005946 -10.000000 -3.000000
      vertex 85.300000 0.000000 -3.000000
      vertex 85.383204 -0.525329 -3.000000
    endloop
  endfacet
  facet normal 0.000000 0.000000 -1.000000
    outer loop
      vertex 63.005946 -10.000000 -3.000000
      vertex 85.383204 -0.525329 -3.000000
      vertex 85.624671 -0.999235 -3.000000
    endloop
  endfacet
  facet normal -0.000000 0.000000 -1.000000
    outer loop
      vertex 63.005946 -10.000000 -3.000000
      vertex 85.624671 -0.999235 -3.000000
      vertex 94.000000 -10.000000 -3.000000
    endloop
  endfacet
  facet normal 0.000000 0.000000 -1.000000
    outer loop
      vertex 85.624671 -0.999235 -3.000000
      vertex 86.000765 -1.375329 -3.000000
      vertex 94.000000 -10.000000 -3.000000
    endloop
  endfacet
  facet normal 0.000000 0.000000 -1.000000
    outer loop
      vertex 87.000000 -1.700000 -3.000000
      vertex 94.000000 -10.000000 -3.000000
      vertex 86.474671 -1.616796 -3.000000
    endloop
  endfacet
  facet normal 0.000000 0.000000 -1.000000
    outer loop
      vertex 86.474671 1.616796 -3.000000
      vertex 94.000000 10.000000 -3.000000
      vertex 87.000000 1.700000 -3.000000
    endloop
  endfacet
  facet normal -0.000000 0.000000 -1.000000
    outer loop
      vertex 88.700000 0.000000 -3.000000
      vertex 94.000000 10.000000 -3.000000
      vertex 88.616796 -0.525329 -3.000000
    endloop
  endfacet
  facet normal -0.000000 0.000000 -1.000000
    outer loop
      vertex 88.375329 0.999235 -3.000000
      vertex 94.000000 10.000000 -3.000000
      vertex 88.616796 0.525329 -3.000000
    endloop
  endfacet
  facet normal -0.000000 0.000000 -1.000000
    outer loop
      vertex 87.000000 -1.700000 -3.000000
      vertex 87.525329 -1.616796 -3.000000
      vertex 94.000000 -10.000000 -3.000000
    endloop
  endfacet
  facet normal -0.000000 0.000000 -1.000000
    outer loop
      vertex 88.616796 0.525329 -3.000000
      vertex 94.000000 10.000000 -3.000000
      vertex 88.700000 0.000000 -3.000000
    endloop
  endfacet
  facet normal -0.000000 0.000000 -1.000000
    outer loop
      vertex 87.525329 -1.616796 -3.000000
      vertex 87.999235 -1.375329 -3.000000
      vertex 94.000000 -10.000000 -3.000000
    endloop
  endfacet
  facet normal -0.000000 0.000000 -1.000000
    outer loop
      vertex 88.616796 -0.525329 -3.000000
      vertex 94.000000 10.000000 -3.000000
      vertex 88.375329 -0.999235 -3.000000
    endloop
  endfacet
  facet normal -0.000000 0.000000 -1.000000
    outer loop
      vertex 87.999235 -1.375329 -3.000000
      vertex 88.375329 -0.999235 -3.000000
      vertex 94.000000 -10.000000 -3.000000
    endloop
  endfacet
  facet normal -0.000000 0.000000 -1.000000
    outer loop
      vertex 87.999235 1.375329 -3.000000
      vertex 94.000000 10.000000 -3.000000
      vertex 88.375329 0.999235 -3.000000
    endloop
  endfacet
  facet normal -0.000000 0.000000 -1.000000
    outer loop
      vertex 87.525329 1.616796 -3.000000
      vertex 94.000000 10.000000 -3.000000
      vertex 87.999235 1.375329 -3.000000
    endloop
  endfacet
  facet normal -0.000000 0.000000 -1.000000
    outer loop
      vertex 87.000000 1.700000 -3.000000
      vertex 94.000000 10.000000 -3.000000
      vertex 87.525329 1.616796 -3.000000
    endloop
  endfacet
  facet normal 0.000000 0.000000 -1.000000
    outer loop
      vertex 63.005946 -10.000000 -3.000000
      vertex 94.000000 10.000000 -3.000000
      vertex 86.474671 1.616796 -3.000000
    endloop
  endfacet
  facet normal 0.000000 0.000000 -1.000000
    outer loop
      vertex 63.005946 -10.000000 -3.000000
      vertex 86.474671 1.616796 -3.000000
      vertex 86.000765 1.375329 -3.000000
    endloop
  endfacet
  facet normal 0.000000 0.000000 -1.000000
    outer loop
      vertex 63.005946 -10.000000 -3.000000
      vertex 86.000765 1.375329 -3.000000
      vertex 85.624671 0.999235 -3.000000
    endloop
  endfacet
  facet normal 0.000000 0.000000 -1.000000
    outer loop
      vertex 63.005946 -10.000000 -3.000000
      vertex 85.624671 0.999235 -3.000000
      vertex 85.383204 0.525329 -3.000000
    endloop
  endfacet
  facet normal 0.000000 0.000000 -1.000000
    outer loop
      vertex 63.005946 -10.000000 -3.000000
      vertex 85.383204 0.525329 -3.000000
      vertex 85.300000 0.000000 -3.000000
    endloop
  endfacet
  facet normal 0.000000 0.000000 -1.000000
    outer loop
      vertex -4.500000 0.000000 -3.000000
      vertex -13.000000 10.000000 -3.000000
      vertex -4.500000 10.000000 -3.000000
    endloop
  endfacet
  facet normal 0.000000 1.000000 0.000000
    outer loop
      vertex -13.000000 10.000000 -3.000000
      vertex -13.000000 10.000000 3.000000
      vertex -4.500000 10.000000 -3.000000
    endloop
  endfacet
  facet normal 0.000000 1.000000 0.000000
    outer loop
      vertex -4.500000 10.000000 -3.000000
      vertex -13.000000 10.000000 3.000000
      vertex -4.500000 10.000000 3.000000
    endloop
  endfacet
  facet normal 0.000000 -0.000000 1.000000
    outer loop
      vertex 1.390576 -4.279754 3.000000
      vertex -13.000000 -10.000000 3.000000
      vertex 54.005946 -10.000000 3.000000
    endloop
  endfacet
  facet normal 0.000000 0.000000 1.000000
    outer loop
      vertex -4.500000 0.000000 3.000000
      vertex -4.500000 10.000000 3.000000
      vertex -13.000000 10.000000 3.000000
    endloop
  endfacet
  facet normal 0.000000 0.000000 1.000000
    outer loop
      vertex 1.390576 -4.279754 3.000000
      vertex -0.470378 -4.475349 3.000000
      vertex -13.000000 -10.000000 3.000000
    endloop
  endfacet
  facet normal 0.000000 0.000000 1.000000
    outer loop
      vertex 94.000000 10.000000 3.000000
      vertex 58.976324 4.475349 3.000000
      vertex 60.755946 3.897114 3.000000
    endloop
  endfacet
  facet normal 0.000000 0.000000 1.000000
    outer loop
      vertex 94.000000 -10.000000 3.000000
      vertex 60.755946 3.897114 3.000000
      vertex 62.146522 2.645034 3.000000
    endloop
  endfacet
  facet normal 0.000000 0.000000 1.000000
    outer loop
      vertex 94.000000 -10.000000 3.000000
      vertex 62.146522 2.645034 3.000000
      vertex 62.907610 0.935603 3.000000
    endloop
  endfacet
  facet normal 0.000000 0.000000 1.000000
    outer loop
      vertex 63.005946 -0.000000 3.000000
      vertex 62.907610 0.935603 3.000000
      vertex 62.907610 -0.000000 3.000000
    endloop
  endfacet
  facet normal 0.000000 0.000000 1.000000
    outer loop
      vertex 94.000000 -10.000000 3.000000
      vertex 62.907610 0.935603 3.000000
      vertex 63.005946 -0.000000 3.000000
    endloop
  endfacet
  facet normal -0.000000 0.000000 1.000000
    outer loop
      vertex 94.000000 -10.000000 3.000000
      vertex 63.005946 -0.000000 3.000000
      vertex 63.005946 -10.000000 3.000000
    endloop
  endfacet
  facet normal -0.000000 -0.000000 1.000000
    outer loop
      vertex 85.145898 -5.706339 3.000000
      vertex 60.755946 3.897114 3.000000
      vertex 94.000000 -10.000000 3.000000
    endloop
  endfacet
  facet normal 0.000000 0.000000 1.000000
    outer loop
      vertex 94.000000 10.000000 3.000000
      vertex 4.500000 10.000000 3.000000
      vertex 58.976324 4.475349 3.000000
    endloop
  endfacet
  facet normal 0.000000 -0.000000 1.000000
    outer loop
      vertex 4.500000 0.000000 3.000000
      vertex 4.110955 -1.830315 3.000000
      vertex 54.005946 -10.000000 3.000000
    endloop
  endfacet
  facet normal 0.000000 -0.000000 1.000000
    outer loop
      vertex 4.110955 -1.830315 3.000000
      vertex 3.011088 -3.344152 3.000000
      vertex 54.005946 -10.000000 3.000000
    endloop
  endfacet
  facet normal 0.000000 -0.000000 1.000000
    outer loop
      vertex 3.011088 -3.344152 3.000000
      vertex 1.390576 -4.279754 3.000000
      vertex 54.005946 -10.000000 3.000000
    endloop
  endfacet
  facet normal -0.000000 0.000000 1.000000
    outer loop
      vertex -0.470378 -4.475349 3.000000
      vertex -2.250000 -3.897114 3.000000
      vertex -13.000000 -10.000000 3.000000
    endloop
  endfacet
  facet normal -0.000000 0.000000 1.000000
    outer loop
      vertex -2.250000 -3.897114 3.000000
      vertex -3.640576 -2.645034 3.000000
      vertex -13.000000 -10.000000 3.000000
    endloop
  endfacet
  facet normal 0.000000 -0.000000 1.000000
    outer loop
      vertex -13.000000 10.000000 3.000000
      vertex -13.000000 -10.000000 3.000000
      vertex -3.640576 -2.645034 3.000000
    endloop
  endfacet
  facet normal 0.000000 0.000000 1.000000
    outer loop
      vertex -13.000000 10.000000 3.000000
      vertex -3.640576 -2.645034 3.000000
      vertex -4.401664 -0.935603 3.000000
    endloop
  endfacet
  facet normal 0.000000 0.000000 1.000000
    outer loop
      vertex 85.145898 5.706339 3.000000
      vertex 86.372829 5.967131 3.000000
      vertex 94.000000 10.000000 3.000000
    endloop
  endfacet
  facet normal 0.000000 0.000000 1.000000
    outer loop
      vertex -4.500000 0.000000 3.000000
      vertex -4.401664 -0.935603 3.000000
      vertex -4.401664 0.000000 3.000000
    endloop
  endfacet
  facet normal 0.000000 0.000000 1.000000
    outer loop
      vertex 86.372829 5.967131 3.000000
      vertex 87.627171 5.967131 3.000000
      vertex 94.000000 10.000000 3.000000
    endloop
  endfacet
  facet normal 0.000000 0.000000 1.000000
    outer loop
      vertex -13.000000 10.000000 3.000000
      vertex -4.401664 -0.935603 3.000000
      vertex -4.500000 0.000000 3.000000
    endloop
  endfacet
  facet normal 0.000000 0.000000 1.000000
    outer loop
      vertex 84.000000 -5.196152 3.000000
      vertex 82.985216 -4.458869 3.000000
      vertex 60.755946 3.897114 3.000000
    endloop
  endfacet
  facet normal -0.000000 -0.000000 1.000000
    outer loop
      vertex 81.000000 0.000000 3.000000
      vertex 60.755946 3.897114 3.000000
      vertex 81.131114 -1.247470 3.000000
    endloop
  endfacet
  facet normal -0.000000 0.000000 1.000000
    outer loop
      vertex 81.131114 1.247470 3.000000
      vertex 60.755946 3.897114 3.000000
      vertex 81.000000 0.000000 3.000000
    endloop
  endfacet
  facet normal 0.000000 0.000000 1.000000
    outer loop
      vertex 88.854102 5.706339 3.000000
      vertex 90.000000 5.196152 3.000000
      vertex 94.000000 10.000000 3.000000
    endloop
  endfacet
  facet normal -0.000000 0.000000 1.000000
    outer loop
      vertex 81.518727 2.440420 3.000000
      vertex 60.755946 3.897114 3.000000
      vertex 81.131114 1.247470 3.000000
    endloop
  endfacet
  facet normal -0.000000 0.000000 1.000000
    outer loop
      vertex 82.145898 3.526712 3.000000
      vertex 60.755946 3.897114 3.000000
      vertex 81.518727 2.440420 3.000000
    endloop
  endfacet
  facet normal 0.000000 0.000000 1.000000
    outer loop
      vertex 82.985216 4.458869 3.000000
      vertex 60.755946 3.897114 3.000000
      vertex 82.145898 3.526712 3.000000
    endloop
  endfacet
  facet normal 0.000000 0.000000 1.000000
    outer loop
      vertex 84.000000 5.196152 3.000000
      vertex 60.755946 3.897114 3.000000
      vertex 82.985216 4.458869 3.000000
    endloop
  endfacet
  facet normal 0.000000 0.000000 1.000000
    outer loop
      vertex 94.000000 10.000000 3.000000
      vertex 60.755946 3.897114 3.000000
      vertex 84.000000 5.196152 3.000000
    endloop
  endfacet
  facet normal 0.000000 0.000000 1.000000
    outer loop
      vertex 94.000000 10.000000 3.000000
      vertex 84.000000 5.196152 3.000000
      vertex 85.145898 5.706339 3.000000
    endloop
  endfacet
  facet normal 0.000000 0.000000 1.000000
    outer loop
      vertex 87.627171 5.967131 3.000000
      vertex 88.854102 5.706339 3.000000
      vertex 94.000000 10.000000 3.000000
    endloop
  endfacet
  facet normal 0.000000 -0.000000 1.000000
    outer loop
      vertex 93.000000 0.000000 3.000000
      vertex 92.868886 -1.247470 3.000000
      vertex 94.000000 -10.000000 3.000000
    endloop
  endfacet
  facet normal 0.000000 -0.000000 1.000000
    outer loop
      vertex 88.854102 -5.706339 3.000000
      vertex 87.627171 -5.967131 3.000000
      vertex 94.000000 -10.000000 3.000000
    endloop
  endfacet
  facet normal 0.000000 0.000000 1.000000
    outer loop
      vertex 94.000000 10.000000 3.000000
      vertex 90.000000 5.196152 3.000000
      vertex 91.014784 4.458869 3.000000
    endloop
  endfacet
  facet normal 0.000000 0.000000 1.000000
    outer loop
      vertex 94.000000 10.000000 3.000000
      vertex 91.014784 4.458869 3.000000
      vertex 91.854102 3.526712 3.000000
    endloop
  endfacet
  facet normal 0.000000 -0.000000 1.000000
    outer loop
      vertex 92.868886 -1.247470 3.000000
      vertex 92.481273 -2.440420 3.000000
      vertex 94.000000 -10.000000 3.000000
    endloop
  endfacet
  facet normal 0.000000 0.000000 1.000000
    outer loop
      vertex 94.000000 10.000000 3.000000
      vertex 91.854102 3.526712 3.000000
      vertex 92.481273 2.440420 3.000000
    endloop
  endfacet
  facet normal 0.000000 -0.000000 1.000000
    outer loop
      vertex 92.481273 -2.440420 3.000000
      vertex 91.854102 -3.526712 3.000000
      vertex 94.000000 -10.000000 3.000000
    endloop
  endfacet
  facet normal 0.000000 0.000000 1.000000
    outer loop
      vertex 94.000000 10.000000 3.000000
      vertex 92.481273 2.440420 3.000000
      vertex 92.868886 1.247470 3.000000
    endloop
  endfacet
  facet normal 0.000000 0.000000 1.000000
    outer loop
      vertex 94.000000 10.000000 3.000000
      vertex 93.000000 0.000000 3.000000
      vertex 94.000000 -10.000000 3.000000
    endloop
  endfacet
  facet normal 0.000000 0.000000 1.000000
    outer loop
      vertex 94.000000 10.000000 3.000000
      vertex 92.868886 1.247470 3.000000
      vertex 93.000000 0.000000 3.000000
    endloop
  endfacet
  facet normal 0.000000 -0.000000 1.000000
    outer loop
      vertex 91.854102 -3.526712 3.000000
      vertex 91.014784 -4.458869 3.000000
      vertex 94.000000 -10.000000 3.000000
    endloop
  endfacet
  facet normal 0.000000 -0.000000 1.000000
    outer loop
      vertex 91.014784 -4.458869 3.000000
      vertex 90.000000 -5.196152 3.000000
      vertex 94.000000 -10.000000 3.000000
    endloop
  endfacet
  facet normal 0.000000 -0.000000 1.000000
    outer loop
      vertex 90.000000 -5.196152 3.000000
      vertex 88.854102 -5.706339 3.000000
      vertex 94.000000 -10.000000 3.000000
    endloop
  endfacet
  facet normal 0.000000 -0.000000 1.000000
    outer loop
      vertex 87.627171 -5.967131 3.000000
      vertex 86.372829 -5.967131 3.000000
      vertex 94.000000 -10.000000 3.000000
    endloop
  endfacet
  facet normal -0.000000 -0.000000 1.000000
    outer loop
      vertex 86.372829 -5.967131 3.000000
      vertex 85.145898 -5.706339 3.000000
      vertex 94.000000 -10.000000 3.000000
    endloop
  endfacet
  facet normal -0.000000 -0.000000 1.000000
    outer loop
      vertex 84.000000 -5.196152 3.000000
      vertex 60.755946 3.897114 3.000000
      vertex 85.145898 -5.706339 3.000000
    endloop
  endfacet
  facet normal 0.000000 0.000000 1.000000
    outer loop
      vertex 82.985216 -4.458869 3.000000
      vertex 82.145898 -3.526712 3.000000
      vertex 60.755946 3.897114 3.000000
    endloop
  endfacet
  facet normal -0.000000 -0.000000 1.000000
    outer loop
      vertex 81.518727 -2.440420 3.000000
      vertex 60.755946 3.897114 3.000000
      vertex 82.145898 -3.526712 3.000000
    endloop
  endfacet
  facet normal -0.000000 -0.000000 1.000000
    outer loop
      vertex 81.131114 -1.247470 3.000000
      vertex 60.755946 3.897114 3.000000
      vertex 81.518727 -2.440420 3.000000
    endloop
  endfacet
  facet normal 0.000000 0.000000 1.000000
    outer loop
      vertex 4.500000 10.000000 3.000000
      vertex 57.115370 4.279754 3.000000
      vertex 58.976324 4.475349 3.000000
    endloop
  endfacet
  facet normal 0.000000 0.000000 1.000000
    outer loop
      vertex 4.500000 10.000000 3.000000
      vertex 55.494858 3.344152 3.000000
      vertex 57.115370 4.279754 3.000000
    endloop
  endfacet
  facet normal 0.000000 0.000000 1.000000
    outer loop
      vertex 4.500000 10.000000 3.000000
      vertex 54.394991 1.830315 3.000000
      vertex 55.494858 3.344152 3.000000
    endloop
  endfacet
  facet normal 0.000000 0.000000 1.000000
    outer loop
      vertex 4.500000 10.000000 3.000000
      vertex 54.005946 0.000000 3.000000
      vertex 54.394991 1.830315 3.000000
    endloop
  endfacet
  facet normal 0.000000 0.000000 1.000000
    outer loop
      vertex 4.500000 10.000000 3.000000
      vertex 54.005946 -10.000000 3.000000
      vertex 54.005946 0.000000 3.000000
    endloop
  endfacet
  facet normal 0.000000 -0.000000 1.000000
    outer loop
      vertex 4.500000 10.000000 3.000000
      vertex 4.500000 0.000000 3.000000
      vertex 54.005946 -10.000000 3.000000
    endloop
  endfacet
  facet normal 1.000000 -0.000000 0.000000
    outer loop
      vertex 54.005946 0.000000 -3.000000
      vertex 54.005946 0.000000 3.000000
      vertex 54.005946 -10.000000 3.000000
    endloop
  endfacet
  facet normal 1.000000 -0.000000 0.000000
    outer loop
      vertex 54.005946 -10.000000 -3.000000
      vertex 54.005946 0.000000 -3.000000
      vertex 54.005946 -10.000000 3.000000
    endloop
  endfacet
  facet normal 0.978148 -0.207911 0.000000
    outer loop
      vertex 54.394991 1.830315 -3.000000
      vertex 54.394991 1.830315 3.000000
      vertex 54.005946 0.000000 3.000000
    endloop
  endfacet
  facet normal 0.978148 -0.207911 0.000000
    outer loop
      vertex 54.005946 0.000000 -3.000000
      vertex 54.394991 1.830315 -3.000000
      vertex 54.005946 0.000000 3.000000
    endloop
  endfacet
  facet normal 0.809017 -0.587785 0.000000
    outer loop
      vertex 55.494858 3.344152 -3.000000
      vertex 55.494858 3.344152 3.000000
      vertex 54.394991 1.830315 3.000000
    endloop
  endfacet
  facet normal 0.809017 -0.587785 0.000000
    outer loop
      vertex 54.394991 1.830315 -3.000000
      vertex 55.494858 3.344152 -3.000000
      vertex 54.394991 1.830315 3.000000
    endloop
  endfacet
  facet normal 0.500000 -0.866026 0.000000
    outer loop
      vertex 57.115370 4.279754 -3.000000
      vertex 57.115370 4.279754 3.000000
      vertex 55.494858 3.344152 3.000000
    endloop
  endfacet
  facet normal 0.500000 -0.866026 0.000000
    outer loop
      vertex 55.494858 3.344152 -3.000000
      vertex 57.115370 4.279754 -3.000000
      vertex 55.494858 3.344152 3.000000
    endloop
  endfacet
  facet normal 0.104529 -0.994522 0.000000
    outer loop
      vertex 58.976324 4.475349 -3.000000
      vertex 58.976324 4.475349 3.000000
      vertex 57.115370 4.279754 3.000000
    endloop
  endfacet
  facet normal 0.104529 -0.994522 0.000000
    outer loop
      vertex 57.115370 4.279754 -3.000000
      vertex 58.976324 4.475349 -3.000000
      vertex 57.115370 4.279754 3.000000
    endloop
  endfacet
  facet normal -0.309017 -0.951056 -0.000000
    outer loop
      vertex 60.755946 3.897114 -3.000000
      vertex 60.755946 3.897114 3.000000
      vertex 58.976324 4.475349 3.000000
    endloop
  endfacet
  facet normal -0.309017 -0.951056 -0.000000
    outer loop
      vertex 58.976324 4.475349 -3.000000
      vertex 60.755946 3.897114 -3.000000
      vertex 58.976324 4.475349 3.000000
    endloop
  endfacet
  facet normal -0.669131 -0.743145 -0.000000
    outer loop
      vertex 62.146522 2.645034 -3.000000
      vertex 62.146522 2.645034 3.000000
      vertex 60.755946 3.897114 3.000000
    endloop
  endfacet
  facet normal -0.669131 -0.743145 -0.000000
    outer loop
      vertex 60.755946 3.897114 -3.000000
      vertex 62.146522 2.645034 -3.000000
      vertex 60.755946 3.897114 3.000000
    endloop
  endfacet
  facet normal -0.913545 -0.406737 0.000000
    outer loop
      vertex 62.907610 0.935603 3.000000
      vertex 62.146522 2.645034 3.000000
      vertex 62.907610 0.935603 -3.000000
    endloop
  endfacet
  facet normal -0.913545 -0.406737 0.000000
    outer loop
      vertex 62.907610 0.935603 -3.000000
      vertex 62.146522 2.645034 3.000000
      vertex 62.146522 2.645034 -3.000000
    endloop
  endfacet
  facet normal -1.000000 0.000000 0.000000
    outer loop
      vertex 62.907610 0.935603 3.000000
      vertex 62.907610 0.935603 -3.000000
      vertex 62.907610 -0.000000 3.000000
    endloop
  endfacet
  facet normal -1.000000 0.000000 0.000000
    outer loop
      vertex 62.907610 -0.000000 3.000000
      vertex 62.907610 0.935603 -3.000000
      vertex 62.907610 -0.000000 -3.000000
    endloop
  endfacet
  facet normal -0.000000 -1.000000 -0.000000
    outer loop
      vertex 63.005946 -0.000000 -3.000000
      vertex 63.005946 -0.000000 3.000000
      vertex 62.907610 -0.000000 3.000000
    endloop
  endfacet
  facet normal -0.000000 -1.000000 -0.000000
    outer loop
      vertex 62.907610 -0.000000 -3.000000
      vertex 63.005946 -0.000000 -3.000000
      vertex 62.907610 -0.000000 3.000000
    endloop
  endfacet
  facet normal -1.000000 0.000000 0.000000
    outer loop
      vertex 63.005946 -0.000000 3.000000
      vertex 63.005946 -0.000000 -3.000000
      vertex 63.005946 -10.000000 3.000000
    endloop
  endfacet
  facet normal -1.000000 0.000000 0.000000
    outer loop
      vertex 63.005946 -10.000000 3.000000
      vertex 63.005946 -0.000000 -3.000000
      vertex 63.005946 -10.000000 -3.000000
    endloop
  endfacet
  facet normal 0.000000 -1.000000 0.000000
    outer loop
      vertex 63.005946 -10.000000 3.000000
      vertex 63.005946 -10.000000 -3.000000
      vertex 94.000000 -10.000000 -3.000000
    endloop
  endfacet
  facet normal 0.000000 -1.000000 0.000000
    outer loop
      vertex 94.000000 -10.000000 3.000000
      vertex 63.005946 -10.000000 3.000000
      vertex 94.000000 -10.000000 -3.000000
    endloop
  endfacet
  facet normal 1.000000 0.000000 -0.000000
    outer loop
      vertex 94.000000 -10.000000 3.000000
      vertex 94.000000 -10.000000 -3.000000
      vertex 94.000000 10.000000 -3.000000
    endloop
  endfacet
  facet normal 1.000000 0.000000 0.000000
    outer loop
      vertex 94.000000 10.000000 3.000000
      vertex 94.000000 -10.000000 3.000000
      vertex 94.000000 10.000000 -3.000000
    endloop
  endfacet
  facet normal 0.000000 1.000000 0.000000
    outer loop
      vertex 4.500000 10.000000 -3.000000
      vertex 4.500000 10.000000 3.000000
      vertex 94.000000 10.000000 -3.000000
    endloop
  endfacet
  facet normal 0.000000 1.000000 0.000000
    outer loop
      vertex 94.000000 10.000000 -3.000000
      vertex 4.500000 10.000000 3.000000
      vertex 94.000000 10.000000 3.000000
    endloop
  endfacet
  facet normal -1.000000 0.000000 0.000000
    outer loop
      vertex 4.500000 10.000000 3.000000
      vertex 4.500000 10.000000 -3.000000
      vertex 4.500000 0.000000 3.000000
    endloop
  endfacet
  facet normal -1.000000 0.000000 0.000000
    outer loop
      vertex 4.500000 0.000000 3.000000
      vertex 4.500000 10.000000 -3.000000
      vertex 4.500000 0.000000 -3.000000
    endloop
  endfacet
  facet normal -0.978148 0.207911 0.000000
    outer loop
      vertex 4.500000 0.000000 3.000000
      vertex 4.500000 0.000000 -3.000000
      vertex 4.110955 -1.830315 3.000000
    endloop
  endfacet
  facet normal -0.978148 0.207911 0.000000
    outer loop
      vertex 4.110955 -1.830315 3.000000
      vertex 4.500000 0.000000 -3.000000
      vertex 4.110955 -1.830315 -3.000000
    endloop
  endfacet
  facet normal -0.809017 0.587785 0.000000
    outer loop
      vertex 4.110955 -1.830315 3.000000
      vertex 4.110955 -1.830315 -3.000000
      vertex 3.011088 -3.344152 3.000000
    endloop
  endfacet
  facet normal -0.809017 0.587785 0.000000
    outer loop
      vertex 3.011088 -3.344152 3.000000
      vertex 4.110955 -1.830315 -3.000000
      vertex 3.011088 -3.344152 -3.000000
    endloop
  endfacet
  facet normal -0.500000 0.866026 0.000000
    outer loop
      vertex 3.011088 -3.344152 3.000000
      vertex 3.011088 -3.344152 -3.000000
      vertex 1.390576 -4.279754 3.000000
    endloop
  endfacet
  facet normal -0.500000 0.866026 0.000000
    outer loop
      vertex 1.390576 -4.279754 3.000000
      vertex 3.011088 -3.344152 -3.000000
      vertex 1.390576 -4.279754 -3.000000
    endloop
  endfacet
  facet normal -0.104529 0.994522 0.000000
    outer loop
      vertex 1.390576 -4.279754 3.000000
      vertex 1.390576 -4.279754 -3.000000
      vertex -0.470378 -4.475349 3.000000
    endloop
  endfacet
  facet normal -0.104529 0.994522 0.000000
    outer loop
      vertex -0.470378 -4.475349 3.000000
      vertex 1.390576 -4.279754 -3.000000
      vertex -0.470378 -4.475349 -3.000000
    endloop
  endfacet
  facet normal 0.309017 0.951056 -0.000000
    outer loop
      vertex -0.470378 -4.475349 3.000000
      vertex -0.470378 -4.475349 -3.000000
      vertex -2.250000 -3.897114 3.000000
    endloop
  endfacet
  facet normal 0.309017 0.951056 -0.000000
    outer loop
      vertex -2.250000 -3.897114 3.000000
      vertex -0.470378 -4.475349 -3.000000
      vertex -2.250000 -3.897114 -3.000000
    endloop
  endfacet
  facet normal 0.669131 0.743145 -0.000000
    outer loop
      vertex -2.250000 -3.897114 3.000000
      vertex -2.250000 -3.897114 -3.000000
      vertex -3.640576 -2.645034 3.000000
    endloop
  endfacet
  facet normal 0.669131 0.743145 -0.000000
    outer loop
      vertex -3.640576 -2.645034 3.000000
      vertex -2.250000 -3.897114 -3.000000
      vertex -3.640576 -2.645034 -3.000000
    endloop
  endfacet
  facet normal 0.913545 0.406737 0.000000
    outer loop
      vertex -4.401664 -0.935603 3.000000
      vertex -3.640576 -2.645034 3.000000
      vertex -3.640576 -2.645034 -3.000000
    endloop
  endfacet
  facet normal 0.913545 0.406737 0.000000
    outer loop
      vertex -4.401664 -0.935603 -3.000000
      vertex -4.401664 -0.935603 3.000000
      vertex -3.640576 -2.645034 -3.000000
    endloop
  endfacet
  facet normal 1.000000 0.000000 0.000000
    outer loop
      vertex -4.401664 0.000000 -3.000000
      vertex -4.401664 0.000000 3.000000
      vertex -4.401664 -0.935603 3.000000
    endloop
  endfacet
  facet normal 1.000000 0.000000 0.000000
    outer loop
      vertex -4.401664 -0.935603 -3.000000
      vertex -4.401664 0.000000 -3.000000
      vertex -4.401664 -0.935603 3.000000
    endloop
  endfacet
  facet normal 0.000000 1.000000 0.000000
    outer loop
      vertex -4.401664 0.000000 3.000000
      vertex -4.401664 0.000000 -3.000000
      vertex -4.500000 0.000000 3.000000
    endloop
  endfacet
  facet normal 0.000000 1.000000 -0.000000
    outer loop
      vertex -4.500000 0.000000 3.000000
      vertex -4.401664 0.000000 -3.000000
      vertex -4.500000 0.000000 -3.000000
    endloop
  endfacet
  facet normal 1.000000 0.000000 0.000000
    outer loop
      vertex -4.500000 10.000000 -3.000000
      vertex -4.500000 10.000000 3.000000
      vertex -4.500000 0.000000 3.000000
    endloop
  endfacet
  facet normal 1.000000 0.000000 0.000000
    outer loop
      vertex -4.500000 0.000000 -3.000000
      vertex -4.500000 10.000000 -3.000000
      vertex -4.500000 0.000000 3.000000
    endloop
  endfacet
  facet normal 0.987688 -0.156435 0.000000
    outer loop
      vertex 85.383204 0.525329 -3.000000
      vertex 85.383204 0.525329 27.000000
      vertex 85.300000 0.000000 27.000000
    endloop
  endfacet
  facet normal 0.987688 -0.156435 0.000000
    outer loop
      vertex 85.300000 0.000000 -3.000000
      vertex 85.383204 0.525329 -3.000000
      vertex 85.300000 0.000000 27.000000
    endloop
  endfacet
  facet normal 0.987688 0.156435 0.000000
    outer loop
      vertex 85.300000 0.000000 27.000000
      vertex 85.383204 -0.525329 27.000000
      vertex 85.383204 -0.525329 -3.000000
    endloop
  endfacet
  facet normal 0.987688 0.156435 0.000000
    outer loop
      vertex 85.300000 0.000000 -3.000000
      vertex 85.300000 0.000000 27.000000
      vertex 85.383204 -0.525329 -3.000000
    endloop
  endfacet
  facet normal 0.891007 -0.453990 0.000000
    outer loop
      vertex 85.624671 0.999235 -3.000000
      vertex 85.624671 0.999235 27.000000
      vertex 85.383204 0.525329 27.000000
    endloop
  endfacet
  facet normal 0.891007 -0.453990 0.000000
    outer loop
      vertex 85.383204 0.525329 -3.000000
      vertex 85.624671 0.999235 -3.000000
      vertex 85.383204 0.525329 27.000000
    endloop
  endfacet
  facet normal 0.707107 -0.707107 0.000000
    outer loop
      vertex 86.000765 1.375329 -3.000000
      vertex 86.000765 1.375329 27.000000
      vertex 85.624671 0.999235 27.000000
    endloop
  endfacet
  facet normal 0.707107 -0.707107 0.000000
    outer loop
      vertex 85.624671 0.999235 -3.000000
      vertex 86.000765 1.375329 -3.000000
      vertex 85.624671 0.999235 27.000000
    endloop
  endfacet
  facet normal 0.453990 -0.891007 0.000000
    outer loop
      vertex 86.474671 1.616796 -3.000000
      vertex 86.474671 1.616796 27.000000
      vertex 86.000765 1.375329 27.000000
    endloop
  endfacet
  facet normal 0.453990 -0.891007 0.000000
    outer loop
      vertex 86.000765 1.375329 -3.000000
      vertex 86.474671 1.616796 -3.000000
      vertex 86.000765 1.375329 27.000000
    endloop
  endfacet
  facet normal 0.156435 -0.987688 0.000000
    outer loop
      vertex 87.000000 1.700000 -3.000000
      vertex 87.000000 1.700000 27.000000
      vertex 86.474671 1.616796 27.000000
    endloop
  endfacet
  facet normal 0.156435 -0.987688 0.000000
    outer loop
      vertex 86.474671 1.616796 -3.000000
      vertex 87.000000 1.700000 -3.000000
      vertex 86.474671 1.616796 27.000000
    endloop
  endfacet
  facet normal -0.156435 -0.987688 -0.000000
    outer loop
      vertex 87.525329 1.616796 -3.000000
      vertex 87.525329 1.616796 27.000000
      vertex 87.000000 1.700000 27.000000
    endloop
  endfacet
  facet normal -0.156435 -0.987688 -0.000000
    outer loop
      vertex 87.000000 1.700000 -3.000000
      vertex 87.525329 1.616796 -3.000000
      vertex 87.000000 1.700000 27.000000
    endloop
  endfacet
  facet normal -0.453990 -0.891007 -0.000000
    outer loop
      vertex 87.999235 1.375329 -3.000000
      vertex 87.999235 1.375329 27.000000
      vertex 87.525329 1.616796 27.000000
    endloop
  endfacet
  facet normal -0.453990 -0.891007 -0.000000
    outer loop
      vertex 87.525329 1.616796 -3.000000
      vertex 87.999235 1.375329 -3.000000
      vertex 87.525329 1.616796 27.000000
    endloop
  endfacet
  facet normal -0.707107 -0.707107 -0.000000
    outer loop
      vertex 88.375329 0.999235 -3.000000
      vertex 88.375329 0.999235 27.000000
      vertex 87.999235 1.375329 27.000000
    endloop
  endfacet
  facet normal -0.707107 -0.707107 -0.000000
    outer loop
      vertex 87.999235 1.375329 -3.000000
      vertex 88.375329 0.999235 -3.000000
      vertex 87.999235 1.375329 27.000000
    endloop
  endfacet
  facet normal -0.891007 -0.453990 0.000000
    outer loop
      vertex 88.616796 0.525329 27.000000
      vertex 88.375329 0.999235 27.000000
      vertex 88.616796 0.525329 -3.000000
    endloop
  endfacet
  facet normal -0.891007 -0.453990 0.000000
    outer loop
      vertex 88.616796 0.525329 -3.000000
      vertex 88.375329 0.999235 27.000000
      vertex 88.375329 0.999235 -3.000000
    endloop
  endfacet
  facet normal -0.987688 -0.156435 0.000000
    outer loop
      vertex 88.700000 0.000000 27.000000
      vertex 88.616796 0.525329 27.000000
      vertex 88.700000 0.000000 -3.000000
    endloop
  endfacet
  facet normal -0.987688 -0.156435 0.000000
    outer loop
      vertex 88.700000 0.000000 -3.000000
      vertex 88.616796 0.525329 27.000000
      vertex 88.616796 0.525329 -3.000000
    endloop
  endfacet
  facet normal -0.987688 0.156435 0.000000
    outer loop
      vertex 88.700000 0.000000 27.000000
      vertex 88.700000 0.000000 -3.000000
      vertex 88.616796 -0.525329 27.000000
    endloop
  endfacet
  facet normal -0.987688 0.156435 0.000000
    outer loop
      vertex 88.616796 -0.525329 27.000000
      vertex 88.700000 0.000000 -3.000000
      vertex 88.616796 -0.525329 -3.000000
    endloop
  endfacet
  facet normal -0.891007 0.453990 0.000000
    outer loop
      vertex 88.616796 -0.525329 27.000000
      vertex 88.616796 -0.525329 -3.000000
      vertex 88.375329 -0.999235 27.000000
    endloop
  endfacet
  facet normal -0.891007 0.453990 0.000000
    outer loop
      vertex 88.375329 -0.999235 27.000000
      vertex 88.616796 -0.525329 -3.000000
      vertex 88.375329 -0.999235 -3.000000
    endloop
  endfacet
  facet normal -0.707107 0.707107 0.000000
    outer loop
      vertex 88.375329 -0.999235 27.000000
      vertex 88.375329 -0.999235 -3.000000
      vertex 87.999235 -1.375329 27.000000
    endloop
  endfacet
  facet normal -0.707107 0.707107 0.000000
    outer loop
      vertex 87.999235 -1.375329 27.000000
      vertex 88.375329 -0.999235 -3.000000
      vertex 87.999235 -1.375329 -3.000000
    endloop
  endfacet
  facet normal -0.453990 0.891007 0.000000
    outer loop
      vertex 87.999235 -1.375329 27.000000
      vertex 87.999235 -1.375329 -3.000000
      vertex 87.525329 -1.616796 27.000000
    endloop
  endfacet
  facet normal -0.453990 0.891007 0.000000
    outer loop
      vertex 87.525329 -1.616796 27.000000
      vertex 87.999235 -1.375329 -3.000000
      vertex 87.525329 -1.616796 -3.000000
    endloop
  endfacet
  facet normal -0.156435 0.987688 0.000000
    outer loop
      vertex 87.525329 -1.616796 27.000000
      vertex 87.525329 -1.616796 -3.000000
      vertex 87.000000 -1.700000 27.000000
    endloop
  endfacet
  facet normal -0.156435 0.987688 0.000000
    outer loop
      vertex 87.000000 -1.700000 27.000000
      vertex 87.525329 -1.616796 -3.000000
      vertex 87.000000 -1.700000 -3.000000
    endloop
  endfacet
  facet normal 0.156435 0.987688 -0.000000
    outer loop
      vertex 87.000000 -1.700000 27.000000
      vertex 87.000000 -1.700000 -3.000000
      vertex 86.474671 -1.616796 27.000000
    endloop
  endfacet
  facet normal 0.156435 0.987688 -0.000000
    outer loop
      vertex 86.474671 -1.616796 27.000000
      vertex 87.000000 -1.700000 -3.000000
      vertex 86.474671 -1.616796 -3.000000
    endloop
  endfacet
  facet normal 0.453990 0.891007 -0.000000
    outer loop
      vertex 86.474671 -1.616796 27.000000
      vertex 86.474671 -1.616796 -3.000000
      vertex 86.000765 -1.375329 27.000000
    endloop
  endfacet
  facet normal 0.453990 0.891007 -0.000000
    outer loop
      vertex 86.000765 -1.375329 27.000000
      vertex 86.474671 -1.616796 -3.000000
      vertex 86.000765 -1.375329 -3.000000
    endloop
  endfacet
  facet normal 0.707107 0.707107 -0.000000
    outer loop
      vertex 86.000765 -1.375329 27.000000
      vertex 86.000765 -1.375329 -3.000000
      vertex 85.624671 -0.999235 27.000000
    endloop
  endfacet
  facet normal 0.707107 0.707107 -0.000000
    outer loop
      vertex 85.624671 -0.999235 27.000000
      vertex 86.000765 -1.375329 -3.000000
      vertex 85.624671 -0.999235 -3.000000
    endloop
  endfacet
  facet normal 0.891007 0.453990 0.000000
    outer loop
      vertex 85.383204 -0.525329 27.000000
      vertex 85.624671 -0.999235 27.000000
      vertex 85.624671 -0.999235 -3.000000
    endloop
  endfacet
  facet normal 0.891007 0.453990 0.000000
    outer loop
      vertex 85.383204 -0.525329 -3.000000
      vertex 85.383204 -0.525329 27.000000
      vertex 85.624671 -0.999235 -3.000000
    endloop
  endfacet
  facet normal -0.951057 -0.309017 -0.000000
    outer loop
      vertex 81.131114 -1.247470 3.000000
      vertex 81.518727 -2.440420 3.000000
      vertex 81.131114 -1.247470 27.000000
    endloop
  endfacet
  facet normal -0.951057 -0.309017 0.000000
    outer loop
      vertex 81.131114 -1.247470 27.000000
      vertex 81.518727 -2.440420 3.000000
      vertex 81.518727 -2.440420 27.000000
    endloop
  endfacet
  facet normal -0.994522 -0.104528 -0.000000
    outer loop
      vertex 81.000000 0.000000 3.000000
      vertex 81.131114 -1.247470 3.000000
      vertex 81.000000 0.000000 27.000000
    endloop
  endfacet
  facet normal -0.994522 -0.104528 0.000000
    outer loop
      vertex 81.000000 0.000000 27.000000
      vertex 81.131114 -1.247470 3.000000
      vertex 81.131114 -1.247470 27.000000
    endloop
  endfacet
  facet normal -0.866025 -0.500000 -0.000000
    outer loop
      vertex 81.518727 -2.440420 3.000000
      vertex 82.145898 -3.526712 3.000000
      vertex 81.518727 -2.440420 27.000000
    endloop
  endfacet
  facet normal -0.866025 -0.500000 0.000000
    outer loop
      vertex 81.518727 -2.440420 27.000000
      vertex 82.145898 -3.526712 3.000000
      vertex 82.145898 -3.526712 27.000000
    endloop
  endfacet
  facet normal -0.743145 -0.669131 -0.000000
    outer loop
      vertex 82.145898 -3.526712 3.000000
      vertex 82.985216 -4.458869 3.000000
      vertex 82.145898 -3.526712 27.000000
    endloop
  endfacet
  facet normal -0.743145 -0.669131 0.000000
    outer loop
      vertex 82.145898 -3.526712 27.000000
      vertex 82.985216 -4.458869 3.000000
      vertex 82.985216 -4.458869 27.000000
    endloop
  endfacet
  facet normal -0.587785 -0.809017 0.000000
    outer loop
      vertex 82.985216 -4.458869 27.000000
      vertex 82.985216 -4.458869 3.000000
      vertex 84.000000 -5.196152 3.000000
    endloop
  endfacet
  facet normal -0.587785 -0.809017 0.000000
    outer loop
      vertex 84.000000 -5.196152 27.000000
      vertex 82.985216 -4.458869 27.000000
      vertex 84.000000 -5.196152 3.000000
    endloop
  endfacet
  facet normal -0.406737 -0.913545 0.000000
    outer loop
      vertex 84.000000 -5.196152 27.000000
      vertex 84.000000 -5.196152 3.000000
      vertex 85.145898 -5.706339 3.000000
    endloop
  endfacet
  facet normal -0.406737 -0.913545 0.000000
    outer loop
      vertex 85.145898 -5.706339 27.000000
      vertex 84.000000 -5.196152 27.000000
      vertex 85.145898 -5.706339 3.000000
    endloop
  endfacet
  facet normal -0.207912 -0.978148 0.000000
    outer loop
      vertex 85.145898 -5.706339 27.000000
      vertex 85.145898 -5.706339 3.000000
      vertex 86.372829 -5.967131 3.000000
    endloop
  endfacet
  facet normal -0.207912 -0.978148 0.000000
    outer loop
      vertex 86.372829 -5.967131 27.000000
      vertex 85.145898 -5.706339 27.000000
      vertex 86.372829 -5.967131 3.000000
    endloop
  endfacet
  facet normal 0.000000 -1.000000 0.000000
    outer loop
      vertex 86.372829 -5.967131 27.000000
      vertex 86.372829 -5.967131 3.000000
      vertex 87.627171 -5.967131 3.000000
    endloop
  endfacet
  facet normal 0.000000 -1.000000 0.000000
    outer loop
      vertex 87.627171 -5.967131 27.000000
      vertex 86.372829 -5.967131 27.000000
      vertex 87.627171 -5.967131 3.000000
    endloop
  endfacet
  facet normal 0.207912 -0.978148 0.000000
    outer loop
      vertex 87.627171 -5.967131 27.000000
      vertex 87.627171 -5.967131 3.000000
      vertex 88.854102 -5.706339 3.000000
    endloop
  endfacet
  facet normal 0.207912 -0.978148 0.000000
    outer loop
      vertex 88.854102 -5.706339 27.000000
      vertex 87.627171 -5.967131 27.000000
      vertex 88.854102 -5.706339 3.000000
    endloop
  endfacet
  facet normal 0.406737 -0.913545 0.000000
    outer loop
      vertex 88.854102 -5.706339 27.000000
      vertex 88.854102 -5.706339 3.000000
      vertex 90.000000 -5.196152 3.000000
    endloop
  endfacet
  facet normal 0.406737 -0.913545 0.000000
    outer loop
      vertex 90.000000 -5.196152 27.000000
      vertex 88.854102 -5.706339 27.000000
      vertex 90.000000 -5.196152 3.000000
    endloop
  endfacet
  facet normal 0.587785 -0.809017 0.000000
    outer loop
      vertex 90.000000 -5.196152 27.000000
      vertex 90.000000 -5.196152 3.000000
      vertex 91.014784 -4.458869 3.000000
    endloop
  endfacet
  facet normal 0.587785 -0.809017 0.000000
    outer loop
      vertex 91.014784 -4.458869 27.000000
      vertex 90.000000 -5.196152 27.000000
      vertex 91.014784 -4.458869 3.000000
    endloop
  endfacet
  facet normal 0.743145 -0.669131 0.000000
    outer loop
      vertex 91.014784 -4.458869 27.000000
      vertex 91.014784 -4.458869 3.000000
      vertex 91.854102 -3.526712 3.000000
    endloop
  endfacet
  facet normal 0.743145 -0.669131 0.000000
    outer loop
      vertex 91.854102 -3.526712 27.000000
      vertex 91.014784 -4.458869 27.000000
      vertex 91.854102 -3.526712 3.000000
    endloop
  endfacet
  facet normal 0.866025 -0.500000 0.000000
    outer loop
      vertex 91.854102 -3.526712 27.000000
      vertex 91.854102 -3.526712 3.000000
      vertex 92.481273 -2.440420 3.000000
    endloop
  endfacet
  facet normal 0.866025 -0.500000 0.000000
    outer loop
      vertex 92.481273 -2.440420 27.000000
      vertex 91.854102 -3.526712 27.000000
      vertex 92.481273 -2.440420 3.000000
    endloop
  endfacet
  facet normal 0.951057 -0.309017 0.000000
    outer loop
      vertex 92.481273 -2.440420 27.000000
      vertex 92.481273 -2.440420 3.000000
      vertex 92.868886 -1.247470 3.000000
    endloop
  endfacet
  facet normal 0.951057 -0.309017 0.000000
    outer loop
      vertex 92.868886 -1.247470 27.000000
      vertex 92.481273 -2.440420 27.000000
      vertex 92.868886 -1.247470 3.000000
    endloop
  endfacet
  facet normal 0.994522 -0.104528 0.000000
    outer loop
      vertex 92.868886 -1.247470 27.000000
      vertex 92.868886 -1.247470 3.000000
      vertex 93.000000 0.000000 3.000000
    endloop
  endfacet
  facet normal 0.994522 -0.104528 0.000000
    outer loop
      vertex 93.000000 0.000000 27.000000
      vertex 92.868886 -1.247470 27.000000
      vertex 93.000000 0.000000 3.000000
    endloop
  endfacet
  facet normal 0.994522 0.104528 0.000000
    outer loop
      vertex 93.000000 0.000000 3.000000
      vertex 92.868886 1.247470 3.000000
      vertex 92.868886 1.247470 27.000000
    endloop
  endfacet
  facet normal 0.994522 0.104528 -0.000000
    outer loop
      vertex 93.000000 0.000000 27.000000
      vertex 93.000000 0.000000 3.000000
      vertex 92.868886 1.247470 27.000000
    endloop
  endfacet
  facet normal 0.951057 0.309017 0.000000
    outer loop
      vertex 92.868886 1.247470 3.000000
      vertex 92.481273 2.440420 3.000000
      vertex 92.481273 2.440420 27.000000
    endloop
  endfacet
  facet normal 0.951057 0.309017 -0.000000
    outer loop
      vertex 92.868886 1.247470 27.000000
      vertex 92.868886 1.247470 3.000000
      vertex 92.481273 2.440420 27.000000
    endloop
  endfacet
  facet normal 0.866025 0.500000 0.000000
    outer loop
      vertex 92.481273 2.440420 3.000000
      vertex 91.854102 3.526712 3.000000
      vertex 91.854102 3.526712 27.000000
    endloop
  endfacet
  facet normal 0.866025 0.500000 -0.000000
    outer loop
      vertex 92.481273 2.440420 27.000000
      vertex 92.481273 2.440420 3.000000
      vertex 91.854102 3.526712 27.000000
    endloop
  endfacet
  facet normal 0.743145 0.669131 0.000000
    outer loop
      vertex 91.854102 3.526712 3.000000
      vertex 91.014784 4.458869 3.000000
      vertex 91.014784 4.458869 27.000000
    endloop
  endfacet
  facet normal 0.743145 0.669131 -0.000000
    outer loop
      vertex 91.854102 3.526712 27.000000
      vertex 91.854102 3.526712 3.000000
      vertex 91.014784 4.458869 27.000000
    endloop
  endfacet
  facet normal 0.587785 0.809017 0.000000
    outer loop
      vertex 90.000000 5.196152 3.000000
      vertex 90.000000 5.196152 27.000000
      vertex 91.014784 4.458869 3.000000
    endloop
  endfacet
  facet normal 0.587785 0.809017 0.000000
    outer loop
      vertex 91.014784 4.458869 3.000000
      vertex 90.000000 5.196152 27.000000
      vertex 91.014784 4.458869 27.000000
    endloop
  endfacet
  facet normal 0.406737 0.913545 0.000000
    outer loop
      vertex 88.854102 5.706339 3.000000
      vertex 88.854102 5.706339 27.000000
      vertex 90.000000 5.196152 3.000000
    endloop
  endfacet
  facet normal 0.406737 0.913545 0.000000
    outer loop
      vertex 90.000000 5.196152 3.000000
      vertex 88.854102 5.706339 27.000000
      vertex 90.000000 5.196152 27.000000
    endloop
  endfacet
  facet normal 0.207912 0.978148 0.000000
    outer loop
      vertex 87.627171 5.967131 3.000000
      vertex 87.627171 5.967131 27.000000
      vertex 88.854102 5.706339 3.000000
    endloop
  endfacet
  facet normal 0.207912 0.978148 0.000000
    outer loop
      vertex 88.854102 5.706339 3.000000
      vertex 87.627171 5.967131 27.000000
      vertex 88.854102 5.706339 27.000000
    endloop
  endfacet
  facet normal 0.000000 1.000000 0.000000
    outer loop
      vertex 86.372829 5.967131 3.000000
      vertex 86.372829 5.967131 27.000000
      vertex 87.627171 5.967131 3.000000
    endloop
  endfacet
  facet normal 0.000000 1.000000 0.000000
    outer loop
      vertex 87.627171 5.967131 3.000000
      vertex 86.372829 5.967131 27.000000
      vertex 87.627171 5.967131 27.000000
    endloop
  endfacet
  facet normal -0.207912 0.978148 0.000000
    outer loop
      vertex 85.145898 5.706339 3.000000
      vertex 85.145898 5.706339 27.000000
      vertex 86.372829 5.967131 3.000000
    endloop
  endfacet
  facet normal -0.207912 0.978148 0.000000
    outer loop
      vertex 86.372829 5.967131 3.000000
      vertex 85.145898 5.706339 27.000000
      vertex 86.372829 5.967131 27.000000
    endloop
  endfacet
  facet normal -0.406737 0.913545 0.000000
    outer loop
      vertex 84.000000 5.196152 3.000000
      vertex 84.000000 5.196152 27.000000
      vertex 85.145898 5.706339 3.000000
    endloop
  endfacet
  facet normal -0.406737 0.913545 0.000000
    outer loop
      vertex 85.145898 5.706339 3.000000
      vertex 84.000000 5.196152 27.000000
      vertex 85.145898 5.706339 27.000000
    endloop
  endfacet
  facet normal -0.587785 0.809017 0.000000
    outer loop
      vertex 82.985216 4.458869 3.000000
      vertex 82.985216 4.458869 27.000000
      vertex 84.000000 5.196152 3.000000
    endloop
  endfacet
  facet normal -0.587785 0.809017 0.000000
    outer loop
      vertex 84.000000 5.196152 3.000000
      vertex 82.985216 4.458869 27.000000
      vertex 84.000000 5.196152 27.000000
    endloop
  endfacet
  facet normal -0.743145 0.669131 0.000000
    outer loop
      vertex 82.145898 3.526712 3.000000
      vertex 82.145898 3.526712 27.000000
      vertex 82.985216 4.458869 3.000000
    endloop
  endfacet
  facet normal -0.743145 0.669131 0.000000
    outer loop
      vertex 82.985216 4.458869 3.000000
      vertex 82.145898 3.526712 27.000000
      vertex 82.985216 4.458869 27.000000
    endloop
  endfacet
  facet normal -0.866025 0.500000 0.000000
    outer loop
      vertex 81.518727 2.440420 3.000000
      vertex 81.518727 2.440420 27.000000
      vertex 82.145898 3.526712 3.000000
    endloop
  endfacet
  facet normal -0.866025 0.500000 0.000000
    outer loop
      vertex 82.145898 3.526712 3.000000
      vertex 81.518727 2.440420 27.000000
      vertex 82.145898 3.526712 27.000000
    endloop
  endfacet
  facet normal -0.951057 0.309017 0.000000
    outer loop
      vertex 81.131114 1.247470 3.000000
      vertex 81.131114 1.247470 27.000000
      vertex 81.518727 2.440420 3.000000
    endloop
  endfacet
  facet normal -0.951057 0.309017 0.000000
    outer loop
      vertex 81.518727 2.440420 3.000000
      vertex 81.131114 1.247470 27.000000
      vertex 81.518727 2.440420 27.000000
    endloop
  endfacet
  facet normal -0.994522 0.104528 0.000000
    outer loop
      vertex 81.000000 0.000000 3.000000
      vertex 81.000000 0.000000 27.000000
      vertex 81.131114 1.247470 3.000000
    endloop
  endfacet
  facet normal -0.994522 0.104528 0.000000
    outer loop
      vertex 81.131114 1.247470 3.000000
      vertex 81.000000 0.000000 27.000000
      vertex 81.131114 1.247470 27.000000
    endloop
  endfacet
  facet normal 0.000000 0.000000 1.000000
    outer loop
      vertex 81.131114 1.247470 27.000000
      vertex 81.000000 0.000000 27.000000
      vertex 81.131114 -1.247470 27.000000
    endloop
  endfacet
  facet normal 0.000000 0.000000 1.000000
    outer loop
      vertex 82.145898 -3.526712 27.000000
      vertex 81.131114 1.247470 27.000000
      vertex 81.518727 -2.440420 27.000000
    endloop
  endfacet
  facet normal 0.000000 0.000000 1.000000
    outer loop
      vertex 81.518727 -2.440420 27.000000
      vertex 81.131114 1.247470 27.000000
      vertex 81.131114 -1.247470 27.000000
    endloop
  endfacet
  facet normal 0.000000 0.000000 1.000000
    outer loop
      vertex 82.985216 -4.458869 27.000000
      vertex 81.131114 1.247470 27.000000
      vertex 82.145898 -3.526712 27.000000
    endloop
  endfacet
  facet normal 0.000000 0.000000 1.000000
    outer loop
      vertex 84.000000 -5.196152 27.000000
      vertex 81.131114 1.247470 27.000000
      vertex 82.985216 -4.458869 27.000000
    endloop
  endfacet
  facet normal 0.000000 0.000000 1.000000
    outer loop
      vertex 85.145898 -5.706339 27.000000
      vertex 81.131114 1.247470 27.000000
      vertex 84.000000 -5.196152 27.000000
    endloop
  endfacet
  facet normal 0.000000 0.000000 1.000000
    outer loop
      vertex 86.372829 -5.967131 27.000000
      vertex 81.131114 1.247470 27.000000
      vertex 85.145898 -5.706339 27.000000
    endloop
  endfacet
  facet normal -0.000000 0.000000 1.000000
    outer loop
      vertex 87.627171 -5.967131 27.000000
      vertex 81.131114 1.247470 27.000000
      vertex 86.372829 -5.967131 27.000000
    endloop
  endfacet
  facet normal -0.000000 0.000000 1.000000
    outer loop
      vertex 88.854102 -5.706339 27.000000
      vertex 81.131114 1.247470 27.000000
      vertex 87.627171 -5.967131 27.000000
    endloop
  endfacet
  facet normal -0.000000 0.000000 1.000000
    outer loop
      vertex 90.000000 -5.196152 27.000000
      vertex 81.131114 1.247470 27.000000
      vertex 88.854102 -5.706339 27.000000
    endloop
  endfacet
  facet normal -0.000000 0.000000 1.000000
    outer loop
      vertex 91.014784 -4.458869 27.000000
      vertex 81.131114 1.247470 27.000000
      vertex 90.000000 -5.196152 27.000000
    endloop
  endfacet
  facet normal -0.000000 -0.000000 1.000000
    outer loop
      vertex 86.000765 -1.375329 27.000000
      vertex 81.131114 1.247470 27.000000
      vertex 91.014784 -4.458869 27.000000
    endloop
  endfacet
  facet normal 0.000000 -0.000000 1.000000
    outer loop
      vertex 87.999235 -1.375329 27.000000
      vertex 87.525329 -1.616796 27.000000
      vertex 91.854102 -3.526712 27.000000
    endloop
  endfacet
  facet normal 0.000000 -0.000000 1.000000
    outer loop
      vertex 88.700000 0.000000 27.000000
      vertex 88.616796 -0.525329 27.000000
      vertex 92.868886 -1.247470 27.000000
    endloop
  endfacet
  facet normal 0.000000 0.000000 1.000000
    outer loop
      vertex 85.624671 0.999235 27.000000
      vertex 86.000765 1.375329 27.000000
      vertex 81.131114 1.247470 27.000000
    endloop
  endfacet
  facet normal 0.000000 -0.000000 1.000000
    outer loop
      vertex 91.854102 3.526712 27.000000
      vertex 81.131114 1.247470 27.000000
      vertex 92.481273 2.440420 27.000000
    endloop
  endfacet
  facet normal 0.000000 -0.000000 1.000000
    outer loop
      vertex 91.014784 4.458869 27.000000
      vertex 81.131114 1.247470 27.000000
      vertex 91.854102 3.526712 27.000000
    endloop
  endfacet
  facet normal 0.000000 -0.000000 1.000000
    outer loop
      vertex 90.000000 5.196152 27.000000
      vertex 81.131114 1.247470 27.000000
      vertex 91.014784 4.458869 27.000000
    endloop
  endfacet
  facet normal 0.000000 -0.000000 1.000000
    outer loop
      vertex 88.854102 5.706339 27.000000
      vertex 81.131114 1.247470 27.000000
      vertex 90.000000 5.196152 27.000000
    endloop
  endfacet
  facet normal 0.000000 -0.000000 1.000000
    outer loop
      vertex 87.627171 5.967131 27.000000
      vertex 81.131114 1.247470 27.000000
      vertex 88.854102 5.706339 27.000000
    endloop
  endfacet
  facet normal 0.000000 -0.000000 1.000000
    outer loop
      vertex 86.372829 5.967131 27.000000
      vertex 81.131114 1.247470 27.000000
      vertex 87.627171 5.967131 27.000000
    endloop
  endfacet
  facet normal 0.000000 -0.000000 1.000000
    outer loop
      vertex 85.145898 5.706339 27.000000
      vertex 81.131114 1.247470 27.000000
      vertex 86.372829 5.967131 27.000000
    endloop
  endfacet
  facet normal 0.000000 -0.000000 1.000000
    outer loop
      vertex 84.000000 5.196152 27.000000
      vertex 81.131114 1.247470 27.000000
      vertex 85.145898 5.706339 27.000000
    endloop
  endfacet
  facet normal 0.000000 -0.000000 1.000000
    outer loop
      vertex 82.985216 4.458869 27.000000
      vertex 81.131114 1.247470 27.000000
      vertex 84.000000 5.196152 27.000000
    endloop
  endfacet
  facet normal 0.000000 -0.000000 1.000000
    outer loop
      vertex 82.145898 3.526712 27.000000
      vertex 81.131114 1.247470 27.000000
      vertex 82.985216 4.458869 27.000000
    endloop
  endfacet
  facet normal 0.000000 -0.000000 1.000000
    outer loop
      vertex 81.518727 2.440420 27.000000
      vertex 81.131114 1.247470 27.000000
      vertex 82.145898 3.526712 27.000000
    endloop
  endfacet
  facet normal 0.000000 0.000000 1.000000
    outer loop
      vertex 86.000765 -1.375329 27.000000
      vertex 85.624671 -0.999235 27.000000
      vertex 81.131114 1.247470 27.000000
    endloop
  endfacet
  facet normal 0.000000 0.000000 1.000000
    outer loop
      vertex 85.383204 0.525329 27.000000
      vertex 85.624671 0.999235 27.000000
      vertex 81.131114 1.247470 27.000000
    endloop
  endfacet
  facet normal 0.000000 -0.000000 1.000000
    outer loop
      vertex 88.616796 -0.525329 27.000000
      vertex 88.375329 -0.999235 27.000000
      vertex 92.868886 -1.247470 27.000000
    endloop
  endfacet
  facet normal 0.000000 0.000000 1.000000
    outer loop
      vertex 87.000000 1.700000 27.000000
      vertex 87.525329 1.616796 27.000000
      vertex 92.481273 2.440420 27.000000
    endloop
  endfacet
  facet normal 0.000000 0.000000 1.000000
    outer loop
      vertex 88.616796 0.525329 27.000000
      vertex 88.700000 0.000000 27.000000
      vertex 93.000000 0.000000 27.000000
    endloop
  endfacet
  facet normal 0.000000 -0.000000 1.000000
    outer loop
      vertex 88.375329 -0.999235 27.000000
      vertex 87.999235 -1.375329 27.000000
      vertex 92.481273 -2.440420 27.000000
    endloop
  endfacet
  facet normal 0.000000 0.000000 1.000000
    outer loop
      vertex 86.474671 1.616796 27.000000
      vertex 81.131114 1.247470 27.000000
      vertex 86.000765 1.375329 27.000000
    endloop
  endfacet
  facet normal 0.000000 0.000000 1.000000
    outer loop
      vertex 87.000000 1.700000 27.000000
      vertex 81.131114 1.247470 27.000000
      vertex 86.474671 1.616796 27.000000
    endloop
  endfacet
  facet normal 0.000000 0.000000 1.000000
    outer loop
      vertex 87.999235 1.375329 27.000000
      vertex 88.375329 0.999235 27.000000
      vertex 92.868886 1.247470 27.000000
    endloop
  endfacet
  facet normal 0.000000 0.000000 1.000000
    outer loop
      vertex 92.481273 2.440420 27.000000
      vertex 81.131114 1.247470 27.000000
      vertex 87.000000 1.700000 27.000000
    endloop
  endfacet
  facet normal 0.000000 -0.000000 1.000000
    outer loop
      vertex 92.481273 2.440420 27.000000
      vertex 87.525329 1.616796 27.000000
      vertex 92.868886 1.247470 27.000000
    endloop
  endfacet
  facet normal 0.000000 0.000000 1.000000
    outer loop
      vertex 87.525329 1.616796 27.000000
      vertex 87.999235 1.375329 27.000000
      vertex 92.868886 1.247470 27.000000
    endloop
  endfacet
  facet normal 0.000000 -0.000000 1.000000
    outer loop
      vertex 92.868886 1.247470 27.000000
      vertex 88.375329 0.999235 27.000000
      vertex 93.000000 0.000000 27.000000
    endloop
  endfacet
  facet normal 0.000000 0.000000 1.000000
    outer loop
      vertex 88.375329 0.999235 27.000000
      vertex 88.616796 0.525329 27.000000
      vertex 93.000000 0.000000 27.000000
    endloop
  endfacet
  facet normal 0.000000 0.000000 1.000000
    outer loop
      vertex 93.000000 0.000000 27.000000
      vertex 88.700000 0.000000 27.000000
      vertex 92.868886 -1.247470 27.000000
    endloop
  endfacet
  facet normal -0.000000 0.000000 1.000000
    outer loop
      vertex 92.868886 -1.247470 27.000000
      vertex 88.375329 -0.999235 27.000000
      vertex 92.481273 -2.440420 27.000000
    endloop
  endfacet
  facet normal -0.000000 0.000000 1.000000
    outer loop
      vertex 92.481273 -2.440420 27.000000
      vertex 87.999235 -1.375329 27.000000
      vertex 91.854102 -3.526712 27.000000
    endloop
  endfacet
  facet normal -0.000000 0.000000 1.000000
    outer loop
      vertex 91.854102 -3.526712 27.000000
      vertex 87.525329 -1.616796 27.000000
      vertex 91.014784 -4.458869 27.000000
    endloop
  endfacet
  facet normal 0.000000 0.000000 1.000000
    outer loop
      vertex 85.383204 -0.525329 27.000000
      vertex 85.300000 0.000000 27.000000
      vertex 81.131114 1.247470 27.000000
    endloop
  endfacet
  facet normal 0.000000 -0.000000 1.000000
    outer loop
      vertex 87.525329 -1.616796 27.000000
      vertex 87.000000 -1.700000 27.000000
      vertex 91.014784 -4.458869 27.000000
    endloop
  endfacet
  facet normal -0.000000 -0.000000 1.000000
    outer loop
      vertex 87.000000 -1.700000 27.000000
      vertex 86.474671 -1.616796 27.000000
      vertex 91.014784 -4.458869 27.000000
    endloop
  endfacet
  facet normal -0.000000 -0.000000 1.000000
    outer loop
      vertex 86.474671 -1.616796 27.000000
      vertex 86.000765 -1.375329 27.000000
      vertex 91.014784 -4.458869 27.000000
    endloop
  endfacet
  facet normal 0.000000 0.000000 1.000000
    outer loop
      vertex 85.300000 0.000000 27.000000
      vertex 85.383204 0.525329 27.000000
      vertex 81.131114 1.247470 27.000000
    endloop
  endfacet
  facet normal 0.000000 0.000000 1.000000
    outer loop
      vertex 85.624671 -0.999235 27.000000
      vertex 85.383204 -0.525329 27.000000
      vertex 81.131114 1.247470 27.000000
    endloop
  endfacet
endsolid OpenSCAD_Model
