solid OpenSCAD_Model
  facet normal -0.866045 0.499966 0
    outer loop
      vertex 0 59.201 8.88178e-16
      vertex 0 59.201 12.9
      vertex 5.986 69.57 8.88178e-16
    endloop
  endfacet
  facet normal -0.866045 0.499966 0
    outer loop
      vertex 5.986 69.57 8.88178e-16
      vertex 0 59.201 12.9
      vertex 5.986 69.57 12.9
    endloop
  endfacet
  facet normal -0.962595 -0.270946 0
    outer loop
      vertex 0 59.201 8.88178e-16
      vertex 3.405 47.104 8.88178e-16
      vertex 0 59.201 12.9
    endloop
  endfacet
  facet normal -0.962595 -0.270946 0
    outer loop
      vertex 0 59.201 12.9
      vertex 3.405 47.104 8.88178e-16
      vertex 3.405 47.104 12.9
    endloop
  endfacet
  facet normal 0 0 -1
    outer loop
      vertex 0 59.201 8.88178e-16
      vertex 5.986 69.57 8.88178e-16
      vertex 3.405 47.104 8.88178e-16
    endloop
  endfacet
  facet normal 0 0 -1
    outer loop
      vertex 10.0784 64.0067 8.88178e-16
      vertex 5.986 69.57 8.88178e-16
      vertex 18.277 72.863 8.88178e-16
    endloop
  endfacet
  facet normal 0 0 -1
    outer loop
      vertex 14.7971 58.0897 8.88178e-16
      vertex 18.277 72.863 8.88178e-16
      vertex 38.11 61.413 8.88178e-16
    endloop
  endfacet
  facet normal 0 0 -1
    outer loop
      vertex 35.548 58.851 8.88178e-16
      vertex 38.11 61.413 8.88178e-16
      vertex 55.351 31.551 8.88178e-16
    endloop
  endfacet
  facet normal 0 0 -1
    outer loop
      vertex 51.851 29.5 8.88178e-16
      vertex 55.351 31.551 8.88178e-16
      vertex 55.351 9.05 8.88178e-16
    endloop
  endfacet
  facet normal 0 0 -1
    outer loop
      vertex 42.8927 5.96531 8.88178e-16
      vertex 55.351 9.05 8.88178e-16
      vertex 46.301 0 8.88178e-16
    endloop
  endfacet
  facet normal 0 0 -1
    outer loop
      vertex 37.6553 5.96531 8.88178e-16
      vertex 46.301 0 8.88178e-16
      vertex 34.379 0 8.88178e-16
    endloop
  endfacet
  facet normal 0 0 -1
    outer loop
      vertex 51.851 29.5 8.88178e-16
      vertex 55.351 9.05 8.88178e-16
      vertex 29.237 29.5 8.88178e-16
    endloop
  endfacet
  facet normal 0 0 -1
    outer loop
      vertex 3.405 47.104 8.88178e-16
      vertex 5.986 69.57 8.88178e-16
      vertex 6.813 59.912 8.88178e-16
    endloop
  endfacet
  facet normal 0 0 -1
    outer loop
      vertex 41.2086 5.1543 8.88178e-16
      vertex 46.301 0 8.88178e-16
      vertex 39.3394 5.1543 8.88178e-16
    endloop
  endfacet
  facet normal 0 0 -1
    outer loop
      vertex 3.405 47.104 8.88178e-16
      vertex 6.813 59.912 8.88178e-16
      vertex 7.22893 58.0897 8.88178e-16
    endloop
  endfacet
  facet normal 0 0 -1
    outer loop
      vertex 3.405 47.104 8.88178e-16
      vertex 7.22893 58.0897 8.88178e-16
      vertex 8.39434 56.6283 8.88178e-16
    endloop
  endfacet
  facet normal 0 0 -1
    outer loop
      vertex 13.6317 56.6283 8.88178e-16
      vertex 38.11 61.413 8.88178e-16
      vertex 11.9476 55.8173 8.88178e-16
    endloop
  endfacet
  facet normal 0 0 -1
    outer loop
      vertex 3.405 47.104 8.88178e-16
      vertex 10.0784 55.8173 8.88178e-16
      vertex 11.9476 55.8173 8.88178e-16
    endloop
  endfacet
  facet normal 0 0 -1
    outer loop
      vertex 3.405 47.104 8.88178e-16
      vertex 11.9476 55.8173 8.88178e-16
      vertex 38.11 61.413 8.88178e-16
    endloop
  endfacet
  facet normal 0 0 -1
    outer loop
      vertex 11.9476 64.0067 8.88178e-16
      vertex 18.277 72.863 8.88178e-16
      vertex 13.6317 63.1957 8.88178e-16
    endloop
  endfacet
  facet normal 0 0 -1
    outer loop
      vertex 14.7971 61.7343 8.88178e-16
      vertex 18.277 72.863 8.88178e-16
      vertex 15.213 59.912 8.88178e-16
    endloop
  endfacet
  facet normal 0 0 -1
    outer loop
      vertex 15.213 59.912 8.88178e-16
      vertex 18.277 72.863 8.88178e-16
      vertex 14.7971 58.0897 8.88178e-16
    endloop
  endfacet
  facet normal 0 0 -1
    outer loop
      vertex 13.6317 56.6283 8.88178e-16
      vertex 14.7971 58.0897 8.88178e-16
      vertex 38.11 61.413 8.88178e-16
    endloop
  endfacet
  facet normal 0 0 -1
    outer loop
      vertex 13.6317 63.1957 8.88178e-16
      vertex 18.277 72.863 8.88178e-16
      vertex 14.7971 61.7343 8.88178e-16
    endloop
  endfacet
  facet normal 0 0 -1
    outer loop
      vertex 10.0784 64.0067 8.88178e-16
      vertex 18.277 72.863 8.88178e-16
      vertex 11.9476 64.0067 8.88178e-16
    endloop
  endfacet
  facet normal 0 0 -1
    outer loop
      vertex 8.39434 63.1957 8.88178e-16
      vertex 5.986 69.57 8.88178e-16
      vertex 10.0784 64.0067 8.88178e-16
    endloop
  endfacet
  facet normal 0 0 -1
    outer loop
      vertex 22.892 40.348 8.88178e-16
      vertex 3.405 47.104 8.88178e-16
      vertex 34.067 59.706 8.88178e-16
    endloop
  endfacet
  facet normal 0 0 -1
    outer loop
      vertex 7.22893 61.7343 8.88178e-16
      vertex 5.986 69.57 8.88178e-16
      vertex 8.39434 63.1957 8.88178e-16
    endloop
  endfacet
  facet normal 0 0 -1
    outer loop
      vertex 6.813 59.912 8.88178e-16
      vertex 5.986 69.57 8.88178e-16
      vertex 7.22893 61.7343 8.88178e-16
    endloop
  endfacet
  facet normal 0 0 -1
    outer loop
      vertex 29.237 29.5 8.88178e-16
      vertex 20.739 37.097 8.88178e-16
      vertex 22.892 40.348 8.88178e-16
    endloop
  endfacet
  facet normal 0 0 -1
    outer loop
      vertex 3.405 47.104 8.88178e-16
      vertex 22.892 40.348 8.88178e-16
      vertex 20.739 37.097 8.88178e-16
    endloop
  endfacet
  facet normal 0 0 -1
    outer loop
      vertex 10.0784 55.8173 8.88178e-16
      vertex 3.405 47.104 8.88178e-16
      vertex 8.39434 56.6283 8.88178e-16
    endloop
  endfacet
  facet normal 0 0 -1
    outer loop
      vertex 51.851 30.613 8.88178e-16
      vertex 55.351 31.551 8.88178e-16
      vertex 51.851 29.5 8.88178e-16
    endloop
  endfacet
  facet normal 0 0 -1
    outer loop
      vertex 34.067 59.706 8.88178e-16
      vertex 38.11 61.413 8.88178e-16
      vertex 35.548 58.851 8.88178e-16
    endloop
  endfacet
  facet normal 0 0 -1
    outer loop
      vertex 3.405 47.104 8.88178e-16
      vertex 38.11 61.413 8.88178e-16
      vertex 34.067 59.706 8.88178e-16
    endloop
  endfacet
  facet normal 0 0 -1
    outer loop
      vertex 42.8927 5.96531 8.88178e-16
      vertex 46.301 0 8.88178e-16
      vertex 41.2086 5.1543 8.88178e-16
    endloop
  endfacet
  facet normal 0 0 -1
    outer loop
      vertex 36.074 9.249 8.88178e-16
      vertex 36.4899 7.42669 8.88178e-16
      vertex 34.379 0 8.88178e-16
    endloop
  endfacet
  facet normal 0 0 -1
    outer loop
      vertex 39.3394 5.1543 8.88178e-16
      vertex 46.301 0 8.88178e-16
      vertex 37.6553 5.96531 8.88178e-16
    endloop
  endfacet
  facet normal 0 0 -1
    outer loop
      vertex 36.4899 7.42669 8.88178e-16
      vertex 37.6553 5.96531 8.88178e-16
      vertex 34.379 0 8.88178e-16
    endloop
  endfacet
  facet normal 0 0 -1
    outer loop
      vertex 35.548 58.851 8.88178e-16
      vertex 55.351 31.551 8.88178e-16
      vertex 51.851 30.613 8.88178e-16
    endloop
  endfacet
  facet normal 0 0 -1
    outer loop
      vertex 44.0581 7.42669 8.88178e-16
      vertex 55.351 9.05 8.88178e-16
      vertex 42.8927 5.96531 8.88178e-16
    endloop
  endfacet
  facet normal 0 0 -1
    outer loop
      vertex 41.2086 13.3437 8.88178e-16
      vertex 25.199 29.471 8.88178e-16
      vertex 42.8927 12.5327 8.88178e-16
    endloop
  endfacet
  facet normal 0 0 -1
    outer loop
      vertex 44.474 9.249 8.88178e-16
      vertex 55.351 9.05 8.88178e-16
      vertex 44.0581 7.42669 8.88178e-16
    endloop
  endfacet
  facet normal 0 0 -1
    outer loop
      vertex 44.0581 11.0713 8.88178e-16
      vertex 55.351 9.05 8.88178e-16
      vertex 44.474 9.249 8.88178e-16
    endloop
  endfacet
  facet normal 0 0 -1
    outer loop
      vertex 42.8927 12.5327 8.88178e-16
      vertex 55.351 9.05 8.88178e-16
      vertex 44.0581 11.0713 8.88178e-16
    endloop
  endfacet
  facet normal 0 0 -1
    outer loop
      vertex 25.199 29.471 8.88178e-16
      vertex 55.351 9.05 8.88178e-16
      vertex 42.8927 12.5327 8.88178e-16
    endloop
  endfacet
  facet normal 0 0 -1
    outer loop
      vertex 39.3394 13.3437 8.88178e-16
      vertex 25.199 29.471 8.88178e-16
      vertex 41.2086 13.3437 8.88178e-16
    endloop
  endfacet
  facet normal 0 0 -1
    outer loop
      vertex 37.6553 12.5327 8.88178e-16
      vertex 25.199 29.471 8.88178e-16
      vertex 39.3394 13.3437 8.88178e-16
    endloop
  endfacet
  facet normal 0 0 -1
    outer loop
      vertex 36.4899 11.0713 8.88178e-16
      vertex 25.199 29.471 8.88178e-16
      vertex 37.6553 12.5327 8.88178e-16
    endloop
  endfacet
  facet normal 0 0 -1
    outer loop
      vertex 29.237 29.5 8.88178e-16
      vertex 55.351 9.05 8.88178e-16
      vertex 25.199 29.471 8.88178e-16
    endloop
  endfacet
  facet normal 0 0 -1
    outer loop
      vertex 20.739 37.097 8.88178e-16
      vertex 29.237 29.5 8.88178e-16
      vertex 25.199 29.471 8.88178e-16
    endloop
  endfacet
  facet normal 0 0 -1
    outer loop
      vertex 25.199 29.471 8.88178e-16
      vertex 36.4899 11.0713 8.88178e-16
      vertex 36.074 9.249 8.88178e-16
    endloop
  endfacet
  facet normal 0 0 -1
    outer loop
      vertex 25.199 29.471 8.88178e-16
      vertex 36.074 9.249 8.88178e-16
      vertex 34.379 0 8.88178e-16
    endloop
  endfacet
  facet normal 0 0 -1
    outer loop
      vertex 25.199 29.471 8.88178e-16
      vertex 34.379 0 8.88178e-16
      vertex 25.199 9.18 8.88178e-16
    endloop
  endfacet
  facet normal -0.258792 0.965933 0
    outer loop
      vertex 5.986 69.57 8.88178e-16
      vertex 5.986 69.57 12.9
      vertex 18.277 72.863 8.88178e-16
    endloop
  endfacet
  facet normal -0.258792 0.965933 0
    outer loop
      vertex 18.277 72.863 8.88178e-16
      vertex 5.986 69.57 12.9
      vertex 18.277 72.863 12.9
    endloop
  endfacet
  facet normal 0 0 1
    outer loop
      vertex 5.986 69.57 12.9
      vertex 0 59.201 12.9
      vertex 3.405 47.104 12.9
    endloop
  endfacet
  facet normal 0 0 1
    outer loop
      vertex 51.851 29.5 12.9
      vertex 39.3394 13.3437 12.9
      vertex 41.2086 13.3437 12.9
    endloop
  endfacet
  facet normal 0 0 1
    outer loop
      vertex 6.813 59.912 12.9
      vertex 5.986 69.57 12.9
      vertex 3.405 47.104 12.9
    endloop
  endfacet
  facet normal 0 0 1
    outer loop
      vertex 51.851 29.5 12.9
      vertex 41.2086 13.3437 12.9
      vertex 55.351 9.05 12.9
    endloop
  endfacet
  facet normal 0 0 1
    outer loop
      vertex 34.379 0 12.9
      vertex 25.199 29.471 12.9
      vertex 25.199 9.18 12.9
    endloop
  endfacet
  facet normal 0 0 1
    outer loop
      vertex 36.4899 7.42669 12.9
      vertex 25.199 29.471 12.9
      vertex 34.379 0 12.9
    endloop
  endfacet
  facet normal 0 0 1
    outer loop
      vertex 13.6317 63.1957 12.9
      vertex 34.067 59.706 12.9
      vertex 5.986 69.57 12.9
    endloop
  endfacet
  facet normal 0 0 1
    outer loop
      vertex 18.277 72.863 12.9
      vertex 5.986 69.57 12.9
      vertex 38.11 61.413 12.9
    endloop
  endfacet
  facet normal 0 0 1
    outer loop
      vertex 20.739 37.097 12.9
      vertex 7.22893 58.0897 12.9
      vertex 3.405 47.104 12.9
    endloop
  endfacet
  facet normal 0 0 1
    outer loop
      vertex 42.8927 5.96531 12.9
      vertex 41.2086 5.1543 12.9
      vertex 46.301 0 12.9
    endloop
  endfacet
  facet normal 0 0 1
    outer loop
      vertex 7.22893 58.0897 12.9
      vertex 6.813 59.912 12.9
      vertex 3.405 47.104 12.9
    endloop
  endfacet
  facet normal 0 0 1
    outer loop
      vertex 8.39434 63.1957 12.9
      vertex 5.986 69.57 12.9
      vertex 7.22893 61.7343 12.9
    endloop
  endfacet
  facet normal 0 0 1
    outer loop
      vertex 42.8927 12.5327 12.9
      vertex 44.0581 11.0713 12.9
      vertex 55.351 9.05 12.9
    endloop
  endfacet
  facet normal 0 0 1
    outer loop
      vertex 13.6317 56.6283 12.9
      vertex 11.9476 55.8173 12.9
      vertex 20.739 37.097 12.9
    endloop
  endfacet
  facet normal 0 0 1
    outer loop
      vertex 37.6553 12.5327 12.9
      vertex 29.237 29.5 12.9
      vertex 22.892 40.348 12.9
    endloop
  endfacet
  facet normal 0 0 1
    outer loop
      vertex 13.6317 63.1957 12.9
      vertex 5.986 69.57 12.9
      vertex 11.9476 64.0067 12.9
    endloop
  endfacet
  facet normal 0 0 1
    outer loop
      vertex 35.548 58.851 12.9
      vertex 51.851 30.613 12.9
      vertex 55.351 31.551 12.9
    endloop
  endfacet
  facet normal 0 0 1
    outer loop
      vertex 22.892 40.348 12.9
      vertex 34.067 59.706 12.9
      vertex 14.7971 61.7343 12.9
    endloop
  endfacet
  facet normal 0 0 1
    outer loop
      vertex 14.7971 61.7343 12.9
      vertex 34.067 59.706 12.9
      vertex 13.6317 63.1957 12.9
    endloop
  endfacet
  facet normal 0 0 1
    outer loop
      vertex 22.892 40.348 12.9
      vertex 14.7971 58.0897 12.9
      vertex 13.6317 56.6283 12.9
    endloop
  endfacet
  facet normal 0 0 1
    outer loop
      vertex 20.739 37.097 12.9
      vertex 8.39434 56.6283 12.9
      vertex 7.22893 58.0897 12.9
    endloop
  endfacet
  facet normal 0 0 1
    outer loop
      vertex 20.739 37.097 12.9
      vertex 10.0784 55.8173 12.9
      vertex 8.39434 56.6283 12.9
    endloop
  endfacet
  facet normal 0 0 1
    outer loop
      vertex 10.0784 64.0067 12.9
      vertex 11.9476 64.0067 12.9
      vertex 5.986 69.57 12.9
    endloop
  endfacet
  facet normal 0 0 1
    outer loop
      vertex 37.6553 12.5327 12.9
      vertex 22.892 40.348 12.9
      vertex 25.199 29.471 12.9
    endloop
  endfacet
  facet normal 0 0 1
    outer loop
      vertex 36.4899 11.0713 12.9
      vertex 37.6553 12.5327 12.9
      vertex 25.199 29.471 12.9
    endloop
  endfacet
  facet normal 0 0 1
    outer loop
      vertex 38.11 61.413 12.9
      vertex 5.986 69.57 12.9
      vertex 34.067 59.706 12.9
    endloop
  endfacet
  facet normal 0 0 1
    outer loop
      vertex 38.11 61.413 12.9
      vertex 35.548 58.851 12.9
      vertex 55.351 31.551 12.9
    endloop
  endfacet
  facet normal 0 0 1
    outer loop
      vertex 38.11 61.413 12.9
      vertex 34.067 59.706 12.9
      vertex 35.548 58.851 12.9
    endloop
  endfacet
  facet normal 0 0 1
    outer loop
      vertex 55.351 31.551 12.9
      vertex 51.851 30.613 12.9
      vertex 55.351 9.05 12.9
    endloop
  endfacet
  facet normal 0 0 1
    outer loop
      vertex 37.6553 12.5327 12.9
      vertex 39.3394 13.3437 12.9
      vertex 29.237 29.5 12.9
    endloop
  endfacet
  facet normal 0 0 1
    outer loop
      vertex 51.851 30.613 12.9
      vertex 51.851 29.5 12.9
      vertex 55.351 9.05 12.9
    endloop
  endfacet
  facet normal 0 0 1
    outer loop
      vertex 37.6553 5.96531 12.9
      vertex 36.4899 7.42669 12.9
      vertex 34.379 0 12.9
    endloop
  endfacet
  facet normal 0 0 1
    outer loop
      vertex 36.074 9.249 12.9
      vertex 25.199 29.471 12.9
      vertex 36.4899 7.42669 12.9
    endloop
  endfacet
  facet normal 0 0 1
    outer loop
      vertex 36.4899 11.0713 12.9
      vertex 25.199 29.471 12.9
      vertex 36.074 9.249 12.9
    endloop
  endfacet
  facet normal 0 0 1
    outer loop
      vertex 41.2086 5.1543 12.9
      vertex 39.3394 5.1543 12.9
      vertex 46.301 0 12.9
    endloop
  endfacet
  facet normal 0 0 1
    outer loop
      vertex 22.892 40.348 12.9
      vertex 15.213 59.912 12.9
      vertex 14.7971 58.0897 12.9
    endloop
  endfacet
  facet normal 0 0 1
    outer loop
      vertex 22.892 40.348 12.9
      vertex 14.7971 61.7343 12.9
      vertex 15.213 59.912 12.9
    endloop
  endfacet
  facet normal 0 0 1
    outer loop
      vertex 44.474 9.249 12.9
      vertex 44.0581 7.42669 12.9
      vertex 46.301 0 12.9
    endloop
  endfacet
  facet normal 0 0 1
    outer loop
      vertex 55.351 9.05 12.9
      vertex 41.2086 13.3437 12.9
      vertex 42.8927 12.5327 12.9
    endloop
  endfacet
  facet normal 0 0 1
    outer loop
      vertex 44.0581 7.42669 12.9
      vertex 42.8927 5.96531 12.9
      vertex 46.301 0 12.9
    endloop
  endfacet
  facet normal 0 0 1
    outer loop
      vertex 55.351 9.05 12.9
      vertex 44.474 9.249 12.9
      vertex 46.301 0 12.9
    endloop
  endfacet
  facet normal 0 0 1
    outer loop
      vertex 55.351 9.05 12.9
      vertex 44.0581 11.0713 12.9
      vertex 44.474 9.249 12.9
    endloop
  endfacet
  facet normal 0 0 1
    outer loop
      vertex 13.6317 56.6283 12.9
      vertex 20.739 37.097 12.9
      vertex 25.199 29.471 12.9
    endloop
  endfacet
  facet normal 0 0 1
    outer loop
      vertex 46.301 0 12.9
      vertex 39.3394 5.1543 12.9
      vertex 34.379 0 12.9
    endloop
  endfacet
  facet normal 0 0 1
    outer loop
      vertex 39.3394 5.1543 12.9
      vertex 37.6553 5.96531 12.9
      vertex 34.379 0 12.9
    endloop
  endfacet
  facet normal 0 0 1
    outer loop
      vertex 6.813 59.912 12.9
      vertex 7.22893 61.7343 12.9
      vertex 5.986 69.57 12.9
    endloop
  endfacet
  facet normal 0 0 1
    outer loop
      vertex 13.6317 56.6283 12.9
      vertex 25.199 29.471 12.9
      vertex 22.892 40.348 12.9
    endloop
  endfacet
  facet normal 0 0 1
    outer loop
      vertex 11.9476 55.8173 12.9
      vertex 10.0784 55.8173 12.9
      vertex 20.739 37.097 12.9
    endloop
  endfacet
  facet normal 0 0 1
    outer loop
      vertex 8.39434 63.1957 12.9
      vertex 10.0784 64.0067 12.9
      vertex 5.986 69.57 12.9
    endloop
  endfacet
  facet normal 0 0 1
    outer loop
      vertex 51.851 29.5 12.9
      vertex 29.237 29.5 12.9
      vertex 39.3394 13.3437 12.9
    endloop
  endfacet
  facet normal -0.49997 -0.866042 0
    outer loop
      vertex 15.2303 40.2772 2.33874
      vertex 3.405 47.104 8.88178e-16
      vertex 20.739 37.097 8.88178e-16
    endloop
  endfacet
  facet normal -0.49997 -0.866042 0
    outer loop
      vertex 15.2303 40.2772 10.5613
      vertex 17.316 39.0731 8.15294
      vertex 20.739 37.097 12.9
    endloop
  endfacet
  facet normal -0.49997 -0.866042 0
    outer loop
      vertex 3.405 47.104 12.9
      vertex 3.405 47.104 8.88178e-16
      vertex 10.195 43.1841 4.74706
    endloop
  endfacet
  facet normal -0.49997 -0.866042 0
    outer loop
      vertex 12.2807 41.98 10.5613
      vertex 3.405 47.104 12.9
      vertex 10.195 43.1841 8.15294
    endloop
  endfacet
  facet normal -0.49997 -0.866042 0
    outer loop
      vertex 20.739 37.097 12.9
      vertex 3.405 47.104 12.9
      vertex 12.2807 41.98 10.5613
    endloop
  endfacet
  facet normal -0.49997 -0.866042 0
    outer loop
      vertex 20.739 37.097 12.9
      vertex 12.2807 41.98 10.5613
      vertex 15.2303 40.2772 10.5613
    endloop
  endfacet
  facet normal -0.49997 -0.866042 0
    outer loop
      vertex 20.739 37.097 12.9
      vertex 17.316 39.0731 8.15294
      vertex 20.739 37.097 8.88178e-16
    endloop
  endfacet
  facet normal -0.49997 -0.866042 0
    outer loop
      vertex 17.316 39.0731 8.15294
      vertex 17.316 39.0731 4.74706
      vertex 20.739 37.097 8.88178e-16
    endloop
  endfacet
  facet normal -0.49997 -0.866042 0
    outer loop
      vertex 12.2807 41.98 2.33874
      vertex 3.405 47.104 8.88178e-16
      vertex 15.2303 40.2772 2.33874
    endloop
  endfacet
  facet normal -0.49997 -0.866042 0
    outer loop
      vertex 10.195 43.1841 4.74706
      vertex 3.405 47.104 8.88178e-16
      vertex 12.2807 41.98 2.33874
    endloop
  endfacet
  facet normal -0.49997 -0.866042 0
    outer loop
      vertex 10.195 43.1841 4.74706
      vertex 10.195 43.1841 8.15294
      vertex 3.405 47.104 12.9
    endloop
  endfacet
  facet normal -0.49997 -0.866042 0
    outer loop
      vertex 17.316 39.0731 4.74706
      vertex 15.2303 40.2772 2.33874
      vertex 20.739 37.097 8.88178e-16
    endloop
  endfacet
  facet normal -0.863212 -0.504842 0
    outer loop
      vertex 20.739 37.097 8.88178e-16
      vertex 25.199 29.471 8.88178e-16
      vertex 20.739 37.097 12.9
    endloop
  endfacet
  facet normal -0.863212 -0.504842 0
    outer loop
      vertex 20.739 37.097 12.9
      vertex 25.199 29.471 8.88178e-16
      vertex 25.199 29.471 12.9
    endloop
  endfacet
  facet normal -1 0 0
    outer loop
      vertex 25.199 25.1113 4.74706
      vertex 25.199 29.471 8.88178e-16
      vertex 25.199 22.7029 2.33874
    endloop
  endfacet
  facet normal -1 0 0
    outer loop
      vertex 25.199 22.7029 10.5613
      vertex 25.199 9.18 12.9
      vertex 25.199 29.471 12.9
    endloop
  endfacet
  facet normal -1 0 0
    outer loop
      vertex 25.199 9.18 8.88178e-16
      vertex 25.199 9.18 12.9
      vertex 25.199 16.8887 4.74706
    endloop
  endfacet
  facet normal -1 0 0
    outer loop
      vertex 25.199 9.18 8.88178e-16
      vertex 25.199 16.8887 4.74706
      vertex 25.199 19.2971 2.33874
    endloop
  endfacet
  facet normal -1 0 0
    outer loop
      vertex 25.199 9.18 8.88178e-16
      vertex 25.199 19.2971 2.33874
      vertex 25.199 29.471 8.88178e-16
    endloop
  endfacet
  facet normal -1 0 0
    outer loop
      vertex 25.199 19.2971 2.33874
      vertex 25.199 22.7029 2.33874
      vertex 25.199 29.471 8.88178e-16
    endloop
  endfacet
  facet normal -1 0 0
    outer loop
      vertex 25.199 22.7029 10.5613
      vertex 25.199 29.471 12.9
      vertex 25.199 25.1113 8.15294
    endloop
  endfacet
  facet normal -1 0 0
    outer loop
      vertex 25.199 29.471 8.88178e-16
      vertex 25.199 25.1113 4.74706
      vertex 25.199 29.471 12.9
    endloop
  endfacet
  facet normal -1 0 0
    outer loop
      vertex 25.199 25.1113 4.74706
      vertex 25.199 25.1113 8.15294
      vertex 25.199 29.471 12.9
    endloop
  endfacet
  facet normal -1 0 0
    outer loop
      vertex 25.199 19.2971 10.5613
      vertex 25.199 9.18 12.9
      vertex 25.199 22.7029 10.5613
    endloop
  endfacet
  facet normal -1 0 0
    outer loop
      vertex 25.199 16.8887 8.15294
      vertex 25.199 9.18 12.9
      vertex 25.199 19.2971 10.5613
    endloop
  endfacet
  facet normal -1 0 0
    outer loop
      vertex 25.199 16.8887 4.74706
      vertex 25.199 9.18 12.9
      vertex 25.199 16.8887 8.15294
    endloop
  endfacet
  facet normal -0.707107 -0.707107 0
    outer loop
      vertex 25.199 9.18 12.9
      vertex 25.199 9.18 8.88178e-16
      vertex 34.379 0 8.88178e-16
    endloop
  endfacet
  facet normal -0.707107 -0.707107 0
    outer loop
      vertex 34.379 0 12.9
      vertex 25.199 9.18 12.9
      vertex 34.379 0 8.88178e-16
    endloop
  endfacet
  facet normal 0 -1 0
    outer loop
      vertex 34.379 0 12.9
      vertex 34.379 0 8.88178e-16
      vertex 46.301 0 8.88178e-16
    endloop
  endfacet
  facet normal 0 -1 0
    outer loop
      vertex 46.301 0 12.9
      vertex 34.379 0 12.9
      vertex 46.301 0 8.88178e-16
    endloop
  endfacet
  facet normal 0.707107 -0.707107 0
    outer loop
      vertex 46.301 0 12.9
      vertex 46.301 0 8.88178e-16
      vertex 55.351 9.05 8.88178e-16
    endloop
  endfacet
  facet normal 0.707107 -0.707107 0
    outer loop
      vertex 55.351 9.05 12.9
      vertex 46.301 0 12.9
      vertex 55.351 9.05 8.88178e-16
    endloop
  endfacet
  facet normal 1 0 0
    outer loop
      vertex 55.351 22.7029 2.33874
      vertex 55.351 9.05 8.88178e-16
      vertex 55.351 31.551 8.88178e-16
    endloop
  endfacet
  facet normal 1 0 0
    outer loop
      vertex 55.351 9.05 12.9
      vertex 55.351 9.05 8.88178e-16
      vertex 55.351 16.8887 4.74706
    endloop
  endfacet
  facet normal 1 0 0
    outer loop
      vertex 55.351 25.1113 8.15294
      vertex 55.351 25.1113 4.74706
      vertex 55.351 31.551 8.88178e-16
    endloop
  endfacet
  facet normal 1 0 0
    outer loop
      vertex 55.351 9.05 12.9
      vertex 55.351 16.8887 4.74706
      vertex 55.351 16.8887 8.15294
    endloop
  endfacet
  facet normal 1 0 0
    outer loop
      vertex 55.351 31.551 12.9
      vertex 55.351 9.05 12.9
      vertex 55.351 19.2971 10.5613
    endloop
  endfacet
  facet normal 1 0 0
    outer loop
      vertex 55.351 25.1113 4.74706
      vertex 55.351 22.7029 2.33874
      vertex 55.351 31.551 8.88178e-16
    endloop
  endfacet
  facet normal 1 0 0
    outer loop
      vertex 55.351 31.551 12.9
      vertex 55.351 19.2971 10.5613
      vertex 55.351 22.7029 10.5613
    endloop
  endfacet
  facet normal 1 0 0
    outer loop
      vertex 55.351 31.551 12.9
      vertex 55.351 25.1113 8.15294
      vertex 55.351 31.551 8.88178e-16
    endloop
  endfacet
  facet normal 1 0 0
    outer loop
      vertex 55.351 31.551 12.9
      vertex 55.351 22.7029 10.5613
      vertex 55.351 25.1113 8.15294
    endloop
  endfacet
  facet normal 1 0 0
    outer loop
      vertex 55.351 19.2971 2.33874
      vertex 55.351 9.05 8.88178e-16
      vertex 55.351 22.7029 2.33874
    endloop
  endfacet
  facet normal 1 0 0
    outer loop
      vertex 55.351 16.8887 4.74706
      vertex 55.351 9.05 8.88178e-16
      vertex 55.351 19.2971 2.33874
    endloop
  endfacet
  facet normal 1 0 0
    outer loop
      vertex 55.351 16.8887 8.15294
      vertex 55.351 19.2971 10.5613
      vertex 55.351 9.05 12.9
    endloop
  endfacet
  facet normal 0.866023 0.500004 0
    outer loop
      vertex 55.351 31.551 8.88178e-16
      vertex 38.11 61.413 8.88178e-16
      vertex 38.11 61.413 12.9
    endloop
  endfacet
  facet normal 0.866023 0.500004 0
    outer loop
      vertex 55.351 31.551 12.9
      vertex 55.351 31.551 8.88178e-16
      vertex 38.11 61.413 12.9
    endloop
  endfacet
  facet normal 0.499981 0.866037 0
    outer loop
      vertex 32.1879 64.832 4.74706
      vertex 38.11 61.413 8.88178e-16
      vertex 30.1022 66.0361 2.33874
    endloop
  endfacet
  facet normal 0.499981 0.866037 0
    outer loop
      vertex 30.1022 66.0361 10.5613
      vertex 18.277 72.863 12.9
      vertex 38.11 61.413 12.9
    endloop
  endfacet
  facet normal 0.499981 0.866037 0
    outer loop
      vertex 18.277 72.863 8.88178e-16
      vertex 18.277 72.863 12.9
      vertex 25.0669 68.9431 8.15294
    endloop
  endfacet
  facet normal 0.499981 0.866037 0
    outer loop
      vertex 18.277 72.863 8.88178e-16
      vertex 25.0669 68.9431 8.15294
      vertex 25.0669 68.9431 4.74706
    endloop
  endfacet
  facet normal 0.499981 0.866037 0
    outer loop
      vertex 18.277 72.863 8.88178e-16
      vertex 25.0669 68.9431 4.74706
      vertex 27.1526 67.7389 2.33874
    endloop
  endfacet
  facet normal 0.499981 0.866037 0
    outer loop
      vertex 18.277 72.863 8.88178e-16
      vertex 27.1526 67.7389 2.33874
      vertex 38.11 61.413 8.88178e-16
    endloop
  endfacet
  facet normal 0.499981 0.866037 0
    outer loop
      vertex 27.1526 67.7389 2.33874
      vertex 30.1022 66.0361 2.33874
      vertex 38.11 61.413 8.88178e-16
    endloop
  endfacet
  facet normal 0.499981 0.866037 0
    outer loop
      vertex 38.11 61.413 8.88178e-16
      vertex 32.1879 64.832 4.74706
      vertex 38.11 61.413 12.9
    endloop
  endfacet
  facet normal 0.499981 0.866037 0
    outer loop
      vertex 32.1879 64.832 4.74706
      vertex 32.1879 64.832 8.15294
      vertex 38.11 61.413 12.9
    endloop
  endfacet
  facet normal 0.499981 0.866037 0
    outer loop
      vertex 27.1526 67.7389 10.5613
      vertex 18.277 72.863 12.9
      vertex 30.1022 66.0361 10.5613
    endloop
  endfacet
  facet normal 0.499981 0.866037 0
    outer loop
      vertex 32.1879 64.832 8.15294
      vertex 30.1022 66.0361 10.5613
      vertex 38.11 61.413 12.9
    endloop
  endfacet
  facet normal 0.499981 0.866037 0
    outer loop
      vertex 25.0669 68.9431 8.15294
      vertex 18.277 72.863 12.9
      vertex 27.1526 67.7389 10.5613
    endloop
  endfacet
  facet normal 0.974928 -0.222521 0
    outer loop
      vertex 7.22893 61.7343 8.88178e-16
      vertex 7.22893 61.7343 12.9
      vertex 6.813 59.912 12.9
    endloop
  endfacet
  facet normal 0.974928 -0.222521 0
    outer loop
      vertex 6.813 59.912 8.88178e-16
      vertex 7.22893 61.7343 8.88178e-16
      vertex 6.813 59.912 12.9
    endloop
  endfacet
  facet normal 0.974928 0.222521 0
    outer loop
      vertex 6.813 59.912 12.9
      vertex 7.22893 58.0897 12.9
      vertex 7.22893 58.0897 8.88178e-16
    endloop
  endfacet
  facet normal 0.974928 0.222521 0
    outer loop
      vertex 6.813 59.912 8.88178e-16
      vertex 6.813 59.912 12.9
      vertex 7.22893 58.0897 8.88178e-16
    endloop
  endfacet
  facet normal 0.781831 -0.62349 0
    outer loop
      vertex 8.39434 63.1957 8.88178e-16
      vertex 8.39434 63.1957 12.9
      vertex 7.22893 61.7343 12.9
    endloop
  endfacet
  facet normal 0.781831 -0.62349 0
    outer loop
      vertex 7.22893 61.7343 8.88178e-16
      vertex 8.39434 63.1957 8.88178e-16
      vertex 7.22893 61.7343 12.9
    endloop
  endfacet
  facet normal 0.433884 -0.900969 0
    outer loop
      vertex 10.0784 64.0067 8.88178e-16
      vertex 10.0784 64.0067 12.9
      vertex 8.39434 63.1957 12.9
    endloop
  endfacet
  facet normal 0.433884 -0.900969 0
    outer loop
      vertex 8.39434 63.1957 8.88178e-16
      vertex 10.0784 64.0067 8.88178e-16
      vertex 8.39434 63.1957 12.9
    endloop
  endfacet
  facet normal 0 -1 0
    outer loop
      vertex 11.9476 64.0067 8.88178e-16
      vertex 11.9476 64.0067 12.9
      vertex 10.0784 64.0067 12.9
    endloop
  endfacet
  facet normal 0 -1 0
    outer loop
      vertex 10.0784 64.0067 8.88178e-16
      vertex 11.9476 64.0067 8.88178e-16
      vertex 10.0784 64.0067 12.9
    endloop
  endfacet
  facet normal -0.433884 -0.900969 0
    outer loop
      vertex 13.6317 63.1957 8.88178e-16
      vertex 13.6317 63.1957 12.9
      vertex 11.9476 64.0067 12.9
    endloop
  endfacet
  facet normal -0.433884 -0.900969 0
    outer loop
      vertex 11.9476 64.0067 8.88178e-16
      vertex 13.6317 63.1957 8.88178e-16
      vertex 11.9476 64.0067 12.9
    endloop
  endfacet
  facet normal -0.781831 -0.62349 0
    outer loop
      vertex 14.7971 61.7343 12.9
      vertex 13.6317 63.1957 12.9
      vertex 14.7971 61.7343 8.88178e-16
    endloop
  endfacet
  facet normal -0.781831 -0.62349 0
    outer loop
      vertex 14.7971 61.7343 8.88178e-16
      vertex 13.6317 63.1957 12.9
      vertex 13.6317 63.1957 8.88178e-16
    endloop
  endfacet
  facet normal -0.974928 -0.222521 0
    outer loop
      vertex 15.213 59.912 12.9
      vertex 14.7971 61.7343 12.9
      vertex 15.213 59.912 8.88178e-16
    endloop
  endfacet
  facet normal -0.974928 -0.222521 0
    outer loop
      vertex 15.213 59.912 8.88178e-16
      vertex 14.7971 61.7343 12.9
      vertex 14.7971 61.7343 8.88178e-16
    endloop
  endfacet
  facet normal -0.974928 0.222521 0
    outer loop
      vertex 15.213 59.912 12.9
      vertex 15.213 59.912 8.88178e-16
      vertex 14.7971 58.0897 12.9
    endloop
  endfacet
  facet normal -0.974928 0.222521 0
    outer loop
      vertex 14.7971 58.0897 12.9
      vertex 15.213 59.912 8.88178e-16
      vertex 14.7971 58.0897 8.88178e-16
    endloop
  endfacet
  facet normal -0.781831 0.62349 0
    outer loop
      vertex 14.7971 58.0897 12.9
      vertex 14.7971 58.0897 8.88178e-16
      vertex 13.6317 56.6283 12.9
    endloop
  endfacet
  facet normal -0.781831 0.62349 0
    outer loop
      vertex 13.6317 56.6283 12.9
      vertex 14.7971 58.0897 8.88178e-16
      vertex 13.6317 56.6283 8.88178e-16
    endloop
  endfacet
  facet normal -0.433884 0.900969 0
    outer loop
      vertex 13.6317 56.6283 12.9
      vertex 13.6317 56.6283 8.88178e-16
      vertex 11.9476 55.8173 12.9
    endloop
  endfacet
  facet normal -0.433884 0.900969 0
    outer loop
      vertex 11.9476 55.8173 12.9
      vertex 13.6317 56.6283 8.88178e-16
      vertex 11.9476 55.8173 8.88178e-16
    endloop
  endfacet
  facet normal 0 1 0
    outer loop
      vertex 11.9476 55.8173 12.9
      vertex 11.9476 55.8173 8.88178e-16
      vertex 10.0784 55.8173 12.9
    endloop
  endfacet
  facet normal 0 1 0
    outer loop
      vertex 10.0784 55.8173 12.9
      vertex 11.9476 55.8173 8.88178e-16
      vertex 10.0784 55.8173 8.88178e-16
    endloop
  endfacet
  facet normal 0.433884 0.900969 0
    outer loop
      vertex 10.0784 55.8173 12.9
      vertex 10.0784 55.8173 8.88178e-16
      vertex 8.39434 56.6283 12.9
    endloop
  endfacet
  facet normal 0.433884 0.900969 0
    outer loop
      vertex 8.39434 56.6283 12.9
      vertex 10.0784 55.8173 8.88178e-16
      vertex 8.39434 56.6283 8.88178e-16
    endloop
  endfacet
  facet normal 0.781831 0.62349 0
    outer loop
      vertex 7.22893 58.0897 12.9
      vertex 8.39434 56.6283 12.9
      vertex 8.39434 56.6283 8.88178e-16
    endloop
  endfacet
  facet normal 0.781831 0.62349 0
    outer loop
      vertex 7.22893 58.0897 8.88178e-16
      vertex 7.22893 58.0897 12.9
      vertex 8.39434 56.6283 8.88178e-16
    endloop
  endfacet
  facet normal 0.866051 -0.499955 0
    outer loop
      vertex 34.067 59.706 8.88178e-16
      vertex 34.067 59.706 12.9
      vertex 22.892 40.348 12.9
    endloop
  endfacet
  facet normal 0.866051 -0.499955 0
    outer loop
      vertex 22.892 40.348 8.88178e-16
      vertex 34.067 59.706 8.88178e-16
      vertex 22.892 40.348 12.9
    endloop
  endfacet
  facet normal 0.86319 0.50488 0
    outer loop
      vertex 22.892 40.348 12.9
      vertex 29.237 29.5 12.9
      vertex 29.237 29.5 8.88178e-16
    endloop
  endfacet
  facet normal 0.86319 0.50488 0
    outer loop
      vertex 22.892 40.348 8.88178e-16
      vertex 22.892 40.348 12.9
      vertex 29.237 29.5 8.88178e-16
    endloop
  endfacet
  facet normal -0.499976 -0.86604 0
    outer loop
      vertex 35.548 58.851 8.88178e-16
      vertex 35.548 58.851 12.9
      vertex 34.067 59.706 12.9
    endloop
  endfacet
  facet normal -0.499976 -0.86604 0
    outer loop
      vertex 34.067 59.706 8.88178e-16
      vertex 35.548 58.851 8.88178e-16
      vertex 34.067 59.706 12.9
    endloop
  endfacet
  facet normal -0.866028 -0.499995 0
    outer loop
      vertex 51.851 30.613 12.9
      vertex 35.548 58.851 12.9
      vertex 51.851 30.613 8.88178e-16
    endloop
  endfacet
  facet normal -0.866028 -0.499995 0
    outer loop
      vertex 51.851 30.613 8.88178e-16
      vertex 35.548 58.851 12.9
      vertex 35.548 58.851 8.88178e-16
    endloop
  endfacet
  facet normal -1 0 0
    outer loop
      vertex 51.851 30.613 12.9
      vertex 51.851 30.613 8.88178e-16
      vertex 51.851 29.5 12.9
    endloop
  endfacet
  facet normal -1 0 0
    outer loop
      vertex 51.851 29.5 12.9
      vertex 51.851 30.613 8.88178e-16
      vertex 51.851 29.5 8.88178e-16
    endloop
  endfacet
  facet normal 0 1 0
    outer loop
      vertex 51.851 29.5 12.9
      vertex 51.851 29.5 8.88178e-16
      vertex 29.237 29.5 12.9
    endloop
  endfacet
  facet normal 0 1 0
    outer loop
      vertex 29.237 29.5 12.9
      vertex 51.851 29.5 8.88178e-16
      vertex 29.237 29.5 8.88178e-16
    endloop
  endfacet
  facet normal 0.974928 -0.222521 0
    outer loop
      vertex 36.4899 11.0713 8.88178e-16
      vertex 36.4899 11.0713 12.9
      vertex 36.074 9.249 12.9
    endloop
  endfacet
  facet normal 0.974928 -0.222521 0
    outer loop
      vertex 36.074 9.249 8.88178e-16
      vertex 36.4899 11.0713 8.88178e-16
      vertex 36.074 9.249 12.9
    endloop
  endfacet
  facet normal 0.974928 0.222521 0
    outer loop
      vertex 36.074 9.249 12.9
      vertex 36.4899 7.42669 12.9
      vertex 36.4899 7.42669 8.88178e-16
    endloop
  endfacet
  facet normal 0.974928 0.222521 0
    outer loop
      vertex 36.074 9.249 8.88178e-16
      vertex 36.074 9.249 12.9
      vertex 36.4899 7.42669 8.88178e-16
    endloop
  endfacet
  facet normal 0.781831 -0.62349 0
    outer loop
      vertex 37.6553 12.5327 8.88178e-16
      vertex 37.6553 12.5327 12.9
      vertex 36.4899 11.0713 12.9
    endloop
  endfacet
  facet normal 0.781831 -0.62349 0
    outer loop
      vertex 36.4899 11.0713 8.88178e-16
      vertex 37.6553 12.5327 8.88178e-16
      vertex 36.4899 11.0713 12.9
    endloop
  endfacet
  facet normal 0.433884 -0.900969 0
    outer loop
      vertex 39.3394 13.3437 8.88178e-16
      vertex 39.3394 13.3437 12.9
      vertex 37.6553 12.5327 12.9
    endloop
  endfacet
  facet normal 0.433884 -0.900969 0
    outer loop
      vertex 37.6553 12.5327 8.88178e-16
      vertex 39.3394 13.3437 8.88178e-16
      vertex 37.6553 12.5327 12.9
    endloop
  endfacet
  facet normal 0 -1 0
    outer loop
      vertex 41.2086 13.3437 8.88178e-16
      vertex 41.2086 13.3437 12.9
      vertex 39.3394 13.3437 12.9
    endloop
  endfacet
  facet normal 0 -1 0
    outer loop
      vertex 39.3394 13.3437 8.88178e-16
      vertex 41.2086 13.3437 8.88178e-16
      vertex 39.3394 13.3437 12.9
    endloop
  endfacet
  facet normal -0.433884 -0.900969 0
    outer loop
      vertex 42.8927 12.5327 8.88178e-16
      vertex 42.8927 12.5327 12.9
      vertex 41.2086 13.3437 12.9
    endloop
  endfacet
  facet normal -0.433884 -0.900969 0
    outer loop
      vertex 41.2086 13.3437 8.88178e-16
      vertex 42.8927 12.5327 8.88178e-16
      vertex 41.2086 13.3437 12.9
    endloop
  endfacet
  facet normal -0.781831 -0.62349 0
    outer loop
      vertex 44.0581 11.0713 12.9
      vertex 42.8927 12.5327 12.9
      vertex 44.0581 11.0713 8.88178e-16
    endloop
  endfacet
  facet normal -0.781831 -0.62349 0
    outer loop
      vertex 44.0581 11.0713 8.88178e-16
      vertex 42.8927 12.5327 12.9
      vertex 42.8927 12.5327 8.88178e-16
    endloop
  endfacet
  facet normal -0.974928 -0.222521 0
    outer loop
      vertex 44.474 9.249 12.9
      vertex 44.0581 11.0713 12.9
      vertex 44.474 9.249 8.88178e-16
    endloop
  endfacet
  facet normal -0.974928 -0.222521 0
    outer loop
      vertex 44.474 9.249 8.88178e-16
      vertex 44.0581 11.0713 12.9
      vertex 44.0581 11.0713 8.88178e-16
    endloop
  endfacet
  facet normal -0.974928 0.222521 0
    outer loop
      vertex 44.474 9.249 12.9
      vertex 44.474 9.249 8.88178e-16
      vertex 44.0581 7.42669 12.9
    endloop
  endfacet
  facet normal -0.974928 0.222521 0
    outer loop
      vertex 44.0581 7.42669 12.9
      vertex 44.474 9.249 8.88178e-16
      vertex 44.0581 7.42669 8.88178e-16
    endloop
  endfacet
  facet normal -0.781831 0.62349 0
    outer loop
      vertex 44.0581 7.42669 12.9
      vertex 44.0581 7.42669 8.88178e-16
      vertex 42.8927 5.96531 12.9
    endloop
  endfacet
  facet normal -0.781831 0.62349 0
    outer loop
      vertex 42.8927 5.96531 12.9
      vertex 44.0581 7.42669 8.88178e-16
      vertex 42.8927 5.96531 8.88178e-16
    endloop
  endfacet
  facet normal -0.433884 0.900969 0
    outer loop
      vertex 42.8927 5.96531 12.9
      vertex 42.8927 5.96531 8.88178e-16
      vertex 41.2086 5.1543 12.9
    endloop
  endfacet
  facet normal -0.433884 0.900969 0
    outer loop
      vertex 41.2086 5.1543 12.9
      vertex 42.8927 5.96531 8.88178e-16
      vertex 41.2086 5.1543 8.88178e-16
    endloop
  endfacet
  facet normal 0 1 0
    outer loop
      vertex 41.2086 5.1543 12.9
      vertex 41.2086 5.1543 8.88178e-16
      vertex 39.3394 5.1543 12.9
    endloop
  endfacet
  facet normal 0 1 0
    outer loop
      vertex 39.3394 5.1543 12.9
      vertex 41.2086 5.1543 8.88178e-16
      vertex 39.3394 5.1543 8.88178e-16
    endloop
  endfacet
  facet normal 0.433884 0.900969 0
    outer loop
      vertex 39.3394 5.1543 12.9
      vertex 39.3394 5.1543 8.88178e-16
      vertex 37.6553 5.96531 12.9
    endloop
  endfacet
  facet normal 0.433884 0.900969 0
    outer loop
      vertex 37.6553 5.96531 12.9
      vertex 39.3394 5.1543 8.88178e-16
      vertex 37.6553 5.96531 8.88178e-16
    endloop
  endfacet
  facet normal 0.781831 0.62349 0
    outer loop
      vertex 36.4899 7.42669 12.9
      vertex 37.6553 5.96531 12.9
      vertex 37.6553 5.96531 8.88178e-16
    endloop
  endfacet
  facet normal 0.781831 0.62349 0
    outer loop
      vertex 36.4899 7.42669 8.88178e-16
      vertex 36.4899 7.42669 12.9
      vertex 37.6553 5.96531 8.88178e-16
    endloop
  endfacet
  facet normal 0.866025 -0.5 -6.76245e-08
    outer loop
      vertex 25.0669 68.9431 4.74706
      vertex 25.0669 68.9431 8.15294
      vertex 10.195 43.1841 8.15294
    endloop
  endfacet
  facet normal 0.866025 -0.5 -6.76245e-08
    outer loop
      vertex 10.195 43.1841 4.74706
      vertex 25.0669 68.9431 4.74706
      vertex 10.195 43.1841 8.15294
    endloop
  endfacet
  facet normal 0.612372 -0.353553 0.707107
    outer loop
      vertex 12.2807 41.98 2.33874
      vertex 27.1526 67.7389 2.33874
      vertex 25.0669 68.9431 4.74706
    endloop
  endfacet
  facet normal 0.612372 -0.353553 0.707107
    outer loop
      vertex 10.195 43.1841 4.74706
      vertex 12.2807 41.98 2.33874
      vertex 25.0669 68.9431 4.74706
    endloop
  endfacet
  facet normal 5.85645e-08 -3.38122e-08 1
    outer loop
      vertex 15.2303 40.2772 2.33874
      vertex 30.1022 66.0361 2.33874
      vertex 27.1526 67.7389 2.33874
    endloop
  endfacet
  facet normal 5.85645e-08 -3.38122e-08 1
    outer loop
      vertex 12.2807 41.98 2.33874
      vertex 15.2303 40.2772 2.33874
      vertex 27.1526 67.7389 2.33874
    endloop
  endfacet
  facet normal -0.612372 0.353553 0.707107
    outer loop
      vertex 17.316 39.0731 4.74706
      vertex 32.1879 64.832 4.74706
      vertex 30.1022 66.0361 2.33874
    endloop
  endfacet
  facet normal -0.612372 0.353553 0.707107
    outer loop
      vertex 15.2303 40.2772 2.33874
      vertex 17.316 39.0731 4.74706
      vertex 30.1022 66.0361 2.33874
    endloop
  endfacet
  facet normal -0.866025 0.5 6.76245e-08
    outer loop
      vertex 32.1879 64.832 8.15294
      vertex 32.1879 64.832 4.74706
      vertex 17.316 39.0731 8.15294
    endloop
  endfacet
  facet normal -0.866025 0.5 6.76245e-08
    outer loop
      vertex 17.316 39.0731 8.15294
      vertex 32.1879 64.832 4.74706
      vertex 17.316 39.0731 4.74706
    endloop
  endfacet
  facet normal -0.612372 0.353553 -0.707107
    outer loop
      vertex 32.1879 64.832 8.15294
      vertex 17.316 39.0731 8.15294
      vertex 30.1022 66.0361 10.5613
    endloop
  endfacet
  facet normal -0.612372 0.353553 -0.707107
    outer loop
      vertex 30.1022 66.0361 10.5613
      vertex 17.316 39.0731 8.15294
      vertex 15.2303 40.2772 10.5613
    endloop
  endfacet
  facet normal -5.85645e-08 3.38122e-08 -1
    outer loop
      vertex 30.1022 66.0361 10.5613
      vertex 15.2303 40.2772 10.5613
      vertex 27.1526 67.7389 10.5613
    endloop
  endfacet
  facet normal -5.85645e-08 3.38122e-08 -1
    outer loop
      vertex 27.1526 67.7389 10.5613
      vertex 15.2303 40.2772 10.5613
      vertex 12.2807 41.98 10.5613
    endloop
  endfacet
  facet normal 0.612372 -0.353553 -0.707107
    outer loop
      vertex 27.1526 67.7389 10.5613
      vertex 12.2807 41.98 10.5613
      vertex 25.0669 68.9431 8.15294
    endloop
  endfacet
  facet normal 0.612372 -0.353553 -0.707107
    outer loop
      vertex 25.0669 68.9431 8.15294
      vertex 12.2807 41.98 10.5613
      vertex 10.195 43.1841 8.15294
    endloop
  endfacet
  facet normal -4.32964e-17 0.707107 -0.707107
    outer loop
      vertex 55.351 19.2971 10.5613
      vertex 55.351 16.8887 8.15294
      vertex 25.199 19.2971 10.5613
    endloop
  endfacet
  facet normal -4.32964e-17 0.707107 -0.707107
    outer loop
      vertex 25.199 19.2971 10.5613
      vertex 55.351 16.8887 8.15294
      vertex 25.199 16.8887 8.15294
    endloop
  endfacet
  facet normal 4.14067e-24 1 6.76245e-08
    outer loop
      vertex 55.351 16.8887 4.74706
      vertex 25.199 16.8887 4.74706
      vertex 55.351 16.8887 8.15294
    endloop
  endfacet
  facet normal 4.14067e-24 1 6.76245e-08
    outer loop
      vertex 55.351 16.8887 8.15294
      vertex 25.199 16.8887 4.74706
      vertex 25.199 16.8887 8.15294
    endloop
  endfacet
  facet normal -6.12303e-17 6.76245e-08 -1
    outer loop
      vertex 55.351 22.7029 10.5613
      vertex 55.351 19.2971 10.5613
      vertex 25.199 22.7029 10.5613
    endloop
  endfacet
  facet normal -6.12303e-17 6.76245e-08 -1
    outer loop
      vertex 25.199 22.7029 10.5613
      vertex 55.351 19.2971 10.5613
      vertex 25.199 19.2971 10.5613
    endloop
  endfacet
  facet normal -4.32964e-17 -0.707107 -0.707107
    outer loop
      vertex 25.199 25.1113 8.15294
      vertex 55.351 25.1113 8.15294
      vertex 55.351 22.7029 10.5613
    endloop
  endfacet
  facet normal -4.32964e-17 -0.707107 -0.707107
    outer loop
      vertex 25.199 22.7029 10.5613
      vertex 25.199 25.1113 8.15294
      vertex 55.351 22.7029 10.5613
    endloop
  endfacet
  facet normal -4.14067e-24 -1 -6.76245e-08
    outer loop
      vertex 25.199 25.1113 4.74706
      vertex 55.351 25.1113 4.74706
      vertex 55.351 25.1113 8.15294
    endloop
  endfacet
  facet normal -4.14067e-24 -1 -6.76245e-08
    outer loop
      vertex 25.199 25.1113 8.15294
      vertex 25.199 25.1113 4.74706
      vertex 55.351 25.1113 8.15294
    endloop
  endfacet
  facet normal 4.32964e-17 -0.707107 0.707107
    outer loop
      vertex 55.351 22.7029 2.33874
      vertex 55.351 25.1113 4.74706
      vertex 25.199 25.1113 4.74706
    endloop
  endfacet
  facet normal 4.32964e-17 -0.707107 0.707107
    outer loop
      vertex 25.199 22.7029 2.33874
      vertex 55.351 22.7029 2.33874
      vertex 25.199 25.1113 4.74706
    endloop
  endfacet
  facet normal 6.12303e-17 -6.76245e-08 1
    outer loop
      vertex 55.351 19.2971 2.33874
      vertex 55.351 22.7029 2.33874
      vertex 25.199 22.7029 2.33874
    endloop
  endfacet
  facet normal 6.12303e-17 -6.76245e-08 1
    outer loop
      vertex 25.199 19.2971 2.33874
      vertex 55.351 19.2971 2.33874
      vertex 25.199 22.7029 2.33874
    endloop
  endfacet
  facet normal 4.32964e-17 0.707107 0.707107
    outer loop
      vertex 55.351 19.2971 2.33874
      vertex 25.199 19.2971 2.33874
      vertex 55.351 16.8887 4.74706
    endloop
  endfacet
  facet normal 4.32964e-17 0.707107 0.707107
    outer loop
      vertex 55.351 16.8887 4.74706
      vertex 25.199 19.2971 2.33874
      vertex 25.199 16.8887 4.74706
    endloop
  endfacet
endsolid OpenSCAD_Model
