solid OpenSCAD_Model
  facet normal -0.866045 0.499966 0.000000
    outer loop
      vertex 0.000000 59.201000 0.000000
      vertex 0.000000 59.201000 12.900000
      vertex 5.986000 69.570000 0.000000
    endloop
  endfacet
  facet normal -0.866045 0.499966 0.000000
    outer loop
      vertex 5.986000 69.570000 0.000000
      vertex 0.000000 59.201000 12.900000
      vertex 5.986000 69.570000 12.900000
    endloop
  endfacet
  facet normal -0.962595 -0.270946 -0.000000
    outer loop
      vertex 0.000000 59.201000 0.000000
      vertex 3.405000 47.104000 0.000000
      vertex 0.000000 59.201000 12.900000
    endloop
  endfacet
  facet normal -0.962595 -0.270946 0.000000
    outer loop
      vertex 0.000000 59.201000 12.900000
      vertex 3.405000 47.104000 0.000000
      vertex 3.405000 47.104000 12.900000
    endloop
  endfacet
  facet normal -0.000000 0.000000 -1.000000
    outer loop
      vertex 0.000000 59.201000 0.000000
      vertex 5.986000 69.570000 0.000000
      vertex 3.405000 47.104000 0.000000
    endloop
  endfacet
  facet normal 0.000000 -0.000000 -1.000000
    outer loop
      vertex 10.078412 64.006697 0.000000
      vertex 5.986000 69.570000 0.000000
      vertex 18.277000 72.863000 0.000000
    endloop
  endfacet
  facet normal 0.000000 0.000000 -1.000000
    outer loop
      vertex 14.797069 58.089688 0.000000
      vertex 18.277000 72.863000 0.000000
      vertex 38.110000 61.413000 0.000000
    endloop
  endfacet
  facet normal -0.000000 0.000000 -1.000000
    outer loop
      vertex 35.548000 58.851000 0.000000
      vertex 38.110000 61.413000 0.000000
      vertex 55.351000 31.551000 0.000000
    endloop
  endfacet
  facet normal -0.000000 0.000000 -1.000000
    outer loop
      vertex 51.851000 29.500000 0.000000
      vertex 55.351000 31.551000 0.000000
      vertex 55.351000 9.050000 0.000000
    endloop
  endfacet
  facet normal -0.000000 0.000000 -1.000000
    outer loop
      vertex 42.892657 5.965308 0.000000
      vertex 55.351000 9.050000 0.000000
      vertex 46.301000 0.000000 0.000000
    endloop
  endfacet
  facet normal 0.000000 0.000000 -1.000000
    outer loop
      vertex 39.339412 5.154303 0.000000
      vertex 46.301000 0.000000 0.000000
      vertex 41.141376 0.000000 0.000000
    endloop
  endfacet
  facet normal 0.000000 0.000000 -1.000000
    outer loop
      vertex 41.020956 -9.702941 0.000000
      vertex 41.141376 -9.783498 0.000000
      vertex 41.141376 -17.000000 0.000000
    endloop
  endfacet
  facet normal 0.000000 0.000000 -1.000000
    outer loop
      vertex 25.199000 29.471000 0.000000
      vertex 36.489931 11.071312 0.000000
      vertex 36.074000 9.249000 0.000000
    endloop
  endfacet
  facet normal 0.000000 0.000000 -1.000000
    outer loop
      vertex 41.020956 -9.702941 0.000000
      vertex 41.141376 -17.000000 0.000000
      vertex 32.600000 1.779000 0.000000
    endloop
  endfacet
  facet normal 0.000000 0.000000 -1.000000
    outer loop
      vertex 51.851000 29.500000 0.000000
      vertex 55.351000 9.050000 0.000000
      vertex 29.237000 29.500000 0.000000
    endloop
  endfacet
  facet normal 0.000000 0.000000 -1.000000
    outer loop
      vertex 3.405000 47.104000 0.000000
      vertex 5.986000 69.570000 0.000000
      vertex 6.813000 59.912000 0.000000
    endloop
  endfacet
  facet normal 0.000000 0.000000 -1.000000
    outer loop
      vertex 39.339412 5.154303 0.000000
      vertex 41.141376 0.000000 0.000000
      vertex 37.655343 5.965308 0.000000
    endloop
  endfacet
  facet normal 0.000000 0.000000 -1.000000
    outer loop
      vertex 3.405000 47.104000 0.000000
      vertex 6.813000 59.912000 0.000000
      vertex 7.228931 58.089688 0.000000
    endloop
  endfacet
  facet normal 0.000000 0.000000 -1.000000
    outer loop
      vertex 3.405000 47.104000 0.000000
      vertex 7.228931 58.089688 0.000000
      vertex 8.394343 56.628308 0.000000
    endloop
  endfacet
  facet normal -0.000000 0.000000 -1.000000
    outer loop
      vertex 13.631657 56.628308 0.000000
      vertex 38.110000 61.413000 0.000000
      vertex 11.947588 55.817303 0.000000
    endloop
  endfacet
  facet normal 0.000000 0.000000 -1.000000
    outer loop
      vertex 3.405000 47.104000 0.000000
      vertex 10.078412 55.817303 0.000000
      vertex 11.947588 55.817303 0.000000
    endloop
  endfacet
  facet normal 0.000000 0.000000 -1.000000
    outer loop
      vertex 3.405000 47.104000 0.000000
      vertex 11.947588 55.817303 0.000000
      vertex 38.110000 61.413000 0.000000
    endloop
  endfacet
  facet normal -0.000000 0.000000 -1.000000
    outer loop
      vertex 11.947588 64.006697 0.000000
      vertex 18.277000 72.863000 0.000000
      vertex 13.631657 63.195692 0.000000
    endloop
  endfacet
  facet normal -0.000000 0.000000 -1.000000
    outer loop
      vertex 14.797069 61.734312 0.000000
      vertex 18.277000 72.863000 0.000000
      vertex 15.213000 59.912000 0.000000
    endloop
  endfacet
  facet normal -0.000000 0.000000 -1.000000
    outer loop
      vertex 15.213000 59.912000 0.000000
      vertex 18.277000 72.863000 0.000000
      vertex 14.797069 58.089688 0.000000
    endloop
  endfacet
  facet normal 0.000000 0.000000 -1.000000
    outer loop
      vertex 13.631657 56.628308 0.000000
      vertex 14.797069 58.089688 0.000000
      vertex 38.110000 61.413000 0.000000
    endloop
  endfacet
  facet normal -0.000000 0.000000 -1.000000
    outer loop
      vertex 13.631657 63.195692 0.000000
      vertex 18.277000 72.863000 0.000000
      vertex 14.797069 61.734312 0.000000
    endloop
  endfacet
  facet normal -0.000000 0.000000 -1.000000
    outer loop
      vertex 10.078412 64.006697 0.000000
      vertex 18.277000 72.863000 0.000000
      vertex 11.947588 64.006697 0.000000
    endloop
  endfacet
  facet normal 0.000000 -0.000000 -1.000000
    outer loop
      vertex 8.394343 63.195692 0.000000
      vertex 5.986000 69.570000 0.000000
      vertex 10.078412 64.006697 0.000000
    endloop
  endfacet
  facet normal 0.000000 -0.000000 -1.000000
    outer loop
      vertex 22.892000 40.348000 0.000000
      vertex 3.405000 47.104000 0.000000
      vertex 34.067000 59.706000 0.000000
    endloop
  endfacet
  facet normal 0.000000 -0.000000 -1.000000
    outer loop
      vertex 7.228931 61.734312 0.000000
      vertex 5.986000 69.570000 0.000000
      vertex 8.394343 63.195692 0.000000
    endloop
  endfacet
  facet normal 0.000000 -0.000000 -1.000000
    outer loop
      vertex 6.813000 59.912000 0.000000
      vertex 5.986000 69.570000 0.000000
      vertex 7.228931 61.734312 0.000000
    endloop
  endfacet
  facet normal 0.000000 0.000000 -1.000000
    outer loop
      vertex 29.237000 29.500000 0.000000
      vertex 20.739000 37.097000 0.000000
      vertex 22.892000 40.348000 0.000000
    endloop
  endfacet
  facet normal 0.000000 0.000000 -1.000000
    outer loop
      vertex 3.405000 47.104000 0.000000
      vertex 22.892000 40.348000 0.000000
      vertex 20.739000 37.097000 0.000000
    endloop
  endfacet
  facet normal 0.000000 0.000000 -1.000000
    outer loop
      vertex 10.078412 55.817303 0.000000
      vertex 3.405000 47.104000 0.000000
      vertex 8.394343 56.628308 0.000000
    endloop
  endfacet
  facet normal -0.000000 0.000000 -1.000000
    outer loop
      vertex 51.851000 30.613000 0.000000
      vertex 55.351000 31.551000 0.000000
      vertex 51.851000 29.500000 0.000000
    endloop
  endfacet
  facet normal -0.000000 0.000000 -1.000000
    outer loop
      vertex 34.067000 59.706000 0.000000
      vertex 38.110000 61.413000 0.000000
      vertex 35.548000 58.851000 0.000000
    endloop
  endfacet
  facet normal 0.000000 0.000000 -1.000000
    outer loop
      vertex 3.405000 47.104000 0.000000
      vertex 38.110000 61.413000 0.000000
      vertex 34.067000 59.706000 0.000000
    endloop
  endfacet
  facet normal 0.000000 0.000000 -1.000000
    outer loop
      vertex 42.892657 5.965308 0.000000
      vertex 46.301000 0.000000 0.000000
      vertex 41.208588 5.154303 0.000000
    endloop
  endfacet
  facet normal 0.000000 0.000000 -1.000000
    outer loop
      vertex 36.489931 7.426688 0.000000
      vertex 37.655343 5.965308 0.000000
      vertex 41.141376 0.000000 0.000000
    endloop
  endfacet
  facet normal 0.000000 0.000000 -1.000000
    outer loop
      vertex 41.208588 5.154303 0.000000
      vertex 46.301000 0.000000 0.000000
      vertex 39.339412 5.154303 0.000000
    endloop
  endfacet
  facet normal 0.000000 0.000000 -1.000000
    outer loop
      vertex 35.548000 58.851000 0.000000
      vertex 55.351000 31.551000 0.000000
      vertex 51.851000 30.613000 0.000000
    endloop
  endfacet
  facet normal -0.000000 0.000000 -1.000000
    outer loop
      vertex 44.058069 7.426688 0.000000
      vertex 55.351000 9.050000 0.000000
      vertex 42.892657 5.965308 0.000000
    endloop
  endfacet
  facet normal -0.000000 -0.000000 -1.000000
    outer loop
      vertex 41.208588 13.343697 0.000000
      vertex 25.199000 29.471000 0.000000
      vertex 42.892657 12.532692 0.000000
    endloop
  endfacet
  facet normal 0.000000 0.000000 -1.000000
    outer loop
      vertex 44.474000 9.249000 0.000000
      vertex 55.351000 9.050000 0.000000
      vertex 44.058069 7.426688 0.000000
    endloop
  endfacet
  facet normal 0.000000 0.000000 -1.000000
    outer loop
      vertex 44.058069 11.071312 0.000000
      vertex 55.351000 9.050000 0.000000
      vertex 44.474000 9.249000 0.000000
    endloop
  endfacet
  facet normal 0.000000 0.000000 -1.000000
    outer loop
      vertex 42.892657 12.532692 0.000000
      vertex 55.351000 9.050000 0.000000
      vertex 44.058069 11.071312 0.000000
    endloop
  endfacet
  facet normal 0.000000 0.000000 -1.000000
    outer loop
      vertex 25.199000 29.471000 0.000000
      vertex 55.351000 9.050000 0.000000
      vertex 42.892657 12.532692 0.000000
    endloop
  endfacet
  facet normal -0.000000 -0.000000 -1.000000
    outer loop
      vertex 39.339412 13.343697 0.000000
      vertex 25.199000 29.471000 0.000000
      vertex 41.208588 13.343697 0.000000
    endloop
  endfacet
  facet normal 0.000000 -0.000000 -1.000000
    outer loop
      vertex 37.655343 12.532692 0.000000
      vertex 25.199000 29.471000 0.000000
      vertex 39.339412 13.343697 0.000000
    endloop
  endfacet
  facet normal 0.000000 -0.000000 -1.000000
    outer loop
      vertex 36.489931 11.071312 0.000000
      vertex 25.199000 29.471000 0.000000
      vertex 37.655343 12.532692 0.000000
    endloop
  endfacet
  facet normal 0.000000 0.000000 -1.000000
    outer loop
      vertex 29.237000 29.500000 0.000000
      vertex 55.351000 9.050000 0.000000
      vertex 25.199000 29.471000 0.000000
    endloop
  endfacet
  facet normal 0.000000 0.000000 -1.000000
    outer loop
      vertex 20.739000 37.097000 0.000000
      vertex 29.237000 29.500000 0.000000
      vertex 25.199000 29.471000 0.000000
    endloop
  endfacet
  facet normal 0.000000 0.000000 -1.000000
    outer loop
      vertex 32.600000 1.779000 0.000000
      vertex 41.141376 -17.000000 0.000000
      vertex 32.600000 -17.000000 0.000000
    endloop
  endfacet
  facet normal 0.000000 0.000000 -1.000000
    outer loop
      vertex 25.199000 29.471000 0.000000
      vertex 36.074000 9.249000 0.000000
      vertex 36.489931 7.426688 0.000000
    endloop
  endfacet
  facet normal 0.000000 0.000000 -1.000000
    outer loop
      vertex 36.489931 7.426688 0.000000
      vertex 41.141376 0.000000 0.000000
      vertex 41.141376 -6.216502 0.000000
    endloop
  endfacet
  facet normal 0.000000 0.000000 -1.000000
    outer loop
      vertex 25.199000 29.471000 0.000000
      vertex 36.489931 7.426688 0.000000
      vertex 41.141376 -6.216502 0.000000
    endloop
  endfacet
  facet normal 0.000000 0.000000 -1.000000
    outer loop
      vertex 25.199000 29.471000 0.000000
      vertex 41.141376 -6.216502 0.000000
      vertex 41.020956 -6.297059 0.000000
    endloop
  endfacet
  facet normal 0.000000 0.000000 -1.000000
    outer loop
      vertex 25.199000 29.471000 0.000000
      vertex 41.020956 -6.297059 0.000000
      vertex 41.020956 -9.702941 0.000000
    endloop
  endfacet
  facet normal 0.000000 0.000000 -1.000000
    outer loop
      vertex 25.199000 29.471000 0.000000
      vertex 41.020956 -9.702941 0.000000
      vertex 32.600000 1.779000 0.000000
    endloop
  endfacet
  facet normal 0.000000 0.000000 -1.000000
    outer loop
      vertex 25.199000 29.471000 0.000000
      vertex 32.600000 1.779000 0.000000
      vertex 25.199000 9.180000 0.000000
    endloop
  endfacet
  facet normal -0.258792 0.965933 0.000000
    outer loop
      vertex 5.986000 69.570000 0.000000
      vertex 5.986000 69.570000 12.900000
      vertex 18.277000 72.863000 0.000000
    endloop
  endfacet
  facet normal -0.258792 0.965933 0.000000
    outer loop
      vertex 18.277000 72.863000 0.000000
      vertex 5.986000 69.570000 12.900000
      vertex 18.277000 72.863000 12.900000
    endloop
  endfacet
  facet normal 0.000000 0.000000 1.000000
    outer loop
      vertex 5.986000 69.570000 12.900000
      vertex 0.000000 59.201000 12.900000
      vertex 3.405000 47.104000 12.900000
    endloop
  endfacet
  facet normal 0.000000 -0.000000 1.000000
    outer loop
      vertex 51.851000 29.500000 12.900000
      vertex 41.208588 13.343697 12.900000
      vertex 55.351000 9.050000 12.900000
    endloop
  endfacet
  facet normal -0.000000 0.000000 1.000000
    outer loop
      vertex 6.813000 59.912000 12.900000
      vertex 5.986000 69.570000 12.900000
      vertex 3.405000 47.104000 12.900000
    endloop
  endfacet
  facet normal 0.000000 -0.000000 1.000000
    outer loop
      vertex 13.631657 56.628308 12.900000
      vertex 11.947588 55.817303 12.900000
      vertex 20.739000 37.097000 12.900000
    endloop
  endfacet
  facet normal 0.000000 0.000000 1.000000
    outer loop
      vertex 34.379000 0.000000 12.900000
      vertex 25.199000 29.471000 12.900000
      vertex 25.199000 9.180000 12.900000
    endloop
  endfacet
  facet normal -0.000000 0.000000 1.000000
    outer loop
      vertex 38.858624 0.000000 12.900000
      vertex 25.199000 29.471000 12.900000
      vertex 34.379000 0.000000 12.900000
    endloop
  endfacet
  facet normal 0.000000 0.000000 1.000000
    outer loop
      vertex 47.600000 -17.000000 12.900000
      vertex 25.199000 29.471000 12.900000
      vertex 38.858624 0.000000 12.900000
    endloop
  endfacet
  facet normal 0.000000 0.000000 1.000000
    outer loop
      vertex 38.979044 -6.297059 12.900000
      vertex 38.858624 0.000000 12.900000
      vertex 38.858624 -6.216502 12.900000
    endloop
  endfacet
  facet normal 0.000000 0.000000 1.000000
    outer loop
      vertex 47.600000 -17.000000 12.900000
      vertex 38.858624 0.000000 12.900000
      vertex 38.979044 -6.297059 12.900000
    endloop
  endfacet
  facet normal 0.000000 0.000000 1.000000
    outer loop
      vertex 47.600000 -17.000000 12.900000
      vertex 38.979044 -6.297059 12.900000
      vertex 38.979044 -9.702941 12.900000
    endloop
  endfacet
  facet normal 0.000000 0.000000 1.000000
    outer loop
      vertex 38.858624 -17.000000 12.900000
      vertex 38.979044 -9.702941 12.900000
      vertex 38.858624 -9.783498 12.900000
    endloop
  endfacet
  facet normal 0.000000 0.000000 1.000000
    outer loop
      vertex 38.858624 -17.000000 12.900000
      vertex 47.600000 -17.000000 12.900000
      vertex 38.979044 -9.702941 12.900000
    endloop
  endfacet
  facet normal 0.000000 0.000000 1.000000
    outer loop
      vertex 22.892000 40.348000 12.900000
      vertex 14.797069 61.734312 12.900000
      vertex 15.213000 59.912000 12.900000
    endloop
  endfacet
  facet normal 0.000000 -0.000000 1.000000
    outer loop
      vertex 18.277000 72.863000 12.900000
      vertex 5.986000 69.570000 12.900000
      vertex 38.110000 61.413000 12.900000
    endloop
  endfacet
  facet normal 0.000000 0.000000 1.000000
    outer loop
      vertex 20.739000 37.097000 12.900000
      vertex 7.228931 58.089688 12.900000
      vertex 3.405000 47.104000 12.900000
    endloop
  endfacet
  facet normal -0.000000 0.000000 1.000000
    outer loop
      vertex 7.228931 58.089688 12.900000
      vertex 6.813000 59.912000 12.900000
      vertex 3.405000 47.104000 12.900000
    endloop
  endfacet
  facet normal -0.000000 0.000000 1.000000
    outer loop
      vertex 8.394343 63.195692 12.900000
      vertex 5.986000 69.570000 12.900000
      vertex 7.228931 61.734312 12.900000
    endloop
  endfacet
  facet normal 0.000000 0.000000 1.000000
    outer loop
      vertex 13.631657 56.628308 12.900000
      vertex 25.199000 29.471000 12.900000
      vertex 47.600000 -17.000000 12.900000
    endloop
  endfacet
  facet normal 0.000000 0.000000 1.000000
    outer loop
      vertex 36.074000 9.249000 12.900000
      vertex 36.489931 11.071312 12.900000
      vertex 22.892000 40.348000 12.900000
    endloop
  endfacet
  facet normal 0.000000 0.000000 1.000000
    outer loop
      vertex 13.631657 63.195692 12.900000
      vertex 5.986000 69.570000 12.900000
      vertex 11.947588 64.006697 12.900000
    endloop
  endfacet
  facet normal 0.000000 0.000000 1.000000
    outer loop
      vertex 35.548000 58.851000 12.900000
      vertex 51.851000 30.613000 12.900000
      vertex 55.351000 31.551000 12.900000
    endloop
  endfacet
  facet normal 0.000000 0.000000 1.000000
    outer loop
      vertex 14.797069 61.734312 12.900000
      vertex 34.067000 59.706000 12.900000
      vertex 13.631657 63.195692 12.900000
    endloop
  endfacet
  facet normal 0.000000 0.000000 1.000000
    outer loop
      vertex 13.631657 63.195692 12.900000
      vertex 34.067000 59.706000 12.900000
      vertex 5.986000 69.570000 12.900000
    endloop
  endfacet
  facet normal 0.000000 0.000000 1.000000
    outer loop
      vertex 22.892000 40.348000 12.900000
      vertex 14.797069 58.089688 12.900000
      vertex 13.631657 56.628308 12.900000
    endloop
  endfacet
  facet normal -0.000000 -0.000000 1.000000
    outer loop
      vertex 36.489931 7.426688 12.900000
      vertex 13.631657 56.628308 12.900000
      vertex 47.600000 -17.000000 12.900000
    endloop
  endfacet
  facet normal 0.000000 0.000000 1.000000
    outer loop
      vertex 10.078412 64.006697 12.900000
      vertex 11.947588 64.006697 12.900000
      vertex 5.986000 69.570000 12.900000
    endloop
  endfacet
  facet normal 0.000000 0.000000 1.000000
    outer loop
      vertex 20.739000 37.097000 12.900000
      vertex 8.394343 56.628308 12.900000
      vertex 7.228931 58.089688 12.900000
    endloop
  endfacet
  facet normal 0.000000 0.000000 1.000000
    outer loop
      vertex 20.739000 37.097000 12.900000
      vertex 10.078412 55.817303 12.900000
      vertex 8.394343 56.628308 12.900000
    endloop
  endfacet
  facet normal -0.000000 -0.000000 1.000000
    outer loop
      vertex 37.655343 5.965308 12.900000
      vertex 36.489931 7.426688 12.900000
      vertex 47.600000 -17.000000 12.900000
    endloop
  endfacet
  facet normal -0.000000 0.000000 1.000000
    outer loop
      vertex 38.110000 61.413000 12.900000
      vertex 5.986000 69.570000 12.900000
      vertex 34.067000 59.706000 12.900000
    endloop
  endfacet
  facet normal 0.000000 -0.000000 1.000000
    outer loop
      vertex 38.110000 61.413000 12.900000
      vertex 35.548000 58.851000 12.900000
      vertex 55.351000 31.551000 12.900000
    endloop
  endfacet
  facet normal 0.000000 0.000000 1.000000
    outer loop
      vertex 38.110000 61.413000 12.900000
      vertex 34.067000 59.706000 12.900000
      vertex 35.548000 58.851000 12.900000
    endloop
  endfacet
  facet normal 0.000000 0.000000 1.000000
    outer loop
      vertex 55.351000 31.551000 12.900000
      vertex 51.851000 30.613000 12.900000
      vertex 55.351000 9.050000 12.900000
    endloop
  endfacet
  facet normal 0.000000 -0.000000 1.000000
    outer loop
      vertex 51.851000 30.613000 12.900000
      vertex 51.851000 29.500000 12.900000
      vertex 55.351000 9.050000 12.900000
    endloop
  endfacet
  facet normal -0.000000 -0.000000 1.000000
    outer loop
      vertex 22.892000 40.348000 12.900000
      vertex 13.631657 56.628308 12.900000
      vertex 36.489931 7.426688 12.900000
    endloop
  endfacet
  facet normal 0.000000 0.000000 1.000000
    outer loop
      vertex 22.892000 40.348000 12.900000
      vertex 36.489931 7.426688 12.900000
      vertex 36.074000 9.249000 12.900000
    endloop
  endfacet
  facet normal 0.000000 0.000000 1.000000
    outer loop
      vertex 39.339412 13.343697 12.900000
      vertex 41.208588 13.343697 12.900000
      vertex 29.237000 29.500000 12.900000
    endloop
  endfacet
  facet normal -0.000000 -0.000000 1.000000
    outer loop
      vertex 29.237000 29.500000 12.900000
      vertex 22.892000 40.348000 12.900000
      vertex 36.489931 11.071312 12.900000
    endloop
  endfacet
  facet normal -0.000000 -0.000000 1.000000
    outer loop
      vertex 39.339412 5.154303 12.900000
      vertex 37.655343 5.965308 12.900000
      vertex 47.600000 -17.000000 12.900000
    endloop
  endfacet
  facet normal -0.000000 0.000000 1.000000
    outer loop
      vertex 39.339412 13.343697 12.900000
      vertex 29.237000 29.500000 12.900000
      vertex 37.655343 12.532692 12.900000
    endloop
  endfacet
  facet normal 0.000000 -0.000000 1.000000
    outer loop
      vertex 41.208588 5.154303 12.900000
      vertex 39.339412 5.154303 12.900000
      vertex 47.600000 -17.000000 12.900000
    endloop
  endfacet
  facet normal 0.000000 -0.000000 1.000000
    outer loop
      vertex 44.474000 9.249000 12.900000
      vertex 44.058069 7.426688 12.900000
      vertex 47.600000 1.299000 12.900000
    endloop
  endfacet
  facet normal 0.000000 0.000000 1.000000
    outer loop
      vertex 22.892000 40.348000 12.900000
      vertex 15.213000 59.912000 12.900000
      vertex 14.797069 58.089688 12.900000
    endloop
  endfacet
  facet normal 0.000000 -0.000000 1.000000
    outer loop
      vertex 44.058069 7.426688 12.900000
      vertex 42.892657 5.965308 12.900000
      vertex 47.600000 1.299000 12.900000
    endloop
  endfacet
  facet normal 0.000000 0.000000 1.000000
    outer loop
      vertex 55.351000 9.050000 12.900000
      vertex 41.208588 13.343697 12.900000
      vertex 42.892657 12.532692 12.900000
    endloop
  endfacet
  facet normal -0.000000 0.000000 1.000000
    outer loop
      vertex 55.351000 9.050000 12.900000
      vertex 44.058069 11.071312 12.900000
      vertex 47.600000 1.299000 12.900000
    endloop
  endfacet
  facet normal 0.000000 0.000000 1.000000
    outer loop
      vertex 55.351000 9.050000 12.900000
      vertex 42.892657 12.532692 12.900000
      vertex 44.058069 11.071312 12.900000
    endloop
  endfacet
  facet normal 0.000000 0.000000 1.000000
    outer loop
      vertex 44.058069 11.071312 12.900000
      vertex 44.474000 9.249000 12.900000
      vertex 47.600000 1.299000 12.900000
    endloop
  endfacet
  facet normal 0.000000 0.000000 1.000000
    outer loop
      vertex 13.631657 56.628308 12.900000
      vertex 20.739000 37.097000 12.900000
      vertex 25.199000 29.471000 12.900000
    endloop
  endfacet
  facet normal -0.000000 0.000000 1.000000
    outer loop
      vertex 47.600000 1.299000 12.900000
      vertex 42.892657 5.965308 12.900000
      vertex 47.600000 -17.000000 12.900000
    endloop
  endfacet
  facet normal 0.000000 -0.000000 1.000000
    outer loop
      vertex 42.892657 5.965308 12.900000
      vertex 41.208588 5.154303 12.900000
      vertex 47.600000 -17.000000 12.900000
    endloop
  endfacet
  facet normal 0.000000 0.000000 1.000000
    outer loop
      vertex 36.489931 11.071312 12.900000
      vertex 37.655343 12.532692 12.900000
      vertex 29.237000 29.500000 12.900000
    endloop
  endfacet
  facet normal 0.000000 0.000000 1.000000
    outer loop
      vertex 6.813000 59.912000 12.900000
      vertex 7.228931 61.734312 12.900000
      vertex 5.986000 69.570000 12.900000
    endloop
  endfacet
  facet normal 0.000000 -0.000000 1.000000
    outer loop
      vertex 11.947588 55.817303 12.900000
      vertex 10.078412 55.817303 12.900000
      vertex 20.739000 37.097000 12.900000
    endloop
  endfacet
  facet normal 0.000000 0.000000 1.000000
    outer loop
      vertex 8.394343 63.195692 12.900000
      vertex 10.078412 64.006697 12.900000
      vertex 5.986000 69.570000 12.900000
    endloop
  endfacet
  facet normal 0.000000 0.000000 1.000000
    outer loop
      vertex 51.851000 29.500000 12.900000
      vertex 29.237000 29.500000 12.900000
      vertex 41.208588 13.343697 12.900000
    endloop
  endfacet
  facet normal 0.000000 0.000000 1.000000
    outer loop
      vertex 22.892000 40.348000 12.900000
      vertex 34.067000 59.706000 12.900000
      vertex 14.797069 61.734312 12.900000
    endloop
  endfacet
  facet normal -0.499970 -0.866042 -0.000000
    outer loop
      vertex 15.230303 40.277197 2.338736
      vertex 3.405000 47.104000 0.000000
      vertex 20.739000 37.097000 0.000000
    endloop
  endfacet
  facet normal -0.499970 -0.866042 0.000000
    outer loop
      vertex 15.230303 40.277197 10.561264
      vertex 17.316013 39.073107 8.152941
      vertex 20.739000 37.097000 12.900000
    endloop
  endfacet
  facet normal -0.499970 -0.866042 0.000000
    outer loop
      vertex 3.405000 47.104000 12.900000
      vertex 3.405000 47.104000 0.000000
      vertex 10.194954 43.184127 4.747059
    endloop
  endfacet
  facet normal -0.499970 -0.866042 -0.000000
    outer loop
      vertex 12.280664 41.980037 10.561264
      vertex 3.405000 47.104000 12.900000
      vertex 10.194955 43.184127 8.152941
    endloop
  endfacet
  facet normal -0.499970 -0.866042 0.000000
    outer loop
      vertex 20.739000 37.097000 12.900000
      vertex 3.405000 47.104000 12.900000
      vertex 12.280664 41.980037 10.561264
    endloop
  endfacet
  facet normal -0.499970 -0.866042 -0.000000
    outer loop
      vertex 20.739000 37.097000 12.900000
      vertex 12.280664 41.980037 10.561264
      vertex 15.230303 40.277197 10.561264
    endloop
  endfacet
  facet normal -0.499970 -0.866042 0.000000
    outer loop
      vertex 20.739000 37.097000 12.900000
      vertex 17.316013 39.073107 8.152941
      vertex 20.739000 37.097000 0.000000
    endloop
  endfacet
  facet normal -0.499970 -0.866042 -0.000000
    outer loop
      vertex 17.316013 39.073107 8.152941
      vertex 17.316013 39.073107 4.747059
      vertex 20.739000 37.097000 0.000000
    endloop
  endfacet
  facet normal -0.499970 -0.866042 0.000000
    outer loop
      vertex 12.280664 41.980037 2.338736
      vertex 3.405000 47.104000 0.000000
      vertex 15.230303 40.277197 2.338736
    endloop
  endfacet
  facet normal -0.499970 -0.866042 -0.000000
    outer loop
      vertex 10.194954 43.184127 4.747059
      vertex 3.405000 47.104000 0.000000
      vertex 12.280664 41.980037 2.338736
    endloop
  endfacet
  facet normal -0.499970 -0.866042 0.000000
    outer loop
      vertex 10.194954 43.184127 4.747059
      vertex 10.194955 43.184127 8.152941
      vertex 3.405000 47.104000 12.900000
    endloop
  endfacet
  facet normal -0.499970 -0.866042 0.000000
    outer loop
      vertex 17.316013 39.073107 4.747059
      vertex 15.230303 40.277197 2.338736
      vertex 20.739000 37.097000 0.000000
    endloop
  endfacet
  facet normal -0.863212 -0.504842 -0.000000
    outer loop
      vertex 20.739000 37.097000 0.000000
      vertex 25.199000 29.471000 0.000000
      vertex 20.739000 37.097000 12.900000
    endloop
  endfacet
  facet normal -0.863212 -0.504842 0.000000
    outer loop
      vertex 20.739000 37.097000 12.900000
      vertex 25.199000 29.471000 0.000000
      vertex 25.199000 29.471000 12.900000
    endloop
  endfacet
  facet normal -1.000000 0.000000 0.000000
    outer loop
      vertex 25.199000 25.111264 4.747059
      vertex 25.199000 29.471000 0.000000
      vertex 25.199000 22.702941 2.338736
    endloop
  endfacet
  facet normal -1.000000 0.000000 -0.000000
    outer loop
      vertex 25.199000 22.702941 10.561264
      vertex 25.199000 9.180000 12.900000
      vertex 25.199000 29.471000 12.900000
    endloop
  endfacet
  facet normal -1.000000 0.000000 -0.000000
    outer loop
      vertex 25.199000 9.180000 0.000000
      vertex 25.199000 9.180000 12.900000
      vertex 25.199000 16.888736 4.747059
    endloop
  endfacet
  facet normal -1.000000 0.000000 0.000000
    outer loop
      vertex 25.199000 9.180000 0.000000
      vertex 25.199000 16.888736 4.747059
      vertex 25.199000 19.297059 2.338736
    endloop
  endfacet
  facet normal -1.000000 -0.000000 0.000000
    outer loop
      vertex 25.199000 9.180000 0.000000
      vertex 25.199000 19.297059 2.338736
      vertex 25.199000 29.471000 0.000000
    endloop
  endfacet
  facet normal -1.000000 -0.000000 0.000000
    outer loop
      vertex 25.199000 19.297059 2.338736
      vertex 25.199000 22.702941 2.338736
      vertex 25.199000 29.471000 0.000000
    endloop
  endfacet
  facet normal -1.000000 -0.000000 0.000000
    outer loop
      vertex 25.199000 22.702941 10.561264
      vertex 25.199000 29.471000 12.900000
      vertex 25.199000 25.111264 8.152941
    endloop
  endfacet
  facet normal -1.000000 0.000000 0.000000
    outer loop
      vertex 25.199000 29.471000 0.000000
      vertex 25.199000 25.111264 4.747059
      vertex 25.199000 29.471000 12.900000
    endloop
  endfacet
  facet normal -1.000000 0.000000 -0.000000
    outer loop
      vertex 25.199000 25.111264 4.747059
      vertex 25.199000 25.111264 8.152941
      vertex 25.199000 29.471000 12.900000
    endloop
  endfacet
  facet normal -1.000000 0.000000 -0.000000
    outer loop
      vertex 25.199000 19.297059 10.561264
      vertex 25.199000 9.180000 12.900000
      vertex 25.199000 22.702941 10.561264
    endloop
  endfacet
  facet normal -1.000000 0.000000 -0.000000
    outer loop
      vertex 25.199000 16.888736 8.152941
      vertex 25.199000 9.180000 12.900000
      vertex 25.199000 19.297059 10.561264
    endloop
  endfacet
  facet normal -1.000000 0.000000 0.000000
    outer loop
      vertex 25.199000 16.888736 4.747059
      vertex 25.199000 9.180000 12.900000
      vertex 25.199000 16.888736 8.152941
    endloop
  endfacet
  facet normal -0.707107 -0.707107 0.000000
    outer loop
      vertex 25.199000 9.180000 12.900000
      vertex 25.199000 9.180000 0.000000
      vertex 32.600000 1.779000 0.000000
    endloop
  endfacet
  facet normal -0.707107 -0.707107 0.000000
    outer loop
      vertex 34.379000 0.000000 7.922640
      vertex 25.199000 9.180000 12.900000
      vertex 32.600000 1.779000 5.945973
    endloop
  endfacet
  facet normal -0.707107 -0.707107 0.000000
    outer loop
      vertex 32.600000 1.779000 5.945973
      vertex 25.199000 9.180000 12.900000
      vertex 32.600000 1.779000 0.000000
    endloop
  endfacet
  facet normal -0.707107 -0.707107 0.000000
    outer loop
      vertex 34.379000 0.000000 12.900000
      vertex 25.199000 9.180000 12.900000
      vertex 34.379000 0.000000 7.922640
    endloop
  endfacet
  facet normal -1.000000 -0.000000 -0.000000
    outer loop
      vertex 32.600000 -17.000000 0.000000
      vertex 32.600000 -17.000000 5.945973
      vertex 32.600000 1.779000 0.000000
    endloop
  endfacet
  facet normal -1.000000 0.000000 0.000000
    outer loop
      vertex 32.600000 1.779000 0.000000
      vertex 32.600000 -17.000000 5.945973
      vertex 32.600000 1.779000 5.945973
    endloop
  endfacet
  facet normal 0.000000 -1.000000 0.000000
    outer loop
      vertex 32.600000 -17.000000 5.945973
      vertex 32.600000 -17.000000 0.000000
      vertex 41.141376 -17.000000 0.000000
    endloop
  endfacet
  facet normal 0.000000 -1.000000 0.000000
    outer loop
      vertex 47.600000 -17.000000 12.900000
      vertex 32.600000 -17.000000 5.945973
      vertex 47.600000 -17.000000 7.176249
    endloop
  endfacet
  facet normal 0.000000 -1.000000 0.000000
    outer loop
      vertex 47.600000 -17.000000 7.176249
      vertex 32.600000 -17.000000 5.945973
      vertex 41.141376 -17.000000 0.000000
    endloop
  endfacet
  facet normal 0.000000 -1.000000 0.000000
    outer loop
      vertex 38.858624 -17.000000 12.900000
      vertex 32.600000 -17.000000 5.945973
      vertex 47.600000 -17.000000 12.900000
    endloop
  endfacet
  facet normal 0.743294 -0.000000 -0.668965
    outer loop
      vertex 47.600000 -17.000000 7.176249
      vertex 42.698569 -12.111264 1.730215
      vertex 44.976984 -12.111264 4.261787
    endloop
  endfacet
  facet normal 0.743294 0.000000 -0.668965
    outer loop
      vertex 46.588067 -6.297059 6.051879
      vertex 47.600000 1.299000 7.176249
      vertex 46.588067 -9.702941 6.051879
    endloop
  endfacet
  facet normal 0.743294 -0.000000 -0.668965
    outer loop
      vertex 46.588067 -9.702941 6.051879
      vertex 47.600000 -17.000000 7.176249
      vertex 44.976984 -12.111264 4.261787
    endloop
  endfacet
  facet normal 0.743294 0.000000 -0.668965
    outer loop
      vertex 41.141376 -9.783498 0.000000
      vertex 42.698569 -12.111264 1.730215
      vertex 41.141376 -17.000000 0.000000
    endloop
  endfacet
  facet normal 0.743294 -0.000000 -0.668965
    outer loop
      vertex 44.976984 -3.888736 4.261787
      vertex 46.301000 0.000000 5.732916
      vertex 46.588067 -6.297059 6.051879
    endloop
  endfacet
  facet normal 0.743294 -0.000000 -0.668965
    outer loop
      vertex 42.698569 -3.888736 1.730215
      vertex 41.141376 0.000000 0.000000
      vertex 44.976984 -3.888736 4.261787
    endloop
  endfacet
  facet normal 0.743294 0.000000 -0.668965
    outer loop
      vertex 41.141376 -6.216502 0.000000
      vertex 41.141376 0.000000 0.000000
      vertex 42.698569 -3.888736 1.730215
    endloop
  endfacet
  facet normal 0.743294 -0.000000 -0.668965
    outer loop
      vertex 41.141376 0.000000 0.000000
      vertex 46.301000 0.000000 5.732916
      vertex 44.976984 -3.888736 4.261787
    endloop
  endfacet
  facet normal 0.743294 -0.000000 -0.668965
    outer loop
      vertex 46.301000 0.000000 5.732916
      vertex 47.600000 1.299000 7.176249
      vertex 46.588067 -6.297059 6.051879
    endloop
  endfacet
  facet normal 0.743294 0.000000 -0.668965
    outer loop
      vertex 47.600000 1.299000 7.176249
      vertex 47.600000 -17.000000 7.176249
      vertex 46.588067 -9.702941 6.051879
    endloop
  endfacet
  facet normal 0.743294 0.000000 -0.668965
    outer loop
      vertex 47.600000 -17.000000 7.176249
      vertex 41.141376 -17.000000 0.000000
      vertex 42.698569 -12.111264 1.730215
    endloop
  endfacet
  facet normal 0.473029 0.707107 0.525588
    outer loop
      vertex 42.698569 -12.111264 1.730215
      vertex 41.141376 -9.783498 0.000000
      vertex 35.023016 -12.111264 8.638213
    endloop
  endfacet
  facet normal 0.473029 0.707107 0.525588
    outer loop
      vertex 35.023016 -12.111264 8.638213
      vertex 41.141376 -9.783498 0.000000
      vertex 41.020956 -9.702941 0.000000
    endloop
  endfacet
  facet normal 0.473029 0.707107 0.525588
    outer loop
      vertex 35.023016 -12.111264 8.638213
      vertex 41.020956 -9.702941 0.000000
      vertex 33.411933 -9.702941 6.848121
    endloop
  endfacet
  facet normal 0.668965 -0.000000 0.743294
    outer loop
      vertex 41.020956 -9.702941 0.000000
      vertex 41.020956 -6.297059 0.000000
      vertex 33.411933 -6.297059 6.848121
    endloop
  endfacet
  facet normal 0.668965 -0.000000 0.743294
    outer loop
      vertex 33.411933 -9.702941 6.848121
      vertex 41.020956 -9.702941 0.000000
      vertex 33.411933 -6.297059 6.848121
    endloop
  endfacet
  facet normal 0.473030 -0.707107 0.525588
    outer loop
      vertex 41.020956 -6.297059 0.000000
      vertex 41.141376 -6.216502 0.000000
      vertex 42.698569 -3.888736 1.730215
    endloop
  endfacet
  facet normal 0.473030 -0.707107 0.525588
    outer loop
      vertex 33.411933 -6.297059 6.848121
      vertex 41.020956 -6.297059 0.000000
      vertex 35.023016 -3.888736 8.638213
    endloop
  endfacet
  facet normal 0.473030 -0.707107 0.525588
    outer loop
      vertex 35.023016 -3.888736 8.638213
      vertex 41.020956 -6.297059 0.000000
      vertex 42.698569 -3.888736 1.730215
    endloop
  endfacet
  facet normal 0.000000 -1.000000 0.000000
    outer loop
      vertex 46.301000 0.000000 5.732916
      vertex 41.141376 0.000000 0.000000
      vertex 46.301000 0.000000 0.000000
    endloop
  endfacet
  facet normal 0.707107 -0.707107 0.000000
    outer loop
      vertex 46.301000 0.000000 5.732916
      vertex 46.301000 0.000000 0.000000
      vertex 55.351000 9.050000 0.000000
    endloop
  endfacet
  facet normal 0.707107 -0.707107 0.000000
    outer loop
      vertex 47.600000 1.299000 7.176249
      vertex 46.301000 0.000000 5.732916
      vertex 55.351000 9.050000 12.900000
    endloop
  endfacet
  facet normal 0.707107 -0.707107 0.000000
    outer loop
      vertex 55.351000 9.050000 12.900000
      vertex 46.301000 0.000000 5.732916
      vertex 55.351000 9.050000 0.000000
    endloop
  endfacet
  facet normal 0.707107 -0.707107 0.000000
    outer loop
      vertex 47.600000 1.299000 12.900000
      vertex 47.600000 1.299000 7.176249
      vertex 55.351000 9.050000 12.900000
    endloop
  endfacet
  facet normal 1.000000 0.000000 -0.000000
    outer loop
      vertex 55.351000 22.702941 2.338736
      vertex 55.351000 9.050000 0.000000
      vertex 55.351000 31.551000 0.000000
    endloop
  endfacet
  facet normal 1.000000 0.000000 -0.000000
    outer loop
      vertex 55.351000 9.050000 12.900000
      vertex 55.351000 9.050000 0.000000
      vertex 55.351000 16.888736 4.747059
    endloop
  endfacet
  facet normal 1.000000 0.000000 0.000000
    outer loop
      vertex 55.351000 25.111264 8.152941
      vertex 55.351000 25.111264 4.747059
      vertex 55.351000 31.551000 0.000000
    endloop
  endfacet
  facet normal 1.000000 0.000000 0.000000
    outer loop
      vertex 55.351000 9.050000 12.900000
      vertex 55.351000 16.888736 4.747059
      vertex 55.351000 16.888736 8.152941
    endloop
  endfacet
  facet normal 1.000000 0.000000 0.000000
    outer loop
      vertex 55.351000 31.551000 12.900000
      vertex 55.351000 9.050000 12.900000
      vertex 55.351000 19.297059 10.561264
    endloop
  endfacet
  facet normal 1.000000 0.000000 -0.000000
    outer loop
      vertex 55.351000 25.111264 4.747059
      vertex 55.351000 22.702941 2.338736
      vertex 55.351000 31.551000 0.000000
    endloop
  endfacet
  facet normal 1.000000 0.000000 0.000000
    outer loop
      vertex 55.351000 31.551000 12.900000
      vertex 55.351000 19.297059 10.561264
      vertex 55.351000 22.702941 10.561264
    endloop
  endfacet
  facet normal 1.000000 0.000000 0.000000
    outer loop
      vertex 55.351000 31.551000 12.900000
      vertex 55.351000 25.111264 8.152941
      vertex 55.351000 31.551000 0.000000
    endloop
  endfacet
  facet normal 1.000000 0.000000 0.000000
    outer loop
      vertex 55.351000 31.551000 12.900000
      vertex 55.351000 22.702941 10.561264
      vertex 55.351000 25.111264 8.152941
    endloop
  endfacet
  facet normal 1.000000 0.000000 -0.000000
    outer loop
      vertex 55.351000 19.297059 2.338736
      vertex 55.351000 9.050000 0.000000
      vertex 55.351000 22.702941 2.338736
    endloop
  endfacet
  facet normal 1.000000 0.000000 -0.000000
    outer loop
      vertex 55.351000 16.888736 4.747059
      vertex 55.351000 9.050000 0.000000
      vertex 55.351000 19.297059 2.338736
    endloop
  endfacet
  facet normal 1.000000 0.000000 0.000000
    outer loop
      vertex 55.351000 16.888736 8.152941
      vertex 55.351000 19.297059 10.561264
      vertex 55.351000 9.050000 12.900000
    endloop
  endfacet
  facet normal 0.866023 0.500004 0.000000
    outer loop
      vertex 55.351000 31.551000 0.000000
      vertex 38.110000 61.413000 0.000000
      vertex 38.110000 61.413000 12.900000
    endloop
  endfacet
  facet normal 0.866023 0.500004 -0.000000
    outer loop
      vertex 55.351000 31.551000 12.900000
      vertex 55.351000 31.551000 0.000000
      vertex 38.110000 61.413000 12.900000
    endloop
  endfacet
  facet normal 0.499981 0.866037 0.000000
    outer loop
      vertex 32.187891 64.831956 4.747059
      vertex 38.110000 61.413000 0.000000
      vertex 30.102196 66.036071 2.338736
    endloop
  endfacet
  facet normal 0.499981 0.866037 -0.000000
    outer loop
      vertex 30.102196 66.036071 10.561264
      vertex 18.277000 72.863000 12.900000
      vertex 38.110000 61.413000 12.900000
    endloop
  endfacet
  facet normal 0.499981 0.866037 0.000000
    outer loop
      vertex 18.277000 72.863000 0.000000
      vertex 18.277000 72.863000 12.900000
      vertex 25.066882 68.943061 8.152941
    endloop
  endfacet
  facet normal 0.499981 0.866037 0.000000
    outer loop
      vertex 18.277000 72.863000 0.000000
      vertex 25.066882 68.943061 8.152941
      vertex 25.066882 68.943061 4.747059
    endloop
  endfacet
  facet normal 0.499981 0.866037 -0.000000
    outer loop
      vertex 18.277000 72.863000 0.000000
      vertex 25.066882 68.943061 4.747059
      vertex 27.152577 67.738946 2.338736
    endloop
  endfacet
  facet normal 0.499981 0.866037 0.000000
    outer loop
      vertex 18.277000 72.863000 0.000000
      vertex 27.152577 67.738946 2.338736
      vertex 38.110000 61.413000 0.000000
    endloop
  endfacet
  facet normal 0.499981 0.866037 0.000000
    outer loop
      vertex 27.152577 67.738946 2.338736
      vertex 30.102196 66.036071 2.338736
      vertex 38.110000 61.413000 0.000000
    endloop
  endfacet
  facet normal 0.499981 0.866037 0.000000
    outer loop
      vertex 38.110000 61.413000 0.000000
      vertex 32.187891 64.831956 4.747059
      vertex 38.110000 61.413000 12.900000
    endloop
  endfacet
  facet normal 0.499981 0.866037 0.000000
    outer loop
      vertex 32.187891 64.831956 4.747059
      vertex 32.187891 64.831956 8.152941
      vertex 38.110000 61.413000 12.900000
    endloop
  endfacet
  facet normal 0.499981 0.866037 -0.000000
    outer loop
      vertex 27.152577 67.738946 10.561264
      vertex 18.277000 72.863000 12.900000
      vertex 30.102196 66.036071 10.561264
    endloop
  endfacet
  facet normal 0.499981 0.866037 -0.000000
    outer loop
      vertex 32.187891 64.831956 8.152941
      vertex 30.102196 66.036071 10.561264
      vertex 38.110000 61.413000 12.900000
    endloop
  endfacet
  facet normal 0.499981 0.866037 -0.000000
    outer loop
      vertex 25.066882 68.943061 8.152941
      vertex 18.277000 72.863000 12.900000
      vertex 27.152577 67.738946 10.561264
    endloop
  endfacet
  facet normal 0.974928 0.222521 0.000000
    outer loop
      vertex 6.813000 59.912000 12.900000
      vertex 7.228931 58.089688 12.900000
      vertex 7.228931 58.089688 0.000000
    endloop
  endfacet
  facet normal 0.974928 0.222521 0.000000
    outer loop
      vertex 6.813000 59.912000 0.000000
      vertex 6.813000 59.912000 12.900000
      vertex 7.228931 58.089688 0.000000
    endloop
  endfacet
  facet normal 0.974928 -0.222521 0.000000
    outer loop
      vertex 7.228931 61.734312 0.000000
      vertex 7.228931 61.734312 12.900000
      vertex 6.813000 59.912000 12.900000
    endloop
  endfacet
  facet normal 0.974928 -0.222521 0.000000
    outer loop
      vertex 6.813000 59.912000 0.000000
      vertex 7.228931 61.734312 0.000000
      vertex 6.813000 59.912000 12.900000
    endloop
  endfacet
  facet normal 0.781831 -0.623490 0.000000
    outer loop
      vertex 8.394343 63.195692 0.000000
      vertex 8.394343 63.195692 12.900000
      vertex 7.228931 61.734312 12.900000
    endloop
  endfacet
  facet normal 0.781831 -0.623490 0.000000
    outer loop
      vertex 7.228931 61.734312 0.000000
      vertex 8.394343 63.195692 0.000000
      vertex 7.228931 61.734312 12.900000
    endloop
  endfacet
  facet normal 0.433884 -0.900969 0.000000
    outer loop
      vertex 10.078412 64.006697 0.000000
      vertex 10.078412 64.006697 12.900000
      vertex 8.394343 63.195692 12.900000
    endloop
  endfacet
  facet normal 0.433884 -0.900969 0.000000
    outer loop
      vertex 8.394343 63.195692 0.000000
      vertex 10.078412 64.006697 0.000000
      vertex 8.394343 63.195692 12.900000
    endloop
  endfacet
  facet normal 0.000000 -1.000000 0.000000
    outer loop
      vertex 11.947588 64.006697 0.000000
      vertex 11.947588 64.006697 12.900000
      vertex 10.078412 64.006697 12.900000
    endloop
  endfacet
  facet normal -0.000000 -1.000000 -0.000000
    outer loop
      vertex 10.078412 64.006697 0.000000
      vertex 11.947588 64.006697 0.000000
      vertex 10.078412 64.006697 12.900000
    endloop
  endfacet
  facet normal -0.433884 -0.900969 -0.000000
    outer loop
      vertex 13.631657 63.195692 0.000000
      vertex 13.631657 63.195692 12.900000
      vertex 11.947588 64.006697 12.900000
    endloop
  endfacet
  facet normal -0.433884 -0.900969 -0.000000
    outer loop
      vertex 11.947588 64.006697 0.000000
      vertex 13.631657 63.195692 0.000000
      vertex 11.947588 64.006697 12.900000
    endloop
  endfacet
  facet normal -0.781831 -0.623490 0.000000
    outer loop
      vertex 14.797069 61.734312 12.900000
      vertex 13.631657 63.195692 12.900000
      vertex 14.797069 61.734312 0.000000
    endloop
  endfacet
  facet normal -0.781831 -0.623490 0.000000
    outer loop
      vertex 14.797069 61.734312 0.000000
      vertex 13.631657 63.195692 12.900000
      vertex 13.631657 63.195692 0.000000
    endloop
  endfacet
  facet normal -0.974928 -0.222521 0.000000
    outer loop
      vertex 15.213000 59.912000 12.900000
      vertex 14.797069 61.734312 12.900000
      vertex 15.213000 59.912000 0.000000
    endloop
  endfacet
  facet normal -0.974928 -0.222521 0.000000
    outer loop
      vertex 15.213000 59.912000 0.000000
      vertex 14.797069 61.734312 12.900000
      vertex 14.797069 61.734312 0.000000
    endloop
  endfacet
  facet normal -0.974928 0.222521 0.000000
    outer loop
      vertex 15.213000 59.912000 12.900000
      vertex 15.213000 59.912000 0.000000
      vertex 14.797069 58.089688 12.900000
    endloop
  endfacet
  facet normal -0.974928 0.222521 0.000000
    outer loop
      vertex 14.797069 58.089688 12.900000
      vertex 15.213000 59.912000 0.000000
      vertex 14.797069 58.089688 0.000000
    endloop
  endfacet
  facet normal -0.781831 0.623490 0.000000
    outer loop
      vertex 14.797069 58.089688 12.900000
      vertex 14.797069 58.089688 0.000000
      vertex 13.631657 56.628308 12.900000
    endloop
  endfacet
  facet normal -0.781831 0.623490 0.000000
    outer loop
      vertex 13.631657 56.628308 12.900000
      vertex 14.797069 58.089688 0.000000
      vertex 13.631657 56.628308 0.000000
    endloop
  endfacet
  facet normal -0.433884 0.900969 0.000000
    outer loop
      vertex 13.631657 56.628308 12.900000
      vertex 13.631657 56.628308 0.000000
      vertex 11.947588 55.817303 12.900000
    endloop
  endfacet
  facet normal -0.433884 0.900969 0.000000
    outer loop
      vertex 11.947588 55.817303 12.900000
      vertex 13.631657 56.628308 0.000000
      vertex 11.947588 55.817303 0.000000
    endloop
  endfacet
  facet normal 0.000000 1.000000 0.000000
    outer loop
      vertex 11.947588 55.817303 12.900000
      vertex 11.947588 55.817303 0.000000
      vertex 10.078412 55.817303 12.900000
    endloop
  endfacet
  facet normal 0.000000 1.000000 -0.000000
    outer loop
      vertex 10.078412 55.817303 12.900000
      vertex 11.947588 55.817303 0.000000
      vertex 10.078412 55.817303 0.000000
    endloop
  endfacet
  facet normal 0.433884 0.900969 -0.000000
    outer loop
      vertex 10.078412 55.817303 12.900000
      vertex 10.078412 55.817303 0.000000
      vertex 8.394343 56.628308 12.900000
    endloop
  endfacet
  facet normal 0.433884 0.900969 -0.000000
    outer loop
      vertex 8.394343 56.628308 12.900000
      vertex 10.078412 55.817303 0.000000
      vertex 8.394343 56.628308 0.000000
    endloop
  endfacet
  facet normal 0.781831 0.623490 0.000000
    outer loop
      vertex 7.228931 58.089688 12.900000
      vertex 8.394343 56.628308 12.900000
      vertex 8.394343 56.628308 0.000000
    endloop
  endfacet
  facet normal 0.781831 0.623490 0.000000
    outer loop
      vertex 7.228931 58.089688 0.000000
      vertex 7.228931 58.089688 12.900000
      vertex 8.394343 56.628308 0.000000
    endloop
  endfacet
  facet normal 0.866051 -0.499955 0.000000
    outer loop
      vertex 34.067000 59.706000 0.000000
      vertex 34.067000 59.706000 12.900000
      vertex 22.892000 40.348000 12.900000
    endloop
  endfacet
  facet normal 0.866051 -0.499955 0.000000
    outer loop
      vertex 22.892000 40.348000 0.000000
      vertex 34.067000 59.706000 0.000000
      vertex 22.892000 40.348000 12.900000
    endloop
  endfacet
  facet normal 0.863190 0.504880 0.000000
    outer loop
      vertex 22.892000 40.348000 12.900000
      vertex 29.237000 29.500000 12.900000
      vertex 29.237000 29.500000 0.000000
    endloop
  endfacet
  facet normal 0.863190 0.504880 0.000000
    outer loop
      vertex 22.892000 40.348000 0.000000
      vertex 22.892000 40.348000 12.900000
      vertex 29.237000 29.500000 0.000000
    endloop
  endfacet
  facet normal -0.499976 -0.866040 -0.000000
    outer loop
      vertex 35.548000 58.851000 0.000000
      vertex 35.548000 58.851000 12.900000
      vertex 34.067000 59.706000 12.900000
    endloop
  endfacet
  facet normal -0.499976 -0.866040 -0.000000
    outer loop
      vertex 34.067000 59.706000 0.000000
      vertex 35.548000 58.851000 0.000000
      vertex 34.067000 59.706000 12.900000
    endloop
  endfacet
  facet normal -0.866028 -0.499995 0.000000
    outer loop
      vertex 51.851000 30.613000 12.900000
      vertex 35.548000 58.851000 12.900000
      vertex 51.851000 30.613000 0.000000
    endloop
  endfacet
  facet normal -0.866028 -0.499995 0.000000
    outer loop
      vertex 51.851000 30.613000 0.000000
      vertex 35.548000 58.851000 12.900000
      vertex 35.548000 58.851000 0.000000
    endloop
  endfacet
  facet normal -1.000000 0.000000 0.000000
    outer loop
      vertex 51.851000 30.613000 12.900000
      vertex 51.851000 30.613000 0.000000
      vertex 51.851000 29.500000 12.900000
    endloop
  endfacet
  facet normal -1.000000 0.000000 0.000000
    outer loop
      vertex 51.851000 29.500000 12.900000
      vertex 51.851000 30.613000 0.000000
      vertex 51.851000 29.500000 0.000000
    endloop
  endfacet
  facet normal 0.000000 1.000000 0.000000
    outer loop
      vertex 51.851000 29.500000 12.900000
      vertex 51.851000 29.500000 0.000000
      vertex 29.237000 29.500000 12.900000
    endloop
  endfacet
  facet normal 0.000000 1.000000 -0.000000
    outer loop
      vertex 29.237000 29.500000 12.900000
      vertex 51.851000 29.500000 0.000000
      vertex 29.237000 29.500000 0.000000
    endloop
  endfacet
  facet normal 0.974928 -0.222521 0.000000
    outer loop
      vertex 36.489931 11.071312 0.000000
      vertex 36.489931 11.071312 12.900000
      vertex 36.074000 9.249000 12.900000
    endloop
  endfacet
  facet normal 0.974928 -0.222521 0.000000
    outer loop
      vertex 36.074000 9.249000 0.000000
      vertex 36.489931 11.071312 0.000000
      vertex 36.074000 9.249000 12.900000
    endloop
  endfacet
  facet normal 0.974928 0.222521 0.000000
    outer loop
      vertex 36.074000 9.249000 12.900000
      vertex 36.489931 7.426688 12.900000
      vertex 36.489931 7.426688 0.000000
    endloop
  endfacet
  facet normal 0.974928 0.222521 0.000000
    outer loop
      vertex 36.074000 9.249000 0.000000
      vertex 36.074000 9.249000 12.900000
      vertex 36.489931 7.426688 0.000000
    endloop
  endfacet
  facet normal 0.781831 -0.623490 0.000000
    outer loop
      vertex 37.655343 12.532692 0.000000
      vertex 37.655343 12.532692 12.900000
      vertex 36.489931 11.071312 12.900000
    endloop
  endfacet
  facet normal 0.781831 -0.623490 0.000000
    outer loop
      vertex 36.489931 11.071312 0.000000
      vertex 37.655343 12.532692 0.000000
      vertex 36.489931 11.071312 12.900000
    endloop
  endfacet
  facet normal 0.433884 -0.900969 0.000000
    outer loop
      vertex 39.339412 13.343697 0.000000
      vertex 39.339412 13.343697 12.900000
      vertex 37.655343 12.532692 12.900000
    endloop
  endfacet
  facet normal 0.433884 -0.900969 0.000000
    outer loop
      vertex 37.655343 12.532692 0.000000
      vertex 39.339412 13.343697 0.000000
      vertex 37.655343 12.532692 12.900000
    endloop
  endfacet
  facet normal 0.000000 -1.000000 0.000000
    outer loop
      vertex 41.208588 13.343697 0.000000
      vertex 41.208588 13.343697 12.900000
      vertex 39.339412 13.343697 12.900000
    endloop
  endfacet
  facet normal -0.000000 -1.000000 -0.000000
    outer loop
      vertex 39.339412 13.343697 0.000000
      vertex 41.208588 13.343697 0.000000
      vertex 39.339412 13.343697 12.900000
    endloop
  endfacet
  facet normal -0.433884 -0.900969 -0.000000
    outer loop
      vertex 42.892657 12.532692 0.000000
      vertex 42.892657 12.532692 12.900000
      vertex 41.208588 13.343697 12.900000
    endloop
  endfacet
  facet normal -0.433884 -0.900969 -0.000000
    outer loop
      vertex 41.208588 13.343697 0.000000
      vertex 42.892657 12.532692 0.000000
      vertex 41.208588 13.343697 12.900000
    endloop
  endfacet
  facet normal -0.781831 -0.623490 0.000000
    outer loop
      vertex 44.058069 11.071312 12.900000
      vertex 42.892657 12.532692 12.900000
      vertex 44.058069 11.071312 0.000000
    endloop
  endfacet
  facet normal -0.781831 -0.623490 0.000000
    outer loop
      vertex 44.058069 11.071312 0.000000
      vertex 42.892657 12.532692 12.900000
      vertex 42.892657 12.532692 0.000000
    endloop
  endfacet
  facet normal -0.974928 -0.222521 0.000000
    outer loop
      vertex 44.474000 9.249000 12.900000
      vertex 44.058069 11.071312 12.900000
      vertex 44.474000 9.249000 0.000000
    endloop
  endfacet
  facet normal -0.974928 -0.222521 0.000000
    outer loop
      vertex 44.474000 9.249000 0.000000
      vertex 44.058069 11.071312 12.900000
      vertex 44.058069 11.071312 0.000000
    endloop
  endfacet
  facet normal -0.974928 0.222521 0.000000
    outer loop
      vertex 44.474000 9.249000 12.900000
      vertex 44.474000 9.249000 0.000000
      vertex 44.058069 7.426688 12.900000
    endloop
  endfacet
  facet normal -0.974928 0.222521 0.000000
    outer loop
      vertex 44.058069 7.426688 12.900000
      vertex 44.474000 9.249000 0.000000
      vertex 44.058069 7.426688 0.000000
    endloop
  endfacet
  facet normal -0.781831 0.623490 0.000000
    outer loop
      vertex 44.058069 7.426688 12.900000
      vertex 44.058069 7.426688 0.000000
      vertex 42.892657 5.965308 12.900000
    endloop
  endfacet
  facet normal -0.781831 0.623490 0.000000
    outer loop
      vertex 42.892657 5.965308 12.900000
      vertex 44.058069 7.426688 0.000000
      vertex 42.892657 5.965308 0.000000
    endloop
  endfacet
  facet normal -0.433884 0.900969 0.000000
    outer loop
      vertex 42.892657 5.965308 12.900000
      vertex 42.892657 5.965308 0.000000
      vertex 41.208588 5.154303 12.900000
    endloop
  endfacet
  facet normal -0.433884 0.900969 0.000000
    outer loop
      vertex 41.208588 5.154303 12.900000
      vertex 42.892657 5.965308 0.000000
      vertex 41.208588 5.154303 0.000000
    endloop
  endfacet
  facet normal 0.000000 1.000000 0.000000
    outer loop
      vertex 41.208588 5.154303 12.900000
      vertex 41.208588 5.154303 0.000000
      vertex 39.339412 5.154303 12.900000
    endloop
  endfacet
  facet normal 0.000000 1.000000 -0.000000
    outer loop
      vertex 39.339412 5.154303 12.900000
      vertex 41.208588 5.154303 0.000000
      vertex 39.339412 5.154303 0.000000
    endloop
  endfacet
  facet normal 0.433884 0.900969 -0.000000
    outer loop
      vertex 39.339412 5.154303 12.900000
      vertex 39.339412 5.154303 0.000000
      vertex 37.655343 5.965308 12.900000
    endloop
  endfacet
  facet normal 0.433884 0.900969 -0.000000
    outer loop
      vertex 37.655343 5.965308 12.900000
      vertex 39.339412 5.154303 0.000000
      vertex 37.655343 5.965308 0.000000
    endloop
  endfacet
  facet normal 0.781831 0.623490 0.000000
    outer loop
      vertex 36.489931 7.426688 12.900000
      vertex 37.655343 5.965308 12.900000
      vertex 37.655343 5.965308 0.000000
    endloop
  endfacet
  facet normal 0.781831 0.623490 0.000000
    outer loop
      vertex 36.489931 7.426688 0.000000
      vertex 36.489931 7.426688 12.900000
      vertex 37.655343 5.965308 0.000000
    endloop
  endfacet
  facet normal 1.000000 0.000000 -0.000000
    outer loop
      vertex 47.600000 -17.000000 12.900000
      vertex 47.600000 -17.000000 7.176249
      vertex 47.600000 1.299000 7.176249
    endloop
  endfacet
  facet normal 1.000000 0.000000 0.000000
    outer loop
      vertex 47.600000 1.299000 12.900000
      vertex 47.600000 -17.000000 12.900000
      vertex 47.600000 1.299000 7.176249
    endloop
  endfacet
  facet normal -0.743294 0.000000 0.668965
    outer loop
      vertex 38.858624 -9.783498 12.900000
      vertex 37.301431 -12.111264 11.169785
      vertex 38.858624 -17.000000 12.900000
    endloop
  endfacet
  facet normal -0.743294 0.000000 0.668965
    outer loop
      vertex 38.858624 -17.000000 12.900000
      vertex 37.301431 -12.111264 11.169785
      vertex 35.023016 -12.111264 8.638213
    endloop
  endfacet
  facet normal -0.743294 0.000000 0.668965
    outer loop
      vertex 35.023016 -12.111264 8.638213
      vertex 32.600000 -17.000000 5.945973
      vertex 38.858624 -17.000000 12.900000
    endloop
  endfacet
  facet normal -0.743294 0.000000 0.668965
    outer loop
      vertex 37.301431 -3.888736 11.169785
      vertex 38.858624 -6.216502 12.900000
      vertex 38.858624 0.000000 12.900000
    endloop
  endfacet
  facet normal -0.743294 -0.000000 0.668965
    outer loop
      vertex 37.301431 -3.888736 11.169785
      vertex 38.858624 0.000000 12.900000
      vertex 35.023016 -3.888736 8.638213
    endloop
  endfacet
  facet normal -0.743294 0.000000 0.668965
    outer loop
      vertex 35.023016 -3.888736 8.638213
      vertex 38.858624 0.000000 12.900000
      vertex 34.379000 0.000000 7.922640
    endloop
  endfacet
  facet normal -0.743294 0.000000 0.668965
    outer loop
      vertex 35.023016 -3.888736 8.638213
      vertex 34.379000 0.000000 7.922640
      vertex 33.411933 -6.297059 6.848121
    endloop
  endfacet
  facet normal -0.743294 0.000000 0.668965
    outer loop
      vertex 33.411933 -6.297059 6.848121
      vertex 34.379000 0.000000 7.922640
      vertex 32.600000 1.779000 5.945973
    endloop
  endfacet
  facet normal -0.743294 -0.000000 0.668965
    outer loop
      vertex 33.411933 -6.297059 6.848121
      vertex 32.600000 1.779000 5.945973
      vertex 33.411933 -9.702941 6.848121
    endloop
  endfacet
  facet normal -0.743294 0.000000 0.668965
    outer loop
      vertex 33.411933 -9.702941 6.848121
      vertex 32.600000 1.779000 5.945973
      vertex 32.600000 -17.000000 5.945973
    endloop
  endfacet
  facet normal -0.743294 0.000000 0.668965
    outer loop
      vertex 33.411933 -9.702941 6.848121
      vertex 32.600000 -17.000000 5.945973
      vertex 35.023016 -12.111264 8.638213
    endloop
  endfacet
  facet normal -0.473030 0.707107 -0.525588
    outer loop
      vertex 38.979044 -9.702941 12.900000
      vertex 46.588067 -9.702941 6.051879
      vertex 38.858624 -9.783498 12.900000
    endloop
  endfacet
  facet normal -0.473030 0.707107 -0.525588
    outer loop
      vertex 38.858624 -9.783498 12.900000
      vertex 46.588067 -9.702941 6.051879
      vertex 44.976984 -12.111264 4.261787
    endloop
  endfacet
  facet normal -0.473030 0.707107 -0.525588
    outer loop
      vertex 38.858624 -9.783498 12.900000
      vertex 44.976984 -12.111264 4.261787
      vertex 37.301431 -12.111264 11.169785
    endloop
  endfacet
  facet normal -0.668965 0.000000 -0.743294
    outer loop
      vertex 46.588067 -6.297059 6.051879
      vertex 46.588067 -9.702941 6.051879
      vertex 38.979044 -6.297059 12.900000
    endloop
  endfacet
  facet normal -0.668965 0.000000 -0.743294
    outer loop
      vertex 38.979044 -6.297059 12.900000
      vertex 46.588067 -9.702941 6.051879
      vertex 38.979044 -9.702941 12.900000
    endloop
  endfacet
  facet normal -0.473029 -0.707107 -0.525588
    outer loop
      vertex 44.976984 -3.888736 4.261787
      vertex 46.588067 -6.297059 6.051879
      vertex 38.979044 -6.297059 12.900000
    endloop
  endfacet
  facet normal -0.473029 -0.707107 -0.525588
    outer loop
      vertex 37.301431 -3.888736 11.169785
      vertex 44.976984 -3.888736 4.261787
      vertex 38.858624 -6.216502 12.900000
    endloop
  endfacet
  facet normal -0.473029 -0.707107 -0.525588
    outer loop
      vertex 38.858624 -6.216502 12.900000
      vertex 44.976984 -3.888736 4.261787
      vertex 38.979044 -6.297059 12.900000
    endloop
  endfacet
  facet normal 0.000000 -1.000000 0.000000
    outer loop
      vertex 34.379000 0.000000 12.900000
      vertex 34.379000 0.000000 7.922640
      vertex 38.858624 0.000000 12.900000
    endloop
  endfacet
  facet normal 0.866025 -0.500000 -0.000000
    outer loop
      vertex 25.066882 68.943061 4.747059
      vertex 25.066882 68.943061 8.152941
      vertex 10.194955 43.184127 8.152941
    endloop
  endfacet
  facet normal 0.866025 -0.500000 -0.000000
    outer loop
      vertex 10.194954 43.184127 4.747059
      vertex 25.066882 68.943061 4.747059
      vertex 10.194955 43.184127 8.152941
    endloop
  endfacet
  facet normal 0.612372 -0.353553 0.707107
    outer loop
      vertex 12.280664 41.980037 2.338736
      vertex 27.152577 67.738946 2.338736
      vertex 25.066882 68.943061 4.747059
    endloop
  endfacet
  facet normal 0.612372 -0.353553 0.707107
    outer loop
      vertex 10.194954 43.184127 4.747059
      vertex 12.280664 41.980037 2.338736
      vertex 25.066882 68.943061 4.747059
    endloop
  endfacet
  facet normal 0.000000 -0.000000 1.000000
    outer loop
      vertex 15.230303 40.277197 2.338736
      vertex 30.102196 66.036071 2.338736
      vertex 27.152577 67.738946 2.338736
    endloop
  endfacet
  facet normal 0.000000 -0.000000 1.000000
    outer loop
      vertex 12.280664 41.980037 2.338736
      vertex 15.230303 40.277197 2.338736
      vertex 27.152577 67.738946 2.338736
    endloop
  endfacet
  facet normal -0.612372 0.353553 0.707107
    outer loop
      vertex 17.316013 39.073107 4.747059
      vertex 32.187891 64.831956 4.747059
      vertex 30.102196 66.036071 2.338736
    endloop
  endfacet
  facet normal -0.612372 0.353553 0.707107
    outer loop
      vertex 15.230303 40.277197 2.338736
      vertex 17.316013 39.073107 4.747059
      vertex 30.102196 66.036071 2.338736
    endloop
  endfacet
  facet normal -0.866025 0.500000 0.000000
    outer loop
      vertex 32.187891 64.831956 8.152941
      vertex 32.187891 64.831956 4.747059
      vertex 17.316013 39.073107 8.152941
    endloop
  endfacet
  facet normal -0.866025 0.500000 0.000000
    outer loop
      vertex 17.316013 39.073107 8.152941
      vertex 32.187891 64.831956 4.747059
      vertex 17.316013 39.073107 4.747059
    endloop
  endfacet
  facet normal -0.612372 0.353553 -0.707107
    outer loop
      vertex 32.187891 64.831956 8.152941
      vertex 17.316013 39.073107 8.152941
      vertex 30.102196 66.036071 10.561264
    endloop
  endfacet
  facet normal -0.612372 0.353553 -0.707107
    outer loop
      vertex 30.102196 66.036071 10.561264
      vertex 17.316013 39.073107 8.152941
      vertex 15.230303 40.277197 10.561264
    endloop
  endfacet
  facet normal -0.000000 0.000000 -1.000000
    outer loop
      vertex 30.102196 66.036071 10.561264
      vertex 15.230303 40.277197 10.561264
      vertex 27.152577 67.738946 10.561264
    endloop
  endfacet
  facet normal -0.000000 0.000000 -1.000000
    outer loop
      vertex 27.152577 67.738946 10.561264
      vertex 15.230303 40.277197 10.561264
      vertex 12.280664 41.980037 10.561264
    endloop
  endfacet
  facet normal 0.612372 -0.353553 -0.707107
    outer loop
      vertex 27.152577 67.738946 10.561264
      vertex 12.280664 41.980037 10.561264
      vertex 25.066882 68.943061 8.152941
    endloop
  endfacet
  facet normal 0.612372 -0.353553 -0.707107
    outer loop
      vertex 25.066882 68.943061 8.152941
      vertex 12.280664 41.980037 10.561264
      vertex 10.194955 43.184127 8.152941
    endloop
  endfacet
  facet normal -0.000000 0.707107 -0.707107
    outer loop
      vertex 55.351000 19.297059 10.561264
      vertex 55.351000 16.888736 8.152941
      vertex 25.199000 19.297059 10.561264
    endloop
  endfacet
  facet normal -0.000000 0.707107 -0.707107
    outer loop
      vertex 25.199000 19.297059 10.561264
      vertex 55.351000 16.888736 8.152941
      vertex 25.199000 16.888736 8.152941
    endloop
  endfacet
  facet normal 0.000000 1.000000 0.000000
    outer loop
      vertex 55.351000 16.888736 4.747059
      vertex 25.199000 16.888736 4.747059
      vertex 55.351000 16.888736 8.152941
    endloop
  endfacet
  facet normal 0.000000 1.000000 0.000000
    outer loop
      vertex 55.351000 16.888736 8.152941
      vertex 25.199000 16.888736 4.747059
      vertex 25.199000 16.888736 8.152941
    endloop
  endfacet
  facet normal -0.000000 0.000000 -1.000000
    outer loop
      vertex 55.351000 22.702941 10.561264
      vertex 55.351000 19.297059 10.561264
      vertex 25.199000 22.702941 10.561264
    endloop
  endfacet
  facet normal -0.000000 0.000000 -1.000000
    outer loop
      vertex 25.199000 22.702941 10.561264
      vertex 55.351000 19.297059 10.561264
      vertex 25.199000 19.297059 10.561264
    endloop
  endfacet
  facet normal -0.000000 -0.707107 -0.707107
    outer loop
      vertex 25.199000 25.111264 8.152941
      vertex 55.351000 25.111264 8.152941
      vertex 55.351000 22.702941 10.561264
    endloop
  endfacet
  facet normal -0.000000 -0.707107 -0.707107
    outer loop
      vertex 25.199000 22.702941 10.561264
      vertex 25.199000 25.111264 8.152941
      vertex 55.351000 22.702941 10.561264
    endloop
  endfacet
  facet normal -0.000000 -1.000000 -0.000000
    outer loop
      vertex 25.199000 25.111264 4.747059
      vertex 55.351000 25.111264 4.747059
      vertex 55.351000 25.111264 8.152941
    endloop
  endfacet
  facet normal -0.000000 -1.000000 -0.000000
    outer loop
      vertex 25.199000 25.111264 8.152941
      vertex 25.199000 25.111264 4.747059
      vertex 55.351000 25.111264 8.152941
    endloop
  endfacet
  facet normal 0.000000 -0.707107 0.707107
    outer loop
      vertex 55.351000 22.702941 2.338736
      vertex 55.351000 25.111264 4.747059
      vertex 25.199000 25.111264 4.747059
    endloop
  endfacet
  facet normal 0.000000 -0.707107 0.707107
    outer loop
      vertex 25.199000 22.702941 2.338736
      vertex 55.351000 22.702941 2.338736
      vertex 25.199000 25.111264 4.747059
    endloop
  endfacet
  facet normal 0.000000 -0.000000 1.000000
    outer loop
      vertex 55.351000 19.297059 2.338736
      vertex 55.351000 22.702941 2.338736
      vertex 25.199000 22.702941 2.338736
    endloop
  endfacet
  facet normal 0.000000 -0.000000 1.000000
    outer loop
      vertex 25.199000 19.297059 2.338736
      vertex 55.351000 19.297059 2.338736
      vertex 25.199000 22.702941 2.338736
    endloop
  endfacet
  facet normal 0.000000 0.707107 0.707107
    outer loop
      vertex 55.351000 19.297059 2.338736
      vertex 25.199000 19.297059 2.338736
      vertex 55.351000 16.888736 4.747059
    endloop
  endfacet
  facet normal 0.000000 0.707107 0.707107
    outer loop
      vertex 55.351000 16.888736 4.747059
      vertex 25.199000 19.297059 2.338736
      vertex 25.199000 16.888736 4.747059
    endloop
  endfacet
  facet normal -0.000000 -1.000000 -0.000000
    outer loop
      vertex 42.698569 -3.888736 1.730215
      vertex 44.976984 -3.888736 4.261787
      vertex 37.301431 -3.888736 11.169785
    endloop
  endfacet
  facet normal -0.000000 -1.000000 -0.000000
    outer loop
      vertex 35.023016 -3.888736 8.638213
      vertex 42.698569 -3.888736 1.730215
      vertex 37.301431 -3.888736 11.169785
    endloop
  endfacet
  facet normal 0.000000 1.000000 0.000000
    outer loop
      vertex 44.976984 -12.111264 4.261787
      vertex 42.698569 -12.111264 1.730215
      vertex 37.301431 -12.111264 11.169785
    endloop
  endfacet
  facet normal 0.000000 1.000000 0.000000
    outer loop
      vertex 37.301431 -12.111264 11.169785
      vertex 42.698569 -12.111264 1.730215
      vertex 35.023016 -12.111264 8.638213
    endloop
  endfacet
endsolid OpenSCAD_Model
