solid OpenSCAD_Model
  facet normal 0 0 -1
    outer loop
      vertex -7.5 0 -5
      vertex -7.13292 2.31763 -5
      vertex -7.13292 -2.31763 -5
    endloop
  endfacet
  facet normal 0 0 -1
    outer loop
      vertex -7.13292 -2.31763 -5
      vertex -7.13292 2.31763 -5
      vertex -6.06763 4.40839 -5
    endloop
  endfacet
  facet normal 0 0 -1
    outer loop
      vertex -7.13292 -2.31763 -5
      vertex -6.06763 4.40839 -5
      vertex -4.40839 6.06763 -5
    endloop
  endfacet
  facet normal 0 0 -1
    outer loop
      vertex -7.13292 -2.31763 -5
      vertex -4.40839 6.06763 -5
      vertex -2.31763 7.13292 -5
    endloop
  endfacet
  facet normal 0 0 -1
    outer loop
      vertex -7.13292 -2.31763 -5
      vertex -2.31763 7.13292 -5
      vertex 0 7.5 -5
    endloop
  endfacet
  facet normal 0 0 -1
    outer loop
      vertex 2.32322 3.45 -5
      vertex 0 7.5 -5
      vertex 15.5 7.5 -5
    endloop
  endfacet
  facet normal 0 0 -1
    outer loop
      vertex 2.1 3.63731 -5
      vertex 0 7.5 -5
      vertex 2.32322 3.45 -5
    endloop
  endfacet
  facet normal 0 0 -1
    outer loop
      vertex -3.94671 1.43649 -5
      vertex -7.13292 -2.31763 -5
      vertex -3.21739 2.69971 -5
    endloop
  endfacet
  facet normal 0 0 -1
    outer loop
      vertex 0.729322 4.13619 -5
      vertex 0 7.5 -5
      vertex 2.1 3.63731 -5
    endloop
  endfacet
  facet normal 0 0 -1
    outer loop
      vertex -0.729322 4.13619 -5
      vertex 0 7.5 -5
      vertex 0.729322 4.13619 -5
    endloop
  endfacet
  facet normal 0 0 -1
    outer loop
      vertex -2.1 3.63731 -5
      vertex 0 7.5 -5
      vertex -0.729322 4.13619 -5
    endloop
  endfacet
  facet normal 0 0 -1
    outer loop
      vertex -3.21739 2.69971 -5
      vertex 0 7.5 -5
      vertex -2.1 3.63731 -5
    endloop
  endfacet
  facet normal 0 0 -1
    outer loop
      vertex -7.13292 -2.31763 -5
      vertex 0 7.5 -5
      vertex -3.21739 2.69971 -5
    endloop
  endfacet
  facet normal 0 0 -1
    outer loop
      vertex -4.2 0 -5
      vertex -7.13292 -2.31763 -5
      vertex -3.94671 1.43649 -5
    endloop
  endfacet
  facet normal 0 0 -1
    outer loop
      vertex -3.94671 -1.43649 -5
      vertex -7.13292 -2.31763 -5
      vertex -4.2 0 -5
    endloop
  endfacet
  facet normal 0 0 -1
    outer loop
      vertex 15.5 -3.45 -5
      vertex 2.1 -3.63731 -5
      vertex 2.32322 -3.45 -5
    endloop
  endfacet
  facet normal 0 0 -1
    outer loop
      vertex -7.13292 -2.31763 -5
      vertex -3.21739 -2.69971 -5
      vertex -2.1 -3.63731 -5
    endloop
  endfacet
  facet normal 0 0 -1
    outer loop
      vertex -2.1 -3.63731 -5
      vertex -0.729322 -4.13619 -5
      vertex -7.13292 -2.31763 -5
    endloop
  endfacet
  facet normal 0 0 -1
    outer loop
      vertex 2.1 -3.63731 -5
      vertex 15.5 -3.45 -5
      vertex 0.729322 -4.13619 -5
    endloop
  endfacet
  facet normal 0 0 -1
    outer loop
      vertex 0.729322 -4.13619 -5
      vertex 15.5 -3.45 -5
      vertex 15.5 -7.5 -5
    endloop
  endfacet
  facet normal 0 0 -1
    outer loop
      vertex 0.729322 -4.13619 -5
      vertex 15.5 -7.5 -5
      vertex -0.729322 -4.13619 -5
    endloop
  endfacet
  facet normal 0 0 -1
    outer loop
      vertex -0.729322 -4.13619 -5
      vertex 15.5 -7.5 -5
      vertex 0 -7.5 -5
    endloop
  endfacet
  facet normal 0 0 -1
    outer loop
      vertex -0.729322 -4.13619 -5
      vertex 0 -7.5 -5
      vertex -7.13292 -2.31763 -5
    endloop
  endfacet
  facet normal 0 0 -1
    outer loop
      vertex -7.13292 -2.31763 -5
      vertex 0 -7.5 -5
      vertex -2.31763 -7.13292 -5
    endloop
  endfacet
  facet normal 0 0 -1
    outer loop
      vertex -7.13292 -2.31763 -5
      vertex -2.31763 -7.13292 -5
      vertex -4.40839 -6.06763 -5
    endloop
  endfacet
  facet normal 0 0 -1
    outer loop
      vertex -7.13292 -2.31763 -5
      vertex -4.40839 -6.06763 -5
      vertex -6.06763 -4.40839 -5
    endloop
  endfacet
  facet normal 0 0 -1
    outer loop
      vertex 2.32322 3.45 -5
      vertex 15.5 7.5 -5
      vertex 15.5 3.45 -5
    endloop
  endfacet
  facet normal 0 0 -1
    outer loop
      vertex -3.21739 -2.69971 -5
      vertex -7.13292 -2.31763 -5
      vertex -3.94671 -1.43649 -5
    endloop
  endfacet
  facet normal -0.987688 0.156434 0
    outer loop
      vertex -7.5 0 -5
      vertex -7.5 0 5
      vertex -7.13292 2.31763 -5
    endloop
  endfacet
  facet normal -0.987688 0.156434 0
    outer loop
      vertex -7.13292 2.31763 -5
      vertex -7.5 0 5
      vertex -7.13292 2.31763 5
    endloop
  endfacet
  facet normal -0.987688 -0.156434 0
    outer loop
      vertex -7.5 0 -5
      vertex -7.13292 -2.31763 -5
      vertex -7.5 0 5
    endloop
  endfacet
  facet normal -0.987688 -0.156434 0
    outer loop
      vertex -7.5 0 5
      vertex -7.13292 -2.31763 -5
      vertex -7.13292 -2.31763 5
    endloop
  endfacet
  facet normal -0.891006 -0.453991 0
    outer loop
      vertex -7.13292 -2.31763 -5
      vertex -6.06763 -4.40839 -5
      vertex -7.13292 -2.31763 5
    endloop
  endfacet
  facet normal -0.891006 -0.453991 0
    outer loop
      vertex -7.13292 -2.31763 5
      vertex -6.06763 -4.40839 -5
      vertex -6.06763 -4.40839 5
    endloop
  endfacet
  facet normal -0.707107 -0.707107 0
    outer loop
      vertex -6.06763 -4.40839 5
      vertex -6.06763 -4.40839 -5
      vertex -4.40839 -6.06763 -5
    endloop
  endfacet
  facet normal -0.707107 -0.707107 0
    outer loop
      vertex -4.40839 -6.06763 5
      vertex -6.06763 -4.40839 5
      vertex -4.40839 -6.06763 -5
    endloop
  endfacet
  facet normal -0.453991 -0.891006 0
    outer loop
      vertex -4.40839 -6.06763 5
      vertex -4.40839 -6.06763 -5
      vertex -2.31763 -7.13292 -5
    endloop
  endfacet
  facet normal -0.453991 -0.891006 0
    outer loop
      vertex -2.31763 -7.13292 5
      vertex -4.40839 -6.06763 5
      vertex -2.31763 -7.13292 -5
    endloop
  endfacet
  facet normal -0.156434 -0.987688 0
    outer loop
      vertex -2.31763 -7.13292 5
      vertex -2.31763 -7.13292 -5
      vertex 0 -7.5 -5
    endloop
  endfacet
  facet normal -0.156434 -0.987688 0
    outer loop
      vertex 0 -7.5 5
      vertex -2.31763 -7.13292 5
      vertex 0 -7.5 -5
    endloop
  endfacet
  facet normal 0 -1 0
    outer loop
      vertex 10.908 -7.5 -3.0832
      vertex 0 -7.5 -5
      vertex 15.5 -7.5 -5
    endloop
  endfacet
  facet normal 0 -1 0
    outer loop
      vertex 0 -7.5 5
      vertex 0 -7.5 -5
      vertex 6.2478 -7.5 -0.954932
    endloop
  endfacet
  facet normal 0 -1 0
    outer loop
      vertex 0 -7.5 5
      vertex 6.2478 -7.5 -0.954932
      vertex 6.2478 -7.5 0.954933
    endloop
  endfacet
  facet normal 0 -1 0
    outer loop
      vertex 7.28035 -7.5 2.56161
      vertex 0 -7.5 5
      vertex 6.29349 -7.5 1.02604
    endloop
  endfacet
  facet normal 0 -1 0
    outer loop
      vertex 7.35723 -7.5 2.59672
      vertex 0 -7.5 5
      vertex 7.28035 -7.5 2.56161
    endloop
  endfacet
  facet normal 0 -1 0
    outer loop
      vertex 10.908 -7.5 3.0832
      vertex 10.9719 -7.5 3.02785
      vertex 15.5 -7.5 5
    endloop
  endfacet
  facet normal 0 -1 0
    outer loop
      vertex 9.01762 -7.5 3.355
      vertex 0 -7.5 5
      vertex 7.35723 -7.5 2.59672
    endloop
  endfacet
  facet normal 0 -1 0
    outer loop
      vertex 15.5 -7.5 5
      vertex 0 -7.5 5
      vertex 9.01762 -7.5 3.355
    endloop
  endfacet
  facet normal 0 -1 0
    outer loop
      vertex 15.5 -7.5 5
      vertex 9.01762 -7.5 3.355
      vertex 9.10128 -7.5 3.34297
    endloop
  endfacet
  facet normal 0 -1 0
    outer loop
      vertex 12.8657 -7.5 -0.0810961
      vertex 12.3514 -7.5 -1.8325
      vertex 15.5 -7.5 -5
    endloop
  endfacet
  facet normal 0 -1 0
    outer loop
      vertex 15.5 -7.5 5
      vertex 12.3514 -7.5 1.8325
      vertex 15.5 -7.5 -5
    endloop
  endfacet
  facet normal 0 -1 0
    outer loop
      vertex 15.5 -7.5 5
      vertex 10.9719 -7.5 3.02785
      vertex 12.3514 -7.5 1.8325
    endloop
  endfacet
  facet normal 0 -1 0
    outer loop
      vertex 12.3514 -7.5 1.8325
      vertex 12.3752 -7.5 1.75141
      vertex 15.5 -7.5 -5
    endloop
  endfacet
  facet normal 0 -1 0
    outer loop
      vertex 12.3752 -7.5 1.75141
      vertex 12.8895 -7.5 1.9984e-16
      vertex 15.5 -7.5 -5
    endloop
  endfacet
  facet normal 0 -1 0
    outer loop
      vertex 12.8895 -7.5 1.9984e-16
      vertex 12.8657 -7.5 -0.0810961
      vertex 15.5 -7.5 -5
    endloop
  endfacet
  facet normal 0 -1 0
    outer loop
      vertex 12.3514 -7.5 -1.8325
      vertex 12.2876 -7.5 -1.88785
      vertex 15.5 -7.5 -5
    endloop
  endfacet
  facet normal 0 -1 0
    outer loop
      vertex 10.8244 -7.5 -3.09523
      vertex 0 -7.5 -5
      vertex 10.908 -7.5 -3.0832
    endloop
  endfacet
  facet normal 0 -1 0
    outer loop
      vertex 9.01762 -7.5 -3.355
      vertex 0 -7.5 -5
      vertex 10.8244 -7.5 -3.09523
    endloop
  endfacet
  facet normal 0 -1 0
    outer loop
      vertex 8.94074 -7.5 -3.31989
      vertex 0 -7.5 -5
      vertex 9.01762 -7.5 -3.355
    endloop
  endfacet
  facet normal 0 -1 0
    outer loop
      vertex 7.28035 -7.5 -2.56161
      vertex 0 -7.5 -5
      vertex 8.94074 -7.5 -3.31989
    endloop
  endfacet
  facet normal 0 -1 0
    outer loop
      vertex 7.23465 -7.5 -2.49051
      vertex 0 -7.5 -5
      vertex 7.28035 -7.5 -2.56161
    endloop
  endfacet
  facet normal 0 -1 0
    outer loop
      vertex 6.2478 -7.5 -0.954932
      vertex 0 -7.5 -5
      vertex 7.23465 -7.5 -2.49051
    endloop
  endfacet
  facet normal 0 -1 0
    outer loop
      vertex 6.2478 -7.5 0.954933
      vertex 6.29349 -7.5 1.02604
      vertex 0 -7.5 5
    endloop
  endfacet
  facet normal 0 -1 0
    outer loop
      vertex 9.10128 -7.5 3.34297
      vertex 10.908 -7.5 3.0832
      vertex 15.5 -7.5 5
    endloop
  endfacet
  facet normal 0 -1 0
    outer loop
      vertex 12.2876 -7.5 -1.88785
      vertex 10.908 -7.5 -3.0832
      vertex 15.5 -7.5 -5
    endloop
  endfacet
  facet normal 1 0 0
    outer loop
      vertex 15.5 -7.5 5
      vertex 15.5 -7.5 -5
      vertex 15.5 -3.45 -5
    endloop
  endfacet
  facet normal 1 0 0
    outer loop
      vertex 15.5 -3.45 5
      vertex 15.5 -7.5 5
      vertex 15.5 -3.45 -5
    endloop
  endfacet
  facet normal 0 1 0
    outer loop
      vertex 9.02102 -3.45 1.47414
      vertex 2.32322 -3.45 5
      vertex 9.97898 -3.45 1.47414
    endloop
  endfacet
  facet normal 0 1 0
    outer loop
      vertex 9.02102 -3.45 -1.47414
      vertex 15.5 -3.45 -5
      vertex 2.32322 -3.45 -5
    endloop
  endfacet
  facet normal 0 1 0
    outer loop
      vertex 10.754 -3.45 -0.911067
      vertex 15.5 -3.45 -5
      vertex 9.97898 -3.45 -1.47414
    endloop
  endfacet
  facet normal 0 1 0
    outer loop
      vertex 2.32322 -3.45 5
      vertex 8.24602 -3.45 -0.911067
      vertex 2.32322 -3.45 -5
    endloop
  endfacet
  facet normal 0 1 0
    outer loop
      vertex 8.24602 -3.45 -0.911067
      vertex 9.02102 -3.45 -1.47414
      vertex 2.32322 -3.45 -5
    endloop
  endfacet
  facet normal 0 1 0
    outer loop
      vertex 15.5 -3.45 5
      vertex 15.5 -3.45 -5
      vertex 10.754 -3.45 -0.911067
    endloop
  endfacet
  facet normal 0 1 0
    outer loop
      vertex 15.5 -3.45 5
      vertex 10.754 -3.45 -0.911067
      vertex 11.05 -3.45 2.87548e-15
    endloop
  endfacet
  facet normal 0 1 0
    outer loop
      vertex 15.5 -3.45 5
      vertex 11.05 -3.45 2.87548e-15
      vertex 10.754 -3.45 0.911067
    endloop
  endfacet
  facet normal 0 1 0
    outer loop
      vertex 15.5 -3.45 5
      vertex 10.754 -3.45 0.911067
      vertex 9.97898 -3.45 1.47414
    endloop
  endfacet
  facet normal 0 1 0
    outer loop
      vertex 15.5 -3.45 5
      vertex 9.97898 -3.45 1.47414
      vertex 2.32322 -3.45 5
    endloop
  endfacet
  facet normal 0 1 0
    outer loop
      vertex 8.24602 -3.45 0.911067
      vertex 2.32322 -3.45 5
      vertex 9.02102 -3.45 1.47414
    endloop
  endfacet
  facet normal 0 1 0
    outer loop
      vertex 7.95 -3.45 2.87548e-15
      vertex 2.32322 -3.45 5
      vertex 8.24602 -3.45 0.911067
    endloop
  endfacet
  facet normal 0 1 0
    outer loop
      vertex 2.32322 -3.45 5
      vertex 7.95 -3.45 2.87548e-15
      vertex 8.24602 -3.45 -0.911067
    endloop
  endfacet
  facet normal 0 1 0
    outer loop
      vertex 9.97898 -3.45 -1.47414
      vertex 15.5 -3.45 -5
      vertex 9.02102 -3.45 -1.47414
    endloop
  endfacet
  facet normal -0.642788 0.766044 0
    outer loop
      vertex 2.32322 -3.45 5
      vertex 2.32322 -3.45 -5
      vertex 2.1 -3.63731 5
    endloop
  endfacet
  facet normal -0.642788 0.766044 0
    outer loop
      vertex 2.1 -3.63731 5
      vertex 2.32322 -3.45 -5
      vertex 2.1 -3.63731 -5
    endloop
  endfacet
  facet normal -0.34202 0.939693 0
    outer loop
      vertex 2.1 -3.63731 5
      vertex 2.1 -3.63731 -5
      vertex 0.729322 -4.13619 5
    endloop
  endfacet
  facet normal -0.34202 0.939693 0
    outer loop
      vertex 0.729322 -4.13619 5
      vertex 2.1 -3.63731 -5
      vertex 0.729322 -4.13619 -5
    endloop
  endfacet
  facet normal 0 1 0
    outer loop
      vertex 0.729322 -4.13619 5
      vertex 0.729322 -4.13619 -5
      vertex -0.729322 -4.13619 5
    endloop
  endfacet
  facet normal 0 1 0
    outer loop
      vertex -0.729322 -4.13619 5
      vertex 0.729322 -4.13619 -5
      vertex -0.729322 -4.13619 -5
    endloop
  endfacet
  facet normal 0.34202 0.939693 0
    outer loop
      vertex -0.729322 -4.13619 5
      vertex -0.729322 -4.13619 -5
      vertex -2.1 -3.63731 5
    endloop
  endfacet
  facet normal 0.34202 0.939693 0
    outer loop
      vertex -2.1 -3.63731 5
      vertex -0.729322 -4.13619 -5
      vertex -2.1 -3.63731 -5
    endloop
  endfacet
  facet normal 0.642788 0.766044 0
    outer loop
      vertex -2.1 -3.63731 5
      vertex -2.1 -3.63731 -5
      vertex -3.21739 -2.69971 5
    endloop
  endfacet
  facet normal 0.642788 0.766044 0
    outer loop
      vertex -3.21739 -2.69971 5
      vertex -2.1 -3.63731 -5
      vertex -3.21739 -2.69971 -5
    endloop
  endfacet
  facet normal 0.866025 0.5 0
    outer loop
      vertex -3.94671 -1.43649 5
      vertex -3.21739 -2.69971 5
      vertex -3.21739 -2.69971 -5
    endloop
  endfacet
  facet normal 0.866025 0.5 0
    outer loop
      vertex -3.94671 -1.43649 -5
      vertex -3.94671 -1.43649 5
      vertex -3.21739 -2.69971 -5
    endloop
  endfacet
  facet normal 0.984808 0.173648 0
    outer loop
      vertex -4.2 0 5
      vertex -3.94671 -1.43649 5
      vertex -3.94671 -1.43649 -5
    endloop
  endfacet
  facet normal 0.984808 0.173648 0
    outer loop
      vertex -4.2 0 -5
      vertex -4.2 0 5
      vertex -3.94671 -1.43649 -5
    endloop
  endfacet
  facet normal 0.984808 -0.173648 0
    outer loop
      vertex -3.94671 1.43649 -5
      vertex -3.94671 1.43649 5
      vertex -4.2 0 5
    endloop
  endfacet
  facet normal 0.984808 -0.173648 0
    outer loop
      vertex -4.2 0 -5
      vertex -3.94671 1.43649 -5
      vertex -4.2 0 5
    endloop
  endfacet
  facet normal 0.866025 -0.5 0
    outer loop
      vertex -3.21739 2.69971 -5
      vertex -3.21739 2.69971 5
      vertex -3.94671 1.43649 5
    endloop
  endfacet
  facet normal 0.866025 -0.5 0
    outer loop
      vertex -3.94671 1.43649 -5
      vertex -3.21739 2.69971 -5
      vertex -3.94671 1.43649 5
    endloop
  endfacet
  facet normal 0.642788 -0.766044 0
    outer loop
      vertex -2.1 3.63731 -5
      vertex -2.1 3.63731 5
      vertex -3.21739 2.69971 5
    endloop
  endfacet
  facet normal 0.642788 -0.766044 0
    outer loop
      vertex -3.21739 2.69971 -5
      vertex -2.1 3.63731 -5
      vertex -3.21739 2.69971 5
    endloop
  endfacet
  facet normal 0.34202 -0.939693 0
    outer loop
      vertex -0.729322 4.13619 -5
      vertex -0.729322 4.13619 5
      vertex -2.1 3.63731 5
    endloop
  endfacet
  facet normal 0.34202 -0.939693 0
    outer loop
      vertex -2.1 3.63731 -5
      vertex -0.729322 4.13619 -5
      vertex -2.1 3.63731 5
    endloop
  endfacet
  facet normal 0 -1 0
    outer loop
      vertex 0.729322 4.13619 -5
      vertex 0.729322 4.13619 5
      vertex -0.729322 4.13619 5
    endloop
  endfacet
  facet normal 0 -1 0
    outer loop
      vertex -0.729322 4.13619 -5
      vertex 0.729322 4.13619 -5
      vertex -0.729322 4.13619 5
    endloop
  endfacet
  facet normal -0.34202 -0.939693 0
    outer loop
      vertex 2.1 3.63731 -5
      vertex 2.1 3.63731 5
      vertex 0.729322 4.13619 5
    endloop
  endfacet
  facet normal -0.34202 -0.939693 0
    outer loop
      vertex 0.729322 4.13619 -5
      vertex 2.1 3.63731 -5
      vertex 0.729322 4.13619 5
    endloop
  endfacet
  facet normal -0.642788 -0.766044 0
    outer loop
      vertex 2.32322 3.45 -5
      vertex 2.32322 3.45 5
      vertex 2.1 3.63731 5
    endloop
  endfacet
  facet normal -0.642788 -0.766044 0
    outer loop
      vertex 2.1 3.63731 -5
      vertex 2.32322 3.45 -5
      vertex 2.1 3.63731 5
    endloop
  endfacet
  facet normal 0 -1 0
    outer loop
      vertex 9.02102 3.45 1.47414
      vertex 15.5 3.45 5
      vertex 2.32322 3.45 5
    endloop
  endfacet
  facet normal 0 -1 0
    outer loop
      vertex 9.02102 3.45 1.47414
      vertex 9.97898 3.45 1.47414
      vertex 15.5 3.45 5
    endloop
  endfacet
  facet normal 0 -1 0
    outer loop
      vertex 2.32322 3.45 -5
      vertex 7.95 3.45 1.34337e-15
      vertex 2.32322 3.45 5
    endloop
  endfacet
  facet normal 0 -1 0
    outer loop
      vertex 8.24602 3.45 0.911067
      vertex 9.02102 3.45 1.47414
      vertex 2.32322 3.45 5
    endloop
  endfacet
  facet normal 0 -1 0
    outer loop
      vertex 10.754 3.45 0.911067
      vertex 11.05 3.45 1.34337e-15
      vertex 15.5 3.45 -5
    endloop
  endfacet
  facet normal 0 -1 0
    outer loop
      vertex 10.754 3.45 0.911067
      vertex 15.5 3.45 5
      vertex 9.97898 3.45 1.47414
    endloop
  endfacet
  facet normal 0 -1 0
    outer loop
      vertex 15.5 3.45 -5
      vertex 15.5 3.45 5
      vertex 10.754 3.45 0.911067
    endloop
  endfacet
  facet normal 0 -1 0
    outer loop
      vertex 15.5 3.45 -5
      vertex 11.05 3.45 1.34337e-15
      vertex 10.754 3.45 -0.911067
    endloop
  endfacet
  facet normal 0 -1 0
    outer loop
      vertex 2.32322 3.45 -5
      vertex 15.5 3.45 -5
      vertex 9.97898 3.45 -1.47414
    endloop
  endfacet
  facet normal 0 -1 0
    outer loop
      vertex 2.32322 3.45 -5
      vertex 9.97898 3.45 -1.47414
      vertex 9.02102 3.45 -1.47414
    endloop
  endfacet
  facet normal 0 -1 0
    outer loop
      vertex 2.32322 3.45 -5
      vertex 8.24602 3.45 -0.911067
      vertex 7.95 3.45 1.34337e-15
    endloop
  endfacet
  facet normal 0 -1 0
    outer loop
      vertex 2.32322 3.45 -5
      vertex 9.02102 3.45 -1.47414
      vertex 8.24602 3.45 -0.911067
    endloop
  endfacet
  facet normal 0 -1 0
    outer loop
      vertex 7.95 3.45 1.34337e-15
      vertex 8.24602 3.45 0.911067
      vertex 2.32322 3.45 5
    endloop
  endfacet
  facet normal 0 -1 0
    outer loop
      vertex 10.754 3.45 -0.911067
      vertex 9.97898 3.45 -1.47414
      vertex 15.5 3.45 -5
    endloop
  endfacet
  facet normal 1 0 0
    outer loop
      vertex 15.5 3.45 5
      vertex 15.5 3.45 -5
      vertex 15.5 7.5 -5
    endloop
  endfacet
  facet normal 1 0 0
    outer loop
      vertex 15.5 7.5 5
      vertex 15.5 3.45 5
      vertex 15.5 7.5 -5
    endloop
  endfacet
  facet normal 0 1 0
    outer loop
      vertex 15.2735 7.5 4.21885e-16
      vertex 15.5 7.5 -5
      vertex 12.3868 7.5 -5
    endloop
  endfacet
  facet normal 0 1 0
    outer loop
      vertex 0 7.5 -5
      vertex 0 7.5 5
      vertex 3.7265 7.5 4.21885e-16
    endloop
  endfacet
  facet normal 0 1 0
    outer loop
      vertex 0 7.5 -5
      vertex 3.7265 7.5 4.21885e-16
      vertex 6.61325 7.5 -5
    endloop
  endfacet
  facet normal 0 1 0
    outer loop
      vertex 0 7.5 -5
      vertex 6.61325 7.5 -5
      vertex 15.5 7.5 -5
    endloop
  endfacet
  facet normal 0 1 0
    outer loop
      vertex 6.61325 7.5 -5
      vertex 12.3868 7.5 -5
      vertex 15.5 7.5 -5
    endloop
  endfacet
  facet normal 0 1 0
    outer loop
      vertex 15.2735 7.5 4.21885e-16
      vertex 12.3868 7.5 5
      vertex 15.5 7.5 5
    endloop
  endfacet
  facet normal 0 1 0
    outer loop
      vertex 15.2735 7.5 4.21885e-16
      vertex 15.5 7.5 5
      vertex 15.5 7.5 -5
    endloop
  endfacet
  facet normal 0 1 0
    outer loop
      vertex 3.7265 7.5 4.21885e-16
      vertex 0 7.5 5
      vertex 6.61325 7.5 5
    endloop
  endfacet
  facet normal -0.156434 0.987688 0
    outer loop
      vertex -2.31763 7.13292 -5
      vertex -2.31763 7.13292 5
      vertex 0 7.5 -5
    endloop
  endfacet
  facet normal -0.156434 0.987688 0
    outer loop
      vertex 0 7.5 -5
      vertex -2.31763 7.13292 5
      vertex 0 7.5 5
    endloop
  endfacet
  facet normal -0.453991 0.891006 0
    outer loop
      vertex -4.40839 6.06763 -5
      vertex -4.40839 6.06763 5
      vertex -2.31763 7.13292 -5
    endloop
  endfacet
  facet normal -0.453991 0.891006 0
    outer loop
      vertex -2.31763 7.13292 -5
      vertex -4.40839 6.06763 5
      vertex -2.31763 7.13292 5
    endloop
  endfacet
  facet normal -0.707107 0.707107 0
    outer loop
      vertex -6.06763 4.40839 -5
      vertex -6.06763 4.40839 5
      vertex -4.40839 6.06763 -5
    endloop
  endfacet
  facet normal -0.707107 0.707107 0
    outer loop
      vertex -4.40839 6.06763 -5
      vertex -6.06763 4.40839 5
      vertex -4.40839 6.06763 5
    endloop
  endfacet
  facet normal -0.891006 0.453991 0
    outer loop
      vertex -7.13292 2.31763 -5
      vertex -7.13292 2.31763 5
      vertex -6.06763 4.40839 -5
    endloop
  endfacet
  facet normal -0.891006 0.453991 0
    outer loop
      vertex -6.06763 4.40839 -5
      vertex -7.13292 2.31763 5
      vertex -6.06763 4.40839 5
    endloop
  endfacet
  facet normal 0 0 1
    outer loop
      vertex -7.13292 2.31763 5
      vertex -7.5 0 5
      vertex -7.13292 -2.31763 5
    endloop
  endfacet
  facet normal 0 0 1
    outer loop
      vertex -4.40839 -6.06763 5
      vertex -7.13292 2.31763 5
      vertex -6.06763 -4.40839 5
    endloop
  endfacet
  facet normal 0 0 1
    outer loop
      vertex -6.06763 -4.40839 5
      vertex -7.13292 2.31763 5
      vertex -7.13292 -2.31763 5
    endloop
  endfacet
  facet normal 0 0 1
    outer loop
      vertex -2.31763 -7.13292 5
      vertex -7.13292 2.31763 5
      vertex -4.40839 -6.06763 5
    endloop
  endfacet
  facet normal 0 0 1
    outer loop
      vertex 0 -7.5 5
      vertex -7.13292 2.31763 5
      vertex -2.31763 -7.13292 5
    endloop
  endfacet
  facet normal 0 0 1
    outer loop
      vertex -3.21739 -2.69971 5
      vertex -7.13292 2.31763 5
      vertex 0 -7.5 5
    endloop
  endfacet
  facet normal 0 0 1
    outer loop
      vertex -3.21739 -2.69971 5
      vertex -3.94671 -1.43649 5
      vertex -7.13292 2.31763 5
    endloop
  endfacet
  facet normal 0 0 1
    outer loop
      vertex 15.5 -7.5 5
      vertex 2.32322 -3.45 5
      vertex 0 -7.5 5
    endloop
  endfacet
  facet normal 0 0 1
    outer loop
      vertex 2.32322 -3.45 5
      vertex 2.1 -3.63731 5
      vertex 0 -7.5 5
    endloop
  endfacet
  facet normal 0 0 1
    outer loop
      vertex -3.94671 1.43649 5
      vertex -3.21739 2.69971 5
      vertex -7.13292 2.31763 5
    endloop
  endfacet
  facet normal 0 0 1
    outer loop
      vertex 2.1 -3.63731 5
      vertex 0.729322 -4.13619 5
      vertex 0 -7.5 5
    endloop
  endfacet
  facet normal 0 0 1
    outer loop
      vertex 0.729322 -4.13619 5
      vertex -0.729322 -4.13619 5
      vertex 0 -7.5 5
    endloop
  endfacet
  facet normal 0 0 1
    outer loop
      vertex -0.729322 -4.13619 5
      vertex -2.1 -3.63731 5
      vertex 0 -7.5 5
    endloop
  endfacet
  facet normal 0 0 1
    outer loop
      vertex -2.1 -3.63731 5
      vertex -3.21739 -2.69971 5
      vertex 0 -7.5 5
    endloop
  endfacet
  facet normal 0 0 1
    outer loop
      vertex -4.2 0 5
      vertex -3.94671 1.43649 5
      vertex -7.13292 2.31763 5
    endloop
  endfacet
  facet normal 0 0 1
    outer loop
      vertex -3.94671 -1.43649 5
      vertex -4.2 0 5
      vertex -7.13292 2.31763 5
    endloop
  endfacet
  facet normal 0 0 1
    outer loop
      vertex 2.32322 3.45 5
      vertex 15.5 3.45 5
      vertex 2.1 3.63731 5
    endloop
  endfacet
  facet normal 0 0 1
    outer loop
      vertex -2.1 3.63731 5
      vertex -7.13292 2.31763 5
      vertex -3.21739 2.69971 5
    endloop
  endfacet
  facet normal 0 0 1
    outer loop
      vertex -0.729322 4.13619 5
      vertex -7.13292 2.31763 5
      vertex -2.1 3.63731 5
    endloop
  endfacet
  facet normal 0 0 1
    outer loop
      vertex 6.61325 7.4 5
      vertex -7.13292 2.31763 5
      vertex -0.729322 4.13619 5
    endloop
  endfacet
  facet normal 0 0 1
    outer loop
      vertex 15.5 7.5 5
      vertex -0.729322 4.13619 5
      vertex 0.729322 4.13619 5
    endloop
  endfacet
  facet normal 0 0 1
    outer loop
      vertex 15.5 3.45 5
      vertex 0.729322 4.13619 5
      vertex 2.1 3.63731 5
    endloop
  endfacet
  facet normal 0 0 1
    outer loop
      vertex 12.3868 7.4 5
      vertex 6.61325 7.4 5
      vertex -0.729322 4.13619 5
    endloop
  endfacet
  facet normal 0 0 1
    outer loop
      vertex 15.5 7.5 5
      vertex 0.729322 4.13619 5
      vertex 15.5 3.45 5
    endloop
  endfacet
  facet normal 0 0 1
    outer loop
      vertex 12.3868 7.4 5
      vertex -0.729322 4.13619 5
      vertex 15.5 7.5 5
    endloop
  endfacet
  facet normal 0 0 1
    outer loop
      vertex 12.3868 7.5 5
      vertex 12.3868 7.4 5
      vertex 15.5 7.5 5
    endloop
  endfacet
  facet normal 0 0 1
    outer loop
      vertex 6.61325 7.5 5
      vertex -7.13292 2.31763 5
      vertex 6.61325 7.4 5
    endloop
  endfacet
  facet normal 0 0 1
    outer loop
      vertex 0 7.5 5
      vertex -7.13292 2.31763 5
      vertex 6.61325 7.5 5
    endloop
  endfacet
  facet normal 0 0 1
    outer loop
      vertex -2.31763 7.13292 5
      vertex -7.13292 2.31763 5
      vertex 0 7.5 5
    endloop
  endfacet
  facet normal 0 0 1
    outer loop
      vertex -4.40839 6.06763 5
      vertex -7.13292 2.31763 5
      vertex -2.31763 7.13292 5
    endloop
  endfacet
  facet normal 0 0 1
    outer loop
      vertex -6.06763 4.40839 5
      vertex -7.13292 2.31763 5
      vertex -4.40839 6.06763 5
    endloop
  endfacet
  facet normal 0 0 1
    outer loop
      vertex 15.5 -3.45 5
      vertex 2.32322 -3.45 5
      vertex 15.5 -7.5 5
    endloop
  endfacet
  facet normal -0.825437 -0.192998 -0.530476
    outer loop
      vertex 6.62152 -9.4 -0.845198
      vertex 6.2478 -7.5 -0.954932
      vertex 7.23465 -7.5 -2.49051
    endloop
  endfacet
  facet normal -0.981199 -0.192998 -4.28542e-17
    outer loop
      vertex 6.2478 -7.5 0.954933
      vertex 6.2478 -7.5 -0.954932
      vertex 6.62152 -9.4 0.845198
    endloop
  endfacet
  facet normal -0.981199 -0.192998 -4.28542e-17
    outer loop
      vertex 6.62152 -9.4 0.845198
      vertex 6.2478 -7.5 -0.954932
      vertex 6.62152 -9.4 -0.845198
    endloop
  endfacet
  facet normal -0.825437 -0.192998 -0.530476
    outer loop
      vertex 6.62152 -9.4 -0.845198
      vertex 7.23465 -7.5 -2.49051
      vertex 7.53542 -9.4 -2.26725
    endloop
  endfacet
  facet normal -0.825437 -0.192998 -0.530476
    outer loop
      vertex 7.53542 -9.4 -2.26725
      vertex 7.23465 -7.5 -2.49051
      vertex 7.28035 -7.5 -2.56161
    endloop
  endfacet
  facet normal -0.407605 -0.192998 -0.89253
    outer loop
      vertex 7.53542 -9.4 -2.26725
      vertex 7.28035 -7.5 -2.56161
      vertex 8.94074 -7.5 -3.31989
    endloop
  endfacet
  facet normal -0.407605 -0.192998 -0.89253
    outer loop
      vertex 7.53542 -9.4 -2.26725
      vertex 8.94074 -7.5 -3.31989
      vertex 9.07305 -9.4 -2.96946
    endloop
  endfacet
  facet normal -0.407605 -0.192998 -0.89253
    outer loop
      vertex 9.07305 -9.4 -2.96946
      vertex 8.94074 -7.5 -3.31989
      vertex 9.01762 -7.5 -3.355
    endloop
  endfacet
  facet normal 0.139639 -0.192998 -0.971212
    outer loop
      vertex 9.07305 -9.4 -2.96946
      vertex 9.01762 -7.5 -3.355
      vertex 10.8244 -7.5 -3.09523
    endloop
  endfacet
  facet normal 0.139639 -0.192998 -0.971212
    outer loop
      vertex 9.07305 -9.4 -2.96946
      vertex 10.8244 -7.5 -3.09523
      vertex 10.7462 -9.4 -2.7289
    endloop
  endfacet
  facet normal 0.139639 -0.192998 -0.971212
    outer loop
      vertex 10.7462 -9.4 -2.7289
      vertex 10.8244 -7.5 -3.09523
      vertex 10.908 -7.5 -3.0832
    endloop
  endfacet
  facet normal 0.642549 -0.192998 -0.741541
    outer loop
      vertex 12.2876 -7.5 -1.88785
      vertex 10.7462 -9.4 -2.7289
      vertex 10.908 -7.5 -3.0832
    endloop
  endfacet
  facet normal 0.642549 -0.192998 -0.741541
    outer loop
      vertex 10.7462 -9.4 -2.7289
      vertex 12.2876 -7.5 -1.88785
      vertex 12.0238 -9.4 -1.62192
    endloop
  endfacet
  facet normal 0.642549 -0.192998 -0.741541
    outer loop
      vertex 12.0238 -9.4 -1.62192
      vertex 12.2876 -7.5 -1.88785
      vertex 12.3514 -7.5 -1.8325
    endloop
  endfacet
  facet normal 0.941454 -0.192998 -0.276436
    outer loop
      vertex 12.8657 -7.5 -0.0810961
      vertex 12.0238 -9.4 -1.62192
      vertex 12.3514 -7.5 -1.8325
    endloop
  endfacet
  facet normal 0.941454 -0.192998 -0.276436
    outer loop
      vertex 12.5 -9.4 -2.22045e-16
      vertex 12.0238 -9.4 -1.62192
      vertex 12.8657 -7.5 -0.0810961
    endloop
  endfacet
  facet normal 0.941454 -0.192998 -0.276436
    outer loop
      vertex 12.8895 -7.5 1.9984e-16
      vertex 12.5 -9.4 -2.22045e-16
      vertex 12.8657 -7.5 -0.0810961
    endloop
  endfacet
  facet normal 0.941454 -0.192998 0.276436
    outer loop
      vertex 12.8895 -7.5 1.9984e-16
      vertex 12.3752 -7.5 1.75141
      vertex 12.5 -9.4 -2.22045e-16
    endloop
  endfacet
  facet normal 0.941454 -0.192998 0.276436
    outer loop
      vertex 12.3514 -7.5 1.8325
      vertex 12.0238 -9.4 1.62192
      vertex 12.5 -9.4 -2.22045e-16
    endloop
  endfacet
  facet normal 0.941454 -0.192998 0.276436
    outer loop
      vertex 12.3752 -7.5 1.75141
      vertex 12.3514 -7.5 1.8325
      vertex 12.5 -9.4 -2.22045e-16
    endloop
  endfacet
  facet normal 0.642549 -0.192998 0.741541
    outer loop
      vertex 12.3514 -7.5 1.8325
      vertex 10.9719 -7.5 3.02785
      vertex 12.0238 -9.4 1.62192
    endloop
  endfacet
  facet normal 0.642549 -0.192998 0.741541
    outer loop
      vertex 10.908 -7.5 3.0832
      vertex 10.7462 -9.4 2.7289
      vertex 12.0238 -9.4 1.62192
    endloop
  endfacet
  facet normal 0.642549 -0.192998 0.741541
    outer loop
      vertex 10.9719 -7.5 3.02785
      vertex 10.908 -7.5 3.0832
      vertex 12.0238 -9.4 1.62192
    endloop
  endfacet
  facet normal 0.139639 -0.192998 0.971212
    outer loop
      vertex 10.908 -7.5 3.0832
      vertex 9.10128 -7.5 3.34297
      vertex 10.7462 -9.4 2.7289
    endloop
  endfacet
  facet normal 0.139639 -0.192998 0.971212
    outer loop
      vertex 9.10128 -7.5 3.34297
      vertex 9.01762 -7.5 3.355
      vertex 9.07305 -9.4 2.96946
    endloop
  endfacet
  facet normal 0.139639 -0.192998 0.971212
    outer loop
      vertex 10.7462 -9.4 2.7289
      vertex 9.10128 -7.5 3.34297
      vertex 9.07305 -9.4 2.96946
    endloop
  endfacet
  facet normal -0.407605 -0.192998 0.89253
    outer loop
      vertex 9.01762 -7.5 3.355
      vertex 7.35723 -7.5 2.59672
      vertex 9.07305 -9.4 2.96946
    endloop
  endfacet
  facet normal -0.407605 -0.192998 0.89253
    outer loop
      vertex 7.35723 -7.5 2.59672
      vertex 7.28035 -7.5 2.56161
      vertex 7.53542 -9.4 2.26725
    endloop
  endfacet
  facet normal -0.407605 -0.192998 0.89253
    outer loop
      vertex 9.07305 -9.4 2.96946
      vertex 7.35723 -7.5 2.59672
      vertex 7.53542 -9.4 2.26725
    endloop
  endfacet
  facet normal -0.825437 -0.192998 0.530476
    outer loop
      vertex 7.28035 -7.5 2.56161
      vertex 6.29349 -7.5 1.02604
      vertex 7.53542 -9.4 2.26725
    endloop
  endfacet
  facet normal -0.825437 -0.192998 0.530476
    outer loop
      vertex 6.2478 -7.5 0.954933
      vertex 6.62152 -9.4 0.845198
      vertex 6.29349 -7.5 1.02604
    endloop
  endfacet
  facet normal -0.825437 -0.192998 0.530476
    outer loop
      vertex 6.29349 -7.5 1.02604
      vertex 6.62152 -9.4 0.845198
      vertex 7.53542 -9.4 2.26725
    endloop
  endfacet
  facet normal 0.951056 6.86156e-17 0.309017
    outer loop
      vertex 8.24602 -9.4 -0.911067
      vertex 8.24602 -3.45 -0.911067
      vertex 7.95 -3.45 2.87548e-15
    endloop
  endfacet
  facet normal 0.951056 6.86156e-17 0.309017
    outer loop
      vertex 7.95 -9.4 4.19664e-15
      vertex 8.24602 -9.4 -0.911067
      vertex 7.95 -3.45 2.87548e-15
    endloop
  endfacet
  facet normal 0.587786 1.79638e-16 0.809017
    outer loop
      vertex 9.02102 -9.4 -1.47414
      vertex 9.02102 -3.45 -1.47414
      vertex 8.24602 -3.45 -0.911067
    endloop
  endfacet
  facet normal 0.587786 1.79638e-16 0.809017
    outer loop
      vertex 8.24602 -9.4 -0.911067
      vertex 9.02102 -9.4 -1.47414
      vertex 8.24602 -3.45 -0.911067
    endloop
  endfacet
  facet normal 0.951056 -6.86156e-17 -0.309017
    outer loop
      vertex 7.95 -3.45 2.87548e-15
      vertex 8.24602 -3.45 0.911067
      vertex 8.24602 -9.4 0.911067
    endloop
  endfacet
  facet normal 0.951056 -6.86156e-17 -0.309017
    outer loop
      vertex 7.95 -9.4 4.19664e-15
      vertex 7.95 -3.45 2.87548e-15
      vertex 8.24602 -9.4 0.911067
    endloop
  endfacet
  facet normal 0.587786 -1.79638e-16 -0.809017
    outer loop
      vertex 9.02102 -3.45 1.47414
      vertex 9.02102 -9.4 1.47414
      vertex 8.24602 -3.45 0.911067
    endloop
  endfacet
  facet normal 0.587786 -1.79638e-16 -0.809017
    outer loop
      vertex 8.24602 -3.45 0.911067
      vertex 9.02102 -9.4 1.47414
      vertex 8.24602 -9.4 0.911067
    endloop
  endfacet
  facet normal 0 -2.22045e-16 -1
    outer loop
      vertex 9.97898 -3.45 1.47414
      vertex 9.97898 -9.4 1.47414
      vertex 9.02102 -3.45 1.47414
    endloop
  endfacet
  facet normal 0 -2.22045e-16 -1
    outer loop
      vertex 9.02102 -3.45 1.47414
      vertex 9.97898 -9.4 1.47414
      vertex 9.02102 -9.4 1.47414
    endloop
  endfacet
  facet normal -0.587786 -1.79638e-16 -0.809017
    outer loop
      vertex 10.754 -3.45 0.911067
      vertex 10.754 -9.4 0.911067
      vertex 9.97898 -3.45 1.47414
    endloop
  endfacet
  facet normal -0.587786 -1.79638e-16 -0.809017
    outer loop
      vertex 9.97898 -3.45 1.47414
      vertex 10.754 -9.4 0.911067
      vertex 9.97898 -9.4 1.47414
    endloop
  endfacet
  facet normal -0.951056 -6.86156e-17 -0.309017
    outer loop
      vertex 11.05 -3.45 2.87548e-15
      vertex 11.05 -9.4 4.19664e-15
      vertex 10.754 -3.45 0.911067
    endloop
  endfacet
  facet normal -0.951056 -6.86156e-17 -0.309017
    outer loop
      vertex 10.754 -3.45 0.911067
      vertex 11.05 -9.4 4.19664e-15
      vertex 10.754 -9.4 0.911067
    endloop
  endfacet
  facet normal -0.951056 6.86156e-17 0.309017
    outer loop
      vertex 11.05 -3.45 2.87548e-15
      vertex 10.754 -3.45 -0.911067
      vertex 11.05 -9.4 4.19664e-15
    endloop
  endfacet
  facet normal -0.951056 6.86156e-17 0.309017
    outer loop
      vertex 11.05 -9.4 4.19664e-15
      vertex 10.754 -3.45 -0.911067
      vertex 10.754 -9.4 -0.911067
    endloop
  endfacet
  facet normal -0.587786 1.79638e-16 0.809017
    outer loop
      vertex 10.754 -9.4 -0.911067
      vertex 10.754 -3.45 -0.911067
      vertex 9.97898 -3.45 -1.47414
    endloop
  endfacet
  facet normal -0.587786 1.79638e-16 0.809017
    outer loop
      vertex 9.97898 -9.4 -1.47414
      vertex 10.754 -9.4 -0.911067
      vertex 9.97898 -3.45 -1.47414
    endloop
  endfacet
  facet normal 0 2.22045e-16 1
    outer loop
      vertex 9.97898 -9.4 -1.47414
      vertex 9.97898 -3.45 -1.47414
      vertex 9.02102 -3.45 -1.47414
    endloop
  endfacet
  facet normal 0 2.22045e-16 1
    outer loop
      vertex 9.02102 -9.4 -1.47414
      vertex 9.97898 -9.4 -1.47414
      vertex 9.02102 -3.45 -1.47414
    endloop
  endfacet
  facet normal 0.951056 6.86156e-17 0.309017
    outer loop
      vertex 8.24602 3.45 -0.911067
      vertex 8.24602 7.5 -0.911067
      vertex 7.95 7.5 4.44089e-16
    endloop
  endfacet
  facet normal 0.951056 6.86156e-17 0.309017
    outer loop
      vertex 7.95 3.45 1.34337e-15
      vertex 8.24602 3.45 -0.911067
      vertex 7.95 7.5 4.44089e-16
    endloop
  endfacet
  facet normal 0.951056 -6.86156e-17 -0.309017
    outer loop
      vertex 7.95 7.5 4.44089e-16
      vertex 8.24602 7.5 0.911067
      vertex 8.24602 3.45 0.911067
    endloop
  endfacet
  facet normal 0.951056 -6.86156e-17 -0.309017
    outer loop
      vertex 7.95 3.45 1.34337e-15
      vertex 7.95 7.5 4.44089e-16
      vertex 8.24602 3.45 0.911067
    endloop
  endfacet
  facet normal 0.587786 1.79638e-16 0.809017
    outer loop
      vertex 9.02102 3.45 -1.47414
      vertex 9.02102 7.5 -1.47414
      vertex 8.24602 7.5 -0.911067
    endloop
  endfacet
  facet normal 0.587786 1.79638e-16 0.809017
    outer loop
      vertex 8.24602 3.45 -0.911067
      vertex 9.02102 3.45 -1.47414
      vertex 8.24602 7.5 -0.911067
    endloop
  endfacet
  facet normal 0 2.22045e-16 1
    outer loop
      vertex 9.97898 3.45 -1.47414
      vertex 9.97898 7.5 -1.47414
      vertex 9.02102 7.5 -1.47414
    endloop
  endfacet
  facet normal 0 2.22045e-16 1
    outer loop
      vertex 9.02102 3.45 -1.47414
      vertex 9.97898 3.45 -1.47414
      vertex 9.02102 7.5 -1.47414
    endloop
  endfacet
  facet normal -0.587786 1.79638e-16 0.809017
    outer loop
      vertex 10.754 3.45 -0.911067
      vertex 10.754 7.5 -0.911067
      vertex 9.97898 7.5 -1.47414
    endloop
  endfacet
  facet normal -0.587786 1.79638e-16 0.809017
    outer loop
      vertex 9.97898 3.45 -1.47414
      vertex 10.754 3.45 -0.911067
      vertex 9.97898 7.5 -1.47414
    endloop
  endfacet
  facet normal -0.951056 6.86156e-17 0.309017
    outer loop
      vertex 11.05 7.5 4.44089e-16
      vertex 10.754 7.5 -0.911067
      vertex 11.05 3.45 1.34337e-15
    endloop
  endfacet
  facet normal -0.951056 6.86156e-17 0.309017
    outer loop
      vertex 11.05 3.45 1.34337e-15
      vertex 10.754 7.5 -0.911067
      vertex 10.754 3.45 -0.911067
    endloop
  endfacet
  facet normal -0.951056 -6.86156e-17 -0.309017
    outer loop
      vertex 11.05 7.5 4.44089e-16
      vertex 11.05 3.45 1.34337e-15
      vertex 10.754 7.5 0.911067
    endloop
  endfacet
  facet normal -0.951056 -6.86156e-17 -0.309017
    outer loop
      vertex 10.754 7.5 0.911067
      vertex 11.05 3.45 1.34337e-15
      vertex 10.754 3.45 0.911067
    endloop
  endfacet
  facet normal -0.587786 -1.79638e-16 -0.809017
    outer loop
      vertex 10.754 7.5 0.911067
      vertex 10.754 3.45 0.911067
      vertex 9.97898 7.5 1.47414
    endloop
  endfacet
  facet normal -0.587786 -1.79638e-16 -0.809017
    outer loop
      vertex 9.97898 7.5 1.47414
      vertex 10.754 3.45 0.911067
      vertex 9.97898 3.45 1.47414
    endloop
  endfacet
  facet normal 0 -2.22045e-16 -1
    outer loop
      vertex 9.97898 7.5 1.47414
      vertex 9.97898 3.45 1.47414
      vertex 9.02102 7.5 1.47414
    endloop
  endfacet
  facet normal 0 -2.22045e-16 -1
    outer loop
      vertex 9.02102 7.5 1.47414
      vertex 9.97898 3.45 1.47414
      vertex 9.02102 3.45 1.47414
    endloop
  endfacet
  facet normal 0.587786 -1.79638e-16 -0.809017
    outer loop
      vertex 9.02102 7.5 1.47414
      vertex 9.02102 3.45 1.47414
      vertex 8.24602 7.5 0.911067
    endloop
  endfacet
  facet normal 0.587786 -1.79638e-16 -0.809017
    outer loop
      vertex 8.24602 7.5 0.911067
      vertex 9.02102 3.45 1.47414
      vertex 8.24602 3.45 0.911067
    endloop
  endfacet
  facet normal 0.866025 1.11022e-16 0.5
    outer loop
      vertex 12.3868 9.4 5
      vertex 12.3868 7.4 5
      vertex 12.3868 7.5 5
    endloop
  endfacet
  facet normal 0.866025 1.11022e-16 0.5
    outer loop
      vertex 15.2735 7.5 4.21885e-16
      vertex 12.3868 9.4 5
      vertex 12.3868 7.5 5
    endloop
  endfacet
  facet normal 0.866025 1.11022e-16 0.5
    outer loop
      vertex 15.2735 9.4 0
      vertex 12.3868 9.4 5
      vertex 15.2735 7.5 4.21885e-16
    endloop
  endfacet
  facet normal 0.866025 -1.11022e-16 -0.5
    outer loop
      vertex 15.2735 7.5 4.21885e-16
      vertex 12.3868 7.5 -5
      vertex 12.3868 9.4 -5
    endloop
  endfacet
  facet normal 0.866025 -1.11022e-16 -0.5
    outer loop
      vertex 15.2735 9.4 0
      vertex 15.2735 7.5 4.21885e-16
      vertex 12.3868 9.4 -5
    endloop
  endfacet
  facet normal 0 -2.22045e-16 -1
    outer loop
      vertex 6.61325 7.5 -5
      vertex 6.61325 9.4 -5
      vertex 12.3868 7.5 -5
    endloop
  endfacet
  facet normal 0 -2.22045e-16 -1
    outer loop
      vertex 12.3868 7.5 -5
      vertex 6.61325 9.4 -5
      vertex 12.3868 9.4 -5
    endloop
  endfacet
  facet normal -0.866025 -1.11022e-16 -0.5
    outer loop
      vertex 3.7265 7.5 4.21885e-16
      vertex 3.7265 9.4 0
      vertex 6.61325 7.5 -5
    endloop
  endfacet
  facet normal -0.866025 -1.11022e-16 -0.5
    outer loop
      vertex 6.61325 7.5 -5
      vertex 3.7265 9.4 0
      vertex 6.61325 9.4 -5
    endloop
  endfacet
  facet normal -0.866025 1.11022e-16 0.5
    outer loop
      vertex 3.7265 7.5 4.21885e-16
      vertex 6.61325 7.5 5
      vertex 3.7265 9.4 0
    endloop
  endfacet
  facet normal -0.866025 1.11022e-16 0.5
    outer loop
      vertex 6.61325 9.4 5
      vertex 6.61325 7.5 5
      vertex 6.61325 7.4 5
    endloop
  endfacet
  facet normal -0.866025 1.11022e-16 0.5
    outer loop
      vertex 3.7265 9.4 0
      vertex 6.61325 7.5 5
      vertex 6.61325 9.4 5
    endloop
  endfacet
  facet normal 0 -1 -2.22045e-16
    outer loop
      vertex 7.53542 -9.4 2.26725
      vertex 6.62152 -9.4 0.845198
      vertex 6.62152 -9.4 -0.845198
    endloop
  endfacet
  facet normal 0 -1 -2.22045e-16
    outer loop
      vertex 7.95 -9.4 4.19664e-15
      vertex 7.53542 -9.4 2.26725
      vertex 7.53542 -9.4 -2.26725
    endloop
  endfacet
  facet normal 0 -1 -2.22045e-16
    outer loop
      vertex 7.53542 -9.4 -2.26725
      vertex 7.53542 -9.4 2.26725
      vertex 6.62152 -9.4 -0.845198
    endloop
  endfacet
  facet normal 0 -1 -2.22045e-16
    outer loop
      vertex 11.05 -9.4 4.19664e-15
      vertex 10.754 -9.4 -0.911067
      vertex 12.0238 -9.4 -1.62192
    endloop
  endfacet
  facet normal 0 -1 -2.22045e-16
    outer loop
      vertex 10.754 -9.4 0.911067
      vertex 11.05 -9.4 4.19664e-15
      vertex 12.5 -9.4 -2.22045e-16
    endloop
  endfacet
  facet normal 0 -1 -2.22045e-16
    outer loop
      vertex 10.7462 -9.4 2.7289
      vertex 7.53542 -9.4 2.26725
      vertex 12.0238 -9.4 1.62192
    endloop
  endfacet
  facet normal 0 -1 -2.22045e-16
    outer loop
      vertex 9.07305 -9.4 2.96946
      vertex 7.53542 -9.4 2.26725
      vertex 10.7462 -9.4 2.7289
    endloop
  endfacet
  facet normal 0 -1 -2.22045e-16
    outer loop
      vertex 8.24602 -9.4 -0.911067
      vertex 7.95 -9.4 4.19664e-15
      vertex 7.53542 -9.4 -2.26725
    endloop
  endfacet
  facet normal 0 -1 -2.22045e-16
    outer loop
      vertex 9.97898 -9.4 -1.47414
      vertex 9.02102 -9.4 -1.47414
      vertex 10.7462 -9.4 -2.7289
    endloop
  endfacet
  facet normal 0 -1 -2.22045e-16
    outer loop
      vertex 9.02102 -9.4 -1.47414
      vertex 8.24602 -9.4 -0.911067
      vertex 9.07305 -9.4 -2.96946
    endloop
  endfacet
  facet normal 0 -1 -2.22045e-16
    outer loop
      vertex 12.0238 -9.4 1.62192
      vertex 9.97898 -9.4 1.47414
      vertex 12.5 -9.4 -2.22045e-16
    endloop
  endfacet
  facet normal 0 -1 -2.22045e-16
    outer loop
      vertex 12.0238 -9.4 1.62192
      vertex 7.53542 -9.4 2.26725
      vertex 9.97898 -9.4 1.47414
    endloop
  endfacet
  facet normal 0 -1 -2.22045e-16
    outer loop
      vertex 9.97898 -9.4 1.47414
      vertex 10.754 -9.4 0.911067
      vertex 12.5 -9.4 -2.22045e-16
    endloop
  endfacet
  facet normal 0 -1 -2.22045e-16
    outer loop
      vertex 12.5 -9.4 -2.22045e-16
      vertex 11.05 -9.4 4.19664e-15
      vertex 12.0238 -9.4 -1.62192
    endloop
  endfacet
  facet normal 0 -1 -2.22045e-16
    outer loop
      vertex 12.0238 -9.4 -1.62192
      vertex 10.754 -9.4 -0.911067
      vertex 10.7462 -9.4 -2.7289
    endloop
  endfacet
  facet normal 0 -1 -2.22045e-16
    outer loop
      vertex 10.754 -9.4 -0.911067
      vertex 9.97898 -9.4 -1.47414
      vertex 10.7462 -9.4 -2.7289
    endloop
  endfacet
  facet normal 0 -1 -2.22045e-16
    outer loop
      vertex 9.02102 -9.4 1.47414
      vertex 9.97898 -9.4 1.47414
      vertex 7.53542 -9.4 2.26725
    endloop
  endfacet
  facet normal 0 -1 -2.22045e-16
    outer loop
      vertex 10.7462 -9.4 -2.7289
      vertex 9.02102 -9.4 -1.47414
      vertex 9.07305 -9.4 -2.96946
    endloop
  endfacet
  facet normal 0 -1 -2.22045e-16
    outer loop
      vertex 9.07305 -9.4 -2.96946
      vertex 8.24602 -9.4 -0.911067
      vertex 7.53542 -9.4 -2.26725
    endloop
  endfacet
  facet normal 0 -1 -2.22045e-16
    outer loop
      vertex 7.95 -9.4 4.19664e-15
      vertex 8.24602 -9.4 0.911067
      vertex 7.53542 -9.4 2.26725
    endloop
  endfacet
  facet normal 0 -1 -2.22045e-16
    outer loop
      vertex 8.24602 -9.4 0.911067
      vertex 9.02102 -9.4 1.47414
      vertex 7.53542 -9.4 2.26725
    endloop
  endfacet
  facet normal 0 1 0
    outer loop
      vertex 6.15137 7.5 4.21885e-16
      vertex 7.82568 7.5 2.9
      vertex 7.82568 7.5 -2.9
    endloop
  endfacet
  facet normal 0 1 0
    outer loop
      vertex 9.02102 7.5 1.47414
      vertex 7.82568 7.5 2.9
      vertex 11.1743 7.5 2.9
    endloop
  endfacet
  facet normal 0 1 0
    outer loop
      vertex 11.05 7.5 4.44089e-16
      vertex 11.1743 7.5 2.9
      vertex 12.8486 7.5 4.21885e-16
    endloop
  endfacet
  facet normal 0 1 0
    outer loop
      vertex 7.82568 7.5 -2.9
      vertex 12.8486 7.5 4.21885e-16
      vertex 11.1743 7.5 -2.9
    endloop
  endfacet
  facet normal 0 1 0
    outer loop
      vertex 7.82568 7.5 -2.9
      vertex 7.82568 7.5 2.9
      vertex 7.95 7.5 4.44089e-16
    endloop
  endfacet
  facet normal 0 1 0
    outer loop
      vertex 7.82568 7.5 -2.9
      vertex 7.95 7.5 4.44089e-16
      vertex 8.24602 7.5 -0.911067
    endloop
  endfacet
  facet normal 0 1 0
    outer loop
      vertex 11.05 7.5 4.44089e-16
      vertex 12.8486 7.5 4.21885e-16
      vertex 10.754 7.5 -0.911067
    endloop
  endfacet
  facet normal 0 1 0
    outer loop
      vertex 7.82568 7.5 -2.9
      vertex 9.02102 7.5 -1.47414
      vertex 9.97898 7.5 -1.47414
    endloop
  endfacet
  facet normal 0 1 0
    outer loop
      vertex 7.82568 7.5 -2.9
      vertex 9.97898 7.5 -1.47414
      vertex 12.8486 7.5 4.21885e-16
    endloop
  endfacet
  facet normal 0 1 0
    outer loop
      vertex 9.97898 7.5 -1.47414
      vertex 10.754 7.5 -0.911067
      vertex 12.8486 7.5 4.21885e-16
    endloop
  endfacet
  facet normal 0 1 0
    outer loop
      vertex 10.754 7.5 0.911067
      vertex 11.1743 7.5 2.9
      vertex 11.05 7.5 4.44089e-16
    endloop
  endfacet
  facet normal 0 1 0
    outer loop
      vertex 9.97898 7.5 1.47414
      vertex 11.1743 7.5 2.9
      vertex 10.754 7.5 0.911067
    endloop
  endfacet
  facet normal 0 1 0
    outer loop
      vertex 9.02102 7.5 1.47414
      vertex 11.1743 7.5 2.9
      vertex 9.97898 7.5 1.47414
    endloop
  endfacet
  facet normal 0 1 0
    outer loop
      vertex 8.24602 7.5 0.911067
      vertex 7.82568 7.5 2.9
      vertex 9.02102 7.5 1.47414
    endloop
  endfacet
  facet normal 0 1 0
    outer loop
      vertex 7.95 7.5 4.44089e-16
      vertex 7.82568 7.5 2.9
      vertex 8.24602 7.5 0.911067
    endloop
  endfacet
  facet normal 0 1 0
    outer loop
      vertex 9.02102 7.5 -1.47414
      vertex 7.82568 7.5 -2.9
      vertex 8.24602 7.5 -0.911067
    endloop
  endfacet
  facet normal 0 1 -2.22045e-16
    outer loop
      vertex 7.82568 9.4 -2.9
      vertex 6.61325 9.4 -5
      vertex 6.15137 9.4 0
    endloop
  endfacet
  facet normal 0 1 -2.22045e-16
    outer loop
      vertex 7.82568 9.4 2.9
      vertex 6.61325 9.4 5
      vertex 12.3868 9.4 5
    endloop
  endfacet
  facet normal 0 1 -2.22045e-16
    outer loop
      vertex 12.8486 9.4 0
      vertex 12.3868 9.4 5
      vertex 15.2735 9.4 0
    endloop
  endfacet
  facet normal 0 1 -2.22045e-16
    outer loop
      vertex 11.1743 9.4 -2.9
      vertex 15.2735 9.4 0
      vertex 12.3868 9.4 -5
    endloop
  endfacet
  facet normal 0 1 -2.22045e-16
    outer loop
      vertex 3.7265 9.4 0
      vertex 6.61325 9.4 5
      vertex 6.15137 9.4 0
    endloop
  endfacet
  facet normal 0 1 -2.22045e-16
    outer loop
      vertex 3.7265 9.4 0
      vertex 6.15137 9.4 0
      vertex 6.61325 9.4 -5
    endloop
  endfacet
  facet normal 0 1 -2.22045e-16
    outer loop
      vertex 12.8486 9.4 0
      vertex 15.2735 9.4 0
      vertex 11.1743 9.4 -2.9
    endloop
  endfacet
  facet normal 0 1 -2.22045e-16
    outer loop
      vertex 6.61325 9.4 -5
      vertex 11.1743 9.4 -2.9
      vertex 12.3868 9.4 -5
    endloop
  endfacet
  facet normal 0 1 -2.22045e-16
    outer loop
      vertex 11.1743 9.4 2.9
      vertex 12.3868 9.4 5
      vertex 12.8486 9.4 0
    endloop
  endfacet
  facet normal 0 1 -2.22045e-16
    outer loop
      vertex 6.15137 9.4 0
      vertex 6.61325 9.4 5
      vertex 7.82568 9.4 2.9
    endloop
  endfacet
  facet normal 0 1 -2.22045e-16
    outer loop
      vertex 11.1743 9.4 -2.9
      vertex 6.61325 9.4 -5
      vertex 7.82568 9.4 -2.9
    endloop
  endfacet
  facet normal 0 1 -2.22045e-16
    outer loop
      vertex 7.82568 9.4 2.9
      vertex 12.3868 9.4 5
      vertex 11.1743 9.4 2.9
    endloop
  endfacet
  facet normal 0 2.22045e-16 1
    outer loop
      vertex 6.61325 9.4 5
      vertex 6.61325 7.4 5
      vertex 12.3868 7.4 5
    endloop
  endfacet
  facet normal 0 2.22045e-16 1
    outer loop
      vertex 12.3868 9.4 5
      vertex 6.61325 9.4 5
      vertex 12.3868 7.4 5
    endloop
  endfacet
  facet normal 0.866025 1.11022e-16 0.5
    outer loop
      vertex 7.82568 7.5 -2.9
      vertex 7.82568 9.4 -2.9
      vertex 6.15137 9.4 0
    endloop
  endfacet
  facet normal 0.866025 1.11022e-16 0.5
    outer loop
      vertex 6.15137 7.5 4.21885e-16
      vertex 7.82568 7.5 -2.9
      vertex 6.15137 9.4 0
    endloop
  endfacet
  facet normal 0 2.22045e-16 1
    outer loop
      vertex 11.1743 7.5 -2.9
      vertex 11.1743 9.4 -2.9
      vertex 7.82568 9.4 -2.9
    endloop
  endfacet
  facet normal 0 2.22045e-16 1
    outer loop
      vertex 7.82568 7.5 -2.9
      vertex 11.1743 7.5 -2.9
      vertex 7.82568 9.4 -2.9
    endloop
  endfacet
  facet normal -0.866025 1.11022e-16 0.5
    outer loop
      vertex 12.8486 9.4 0
      vertex 11.1743 9.4 -2.9
      vertex 12.8486 7.5 4.21885e-16
    endloop
  endfacet
  facet normal -0.866025 1.11022e-16 0.5
    outer loop
      vertex 12.8486 7.5 4.21885e-16
      vertex 11.1743 9.4 -2.9
      vertex 11.1743 7.5 -2.9
    endloop
  endfacet
  facet normal -0.866025 -1.11022e-16 -0.5
    outer loop
      vertex 12.8486 9.4 0
      vertex 12.8486 7.5 4.21885e-16
      vertex 11.1743 9.4 2.9
    endloop
  endfacet
  facet normal -0.866025 -1.11022e-16 -0.5
    outer loop
      vertex 11.1743 9.4 2.9
      vertex 12.8486 7.5 4.21885e-16
      vertex 11.1743 7.5 2.9
    endloop
  endfacet
  facet normal 0 -2.22045e-16 -1
    outer loop
      vertex 11.1743 9.4 2.9
      vertex 11.1743 7.5 2.9
      vertex 7.82568 9.4 2.9
    endloop
  endfacet
  facet normal 0 -2.22045e-16 -1
    outer loop
      vertex 7.82568 9.4 2.9
      vertex 11.1743 7.5 2.9
      vertex 7.82568 7.5 2.9
    endloop
  endfacet
  facet normal 0.866025 -1.11022e-16 -0.5
    outer loop
      vertex 6.15137 9.4 0
      vertex 7.82568 9.4 2.9
      vertex 7.82568 7.5 2.9
    endloop
  endfacet
  facet normal 0.866025 -1.11022e-16 -0.5
    outer loop
      vertex 6.15137 7.5 4.21885e-16
      vertex 6.15137 9.4 0
      vertex 7.82568 7.5 2.9
    endloop
  endfacet
endsolid OpenSCAD_Model
