solid OpenSCAD_Model
  facet normal -0.000000 0.000000 -1.000000
    outer loop
      vertex -7.800000 0.000000 -5.000000
      vertex -7.418241 2.410333 -5.000000
      vertex -7.418241 -2.410333 -5.000000
    endloop
  endfacet
  facet normal 0.000000 -0.000000 -1.000000
    outer loop
      vertex -7.418241 -2.410333 -5.000000
      vertex -7.418241 2.410333 -5.000000
      vertex -6.310333 4.584725 -5.000000
    endloop
  endfacet
  facet normal 0.000000 0.000000 -1.000000
    outer loop
      vertex -7.418241 -2.410333 -5.000000
      vertex -6.310333 4.584725 -5.000000
      vertex -4.584725 6.310333 -5.000000
    endloop
  endfacet
  facet normal 0.000000 0.000000 -1.000000
    outer loop
      vertex -7.418241 -2.410333 -5.000000
      vertex -4.584725 6.310333 -5.000000
      vertex -2.410333 7.418241 -5.000000
    endloop
  endfacet
  facet normal 0.000000 0.000000 -1.000000
    outer loop
      vertex -7.418241 -2.410333 -5.000000
      vertex -2.410333 7.418241 -5.000000
      vertex 0.000000 7.800000 -5.000000
    endloop
  endfacet
  facet normal 0.000000 -0.000000 -1.000000
    outer loop
      vertex 2.425324 3.750000 -5.000000
      vertex 0.000000 7.800000 -5.000000
      vertex 15.500000 7.800000 -5.000000
    endloop
  endfacet
  facet normal -0.000000 -0.000000 -1.000000
    outer loop
      vertex 2.250000 3.897114 -5.000000
      vertex 0.000000 7.800000 -5.000000
      vertex 2.425324 3.750000 -5.000000
    endloop
  endfacet
  facet normal 0.000000 -0.000000 -1.000000
    outer loop
      vertex -4.500000 0.000000 -5.000000
      vertex -7.418241 -2.410333 -5.000000
      vertex -4.228617 1.539091 -5.000000
    endloop
  endfacet
  facet normal -0.000000 -0.000000 -1.000000
    outer loop
      vertex 0.781417 4.431635 -5.000000
      vertex 0.000000 7.800000 -5.000000
      vertex 2.250000 3.897114 -5.000000
    endloop
  endfacet
  facet normal -0.000000 0.000000 -1.000000
    outer loop
      vertex -0.781417 4.431635 -5.000000
      vertex 0.000000 7.800000 -5.000000
      vertex 0.781417 4.431635 -5.000000
    endloop
  endfacet
  facet normal 0.000000 0.000000 -1.000000
    outer loop
      vertex -2.250000 3.897114 -5.000000
      vertex 0.000000 7.800000 -5.000000
      vertex -0.781417 4.431635 -5.000000
    endloop
  endfacet
  facet normal 0.000000 0.000000 -1.000000
    outer loop
      vertex -3.447200 2.892544 -5.000000
      vertex 0.000000 7.800000 -5.000000
      vertex -2.250000 3.897114 -5.000000
    endloop
  endfacet
  facet normal 0.000000 0.000000 -1.000000
    outer loop
      vertex -7.418241 -2.410333 -5.000000
      vertex 0.000000 7.800000 -5.000000
      vertex -3.447200 2.892544 -5.000000
    endloop
  endfacet
  facet normal 0.000000 0.000000 -1.000000
    outer loop
      vertex -7.418241 -2.410333 -5.000000
      vertex -3.447200 2.892544 -5.000000
      vertex -4.228617 1.539091 -5.000000
    endloop
  endfacet
  facet normal 0.000000 0.000000 -1.000000
    outer loop
      vertex -4.228617 -1.539091 -5.000000
      vertex -7.418241 -2.410333 -5.000000
      vertex -4.500000 0.000000 -5.000000
    endloop
  endfacet
  facet normal 0.000000 0.000000 -1.000000
    outer loop
      vertex 15.500000 -3.750000 -5.000000
      vertex 2.250000 -3.897114 -5.000000
      vertex 2.425324 -3.750000 -5.000000
    endloop
  endfacet
  facet normal 0.000000 0.000000 -1.000000
    outer loop
      vertex -7.418241 -2.410333 -5.000000
      vertex -3.447200 -2.892544 -5.000000
      vertex -2.250000 -3.897114 -5.000000
    endloop
  endfacet
  facet normal 0.000000 0.000000 -1.000000
    outer loop
      vertex -2.250000 -3.897114 -5.000000
      vertex -0.781417 -4.431635 -5.000000
      vertex -7.418241 -2.410333 -5.000000
    endloop
  endfacet
  facet normal -0.000000 0.000000 -1.000000
    outer loop
      vertex 2.250000 -3.897114 -5.000000
      vertex 15.500000 -3.750000 -5.000000
      vertex 0.781417 -4.431635 -5.000000
    endloop
  endfacet
  facet normal -0.000000 0.000000 -1.000000
    outer loop
      vertex 0.781417 -4.431635 -5.000000
      vertex 15.500000 -3.750000 -5.000000
      vertex 15.500000 -7.800000 -5.000000
    endloop
  endfacet
  facet normal 0.000000 0.000000 -1.000000
    outer loop
      vertex 0.781417 -4.431635 -5.000000
      vertex 15.500000 -7.800000 -5.000000
      vertex -0.781417 -4.431635 -5.000000
    endloop
  endfacet
  facet normal 0.000000 0.000000 -1.000000
    outer loop
      vertex -0.781417 -4.431635 -5.000000
      vertex 15.500000 -7.800000 -5.000000
      vertex 0.000000 -7.800000 -5.000000
    endloop
  endfacet
  facet normal 0.000000 0.000000 -1.000000
    outer loop
      vertex -0.781417 -4.431635 -5.000000
      vertex 0.000000 -7.800000 -5.000000
      vertex -7.418241 -2.410333 -5.000000
    endloop
  endfacet
  facet normal 0.000000 0.000000 -1.000000
    outer loop
      vertex -7.418241 -2.410333 -5.000000
      vertex 0.000000 -7.800000 -5.000000
      vertex -2.410333 -7.418241 -5.000000
    endloop
  endfacet
  facet normal 0.000000 0.000000 -1.000000
    outer loop
      vertex -7.418241 -2.410333 -5.000000
      vertex -2.410333 -7.418241 -5.000000
      vertex -4.584725 -6.310333 -5.000000
    endloop
  endfacet
  facet normal 0.000000 0.000000 -1.000000
    outer loop
      vertex -7.418241 -2.410333 -5.000000
      vertex -4.584725 -6.310333 -5.000000
      vertex -6.310333 -4.584725 -5.000000
    endloop
  endfacet
  facet normal -0.000000 0.000000 -1.000000
    outer loop
      vertex 2.425324 3.750000 -5.000000
      vertex 15.500000 7.800000 -5.000000
      vertex 15.500000 3.750000 -5.000000
    endloop
  endfacet
  facet normal 0.000000 0.000000 -1.000000
    outer loop
      vertex -3.447200 -2.892544 -5.000000
      vertex -7.418241 -2.410333 -5.000000
      vertex -4.228617 -1.539091 -5.000000
    endloop
  endfacet
  facet normal -0.987688 0.156434 0.000000
    outer loop
      vertex -7.800000 0.000000 -5.000000
      vertex -7.800000 0.000000 5.000000
      vertex -7.418241 2.410333 -5.000000
    endloop
  endfacet
  facet normal -0.987688 0.156434 0.000000
    outer loop
      vertex -7.418241 2.410333 -5.000000
      vertex -7.800000 0.000000 5.000000
      vertex -7.418241 2.410333 5.000000
    endloop
  endfacet
  facet normal -0.987688 -0.156434 -0.000000
    outer loop
      vertex -7.800000 0.000000 -5.000000
      vertex -7.418241 -2.410333 -5.000000
      vertex -7.800000 0.000000 5.000000
    endloop
  endfacet
  facet normal -0.987688 -0.156434 0.000000
    outer loop
      vertex -7.800000 0.000000 5.000000
      vertex -7.418241 -2.410333 -5.000000
      vertex -7.418241 -2.410333 5.000000
    endloop
  endfacet
  facet normal -0.891007 -0.453990 -0.000000
    outer loop
      vertex -7.418241 -2.410333 -5.000000
      vertex -6.310333 -4.584725 -5.000000
      vertex -7.418241 -2.410333 5.000000
    endloop
  endfacet
  facet normal -0.891007 -0.453990 0.000000
    outer loop
      vertex -7.418241 -2.410333 5.000000
      vertex -6.310333 -4.584725 -5.000000
      vertex -6.310333 -4.584725 5.000000
    endloop
  endfacet
  facet normal -0.707107 -0.707107 0.000000
    outer loop
      vertex -6.310333 -4.584725 5.000000
      vertex -6.310333 -4.584725 -5.000000
      vertex -4.584725 -6.310333 -5.000000
    endloop
  endfacet
  facet normal -0.707107 -0.707107 0.000000
    outer loop
      vertex -4.584725 -6.310333 5.000000
      vertex -6.310333 -4.584725 5.000000
      vertex -4.584725 -6.310333 -5.000000
    endloop
  endfacet
  facet normal -0.453990 -0.891007 0.000000
    outer loop
      vertex -4.584725 -6.310333 5.000000
      vertex -4.584725 -6.310333 -5.000000
      vertex -2.410333 -7.418241 -5.000000
    endloop
  endfacet
  facet normal -0.453990 -0.891007 0.000000
    outer loop
      vertex -2.410333 -7.418241 5.000000
      vertex -4.584725 -6.310333 5.000000
      vertex -2.410333 -7.418241 -5.000000
    endloop
  endfacet
  facet normal -0.156434 -0.987688 0.000000
    outer loop
      vertex -2.410333 -7.418241 5.000000
      vertex -2.410333 -7.418241 -5.000000
      vertex 0.000000 -7.800000 -5.000000
    endloop
  endfacet
  facet normal -0.156434 -0.987688 0.000000
    outer loop
      vertex 0.000000 -7.800000 5.000000
      vertex -2.410333 -7.418241 5.000000
      vertex 0.000000 -7.800000 -5.000000
    endloop
  endfacet
  facet normal 0.000000 -1.000000 0.000000
    outer loop
      vertex 8.674671 -7.800000 -1.616796
      vertex 0.000000 -7.800000 -5.000000
      vertex 15.500000 -7.800000 -5.000000
    endloop
  endfacet
  facet normal 0.000000 -1.000000 0.000000
    outer loop
      vertex 0.000000 -7.800000 5.000000
      vertex 0.000000 -7.800000 -5.000000
      vertex 7.824671 -7.800000 -0.999235
    endloop
  endfacet
  facet normal -0.000000 -1.000000 0.000000
    outer loop
      vertex 8.674671 -7.800000 1.616796
      vertex 9.725329 -7.800000 1.616796
      vertex 15.500000 -7.800000 5.000000
    endloop
  endfacet
  facet normal 0.000000 -1.000000 0.000000
    outer loop
      vertex 0.000000 -7.800000 5.000000
      vertex 7.824671 -7.800000 -0.999235
      vertex 7.500000 -7.800000 0.000000
    endloop
  endfacet
  facet normal 0.000000 -1.000000 0.000000
    outer loop
      vertex 8.674671 -7.800000 1.616796
      vertex 0.000000 -7.800000 5.000000
      vertex 7.824671 -7.800000 0.999235
    endloop
  endfacet
  facet normal 0.000000 -1.000000 0.000000
    outer loop
      vertex 10.575329 -7.800000 0.999235
      vertex 10.900000 -7.800000 0.000000
      vertex 15.500000 -7.800000 -5.000000
    endloop
  endfacet
  facet normal 0.000000 -1.000000 0.000000
    outer loop
      vertex 15.500000 -7.800000 5.000000
      vertex 0.000000 -7.800000 5.000000
      vertex 8.674671 -7.800000 1.616796
    endloop
  endfacet
  facet normal 0.000000 -1.000000 0.000000
    outer loop
      vertex 15.500000 -7.800000 5.000000
      vertex 10.575329 -7.800000 0.999235
      vertex 15.500000 -7.800000 -5.000000
    endloop
  endfacet
  facet normal 0.000000 -1.000000 0.000000
    outer loop
      vertex 15.500000 -7.800000 5.000000
      vertex 9.725329 -7.800000 1.616796
      vertex 10.575329 -7.800000 0.999235
    endloop
  endfacet
  facet normal 0.000000 -1.000000 0.000000
    outer loop
      vertex 10.900000 -7.800000 0.000000
      vertex 10.575329 -7.800000 -0.999235
      vertex 15.500000 -7.800000 -5.000000
    endloop
  endfacet
  facet normal 0.000000 -1.000000 0.000000
    outer loop
      vertex 7.824671 -7.800000 -0.999235
      vertex 0.000000 -7.800000 -5.000000
      vertex 8.674671 -7.800000 -1.616796
    endloop
  endfacet
  facet normal 0.000000 -1.000000 0.000000
    outer loop
      vertex 9.725329 -7.800000 -1.616796
      vertex 8.674671 -7.800000 -1.616796
      vertex 15.500000 -7.800000 -5.000000
    endloop
  endfacet
  facet normal 0.000000 -1.000000 -0.000000
    outer loop
      vertex 7.500000 -7.800000 0.000000
      vertex 7.824671 -7.800000 0.999235
      vertex 0.000000 -7.800000 5.000000
    endloop
  endfacet
  facet normal 0.000000 -1.000000 0.000000
    outer loop
      vertex 10.575329 -7.800000 -0.999235
      vertex 9.725329 -7.800000 -1.616796
      vertex 15.500000 -7.800000 -5.000000
    endloop
  endfacet
  facet normal 1.000000 0.000000 -0.000000
    outer loop
      vertex 15.500000 -7.800000 5.000000
      vertex 15.500000 -7.800000 -5.000000
      vertex 15.500000 -3.750000 -5.000000
    endloop
  endfacet
  facet normal 1.000000 0.000000 0.000000
    outer loop
      vertex 15.500000 -3.750000 5.000000
      vertex 15.500000 -7.800000 5.000000
      vertex 15.500000 -3.750000 -5.000000
    endloop
  endfacet
  facet normal 0.000000 1.000000 -0.000000
    outer loop
      vertex 8.674671 -3.750000 -1.616796
      vertex 15.500000 -3.750000 -5.000000
      vertex 2.425324 -3.750000 -5.000000
    endloop
  endfacet
  facet normal 0.000000 1.000000 -0.000000
    outer loop
      vertex 10.575329 -3.750000 -0.999235
      vertex 15.500000 -3.750000 -5.000000
      vertex 9.725329 -3.750000 -1.616796
    endloop
  endfacet
  facet normal 0.000000 1.000000 -0.000000
    outer loop
      vertex 2.425324 -3.750000 5.000000
      vertex 7.824671 -3.750000 -0.999235
      vertex 2.425324 -3.750000 -5.000000
    endloop
  endfacet
  facet normal 0.000000 1.000000 -0.000000
    outer loop
      vertex 7.824671 -3.750000 -0.999235
      vertex 8.674671 -3.750000 -1.616796
      vertex 2.425324 -3.750000 -5.000000
    endloop
  endfacet
  facet normal 0.000000 1.000000 0.000000
    outer loop
      vertex 15.500000 -3.750000 5.000000
      vertex 15.500000 -3.750000 -5.000000
      vertex 10.575329 -3.750000 -0.999235
    endloop
  endfacet
  facet normal 0.000000 1.000000 0.000000
    outer loop
      vertex 15.500000 -3.750000 5.000000
      vertex 10.575329 -3.750000 -0.999235
      vertex 10.900000 -3.750000 0.000000
    endloop
  endfacet
  facet normal 0.000000 1.000000 0.000000
    outer loop
      vertex 15.500000 -3.750000 5.000000
      vertex 10.900000 -3.750000 0.000000
      vertex 10.575329 -3.750000 0.999235
    endloop
  endfacet
  facet normal 0.000000 1.000000 0.000000
    outer loop
      vertex 15.500000 -3.750000 5.000000
      vertex 10.575329 -3.750000 0.999235
      vertex 9.725329 -3.750000 1.616796
    endloop
  endfacet
  facet normal 0.000000 1.000000 0.000000
    outer loop
      vertex 15.500000 -3.750000 5.000000
      vertex 9.725329 -3.750000 1.616796
      vertex 2.425324 -3.750000 5.000000
    endloop
  endfacet
  facet normal 0.000000 1.000000 0.000000
    outer loop
      vertex 7.824671 -3.750000 0.999235
      vertex 2.425324 -3.750000 5.000000
      vertex 8.674671 -3.750000 1.616796
    endloop
  endfacet
  facet normal 0.000000 1.000000 0.000000
    outer loop
      vertex 8.674671 -3.750000 1.616796
      vertex 2.425324 -3.750000 5.000000
      vertex 9.725329 -3.750000 1.616796
    endloop
  endfacet
  facet normal 0.000000 1.000000 0.000000
    outer loop
      vertex 7.500000 -3.750000 0.000000
      vertex 2.425324 -3.750000 5.000000
      vertex 7.824671 -3.750000 0.999235
    endloop
  endfacet
  facet normal 0.000000 1.000000 0.000000
    outer loop
      vertex 2.425324 -3.750000 5.000000
      vertex 7.500000 -3.750000 0.000000
      vertex 7.824671 -3.750000 -0.999235
    endloop
  endfacet
  facet normal 0.000000 1.000000 -0.000000
    outer loop
      vertex 9.725329 -3.750000 -1.616796
      vertex 15.500000 -3.750000 -5.000000
      vertex 8.674671 -3.750000 -1.616796
    endloop
  endfacet
  facet normal -0.642788 0.766044 0.000000
    outer loop
      vertex 2.425324 -3.750000 5.000000
      vertex 2.425324 -3.750000 -5.000000
      vertex 2.250000 -3.897114 5.000000
    endloop
  endfacet
  facet normal -0.642788 0.766044 0.000000
    outer loop
      vertex 2.250000 -3.897114 5.000000
      vertex 2.425324 -3.750000 -5.000000
      vertex 2.250000 -3.897114 -5.000000
    endloop
  endfacet
  facet normal -0.342020 0.939693 0.000000
    outer loop
      vertex 2.250000 -3.897114 5.000000
      vertex 2.250000 -3.897114 -5.000000
      vertex 0.781417 -4.431635 5.000000
    endloop
  endfacet
  facet normal -0.342020 0.939693 0.000000
    outer loop
      vertex 0.781417 -4.431635 5.000000
      vertex 2.250000 -3.897114 -5.000000
      vertex 0.781417 -4.431635 -5.000000
    endloop
  endfacet
  facet normal 0.000000 1.000000 0.000000
    outer loop
      vertex 0.781417 -4.431635 5.000000
      vertex 0.781417 -4.431635 -5.000000
      vertex -0.781417 -4.431635 5.000000
    endloop
  endfacet
  facet normal 0.000000 1.000000 -0.000000
    outer loop
      vertex -0.781417 -4.431635 5.000000
      vertex 0.781417 -4.431635 -5.000000
      vertex -0.781417 -4.431635 -5.000000
    endloop
  endfacet
  facet normal 0.342020 0.939693 -0.000000
    outer loop
      vertex -0.781417 -4.431635 5.000000
      vertex -0.781417 -4.431635 -5.000000
      vertex -2.250000 -3.897114 5.000000
    endloop
  endfacet
  facet normal 0.342020 0.939693 -0.000000
    outer loop
      vertex -2.250000 -3.897114 5.000000
      vertex -0.781417 -4.431635 -5.000000
      vertex -2.250000 -3.897114 -5.000000
    endloop
  endfacet
  facet normal 0.642788 0.766044 -0.000000
    outer loop
      vertex -2.250000 -3.897114 5.000000
      vertex -2.250000 -3.897114 -5.000000
      vertex -3.447200 -2.892544 5.000000
    endloop
  endfacet
  facet normal 0.642788 0.766044 -0.000000
    outer loop
      vertex -3.447200 -2.892544 5.000000
      vertex -2.250000 -3.897114 -5.000000
      vertex -3.447200 -2.892544 -5.000000
    endloop
  endfacet
  facet normal 0.866025 0.500000 0.000000
    outer loop
      vertex -4.228617 -1.539091 5.000000
      vertex -3.447200 -2.892544 5.000000
      vertex -3.447200 -2.892544 -5.000000
    endloop
  endfacet
  facet normal 0.866025 0.500000 0.000000
    outer loop
      vertex -4.228617 -1.539091 -5.000000
      vertex -4.228617 -1.539091 5.000000
      vertex -3.447200 -2.892544 -5.000000
    endloop
  endfacet
  facet normal 0.984808 0.173648 0.000000
    outer loop
      vertex -4.500000 0.000000 5.000000
      vertex -4.228617 -1.539091 5.000000
      vertex -4.228617 -1.539091 -5.000000
    endloop
  endfacet
  facet normal 0.984808 0.173648 0.000000
    outer loop
      vertex -4.500000 0.000000 -5.000000
      vertex -4.500000 0.000000 5.000000
      vertex -4.228617 -1.539091 -5.000000
    endloop
  endfacet
  facet normal 0.984808 -0.173648 0.000000
    outer loop
      vertex -4.228617 1.539091 -5.000000
      vertex -4.228617 1.539091 5.000000
      vertex -4.500000 0.000000 5.000000
    endloop
  endfacet
  facet normal 0.984808 -0.173648 0.000000
    outer loop
      vertex -4.500000 0.000000 -5.000000
      vertex -4.228617 1.539091 -5.000000
      vertex -4.500000 0.000000 5.000000
    endloop
  endfacet
  facet normal 0.866025 -0.500000 0.000000
    outer loop
      vertex -3.447200 2.892544 -5.000000
      vertex -3.447200 2.892544 5.000000
      vertex -4.228617 1.539091 5.000000
    endloop
  endfacet
  facet normal 0.866025 -0.500000 0.000000
    outer loop
      vertex -4.228617 1.539091 -5.000000
      vertex -3.447200 2.892544 -5.000000
      vertex -4.228617 1.539091 5.000000
    endloop
  endfacet
  facet normal 0.642788 -0.766044 0.000000
    outer loop
      vertex -2.250000 3.897114 -5.000000
      vertex -2.250000 3.897114 5.000000
      vertex -3.447200 2.892544 5.000000
    endloop
  endfacet
  facet normal 0.642788 -0.766044 0.000000
    outer loop
      vertex -3.447200 2.892544 -5.000000
      vertex -2.250000 3.897114 -5.000000
      vertex -3.447200 2.892544 5.000000
    endloop
  endfacet
  facet normal 0.342020 -0.939693 0.000000
    outer loop
      vertex -0.781417 4.431635 -5.000000
      vertex -0.781417 4.431635 5.000000
      vertex -2.250000 3.897114 5.000000
    endloop
  endfacet
  facet normal 0.342020 -0.939693 0.000000
    outer loop
      vertex -2.250000 3.897114 -5.000000
      vertex -0.781417 4.431635 -5.000000
      vertex -2.250000 3.897114 5.000000
    endloop
  endfacet
  facet normal 0.000000 -1.000000 0.000000
    outer loop
      vertex 0.781417 4.431635 -5.000000
      vertex 0.781417 4.431635 5.000000
      vertex -0.781417 4.431635 5.000000
    endloop
  endfacet
  facet normal -0.000000 -1.000000 -0.000000
    outer loop
      vertex -0.781417 4.431635 -5.000000
      vertex 0.781417 4.431635 -5.000000
      vertex -0.781417 4.431635 5.000000
    endloop
  endfacet
  facet normal -0.342020 -0.939693 -0.000000
    outer loop
      vertex 2.250000 3.897114 -5.000000
      vertex 2.250000 3.897114 5.000000
      vertex 0.781417 4.431635 5.000000
    endloop
  endfacet
  facet normal -0.342020 -0.939693 -0.000000
    outer loop
      vertex 0.781417 4.431635 -5.000000
      vertex 2.250000 3.897114 -5.000000
      vertex 0.781417 4.431635 5.000000
    endloop
  endfacet
  facet normal -0.642788 -0.766044 -0.000000
    outer loop
      vertex 2.425324 3.750000 -5.000000
      vertex 2.425324 3.750000 5.000000
      vertex 2.250000 3.897114 5.000000
    endloop
  endfacet
  facet normal -0.642788 -0.766044 -0.000000
    outer loop
      vertex 2.250000 3.897114 -5.000000
      vertex 2.425324 3.750000 -5.000000
      vertex 2.250000 3.897114 5.000000
    endloop
  endfacet
  facet normal 0.000000 -1.000000 -0.000000
    outer loop
      vertex 8.674671 3.750000 1.616796
      vertex 15.500000 3.750000 5.000000
      vertex 2.425324 3.750000 5.000000
    endloop
  endfacet
  facet normal -0.000000 -1.000000 0.000000
    outer loop
      vertex 8.674671 3.750000 1.616796
      vertex 9.725329 3.750000 1.616796
      vertex 15.500000 3.750000 5.000000
    endloop
  endfacet
  facet normal 0.000000 -1.000000 -0.000000
    outer loop
      vertex 2.425324 3.750000 -5.000000
      vertex 7.500000 3.750000 0.000000
      vertex 2.425324 3.750000 5.000000
    endloop
  endfacet
  facet normal 0.000000 -1.000000 -0.000000
    outer loop
      vertex 7.824671 3.750000 0.999235
      vertex 8.674671 3.750000 1.616796
      vertex 2.425324 3.750000 5.000000
    endloop
  endfacet
  facet normal 0.000000 -1.000000 0.000000
    outer loop
      vertex 10.575329 3.750000 0.999235
      vertex 10.900000 3.750000 0.000000
      vertex 15.500000 3.750000 -5.000000
    endloop
  endfacet
  facet normal 0.000000 -1.000000 -0.000000
    outer loop
      vertex 10.575329 3.750000 0.999235
      vertex 15.500000 3.750000 5.000000
      vertex 9.725329 3.750000 1.616796
    endloop
  endfacet
  facet normal 0.000000 -1.000000 0.000000
    outer loop
      vertex 15.500000 3.750000 -5.000000
      vertex 15.500000 3.750000 5.000000
      vertex 10.575329 3.750000 0.999235
    endloop
  endfacet
  facet normal 0.000000 -1.000000 0.000000
    outer loop
      vertex 15.500000 3.750000 -5.000000
      vertex 10.900000 3.750000 0.000000
      vertex 10.575329 3.750000 -0.999235
    endloop
  endfacet
  facet normal -0.000000 -1.000000 0.000000
    outer loop
      vertex 2.425324 3.750000 -5.000000
      vertex 15.500000 3.750000 -5.000000
      vertex 9.725329 3.750000 -1.616796
    endloop
  endfacet
  facet normal 0.000000 -1.000000 0.000000
    outer loop
      vertex 2.425324 3.750000 -5.000000
      vertex 9.725329 3.750000 -1.616796
      vertex 8.674671 3.750000 -1.616796
    endloop
  endfacet
  facet normal 0.000000 -1.000000 0.000000
    outer loop
      vertex 2.425324 3.750000 -5.000000
      vertex 7.824671 3.750000 -0.999235
      vertex 7.500000 3.750000 0.000000
    endloop
  endfacet
  facet normal 0.000000 -1.000000 0.000000
    outer loop
      vertex 2.425324 3.750000 -5.000000
      vertex 8.674671 3.750000 -1.616796
      vertex 7.824671 3.750000 -0.999235
    endloop
  endfacet
  facet normal 0.000000 -1.000000 -0.000000
    outer loop
      vertex 7.500000 3.750000 0.000000
      vertex 7.824671 3.750000 0.999235
      vertex 2.425324 3.750000 5.000000
    endloop
  endfacet
  facet normal 0.000000 -1.000000 0.000000
    outer loop
      vertex 10.575329 3.750000 -0.999235
      vertex 9.725329 3.750000 -1.616796
      vertex 15.500000 3.750000 -5.000000
    endloop
  endfacet
  facet normal 1.000000 0.000000 -0.000000
    outer loop
      vertex 15.500000 3.750000 5.000000
      vertex 15.500000 3.750000 -5.000000
      vertex 15.500000 7.800000 -5.000000
    endloop
  endfacet
  facet normal 1.000000 0.000000 0.000000
    outer loop
      vertex 15.500000 7.800000 5.000000
      vertex 15.500000 3.750000 5.000000
      vertex 15.500000 7.800000 -5.000000
    endloop
  endfacet
  facet normal 0.000000 1.000000 -0.000000
    outer loop
      vertex 9.725329 7.800000 -1.616796
      vertex 15.500000 7.800000 -5.000000
      vertex 8.674671 7.800000 -1.616796
    endloop
  endfacet
  facet normal 0.000000 1.000000 0.000000
    outer loop
      vertex 9.725329 7.800000 1.616796
      vertex 0.000000 7.800000 5.000000
      vertex 15.500000 7.800000 5.000000
    endloop
  endfacet
  facet normal 0.000000 1.000000 0.000000
    outer loop
      vertex 0.000000 7.800000 -5.000000
      vertex 0.000000 7.800000 5.000000
      vertex 7.500000 7.800000 0.000000
    endloop
  endfacet
  facet normal 0.000000 1.000000 0.000000
    outer loop
      vertex 0.000000 7.800000 -5.000000
      vertex 7.500000 7.800000 0.000000
      vertex 7.824671 7.800000 -0.999235
    endloop
  endfacet
  facet normal 0.000000 1.000000 0.000000
    outer loop
      vertex 0.000000 7.800000 -5.000000
      vertex 7.824671 7.800000 -0.999235
      vertex 8.674671 7.800000 -1.616796
    endloop
  endfacet
  facet normal 0.000000 1.000000 0.000000
    outer loop
      vertex 0.000000 7.800000 -5.000000
      vertex 8.674671 7.800000 -1.616796
      vertex 15.500000 7.800000 -5.000000
    endloop
  endfacet
  facet normal 0.000000 1.000000 -0.000000
    outer loop
      vertex 10.575329 7.800000 -0.999235
      vertex 15.500000 7.800000 -5.000000
      vertex 9.725329 7.800000 -1.616796
    endloop
  endfacet
  facet normal 0.000000 1.000000 0.000000
    outer loop
      vertex 15.500000 7.800000 -5.000000
      vertex 10.575329 7.800000 -0.999235
      vertex 15.500000 7.800000 5.000000
    endloop
  endfacet
  facet normal 0.000000 1.000000 0.000000
    outer loop
      vertex 10.575329 7.800000 -0.999235
      vertex 10.900000 7.800000 0.000000
      vertex 15.500000 7.800000 5.000000
    endloop
  endfacet
  facet normal 0.000000 1.000000 0.000000
    outer loop
      vertex 7.824671 7.800000 0.999235
      vertex 0.000000 7.800000 5.000000
      vertex 8.674671 7.800000 1.616796
    endloop
  endfacet
  facet normal 0.000000 1.000000 0.000000
    outer loop
      vertex 10.900000 7.800000 0.000000
      vertex 10.575329 7.800000 0.999235
      vertex 15.500000 7.800000 5.000000
    endloop
  endfacet
  facet normal 0.000000 1.000000 0.000000
    outer loop
      vertex 10.575329 7.800000 0.999235
      vertex 9.725329 7.800000 1.616796
      vertex 15.500000 7.800000 5.000000
    endloop
  endfacet
  facet normal 0.000000 1.000000 0.000000
    outer loop
      vertex 7.500000 7.800000 0.000000
      vertex 0.000000 7.800000 5.000000
      vertex 7.824671 7.800000 0.999235
    endloop
  endfacet
  facet normal 0.000000 1.000000 0.000000
    outer loop
      vertex 8.674671 7.800000 1.616796
      vertex 0.000000 7.800000 5.000000
      vertex 9.725329 7.800000 1.616796
    endloop
  endfacet
  facet normal -0.156434 0.987688 0.000000
    outer loop
      vertex -2.410333 7.418241 -5.000000
      vertex -2.410333 7.418241 5.000000
      vertex 0.000000 7.800000 -5.000000
    endloop
  endfacet
  facet normal -0.156434 0.987688 0.000000
    outer loop
      vertex 0.000000 7.800000 -5.000000
      vertex -2.410333 7.418241 5.000000
      vertex 0.000000 7.800000 5.000000
    endloop
  endfacet
  facet normal -0.453990 0.891007 0.000000
    outer loop
      vertex -4.584725 6.310333 -5.000000
      vertex -4.584725 6.310333 5.000000
      vertex -2.410333 7.418241 -5.000000
    endloop
  endfacet
  facet normal -0.453990 0.891007 0.000000
    outer loop
      vertex -2.410333 7.418241 -5.000000
      vertex -4.584725 6.310333 5.000000
      vertex -2.410333 7.418241 5.000000
    endloop
  endfacet
  facet normal -0.707107 0.707107 0.000000
    outer loop
      vertex -6.310333 4.584725 -5.000000
      vertex -6.310333 4.584725 5.000000
      vertex -4.584725 6.310333 -5.000000
    endloop
  endfacet
  facet normal -0.707107 0.707107 0.000000
    outer loop
      vertex -4.584725 6.310333 -5.000000
      vertex -6.310333 4.584725 5.000000
      vertex -4.584725 6.310333 5.000000
    endloop
  endfacet
  facet normal -0.891007 0.453990 0.000000
    outer loop
      vertex -7.418241 2.410333 -5.000000
      vertex -7.418241 2.410333 5.000000
      vertex -6.310333 4.584725 -5.000000
    endloop
  endfacet
  facet normal -0.891007 0.453990 0.000000
    outer loop
      vertex -6.310333 4.584725 -5.000000
      vertex -7.418241 2.410333 5.000000
      vertex -6.310333 4.584725 5.000000
    endloop
  endfacet
  facet normal 0.000000 0.000000 1.000000
    outer loop
      vertex -7.418241 2.410333 5.000000
      vertex -7.800000 0.000000 5.000000
      vertex -7.418241 -2.410333 5.000000
    endloop
  endfacet
  facet normal 0.000000 0.000000 1.000000
    outer loop
      vertex -4.584725 -6.310333 5.000000
      vertex -7.418241 2.410333 5.000000
      vertex -6.310333 -4.584725 5.000000
    endloop
  endfacet
  facet normal 0.000000 0.000000 1.000000
    outer loop
      vertex -6.310333 -4.584725 5.000000
      vertex -7.418241 2.410333 5.000000
      vertex -7.418241 -2.410333 5.000000
    endloop
  endfacet
  facet normal 0.000000 0.000000 1.000000
    outer loop
      vertex -2.410333 -7.418241 5.000000
      vertex -7.418241 2.410333 5.000000
      vertex -4.584725 -6.310333 5.000000
    endloop
  endfacet
  facet normal 0.000000 0.000000 1.000000
    outer loop
      vertex 0.000000 -7.800000 5.000000
      vertex -7.418241 2.410333 5.000000
      vertex -2.410333 -7.418241 5.000000
    endloop
  endfacet
  facet normal -0.000000 -0.000000 1.000000
    outer loop
      vertex -3.447200 -2.892544 5.000000
      vertex -7.418241 2.410333 5.000000
      vertex 0.000000 -7.800000 5.000000
    endloop
  endfacet
  facet normal -0.000000 0.000000 1.000000
    outer loop
      vertex 15.500000 -7.800000 5.000000
      vertex 2.425324 -3.750000 5.000000
      vertex 0.000000 -7.800000 5.000000
    endloop
  endfacet
  facet normal 0.000000 0.000000 1.000000
    outer loop
      vertex 2.425324 -3.750000 5.000000
      vertex 2.250000 -3.897114 5.000000
      vertex 0.000000 -7.800000 5.000000
    endloop
  endfacet
  facet normal 0.000000 0.000000 1.000000
    outer loop
      vertex -4.228617 1.539091 5.000000
      vertex -3.447200 2.892544 5.000000
      vertex -7.418241 2.410333 5.000000
    endloop
  endfacet
  facet normal 0.000000 0.000000 1.000000
    outer loop
      vertex 2.250000 -3.897114 5.000000
      vertex 0.781417 -4.431635 5.000000
      vertex 0.000000 -7.800000 5.000000
    endloop
  endfacet
  facet normal 0.000000 0.000000 1.000000
    outer loop
      vertex 0.781417 -4.431635 5.000000
      vertex -0.781417 -4.431635 5.000000
      vertex 0.000000 -7.800000 5.000000
    endloop
  endfacet
  facet normal -0.000000 -0.000000 1.000000
    outer loop
      vertex -0.781417 -4.431635 5.000000
      vertex -2.250000 -3.897114 5.000000
      vertex 0.000000 -7.800000 5.000000
    endloop
  endfacet
  facet normal 0.000000 0.000000 1.000000
    outer loop
      vertex -4.500000 0.000000 5.000000
      vertex -4.228617 1.539091 5.000000
      vertex -7.418241 2.410333 5.000000
    endloop
  endfacet
  facet normal -0.000000 -0.000000 1.000000
    outer loop
      vertex -2.250000 -3.897114 5.000000
      vertex -3.447200 -2.892544 5.000000
      vertex 0.000000 -7.800000 5.000000
    endloop
  endfacet
  facet normal -0.000000 -0.000000 1.000000
    outer loop
      vertex -4.228617 -1.539091 5.000000
      vertex -7.418241 2.410333 5.000000
      vertex -3.447200 -2.892544 5.000000
    endloop
  endfacet
  facet normal 0.000000 0.000000 1.000000
    outer loop
      vertex 2.425324 3.750000 5.000000
      vertex 15.500000 3.750000 5.000000
      vertex 2.250000 3.897114 5.000000
    endloop
  endfacet
  facet normal 0.000000 0.000000 1.000000
    outer loop
      vertex -2.250000 3.897114 5.000000
      vertex -7.418241 2.410333 5.000000
      vertex -3.447200 2.892544 5.000000
    endloop
  endfacet
  facet normal 0.000000 0.000000 1.000000
    outer loop
      vertex -0.781417 4.431635 5.000000
      vertex -7.418241 2.410333 5.000000
      vertex -2.250000 3.897114 5.000000
    endloop
  endfacet
  facet normal 0.000000 0.000000 1.000000
    outer loop
      vertex 0.000000 7.800000 5.000000
      vertex -7.418241 2.410333 5.000000
      vertex -0.781417 4.431635 5.000000
    endloop
  endfacet
  facet normal 0.000000 0.000000 1.000000
    outer loop
      vertex 15.500000 7.800000 5.000000
      vertex -0.781417 4.431635 5.000000
      vertex 0.781417 4.431635 5.000000
    endloop
  endfacet
  facet normal 0.000000 0.000000 1.000000
    outer loop
      vertex 15.500000 3.750000 5.000000
      vertex 0.781417 4.431635 5.000000
      vertex 2.250000 3.897114 5.000000
    endloop
  endfacet
  facet normal 0.000000 0.000000 1.000000
    outer loop
      vertex 15.500000 7.800000 5.000000
      vertex 0.781417 4.431635 5.000000
      vertex 15.500000 3.750000 5.000000
    endloop
  endfacet
  facet normal 0.000000 -0.000000 1.000000
    outer loop
      vertex 0.000000 7.800000 5.000000
      vertex -0.781417 4.431635 5.000000
      vertex 15.500000 7.800000 5.000000
    endloop
  endfacet
  facet normal 0.000000 -0.000000 1.000000
    outer loop
      vertex -2.410333 7.418241 5.000000
      vertex -7.418241 2.410333 5.000000
      vertex 0.000000 7.800000 5.000000
    endloop
  endfacet
  facet normal 0.000000 -0.000000 1.000000
    outer loop
      vertex -4.584725 6.310333 5.000000
      vertex -7.418241 2.410333 5.000000
      vertex -2.410333 7.418241 5.000000
    endloop
  endfacet
  facet normal 0.000000 -0.000000 1.000000
    outer loop
      vertex -6.310333 4.584725 5.000000
      vertex -7.418241 2.410333 5.000000
      vertex -4.584725 6.310333 5.000000
    endloop
  endfacet
  facet normal 0.000000 0.000000 1.000000
    outer loop
      vertex 15.500000 -3.750000 5.000000
      vertex 2.425324 -3.750000 5.000000
      vertex 15.500000 -7.800000 5.000000
    endloop
  endfacet
  facet normal 0.000000 0.000000 1.000000
    outer loop
      vertex -4.228617 -1.539091 5.000000
      vertex -4.500000 0.000000 5.000000
      vertex -7.418241 2.410333 5.000000
    endloop
  endfacet
  facet normal 0.951057 0.000000 0.309017
    outer loop
      vertex 7.824671 -7.800000 -0.999235
      vertex 7.824671 -3.750000 -0.999235
      vertex 7.500000 -3.750000 0.000000
    endloop
  endfacet
  facet normal 0.951057 0.000000 0.309017
    outer loop
      vertex 7.500000 -7.800000 0.000000
      vertex 7.824671 -7.800000 -0.999235
      vertex 7.500000 -3.750000 0.000000
    endloop
  endfacet
  facet normal 0.587785 0.000000 0.809017
    outer loop
      vertex 8.674671 -7.800000 -1.616796
      vertex 8.674671 -3.750000 -1.616796
      vertex 7.824671 -3.750000 -0.999235
    endloop
  endfacet
  facet normal 0.587785 0.000000 0.809017
    outer loop
      vertex 7.824671 -7.800000 -0.999235
      vertex 8.674671 -7.800000 -1.616796
      vertex 7.824671 -3.750000 -0.999235
    endloop
  endfacet
  facet normal 0.000000 0.000000 1.000000
    outer loop
      vertex 9.725329 -7.800000 -1.616796
      vertex 9.725329 -3.750000 -1.616796
      vertex 8.674671 -3.750000 -1.616796
    endloop
  endfacet
  facet normal 0.000000 0.000000 1.000000
    outer loop
      vertex 8.674671 -7.800000 -1.616796
      vertex 9.725329 -7.800000 -1.616796
      vertex 8.674671 -3.750000 -1.616796
    endloop
  endfacet
  facet normal -0.587785 0.000000 0.809017
    outer loop
      vertex 10.575329 -7.800000 -0.999235
      vertex 10.575329 -3.750000 -0.999235
      vertex 9.725329 -3.750000 -1.616796
    endloop
  endfacet
  facet normal -0.587785 0.000000 0.809017
    outer loop
      vertex 9.725329 -7.800000 -1.616796
      vertex 10.575329 -7.800000 -0.999235
      vertex 9.725329 -3.750000 -1.616796
    endloop
  endfacet
  facet normal -0.951057 0.000000 0.309017
    outer loop
      vertex 10.900000 -3.750000 0.000000
      vertex 10.575329 -3.750000 -0.999235
      vertex 10.900000 -7.800000 0.000000
    endloop
  endfacet
  facet normal -0.951057 0.000000 0.309017
    outer loop
      vertex 10.900000 -7.800000 0.000000
      vertex 10.575329 -3.750000 -0.999235
      vertex 10.575329 -7.800000 -0.999235
    endloop
  endfacet
  facet normal -0.951057 -0.000000 -0.309017
    outer loop
      vertex 10.900000 -3.750000 0.000000
      vertex 10.900000 -7.800000 0.000000
      vertex 10.575329 -3.750000 0.999235
    endloop
  endfacet
  facet normal -0.951057 -0.000000 -0.309017
    outer loop
      vertex 10.575329 -3.750000 0.999235
      vertex 10.900000 -7.800000 0.000000
      vertex 10.575329 -7.800000 0.999235
    endloop
  endfacet
  facet normal -0.587785 -0.000000 -0.809017
    outer loop
      vertex 10.575329 -3.750000 0.999235
      vertex 10.575329 -7.800000 0.999235
      vertex 9.725329 -3.750000 1.616796
    endloop
  endfacet
  facet normal -0.587785 -0.000000 -0.809017
    outer loop
      vertex 9.725329 -3.750000 1.616796
      vertex 10.575329 -7.800000 0.999235
      vertex 9.725329 -7.800000 1.616796
    endloop
  endfacet
  facet normal 0.000000 -0.000000 -1.000000
    outer loop
      vertex 9.725329 -3.750000 1.616796
      vertex 9.725329 -7.800000 1.616796
      vertex 8.674671 -3.750000 1.616796
    endloop
  endfacet
  facet normal 0.000000 -0.000000 -1.000000
    outer loop
      vertex 8.674671 -3.750000 1.616796
      vertex 9.725329 -7.800000 1.616796
      vertex 8.674671 -7.800000 1.616796
    endloop
  endfacet
  facet normal 0.587785 -0.000000 -0.809017
    outer loop
      vertex 8.674671 -3.750000 1.616796
      vertex 8.674671 -7.800000 1.616796
      vertex 7.824671 -3.750000 0.999235
    endloop
  endfacet
  facet normal 0.587785 -0.000000 -0.809017
    outer loop
      vertex 7.824671 -3.750000 0.999235
      vertex 8.674671 -7.800000 1.616796
      vertex 7.824671 -7.800000 0.999235
    endloop
  endfacet
  facet normal 0.951057 -0.000000 -0.309017
    outer loop
      vertex 7.500000 -3.750000 0.000000
      vertex 7.824671 -3.750000 0.999235
      vertex 7.824671 -7.800000 0.999235
    endloop
  endfacet
  facet normal 0.951057 -0.000000 -0.309017
    outer loop
      vertex 7.500000 -7.800000 0.000000
      vertex 7.500000 -3.750000 0.000000
      vertex 7.824671 -7.800000 0.999235
    endloop
  endfacet
  facet normal 0.951057 -0.000000 -0.309017
    outer loop
      vertex 7.500000 7.800000 0.000000
      vertex 7.824671 7.800000 0.999235
      vertex 7.824671 3.750000 0.999235
    endloop
  endfacet
  facet normal 0.951057 -0.000000 -0.309017
    outer loop
      vertex 7.500000 3.750000 0.000000
      vertex 7.500000 7.800000 0.000000
      vertex 7.824671 3.750000 0.999235
    endloop
  endfacet
  facet normal 0.951057 0.000000 0.309017
    outer loop
      vertex 7.824671 3.750000 -0.999235
      vertex 7.824671 7.800000 -0.999235
      vertex 7.500000 7.800000 0.000000
    endloop
  endfacet
  facet normal 0.951057 0.000000 0.309017
    outer loop
      vertex 7.500000 3.750000 0.000000
      vertex 7.824671 3.750000 -0.999235
      vertex 7.500000 7.800000 0.000000
    endloop
  endfacet
  facet normal 0.587785 0.000000 0.809017
    outer loop
      vertex 8.674671 3.750000 -1.616796
      vertex 8.674671 7.800000 -1.616796
      vertex 7.824671 7.800000 -0.999235
    endloop
  endfacet
  facet normal 0.587785 0.000000 0.809017
    outer loop
      vertex 7.824671 3.750000 -0.999235
      vertex 8.674671 3.750000 -1.616796
      vertex 7.824671 7.800000 -0.999235
    endloop
  endfacet
  facet normal 0.000000 0.000000 1.000000
    outer loop
      vertex 9.725329 3.750000 -1.616796
      vertex 9.725329 7.800000 -1.616796
      vertex 8.674671 7.800000 -1.616796
    endloop
  endfacet
  facet normal 0.000000 0.000000 1.000000
    outer loop
      vertex 8.674671 3.750000 -1.616796
      vertex 9.725329 3.750000 -1.616796
      vertex 8.674671 7.800000 -1.616796
    endloop
  endfacet
  facet normal -0.587785 0.000000 0.809017
    outer loop
      vertex 10.575329 3.750000 -0.999235
      vertex 10.575329 7.800000 -0.999235
      vertex 9.725329 7.800000 -1.616796
    endloop
  endfacet
  facet normal -0.587785 0.000000 0.809017
    outer loop
      vertex 9.725329 3.750000 -1.616796
      vertex 10.575329 3.750000 -0.999235
      vertex 9.725329 7.800000 -1.616796
    endloop
  endfacet
  facet normal -0.951057 0.000000 0.309017
    outer loop
      vertex 10.900000 7.800000 0.000000
      vertex 10.575329 7.800000 -0.999235
      vertex 10.900000 3.750000 0.000000
    endloop
  endfacet
  facet normal -0.951057 0.000000 0.309017
    outer loop
      vertex 10.900000 3.750000 0.000000
      vertex 10.575329 7.800000 -0.999235
      vertex 10.575329 3.750000 -0.999235
    endloop
  endfacet
  facet normal -0.951057 -0.000000 -0.309017
    outer loop
      vertex 10.900000 7.800000 0.000000
      vertex 10.900000 3.750000 0.000000
      vertex 10.575329 7.800000 0.999235
    endloop
  endfacet
  facet normal -0.951057 -0.000000 -0.309017
    outer loop
      vertex 10.575329 7.800000 0.999235
      vertex 10.900000 3.750000 0.000000
      vertex 10.575329 3.750000 0.999235
    endloop
  endfacet
  facet normal -0.587785 -0.000000 -0.809017
    outer loop
      vertex 10.575329 7.800000 0.999235
      vertex 10.575329 3.750000 0.999235
      vertex 9.725329 7.800000 1.616796
    endloop
  endfacet
  facet normal -0.587785 -0.000000 -0.809017
    outer loop
      vertex 9.725329 7.800000 1.616796
      vertex 10.575329 3.750000 0.999235
      vertex 9.725329 3.750000 1.616796
    endloop
  endfacet
  facet normal 0.000000 -0.000000 -1.000000
    outer loop
      vertex 9.725329 7.800000 1.616796
      vertex 9.725329 3.750000 1.616796
      vertex 8.674671 7.800000 1.616796
    endloop
  endfacet
  facet normal 0.000000 -0.000000 -1.000000
    outer loop
      vertex 8.674671 7.800000 1.616796
      vertex 9.725329 3.750000 1.616796
      vertex 8.674671 3.750000 1.616796
    endloop
  endfacet
  facet normal 0.587785 -0.000000 -0.809017
    outer loop
      vertex 8.674671 7.800000 1.616796
      vertex 8.674671 3.750000 1.616796
      vertex 7.824671 7.800000 0.999235
    endloop
  endfacet
  facet normal 0.587785 -0.000000 -0.809017
    outer loop
      vertex 7.824671 7.800000 0.999235
      vertex 8.674671 3.750000 1.616796
      vertex 7.824671 3.750000 0.999235
    endloop
  endfacet
endsolid OpenSCAD_Model
