solid OpenSCAD_Model
  facet normal -1.000000 -0.000000 -0.000000
    outer loop
      vertex -4.000000 -4.000000 0.000000
      vertex -4.000000 -4.000000 2.000000
      vertex -4.000000 14.000000 0.000000
    endloop
  endfacet
  facet normal -1.000000 0.000000 0.000000
    outer loop
      vertex -4.000000 14.000000 0.000000
      vertex -4.000000 -4.000000 2.000000
      vertex -4.000000 4.000000 2.000000
    endloop
  endfacet
  facet normal -1.000000 0.000000 0.000000
    outer loop
      vertex -4.000000 14.000000 0.000000
      vertex -4.000000 4.000000 2.000000
      vertex -4.000000 4.000000 2.468629
    endloop
  endfacet
  facet normal -1.000000 0.000000 0.000000
    outer loop
      vertex -4.000000 14.000000 0.000000
      vertex -4.000000 4.000000 2.468629
      vertex -4.000000 5.131371 3.600000
    endloop
  endfacet
  facet normal -1.000000 0.000000 0.000000
    outer loop
      vertex -4.000000 14.000000 0.000000
      vertex -4.000000 5.131371 3.600000
      vertex -4.000000 14.000000 3.600000
    endloop
  endfacet
  facet normal 0.000000 -1.000000 0.000000
    outer loop
      vertex -4.000000 -4.000000 2.000000
      vertex -4.000000 -4.000000 0.000000
      vertex -2.100000 -4.000000 0.000000
    endloop
  endfacet
  facet normal 0.000000 -1.000000 0.000000
    outer loop
      vertex -2.100000 -4.000000 2.000000
      vertex -4.000000 -4.000000 2.000000
      vertex -2.100000 -4.000000 0.000000
    endloop
  endfacet
  facet normal -0.000000 -0.000000 -1.000000
    outer loop
      vertex -4.000000 -4.000000 0.000000
      vertex -4.000000 14.000000 0.000000
      vertex -2.100000 -4.000000 0.000000
    endloop
  endfacet
  facet normal 0.000000 0.000000 -1.000000
    outer loop
      vertex -2.100000 -4.000000 0.000000
      vertex -4.000000 14.000000 0.000000
      vertex -3.923141 14.780361 0.000000
    endloop
  endfacet
  facet normal 0.000000 0.000000 -1.000000
    outer loop
      vertex -2.100000 -4.000000 0.000000
      vertex -3.923141 14.780361 0.000000
      vertex -3.695518 15.530734 0.000000
    endloop
  endfacet
  facet normal 0.000000 0.000000 -1.000000
    outer loop
      vertex -2.100000 -4.000000 0.000000
      vertex -3.695518 15.530734 0.000000
      vertex -3.325878 16.222281 0.000000
    endloop
  endfacet
  facet normal 0.000000 0.000000 -1.000000
    outer loop
      vertex -2.100000 -4.000000 0.000000
      vertex -3.325878 16.222281 0.000000
      vertex -2.828427 16.828427 0.000000
    endloop
  endfacet
  facet normal 0.000000 0.000000 -1.000000
    outer loop
      vertex -2.164784 0.000000 0.000000
      vertex -2.828427 16.828427 0.000000
      vertex -2.222281 17.325878 0.000000
    endloop
  endfacet
  facet normal 0.000000 -0.000000 -1.000000
    outer loop
      vertex -1.847521 14.000000 0.000000
      vertex -2.222281 17.325878 0.000000
      vertex -1.530734 17.695518 0.000000
    endloop
  endfacet
  facet normal 0.000000 -0.000000 -1.000000
    outer loop
      vertex -0.923760 15.600000 0.000000
      vertex -1.530734 17.695518 0.000000
      vertex -0.780361 17.923141 0.000000
    endloop
  endfacet
  facet normal 0.000000 -0.000000 -1.000000
    outer loop
      vertex 0.923760 15.600000 0.000000
      vertex 0.780361 17.923141 0.000000
      vertex 1.530734 17.695518 0.000000
    endloop
  endfacet
  facet normal 0.000000 0.000000 -1.000000
    outer loop
      vertex -0.923760 15.600000 0.000000
      vertex 0.000000 18.000000 0.000000
      vertex 0.780361 17.923141 0.000000
    endloop
  endfacet
  facet normal 0.000000 0.000000 -1.000000
    outer loop
      vertex 1.847521 14.000000 0.000000
      vertex 2.222281 17.325878 0.000000
      vertex 2.828427 16.828427 0.000000
    endloop
  endfacet
  facet normal 0.000000 0.000000 -1.000000
    outer loop
      vertex -2.100000 -0.156403 0.000000
      vertex -2.100000 -4.000000 0.000000
      vertex -2.164784 0.000000 0.000000
    endloop
  endfacet
  facet normal -0.000000 0.000000 -1.000000
    outer loop
      vertex 2.100000 -4.000000 0.000000
      vertex 4.000000 14.000000 0.000000
      vertex 4.000000 -4.000000 0.000000
    endloop
  endfacet
  facet normal -0.000000 0.000000 -1.000000
    outer loop
      vertex 2.164784 -0.000000 0.000000
      vertex 4.000000 14.000000 0.000000
      vertex 2.100000 -4.000000 0.000000
    endloop
  endfacet
  facet normal -0.000000 0.000000 -1.000000
    outer loop
      vertex -0.923760 15.600000 0.000000
      vertex 0.780361 17.923141 0.000000
      vertex 0.923760 15.600000 0.000000
    endloop
  endfacet
  facet normal -0.000000 0.000000 -1.000000
    outer loop
      vertex 2.100000 -0.156403 0.000000
      vertex 2.164784 -0.000000 0.000000
      vertex 2.100000 -4.000000 0.000000
    endloop
  endfacet
  facet normal -0.000000 0.000000 -1.000000
    outer loop
      vertex 0.000000 2.164784 0.000000
      vertex 4.000000 14.000000 0.000000
      vertex 1.530734 1.530734 0.000000
    endloop
  endfacet
  facet normal 0.000000 -0.000000 -1.000000
    outer loop
      vertex -2.164784 0.000000 0.000000
      vertex -2.222281 17.325878 0.000000
      vertex -1.847521 14.000000 0.000000
    endloop
  endfacet
  facet normal 0.000000 0.000000 -1.000000
    outer loop
      vertex -2.100000 -4.000000 0.000000
      vertex -2.828427 16.828427 0.000000
      vertex -2.164784 0.000000 0.000000
    endloop
  endfacet
  facet normal 0.000000 0.000000 -1.000000
    outer loop
      vertex -1.847521 14.000000 0.000000
      vertex -1.530734 17.695518 0.000000
      vertex -0.923760 15.600000 0.000000
    endloop
  endfacet
  facet normal 0.000000 0.000000 -1.000000
    outer loop
      vertex 0.923760 12.400000 0.000000
      vertex -2.164784 0.000000 0.000000
      vertex -0.923760 12.400000 0.000000
    endloop
  endfacet
  facet normal 0.000000 0.000000 -1.000000
    outer loop
      vertex -0.923760 15.600000 0.000000
      vertex -0.780361 17.923141 0.000000
      vertex 0.000000 18.000000 0.000000
    endloop
  endfacet
  facet normal 0.000000 0.000000 -1.000000
    outer loop
      vertex 0.923760 12.400000 0.000000
      vertex -1.530734 1.530734 0.000000
      vertex -2.164784 0.000000 0.000000
    endloop
  endfacet
  facet normal 0.000000 0.000000 -1.000000
    outer loop
      vertex -0.923760 12.400000 0.000000
      vertex -2.164784 0.000000 0.000000
      vertex -1.847521 14.000000 0.000000
    endloop
  endfacet
  facet normal -0.000000 0.000000 -1.000000
    outer loop
      vertex 1.530734 1.530734 0.000000
      vertex 4.000000 14.000000 0.000000
      vertex 2.164784 -0.000000 0.000000
    endloop
  endfacet
  facet normal 0.000000 0.000000 -1.000000
    outer loop
      vertex 1.847521 14.000000 0.000000
      vertex -1.530734 1.530734 0.000000
      vertex 0.923760 12.400000 0.000000
    endloop
  endfacet
  facet normal -0.000000 0.000000 -1.000000
    outer loop
      vertex 0.923760 15.600000 0.000000
      vertex 2.222281 17.325878 0.000000
      vertex 1.847521 14.000000 0.000000
    endloop
  endfacet
  facet normal 0.000000 0.000000 -1.000000
    outer loop
      vertex 0.923760 15.600000 0.000000
      vertex 1.530734 17.695518 0.000000
      vertex 2.222281 17.325878 0.000000
    endloop
  endfacet
  facet normal 0.000000 0.000000 -1.000000
    outer loop
      vertex -1.530734 1.530734 0.000000
      vertex 1.847521 14.000000 0.000000
      vertex 2.828427 16.828427 0.000000
    endloop
  endfacet
  facet normal 0.000000 0.000000 -1.000000
    outer loop
      vertex -1.530734 1.530734 0.000000
      vertex 2.828427 16.828427 0.000000
      vertex 3.325878 16.222281 0.000000
    endloop
  endfacet
  facet normal 0.000000 0.000000 -1.000000
    outer loop
      vertex -1.530734 1.530734 0.000000
      vertex 3.325878 16.222281 0.000000
      vertex 3.695518 15.530734 0.000000
    endloop
  endfacet
  facet normal 0.000000 0.000000 -1.000000
    outer loop
      vertex -1.530734 1.530734 0.000000
      vertex 3.695518 15.530734 0.000000
      vertex 3.923141 14.780361 0.000000
    endloop
  endfacet
  facet normal 0.000000 0.000000 -1.000000
    outer loop
      vertex -1.530734 1.530734 0.000000
      vertex 3.923141 14.780361 0.000000
      vertex 4.000000 14.000000 0.000000
    endloop
  endfacet
  facet normal 0.000000 0.000000 -1.000000
    outer loop
      vertex -1.530734 1.530734 0.000000
      vertex 4.000000 14.000000 0.000000
      vertex 0.000000 2.164784 0.000000
    endloop
  endfacet
  facet normal -0.995185 0.098017 0.000000
    outer loop
      vertex -4.000000 14.000000 0.000000
      vertex -4.000000 14.000000 3.600000
      vertex -3.923141 14.780361 0.000000
    endloop
  endfacet
  facet normal -0.995185 0.098017 0.000000
    outer loop
      vertex -3.923141 14.780361 0.000000
      vertex -4.000000 14.000000 3.600000
      vertex -3.923141 14.780361 3.600000
    endloop
  endfacet
  facet normal 0.000000 -0.000000 1.000000
    outer loop
      vertex -4.000000 14.000000 3.600000
      vertex -4.000000 5.131371 3.600000
      vertex 4.000000 5.131371 3.600000
    endloop
  endfacet
  facet normal 0.000000 0.000000 1.000000
    outer loop
      vertex -0.923760 15.600000 3.600000
      vertex 0.923760 15.600000 3.600000
      vertex 2.828427 16.828427 3.600000
    endloop
  endfacet
  facet normal -0.000000 -0.000000 1.000000
    outer loop
      vertex -0.923760 12.400000 3.600000
      vertex -4.000000 14.000000 3.600000
      vertex 4.000000 5.131371 3.600000
    endloop
  endfacet
  facet normal 0.000000 0.000000 1.000000
    outer loop
      vertex 0.923760 15.600000 3.600000
      vertex 1.847521 14.000000 3.600000
      vertex 4.000000 14.000000 3.600000
    endloop
  endfacet
  facet normal 0.000000 0.000000 1.000000
    outer loop
      vertex 0.923760 15.600000 3.600000
      vertex 4.000000 14.000000 3.600000
      vertex 3.923141 14.780361 3.600000
    endloop
  endfacet
  facet normal 0.000000 0.000000 1.000000
    outer loop
      vertex 0.923760 15.600000 3.600000
      vertex 3.923141 14.780361 3.600000
      vertex 3.695518 15.530734 3.600000
    endloop
  endfacet
  facet normal 0.000000 -0.000000 1.000000
    outer loop
      vertex 1.530734 17.695518 3.600000
      vertex -4.000000 14.000000 3.600000
      vertex 2.222281 17.325878 3.600000
    endloop
  endfacet
  facet normal 0.000000 -0.000000 1.000000
    outer loop
      vertex 0.780361 17.923141 3.600000
      vertex -4.000000 14.000000 3.600000
      vertex 1.530734 17.695518 3.600000
    endloop
  endfacet
  facet normal 0.000000 -0.000000 1.000000
    outer loop
      vertex 0.000000 18.000000 3.600000
      vertex -4.000000 14.000000 3.600000
      vertex 0.780361 17.923141 3.600000
    endloop
  endfacet
  facet normal 0.000000 -0.000000 1.000000
    outer loop
      vertex -0.780361 17.923141 3.600000
      vertex -4.000000 14.000000 3.600000
      vertex 0.000000 18.000000 3.600000
    endloop
  endfacet
  facet normal 0.000000 -0.000000 1.000000
    outer loop
      vertex -1.530734 17.695518 3.600000
      vertex -4.000000 14.000000 3.600000
      vertex -0.780361 17.923141 3.600000
    endloop
  endfacet
  facet normal 0.000000 -0.000000 1.000000
    outer loop
      vertex -2.222281 17.325878 3.600000
      vertex -4.000000 14.000000 3.600000
      vertex -1.530734 17.695518 3.600000
    endloop
  endfacet
  facet normal 0.000000 -0.000000 1.000000
    outer loop
      vertex -2.828427 16.828427 3.600000
      vertex -4.000000 14.000000 3.600000
      vertex -2.222281 17.325878 3.600000
    endloop
  endfacet
  facet normal 0.000000 -0.000000 1.000000
    outer loop
      vertex -3.325878 16.222281 3.600000
      vertex -4.000000 14.000000 3.600000
      vertex -2.828427 16.828427 3.600000
    endloop
  endfacet
  facet normal 0.000000 -0.000000 1.000000
    outer loop
      vertex -3.695518 15.530734 3.600000
      vertex -4.000000 14.000000 3.600000
      vertex -3.325878 16.222281 3.600000
    endloop
  endfacet
  facet normal 0.000000 -0.000000 1.000000
    outer loop
      vertex -3.923141 14.780361 3.600000
      vertex -4.000000 14.000000 3.600000
      vertex -3.695518 15.530734 3.600000
    endloop
  endfacet
  facet normal 0.000000 -0.000000 1.000000
    outer loop
      vertex 0.923760 12.400000 3.600000
      vertex -0.923760 12.400000 3.600000
      vertex 4.000000 5.131371 3.600000
    endloop
  endfacet
  facet normal 0.000000 -0.000000 1.000000
    outer loop
      vertex 1.847521 14.000000 3.600000
      vertex 0.923760 12.400000 3.600000
      vertex 4.000000 14.000000 3.600000
    endloop
  endfacet
  facet normal 0.000000 -0.000000 1.000000
    outer loop
      vertex 2.222281 17.325878 3.600000
      vertex -0.923760 15.600000 3.600000
      vertex 2.828427 16.828427 3.600000
    endloop
  endfacet
  facet normal 0.000000 0.000000 1.000000
    outer loop
      vertex 2.222281 17.325878 3.600000
      vertex -4.000000 14.000000 3.600000
      vertex -0.923760 15.600000 3.600000
    endloop
  endfacet
  facet normal 0.000000 -0.000000 1.000000
    outer loop
      vertex 2.828427 16.828427 3.600000
      vertex 0.923760 15.600000 3.600000
      vertex 3.325878 16.222281 3.600000
    endloop
  endfacet
  facet normal 0.000000 0.000000 1.000000
    outer loop
      vertex 0.923760 15.600000 3.600000
      vertex 3.695518 15.530734 3.600000
      vertex 3.325878 16.222281 3.600000
    endloop
  endfacet
  facet normal 0.000000 0.000000 1.000000
    outer loop
      vertex 4.000000 14.000000 3.600000
      vertex 0.923760 12.400000 3.600000
      vertex 4.000000 5.131371 3.600000
    endloop
  endfacet
  facet normal 0.000000 0.000000 1.000000
    outer loop
      vertex -0.923760 12.400000 3.600000
      vertex -1.847521 14.000000 3.600000
      vertex -4.000000 14.000000 3.600000
    endloop
  endfacet
  facet normal -0.000000 0.000000 1.000000
    outer loop
      vertex -1.847521 14.000000 3.600000
      vertex -0.923760 15.600000 3.600000
      vertex -4.000000 14.000000 3.600000
    endloop
  endfacet
  facet normal 0.000000 -0.707107 0.707107
    outer loop
      vertex 4.000000 4.000000 2.468629
      vertex 4.000000 5.131371 3.600000
      vertex -4.000000 5.131371 3.600000
    endloop
  endfacet
  facet normal 0.000000 -0.707107 0.707107
    outer loop
      vertex -4.000000 4.000000 2.468629
      vertex 4.000000 4.000000 2.468629
      vertex -4.000000 5.131371 3.600000
    endloop
  endfacet
  facet normal 0.000000 -1.000000 0.000000
    outer loop
      vertex 4.000000 4.000000 2.000000
      vertex 4.000000 4.000000 2.468629
      vertex -4.000000 4.000000 2.468629
    endloop
  endfacet
  facet normal -0.000000 -1.000000 -0.000000
    outer loop
      vertex -4.000000 4.000000 2.000000
      vertex 4.000000 4.000000 2.000000
      vertex -4.000000 4.000000 2.468629
    endloop
  endfacet
  facet normal 0.000000 0.000000 1.000000
    outer loop
      vertex -2.100000 -4.000000 2.000000
      vertex -2.100000 -0.156403 2.000000
      vertex -2.164784 0.000000 2.000000
    endloop
  endfacet
  facet normal 0.000000 0.000000 1.000000
    outer loop
      vertex -4.000000 4.000000 2.000000
      vertex -2.100000 -4.000000 2.000000
      vertex -2.164784 0.000000 2.000000
    endloop
  endfacet
  facet normal 0.000000 0.000000 1.000000
    outer loop
      vertex -4.000000 4.000000 2.000000
      vertex -1.530734 1.530734 2.000000
      vertex 4.000000 4.000000 2.000000
    endloop
  endfacet
  facet normal 0.000000 0.000000 1.000000
    outer loop
      vertex -1.530734 1.530734 2.000000
      vertex 0.000000 2.164784 2.000000
      vertex 4.000000 4.000000 2.000000
    endloop
  endfacet
  facet normal 0.000000 0.000000 1.000000
    outer loop
      vertex 0.000000 2.164784 2.000000
      vertex 1.530734 1.530734 2.000000
      vertex 4.000000 4.000000 2.000000
    endloop
  endfacet
  facet normal 0.000000 0.000000 1.000000
    outer loop
      vertex 1.530734 1.530734 2.000000
      vertex 2.164784 -0.000000 2.000000
      vertex 4.000000 -4.000000 2.000000
    endloop
  endfacet
  facet normal 0.000000 0.000000 1.000000
    outer loop
      vertex 2.164784 -0.000000 2.000000
      vertex 2.100000 -0.156403 2.000000
      vertex 2.100000 -4.000000 2.000000
    endloop
  endfacet
  facet normal 0.000000 -0.000000 1.000000
    outer loop
      vertex 2.164784 -0.000000 2.000000
      vertex 2.100000 -4.000000 2.000000
      vertex 4.000000 -4.000000 2.000000
    endloop
  endfacet
  facet normal 0.000000 0.000000 1.000000
    outer loop
      vertex 1.530734 1.530734 2.000000
      vertex 4.000000 -4.000000 2.000000
      vertex 4.000000 4.000000 2.000000
    endloop
  endfacet
  facet normal -0.000000 0.000000 1.000000
    outer loop
      vertex -1.530734 1.530734 2.000000
      vertex -4.000000 4.000000 2.000000
      vertex -2.164784 0.000000 2.000000
    endloop
  endfacet
  facet normal 0.000000 0.000000 1.000000
    outer loop
      vertex -4.000000 -4.000000 2.000000
      vertex -2.100000 -4.000000 2.000000
      vertex -4.000000 4.000000 2.000000
    endloop
  endfacet
  facet normal 1.000000 0.000000 0.000000
    outer loop
      vertex -2.100000 -0.156403 0.000000
      vertex -2.100000 -0.156403 2.000000
      vertex -2.100000 -4.000000 2.000000
    endloop
  endfacet
  facet normal 1.000000 0.000000 0.000000
    outer loop
      vertex -2.100000 -4.000000 0.000000
      vertex -2.100000 -0.156403 0.000000
      vertex -2.100000 -4.000000 2.000000
    endloop
  endfacet
  facet normal 0.923880 0.382683 0.000000
    outer loop
      vertex -2.164784 0.000000 2.000000
      vertex -2.100000 -0.156403 2.000000
      vertex -2.100000 -0.156403 0.000000
    endloop
  endfacet
  facet normal 0.923880 0.382683 0.000000
    outer loop
      vertex -2.164784 0.000000 0.000000
      vertex -2.164784 0.000000 2.000000
      vertex -2.100000 -0.156403 0.000000
    endloop
  endfacet
  facet normal 0.923880 -0.382683 0.000000
    outer loop
      vertex -1.530734 1.530734 0.000000
      vertex -1.530734 1.530734 2.000000
      vertex -2.164784 0.000000 2.000000
    endloop
  endfacet
  facet normal 0.923880 -0.382683 0.000000
    outer loop
      vertex -2.164784 0.000000 0.000000
      vertex -1.530734 1.530734 0.000000
      vertex -2.164784 0.000000 2.000000
    endloop
  endfacet
  facet normal 0.382683 -0.923880 0.000000
    outer loop
      vertex 0.000000 2.164784 0.000000
      vertex 0.000000 2.164784 2.000000
      vertex -1.530734 1.530734 2.000000
    endloop
  endfacet
  facet normal 0.382683 -0.923880 0.000000
    outer loop
      vertex -1.530734 1.530734 0.000000
      vertex 0.000000 2.164784 0.000000
      vertex -1.530734 1.530734 2.000000
    endloop
  endfacet
  facet normal -0.382683 -0.923880 -0.000000
    outer loop
      vertex 1.530734 1.530734 0.000000
      vertex 1.530734 1.530734 2.000000
      vertex 0.000000 2.164784 2.000000
    endloop
  endfacet
  facet normal -0.382683 -0.923880 -0.000000
    outer loop
      vertex 0.000000 2.164784 0.000000
      vertex 1.530734 1.530734 0.000000
      vertex 0.000000 2.164784 2.000000
    endloop
  endfacet
  facet normal -0.923880 -0.382683 0.000000
    outer loop
      vertex 2.164784 -0.000000 2.000000
      vertex 1.530734 1.530734 2.000000
      vertex 2.164784 -0.000000 0.000000
    endloop
  endfacet
  facet normal -0.923880 -0.382683 0.000000
    outer loop
      vertex 2.164784 -0.000000 0.000000
      vertex 1.530734 1.530734 2.000000
      vertex 1.530734 1.530734 0.000000
    endloop
  endfacet
  facet normal -0.923880 0.382683 0.000000
    outer loop
      vertex 2.164784 -0.000000 2.000000
      vertex 2.164784 -0.000000 0.000000
      vertex 2.100000 -0.156403 2.000000
    endloop
  endfacet
  facet normal -0.923880 0.382683 0.000000
    outer loop
      vertex 2.100000 -0.156403 2.000000
      vertex 2.164784 -0.000000 0.000000
      vertex 2.100000 -0.156403 0.000000
    endloop
  endfacet
  facet normal -1.000000 0.000000 0.000000
    outer loop
      vertex 2.100000 -0.156403 2.000000
      vertex 2.100000 -0.156403 0.000000
      vertex 2.100000 -4.000000 2.000000
    endloop
  endfacet
  facet normal -1.000000 0.000000 0.000000
    outer loop
      vertex 2.100000 -4.000000 2.000000
      vertex 2.100000 -0.156403 0.000000
      vertex 2.100000 -4.000000 0.000000
    endloop
  endfacet
  facet normal 0.000000 -1.000000 0.000000
    outer loop
      vertex 2.100000 -4.000000 2.000000
      vertex 2.100000 -4.000000 0.000000
      vertex 4.000000 -4.000000 0.000000
    endloop
  endfacet
  facet normal 0.000000 -1.000000 0.000000
    outer loop
      vertex 4.000000 -4.000000 2.000000
      vertex 2.100000 -4.000000 2.000000
      vertex 4.000000 -4.000000 0.000000
    endloop
  endfacet
  facet normal 1.000000 0.000000 -0.000000
    outer loop
      vertex 4.000000 -4.000000 2.000000
      vertex 4.000000 -4.000000 0.000000
      vertex 4.000000 14.000000 0.000000
    endloop
  endfacet
  facet normal 1.000000 0.000000 -0.000000
    outer loop
      vertex 4.000000 4.000000 2.000000
      vertex 4.000000 -4.000000 2.000000
      vertex 4.000000 14.000000 0.000000
    endloop
  endfacet
  facet normal 1.000000 0.000000 0.000000
    outer loop
      vertex 4.000000 14.000000 3.600000
      vertex 4.000000 4.000000 2.468629
      vertex 4.000000 14.000000 0.000000
    endloop
  endfacet
  facet normal 1.000000 0.000000 -0.000000
    outer loop
      vertex 4.000000 4.000000 2.468629
      vertex 4.000000 4.000000 2.000000
      vertex 4.000000 14.000000 0.000000
    endloop
  endfacet
  facet normal 1.000000 0.000000 -0.000000
    outer loop
      vertex 4.000000 5.131371 3.600000
      vertex 4.000000 4.000000 2.468629
      vertex 4.000000 14.000000 3.600000
    endloop
  endfacet
  facet normal 0.995185 0.098017 0.000000
    outer loop
      vertex 4.000000 14.000000 0.000000
      vertex 3.923141 14.780361 0.000000
      vertex 3.923141 14.780361 3.600000
    endloop
  endfacet
  facet normal 0.995185 0.098017 -0.000000
    outer loop
      vertex 4.000000 14.000000 3.600000
      vertex 4.000000 14.000000 0.000000
      vertex 3.923141 14.780361 3.600000
    endloop
  endfacet
  facet normal 0.956940 0.290284 0.000000
    outer loop
      vertex 3.923141 14.780361 0.000000
      vertex 3.695518 15.530734 0.000000
      vertex 3.695518 15.530734 3.600000
    endloop
  endfacet
  facet normal 0.956940 0.290284 -0.000000
    outer loop
      vertex 3.923141 14.780361 3.600000
      vertex 3.923141 14.780361 0.000000
      vertex 3.695518 15.530734 3.600000
    endloop
  endfacet
  facet normal 0.881921 0.471397 0.000000
    outer loop
      vertex 3.695518 15.530734 0.000000
      vertex 3.325878 16.222281 0.000000
      vertex 3.325878 16.222281 3.600000
    endloop
  endfacet
  facet normal 0.881921 0.471397 -0.000000
    outer loop
      vertex 3.695518 15.530734 3.600000
      vertex 3.695518 15.530734 0.000000
      vertex 3.325878 16.222281 3.600000
    endloop
  endfacet
  facet normal 0.773011 0.634393 0.000000
    outer loop
      vertex 3.325878 16.222281 0.000000
      vertex 2.828427 16.828427 0.000000
      vertex 2.828427 16.828427 3.600000
    endloop
  endfacet
  facet normal 0.773011 0.634393 -0.000000
    outer loop
      vertex 3.325878 16.222281 3.600000
      vertex 3.325878 16.222281 0.000000
      vertex 2.828427 16.828427 3.600000
    endloop
  endfacet
  facet normal 0.634393 0.773011 0.000000
    outer loop
      vertex 2.222281 17.325878 0.000000
      vertex 2.222281 17.325878 3.600000
      vertex 2.828427 16.828427 0.000000
    endloop
  endfacet
  facet normal 0.634393 0.773011 0.000000
    outer loop
      vertex 2.828427 16.828427 0.000000
      vertex 2.222281 17.325878 3.600000
      vertex 2.828427 16.828427 3.600000
    endloop
  endfacet
  facet normal 0.471397 0.881921 0.000000
    outer loop
      vertex 1.530734 17.695518 0.000000
      vertex 1.530734 17.695518 3.600000
      vertex 2.222281 17.325878 0.000000
    endloop
  endfacet
  facet normal 0.471397 0.881921 0.000000
    outer loop
      vertex 2.222281 17.325878 0.000000
      vertex 1.530734 17.695518 3.600000
      vertex 2.222281 17.325878 3.600000
    endloop
  endfacet
  facet normal 0.290284 0.956940 0.000000
    outer loop
      vertex 0.780361 17.923141 0.000000
      vertex 0.780361 17.923141 3.600000
      vertex 1.530734 17.695518 0.000000
    endloop
  endfacet
  facet normal 0.290284 0.956940 0.000000
    outer loop
      vertex 1.530734 17.695518 0.000000
      vertex 0.780361 17.923141 3.600000
      vertex 1.530734 17.695518 3.600000
    endloop
  endfacet
  facet normal 0.098017 0.995185 0.000000
    outer loop
      vertex 0.000000 18.000000 0.000000
      vertex 0.000000 18.000000 3.600000
      vertex 0.780361 17.923141 0.000000
    endloop
  endfacet
  facet normal 0.098017 0.995185 0.000000
    outer loop
      vertex 0.780361 17.923141 0.000000
      vertex 0.000000 18.000000 3.600000
      vertex 0.780361 17.923141 3.600000
    endloop
  endfacet
  facet normal -0.098017 0.995185 0.000000
    outer loop
      vertex -0.780361 17.923141 0.000000
      vertex -0.780361 17.923141 3.600000
      vertex 0.000000 18.000000 0.000000
    endloop
  endfacet
  facet normal -0.098017 0.995185 0.000000
    outer loop
      vertex 0.000000 18.000000 0.000000
      vertex -0.780361 17.923141 3.600000
      vertex 0.000000 18.000000 3.600000
    endloop
  endfacet
  facet normal -0.290284 0.956940 0.000000
    outer loop
      vertex -1.530734 17.695518 0.000000
      vertex -1.530734 17.695518 3.600000
      vertex -0.780361 17.923141 0.000000
    endloop
  endfacet
  facet normal -0.290284 0.956940 0.000000
    outer loop
      vertex -0.780361 17.923141 0.000000
      vertex -1.530734 17.695518 3.600000
      vertex -0.780361 17.923141 3.600000
    endloop
  endfacet
  facet normal -0.471397 0.881921 0.000000
    outer loop
      vertex -2.222281 17.325878 0.000000
      vertex -2.222281 17.325878 3.600000
      vertex -1.530734 17.695518 0.000000
    endloop
  endfacet
  facet normal -0.471397 0.881921 0.000000
    outer loop
      vertex -1.530734 17.695518 0.000000
      vertex -2.222281 17.325878 3.600000
      vertex -1.530734 17.695518 3.600000
    endloop
  endfacet
  facet normal -0.634393 0.773011 0.000000
    outer loop
      vertex -2.828427 16.828427 0.000000
      vertex -2.828427 16.828427 3.600000
      vertex -2.222281 17.325878 0.000000
    endloop
  endfacet
  facet normal -0.634393 0.773011 0.000000
    outer loop
      vertex -2.222281 17.325878 0.000000
      vertex -2.828427 16.828427 3.600000
      vertex -2.222281 17.325878 3.600000
    endloop
  endfacet
  facet normal -0.773011 0.634393 0.000000
    outer loop
      vertex -3.325878 16.222281 0.000000
      vertex -3.325878 16.222281 3.600000
      vertex -2.828427 16.828427 0.000000
    endloop
  endfacet
  facet normal -0.773011 0.634393 0.000000
    outer loop
      vertex -2.828427 16.828427 0.000000
      vertex -3.325878 16.222281 3.600000
      vertex -2.828427 16.828427 3.600000
    endloop
  endfacet
  facet normal -0.881921 0.471397 0.000000
    outer loop
      vertex -3.695518 15.530734 0.000000
      vertex -3.695518 15.530734 3.600000
      vertex -3.325878 16.222281 0.000000
    endloop
  endfacet
  facet normal -0.881921 0.471397 0.000000
    outer loop
      vertex -3.325878 16.222281 0.000000
      vertex -3.695518 15.530734 3.600000
      vertex -3.325878 16.222281 3.600000
    endloop
  endfacet
  facet normal -0.956940 0.290284 0.000000
    outer loop
      vertex -3.923141 14.780361 0.000000
      vertex -3.923141 14.780361 3.600000
      vertex -3.695518 15.530734 0.000000
    endloop
  endfacet
  facet normal -0.956940 0.290284 0.000000
    outer loop
      vertex -3.695518 15.530734 0.000000
      vertex -3.923141 14.780361 3.600000
      vertex -3.695518 15.530734 3.600000
    endloop
  endfacet
  facet normal 0.866025 -0.500000 0.000000
    outer loop
      vertex -0.923760 15.600000 0.000000
      vertex -0.923760 15.600000 3.600000
      vertex -1.847521 14.000000 3.600000
    endloop
  endfacet
  facet normal 0.866025 -0.500000 0.000000
    outer loop
      vertex -1.847521 14.000000 0.000000
      vertex -0.923760 15.600000 0.000000
      vertex -1.847521 14.000000 3.600000
    endloop
  endfacet
  facet normal 0.866025 0.500000 0.000000
    outer loop
      vertex -1.847521 14.000000 3.600000
      vertex -0.923760 12.400000 3.600000
      vertex -0.923760 12.400000 0.000000
    endloop
  endfacet
  facet normal 0.866025 0.500000 0.000000
    outer loop
      vertex -1.847521 14.000000 0.000000
      vertex -1.847521 14.000000 3.600000
      vertex -0.923760 12.400000 0.000000
    endloop
  endfacet
  facet normal 0.000000 -1.000000 0.000000
    outer loop
      vertex 0.923760 15.600000 0.000000
      vertex 0.923760 15.600000 3.600000
      vertex -0.923760 15.600000 3.600000
    endloop
  endfacet
  facet normal -0.000000 -1.000000 -0.000000
    outer loop
      vertex -0.923760 15.600000 0.000000
      vertex 0.923760 15.600000 0.000000
      vertex -0.923760 15.600000 3.600000
    endloop
  endfacet
  facet normal -0.866025 -0.500000 0.000000
    outer loop
      vertex 1.847521 14.000000 3.600000
      vertex 0.923760 15.600000 3.600000
      vertex 1.847521 14.000000 0.000000
    endloop
  endfacet
  facet normal -0.866025 -0.500000 0.000000
    outer loop
      vertex 1.847521 14.000000 0.000000
      vertex 0.923760 15.600000 3.600000
      vertex 0.923760 15.600000 0.000000
    endloop
  endfacet
  facet normal -0.866025 0.500000 0.000000
    outer loop
      vertex 1.847521 14.000000 3.600000
      vertex 1.847521 14.000000 0.000000
      vertex 0.923760 12.400000 3.600000
    endloop
  endfacet
  facet normal -0.866025 0.500000 0.000000
    outer loop
      vertex 0.923760 12.400000 3.600000
      vertex 1.847521 14.000000 0.000000
      vertex 0.923760 12.400000 0.000000
    endloop
  endfacet
  facet normal 0.000000 1.000000 0.000000
    outer loop
      vertex 0.923760 12.400000 3.600000
      vertex 0.923760 12.400000 0.000000
      vertex -0.923760 12.400000 3.600000
    endloop
  endfacet
  facet normal 0.000000 1.000000 -0.000000
    outer loop
      vertex -0.923760 12.400000 3.600000
      vertex 0.923760 12.400000 0.000000
      vertex -0.923760 12.400000 0.000000
    endloop
  endfacet
endsolid OpenSCAD_Model
