solid OpenSCAD_Model
  facet normal -0.000000 0.000000 -1.000000
    outer loop
      vertex -14.000000 0.000000 0.000000
      vertex -13.619398 1.913417 0.000000
      vertex -13.619398 -1.913417 0.000000
    endloop
  endfacet
  facet normal 0.000000 -0.000000 -1.000000
    outer loop
      vertex -13.619398 -1.913417 0.000000
      vertex -13.619398 1.913417 0.000000
      vertex -12.535534 3.535534 0.000000
    endloop
  endfacet
  facet normal 0.000000 0.000000 -1.000000
    outer loop
      vertex -13.619398 -1.913417 0.000000
      vertex -12.535534 3.535534 0.000000
      vertex -10.913417 4.619398 0.000000
    endloop
  endfacet
  facet normal 0.000000 0.000000 -1.000000
    outer loop
      vertex -13.619398 -1.913417 0.000000
      vertex -10.913417 4.619398 0.000000
      vertex -9.000000 5.000000 0.000000
    endloop
  endfacet
  facet normal 0.000000 -0.000000 -1.000000
    outer loop
      vertex -7.829404 2.027531 0.000000
      vertex -9.000000 5.000000 0.000000
      vertex 9.000000 5.000000 0.000000
    endloop
  endfacet
  facet normal -0.000000 0.000000 -1.000000
    outer loop
      vertex 10.170596 2.027531 0.000000
      vertex 12.535534 3.535534 0.000000
      vertex 13.619398 1.913417 0.000000
    endloop
  endfacet
  facet normal -0.000000 0.000000 -1.000000
    outer loop
      vertex 11.200000 0.800735 0.000000
      vertex 13.619398 1.913417 0.000000
      vertex 14.000000 0.000000 0.000000
    endloop
  endfacet
  facet normal -0.000000 0.000000 -1.000000
    outer loop
      vertex 11.200000 -0.800735 0.000000
      vertex 14.000000 0.000000 0.000000
      vertex 13.619398 -1.913417 0.000000
    endloop
  endfacet
  facet normal -0.000000 0.000000 -1.000000
    outer loop
      vertex 8.593456 -2.305623 0.000000
      vertex 13.619398 -1.913417 0.000000
      vertex 12.535534 -3.535534 0.000000
    endloop
  endfacet
  facet normal 0.000000 0.000000 -1.000000
    outer loop
      vertex -9.406544 -2.305623 0.000000
      vertex 12.535534 -3.535534 0.000000
      vertex 10.913417 -4.619398 0.000000
    endloop
  endfacet
  facet normal 0.000000 0.000000 -1.000000
    outer loop
      vertex -13.619398 -1.913417 0.000000
      vertex 10.913417 -4.619398 0.000000
      vertex 9.000000 -5.000000 0.000000
    endloop
  endfacet
  facet normal 0.000000 0.000000 -1.000000
    outer loop
      vertex -13.619398 -1.913417 0.000000
      vertex 9.000000 -5.000000 0.000000
      vertex -9.000000 -5.000000 0.000000
    endloop
  endfacet
  facet normal 0.000000 0.000000 -1.000000
    outer loop
      vertex -13.619398 -1.913417 0.000000
      vertex -9.000000 -5.000000 0.000000
      vertex -10.913417 -4.619398 0.000000
    endloop
  endfacet
  facet normal 0.000000 0.000000 -1.000000
    outer loop
      vertex -13.619398 -1.913417 0.000000
      vertex -10.913417 -4.619398 0.000000
      vertex -12.535534 -3.535534 0.000000
    endloop
  endfacet
  facet normal 0.000000 -0.000000 -1.000000
    outer loop
      vertex 6.658809 0.000000 0.000000
      vertex -6.800000 -0.800735 0.000000
      vertex 7.206544 1.504889 0.000000
    endloop
  endfacet
  facet normal 0.000000 0.000000 -1.000000
    outer loop
      vertex -9.406544 -2.305623 0.000000
      vertex -13.619398 -1.913417 0.000000
      vertex -10.793456 -1.504889 0.000000
    endloop
  endfacet
  facet normal 0.000000 0.000000 -1.000000
    outer loop
      vertex 7.206544 -1.504889 0.000000
      vertex -6.800000 -0.800735 0.000000
      vertex 6.658809 0.000000 0.000000
    endloop
  endfacet
  facet normal 0.000000 0.000000 -1.000000
    outer loop
      vertex -13.619398 -1.913417 0.000000
      vertex -9.406544 -2.305623 0.000000
      vertex 10.913417 -4.619398 0.000000
    endloop
  endfacet
  facet normal 0.000000 0.000000 -1.000000
    outer loop
      vertex 8.593456 -2.305623 0.000000
      vertex -7.829404 -2.027531 0.000000
      vertex -6.800000 -0.800735 0.000000
    endloop
  endfacet
  facet normal 0.000000 0.000000 -1.000000
    outer loop
      vertex 8.593456 -2.305623 0.000000
      vertex -6.800000 -0.800735 0.000000
      vertex 7.206544 -1.504889 0.000000
    endloop
  endfacet
  facet normal -0.000000 0.000000 -1.000000
    outer loop
      vertex -6.800000 0.800735 0.000000
      vertex 12.535534 3.535534 0.000000
      vertex -6.800000 -0.800735 0.000000
    endloop
  endfacet
  facet normal -0.000000 0.000000 -1.000000
    outer loop
      vertex -9.406544 2.305623 0.000000
      vertex -9.000000 5.000000 0.000000
      vertex -7.829404 2.027531 0.000000
    endloop
  endfacet
  facet normal 0.000000 0.000000 -1.000000
    outer loop
      vertex -10.793456 1.504889 0.000000
      vertex -9.000000 5.000000 0.000000
      vertex -9.406544 2.305623 0.000000
    endloop
  endfacet
  facet normal 0.000000 0.000000 -1.000000
    outer loop
      vertex -13.619398 -1.913417 0.000000
      vertex -9.000000 5.000000 0.000000
      vertex -10.793456 1.504889 0.000000
    endloop
  endfacet
  facet normal 0.000000 0.000000 -1.000000
    outer loop
      vertex -13.619398 -1.913417 0.000000
      vertex -10.793456 1.504889 0.000000
      vertex -11.341191 0.000000 0.000000
    endloop
  endfacet
  facet normal -0.000000 0.000000 -1.000000
    outer loop
      vertex 10.170596 -2.027531 0.000000
      vertex 13.619398 -1.913417 0.000000
      vertex 8.593456 -2.305623 0.000000
    endloop
  endfacet
  facet normal 0.000000 0.000000 -1.000000
    outer loop
      vertex -7.829404 -2.027531 0.000000
      vertex 8.593456 -2.305623 0.000000
      vertex 12.535534 -3.535534 0.000000
    endloop
  endfacet
  facet normal 0.000000 0.000000 -1.000000
    outer loop
      vertex 11.200000 -0.800735 0.000000
      vertex 13.619398 -1.913417 0.000000
      vertex 10.170596 -2.027531 0.000000
    endloop
  endfacet
  facet normal 0.000000 0.000000 -1.000000
    outer loop
      vertex 11.200000 0.800735 0.000000
      vertex 14.000000 0.000000 0.000000
      vertex 11.200000 -0.800735 0.000000
    endloop
  endfacet
  facet normal 0.000000 0.000000 -1.000000
    outer loop
      vertex 10.170596 2.027531 0.000000
      vertex 13.619398 1.913417 0.000000
      vertex 11.200000 0.800735 0.000000
    endloop
  endfacet
  facet normal -0.000000 0.000000 -1.000000
    outer loop
      vertex 8.593456 2.305623 0.000000
      vertex 12.535534 3.535534 0.000000
      vertex 10.170596 2.027531 0.000000
    endloop
  endfacet
  facet normal 0.000000 -0.000000 -1.000000
    outer loop
      vertex 7.206544 1.504889 0.000000
      vertex -6.800000 -0.800735 0.000000
      vertex 8.593456 2.305623 0.000000
    endloop
  endfacet
  facet normal 0.000000 0.000000 -1.000000
    outer loop
      vertex -6.800000 -0.800735 0.000000
      vertex 12.535534 3.535534 0.000000
      vertex 8.593456 2.305623 0.000000
    endloop
  endfacet
  facet normal 0.000000 0.000000 -1.000000
    outer loop
      vertex -10.793456 -1.504889 0.000000
      vertex -13.619398 -1.913417 0.000000
      vertex -11.341191 0.000000 0.000000
    endloop
  endfacet
  facet normal 0.000000 0.000000 -1.000000
    outer loop
      vertex -6.800000 0.800735 0.000000
      vertex 9.000000 5.000000 0.000000
      vertex 10.913417 4.619398 0.000000
    endloop
  endfacet
  facet normal 0.000000 0.000000 -1.000000
    outer loop
      vertex -6.800000 0.800735 0.000000
      vertex 10.913417 4.619398 0.000000
      vertex 12.535534 3.535534 0.000000
    endloop
  endfacet
  facet normal -0.000000 0.000000 -1.000000
    outer loop
      vertex -7.829404 2.027531 0.000000
      vertex 9.000000 5.000000 0.000000
      vertex -6.800000 0.800735 0.000000
    endloop
  endfacet
  facet normal 0.000000 0.000000 -1.000000
    outer loop
      vertex -7.829404 -2.027531 0.000000
      vertex 12.535534 -3.535534 0.000000
      vertex -9.406544 -2.305623 0.000000
    endloop
  endfacet
  facet normal -0.980785 0.195090 0.000000
    outer loop
      vertex -14.000000 0.000000 0.000000
      vertex -14.000000 0.000000 10.500000
      vertex -13.619398 1.913417 0.000000
    endloop
  endfacet
  facet normal -0.980785 0.195090 0.000000
    outer loop
      vertex -13.619398 1.913417 0.000000
      vertex -14.000000 0.000000 10.500000
      vertex -13.619398 1.913417 10.500000
    endloop
  endfacet
  facet normal -0.980785 -0.195090 -0.000000
    outer loop
      vertex -14.000000 0.000000 0.000000
      vertex -13.619398 -1.913417 0.000000
      vertex -14.000000 0.000000 10.500000
    endloop
  endfacet
  facet normal -0.980785 -0.195090 0.000000
    outer loop
      vertex -14.000000 0.000000 10.500000
      vertex -13.619398 -1.913417 0.000000
      vertex -13.619398 -1.913417 10.500000
    endloop
  endfacet
  facet normal -0.831470 -0.555570 -0.000000
    outer loop
      vertex -13.619398 -1.913417 0.000000
      vertex -12.535534 -3.535534 0.000000
      vertex -13.619398 -1.913417 10.500000
    endloop
  endfacet
  facet normal -0.831470 -0.555570 0.000000
    outer loop
      vertex -13.619398 -1.913417 10.500000
      vertex -12.535534 -3.535534 0.000000
      vertex -12.535534 -3.535534 10.500000
    endloop
  endfacet
  facet normal -0.555570 -0.831470 0.000000
    outer loop
      vertex -12.535534 -3.535534 10.500000
      vertex -12.535534 -3.535534 0.000000
      vertex -10.913417 -4.619398 0.000000
    endloop
  endfacet
  facet normal -0.555570 -0.831470 0.000000
    outer loop
      vertex -10.913417 -4.619398 10.500000
      vertex -12.535534 -3.535534 10.500000
      vertex -10.913417 -4.619398 0.000000
    endloop
  endfacet
  facet normal -0.195090 -0.980785 0.000000
    outer loop
      vertex -10.913417 -4.619398 10.500000
      vertex -10.913417 -4.619398 0.000000
      vertex -9.000000 -5.000000 0.000000
    endloop
  endfacet
  facet normal -0.195090 -0.980785 0.000000
    outer loop
      vertex -9.000000 -5.000000 10.500000
      vertex -10.913417 -4.619398 10.500000
      vertex -9.000000 -5.000000 0.000000
    endloop
  endfacet
  facet normal 0.000000 -1.000000 0.000000
    outer loop
      vertex -0.000000 -5.000000 2.000000
      vertex -9.000000 -5.000000 0.000000
      vertex 9.000000 -5.000000 0.000000
    endloop
  endfacet
  facet normal 0.000000 -1.000000 0.000000
    outer loop
      vertex 2.814583 -5.000000 6.875000
      vertex 2.814583 -5.000000 3.625000
      vertex 9.000000 -5.000000 0.000000
    endloop
  endfacet
  facet normal 0.000000 -1.000000 0.000000
    outer loop
      vertex -9.000000 -5.000000 10.500000
      vertex -9.000000 -5.000000 0.000000
      vertex -2.814583 -5.000000 3.625000
    endloop
  endfacet
  facet normal 0.000000 -1.000000 0.000000
    outer loop
      vertex 2.814583 -5.000000 3.625000
      vertex -0.000000 -5.000000 2.000000
      vertex 9.000000 -5.000000 0.000000
    endloop
  endfacet
  facet normal 0.000000 -1.000000 0.000000
    outer loop
      vertex -9.000000 -5.000000 10.500000
      vertex -2.814583 -5.000000 3.625000
      vertex -2.814583 -5.000000 6.875000
    endloop
  endfacet
  facet normal 0.000000 -1.000000 0.000000
    outer loop
      vertex 9.000000 -5.000000 10.500000
      vertex -9.000000 -5.000000 10.500000
      vertex 0.000000 -5.000000 8.500000
    endloop
  endfacet
  facet normal 0.000000 -1.000000 0.000000
    outer loop
      vertex 9.000000 -5.000000 10.500000
      vertex 2.814583 -5.000000 6.875000
      vertex 9.000000 -5.000000 0.000000
    endloop
  endfacet
  facet normal 0.000000 -1.000000 0.000000
    outer loop
      vertex 9.000000 -5.000000 10.500000
      vertex 0.000000 -5.000000 8.500000
      vertex 2.814583 -5.000000 6.875000
    endloop
  endfacet
  facet normal 0.000000 -1.000000 0.000000
    outer loop
      vertex -2.814583 -5.000000 3.625000
      vertex -9.000000 -5.000000 0.000000
      vertex -0.000000 -5.000000 2.000000
    endloop
  endfacet
  facet normal 0.000000 -1.000000 -0.000000
    outer loop
      vertex -2.814583 -5.000000 6.875000
      vertex 0.000000 -5.000000 8.500000
      vertex -9.000000 -5.000000 10.500000
    endloop
  endfacet
  facet normal 0.195090 -0.980785 0.000000
    outer loop
      vertex 9.000000 -5.000000 10.500000
      vertex 9.000000 -5.000000 0.000000
      vertex 10.913417 -4.619398 0.000000
    endloop
  endfacet
  facet normal 0.195090 -0.980785 0.000000
    outer loop
      vertex 10.913417 -4.619398 10.500000
      vertex 9.000000 -5.000000 10.500000
      vertex 10.913417 -4.619398 0.000000
    endloop
  endfacet
  facet normal 0.555570 -0.831470 0.000000
    outer loop
      vertex 10.913417 -4.619398 10.500000
      vertex 10.913417 -4.619398 0.000000
      vertex 12.535534 -3.535534 0.000000
    endloop
  endfacet
  facet normal 0.555570 -0.831470 0.000000
    outer loop
      vertex 12.535534 -3.535534 10.500000
      vertex 10.913417 -4.619398 10.500000
      vertex 12.535534 -3.535534 0.000000
    endloop
  endfacet
  facet normal 0.831470 -0.555570 0.000000
    outer loop
      vertex 12.535534 -3.535534 10.500000
      vertex 12.535534 -3.535534 0.000000
      vertex 13.619398 -1.913417 0.000000
    endloop
  endfacet
  facet normal 0.831470 -0.555570 0.000000
    outer loop
      vertex 13.619398 -1.913417 10.500000
      vertex 12.535534 -3.535534 10.500000
      vertex 13.619398 -1.913417 0.000000
    endloop
  endfacet
  facet normal 0.980785 -0.195090 0.000000
    outer loop
      vertex 13.619398 -1.913417 10.500000
      vertex 13.619398 -1.913417 0.000000
      vertex 14.000000 0.000000 0.000000
    endloop
  endfacet
  facet normal 0.980785 -0.195090 0.000000
    outer loop
      vertex 14.000000 0.000000 10.500000
      vertex 13.619398 -1.913417 10.500000
      vertex 14.000000 0.000000 0.000000
    endloop
  endfacet
  facet normal 0.980785 0.195090 0.000000
    outer loop
      vertex 14.000000 0.000000 0.000000
      vertex 13.619398 1.913417 0.000000
      vertex 13.619398 1.913417 10.500000
    endloop
  endfacet
  facet normal 0.980785 0.195090 -0.000000
    outer loop
      vertex 14.000000 0.000000 10.500000
      vertex 14.000000 0.000000 0.000000
      vertex 13.619398 1.913417 10.500000
    endloop
  endfacet
  facet normal 0.831470 0.555570 0.000000
    outer loop
      vertex 13.619398 1.913417 0.000000
      vertex 12.535534 3.535534 0.000000
      vertex 12.535534 3.535534 10.500000
    endloop
  endfacet
  facet normal 0.831470 0.555570 -0.000000
    outer loop
      vertex 13.619398 1.913417 10.500000
      vertex 13.619398 1.913417 0.000000
      vertex 12.535534 3.535534 10.500000
    endloop
  endfacet
  facet normal 0.555570 0.831470 0.000000
    outer loop
      vertex 10.913417 4.619398 0.000000
      vertex 10.913417 4.619398 10.500000
      vertex 12.535534 3.535534 0.000000
    endloop
  endfacet
  facet normal 0.555570 0.831470 0.000000
    outer loop
      vertex 12.535534 3.535534 0.000000
      vertex 10.913417 4.619398 10.500000
      vertex 12.535534 3.535534 10.500000
    endloop
  endfacet
  facet normal 0.195090 0.980785 0.000000
    outer loop
      vertex 9.000000 5.000000 0.000000
      vertex 9.000000 5.000000 10.500000
      vertex 10.913417 4.619398 0.000000
    endloop
  endfacet
  facet normal 0.195090 0.980785 0.000000
    outer loop
      vertex 10.913417 4.619398 0.000000
      vertex 9.000000 5.000000 10.500000
      vertex 10.913417 4.619398 10.500000
    endloop
  endfacet
  facet normal 0.000000 1.000000 0.000000
    outer loop
      vertex 0.540780 5.000000 6.914349
      vertex -9.000000 5.000000 10.500000
      vertex 9.000000 5.000000 10.500000
    endloop
  endfacet
  facet normal 0.000000 1.000000 0.000000
    outer loop
      vertex -9.000000 5.000000 0.000000
      vertex -9.000000 5.000000 10.500000
      vertex -1.750000 5.000000 5.250000
    endloop
  endfacet
  facet normal 0.000000 1.000000 0.000000
    outer loop
      vertex -9.000000 5.000000 0.000000
      vertex -1.750000 5.000000 5.250000
      vertex -1.711758 5.000000 4.886155
    endloop
  endfacet
  facet normal 0.000000 1.000000 0.000000
    outer loop
      vertex -9.000000 5.000000 0.000000
      vertex -1.711758 5.000000 4.886155
      vertex -1.598705 5.000000 4.538211
    endloop
  endfacet
  facet normal 0.000000 1.000000 0.000000
    outer loop
      vertex -9.000000 5.000000 0.000000
      vertex -1.598705 5.000000 4.538211
      vertex -1.415780 5.000000 4.221376
    endloop
  endfacet
  facet normal 0.000000 1.000000 0.000000
    outer loop
      vertex -9.000000 5.000000 0.000000
      vertex -1.415780 5.000000 4.221376
      vertex -1.170979 5.000000 3.949497
    endloop
  endfacet
  facet normal 0.000000 1.000000 0.000000
    outer loop
      vertex -9.000000 5.000000 0.000000
      vertex -1.170979 5.000000 3.949497
      vertex -0.875000 5.000000 3.734456
    endloop
  endfacet
  facet normal 0.000000 1.000000 0.000000
    outer loop
      vertex -9.000000 5.000000 0.000000
      vertex -0.875000 5.000000 3.734456
      vertex -0.540780 5.000000 3.585651
    endloop
  endfacet
  facet normal 0.000000 1.000000 0.000000
    outer loop
      vertex -9.000000 5.000000 0.000000
      vertex -0.540780 5.000000 3.585651
      vertex 9.000000 5.000000 0.000000
    endloop
  endfacet
  facet normal 0.000000 1.000000 -0.000000
    outer loop
      vertex 0.182925 5.000000 3.509587
      vertex 9.000000 5.000000 0.000000
      vertex -0.182925 5.000000 3.509587
    endloop
  endfacet
  facet normal 0.000000 1.000000 -0.000000
    outer loop
      vertex 0.540780 5.000000 3.585651
      vertex 9.000000 5.000000 0.000000
      vertex 0.182925 5.000000 3.509587
    endloop
  endfacet
  facet normal 0.000000 1.000000 -0.000000
    outer loop
      vertex 0.875000 5.000000 3.734456
      vertex 9.000000 5.000000 0.000000
      vertex 0.540780 5.000000 3.585651
    endloop
  endfacet
  facet normal 0.000000 1.000000 -0.000000
    outer loop
      vertex 1.170979 5.000000 3.949497
      vertex 9.000000 5.000000 0.000000
      vertex 0.875000 5.000000 3.734456
    endloop
  endfacet
  facet normal 0.000000 1.000000 -0.000000
    outer loop
      vertex 1.598705 5.000000 4.538211
      vertex 9.000000 5.000000 0.000000
      vertex 1.415780 5.000000 4.221376
    endloop
  endfacet
  facet normal 0.000000 1.000000 0.000000
    outer loop
      vertex -1.711758 5.000000 5.613845
      vertex -9.000000 5.000000 10.500000
      vertex -1.598705 5.000000 5.961789
    endloop
  endfacet
  facet normal 0.000000 1.000000 0.000000
    outer loop
      vertex 1.170979 5.000000 3.949497
      vertex 1.415780 5.000000 4.221376
      vertex 9.000000 5.000000 0.000000
    endloop
  endfacet
  facet normal 0.000000 1.000000 0.000000
    outer loop
      vertex 0.182925 5.000000 6.990413
      vertex -9.000000 5.000000 10.500000
      vertex 0.540780 5.000000 6.914349
    endloop
  endfacet
  facet normal 0.000000 1.000000 0.000000
    outer loop
      vertex 9.000000 5.000000 0.000000
      vertex 1.598705 5.000000 4.538211
      vertex 9.000000 5.000000 10.500000
    endloop
  endfacet
  facet normal 0.000000 1.000000 0.000000
    outer loop
      vertex -1.598705 5.000000 5.961789
      vertex -9.000000 5.000000 10.500000
      vertex -1.415780 5.000000 6.278624
    endloop
  endfacet
  facet normal 0.000000 1.000000 0.000000
    outer loop
      vertex 1.598705 5.000000 4.538211
      vertex 1.711758 5.000000 4.886155
      vertex 9.000000 5.000000 10.500000
    endloop
  endfacet
  facet normal 0.000000 1.000000 0.000000
    outer loop
      vertex -1.415780 5.000000 6.278624
      vertex -9.000000 5.000000 10.500000
      vertex -1.170979 5.000000 6.550503
    endloop
  endfacet
  facet normal 0.000000 1.000000 0.000000
    outer loop
      vertex 1.711758 5.000000 4.886155
      vertex 1.750000 5.000000 5.250000
      vertex 9.000000 5.000000 10.500000
    endloop
  endfacet
  facet normal 0.000000 1.000000 0.000000
    outer loop
      vertex -1.170979 5.000000 6.550503
      vertex -9.000000 5.000000 10.500000
      vertex -0.875000 5.000000 6.765544
    endloop
  endfacet
  facet normal 0.000000 1.000000 0.000000
    outer loop
      vertex 1.750000 5.000000 5.250000
      vertex 1.711758 5.000000 5.613845
      vertex 9.000000 5.000000 10.500000
    endloop
  endfacet
  facet normal 0.000000 1.000000 0.000000
    outer loop
      vertex 1.711758 5.000000 5.613845
      vertex 1.598705 5.000000 5.961789
      vertex 9.000000 5.000000 10.500000
    endloop
  endfacet
  facet normal 0.000000 1.000000 0.000000
    outer loop
      vertex -0.875000 5.000000 6.765544
      vertex -9.000000 5.000000 10.500000
      vertex -0.540780 5.000000 6.914349
    endloop
  endfacet
  facet normal 0.000000 1.000000 0.000000
    outer loop
      vertex 1.598705 5.000000 5.961789
      vertex 1.415780 5.000000 6.278624
      vertex 9.000000 5.000000 10.500000
    endloop
  endfacet
  facet normal 0.000000 1.000000 0.000000
    outer loop
      vertex -0.540780 5.000000 6.914349
      vertex -9.000000 5.000000 10.500000
      vertex -0.182925 5.000000 6.990413
    endloop
  endfacet
  facet normal 0.000000 1.000000 0.000000
    outer loop
      vertex 1.415780 5.000000 6.278624
      vertex 1.170979 5.000000 6.550503
      vertex 9.000000 5.000000 10.500000
    endloop
  endfacet
  facet normal 0.000000 1.000000 0.000000
    outer loop
      vertex -0.182925 5.000000 6.990413
      vertex -9.000000 5.000000 10.500000
      vertex 0.182925 5.000000 6.990413
    endloop
  endfacet
  facet normal 0.000000 1.000000 0.000000
    outer loop
      vertex 1.170979 5.000000 6.550503
      vertex 0.875000 5.000000 6.765544
      vertex 9.000000 5.000000 10.500000
    endloop
  endfacet
  facet normal 0.000000 1.000000 0.000000
    outer loop
      vertex 0.875000 5.000000 6.765544
      vertex 0.540780 5.000000 6.914349
      vertex 9.000000 5.000000 10.500000
    endloop
  endfacet
  facet normal 0.000000 1.000000 0.000000
    outer loop
      vertex -1.750000 5.000000 5.250000
      vertex -9.000000 5.000000 10.500000
      vertex -1.711758 5.000000 5.613845
    endloop
  endfacet
  facet normal -0.000000 1.000000 -0.000000
    outer loop
      vertex -0.182925 5.000000 3.509587
      vertex 9.000000 5.000000 0.000000
      vertex -0.540780 5.000000 3.585651
    endloop
  endfacet
  facet normal -0.195090 0.980785 0.000000
    outer loop
      vertex -10.913417 4.619398 0.000000
      vertex -10.913417 4.619398 10.500000
      vertex -9.000000 5.000000 0.000000
    endloop
  endfacet
  facet normal -0.195090 0.980785 0.000000
    outer loop
      vertex -9.000000 5.000000 0.000000
      vertex -10.913417 4.619398 10.500000
      vertex -9.000000 5.000000 10.500000
    endloop
  endfacet
  facet normal -0.555570 0.831470 0.000000
    outer loop
      vertex -12.535534 3.535534 0.000000
      vertex -12.535534 3.535534 10.500000
      vertex -10.913417 4.619398 0.000000
    endloop
  endfacet
  facet normal -0.555570 0.831470 0.000000
    outer loop
      vertex -10.913417 4.619398 0.000000
      vertex -12.535534 3.535534 10.500000
      vertex -10.913417 4.619398 10.500000
    endloop
  endfacet
  facet normal -0.831470 0.555570 0.000000
    outer loop
      vertex -13.619398 1.913417 0.000000
      vertex -13.619398 1.913417 10.500000
      vertex -12.535534 3.535534 0.000000
    endloop
  endfacet
  facet normal -0.831470 0.555570 0.000000
    outer loop
      vertex -12.535534 3.535534 0.000000
      vertex -13.619398 1.913417 10.500000
      vertex -12.535534 3.535534 10.500000
    endloop
  endfacet
  facet normal 0.939693 -0.342020 0.000000
    outer loop
      vertex -10.793456 1.504889 0.000000
      vertex -10.793456 1.504889 10.500000
      vertex -11.341191 0.000000 10.500000
    endloop
  endfacet
  facet normal 0.939693 -0.342020 0.000000
    outer loop
      vertex -11.341191 0.000000 0.000000
      vertex -10.793456 1.504889 0.000000
      vertex -11.341191 0.000000 10.500000
    endloop
  endfacet
  facet normal 0.939693 0.342020 0.000000
    outer loop
      vertex -11.341191 0.000000 10.500000
      vertex -10.793456 -1.504889 10.500000
      vertex -10.793456 -1.504889 0.000000
    endloop
  endfacet
  facet normal 0.939693 0.342020 0.000000
    outer loop
      vertex -11.341191 0.000000 0.000000
      vertex -11.341191 0.000000 10.500000
      vertex -10.793456 -1.504889 0.000000
    endloop
  endfacet
  facet normal 0.500000 -0.866025 0.000000
    outer loop
      vertex -9.406544 2.305623 0.000000
      vertex -9.406544 2.305623 10.500000
      vertex -10.793456 1.504889 10.500000
    endloop
  endfacet
  facet normal 0.500000 -0.866025 0.000000
    outer loop
      vertex -10.793456 1.504889 0.000000
      vertex -9.406544 2.305623 0.000000
      vertex -10.793456 1.504889 10.500000
    endloop
  endfacet
  facet normal -0.173648 -0.984808 -0.000000
    outer loop
      vertex -7.829404 2.027531 0.000000
      vertex -7.829404 2.027531 10.500000
      vertex -9.406544 2.305623 10.500000
    endloop
  endfacet
  facet normal -0.173648 -0.984808 -0.000000
    outer loop
      vertex -9.406544 2.305623 0.000000
      vertex -7.829404 2.027531 0.000000
      vertex -9.406544 2.305623 10.500000
    endloop
  endfacet
  facet normal -0.766044 -0.642788 0.000000
    outer loop
      vertex -6.800000 0.800735 10.500000
      vertex -7.829404 2.027531 10.500000
      vertex -6.800000 0.800735 0.000000
    endloop
  endfacet
  facet normal -0.766044 -0.642788 0.000000
    outer loop
      vertex -6.800000 0.800735 0.000000
      vertex -7.829404 2.027531 10.500000
      vertex -7.829404 2.027531 0.000000
    endloop
  endfacet
  facet normal -1.000000 0.000000 0.000000
    outer loop
      vertex -6.800000 0.800735 10.500000
      vertex -6.800000 0.800735 0.000000
      vertex -6.800000 -0.800735 10.500000
    endloop
  endfacet
  facet normal -1.000000 0.000000 0.000000
    outer loop
      vertex -6.800000 -0.800735 10.500000
      vertex -6.800000 0.800735 0.000000
      vertex -6.800000 -0.800735 0.000000
    endloop
  endfacet
  facet normal -0.766044 0.642788 0.000000
    outer loop
      vertex -6.800000 -0.800735 10.500000
      vertex -6.800000 -0.800735 0.000000
      vertex -7.829404 -2.027531 10.500000
    endloop
  endfacet
  facet normal -0.766044 0.642788 0.000000
    outer loop
      vertex -7.829404 -2.027531 10.500000
      vertex -6.800000 -0.800735 0.000000
      vertex -7.829404 -2.027531 0.000000
    endloop
  endfacet
  facet normal -0.173648 0.984808 0.000000
    outer loop
      vertex -7.829404 -2.027531 10.500000
      vertex -7.829404 -2.027531 0.000000
      vertex -9.406544 -2.305623 10.500000
    endloop
  endfacet
  facet normal -0.173648 0.984808 0.000000
    outer loop
      vertex -9.406544 -2.305623 10.500000
      vertex -7.829404 -2.027531 0.000000
      vertex -9.406544 -2.305623 0.000000
    endloop
  endfacet
  facet normal 0.500000 0.866025 -0.000000
    outer loop
      vertex -9.406544 -2.305623 10.500000
      vertex -9.406544 -2.305623 0.000000
      vertex -10.793456 -1.504889 10.500000
    endloop
  endfacet
  facet normal 0.500000 0.866025 -0.000000
    outer loop
      vertex -10.793456 -1.504889 10.500000
      vertex -9.406544 -2.305623 0.000000
      vertex -10.793456 -1.504889 0.000000
    endloop
  endfacet
  facet normal 0.939693 0.342020 0.000000
    outer loop
      vertex 6.658809 0.000000 10.500000
      vertex 7.206544 -1.504889 10.500000
      vertex 7.206544 -1.504889 0.000000
    endloop
  endfacet
  facet normal 0.939693 0.342020 0.000000
    outer loop
      vertex 6.658809 0.000000 0.000000
      vertex 6.658809 0.000000 10.500000
      vertex 7.206544 -1.504889 0.000000
    endloop
  endfacet
  facet normal 0.939693 -0.342020 0.000000
    outer loop
      vertex 7.206544 1.504889 0.000000
      vertex 7.206544 1.504889 10.500000
      vertex 6.658809 0.000000 10.500000
    endloop
  endfacet
  facet normal 0.939693 -0.342020 0.000000
    outer loop
      vertex 6.658809 0.000000 0.000000
      vertex 7.206544 1.504889 0.000000
      vertex 6.658809 0.000000 10.500000
    endloop
  endfacet
  facet normal 0.500000 -0.866025 0.000000
    outer loop
      vertex 8.593456 2.305623 0.000000
      vertex 8.593456 2.305623 10.500000
      vertex 7.206544 1.504889 10.500000
    endloop
  endfacet
  facet normal 0.500000 -0.866025 0.000000
    outer loop
      vertex 7.206544 1.504889 0.000000
      vertex 8.593456 2.305623 0.000000
      vertex 7.206544 1.504889 10.500000
    endloop
  endfacet
  facet normal -0.173648 -0.984808 -0.000000
    outer loop
      vertex 10.170596 2.027531 0.000000
      vertex 10.170596 2.027531 10.500000
      vertex 8.593456 2.305623 10.500000
    endloop
  endfacet
  facet normal -0.173648 -0.984808 -0.000000
    outer loop
      vertex 8.593456 2.305623 0.000000
      vertex 10.170596 2.027531 0.000000
      vertex 8.593456 2.305623 10.500000
    endloop
  endfacet
  facet normal -0.766044 -0.642788 0.000000
    outer loop
      vertex 11.200000 0.800735 10.500000
      vertex 10.170596 2.027531 10.500000
      vertex 11.200000 0.800735 0.000000
    endloop
  endfacet
  facet normal -0.766044 -0.642788 0.000000
    outer loop
      vertex 11.200000 0.800735 0.000000
      vertex 10.170596 2.027531 10.500000
      vertex 10.170596 2.027531 0.000000
    endloop
  endfacet
  facet normal -1.000000 0.000000 0.000000
    outer loop
      vertex 11.200000 0.800735 10.500000
      vertex 11.200000 0.800735 0.000000
      vertex 11.200000 -0.800735 10.500000
    endloop
  endfacet
  facet normal -1.000000 0.000000 0.000000
    outer loop
      vertex 11.200000 -0.800735 10.500000
      vertex 11.200000 0.800735 0.000000
      vertex 11.200000 -0.800735 0.000000
    endloop
  endfacet
  facet normal -0.766044 0.642788 0.000000
    outer loop
      vertex 11.200000 -0.800735 10.500000
      vertex 11.200000 -0.800735 0.000000
      vertex 10.170596 -2.027531 10.500000
    endloop
  endfacet
  facet normal -0.766044 0.642788 0.000000
    outer loop
      vertex 10.170596 -2.027531 10.500000
      vertex 11.200000 -0.800735 0.000000
      vertex 10.170596 -2.027531 0.000000
    endloop
  endfacet
  facet normal -0.173648 0.984808 0.000000
    outer loop
      vertex 10.170596 -2.027531 10.500000
      vertex 10.170596 -2.027531 0.000000
      vertex 8.593456 -2.305623 10.500000
    endloop
  endfacet
  facet normal -0.173648 0.984808 0.000000
    outer loop
      vertex 8.593456 -2.305623 10.500000
      vertex 10.170596 -2.027531 0.000000
      vertex 8.593456 -2.305623 0.000000
    endloop
  endfacet
  facet normal 0.500000 0.866025 -0.000000
    outer loop
      vertex 8.593456 -2.305623 10.500000
      vertex 8.593456 -2.305623 0.000000
      vertex 7.206544 -1.504889 10.500000
    endloop
  endfacet
  facet normal 0.500000 0.866025 -0.000000
    outer loop
      vertex 7.206544 -1.504889 10.500000
      vertex 8.593456 -2.305623 0.000000
      vertex 7.206544 -1.504889 0.000000
    endloop
  endfacet
  facet normal 0.000000 0.000000 1.000000
    outer loop
      vertex -13.619398 1.913417 10.500000
      vertex -14.000000 0.000000 10.500000
      vertex -13.619398 -1.913417 10.500000
    endloop
  endfacet
  facet normal 0.000000 0.000000 1.000000
    outer loop
      vertex -10.913417 -4.619398 10.500000
      vertex -13.619398 1.913417 10.500000
      vertex -12.535534 -3.535534 10.500000
    endloop
  endfacet
  facet normal 0.000000 0.000000 1.000000
    outer loop
      vertex -12.535534 -3.535534 10.500000
      vertex -13.619398 1.913417 10.500000
      vertex -13.619398 -1.913417 10.500000
    endloop
  endfacet
  facet normal 0.000000 0.000000 1.000000
    outer loop
      vertex -9.000000 -5.000000 10.500000
      vertex -13.619398 1.913417 10.500000
      vertex -10.913417 -4.619398 10.500000
    endloop
  endfacet
  facet normal -0.000000 -0.000000 1.000000
    outer loop
      vertex -10.793456 -1.504889 10.500000
      vertex -13.619398 1.913417 10.500000
      vertex -9.000000 -5.000000 10.500000
    endloop
  endfacet
  facet normal 0.000000 -0.000000 1.000000
    outer loop
      vertex 11.200000 0.800735 10.500000
      vertex 11.200000 -0.800735 10.500000
      vertex 14.000000 0.000000 10.500000
    endloop
  endfacet
  facet normal 0.000000 0.000000 1.000000
    outer loop
      vertex -9.406544 2.305623 10.500000
      vertex -7.829404 2.027531 10.500000
      vertex 12.535534 3.535534 10.500000
    endloop
  endfacet
  facet normal 0.000000 0.000000 1.000000
    outer loop
      vertex 6.658809 0.000000 10.500000
      vertex 7.206544 1.504889 10.500000
      vertex -7.829404 2.027531 10.500000
    endloop
  endfacet
  facet normal 0.000000 -0.000000 1.000000
    outer loop
      vertex 9.000000 5.000000 10.500000
      vertex -13.619398 1.913417 10.500000
      vertex 10.913417 4.619398 10.500000
    endloop
  endfacet
  facet normal 0.000000 -0.000000 1.000000
    outer loop
      vertex -9.000000 5.000000 10.500000
      vertex -13.619398 1.913417 10.500000
      vertex 9.000000 5.000000 10.500000
    endloop
  endfacet
  facet normal 0.000000 -0.000000 1.000000
    outer loop
      vertex -10.913417 4.619398 10.500000
      vertex -13.619398 1.913417 10.500000
      vertex -9.000000 5.000000 10.500000
    endloop
  endfacet
  facet normal 0.000000 -0.000000 1.000000
    outer loop
      vertex -12.535534 3.535534 10.500000
      vertex -13.619398 1.913417 10.500000
      vertex -10.913417 4.619398 10.500000
    endloop
  endfacet
  facet normal -0.000000 -0.000000 1.000000
    outer loop
      vertex -9.406544 -2.305623 10.500000
      vertex -10.793456 -1.504889 10.500000
      vertex -9.000000 -5.000000 10.500000
    endloop
  endfacet
  facet normal -0.000000 -0.000000 1.000000
    outer loop
      vertex -11.341191 0.000000 10.500000
      vertex -13.619398 1.913417 10.500000
      vertex -10.793456 -1.504889 10.500000
    endloop
  endfacet
  facet normal 0.000000 -0.000000 1.000000
    outer loop
      vertex 10.913417 4.619398 10.500000
      vertex -9.406544 2.305623 10.500000
      vertex 12.535534 3.535534 10.500000
    endloop
  endfacet
  facet normal 0.000000 0.000000 1.000000
    outer loop
      vertex 10.913417 4.619398 10.500000
      vertex -13.619398 1.913417 10.500000
      vertex -9.406544 2.305623 10.500000
    endloop
  endfacet
  facet normal 0.000000 0.000000 1.000000
    outer loop
      vertex 10.170596 2.027531 10.500000
      vertex 11.200000 0.800735 10.500000
      vertex 13.619398 1.913417 10.500000
    endloop
  endfacet
  facet normal -0.000000 -0.000000 1.000000
    outer loop
      vertex 8.593456 -2.305623 10.500000
      vertex -6.800000 0.800735 10.500000
      vertex 12.535534 -3.535534 10.500000
    endloop
  endfacet
  facet normal 0.000000 -0.000000 1.000000
    outer loop
      vertex -7.829404 -2.027531 10.500000
      vertex -9.406544 -2.305623 10.500000
      vertex 9.000000 -5.000000 10.500000
    endloop
  endfacet
  facet normal 0.000000 0.000000 1.000000
    outer loop
      vertex 7.206544 -1.504889 10.500000
      vertex -7.829404 2.027531 10.500000
      vertex -6.800000 0.800735 10.500000
    endloop
  endfacet
  facet normal -0.000000 0.000000 1.000000
    outer loop
      vertex 9.000000 -5.000000 10.500000
      vertex -9.406544 -2.305623 10.500000
      vertex -9.000000 -5.000000 10.500000
    endloop
  endfacet
  facet normal 0.000000 -0.000000 1.000000
    outer loop
      vertex 10.170596 -2.027531 10.500000
      vertex 8.593456 -2.305623 10.500000
      vertex 12.535534 -3.535534 10.500000
    endloop
  endfacet
  facet normal 0.000000 0.000000 1.000000
    outer loop
      vertex 7.206544 1.504889 10.500000
      vertex 8.593456 2.305623 10.500000
      vertex -7.829404 2.027531 10.500000
    endloop
  endfacet
  facet normal 0.000000 -0.000000 1.000000
    outer loop
      vertex 11.200000 -0.800735 10.500000
      vertex 10.170596 -2.027531 10.500000
      vertex 13.619398 -1.913417 10.500000
    endloop
  endfacet
  facet normal 0.000000 -0.000000 1.000000
    outer loop
      vertex -6.800000 0.800735 10.500000
      vertex -6.800000 -0.800735 10.500000
      vertex 9.000000 -5.000000 10.500000
    endloop
  endfacet
  facet normal 0.000000 -0.000000 1.000000
    outer loop
      vertex 12.535534 3.535534 10.500000
      vertex 8.593456 2.305623 10.500000
      vertex 13.619398 1.913417 10.500000
    endloop
  endfacet
  facet normal 0.000000 0.000000 1.000000
    outer loop
      vertex 12.535534 3.535534 10.500000
      vertex -7.829404 2.027531 10.500000
      vertex 8.593456 2.305623 10.500000
    endloop
  endfacet
  facet normal 0.000000 0.000000 1.000000
    outer loop
      vertex 8.593456 2.305623 10.500000
      vertex 10.170596 2.027531 10.500000
      vertex 13.619398 1.913417 10.500000
    endloop
  endfacet
  facet normal 0.000000 -0.000000 1.000000
    outer loop
      vertex 13.619398 1.913417 10.500000
      vertex 11.200000 0.800735 10.500000
      vertex 14.000000 0.000000 10.500000
    endloop
  endfacet
  facet normal 0.000000 0.000000 1.000000
    outer loop
      vertex 14.000000 0.000000 10.500000
      vertex 11.200000 -0.800735 10.500000
      vertex 13.619398 -1.913417 10.500000
    endloop
  endfacet
  facet normal 0.000000 0.000000 1.000000
    outer loop
      vertex 13.619398 -1.913417 10.500000
      vertex 10.170596 -2.027531 10.500000
      vertex 12.535534 -3.535534 10.500000
    endloop
  endfacet
  facet normal -0.000000 -0.000000 1.000000
    outer loop
      vertex 7.206544 -1.504889 10.500000
      vertex -6.800000 0.800735 10.500000
      vertex 8.593456 -2.305623 10.500000
    endloop
  endfacet
  facet normal 0.000000 0.000000 1.000000
    outer loop
      vertex 7.206544 -1.504889 10.500000
      vertex 6.658809 0.000000 10.500000
      vertex -7.829404 2.027531 10.500000
    endloop
  endfacet
  facet normal 0.000000 -0.000000 1.000000
    outer loop
      vertex -6.800000 -0.800735 10.500000
      vertex -7.829404 -2.027531 10.500000
      vertex 9.000000 -5.000000 10.500000
    endloop
  endfacet
  facet normal 0.000000 0.000000 1.000000
    outer loop
      vertex -11.341191 0.000000 10.500000
      vertex -10.793456 1.504889 10.500000
      vertex -13.619398 1.913417 10.500000
    endloop
  endfacet
  facet normal 0.000000 0.000000 1.000000
    outer loop
      vertex -6.800000 0.800735 10.500000
      vertex 9.000000 -5.000000 10.500000
      vertex 10.913417 -4.619398 10.500000
    endloop
  endfacet
  facet normal 0.000000 0.000000 1.000000
    outer loop
      vertex -6.800000 0.800735 10.500000
      vertex 10.913417 -4.619398 10.500000
      vertex 12.535534 -3.535534 10.500000
    endloop
  endfacet
  facet normal 0.000000 0.000000 1.000000
    outer loop
      vertex -10.793456 1.504889 10.500000
      vertex -9.406544 2.305623 10.500000
      vertex -13.619398 1.913417 10.500000
    endloop
  endfacet
  facet normal 0.500000 0.000000 0.866025
    outer loop
      vertex -2.814583 -5.000000 3.625000
      vertex -0.000000 -5.000000 2.000000
      vertex -0.000000 -2.000000 2.000000
    endloop
  endfacet
  facet normal 0.500000 0.000000 0.866025
    outer loop
      vertex -2.814583 -2.000000 3.625000
      vertex -2.814583 -5.000000 3.625000
      vertex -0.000000 -2.000000 2.000000
    endloop
  endfacet
  facet normal 1.000000 0.000000 -0.000000
    outer loop
      vertex -2.814583 -2.000000 6.875000
      vertex -2.814583 -5.000000 6.875000
      vertex -2.814583 -5.000000 3.625000
    endloop
  endfacet
  facet normal 1.000000 -0.000000 -0.000000
    outer loop
      vertex -2.814583 -2.000000 3.625000
      vertex -2.814583 -2.000000 6.875000
      vertex -2.814583 -5.000000 3.625000
    endloop
  endfacet
  facet normal -0.500000 0.000000 0.866025
    outer loop
      vertex -0.000000 -5.000000 2.000000
      vertex 2.814583 -5.000000 3.625000
      vertex 2.814583 -2.000000 3.625000
    endloop
  endfacet
  facet normal -0.500000 0.000000 0.866025
    outer loop
      vertex -0.000000 -2.000000 2.000000
      vertex -0.000000 -5.000000 2.000000
      vertex 2.814583 -2.000000 3.625000
    endloop
  endfacet
  facet normal -1.000000 -0.000000 0.000000
    outer loop
      vertex 2.814583 -5.000000 6.875000
      vertex 2.814583 -2.000000 6.875000
      vertex 2.814583 -5.000000 3.625000
    endloop
  endfacet
  facet normal -1.000000 0.000000 0.000000
    outer loop
      vertex 2.814583 -5.000000 3.625000
      vertex 2.814583 -2.000000 6.875000
      vertex 2.814583 -2.000000 3.625000
    endloop
  endfacet
  facet normal -0.500000 -0.000000 -0.866025
    outer loop
      vertex 2.814583 -5.000000 6.875000
      vertex 0.000000 -5.000000 8.500000
      vertex 2.814583 -2.000000 6.875000
    endloop
  endfacet
  facet normal -0.500000 -0.000000 -0.866025
    outer loop
      vertex 2.814583 -2.000000 6.875000
      vertex 0.000000 -5.000000 8.500000
      vertex 0.000000 -2.000000 8.500000
    endloop
  endfacet
  facet normal 0.500000 0.000000 -0.866025
    outer loop
      vertex 0.000000 -5.000000 8.500000
      vertex -2.814583 -5.000000 6.875000
      vertex 0.000000 -2.000000 8.500000
    endloop
  endfacet
  facet normal 0.500000 0.000000 -0.866025
    outer loop
      vertex 0.000000 -2.000000 8.500000
      vertex -2.814583 -5.000000 6.875000
      vertex -2.814583 -2.000000 6.875000
    endloop
  endfacet
  facet normal 0.994522 0.000000 -0.104529
    outer loop
      vertex -1.750000 5.000000 5.250000
      vertex -1.711758 5.000000 5.613845
      vertex -1.711758 -2.000000 5.613845
    endloop
  endfacet
  facet normal 0.994522 -0.000000 -0.104529
    outer loop
      vertex -1.750000 -2.000000 5.250000
      vertex -1.750000 5.000000 5.250000
      vertex -1.711758 -2.000000 5.613845
    endloop
  endfacet
  facet normal 0.994522 0.000000 0.104529
    outer loop
      vertex -1.711758 -2.000000 4.886155
      vertex -1.711758 5.000000 4.886155
      vertex -1.750000 5.000000 5.250000
    endloop
  endfacet
  facet normal 0.994522 0.000000 0.104529
    outer loop
      vertex -1.750000 -2.000000 5.250000
      vertex -1.711758 -2.000000 4.886155
      vertex -1.750000 5.000000 5.250000
    endloop
  endfacet
  facet normal 0.951057 0.000000 -0.309015
    outer loop
      vertex -1.711758 5.000000 5.613845
      vertex -1.598705 5.000000 5.961789
      vertex -1.598705 -2.000000 5.961789
    endloop
  endfacet
  facet normal 0.951057 0.000000 -0.309015
    outer loop
      vertex -1.711758 -2.000000 5.613845
      vertex -1.711758 5.000000 5.613845
      vertex -1.598705 -2.000000 5.961789
    endloop
  endfacet
  facet normal 0.866025 -0.000000 -0.500000
    outer loop
      vertex -1.598705 5.000000 5.961789
      vertex -1.415780 5.000000 6.278624
      vertex -1.415780 -2.000000 6.278624
    endloop
  endfacet
  facet normal 0.866025 0.000000 -0.500000
    outer loop
      vertex -1.598705 -2.000000 5.961789
      vertex -1.598705 5.000000 5.961789
      vertex -1.415780 -2.000000 6.278624
    endloop
  endfacet
  facet normal 0.743145 -0.000000 -0.669131
    outer loop
      vertex -1.415780 5.000000 6.278624
      vertex -1.170979 5.000000 6.550503
      vertex -1.170979 -2.000000 6.550503
    endloop
  endfacet
  facet normal 0.743145 -0.000000 -0.669131
    outer loop
      vertex -1.415780 -2.000000 6.278624
      vertex -1.415780 5.000000 6.278624
      vertex -1.170979 -2.000000 6.550503
    endloop
  endfacet
  facet normal 0.587785 0.000000 -0.809017
    outer loop
      vertex -0.875000 5.000000 6.765544
      vertex -0.875000 -2.000000 6.765544
      vertex -1.170979 5.000000 6.550503
    endloop
  endfacet
  facet normal 0.587785 -0.000000 -0.809017
    outer loop
      vertex -1.170979 5.000000 6.550503
      vertex -0.875000 -2.000000 6.765544
      vertex -1.170979 -2.000000 6.550503
    endloop
  endfacet
  facet normal 0.406738 -0.000000 -0.913545
    outer loop
      vertex -0.540780 5.000000 6.914349
      vertex -0.540780 -2.000000 6.914349
      vertex -0.875000 5.000000 6.765544
    endloop
  endfacet
  facet normal 0.406738 0.000000 -0.913545
    outer loop
      vertex -0.875000 5.000000 6.765544
      vertex -0.540780 -2.000000 6.914349
      vertex -0.875000 -2.000000 6.765544
    endloop
  endfacet
  facet normal 0.207911 0.000000 -0.978148
    outer loop
      vertex -0.182925 5.000000 6.990413
      vertex -0.182925 -2.000000 6.990413
      vertex -0.540780 5.000000 6.914349
    endloop
  endfacet
  facet normal 0.207911 -0.000000 -0.978148
    outer loop
      vertex -0.540780 5.000000 6.914349
      vertex -0.182925 -2.000000 6.990413
      vertex -0.540780 -2.000000 6.914349
    endloop
  endfacet
  facet normal 0.000000 0.000000 -1.000000
    outer loop
      vertex 0.182925 5.000000 6.990413
      vertex 0.182925 -2.000000 6.990413
      vertex -0.182925 5.000000 6.990413
    endloop
  endfacet
  facet normal 0.000000 0.000000 -1.000000
    outer loop
      vertex -0.182925 5.000000 6.990413
      vertex 0.182925 -2.000000 6.990413
      vertex -0.182925 -2.000000 6.990413
    endloop
  endfacet
  facet normal -0.207911 -0.000000 -0.978148
    outer loop
      vertex 0.540780 5.000000 6.914349
      vertex 0.540780 -2.000000 6.914349
      vertex 0.182925 5.000000 6.990413
    endloop
  endfacet
  facet normal -0.207911 0.000000 -0.978148
    outer loop
      vertex 0.182925 5.000000 6.990413
      vertex 0.540780 -2.000000 6.914349
      vertex 0.182925 -2.000000 6.990413
    endloop
  endfacet
  facet normal -0.406738 0.000000 -0.913545
    outer loop
      vertex 0.875000 5.000000 6.765544
      vertex 0.875000 -2.000000 6.765544
      vertex 0.540780 5.000000 6.914349
    endloop
  endfacet
  facet normal -0.406738 -0.000000 -0.913545
    outer loop
      vertex 0.540780 5.000000 6.914349
      vertex 0.875000 -2.000000 6.765544
      vertex 0.540780 -2.000000 6.914349
    endloop
  endfacet
  facet normal -0.587785 -0.000000 -0.809017
    outer loop
      vertex 1.170979 5.000000 6.550503
      vertex 1.170979 -2.000000 6.550503
      vertex 0.875000 5.000000 6.765544
    endloop
  endfacet
  facet normal -0.587785 0.000000 -0.809017
    outer loop
      vertex 0.875000 5.000000 6.765544
      vertex 1.170979 -2.000000 6.550503
      vertex 0.875000 -2.000000 6.765544
    endloop
  endfacet
  facet normal -0.743145 -0.000000 -0.669131
    outer loop
      vertex 1.415780 5.000000 6.278624
      vertex 1.415780 -2.000000 6.278624
      vertex 1.170979 5.000000 6.550503
    endloop
  endfacet
  facet normal -0.743145 -0.000000 -0.669131
    outer loop
      vertex 1.170979 5.000000 6.550503
      vertex 1.415780 -2.000000 6.278624
      vertex 1.170979 -2.000000 6.550503
    endloop
  endfacet
  facet normal -0.866025 0.000000 -0.500000
    outer loop
      vertex 1.598705 5.000000 5.961789
      vertex 1.598705 -2.000000 5.961789
      vertex 1.415780 5.000000 6.278624
    endloop
  endfacet
  facet normal -0.866025 -0.000000 -0.500000
    outer loop
      vertex 1.415780 5.000000 6.278624
      vertex 1.598705 -2.000000 5.961789
      vertex 1.415780 -2.000000 6.278624
    endloop
  endfacet
  facet normal -0.951057 0.000000 -0.309015
    outer loop
      vertex 1.711758 5.000000 5.613845
      vertex 1.711758 -2.000000 5.613845
      vertex 1.598705 5.000000 5.961789
    endloop
  endfacet
  facet normal -0.951057 0.000000 -0.309015
    outer loop
      vertex 1.598705 5.000000 5.961789
      vertex 1.711758 -2.000000 5.613845
      vertex 1.598705 -2.000000 5.961789
    endloop
  endfacet
  facet normal -0.994522 -0.000000 -0.104529
    outer loop
      vertex 1.750000 5.000000 5.250000
      vertex 1.750000 -2.000000 5.250000
      vertex 1.711758 5.000000 5.613845
    endloop
  endfacet
  facet normal -0.994522 0.000000 -0.104529
    outer loop
      vertex 1.711758 5.000000 5.613845
      vertex 1.750000 -2.000000 5.250000
      vertex 1.711758 -2.000000 5.613845
    endloop
  endfacet
  facet normal -0.994522 0.000000 0.104529
    outer loop
      vertex 1.750000 5.000000 5.250000
      vertex 1.711758 5.000000 4.886155
      vertex 1.750000 -2.000000 5.250000
    endloop
  endfacet
  facet normal -0.994522 0.000000 0.104529
    outer loop
      vertex 1.750000 -2.000000 5.250000
      vertex 1.711758 5.000000 4.886155
      vertex 1.711758 -2.000000 4.886155
    endloop
  endfacet
  facet normal -0.951057 0.000000 0.309015
    outer loop
      vertex 1.711758 5.000000 4.886155
      vertex 1.598705 5.000000 4.538211
      vertex 1.711758 -2.000000 4.886155
    endloop
  endfacet
  facet normal -0.951057 0.000000 0.309015
    outer loop
      vertex 1.711758 -2.000000 4.886155
      vertex 1.598705 5.000000 4.538211
      vertex 1.598705 -2.000000 4.538211
    endloop
  endfacet
  facet normal -0.866025 0.000000 0.500000
    outer loop
      vertex 1.598705 5.000000 4.538211
      vertex 1.415780 5.000000 4.221376
      vertex 1.598705 -2.000000 4.538211
    endloop
  endfacet
  facet normal -0.866025 0.000000 0.500000
    outer loop
      vertex 1.598705 -2.000000 4.538211
      vertex 1.415780 5.000000 4.221376
      vertex 1.415780 -2.000000 4.221376
    endloop
  endfacet
  facet normal -0.743145 0.000000 0.669131
    outer loop
      vertex 1.415780 5.000000 4.221376
      vertex 1.170979 5.000000 3.949497
      vertex 1.415780 -2.000000 4.221376
    endloop
  endfacet
  facet normal -0.743145 0.000000 0.669131
    outer loop
      vertex 1.415780 -2.000000 4.221376
      vertex 1.170979 5.000000 3.949497
      vertex 1.170979 -2.000000 3.949497
    endloop
  endfacet
  facet normal -0.587785 0.000000 0.809017
    outer loop
      vertex 1.170979 -2.000000 3.949497
      vertex 1.170979 5.000000 3.949497
      vertex 0.875000 5.000000 3.734456
    endloop
  endfacet
  facet normal -0.587785 0.000000 0.809017
    outer loop
      vertex 0.875000 -2.000000 3.734456
      vertex 1.170979 -2.000000 3.949497
      vertex 0.875000 5.000000 3.734456
    endloop
  endfacet
  facet normal -0.406738 0.000000 0.913545
    outer loop
      vertex 0.875000 -2.000000 3.734456
      vertex 0.875000 5.000000 3.734456
      vertex 0.540780 5.000000 3.585651
    endloop
  endfacet
  facet normal -0.406738 0.000000 0.913545
    outer loop
      vertex 0.540780 -2.000000 3.585651
      vertex 0.875000 -2.000000 3.734456
      vertex 0.540780 5.000000 3.585651
    endloop
  endfacet
  facet normal -0.207911 0.000000 0.978148
    outer loop
      vertex 0.540780 -2.000000 3.585651
      vertex 0.540780 5.000000 3.585651
      vertex 0.182925 5.000000 3.509587
    endloop
  endfacet
  facet normal -0.207911 0.000000 0.978148
    outer loop
      vertex 0.182925 -2.000000 3.509587
      vertex 0.540780 -2.000000 3.585651
      vertex 0.182925 5.000000 3.509587
    endloop
  endfacet
  facet normal 0.000000 0.000000 1.000000
    outer loop
      vertex 0.182925 -2.000000 3.509587
      vertex 0.182925 5.000000 3.509587
      vertex -0.182925 5.000000 3.509587
    endloop
  endfacet
  facet normal 0.000000 0.000000 1.000000
    outer loop
      vertex -0.182925 -2.000000 3.509587
      vertex 0.182925 -2.000000 3.509587
      vertex -0.182925 5.000000 3.509587
    endloop
  endfacet
  facet normal 0.207911 0.000000 0.978148
    outer loop
      vertex -0.182925 -2.000000 3.509587
      vertex -0.182925 5.000000 3.509587
      vertex -0.540780 5.000000 3.585651
    endloop
  endfacet
  facet normal 0.207911 0.000000 0.978148
    outer loop
      vertex -0.540780 -2.000000 3.585651
      vertex -0.182925 -2.000000 3.509587
      vertex -0.540780 5.000000 3.585651
    endloop
  endfacet
  facet normal 0.406738 0.000000 0.913545
    outer loop
      vertex -0.540780 -2.000000 3.585651
      vertex -0.540780 5.000000 3.585651
      vertex -0.875000 5.000000 3.734456
    endloop
  endfacet
  facet normal 0.406738 0.000000 0.913545
    outer loop
      vertex -0.875000 -2.000000 3.734456
      vertex -0.540780 -2.000000 3.585651
      vertex -0.875000 5.000000 3.734456
    endloop
  endfacet
  facet normal 0.587785 0.000000 0.809017
    outer loop
      vertex -0.875000 -2.000000 3.734456
      vertex -0.875000 5.000000 3.734456
      vertex -1.170979 5.000000 3.949497
    endloop
  endfacet
  facet normal 0.587785 0.000000 0.809017
    outer loop
      vertex -1.170979 -2.000000 3.949497
      vertex -0.875000 -2.000000 3.734456
      vertex -1.170979 5.000000 3.949497
    endloop
  endfacet
  facet normal 0.743145 0.000000 0.669131
    outer loop
      vertex -1.170979 -2.000000 3.949497
      vertex -1.170979 5.000000 3.949497
      vertex -1.415780 5.000000 4.221376
    endloop
  endfacet
  facet normal 0.743145 0.000000 0.669131
    outer loop
      vertex -1.415780 -2.000000 4.221376
      vertex -1.170979 -2.000000 3.949497
      vertex -1.415780 5.000000 4.221376
    endloop
  endfacet
  facet normal 0.866025 0.000000 0.500000
    outer loop
      vertex -1.415780 -2.000000 4.221376
      vertex -1.415780 5.000000 4.221376
      vertex -1.598705 5.000000 4.538211
    endloop
  endfacet
  facet normal 0.866025 0.000000 0.500000
    outer loop
      vertex -1.598705 -2.000000 4.538211
      vertex -1.415780 -2.000000 4.221376
      vertex -1.598705 5.000000 4.538211
    endloop
  endfacet
  facet normal 0.951057 0.000000 0.309015
    outer loop
      vertex -1.598705 -2.000000 4.538211
      vertex -1.598705 5.000000 4.538211
      vertex -1.711758 5.000000 4.886155
    endloop
  endfacet
  facet normal 0.951057 0.000000 0.309015
    outer loop
      vertex -1.711758 -2.000000 4.886155
      vertex -1.598705 -2.000000 4.538211
      vertex -1.711758 5.000000 4.886155
    endloop
  endfacet
  facet normal -0.000000 -1.000000 0.000000
    outer loop
      vertex 1.711758 -2.000000 4.886155
      vertex 2.814583 -2.000000 3.625000
      vertex 2.814583 -2.000000 6.875000
    endloop
  endfacet
  facet normal -0.000000 -1.000000 0.000000
    outer loop
      vertex 1.750000 -2.000000 5.250000
      vertex 1.711758 -2.000000 4.886155
      vertex 2.814583 -2.000000 6.875000
    endloop
  endfacet
  facet normal 0.000000 -1.000000 0.000000
    outer loop
      vertex 1.415780 -2.000000 4.221376
      vertex 1.170979 -2.000000 3.949497
      vertex -0.000000 -2.000000 2.000000
    endloop
  endfacet
  facet normal 0.000000 -1.000000 0.000000
    outer loop
      vertex -1.415780 -2.000000 6.278624
      vertex -1.170979 -2.000000 6.550503
      vertex 0.000000 -2.000000 8.500000
    endloop
  endfacet
  facet normal -0.000000 -1.000000 0.000000
    outer loop
      vertex -0.182925 -2.000000 6.990413
      vertex 0.182925 -2.000000 6.990413
      vertex 0.000000 -2.000000 8.500000
    endloop
  endfacet
  facet normal 0.000000 -1.000000 0.000000
    outer loop
      vertex 1.170979 -2.000000 3.949497
      vertex 0.875000 -2.000000 3.734456
      vertex -0.000000 -2.000000 2.000000
    endloop
  endfacet
  facet normal 0.000000 -1.000000 0.000000
    outer loop
      vertex -2.814583 -2.000000 6.875000
      vertex -1.750000 -2.000000 5.250000
      vertex -1.711758 -2.000000 5.613845
    endloop
  endfacet
  facet normal 0.000000 -1.000000 0.000000
    outer loop
      vertex -2.814583 -2.000000 6.875000
      vertex -1.711758 -2.000000 5.613845
      vertex -1.598705 -2.000000 5.961789
    endloop
  endfacet
  facet normal 0.000000 -1.000000 -0.000000
    outer loop
      vertex -2.814583 -2.000000 6.875000
      vertex -1.415780 -2.000000 6.278624
      vertex 0.000000 -2.000000 8.500000
    endloop
  endfacet
  facet normal 0.000000 -1.000000 0.000000
    outer loop
      vertex -2.814583 -2.000000 6.875000
      vertex -1.598705 -2.000000 5.961789
      vertex -1.415780 -2.000000 6.278624
    endloop
  endfacet
  facet normal 0.000000 -1.000000 0.000000
    outer loop
      vertex -0.875000 -2.000000 6.765544
      vertex -0.540780 -2.000000 6.914349
      vertex 0.000000 -2.000000 8.500000
    endloop
  endfacet
  facet normal 0.000000 -1.000000 0.000000
    outer loop
      vertex -0.540780 -2.000000 6.914349
      vertex -0.182925 -2.000000 6.990413
      vertex 0.000000 -2.000000 8.500000
    endloop
  endfacet
  facet normal 0.000000 -1.000000 0.000000
    outer loop
      vertex -0.182925 -2.000000 3.509587
      vertex -0.540780 -2.000000 3.585651
      vertex -0.000000 -2.000000 2.000000
    endloop
  endfacet
  facet normal 0.000000 -1.000000 0.000000
    outer loop
      vertex 0.000000 -2.000000 8.500000
      vertex 0.182925 -2.000000 6.990413
      vertex 2.814583 -2.000000 6.875000
    endloop
  endfacet
  facet normal 0.000000 -1.000000 0.000000
    outer loop
      vertex 0.182925 -2.000000 6.990413
      vertex 0.540780 -2.000000 6.914349
      vertex 2.814583 -2.000000 6.875000
    endloop
  endfacet
  facet normal 0.000000 -1.000000 0.000000
    outer loop
      vertex 0.540780 -2.000000 6.914349
      vertex 0.875000 -2.000000 6.765544
      vertex 2.814583 -2.000000 6.875000
    endloop
  endfacet
  facet normal -0.000000 -1.000000 0.000000
    outer loop
      vertex 0.875000 -2.000000 6.765544
      vertex 1.170979 -2.000000 6.550503
      vertex 2.814583 -2.000000 6.875000
    endloop
  endfacet
  facet normal -0.000000 -1.000000 0.000000
    outer loop
      vertex 1.170979 -2.000000 6.550503
      vertex 1.415780 -2.000000 6.278624
      vertex 2.814583 -2.000000 6.875000
    endloop
  endfacet
  facet normal -0.000000 -1.000000 0.000000
    outer loop
      vertex 1.415780 -2.000000 6.278624
      vertex 1.598705 -2.000000 5.961789
      vertex 2.814583 -2.000000 6.875000
    endloop
  endfacet
  facet normal -0.000000 -1.000000 0.000000
    outer loop
      vertex 1.598705 -2.000000 5.961789
      vertex 1.711758 -2.000000 5.613845
      vertex 2.814583 -2.000000 6.875000
    endloop
  endfacet
  facet normal -0.000000 -1.000000 0.000000
    outer loop
      vertex 1.711758 -2.000000 5.613845
      vertex 1.750000 -2.000000 5.250000
      vertex 2.814583 -2.000000 6.875000
    endloop
  endfacet
  facet normal -0.000000 -1.000000 0.000000
    outer loop
      vertex 1.598705 -2.000000 4.538211
      vertex 2.814583 -2.000000 3.625000
      vertex 1.711758 -2.000000 4.886155
    endloop
  endfacet
  facet normal 0.000000 -1.000000 0.000000
    outer loop
      vertex 1.415780 -2.000000 4.221376
      vertex 2.814583 -2.000000 3.625000
      vertex 1.598705 -2.000000 4.538211
    endloop
  endfacet
  facet normal 0.000000 -1.000000 0.000000
    outer loop
      vertex -0.000000 -2.000000 2.000000
      vertex 2.814583 -2.000000 3.625000
      vertex 1.415780 -2.000000 4.221376
    endloop
  endfacet
  facet normal 0.000000 -1.000000 0.000000
    outer loop
      vertex 0.875000 -2.000000 3.734456
      vertex 0.540780 -2.000000 3.585651
      vertex -0.000000 -2.000000 2.000000
    endloop
  endfacet
  facet normal 0.000000 -1.000000 0.000000
    outer loop
      vertex -0.875000 -2.000000 3.734456
      vertex -1.170979 -2.000000 3.949497
      vertex -0.000000 -2.000000 2.000000
    endloop
  endfacet
  facet normal 0.000000 -1.000000 0.000000
    outer loop
      vertex -0.875000 -2.000000 3.734456
      vertex -0.000000 -2.000000 2.000000
      vertex -0.540780 -2.000000 3.585651
    endloop
  endfacet
  facet normal 0.000000 -1.000000 0.000000
    outer loop
      vertex -1.598705 -2.000000 4.538211
      vertex -1.711758 -2.000000 4.886155
      vertex -2.814583 -2.000000 6.875000
    endloop
  endfacet
  facet normal 0.000000 -1.000000 0.000000
    outer loop
      vertex -1.170979 -2.000000 6.550503
      vertex -0.875000 -2.000000 6.765544
      vertex 0.000000 -2.000000 8.500000
    endloop
  endfacet
  facet normal -0.000000 -1.000000 0.000000
    outer loop
      vertex -2.814583 -2.000000 3.625000
      vertex -0.000000 -2.000000 2.000000
      vertex -1.170979 -2.000000 3.949497
    endloop
  endfacet
  facet normal 0.000000 -1.000000 0.000000
    outer loop
      vertex -2.814583 -2.000000 3.625000
      vertex -1.170979 -2.000000 3.949497
      vertex -1.415780 -2.000000 4.221376
    endloop
  endfacet
  facet normal 0.000000 -1.000000 0.000000
    outer loop
      vertex -2.814583 -2.000000 3.625000
      vertex -1.598705 -2.000000 4.538211
      vertex -2.814583 -2.000000 6.875000
    endloop
  endfacet
  facet normal 0.000000 -1.000000 0.000000
    outer loop
      vertex -2.814583 -2.000000 3.625000
      vertex -1.415780 -2.000000 4.221376
      vertex -1.598705 -2.000000 4.538211
    endloop
  endfacet
  facet normal 0.000000 -1.000000 0.000000
    outer loop
      vertex -1.711758 -2.000000 4.886155
      vertex -1.750000 -2.000000 5.250000
      vertex -2.814583 -2.000000 6.875000
    endloop
  endfacet
  facet normal 0.000000 -1.000000 0.000000
    outer loop
      vertex 0.540780 -2.000000 3.585651
      vertex 0.182925 -2.000000 3.509587
      vertex -0.000000 -2.000000 2.000000
    endloop
  endfacet
  facet normal 0.000000 -1.000000 0.000000
    outer loop
      vertex 0.182925 -2.000000 3.509587
      vertex -0.182925 -2.000000 3.509587
      vertex -0.000000 -2.000000 2.000000
    endloop
  endfacet
endsolid OpenSCAD_Model
