solid OpenSCAD_Model
  facet normal 0 0 -1
    outer loop
      vertex -7 0 0
      vertex -3.5 6.06218 0
      vertex -3.5 -6.06218 0
    endloop
  endfacet
  facet normal 0 0 -1
    outer loop
      vertex -0.494427 1.52169 0
      vertex -3.5 6.06218 0
      vertex 3.5 6.06218 0
    endloop
  endfacet
  facet normal 0 0 -1
    outer loop
      vertex 1.52169 -0.494427 0
      vertex 3.5 6.06218 0
      vertex 7 0 0
    endloop
  endfacet
  facet normal 0 0 -1
    outer loop
      vertex -3.5 -6.06218 0
      vertex 7 0 0
      vertex 3.5 -6.06218 0
    endloop
  endfacet
  facet normal 0 0 -1
    outer loop
      vertex -3.5 -6.06218 0
      vertex -3.5 6.06218 0
      vertex -1.6 0 0
    endloop
  endfacet
  facet normal 0 0 -1
    outer loop
      vertex -3.5 -6.06218 0
      vertex -1.6 0 0
      vertex -1.52169 -0.494427 0
    endloop
  endfacet
  facet normal 0 0 -1
    outer loop
      vertex -3.5 -6.06218 0
      vertex -1.52169 -0.494427 0
      vertex -1.29443 -0.940456 0
    endloop
  endfacet
  facet normal 0 0 -1
    outer loop
      vertex -3.5 -6.06218 0
      vertex -1.29443 -0.940456 0
      vertex -0.940456 -1.29443 0
    endloop
  endfacet
  facet normal 0 0 -1
    outer loop
      vertex 0.494427 1.52169 0
      vertex 3.5 6.06218 0
      vertex 0.940456 1.29443 0
    endloop
  endfacet
  facet normal 0 0 -1
    outer loop
      vertex -3.5 -6.06218 0
      vertex -0.494427 -1.52169 0
      vertex 0 -1.6 0
    endloop
  endfacet
  facet normal 0 0 -1
    outer loop
      vertex -3.5 -6.06218 0
      vertex 0 -1.6 0
      vertex 0.494427 -1.52169 0
    endloop
  endfacet
  facet normal 0 0 -1
    outer loop
      vertex -3.5 -6.06218 0
      vertex 0.494427 -1.52169 0
      vertex 7 0 0
    endloop
  endfacet
  facet normal 0 0 -1
    outer loop
      vertex 1.29443 -0.940456 0
      vertex 7 0 0
      vertex 0.940456 -1.29443 0
    endloop
  endfacet
  facet normal 0 0 -1
    outer loop
      vertex 0.940456 1.29443 0
      vertex 3.5 6.06218 0
      vertex 1.29443 0.940456 0
    endloop
  endfacet
  facet normal 0 0 -1
    outer loop
      vertex 1.52169 0.494427 0
      vertex 3.5 6.06218 0
      vertex 1.6 0 0
    endloop
  endfacet
  facet normal 0 0 -1
    outer loop
      vertex 1.6 0 0
      vertex 3.5 6.06218 0
      vertex 1.52169 -0.494427 0
    endloop
  endfacet
  facet normal 0 0 -1
    outer loop
      vertex 1.29443 -0.940456 0
      vertex 1.52169 -0.494427 0
      vertex 7 0 0
    endloop
  endfacet
  facet normal 0 0 -1
    outer loop
      vertex 1.29443 0.940456 0
      vertex 3.5 6.06218 0
      vertex 1.52169 0.494427 0
    endloop
  endfacet
  facet normal 0 0 -1
    outer loop
      vertex 0.940456 -1.29443 0
      vertex 7 0 0
      vertex 0.494427 -1.52169 0
    endloop
  endfacet
  facet normal 0 0 -1
    outer loop
      vertex 0 1.6 0
      vertex 3.5 6.06218 0
      vertex 0.494427 1.52169 0
    endloop
  endfacet
  facet normal 0 0 -1
    outer loop
      vertex -0.494427 1.52169 0
      vertex 3.5 6.06218 0
      vertex 0 1.6 0
    endloop
  endfacet
  facet normal 0 0 -1
    outer loop
      vertex -0.940456 1.29443 0
      vertex -3.5 6.06218 0
      vertex -0.494427 1.52169 0
    endloop
  endfacet
  facet normal 0 0 -1
    outer loop
      vertex -1.29443 0.940456 0
      vertex -3.5 6.06218 0
      vertex -0.940456 1.29443 0
    endloop
  endfacet
  facet normal 0 0 -1
    outer loop
      vertex -1.52169 0.494427 0
      vertex -3.5 6.06218 0
      vertex -1.29443 0.940456 0
    endloop
  endfacet
  facet normal 0 0 -1
    outer loop
      vertex -1.6 0 0
      vertex -3.5 6.06218 0
      vertex -1.52169 0.494427 0
    endloop
  endfacet
  facet normal 0 0 -1
    outer loop
      vertex -0.494427 -1.52169 0
      vertex -3.5 -6.06218 0
      vertex -0.940456 -1.29443 0
    endloop
  endfacet
  facet normal -0.866025 0.5 0
    outer loop
      vertex -7 0 0
      vertex -7 0 14
      vertex -3.5 6.06218 0
    endloop
  endfacet
  facet normal -0.866025 0.5 0
    outer loop
      vertex -3.5 6.06218 0
      vertex -7 0 14
      vertex -3.5 6.06218 14
    endloop
  endfacet
  facet normal -0.866025 -0.5 0
    outer loop
      vertex -7 0 0
      vertex -3.5 -6.06218 0
      vertex -7 0 14
    endloop
  endfacet
  facet normal -0.866025 -0.5 0
    outer loop
      vertex -7 0 14
      vertex -3.5 -6.06218 0
      vertex -3.5 -6.06218 14
    endloop
  endfacet
  facet normal 0 -1 0
    outer loop
      vertex -3.5 -6.06218 14
      vertex -3.5 -6.06218 0
      vertex 3.5 -6.06218 0
    endloop
  endfacet
  facet normal 0 -1 0
    outer loop
      vertex 3.5 -6.06218 14
      vertex -3.5 -6.06218 14
      vertex 3.5 -6.06218 0
    endloop
  endfacet
  facet normal 0.866025 -0.5 0
    outer loop
      vertex 3.5 -6.06218 14
      vertex 3.5 -6.06218 0
      vertex 7 0 0
    endloop
  endfacet
  facet normal 0.866025 -0.5 0
    outer loop
      vertex 7 0 14
      vertex 3.5 -6.06218 14
      vertex 7 0 0
    endloop
  endfacet
  facet normal 0.866025 0.5 0
    outer loop
      vertex 7 0 0
      vertex 3.5 6.06218 0
      vertex 3.5 6.06218 14
    endloop
  endfacet
  facet normal 0.866025 0.5 0
    outer loop
      vertex 7 0 14
      vertex 7 0 0
      vertex 3.5 6.06218 14
    endloop
  endfacet
  facet normal 0 1 0
    outer loop
      vertex -3.5 6.06218 0
      vertex -3.5 6.06218 14
      vertex 3.5 6.06218 0
    endloop
  endfacet
  facet normal 0 1 0
    outer loop
      vertex 3.5 6.06218 0
      vertex -3.5 6.06218 14
      vertex 3.5 6.06218 14
    endloop
  endfacet
  facet normal 0.987688 0.156435 0
    outer loop
      vertex -1.6 0 14
      vertex -1.52169 -0.494427 14
      vertex -1.52169 -0.494427 0
    endloop
  endfacet
  facet normal 0.987688 0.156435 0
    outer loop
      vertex -1.6 0 0
      vertex -1.6 0 14
      vertex -1.52169 -0.494427 0
    endloop
  endfacet
  facet normal 0.987688 -0.156435 0
    outer loop
      vertex -1.52169 0.494427 0
      vertex -1.52169 0.494427 14
      vertex -1.6 0 14
    endloop
  endfacet
  facet normal 0.987688 -0.156435 0
    outer loop
      vertex -1.6 0 0
      vertex -1.52169 0.494427 0
      vertex -1.6 0 14
    endloop
  endfacet
  facet normal 0.891007 -0.45399 0
    outer loop
      vertex -1.29443 0.940456 0
      vertex -1.29443 0.940456 14
      vertex -1.52169 0.494427 14
    endloop
  endfacet
  facet normal 0.891007 -0.45399 0
    outer loop
      vertex -1.52169 0.494427 0
      vertex -1.29443 0.940456 0
      vertex -1.52169 0.494427 14
    endloop
  endfacet
  facet normal 0.707107 -0.707107 0
    outer loop
      vertex -0.940456 1.29443 0
      vertex -0.940456 1.29443 14
      vertex -1.29443 0.940456 14
    endloop
  endfacet
  facet normal 0.707107 -0.707107 0
    outer loop
      vertex -1.29443 0.940456 0
      vertex -0.940456 1.29443 0
      vertex -1.29443 0.940456 14
    endloop
  endfacet
  facet normal 0.45399 -0.891007 0
    outer loop
      vertex -0.494427 1.52169 0
      vertex -0.494427 1.52169 14
      vertex -0.940456 1.29443 14
    endloop
  endfacet
  facet normal 0.45399 -0.891007 0
    outer loop
      vertex -0.940456 1.29443 0
      vertex -0.494427 1.52169 0
      vertex -0.940456 1.29443 14
    endloop
  endfacet
  facet normal 0.156435 -0.987688 0
    outer loop
      vertex 0 1.6 0
      vertex 0 1.6 14
      vertex -0.494427 1.52169 14
    endloop
  endfacet
  facet normal 0.156435 -0.987688 0
    outer loop
      vertex -0.494427 1.52169 0
      vertex 0 1.6 0
      vertex -0.494427 1.52169 14
    endloop
  endfacet
  facet normal -0.156435 -0.987688 0
    outer loop
      vertex 0.494427 1.52169 0
      vertex 0.494427 1.52169 14
      vertex 0 1.6 14
    endloop
  endfacet
  facet normal -0.156435 -0.987688 0
    outer loop
      vertex 0 1.6 0
      vertex 0.494427 1.52169 0
      vertex 0 1.6 14
    endloop
  endfacet
  facet normal -0.45399 -0.891007 0
    outer loop
      vertex 0.940456 1.29443 0
      vertex 0.940456 1.29443 14
      vertex 0.494427 1.52169 14
    endloop
  endfacet
  facet normal -0.45399 -0.891007 0
    outer loop
      vertex 0.494427 1.52169 0
      vertex 0.940456 1.29443 0
      vertex 0.494427 1.52169 14
    endloop
  endfacet
  facet normal -0.707107 -0.707107 0
    outer loop
      vertex 1.29443 0.940456 0
      vertex 1.29443 0.940456 14
      vertex 0.940456 1.29443 14
    endloop
  endfacet
  facet normal -0.707107 -0.707107 0
    outer loop
      vertex 0.940456 1.29443 0
      vertex 1.29443 0.940456 0
      vertex 0.940456 1.29443 14
    endloop
  endfacet
  facet normal -0.891007 -0.45399 0
    outer loop
      vertex 1.52169 0.494427 14
      vertex 1.29443 0.940456 14
      vertex 1.52169 0.494427 0
    endloop
  endfacet
  facet normal -0.891007 -0.45399 0
    outer loop
      vertex 1.52169 0.494427 0
      vertex 1.29443 0.940456 14
      vertex 1.29443 0.940456 0
    endloop
  endfacet
  facet normal -0.987688 -0.156435 0
    outer loop
      vertex 1.6 0 14
      vertex 1.52169 0.494427 14
      vertex 1.6 0 0
    endloop
  endfacet
  facet normal -0.987688 -0.156435 0
    outer loop
      vertex 1.6 0 0
      vertex 1.52169 0.494427 14
      vertex 1.52169 0.494427 0
    endloop
  endfacet
  facet normal -0.987688 0.156435 0
    outer loop
      vertex 1.6 0 14
      vertex 1.6 0 0
      vertex 1.52169 -0.494427 14
    endloop
  endfacet
  facet normal -0.987688 0.156435 0
    outer loop
      vertex 1.52169 -0.494427 14
      vertex 1.6 0 0
      vertex 1.52169 -0.494427 0
    endloop
  endfacet
  facet normal -0.891007 0.45399 0
    outer loop
      vertex 1.52169 -0.494427 14
      vertex 1.52169 -0.494427 0
      vertex 1.29443 -0.940456 14
    endloop
  endfacet
  facet normal -0.891007 0.45399 0
    outer loop
      vertex 1.29443 -0.940456 14
      vertex 1.52169 -0.494427 0
      vertex 1.29443 -0.940456 0
    endloop
  endfacet
  facet normal -0.707107 0.707107 0
    outer loop
      vertex 1.29443 -0.940456 14
      vertex 1.29443 -0.940456 0
      vertex 0.940456 -1.29443 14
    endloop
  endfacet
  facet normal -0.707107 0.707107 0
    outer loop
      vertex 0.940456 -1.29443 14
      vertex 1.29443 -0.940456 0
      vertex 0.940456 -1.29443 0
    endloop
  endfacet
  facet normal -0.45399 0.891007 0
    outer loop
      vertex 0.940456 -1.29443 14
      vertex 0.940456 -1.29443 0
      vertex 0.494427 -1.52169 14
    endloop
  endfacet
  facet normal -0.45399 0.891007 0
    outer loop
      vertex 0.494427 -1.52169 14
      vertex 0.940456 -1.29443 0
      vertex 0.494427 -1.52169 0
    endloop
  endfacet
  facet normal -0.156435 0.987688 0
    outer loop
      vertex 0.494427 -1.52169 14
      vertex 0.494427 -1.52169 0
      vertex 0 -1.6 14
    endloop
  endfacet
  facet normal -0.156435 0.987688 0
    outer loop
      vertex 0 -1.6 14
      vertex 0.494427 -1.52169 0
      vertex 0 -1.6 0
    endloop
  endfacet
  facet normal 0.156435 0.987688 0
    outer loop
      vertex 0 -1.6 14
      vertex 0 -1.6 0
      vertex -0.494427 -1.52169 14
    endloop
  endfacet
  facet normal 0.156435 0.987688 0
    outer loop
      vertex -0.494427 -1.52169 14
      vertex 0 -1.6 0
      vertex -0.494427 -1.52169 0
    endloop
  endfacet
  facet normal 0.45399 0.891007 0
    outer loop
      vertex -0.494427 -1.52169 14
      vertex -0.494427 -1.52169 0
      vertex -0.940456 -1.29443 14
    endloop
  endfacet
  facet normal 0.45399 0.891007 0
    outer loop
      vertex -0.940456 -1.29443 14
      vertex -0.494427 -1.52169 0
      vertex -0.940456 -1.29443 0
    endloop
  endfacet
  facet normal 0.707107 0.707107 0
    outer loop
      vertex -0.940456 -1.29443 14
      vertex -0.940456 -1.29443 0
      vertex -1.29443 -0.940456 14
    endloop
  endfacet
  facet normal 0.707107 0.707107 0
    outer loop
      vertex -1.29443 -0.940456 14
      vertex -0.940456 -1.29443 0
      vertex -1.29443 -0.940456 0
    endloop
  endfacet
  facet normal 0.891007 0.45399 0
    outer loop
      vertex -1.52169 -0.494427 14
      vertex -1.29443 -0.940456 14
      vertex -1.29443 -0.940456 0
    endloop
  endfacet
  facet normal 0.891007 0.45399 0
    outer loop
      vertex -1.52169 -0.494427 0
      vertex -1.52169 -0.494427 14
      vertex -1.29443 -0.940456 0
    endloop
  endfacet
  facet normal 0 0 1
    outer loop
      vertex -3.5 6.06218 14
      vertex -7 0 14
      vertex -3.5 -6.06218 14
    endloop
  endfacet
  facet normal 0 0 1
    outer loop
      vertex 0.494427 1.52169 14
      vertex 0.940456 1.29443 14
      vertex 7 0 14
    endloop
  endfacet
  facet normal 0 0 1
    outer loop
      vertex -1.52169 -0.494427 14
      vertex -3.5 6.06218 14
      vertex -3.5 -6.06218 14
    endloop
  endfacet
  facet normal 0 0 1
    outer loop
      vertex 3.5 6.06218 14
      vertex -3.5 6.06218 14
      vertex 7 0 14
    endloop
  endfacet
  facet normal 0 0 1
    outer loop
      vertex -1.29443 -0.940456 14
      vertex -1.52169 -0.494427 14
      vertex -3.5 -6.06218 14
    endloop
  endfacet
  facet normal 0 0 1
    outer loop
      vertex -1.6 0 14
      vertex -3.5 6.06218 14
      vertex -1.52169 -0.494427 14
    endloop
  endfacet
  facet normal 0 0 1
    outer loop
      vertex -1.52169 0.494427 14
      vertex -3.5 6.06218 14
      vertex -1.6 0 14
    endloop
  endfacet
  facet normal 0 0 1
    outer loop
      vertex -1.29443 0.940456 14
      vertex -3.5 6.06218 14
      vertex -1.52169 0.494427 14
    endloop
  endfacet
  facet normal 0 0 1
    outer loop
      vertex 0 -1.6 14
      vertex -0.494427 -1.52169 14
      vertex 3.5 -6.06218 14
    endloop
  endfacet
  facet normal 0 0 1
    outer loop
      vertex -0.940456 1.29443 14
      vertex -3.5 6.06218 14
      vertex -1.29443 0.940456 14
    endloop
  endfacet
  facet normal 0 0 1
    outer loop
      vertex 0.494427 -1.52169 14
      vertex 0 -1.6 14
      vertex 3.5 -6.06218 14
    endloop
  endfacet
  facet normal 0 0 1
    outer loop
      vertex 0.940456 -1.29443 14
      vertex 0.494427 -1.52169 14
      vertex 3.5 -6.06218 14
    endloop
  endfacet
  facet normal 0 0 1
    outer loop
      vertex 0 1.6 14
      vertex -3.5 6.06218 14
      vertex -0.494427 1.52169 14
    endloop
  endfacet
  facet normal 0 0 1
    outer loop
      vertex 0.494427 1.52169 14
      vertex -3.5 6.06218 14
      vertex 0 1.6 14
    endloop
  endfacet
  facet normal 0 0 1
    outer loop
      vertex 0.940456 1.29443 14
      vertex 1.29443 0.940456 14
      vertex 7 0 14
    endloop
  endfacet
  facet normal 0 0 1
    outer loop
      vertex 7 0 14
      vertex -3.5 6.06218 14
      vertex 0.494427 1.52169 14
    endloop
  endfacet
  facet normal 0 0 1
    outer loop
      vertex 1.6 0 14
      vertex 1.52169 -0.494427 14
      vertex 3.5 -6.06218 14
    endloop
  endfacet
  facet normal 0 0 1
    outer loop
      vertex 1.29443 -0.940456 14
      vertex 0.940456 -1.29443 14
      vertex 3.5 -6.06218 14
    endloop
  endfacet
  facet normal 0 0 1
    outer loop
      vertex 7 0 14
      vertex 1.52169 0.494427 14
      vertex 3.5 -6.06218 14
    endloop
  endfacet
  facet normal 0 0 1
    outer loop
      vertex 7 0 14
      vertex 1.29443 0.940456 14
      vertex 1.52169 0.494427 14
    endloop
  endfacet
  facet normal 0 0 1
    outer loop
      vertex 1.52169 0.494427 14
      vertex 1.6 0 14
      vertex 3.5 -6.06218 14
    endloop
  endfacet
  facet normal 0 0 1
    outer loop
      vertex 1.52169 -0.494427 14
      vertex 1.29443 -0.940456 14
      vertex 3.5 -6.06218 14
    endloop
  endfacet
  facet normal 0 0 1
    outer loop
      vertex -0.494427 -1.52169 14
      vertex -0.940456 -1.29443 14
      vertex 3.5 -6.06218 14
    endloop
  endfacet
  facet normal 0 0 1
    outer loop
      vertex 3.5 -6.06218 14
      vertex -0.940456 -1.29443 14
      vertex -3.5 -6.06218 14
    endloop
  endfacet
  facet normal 0 0 1
    outer loop
      vertex -0.940456 -1.29443 14
      vertex -1.29443 -0.940456 14
      vertex -3.5 -6.06218 14
    endloop
  endfacet
  facet normal 0 0 1
    outer loop
      vertex -0.940456 1.29443 14
      vertex -0.494427 1.52169 14
      vertex -3.5 6.06218 14
    endloop
  endfacet
endsolid OpenSCAD_Model
