solid OpenSCAD_Model
  facet normal -0.000000 -0.000000 -1.000000
    outer loop
      vertex -35.300000 -7.500000 -5.000000
      vertex -35.300000 -3.500000 -5.000000
      vertex 15.500000 -7.500000 -5.000000
    endloop
  endfacet
  facet normal 0.000000 0.000000 -1.000000
    outer loop
      vertex 15.500000 -7.500000 -5.000000
      vertex -35.300000 -3.500000 -5.000000
      vertex -6.530475 -3.500000 -5.000000
    endloop
  endfacet
  facet normal 0.000000 0.000000 -1.000000
    outer loop
      vertex -2.100000 -3.637307 -5.000000
      vertex -6.530475 -3.500000 -5.000000
      vertex -7.132924 -2.317627 -5.000000
    endloop
  endfacet
  facet normal 0.000000 0.000000 -1.000000
    outer loop
      vertex -3.946709 -1.436485 -5.000000
      vertex -7.132924 -2.317627 -5.000000
      vertex -7.500000 0.000000 -5.000000
    endloop
  endfacet
  facet normal 0.000000 0.000000 -1.000000
    outer loop
      vertex -4.200000 0.000000 -5.000000
      vertex -7.500000 0.000000 -5.000000
      vertex -7.132924 2.317627 -5.000000
    endloop
  endfacet
  facet normal 0.000000 0.000000 -1.000000
    outer loop
      vertex -3.217387 2.699708 -5.000000
      vertex -7.132924 2.317627 -5.000000
      vertex -6.067627 4.408389 -5.000000
    endloop
  endfacet
  facet normal 0.000000 0.000000 -1.000000
    outer loop
      vertex -2.100000 3.637307 -5.000000
      vertex -6.067627 4.408389 -5.000000
      vertex -4.408389 6.067627 -5.000000
    endloop
  endfacet
  facet normal 0.000000 0.000000 -1.000000
    outer loop
      vertex 0.729322 4.136193 -5.000000
      vertex -4.408389 6.067627 -5.000000
      vertex -2.317627 7.132924 -5.000000
    endloop
  endfacet
  facet normal 0.000000 0.000000 -1.000000
    outer loop
      vertex 2.100000 3.637307 -5.000000
      vertex -2.317627 7.132924 -5.000000
      vertex 0.000000 7.500000 -5.000000
    endloop
  endfacet
  facet normal 0.000000 0.000000 -1.000000
    outer loop
      vertex 15.500000 3.450000 -5.000000
      vertex 0.000000 7.500000 -5.000000
      vertex 15.500000 7.500000 -5.000000
    endloop
  endfacet
  facet normal -0.000000 -0.000000 -1.000000
    outer loop
      vertex 0.729322 4.136193 -5.000000
      vertex -2.317627 7.132924 -5.000000
      vertex 2.100000 3.637307 -5.000000
    endloop
  endfacet
  facet normal 0.000000 0.000000 -1.000000
    outer loop
      vertex 2.323224 3.450000 -5.000000
      vertex 2.100000 3.637307 -5.000000
      vertex 0.000000 7.500000 -5.000000
    endloop
  endfacet
  facet normal -0.000000 -0.000000 -1.000000
    outer loop
      vertex -0.729322 4.136193 -5.000000
      vertex -4.408389 6.067627 -5.000000
      vertex 0.729322 4.136193 -5.000000
    endloop
  endfacet
  facet normal 0.000000 -0.000000 -1.000000
    outer loop
      vertex -2.100000 3.637307 -5.000000
      vertex -4.408389 6.067627 -5.000000
      vertex -0.729322 4.136193 -5.000000
    endloop
  endfacet
  facet normal 0.000000 -0.000000 -1.000000
    outer loop
      vertex -3.217387 2.699708 -5.000000
      vertex -6.067627 4.408389 -5.000000
      vertex -2.100000 3.637307 -5.000000
    endloop
  endfacet
  facet normal 0.000000 -0.000000 -1.000000
    outer loop
      vertex -3.946709 1.436485 -5.000000
      vertex -7.132924 2.317627 -5.000000
      vertex -3.217387 2.699708 -5.000000
    endloop
  endfacet
  facet normal 0.000000 -0.000000 -1.000000
    outer loop
      vertex -4.200000 0.000000 -5.000000
      vertex -7.132924 2.317627 -5.000000
      vertex -3.946709 1.436485 -5.000000
    endloop
  endfacet
  facet normal 0.000000 0.000000 -1.000000
    outer loop
      vertex -3.946709 -1.436485 -5.000000
      vertex -7.500000 0.000000 -5.000000
      vertex -4.200000 0.000000 -5.000000
    endloop
  endfacet
  facet normal 0.000000 0.000000 -1.000000
    outer loop
      vertex -3.217387 -2.699708 -5.000000
      vertex -7.132924 -2.317627 -5.000000
      vertex -3.946709 -1.436485 -5.000000
    endloop
  endfacet
  facet normal 0.000000 0.000000 -1.000000
    outer loop
      vertex -2.100000 -3.637307 -5.000000
      vertex -7.132924 -2.317627 -5.000000
      vertex -3.217387 -2.699708 -5.000000
    endloop
  endfacet
  facet normal 0.000000 0.000000 -1.000000
    outer loop
      vertex -0.729322 -4.136193 -5.000000
      vertex -6.530475 -3.500000 -5.000000
      vertex -2.100000 -3.637307 -5.000000
    endloop
  endfacet
  facet normal 0.000000 0.000000 -1.000000
    outer loop
      vertex 0.729322 -4.136193 -5.000000
      vertex 15.500000 -7.500000 -5.000000
      vertex -0.729322 -4.136193 -5.000000
    endloop
  endfacet
  facet normal 0.000000 0.000000 -1.000000
    outer loop
      vertex 15.500000 -7.500000 -5.000000
      vertex -6.530475 -3.500000 -5.000000
      vertex -0.729322 -4.136193 -5.000000
    endloop
  endfacet
  facet normal 0.000000 0.000000 -1.000000
    outer loop
      vertex 2.100000 -3.637307 -5.000000
      vertex 15.500000 -7.500000 -5.000000
      vertex 0.729322 -4.136193 -5.000000
    endloop
  endfacet
  facet normal 0.000000 0.000000 -1.000000
    outer loop
      vertex 15.500000 -3.450000 -5.000000
      vertex 15.500000 -7.500000 -5.000000
      vertex 2.323224 -3.450000 -5.000000
    endloop
  endfacet
  facet normal 0.000000 0.000000 -1.000000
    outer loop
      vertex 15.500000 -7.500000 -5.000000
      vertex 2.100000 -3.637307 -5.000000
      vertex 2.323224 -3.450000 -5.000000
    endloop
  endfacet
  facet normal -0.000000 -0.000000 -1.000000
    outer loop
      vertex 2.323224 3.450000 -5.000000
      vertex 0.000000 7.500000 -5.000000
      vertex 15.500000 3.450000 -5.000000
    endloop
  endfacet
  facet normal -1.000000 0.000000 0.000000
    outer loop
      vertex -35.300000 -3.500000 5.000000
      vertex -35.300000 -3.500000 -5.000000
      vertex -35.300000 -7.500000 5.000000
    endloop
  endfacet
  facet normal -1.000000 0.000000 0.000000
    outer loop
      vertex -35.300000 -7.500000 5.000000
      vertex -35.300000 -3.500000 -5.000000
      vertex -35.300000 -7.500000 -5.000000
    endloop
  endfacet
  facet normal 0.000000 -1.000000 0.000000
    outer loop
      vertex -31.598278 -7.500000 -1.236373
      vertex -35.300000 -7.500000 -5.000000
      vertex 15.500000 -7.500000 -5.000000
    endloop
  endfacet
  facet normal 0.000000 -1.000000 0.000000
    outer loop
      vertex 8.990122 -7.500000 -1.569243
      vertex -35.300000 -7.500000 5.000000
      vertex 15.500000 -7.500000 -5.000000
    endloop
  endfacet
  facet normal 0.000000 -1.000000 0.000000
    outer loop
      vertex -35.300000 -7.500000 5.000000
      vertex -35.300000 -7.500000 -5.000000
      vertex -33.051722 -7.500000 -0.764121
    endloop
  endfacet
  facet normal 0.000000 -1.000000 0.000000
    outer loop
      vertex -22.901722 -7.500000 -1.236373
      vertex -30.700000 -7.500000 0.000000
      vertex -30.948278 -7.500000 -0.764121
    endloop
  endfacet
  facet normal 0.000000 -1.000000 0.000000
    outer loop
      vertex -35.300000 -7.500000 5.000000
      vertex -33.051722 -7.500000 -0.764121
      vertex -33.300000 -7.500000 0.000000
    endloop
  endfacet
  facet normal 0.000000 -1.000000 0.000000
    outer loop
      vertex -22.901722 -7.500000 -1.236373
      vertex -23.551722 -7.500000 -0.764121
      vertex -30.700000 -7.500000 0.000000
    endloop
  endfacet
  facet normal 0.000000 -1.000000 0.000000
    outer loop
      vertex -35.300000 -7.500000 5.000000
      vertex -33.300000 -7.500000 0.000000
      vertex -33.051722 -7.500000 0.764121
    endloop
  endfacet
  facet normal 0.000000 -1.000000 -0.000000
    outer loop
      vertex -23.800000 -7.500000 0.000000
      vertex -23.551722 -7.500000 0.764121
      vertex -31.598278 -7.500000 1.236373
    endloop
  endfacet
  facet normal 0.000000 -1.000000 0.000000
    outer loop
      vertex -35.300000 -7.500000 5.000000
      vertex -33.051722 -7.500000 0.764121
      vertex -32.401722 -7.500000 1.236373
    endloop
  endfacet
  facet normal 0.000000 -1.000000 0.000000
    outer loop
      vertex -22.098278 -7.500000 1.236373
      vertex -21.448278 -7.500000 0.764121
      vertex 15.500000 -7.500000 -5.000000
    endloop
  endfacet
  facet normal 0.000000 -1.000000 0.000000
    outer loop
      vertex -35.300000 -7.500000 5.000000
      vertex -32.401722 -7.500000 1.236373
      vertex -31.598278 -7.500000 1.236373
    endloop
  endfacet
  facet normal 0.000000 -1.000000 0.000000
    outer loop
      vertex -21.448278 -7.500000 -0.764121
      vertex -22.098278 -7.500000 -1.236373
      vertex 15.500000 -7.500000 -5.000000
    endloop
  endfacet
  facet normal 0.000000 -1.000000 0.000000
    outer loop
      vertex -22.901722 -7.500000 -1.236373
      vertex -30.948278 -7.500000 -0.764121
      vertex 15.500000 -7.500000 -5.000000
    endloop
  endfacet
  facet normal 0.000000 -1.000000 0.000000
    outer loop
      vertex -32.401722 -7.500000 -1.236373
      vertex -35.300000 -7.500000 -5.000000
      vertex -31.598278 -7.500000 -1.236373
    endloop
  endfacet
  facet normal 0.000000 -1.000000 0.000000
    outer loop
      vertex -33.051722 -7.500000 -0.764121
      vertex -35.300000 -7.500000 -5.000000
      vertex -32.401722 -7.500000 -1.236373
    endloop
  endfacet
  facet normal -0.000000 -1.000000 0.000000
    outer loop
      vertex 8.990122 -7.500000 1.569243
      vertex 10.009878 -7.500000 1.569243
      vertex 15.500000 -7.500000 5.000000
    endloop
  endfacet
  facet normal 0.000000 -1.000000 0.000000
    outer loop
      vertex -21.200000 -7.500000 0.000000
      vertex -21.448278 -7.500000 -0.764121
      vertex 15.500000 -7.500000 -5.000000
    endloop
  endfacet
  facet normal 0.000000 -1.000000 0.000000
    outer loop
      vertex -35.300000 -7.500000 5.000000
      vertex -31.598278 -7.500000 1.236373
      vertex -23.551722 -7.500000 0.764121
    endloop
  endfacet
  facet normal 0.000000 -1.000000 0.000000
    outer loop
      vertex -21.448278 -7.500000 0.764121
      vertex -21.200000 -7.500000 0.000000
      vertex 15.500000 -7.500000 -5.000000
    endloop
  endfacet
  facet normal 0.000000 -1.000000 0.000000
    outer loop
      vertex -35.300000 -7.500000 5.000000
      vertex -23.551722 -7.500000 0.764121
      vertex -22.901722 -7.500000 1.236373
    endloop
  endfacet
  facet normal 0.000000 -1.000000 0.000000
    outer loop
      vertex -35.300000 -7.500000 5.000000
      vertex -22.098278 -7.500000 1.236373
      vertex 15.500000 -7.500000 -5.000000
    endloop
  endfacet
  facet normal 0.000000 -1.000000 0.000000
    outer loop
      vertex -35.300000 -7.500000 5.000000
      vertex -22.901722 -7.500000 1.236373
      vertex -22.098278 -7.500000 1.236373
    endloop
  endfacet
  facet normal 0.000000 -1.000000 0.000000
    outer loop
      vertex -23.551722 -7.500000 -0.764121
      vertex -23.800000 -7.500000 0.000000
      vertex -30.948278 -7.500000 0.764121
    endloop
  endfacet
  facet normal 0.000000 -1.000000 0.000000
    outer loop
      vertex -30.948278 -7.500000 -0.764121
      vertex -31.598278 -7.500000 -1.236373
      vertex 15.500000 -7.500000 -5.000000
    endloop
  endfacet
  facet normal 0.000000 -1.000000 0.000000
    outer loop
      vertex -22.098278 -7.500000 -1.236373
      vertex -22.901722 -7.500000 -1.236373
      vertex 15.500000 -7.500000 -5.000000
    endloop
  endfacet
  facet normal 0.000000 -1.000000 0.000000
    outer loop
      vertex 7.850000 -7.500000 0.000000
      vertex -35.300000 -7.500000 5.000000
      vertex 8.165122 -7.500000 -0.969846
    endloop
  endfacet
  facet normal 0.000000 -1.000000 0.000000
    outer loop
      vertex 10.009878 -7.500000 -1.569243
      vertex 8.990122 -7.500000 -1.569243
      vertex 15.500000 -7.500000 -5.000000
    endloop
  endfacet
  facet normal 0.000000 -1.000000 0.000000
    outer loop
      vertex 8.165122 -7.500000 0.969846
      vertex -35.300000 -7.500000 5.000000
      vertex 7.850000 -7.500000 0.000000
    endloop
  endfacet
  facet normal 0.000000 -1.000000 0.000000
    outer loop
      vertex 8.990122 -7.500000 1.569243
      vertex -35.300000 -7.500000 5.000000
      vertex 8.165122 -7.500000 0.969846
    endloop
  endfacet
  facet normal 0.000000 -1.000000 0.000000
    outer loop
      vertex 15.500000 -7.500000 5.000000
      vertex -35.300000 -7.500000 5.000000
      vertex 8.990122 -7.500000 1.569243
    endloop
  endfacet
  facet normal 0.000000 -1.000000 0.000000
    outer loop
      vertex 15.500000 -7.500000 5.000000
      vertex 10.834878 -7.500000 0.969846
      vertex 15.500000 -7.500000 -5.000000
    endloop
  endfacet
  facet normal 0.000000 -1.000000 0.000000
    outer loop
      vertex 10.834878 -7.500000 0.969846
      vertex 11.150000 -7.500000 0.000000
      vertex 15.500000 -7.500000 -5.000000
    endloop
  endfacet
  facet normal 0.000000 -1.000000 0.000000
    outer loop
      vertex 11.150000 -7.500000 0.000000
      vertex 10.834878 -7.500000 -0.969846
      vertex 15.500000 -7.500000 -5.000000
    endloop
  endfacet
  facet normal 0.000000 -1.000000 0.000000
    outer loop
      vertex 10.834878 -7.500000 -0.969846
      vertex 10.009878 -7.500000 -1.569243
      vertex 15.500000 -7.500000 -5.000000
    endloop
  endfacet
  facet normal 0.000000 -1.000000 0.000000
    outer loop
      vertex 8.165122 -7.500000 -0.969846
      vertex -35.300000 -7.500000 5.000000
      vertex 8.990122 -7.500000 -1.569243
    endloop
  endfacet
  facet normal -0.000000 -1.000000 0.000000
    outer loop
      vertex 10.009878 -7.500000 1.569243
      vertex 10.834878 -7.500000 0.969846
      vertex 15.500000 -7.500000 5.000000
    endloop
  endfacet
  facet normal 0.000000 -1.000000 0.000000
    outer loop
      vertex -31.598278 -7.500000 1.236373
      vertex -30.948278 -7.500000 0.764121
      vertex -23.800000 -7.500000 0.000000
    endloop
  endfacet
  facet normal 0.000000 -1.000000 0.000000
    outer loop
      vertex -30.948278 -7.500000 0.764121
      vertex -30.700000 -7.500000 0.000000
      vertex -23.551722 -7.500000 -0.764121
    endloop
  endfacet
  facet normal 1.000000 0.000000 -0.000000
    outer loop
      vertex 15.500000 -7.500000 5.000000
      vertex 15.500000 -7.500000 -5.000000
      vertex 15.500000 -3.450000 -5.000000
    endloop
  endfacet
  facet normal 1.000000 0.000000 0.000000
    outer loop
      vertex 15.500000 -3.450000 5.000000
      vertex 15.500000 -7.500000 5.000000
      vertex 15.500000 -3.450000 -5.000000
    endloop
  endfacet
  facet normal 0.000000 1.000000 0.000000
    outer loop
      vertex 8.990122 -3.450000 1.569243
      vertex 2.323224 -3.450000 5.000000
      vertex 10.009878 -3.450000 1.569243
    endloop
  endfacet
  facet normal 0.000000 1.000000 -0.000000
    outer loop
      vertex 8.990122 -3.450000 -1.569243
      vertex 15.500000 -3.450000 -5.000000
      vertex 2.323224 -3.450000 -5.000000
    endloop
  endfacet
  facet normal 0.000000 1.000000 -0.000000
    outer loop
      vertex 10.834878 -3.450000 -0.969846
      vertex 15.500000 -3.450000 -5.000000
      vertex 10.009878 -3.450000 -1.569243
    endloop
  endfacet
  facet normal 0.000000 1.000000 -0.000000
    outer loop
      vertex 2.323224 -3.450000 5.000000
      vertex 8.165122 -3.450000 -0.969846
      vertex 2.323224 -3.450000 -5.000000
    endloop
  endfacet
  facet normal 0.000000 1.000000 -0.000000
    outer loop
      vertex 8.165122 -3.450000 -0.969846
      vertex 8.990122 -3.450000 -1.569243
      vertex 2.323224 -3.450000 -5.000000
    endloop
  endfacet
  facet normal 0.000000 1.000000 0.000000
    outer loop
      vertex 15.500000 -3.450000 5.000000
      vertex 15.500000 -3.450000 -5.000000
      vertex 10.834878 -3.450000 -0.969846
    endloop
  endfacet
  facet normal 0.000000 1.000000 0.000000
    outer loop
      vertex 15.500000 -3.450000 5.000000
      vertex 10.834878 -3.450000 -0.969846
      vertex 11.150000 -3.450000 0.000000
    endloop
  endfacet
  facet normal 0.000000 1.000000 0.000000
    outer loop
      vertex 15.500000 -3.450000 5.000000
      vertex 11.150000 -3.450000 0.000000
      vertex 10.834878 -3.450000 0.969846
    endloop
  endfacet
  facet normal 0.000000 1.000000 0.000000
    outer loop
      vertex 15.500000 -3.450000 5.000000
      vertex 10.834878 -3.450000 0.969846
      vertex 10.009878 -3.450000 1.569243
    endloop
  endfacet
  facet normal 0.000000 1.000000 0.000000
    outer loop
      vertex 15.500000 -3.450000 5.000000
      vertex 10.009878 -3.450000 1.569243
      vertex 2.323224 -3.450000 5.000000
    endloop
  endfacet
  facet normal 0.000000 1.000000 0.000000
    outer loop
      vertex 8.165122 -3.450000 0.969846
      vertex 2.323224 -3.450000 5.000000
      vertex 8.990122 -3.450000 1.569243
    endloop
  endfacet
  facet normal 0.000000 1.000000 0.000000
    outer loop
      vertex 7.850000 -3.450000 0.000000
      vertex 2.323224 -3.450000 5.000000
      vertex 8.165122 -3.450000 0.969846
    endloop
  endfacet
  facet normal 0.000000 1.000000 0.000000
    outer loop
      vertex 2.323224 -3.450000 5.000000
      vertex 7.850000 -3.450000 0.000000
      vertex 8.165122 -3.450000 -0.969846
    endloop
  endfacet
  facet normal 0.000000 1.000000 -0.000000
    outer loop
      vertex 10.009878 -3.450000 -1.569243
      vertex 15.500000 -3.450000 -5.000000
      vertex 8.990122 -3.450000 -1.569243
    endloop
  endfacet
  facet normal -0.642788 0.766044 0.000000
    outer loop
      vertex 2.323224 -3.450000 5.000000
      vertex 2.323224 -3.450000 -5.000000
      vertex 2.100000 -3.637307 5.000000
    endloop
  endfacet
  facet normal -0.642788 0.766044 0.000000
    outer loop
      vertex 2.100000 -3.637307 5.000000
      vertex 2.323224 -3.450000 -5.000000
      vertex 2.100000 -3.637307 -5.000000
    endloop
  endfacet
  facet normal -0.342020 0.939693 0.000000
    outer loop
      vertex 2.100000 -3.637307 5.000000
      vertex 2.100000 -3.637307 -5.000000
      vertex 0.729322 -4.136193 5.000000
    endloop
  endfacet
  facet normal -0.342020 0.939693 0.000000
    outer loop
      vertex 0.729322 -4.136193 5.000000
      vertex 2.100000 -3.637307 -5.000000
      vertex 0.729322 -4.136193 -5.000000
    endloop
  endfacet
  facet normal 0.000000 1.000000 0.000000
    outer loop
      vertex 0.729322 -4.136193 5.000000
      vertex 0.729322 -4.136193 -5.000000
      vertex -0.729322 -4.136193 5.000000
    endloop
  endfacet
  facet normal 0.000000 1.000000 -0.000000
    outer loop
      vertex -0.729322 -4.136193 5.000000
      vertex 0.729322 -4.136193 -5.000000
      vertex -0.729322 -4.136193 -5.000000
    endloop
  endfacet
  facet normal 0.342020 0.939693 -0.000000
    outer loop
      vertex -0.729322 -4.136193 5.000000
      vertex -0.729322 -4.136193 -5.000000
      vertex -2.100000 -3.637307 5.000000
    endloop
  endfacet
  facet normal 0.342020 0.939693 -0.000000
    outer loop
      vertex -2.100000 -3.637307 5.000000
      vertex -0.729322 -4.136193 -5.000000
      vertex -2.100000 -3.637307 -5.000000
    endloop
  endfacet
  facet normal 0.642788 0.766044 -0.000000
    outer loop
      vertex -2.100000 -3.637307 5.000000
      vertex -2.100000 -3.637307 -5.000000
      vertex -3.217387 -2.699708 5.000000
    endloop
  endfacet
  facet normal 0.642788 0.766044 -0.000000
    outer loop
      vertex -3.217387 -2.699708 5.000000
      vertex -2.100000 -3.637307 -5.000000
      vertex -3.217387 -2.699708 -5.000000
    endloop
  endfacet
  facet normal 0.866025 0.500000 0.000000
    outer loop
      vertex -3.946709 -1.436485 5.000000
      vertex -3.217387 -2.699708 5.000000
      vertex -3.217387 -2.699708 -5.000000
    endloop
  endfacet
  facet normal 0.866025 0.500000 0.000000
    outer loop
      vertex -3.946709 -1.436485 -5.000000
      vertex -3.946709 -1.436485 5.000000
      vertex -3.217387 -2.699708 -5.000000
    endloop
  endfacet
  facet normal 0.984808 0.173648 0.000000
    outer loop
      vertex -4.200000 0.000000 5.000000
      vertex -3.946709 -1.436485 5.000000
      vertex -3.946709 -1.436485 -5.000000
    endloop
  endfacet
  facet normal 0.984808 0.173648 0.000000
    outer loop
      vertex -4.200000 0.000000 -5.000000
      vertex -4.200000 0.000000 5.000000
      vertex -3.946709 -1.436485 -5.000000
    endloop
  endfacet
  facet normal 0.984808 -0.173648 0.000000
    outer loop
      vertex -3.946709 1.436485 -5.000000
      vertex -3.946709 1.436485 5.000000
      vertex -4.200000 0.000000 5.000000
    endloop
  endfacet
  facet normal 0.984808 -0.173648 0.000000
    outer loop
      vertex -4.200000 0.000000 -5.000000
      vertex -3.946709 1.436485 -5.000000
      vertex -4.200000 0.000000 5.000000
    endloop
  endfacet
  facet normal 0.866025 -0.500000 0.000000
    outer loop
      vertex -3.217387 2.699708 -5.000000
      vertex -3.217387 2.699708 5.000000
      vertex -3.946709 1.436485 5.000000
    endloop
  endfacet
  facet normal 0.866025 -0.500000 0.000000
    outer loop
      vertex -3.946709 1.436485 -5.000000
      vertex -3.217387 2.699708 -5.000000
      vertex -3.946709 1.436485 5.000000
    endloop
  endfacet
  facet normal 0.642788 -0.766044 0.000000
    outer loop
      vertex -2.100000 3.637307 -5.000000
      vertex -2.100000 3.637307 5.000000
      vertex -3.217387 2.699708 5.000000
    endloop
  endfacet
  facet normal 0.642788 -0.766044 0.000000
    outer loop
      vertex -3.217387 2.699708 -5.000000
      vertex -2.100000 3.637307 -5.000000
      vertex -3.217387 2.699708 5.000000
    endloop
  endfacet
  facet normal 0.342020 -0.939693 0.000000
    outer loop
      vertex -0.729322 4.136193 -5.000000
      vertex -0.729322 4.136193 5.000000
      vertex -2.100000 3.637307 5.000000
    endloop
  endfacet
  facet normal 0.342020 -0.939693 0.000000
    outer loop
      vertex -2.100000 3.637307 -5.000000
      vertex -0.729322 4.136193 -5.000000
      vertex -2.100000 3.637307 5.000000
    endloop
  endfacet
  facet normal 0.000000 -1.000000 0.000000
    outer loop
      vertex 0.729322 4.136193 -5.000000
      vertex 0.729322 4.136193 5.000000
      vertex -0.729322 4.136193 5.000000
    endloop
  endfacet
  facet normal -0.000000 -1.000000 -0.000000
    outer loop
      vertex -0.729322 4.136193 -5.000000
      vertex 0.729322 4.136193 -5.000000
      vertex -0.729322 4.136193 5.000000
    endloop
  endfacet
  facet normal -0.342020 -0.939693 -0.000000
    outer loop
      vertex 2.100000 3.637307 -5.000000
      vertex 2.100000 3.637307 5.000000
      vertex 0.729322 4.136193 5.000000
    endloop
  endfacet
  facet normal -0.342020 -0.939693 -0.000000
    outer loop
      vertex 0.729322 4.136193 -5.000000
      vertex 2.100000 3.637307 -5.000000
      vertex 0.729322 4.136193 5.000000
    endloop
  endfacet
  facet normal -0.642788 -0.766044 -0.000000
    outer loop
      vertex 2.323224 3.450000 -5.000000
      vertex 2.323224 3.450000 5.000000
      vertex 2.100000 3.637307 5.000000
    endloop
  endfacet
  facet normal -0.642788 -0.766044 -0.000000
    outer loop
      vertex 2.100000 3.637307 -5.000000
      vertex 2.323224 3.450000 -5.000000
      vertex 2.100000 3.637307 5.000000
    endloop
  endfacet
  facet normal 0.000000 -1.000000 -0.000000
    outer loop
      vertex 8.990122 3.450000 1.569243
      vertex 15.500000 3.450000 5.000000
      vertex 2.323224 3.450000 5.000000
    endloop
  endfacet
  facet normal -0.000000 -1.000000 0.000000
    outer loop
      vertex 8.990122 3.450000 1.569243
      vertex 10.009878 3.450000 1.569243
      vertex 15.500000 3.450000 5.000000
    endloop
  endfacet
  facet normal 0.000000 -1.000000 -0.000000
    outer loop
      vertex 2.323224 3.450000 -5.000000
      vertex 7.850000 3.450000 0.000000
      vertex 2.323224 3.450000 5.000000
    endloop
  endfacet
  facet normal 0.000000 -1.000000 -0.000000
    outer loop
      vertex 8.165122 3.450000 0.969846
      vertex 8.990122 3.450000 1.569243
      vertex 2.323224 3.450000 5.000000
    endloop
  endfacet
  facet normal 0.000000 -1.000000 0.000000
    outer loop
      vertex 10.834878 3.450000 0.969846
      vertex 11.150000 3.450000 0.000000
      vertex 15.500000 3.450000 -5.000000
    endloop
  endfacet
  facet normal 0.000000 -1.000000 -0.000000
    outer loop
      vertex 10.834878 3.450000 0.969846
      vertex 15.500000 3.450000 5.000000
      vertex 10.009878 3.450000 1.569243
    endloop
  endfacet
  facet normal 0.000000 -1.000000 0.000000
    outer loop
      vertex 15.500000 3.450000 -5.000000
      vertex 15.500000 3.450000 5.000000
      vertex 10.834878 3.450000 0.969846
    endloop
  endfacet
  facet normal 0.000000 -1.000000 0.000000
    outer loop
      vertex 15.500000 3.450000 -5.000000
      vertex 11.150000 3.450000 0.000000
      vertex 10.834878 3.450000 -0.969846
    endloop
  endfacet
  facet normal -0.000000 -1.000000 0.000000
    outer loop
      vertex 2.323224 3.450000 -5.000000
      vertex 15.500000 3.450000 -5.000000
      vertex 10.009878 3.450000 -1.569243
    endloop
  endfacet
  facet normal 0.000000 -1.000000 0.000000
    outer loop
      vertex 2.323224 3.450000 -5.000000
      vertex 10.009878 3.450000 -1.569243
      vertex 8.990122 3.450000 -1.569243
    endloop
  endfacet
  facet normal 0.000000 -1.000000 0.000000
    outer loop
      vertex 2.323224 3.450000 -5.000000
      vertex 8.165122 3.450000 -0.969846
      vertex 7.850000 3.450000 0.000000
    endloop
  endfacet
  facet normal 0.000000 -1.000000 0.000000
    outer loop
      vertex 2.323224 3.450000 -5.000000
      vertex 8.990122 3.450000 -1.569243
      vertex 8.165122 3.450000 -0.969846
    endloop
  endfacet
  facet normal 0.000000 -1.000000 -0.000000
    outer loop
      vertex 7.850000 3.450000 0.000000
      vertex 8.165122 3.450000 0.969846
      vertex 2.323224 3.450000 5.000000
    endloop
  endfacet
  facet normal 0.000000 -1.000000 0.000000
    outer loop
      vertex 10.834878 3.450000 -0.969846
      vertex 10.009878 3.450000 -1.569243
      vertex 15.500000 3.450000 -5.000000
    endloop
  endfacet
  facet normal 1.000000 0.000000 -0.000000
    outer loop
      vertex 15.500000 3.450000 5.000000
      vertex 15.500000 3.450000 -5.000000
      vertex 15.500000 7.500000 -5.000000
    endloop
  endfacet
  facet normal 1.000000 0.000000 0.000000
    outer loop
      vertex 15.500000 7.500000 5.000000
      vertex 15.500000 3.450000 5.000000
      vertex 15.500000 7.500000 -5.000000
    endloop
  endfacet
  facet normal 0.000000 1.000000 0.000000
    outer loop
      vertex 10.009878 7.500000 1.569243
      vertex 0.000000 7.500000 5.000000
      vertex 15.500000 7.500000 5.000000
    endloop
  endfacet
  facet normal 0.000000 1.000000 0.000000
    outer loop
      vertex 0.000000 7.500000 -5.000000
      vertex 0.000000 7.500000 5.000000
      vertex 8.165122 7.500000 -0.969846
    endloop
  endfacet
  facet normal 0.000000 1.000000 0.000000
    outer loop
      vertex 0.000000 7.500000 -5.000000
      vertex 8.165122 7.500000 -0.969846
      vertex 8.990122 7.500000 -1.569243
    endloop
  endfacet
  facet normal 0.000000 1.000000 0.000000
    outer loop
      vertex 0.000000 7.500000 -5.000000
      vertex 8.990122 7.500000 -1.569243
      vertex 15.500000 7.500000 -5.000000
    endloop
  endfacet
  facet normal 0.000000 1.000000 -0.000000
    outer loop
      vertex 10.009878 7.500000 -1.569243
      vertex 15.500000 7.500000 -5.000000
      vertex 8.990122 7.500000 -1.569243
    endloop
  endfacet
  facet normal 0.000000 1.000000 -0.000000
    outer loop
      vertex 10.834878 7.500000 -0.969846
      vertex 15.500000 7.500000 -5.000000
      vertex 10.009878 7.500000 -1.569243
    endloop
  endfacet
  facet normal 0.000000 1.000000 0.000000
    outer loop
      vertex 10.009878 7.500000 1.569243
      vertex 15.500000 7.500000 5.000000
      vertex 10.834878 7.500000 0.969846
    endloop
  endfacet
  facet normal 0.000000 1.000000 0.000000
    outer loop
      vertex 15.500000 7.500000 -5.000000
      vertex 10.834878 7.500000 -0.969846
      vertex 15.500000 7.500000 5.000000
    endloop
  endfacet
  facet normal 0.000000 1.000000 0.000000
    outer loop
      vertex 10.834878 7.500000 -0.969846
      vertex 11.150000 7.500000 0.000000
      vertex 15.500000 7.500000 5.000000
    endloop
  endfacet
  facet normal 0.000000 1.000000 0.000000
    outer loop
      vertex 11.150000 7.500000 0.000000
      vertex 10.834878 7.500000 0.969846
      vertex 15.500000 7.500000 5.000000
    endloop
  endfacet
  facet normal 0.000000 1.000000 0.000000
    outer loop
      vertex 8.990122 7.500000 1.569243
      vertex 0.000000 7.500000 5.000000
      vertex 10.009878 7.500000 1.569243
    endloop
  endfacet
  facet normal 0.000000 1.000000 0.000000
    outer loop
      vertex 8.165122 7.500000 0.969846
      vertex 0.000000 7.500000 5.000000
      vertex 8.990122 7.500000 1.569243
    endloop
  endfacet
  facet normal 0.000000 1.000000 0.000000
    outer loop
      vertex 7.850000 7.500000 0.000000
      vertex 0.000000 7.500000 5.000000
      vertex 8.165122 7.500000 0.969846
    endloop
  endfacet
  facet normal 0.000000 1.000000 0.000000
    outer loop
      vertex 8.165122 7.500000 -0.969846
      vertex 0.000000 7.500000 5.000000
      vertex 7.850000 7.500000 0.000000
    endloop
  endfacet
  facet normal -0.156434 0.987688 0.000000
    outer loop
      vertex -2.317627 7.132924 -5.000000
      vertex -2.317627 7.132924 5.000000
      vertex 0.000000 7.500000 -5.000000
    endloop
  endfacet
  facet normal -0.156434 0.987688 0.000000
    outer loop
      vertex 0.000000 7.500000 -5.000000
      vertex -2.317627 7.132924 5.000000
      vertex 0.000000 7.500000 5.000000
    endloop
  endfacet
  facet normal -0.453991 0.891006 0.000000
    outer loop
      vertex -4.408389 6.067627 -5.000000
      vertex -4.408389 6.067627 5.000000
      vertex -2.317627 7.132924 -5.000000
    endloop
  endfacet
  facet normal -0.453991 0.891006 0.000000
    outer loop
      vertex -2.317627 7.132924 -5.000000
      vertex -4.408389 6.067627 5.000000
      vertex -2.317627 7.132924 5.000000
    endloop
  endfacet
  facet normal -0.707107 0.707107 0.000000
    outer loop
      vertex -6.067627 4.408389 -5.000000
      vertex -6.067627 4.408389 5.000000
      vertex -4.408389 6.067627 -5.000000
    endloop
  endfacet
  facet normal -0.707107 0.707107 0.000000
    outer loop
      vertex -4.408389 6.067627 -5.000000
      vertex -6.067627 4.408389 5.000000
      vertex -4.408389 6.067627 5.000000
    endloop
  endfacet
  facet normal -0.891006 0.453991 0.000000
    outer loop
      vertex -7.132924 2.317627 -5.000000
      vertex -7.132924 2.317627 5.000000
      vertex -6.067627 4.408389 -5.000000
    endloop
  endfacet
  facet normal -0.891006 0.453991 0.000000
    outer loop
      vertex -6.067627 4.408389 -5.000000
      vertex -7.132924 2.317627 5.000000
      vertex -6.067627 4.408389 5.000000
    endloop
  endfacet
  facet normal -0.987688 0.156434 0.000000
    outer loop
      vertex -7.500000 0.000000 -5.000000
      vertex -7.500000 0.000000 5.000000
      vertex -7.132924 2.317627 -5.000000
    endloop
  endfacet
  facet normal -0.987688 0.156434 0.000000
    outer loop
      vertex -7.132924 2.317627 -5.000000
      vertex -7.500000 0.000000 5.000000
      vertex -7.132924 2.317627 5.000000
    endloop
  endfacet
  facet normal -0.987688 -0.156434 -0.000000
    outer loop
      vertex -7.500000 0.000000 -5.000000
      vertex -7.132924 -2.317627 -5.000000
      vertex -7.500000 0.000000 5.000000
    endloop
  endfacet
  facet normal -0.987688 -0.156434 0.000000
    outer loop
      vertex -7.500000 0.000000 5.000000
      vertex -7.132924 -2.317627 -5.000000
      vertex -7.132924 -2.317627 5.000000
    endloop
  endfacet
  facet normal -0.891006 -0.453991 -0.000000
    outer loop
      vertex -7.132924 -2.317627 -5.000000
      vertex -6.530475 -3.500000 -5.000000
      vertex -7.132924 -2.317627 5.000000
    endloop
  endfacet
  facet normal -0.891006 -0.453991 0.000000
    outer loop
      vertex -7.132924 -2.317627 5.000000
      vertex -6.530475 -3.500000 -5.000000
      vertex -6.530475 -3.500000 5.000000
    endloop
  endfacet
  facet normal 0.000000 1.000000 0.000000
    outer loop
      vertex -22.098278 -3.500000 1.236373
      vertex -35.300000 -3.500000 5.000000
      vertex -6.530475 -3.500000 5.000000
    endloop
  endfacet
  facet normal 0.000000 1.000000 0.000000
    outer loop
      vertex -35.300000 -3.500000 -5.000000
      vertex -35.300000 -3.500000 5.000000
      vertex -33.300000 -3.500000 0.000000
    endloop
  endfacet
  facet normal 0.000000 1.000000 0.000000
    outer loop
      vertex -35.300000 -3.500000 -5.000000
      vertex -33.300000 -3.500000 0.000000
      vertex -33.051722 -3.500000 -0.764121
    endloop
  endfacet
  facet normal 0.000000 1.000000 0.000000
    outer loop
      vertex -35.300000 -3.500000 -5.000000
      vertex -33.051722 -3.500000 -0.764121
      vertex -32.401722 -3.500000 -1.236373
    endloop
  endfacet
  facet normal 0.000000 1.000000 0.000000
    outer loop
      vertex -35.300000 -3.500000 -5.000000
      vertex -32.401722 -3.500000 -1.236373
      vertex -6.530475 -3.500000 -5.000000
    endloop
  endfacet
  facet normal 0.000000 1.000000 0.000000
    outer loop
      vertex -32.401722 -3.500000 -1.236373
      vertex -31.598278 -3.500000 -1.236373
      vertex -6.530475 -3.500000 -5.000000
    endloop
  endfacet
  facet normal 0.000000 1.000000 -0.000000
    outer loop
      vertex -30.700000 -3.500000 0.000000
      vertex -6.530475 -3.500000 -5.000000
      vertex -30.948278 -3.500000 -0.764121
    endloop
  endfacet
  facet normal 0.000000 1.000000 0.000000
    outer loop
      vertex -22.901722 -3.500000 -1.236373
      vertex -30.948278 -3.500000 0.764121
      vertex -23.551722 -3.500000 -0.764121
    endloop
  endfacet
  facet normal 0.000000 1.000000 0.000000
    outer loop
      vertex -32.401722 -3.500000 1.236373
      vertex -35.300000 -3.500000 5.000000
      vertex -31.598278 -3.500000 1.236373
    endloop
  endfacet
  facet normal 0.000000 1.000000 0.000000
    outer loop
      vertex -31.598278 -3.500000 1.236373
      vertex -35.300000 -3.500000 5.000000
      vertex -30.948278 -3.500000 0.764121
    endloop
  endfacet
  facet normal 0.000000 1.000000 -0.000000
    outer loop
      vertex -21.448278 -3.500000 -0.764121
      vertex -6.530475 -3.500000 -5.000000
      vertex -22.098278 -3.500000 -1.236373
    endloop
  endfacet
  facet normal 0.000000 1.000000 -0.000000
    outer loop
      vertex -22.098278 -3.500000 -1.236373
      vertex -6.530475 -3.500000 -5.000000
      vertex -22.901722 -3.500000 -1.236373
    endloop
  endfacet
  facet normal 0.000000 1.000000 0.000000
    outer loop
      vertex -33.051722 -3.500000 0.764121
      vertex -35.300000 -3.500000 5.000000
      vertex -32.401722 -3.500000 1.236373
    endloop
  endfacet
  facet normal 0.000000 1.000000 0.000000
    outer loop
      vertex -33.300000 -3.500000 0.000000
      vertex -35.300000 -3.500000 5.000000
      vertex -33.051722 -3.500000 0.764121
    endloop
  endfacet
  facet normal 0.000000 1.000000 0.000000
    outer loop
      vertex -30.948278 -3.500000 0.764121
      vertex -35.300000 -3.500000 5.000000
      vertex -23.800000 -3.500000 0.000000
    endloop
  endfacet
  facet normal 0.000000 1.000000 0.000000
    outer loop
      vertex -30.948278 -3.500000 0.764121
      vertex -23.800000 -3.500000 0.000000
      vertex -23.551722 -3.500000 -0.764121
    endloop
  endfacet
  facet normal 0.000000 1.000000 0.000000
    outer loop
      vertex -30.700000 -3.500000 0.000000
      vertex -30.948278 -3.500000 0.764121
      vertex -22.901722 -3.500000 -1.236373
    endloop
  endfacet
  facet normal 0.000000 1.000000 0.000000
    outer loop
      vertex -30.700000 -3.500000 0.000000
      vertex -22.901722 -3.500000 -1.236373
      vertex -6.530475 -3.500000 -5.000000
    endloop
  endfacet
  facet normal 0.000000 1.000000 -0.000000
    outer loop
      vertex -21.200000 -3.500000 0.000000
      vertex -6.530475 -3.500000 -5.000000
      vertex -21.448278 -3.500000 -0.764121
    endloop
  endfacet
  facet normal 0.000000 1.000000 0.000000
    outer loop
      vertex -21.448278 -3.500000 0.764121
      vertex -6.530475 -3.500000 -5.000000
      vertex -21.200000 -3.500000 0.000000
    endloop
  endfacet
  facet normal 0.000000 1.000000 0.000000
    outer loop
      vertex -23.551722 -3.500000 0.764121
      vertex -35.300000 -3.500000 5.000000
      vertex -22.901722 -3.500000 1.236373
    endloop
  endfacet
  facet normal 0.000000 1.000000 0.000000
    outer loop
      vertex -6.530475 -3.500000 -5.000000
      vertex -21.448278 -3.500000 0.764121
      vertex -6.530475 -3.500000 5.000000
    endloop
  endfacet
  facet normal 0.000000 1.000000 0.000000
    outer loop
      vertex -22.901722 -3.500000 1.236373
      vertex -35.300000 -3.500000 5.000000
      vertex -22.098278 -3.500000 1.236373
    endloop
  endfacet
  facet normal 0.000000 1.000000 0.000000
    outer loop
      vertex -21.448278 -3.500000 0.764121
      vertex -22.098278 -3.500000 1.236373
      vertex -6.530475 -3.500000 5.000000
    endloop
  endfacet
  facet normal 0.000000 1.000000 0.000000
    outer loop
      vertex -23.800000 -3.500000 0.000000
      vertex -35.300000 -3.500000 5.000000
      vertex -23.551722 -3.500000 0.764121
    endloop
  endfacet
  facet normal 0.000000 1.000000 -0.000000
    outer loop
      vertex -30.948278 -3.500000 -0.764121
      vertex -6.530475 -3.500000 -5.000000
      vertex -31.598278 -3.500000 -1.236373
    endloop
  endfacet
  facet normal 0.000000 -0.000000 1.000000
    outer loop
      vertex -35.300000 -3.500000 5.000000
      vertex -35.300000 -7.500000 5.000000
      vertex 15.500000 -7.500000 5.000000
    endloop
  endfacet
  facet normal 0.000000 0.000000 1.000000
    outer loop
      vertex -2.100000 -3.637307 5.000000
      vertex -6.530475 -3.500000 5.000000
      vertex -35.300000 -3.500000 5.000000
    endloop
  endfacet
  facet normal -0.000000 -0.000000 1.000000
    outer loop
      vertex -0.729322 -4.136193 5.000000
      vertex -35.300000 -3.500000 5.000000
      vertex 15.500000 -7.500000 5.000000
    endloop
  endfacet
  facet normal 0.000000 0.000000 1.000000
    outer loop
      vertex 15.500000 -3.450000 5.000000
      vertex 2.100000 -3.637307 5.000000
      vertex 15.500000 -7.500000 5.000000
    endloop
  endfacet
  facet normal 0.000000 -0.000000 1.000000
    outer loop
      vertex 2.100000 -3.637307 5.000000
      vertex 0.729322 -4.136193 5.000000
      vertex 15.500000 -7.500000 5.000000
    endloop
  endfacet
  facet normal 0.000000 -0.000000 1.000000
    outer loop
      vertex 0.729322 -4.136193 5.000000
      vertex -0.729322 -4.136193 5.000000
      vertex 15.500000 -7.500000 5.000000
    endloop
  endfacet
  facet normal 0.000000 0.000000 1.000000
    outer loop
      vertex -7.132924 -2.317627 5.000000
      vertex -6.530475 -3.500000 5.000000
      vertex -3.217387 -2.699708 5.000000
    endloop
  endfacet
  facet normal 0.000000 0.000000 1.000000
    outer loop
      vertex -7.500000 0.000000 5.000000
      vertex -3.946709 -1.436485 5.000000
      vertex -4.200000 0.000000 5.000000
    endloop
  endfacet
  facet normal 0.000000 0.000000 1.000000
    outer loop
      vertex -7.500000 0.000000 5.000000
      vertex -7.132924 -2.317627 5.000000
      vertex -3.946709 -1.436485 5.000000
    endloop
  endfacet
  facet normal 0.000000 0.000000 1.000000
    outer loop
      vertex -7.132924 2.317627 5.000000
      vertex -3.946709 1.436485 5.000000
      vertex -3.217387 2.699708 5.000000
    endloop
  endfacet
  facet normal 0.000000 -0.000000 1.000000
    outer loop
      vertex -7.132924 2.317627 5.000000
      vertex -7.500000 0.000000 5.000000
      vertex -3.946709 1.436485 5.000000
    endloop
  endfacet
  facet normal 0.000000 0.000000 1.000000
    outer loop
      vertex 15.500000 7.500000 5.000000
      vertex -0.729322 4.136193 5.000000
      vertex 0.729322 4.136193 5.000000
    endloop
  endfacet
  facet normal 0.000000 0.000000 1.000000
    outer loop
      vertex 15.500000 3.450000 5.000000
      vertex 0.729322 4.136193 5.000000
      vertex 2.100000 3.637307 5.000000
    endloop
  endfacet
  facet normal 0.000000 -0.000000 1.000000
    outer loop
      vertex -2.317627 7.132924 5.000000
      vertex -4.408389 6.067627 5.000000
      vertex 0.000000 7.500000 5.000000
    endloop
  endfacet
  facet normal 0.000000 0.000000 1.000000
    outer loop
      vertex 15.500000 7.500000 5.000000
      vertex 0.729322 4.136193 5.000000
      vertex 15.500000 3.450000 5.000000
    endloop
  endfacet
  facet normal 0.000000 -0.000000 1.000000
    outer loop
      vertex 0.000000 7.500000 5.000000
      vertex -0.729322 4.136193 5.000000
      vertex 15.500000 7.500000 5.000000
    endloop
  endfacet
  facet normal 0.000000 0.000000 1.000000
    outer loop
      vertex -6.067627 4.408389 5.000000
      vertex -2.100000 3.637307 5.000000
      vertex -0.729322 4.136193 5.000000
    endloop
  endfacet
  facet normal 0.000000 0.000000 1.000000
    outer loop
      vertex 0.000000 7.500000 5.000000
      vertex -4.408389 6.067627 5.000000
      vertex -0.729322 4.136193 5.000000
    endloop
  endfacet
  facet normal 0.000000 -0.000000 1.000000
    outer loop
      vertex -4.408389 6.067627 5.000000
      vertex -6.067627 4.408389 5.000000
      vertex -0.729322 4.136193 5.000000
    endloop
  endfacet
  facet normal 0.000000 0.000000 1.000000
    outer loop
      vertex -2.100000 3.637307 5.000000
      vertex -7.132924 2.317627 5.000000
      vertex -3.217387 2.699708 5.000000
    endloop
  endfacet
  facet normal 0.000000 0.000000 1.000000
    outer loop
      vertex -3.946709 1.436485 5.000000
      vertex -7.500000 0.000000 5.000000
      vertex -4.200000 0.000000 5.000000
    endloop
  endfacet
  facet normal 0.000000 -0.000000 1.000000
    outer loop
      vertex -3.946709 -1.436485 5.000000
      vertex -7.132924 -2.317627 5.000000
      vertex -3.217387 -2.699708 5.000000
    endloop
  endfacet
  facet normal 0.000000 0.000000 1.000000
    outer loop
      vertex -0.729322 -4.136193 5.000000
      vertex -2.100000 -3.637307 5.000000
      vertex -35.300000 -3.500000 5.000000
    endloop
  endfacet
  facet normal 0.000000 0.000000 1.000000
    outer loop
      vertex 2.323224 3.450000 5.000000
      vertex 15.500000 3.450000 5.000000
      vertex 2.100000 3.637307 5.000000
    endloop
  endfacet
  facet normal 0.000000 -0.000000 1.000000
    outer loop
      vertex -6.067627 4.408389 5.000000
      vertex -7.132924 2.317627 5.000000
      vertex -2.100000 3.637307 5.000000
    endloop
  endfacet
  facet normal 0.000000 -0.000000 1.000000
    outer loop
      vertex 2.323224 -3.450000 5.000000
      vertex 2.100000 -3.637307 5.000000
      vertex 15.500000 -3.450000 5.000000
    endloop
  endfacet
  facet normal 0.000000 0.000000 1.000000
    outer loop
      vertex -2.100000 -3.637307 5.000000
      vertex -3.217387 -2.699708 5.000000
      vertex -6.530475 -3.500000 5.000000
    endloop
  endfacet
  facet normal 0.951057 0.000000 0.309017
    outer loop
      vertex -33.051722 -7.500000 -0.764121
      vertex -33.051722 -3.500000 -0.764121
      vertex -33.300000 -3.500000 0.000000
    endloop
  endfacet
  facet normal 0.951057 0.000000 0.309017
    outer loop
      vertex -33.300000 -7.500000 0.000000
      vertex -33.051722 -7.500000 -0.764121
      vertex -33.300000 -3.500000 0.000000
    endloop
  endfacet
  facet normal 0.587785 0.000000 0.809017
    outer loop
      vertex -32.401722 -7.500000 -1.236373
      vertex -32.401722 -3.500000 -1.236373
      vertex -33.051722 -3.500000 -0.764121
    endloop
  endfacet
  facet normal 0.587785 0.000000 0.809017
    outer loop
      vertex -33.051722 -7.500000 -0.764121
      vertex -32.401722 -7.500000 -1.236373
      vertex -33.051722 -3.500000 -0.764121
    endloop
  endfacet
  facet normal 0.000000 0.000000 1.000000
    outer loop
      vertex -31.598278 -7.500000 -1.236373
      vertex -31.598278 -3.500000 -1.236373
      vertex -32.401722 -3.500000 -1.236373
    endloop
  endfacet
  facet normal 0.000000 0.000000 1.000000
    outer loop
      vertex -32.401722 -7.500000 -1.236373
      vertex -31.598278 -7.500000 -1.236373
      vertex -32.401722 -3.500000 -1.236373
    endloop
  endfacet
  facet normal -0.587785 0.000000 0.809017
    outer loop
      vertex -30.948278 -7.500000 -0.764121
      vertex -30.948278 -3.500000 -0.764121
      vertex -31.598278 -3.500000 -1.236373
    endloop
  endfacet
  facet normal -0.587785 0.000000 0.809017
    outer loop
      vertex -31.598278 -7.500000 -1.236373
      vertex -30.948278 -7.500000 -0.764121
      vertex -31.598278 -3.500000 -1.236373
    endloop
  endfacet
  facet normal -0.951057 0.000000 0.309017
    outer loop
      vertex -30.700000 -3.500000 0.000000
      vertex -30.948278 -3.500000 -0.764121
      vertex -30.700000 -7.500000 0.000000
    endloop
  endfacet
  facet normal -0.951057 0.000000 0.309017
    outer loop
      vertex -30.700000 -7.500000 0.000000
      vertex -30.948278 -3.500000 -0.764121
      vertex -30.948278 -7.500000 -0.764121
    endloop
  endfacet
  facet normal -0.951057 -0.000000 -0.309017
    outer loop
      vertex -30.700000 -3.500000 0.000000
      vertex -30.700000 -7.500000 0.000000
      vertex -30.948278 -3.500000 0.764121
    endloop
  endfacet
  facet normal -0.951057 -0.000000 -0.309017
    outer loop
      vertex -30.948278 -3.500000 0.764121
      vertex -30.700000 -7.500000 0.000000
      vertex -30.948278 -7.500000 0.764121
    endloop
  endfacet
  facet normal -0.587785 -0.000000 -0.809017
    outer loop
      vertex -30.948278 -3.500000 0.764121
      vertex -30.948278 -7.500000 0.764121
      vertex -31.598278 -3.500000 1.236373
    endloop
  endfacet
  facet normal -0.587785 -0.000000 -0.809017
    outer loop
      vertex -31.598278 -3.500000 1.236373
      vertex -30.948278 -7.500000 0.764121
      vertex -31.598278 -7.500000 1.236373
    endloop
  endfacet
  facet normal 0.000000 -0.000000 -1.000000
    outer loop
      vertex -31.598278 -3.500000 1.236373
      vertex -31.598278 -7.500000 1.236373
      vertex -32.401722 -3.500000 1.236373
    endloop
  endfacet
  facet normal 0.000000 -0.000000 -1.000000
    outer loop
      vertex -32.401722 -3.500000 1.236373
      vertex -31.598278 -7.500000 1.236373
      vertex -32.401722 -7.500000 1.236373
    endloop
  endfacet
  facet normal 0.587785 -0.000000 -0.809017
    outer loop
      vertex -32.401722 -3.500000 1.236373
      vertex -32.401722 -7.500000 1.236373
      vertex -33.051722 -3.500000 0.764121
    endloop
  endfacet
  facet normal 0.587785 -0.000000 -0.809017
    outer loop
      vertex -33.051722 -3.500000 0.764121
      vertex -32.401722 -7.500000 1.236373
      vertex -33.051722 -7.500000 0.764121
    endloop
  endfacet
  facet normal 0.951057 -0.000000 -0.309017
    outer loop
      vertex -33.300000 -3.500000 0.000000
      vertex -33.051722 -3.500000 0.764121
      vertex -33.051722 -7.500000 0.764121
    endloop
  endfacet
  facet normal 0.951057 -0.000000 -0.309017
    outer loop
      vertex -33.300000 -7.500000 0.000000
      vertex -33.300000 -3.500000 0.000000
      vertex -33.051722 -7.500000 0.764121
    endloop
  endfacet
  facet normal 0.587785 0.000000 0.809017
    outer loop
      vertex -22.901722 -7.500000 -1.236373
      vertex -22.901722 -3.500000 -1.236373
      vertex -23.551722 -3.500000 -0.764121
    endloop
  endfacet
  facet normal 0.587785 0.000000 0.809017
    outer loop
      vertex -23.551722 -7.500000 -0.764121
      vertex -22.901722 -7.500000 -1.236373
      vertex -23.551722 -3.500000 -0.764121
    endloop
  endfacet
  facet normal 0.951057 0.000000 0.309017
    outer loop
      vertex -23.551722 -7.500000 -0.764121
      vertex -23.551722 -3.500000 -0.764121
      vertex -23.800000 -3.500000 0.000000
    endloop
  endfacet
  facet normal 0.951057 0.000000 0.309017
    outer loop
      vertex -23.800000 -7.500000 0.000000
      vertex -23.551722 -7.500000 -0.764121
      vertex -23.800000 -3.500000 0.000000
    endloop
  endfacet
  facet normal 0.000000 0.000000 1.000000
    outer loop
      vertex -22.098278 -7.500000 -1.236373
      vertex -22.098278 -3.500000 -1.236373
      vertex -22.901722 -3.500000 -1.236373
    endloop
  endfacet
  facet normal 0.000000 0.000000 1.000000
    outer loop
      vertex -22.901722 -7.500000 -1.236373
      vertex -22.098278 -7.500000 -1.236373
      vertex -22.901722 -3.500000 -1.236373
    endloop
  endfacet
  facet normal -0.587785 0.000000 0.809017
    outer loop
      vertex -21.448278 -7.500000 -0.764121
      vertex -21.448278 -3.500000 -0.764121
      vertex -22.098278 -3.500000 -1.236373
    endloop
  endfacet
  facet normal -0.587785 0.000000 0.809017
    outer loop
      vertex -22.098278 -7.500000 -1.236373
      vertex -21.448278 -7.500000 -0.764121
      vertex -22.098278 -3.500000 -1.236373
    endloop
  endfacet
  facet normal -0.951057 0.000000 0.309017
    outer loop
      vertex -21.200000 -3.500000 0.000000
      vertex -21.448278 -3.500000 -0.764121
      vertex -21.200000 -7.500000 0.000000
    endloop
  endfacet
  facet normal -0.951057 0.000000 0.309017
    outer loop
      vertex -21.200000 -7.500000 0.000000
      vertex -21.448278 -3.500000 -0.764121
      vertex -21.448278 -7.500000 -0.764121
    endloop
  endfacet
  facet normal -0.951057 -0.000000 -0.309017
    outer loop
      vertex -21.200000 -3.500000 0.000000
      vertex -21.200000 -7.500000 0.000000
      vertex -21.448278 -3.500000 0.764121
    endloop
  endfacet
  facet normal -0.951057 -0.000000 -0.309017
    outer loop
      vertex -21.448278 -3.500000 0.764121
      vertex -21.200000 -7.500000 0.000000
      vertex -21.448278 -7.500000 0.764121
    endloop
  endfacet
  facet normal -0.587785 -0.000000 -0.809017
    outer loop
      vertex -21.448278 -3.500000 0.764121
      vertex -21.448278 -7.500000 0.764121
      vertex -22.098278 -3.500000 1.236373
    endloop
  endfacet
  facet normal -0.587785 -0.000000 -0.809017
    outer loop
      vertex -22.098278 -3.500000 1.236373
      vertex -21.448278 -7.500000 0.764121
      vertex -22.098278 -7.500000 1.236373
    endloop
  endfacet
  facet normal 0.000000 -0.000000 -1.000000
    outer loop
      vertex -22.098278 -3.500000 1.236373
      vertex -22.098278 -7.500000 1.236373
      vertex -22.901722 -3.500000 1.236373
    endloop
  endfacet
  facet normal 0.000000 -0.000000 -1.000000
    outer loop
      vertex -22.901722 -3.500000 1.236373
      vertex -22.098278 -7.500000 1.236373
      vertex -22.901722 -7.500000 1.236373
    endloop
  endfacet
  facet normal 0.587785 -0.000000 -0.809017
    outer loop
      vertex -22.901722 -3.500000 1.236373
      vertex -22.901722 -7.500000 1.236373
      vertex -23.551722 -3.500000 0.764121
    endloop
  endfacet
  facet normal 0.587785 -0.000000 -0.809017
    outer loop
      vertex -23.551722 -3.500000 0.764121
      vertex -22.901722 -7.500000 1.236373
      vertex -23.551722 -7.500000 0.764121
    endloop
  endfacet
  facet normal 0.951057 -0.000000 -0.309017
    outer loop
      vertex -23.800000 -3.500000 0.000000
      vertex -23.551722 -3.500000 0.764121
      vertex -23.551722 -7.500000 0.764121
    endloop
  endfacet
  facet normal 0.951057 -0.000000 -0.309017
    outer loop
      vertex -23.800000 -7.500000 0.000000
      vertex -23.800000 -3.500000 0.000000
      vertex -23.551722 -7.500000 0.764121
    endloop
  endfacet
  facet normal 0.951057 0.000000 0.309017
    outer loop
      vertex 8.165122 -7.500000 -0.969846
      vertex 8.165122 -3.450000 -0.969846
      vertex 7.850000 -3.450000 0.000000
    endloop
  endfacet
  facet normal 0.951057 0.000000 0.309017
    outer loop
      vertex 7.850000 -7.500000 0.000000
      vertex 8.165122 -7.500000 -0.969846
      vertex 7.850000 -3.450000 0.000000
    endloop
  endfacet
  facet normal 0.587785 0.000000 0.809017
    outer loop
      vertex 8.990122 -7.500000 -1.569243
      vertex 8.990122 -3.450000 -1.569243
      vertex 8.165122 -3.450000 -0.969846
    endloop
  endfacet
  facet normal 0.587785 0.000000 0.809017
    outer loop
      vertex 8.165122 -7.500000 -0.969846
      vertex 8.990122 -7.500000 -1.569243
      vertex 8.165122 -3.450000 -0.969846
    endloop
  endfacet
  facet normal 0.000000 0.000000 1.000000
    outer loop
      vertex 10.009878 -7.500000 -1.569243
      vertex 10.009878 -3.450000 -1.569243
      vertex 8.990122 -3.450000 -1.569243
    endloop
  endfacet
  facet normal 0.000000 0.000000 1.000000
    outer loop
      vertex 8.990122 -7.500000 -1.569243
      vertex 10.009878 -7.500000 -1.569243
      vertex 8.990122 -3.450000 -1.569243
    endloop
  endfacet
  facet normal -0.587785 0.000000 0.809017
    outer loop
      vertex 10.834878 -7.500000 -0.969846
      vertex 10.834878 -3.450000 -0.969846
      vertex 10.009878 -3.450000 -1.569243
    endloop
  endfacet
  facet normal -0.587785 0.000000 0.809017
    outer loop
      vertex 10.009878 -7.500000 -1.569243
      vertex 10.834878 -7.500000 -0.969846
      vertex 10.009878 -3.450000 -1.569243
    endloop
  endfacet
  facet normal -0.951057 0.000000 0.309017
    outer loop
      vertex 11.150000 -3.450000 0.000000
      vertex 10.834878 -3.450000 -0.969846
      vertex 11.150000 -7.500000 0.000000
    endloop
  endfacet
  facet normal -0.951057 0.000000 0.309017
    outer loop
      vertex 11.150000 -7.500000 0.000000
      vertex 10.834878 -3.450000 -0.969846
      vertex 10.834878 -7.500000 -0.969846
    endloop
  endfacet
  facet normal -0.951057 -0.000000 -0.309017
    outer loop
      vertex 11.150000 -3.450000 0.000000
      vertex 11.150000 -7.500000 0.000000
      vertex 10.834878 -3.450000 0.969846
    endloop
  endfacet
  facet normal -0.951057 -0.000000 -0.309017
    outer loop
      vertex 10.834878 -3.450000 0.969846
      vertex 11.150000 -7.500000 0.000000
      vertex 10.834878 -7.500000 0.969846
    endloop
  endfacet
  facet normal -0.587785 -0.000000 -0.809017
    outer loop
      vertex 10.834878 -3.450000 0.969846
      vertex 10.834878 -7.500000 0.969846
      vertex 10.009878 -3.450000 1.569243
    endloop
  endfacet
  facet normal -0.587785 -0.000000 -0.809017
    outer loop
      vertex 10.009878 -3.450000 1.569243
      vertex 10.834878 -7.500000 0.969846
      vertex 10.009878 -7.500000 1.569243
    endloop
  endfacet
  facet normal 0.000000 -0.000000 -1.000000
    outer loop
      vertex 10.009878 -3.450000 1.569243
      vertex 10.009878 -7.500000 1.569243
      vertex 8.990122 -3.450000 1.569243
    endloop
  endfacet
  facet normal 0.000000 -0.000000 -1.000000
    outer loop
      vertex 8.990122 -3.450000 1.569243
      vertex 10.009878 -7.500000 1.569243
      vertex 8.990122 -7.500000 1.569243
    endloop
  endfacet
  facet normal 0.587785 -0.000000 -0.809017
    outer loop
      vertex 8.990122 -3.450000 1.569243
      vertex 8.990122 -7.500000 1.569243
      vertex 8.165122 -3.450000 0.969846
    endloop
  endfacet
  facet normal 0.587785 -0.000000 -0.809017
    outer loop
      vertex 8.165122 -3.450000 0.969846
      vertex 8.990122 -7.500000 1.569243
      vertex 8.165122 -7.500000 0.969846
    endloop
  endfacet
  facet normal 0.951057 -0.000000 -0.309017
    outer loop
      vertex 7.850000 -3.450000 0.000000
      vertex 8.165122 -3.450000 0.969846
      vertex 8.165122 -7.500000 0.969846
    endloop
  endfacet
  facet normal 0.951057 -0.000000 -0.309017
    outer loop
      vertex 7.850000 -7.500000 0.000000
      vertex 7.850000 -3.450000 0.000000
      vertex 8.165122 -7.500000 0.969846
    endloop
  endfacet
  facet normal 0.951057 -0.000000 -0.309017
    outer loop
      vertex 7.850000 7.500000 0.000000
      vertex 8.165122 7.500000 0.969846
      vertex 8.165122 3.450000 0.969846
    endloop
  endfacet
  facet normal 0.951057 -0.000000 -0.309017
    outer loop
      vertex 7.850000 3.450000 0.000000
      vertex 7.850000 7.500000 0.000000
      vertex 8.165122 3.450000 0.969846
    endloop
  endfacet
  facet normal 0.951057 0.000000 0.309017
    outer loop
      vertex 8.165122 3.450000 -0.969846
      vertex 8.165122 7.500000 -0.969846
      vertex 7.850000 7.500000 0.000000
    endloop
  endfacet
  facet normal 0.951057 0.000000 0.309017
    outer loop
      vertex 7.850000 3.450000 0.000000
      vertex 8.165122 3.450000 -0.969846
      vertex 7.850000 7.500000 0.000000
    endloop
  endfacet
  facet normal 0.587785 0.000000 0.809017
    outer loop
      vertex 8.990122 3.450000 -1.569243
      vertex 8.990122 7.500000 -1.569243
      vertex 8.165122 7.500000 -0.969846
    endloop
  endfacet
  facet normal 0.587785 0.000000 0.809017
    outer loop
      vertex 8.165122 3.450000 -0.969846
      vertex 8.990122 3.450000 -1.569243
      vertex 8.165122 7.500000 -0.969846
    endloop
  endfacet
  facet normal 0.000000 0.000000 1.000000
    outer loop
      vertex 10.009878 3.450000 -1.569243
      vertex 10.009878 7.500000 -1.569243
      vertex 8.990122 7.500000 -1.569243
    endloop
  endfacet
  facet normal 0.000000 0.000000 1.000000
    outer loop
      vertex 8.990122 3.450000 -1.569243
      vertex 10.009878 3.450000 -1.569243
      vertex 8.990122 7.500000 -1.569243
    endloop
  endfacet
  facet normal -0.587785 0.000000 0.809017
    outer loop
      vertex 10.834878 3.450000 -0.969846
      vertex 10.834878 7.500000 -0.969846
      vertex 10.009878 7.500000 -1.569243
    endloop
  endfacet
  facet normal -0.587785 0.000000 0.809017
    outer loop
      vertex 10.009878 3.450000 -1.569243
      vertex 10.834878 3.450000 -0.969846
      vertex 10.009878 7.500000 -1.569243
    endloop
  endfacet
  facet normal -0.951057 0.000000 0.309017
    outer loop
      vertex 11.150000 7.500000 0.000000
      vertex 10.834878 7.500000 -0.969846
      vertex 11.150000 3.450000 0.000000
    endloop
  endfacet
  facet normal -0.951057 0.000000 0.309017
    outer loop
      vertex 11.150000 3.450000 0.000000
      vertex 10.834878 7.500000 -0.969846
      vertex 10.834878 3.450000 -0.969846
    endloop
  endfacet
  facet normal -0.951057 -0.000000 -0.309017
    outer loop
      vertex 11.150000 7.500000 0.000000
      vertex 11.150000 3.450000 0.000000
      vertex 10.834878 7.500000 0.969846
    endloop
  endfacet
  facet normal -0.951057 -0.000000 -0.309017
    outer loop
      vertex 10.834878 7.500000 0.969846
      vertex 11.150000 3.450000 0.000000
      vertex 10.834878 3.450000 0.969846
    endloop
  endfacet
  facet normal -0.587785 -0.000000 -0.809017
    outer loop
      vertex 10.834878 7.500000 0.969846
      vertex 10.834878 3.450000 0.969846
      vertex 10.009878 7.500000 1.569243
    endloop
  endfacet
  facet normal -0.587785 -0.000000 -0.809017
    outer loop
      vertex 10.009878 7.500000 1.569243
      vertex 10.834878 3.450000 0.969846
      vertex 10.009878 3.450000 1.569243
    endloop
  endfacet
  facet normal 0.000000 -0.000000 -1.000000
    outer loop
      vertex 10.009878 7.500000 1.569243
      vertex 10.009878 3.450000 1.569243
      vertex 8.990122 7.500000 1.569243
    endloop
  endfacet
  facet normal 0.000000 -0.000000 -1.000000
    outer loop
      vertex 8.990122 7.500000 1.569243
      vertex 10.009878 3.450000 1.569243
      vertex 8.990122 3.450000 1.569243
    endloop
  endfacet
  facet normal 0.587785 -0.000000 -0.809017
    outer loop
      vertex 8.990122 7.500000 1.569243
      vertex 8.990122 3.450000 1.569243
      vertex 8.165122 7.500000 0.969846
    endloop
  endfacet
  facet normal 0.587785 -0.000000 -0.809017
    outer loop
      vertex 8.165122 7.500000 0.969846
      vertex 8.990122 3.450000 1.569243
      vertex 8.165122 3.450000 0.969846
    endloop
  endfacet
endsolid OpenSCAD_Model
